<svg width="352" height="428" viewBox="0 0 352 428" fill="none" xmlns="http://www.w3.org/2000/svg">
<path d="M39.3102 162.27C39.3102 162.27 31.2403 91.1497 30.3903 75.1497C30.3903 75.1497 23.9904 68.5597 6.78041 74.1497C6.78041 74.1497 -11.1196 167.15 14.9904 189.55C14.9904 189.55 21.1404 194.84 47.0504 204.65C48.1804 186.07 52.7904 174.54 55.2404 165.73C49.8104 164.74 44.3902 163.59 39.3102 162.27Z" fill="#FAA284"/>
<path d="M114.311 172.2C114.311 172.2 81.4804 170.69 55.2104 165.76C52.7604 174.57 48.1505 186.1 47.0205 204.68C60.3805 209.74 85.0205 216.01 110.75 223.38C110.75 223.38 121.881 201.92 114.311 172.2Z" fill="#BA2F24"/>
<path d="M44.3909 163.619C44.3909 163.619 43.691 159.619 50.051 160.619C56.411 161.619 67.0507 162.369 66.1907 166.739C66.1907 166.739 56.6711 191.909 55.8211 206.739C55.8211 206.739 55.6709 209.209 51.7009 208.079C47.7309 206.949 36.2508 206.509 37.0408 200.849C37.0208 200.909 40.5609 175.149 44.3909 163.619Z" fill="#D8453A"/>
<path d="M17 32.67C19.3464 32.6756 21.688 32.8797 24 33.28V4.09C24 1.37 25.8003 0 28.5103 0H28.6802C31.4002 0 34 1.37 34 4.09V63.47C34 73.79 26.39 82.17 17 82.17C7.61 82.17 0 73.79 0 63.47V46.42C0 36.09 7.61 32.67 17 32.67Z" fill="#FAA284"/>
<path d="M162.73 2.15C162.73 2.15 239.23 -9.35 235.23 58.15C231.23 125.65 248.4 191.98 246.82 239.98C246.82 239.98 189.92 259.98 118.58 239.98C118.58 239.98 120.98 146.92 112.44 82.69C103.23 13.42 127.39 -0.33 162.73 2.15Z" fill="url(#paint0_linear_1253_8881)"/>
<path d="M207.52 328.66C207.52 328.66 242.69 369.97 251.83 542.33C251.83 542.33 176.68 565.33 69.1699 542.33C69.1699 542.33 87.8302 365.05 120.22 327.09L207.52 328.66Z" fill="#353B42"/>
<path d="M196.601 170.63C196.601 170.63 178.65 166.58 168.65 166.46C158.65 166.34 143.481 170.04 143.481 170.04C133.831 171.544 124.076 172.267 114.311 172.2L112.311 205.78C96.6306 225.85 96.7706 231.46 96.7706 240.35C96.7706 255.71 110.391 265.14 110.391 265.14L120.301 327.5C172.441 347.77 207.44 328.66 207.44 328.66C213.22 289.27 228.001 238.77 228.001 238.77V180.23C220.001 176.57 204.731 172.98 196.601 170.63Z" fill="#CE3B28"/>
<path opacity="0.2" d="M147.581 203.88L162.751 189.72L170.681 207.22C170.681 207.22 195.101 192.96 196.921 170.62C195.831 170.38 178.521 166.57 168.841 166.46C158.841 166.36 143.571 170.04 143.571 170.04L143.011 170.19C142.391 176.71 141.821 190.77 147.581 203.88Z" fill="black"/>
<path d="M155.471 158.46L155.381 183.21L185.661 183.33L185.781 151.13C176.839 157.028 166.119 159.62 155.471 158.46Z" fill="#FAA284"/>
<path d="M185.781 151.15L185.881 126.35L155.601 126.23L155.471 158.48C166.119 159.641 176.839 157.048 185.781 151.15Z" fill="#EF8D72"/>
<path d="M155.471 158.46C155.471 158.46 154.841 174.03 164.801 179.77C164.801 179.77 184.361 174.43 185.801 158.46L197.011 170.63C197.011 170.63 189.911 191.46 171.661 199.96L164.21 183.27L148.871 198.44C148.871 198.44 142.641 180.73 143.681 169.1L155.471 158.46Z" fill="#CE3B28"/>
<path opacity="0.1" d="M99.6807 245.871C99.6807 245.871 103.68 249.221 112.25 249.961C129.62 251.461 166.12 254.591 191.25 250.551C201.79 248.861 203.531 243.551 211.471 237.311C211.471 237.311 212.74 264.311 179.71 263.781C146.68 263.251 101.751 267.301 99.6807 245.871Z" fill="black"/>
<path d="M204.741 77.4297C204.741 77.4297 218.74 78.9997 219.9 85.6697C221.06 92.3397 217.691 118.67 223.131 166.67C223.131 166.67 210.571 123.95 211.231 99.1397C211.231 99.1497 204.301 85.7897 204.741 77.4297Z" fill="#511E17"/>
<path d="M232.24 33.1494C228.586 22.6474 220.965 13.9933 211.01 9.03937C202.88 21.7894 183.1 33.6894 159.65 29.9694C138.84 26.6694 134.39 14.1994 133.89 5.60938C125.95 9.00938 119.64 14.9794 115.58 24.6094C152.93 55.0894 204.39 43.2494 232.24 33.1494Z" fill="#994A3D"/>
<path d="M111.561 75.2301C111.561 75.2301 113.63 132.96 114.9 162C116.23 192.42 114.721 227 105.471 239.67C105.471 239.67 135.9 245.67 139.23 224.33C142.56 202.99 136.091 100.98 129.911 74.3301L111.561 75.2301Z" fill="#7C3425"/>
<path d="M212.07 83.75L211.27 84.03C211.27 84.03 205.7 87.67 204.74 77.43C177.67 64.82 159.65 30 159.65 30C127.39 34.33 119.46 58 118.58 77.87C120.05 85.3 121.89 97.19 121.31 107.43C119.88 133 141.45 149.64 160.6 149.62C197.39 149.57 206.73 116.92 206.73 116.92C206.73 116.92 223.84 119.83 226.05 96.85C227.86 78.07 212.07 83.75 212.07 83.75Z" fill="#FAA284"/>
<g opacity="0.9">
<path opacity="0.09" d="M138.39 95.4807C141.413 96.0542 144.198 97.5111 146.393 99.6672C148.588 101.823 150.095 104.582 150.722 107.594C151.35 110.606 151.07 113.737 149.919 116.59C148.768 119.444 146.796 121.892 144.254 123.625C141.712 125.358 138.713 126.298 135.636 126.327C132.559 126.356 129.542 125.472 126.968 123.787C124.393 122.102 122.377 119.692 121.172 116.86C119.967 114.029 119.629 110.904 120.2 107.881C120.579 105.872 121.351 103.957 122.47 102.247C123.59 100.536 125.036 99.0627 126.725 97.9112C128.415 96.7596 130.314 95.9522 132.316 95.5352C134.317 95.1181 136.381 95.0996 138.39 95.4807Z" fill="#EA7460"/>
<path opacity="0.18" d="M138.131 96.9509C140.865 97.4686 143.384 98.7856 145.37 100.735C147.356 102.685 148.72 105.18 149.287 107.905C149.855 110.629 149.603 113.461 148.561 116.042C147.519 118.623 145.735 120.836 143.435 122.403C141.135 123.97 138.422 124.82 135.639 124.845C132.856 124.87 130.128 124.069 127.801 122.543C125.473 121.017 123.65 118.836 122.562 116.274C121.475 113.712 121.171 110.885 121.69 108.151C122.389 104.487 124.512 101.251 127.594 99.1508C130.676 97.0511 134.466 96.2599 138.131 96.9509Z" fill="#EA7460"/>
<path opacity="0.27" d="M137.85 98.4205C140.293 98.8837 142.544 100.061 144.317 101.804C146.091 103.546 147.308 105.776 147.815 108.21C148.321 110.644 148.095 113.174 147.163 115.479C146.232 117.785 144.637 119.762 142.582 121.161C140.527 122.561 138.102 123.319 135.616 123.34C133.129 123.361 130.693 122.645 128.614 121.281C126.535 119.917 124.907 117.967 123.936 115.678C122.965 113.389 122.695 110.863 123.16 108.421C123.786 105.148 125.684 102.258 128.437 100.383C131.191 98.5083 134.576 97.8025 137.85 98.4205Z" fill="#EA7460"/>
<path opacity="0.36" d="M137.57 99.9011C139.719 100.309 141.699 101.345 143.259 102.878C144.819 104.411 145.89 106.372 146.335 108.513C146.781 110.654 146.582 112.879 145.763 114.908C144.944 116.936 143.542 118.675 141.735 119.907C139.927 121.139 137.795 121.807 135.608 121.827C133.421 121.847 131.277 121.218 129.448 120.019C127.618 118.821 126.185 117.107 125.329 115.094C124.473 113.081 124.233 110.86 124.64 108.711C124.91 107.283 125.459 105.923 126.255 104.707C127.051 103.492 128.079 102.445 129.28 101.627C130.48 100.809 131.831 100.235 133.253 99.9392C134.676 99.643 136.143 99.6301 137.57 99.9011Z" fill="#EA7460"/>
<path opacity="0.45" d="M137.291 101.371C139.151 101.722 140.865 102.618 142.216 103.944C143.567 105.269 144.495 106.966 144.882 108.819C145.268 110.672 145.097 112.599 144.388 114.354C143.68 116.11 142.467 117.616 140.903 118.682C139.339 119.748 137.493 120.326 135.6 120.344C133.707 120.361 131.852 119.816 130.269 118.779C128.685 117.742 127.445 116.258 126.705 114.516C125.965 112.773 125.758 110.851 126.111 108.991C126.584 106.498 128.027 104.295 130.123 102.866C132.22 101.437 134.798 100.899 137.291 101.371Z" fill="#EA7460"/>
<path opacity="0.55" d="M137.01 102.841C138.578 103.138 140.023 103.893 141.162 105.011C142.302 106.129 143.084 107.559 143.41 109.122C143.736 110.684 143.591 112.308 142.994 113.788C142.397 115.269 141.375 116.539 140.056 117.438C138.737 118.337 137.181 118.825 135.585 118.84C133.989 118.855 132.425 118.396 131.09 117.522C129.754 116.648 128.708 115.398 128.083 113.929C127.459 112.46 127.283 110.839 127.58 109.271C127.777 108.229 128.177 107.237 128.758 106.35C129.338 105.464 130.088 104.7 130.963 104.103C131.839 103.506 132.824 103.087 133.861 102.87C134.899 102.654 135.969 102.644 137.01 102.841Z" fill="#EA7460"/>
<path opacity="0.64" d="M136.731 104.321C138.005 104.563 139.179 105.177 140.104 106.086C141.029 106.995 141.665 108.158 141.929 109.428C142.194 110.697 142.076 112.017 141.591 113.22C141.106 114.423 140.274 115.455 139.203 116.186C138.131 116.916 136.867 117.313 135.57 117.325C134.273 117.338 133.002 116.966 131.916 116.255C130.831 115.545 129.98 114.529 129.472 113.336C128.964 112.143 128.821 110.826 129.061 109.551C129.219 108.703 129.544 107.895 130.015 107.173C130.487 106.45 131.097 105.828 131.809 105.342C132.522 104.856 133.324 104.516 134.168 104.341C135.013 104.165 135.883 104.159 136.731 104.321Z" fill="#EA7460"/>
<path opacity="0.73" d="M136.45 105.791C137.437 105.979 138.346 106.455 139.061 107.159C139.777 107.864 140.267 108.765 140.47 109.749C140.673 110.732 140.579 111.754 140.2 112.684C139.822 113.614 139.175 114.411 138.343 114.973C137.511 115.535 136.53 115.838 135.526 115.842C134.522 115.846 133.539 115.552 132.702 114.997C131.865 114.442 131.212 113.651 130.825 112.724C130.439 111.797 130.336 110.776 130.53 109.791C130.789 108.478 131.557 107.321 132.666 106.571C133.775 105.822 135.135 105.541 136.45 105.791Z" fill="#EA7460"/>
<path opacity="0.82" d="M136.18 107.261C136.873 107.394 137.511 107.729 138.014 108.224C138.517 108.718 138.862 109.351 139.005 110.042C139.149 110.733 139.084 111.45 138.82 112.104C138.555 112.759 138.104 113.32 137.521 113.717C136.938 114.115 136.25 114.33 135.545 114.337C134.839 114.344 134.148 114.142 133.557 113.756C132.966 113.371 132.503 112.818 132.226 112.17C131.949 111.521 131.871 110.805 132 110.111C132.177 109.179 132.717 108.356 133.501 107.821C134.285 107.287 135.248 107.085 136.18 107.261Z" fill="#EA7460"/>
<path opacity="0.91" d="M135.9 108.731C136.304 108.807 136.677 109.002 136.971 109.291C137.264 109.579 137.466 109.949 137.549 110.352C137.633 110.755 137.595 111.174 137.44 111.555C137.286 111.937 137.022 112.264 136.681 112.495C136.341 112.726 135.939 112.851 135.527 112.854C135.116 112.857 134.712 112.738 134.369 112.511C134.025 112.285 133.756 111.962 133.596 111.582C133.436 111.203 133.392 110.785 133.47 110.381C133.521 110.112 133.623 109.856 133.773 109.628C133.922 109.4 134.116 109.203 134.342 109.05C134.568 108.896 134.821 108.789 135.089 108.735C135.356 108.68 135.632 108.678 135.9 108.731Z" fill="#EA7460"/>
<path opacity="0.9" d="M136.071 110.881C136.049 110.991 135.995 111.093 135.915 111.173C135.835 111.252 135.734 111.307 135.624 111.329C135.513 111.351 135.399 111.34 135.294 111.297C135.19 111.254 135.101 111.182 135.038 111.088C134.975 110.994 134.942 110.884 134.941 110.772C134.941 110.659 134.974 110.549 135.037 110.455C135.099 110.361 135.188 110.288 135.292 110.244C135.395 110.201 135.51 110.189 135.621 110.211C135.694 110.225 135.764 110.254 135.827 110.295C135.889 110.337 135.943 110.39 135.985 110.452C136.027 110.515 136.056 110.585 136.07 110.658C136.085 110.732 136.085 110.807 136.071 110.881Z" fill="#EA7460"/>
</g>
<g opacity="0.9">
<path opacity="0.09" d="M187.78 94.3596C191.02 94.9728 194.005 96.5329 196.358 98.8424C198.71 101.152 200.325 104.107 200.999 107.335C201.672 110.562 201.373 113.917 200.139 116.975C198.906 120.032 196.794 122.655 194.069 124.513C191.345 126.37 188.132 127.377 184.835 127.408C181.538 127.439 178.306 126.491 175.548 124.685C172.79 122.879 170.629 120.296 169.339 117.262C168.049 114.228 167.687 110.879 168.3 107.64C169.125 103.297 171.639 99.4584 175.292 96.9683C178.945 94.4783 183.436 93.54 187.78 94.3596Z" fill="#EA7460"/>
<path opacity="0.18" d="M187.491 95.9402C190.419 96.4947 193.118 97.9053 195.245 99.9935C197.372 102.082 198.832 104.754 199.44 107.672C200.048 110.59 199.778 113.623 198.662 116.387C197.547 119.151 195.637 121.522 193.173 123.201C190.71 124.879 187.804 125.789 184.824 125.816C181.843 125.844 178.922 124.986 176.428 123.353C173.935 121.719 171.982 119.383 170.817 116.64C169.651 113.896 169.326 110.869 169.881 107.94C170.628 104.015 172.901 100.547 176.203 98.297C179.505 96.0471 183.565 95.1995 187.491 95.9402Z" fill="#EA7460"/>
<path opacity="0.27" d="M187.191 97.5203C189.806 98.0158 192.216 99.2758 194.116 101.141C196.015 103.006 197.319 105.392 197.863 107.999C198.406 110.605 198.164 113.313 197.168 115.782C196.171 118.251 194.466 120.369 192.266 121.868C190.066 123.367 187.471 124.18 184.809 124.205C182.147 124.229 179.538 123.463 177.311 122.005C175.084 120.546 173.339 118.46 172.298 116.01C171.257 113.56 170.965 110.856 171.461 108.24C171.79 106.504 172.457 104.849 173.426 103.37C174.395 101.891 175.645 100.618 177.106 99.6225C178.566 98.6271 180.209 97.9291 181.939 97.5684C183.67 97.2077 185.454 97.1913 187.191 97.5203Z" fill="#EA7460"/>
<path opacity="0.36" d="M186.89 99.1505C189.192 99.5887 191.312 100.699 192.983 102.342C194.653 103.985 195.799 106.086 196.276 108.38C196.753 110.674 196.539 113.058 195.661 115.231C194.784 117.403 193.281 119.267 191.345 120.585C189.408 121.904 187.124 122.62 184.781 122.641C182.438 122.662 180.142 121.988 178.182 120.704C176.222 119.421 174.686 117.585 173.769 115.429C172.852 113.272 172.595 110.893 173.03 108.59C173.32 107.06 173.908 105.602 174.761 104.299C175.614 102.996 176.716 101.874 178.004 100.997C179.291 100.121 180.738 99.5062 182.263 99.1893C183.788 98.8724 185.36 98.8592 186.89 99.1505Z" fill="#EA7460"/>
<path opacity="0.45" d="M186.591 100.67C188.581 101.051 190.413 102.013 191.856 103.435C193.3 104.857 194.29 106.674 194.701 108.658C195.112 110.642 194.926 112.703 194.166 114.581C193.406 116.459 192.107 118.07 190.432 119.21C188.758 120.35 186.783 120.969 184.757 120.987C182.731 121.006 180.745 120.423 179.05 119.313C177.355 118.204 176.027 116.617 175.233 114.753C174.44 112.889 174.216 110.831 174.591 108.84C174.842 107.516 175.351 106.253 176.09 105.126C176.829 103.998 177.783 103.027 178.898 102.268C180.012 101.51 181.265 100.978 182.585 100.704C183.905 100.429 185.267 100.418 186.591 100.67Z" fill="#EA7460"/>
<path opacity="0.55" d="M186.29 102.25C187.969 102.568 189.515 103.377 190.734 104.574C191.953 105.77 192.79 107.302 193.139 108.974C193.488 110.647 193.333 112.385 192.695 113.969C192.056 115.554 190.961 116.913 189.55 117.876C188.139 118.839 186.474 119.362 184.765 119.378C183.057 119.395 181.382 118.905 179.952 117.97C178.523 117.035 177.402 115.697 176.733 114.125C176.063 112.554 175.874 110.819 176.19 109.14C176.4 108.024 176.828 106.96 177.45 106.01C178.071 105.06 178.874 104.241 179.812 103.601C180.75 102.961 181.805 102.513 182.917 102.281C184.028 102.049 185.175 102.038 186.29 102.25Z" fill="#EA7460"/>
<path opacity="0.64" d="M185.991 103.83C187.347 104.094 188.595 104.753 189.577 105.725C190.56 106.696 191.232 107.937 191.511 109.29C191.789 110.643 191.661 112.049 191.142 113.329C190.624 114.61 189.737 115.708 188.595 116.486C187.454 117.264 186.107 117.687 184.726 117.701C183.344 117.715 181.989 117.32 180.832 116.565C179.674 115.811 178.766 114.731 178.221 113.461C177.677 112.191 177.52 110.789 177.771 109.43C177.939 108.52 178.285 107.653 178.79 106.879C179.295 106.104 179.949 105.437 180.713 104.916C181.477 104.395 182.337 104.031 183.243 103.845C184.149 103.658 185.083 103.653 185.991 103.83Z" fill="#EA7460"/>
<path opacity="0.73" d="M185.691 105.41C186.746 105.609 187.719 106.117 188.487 106.869C189.254 107.621 189.781 108.584 190 109.636C190.22 110.688 190.123 111.781 189.721 112.777C189.319 113.774 188.63 114.628 187.742 115.233C186.855 115.838 185.807 116.166 184.733 116.176C183.659 116.185 182.606 115.876 181.707 115.287C180.809 114.698 180.105 113.855 179.686 112.866C179.266 111.877 179.15 110.786 179.351 109.73C179.483 109.03 179.752 108.363 180.142 107.766C180.532 107.17 181.036 106.657 181.625 106.255C182.214 105.854 182.876 105.573 183.574 105.428C184.272 105.283 184.991 105.277 185.691 105.41Z" fill="#EA7460"/>
<path opacity="0.82" d="M185.391 106.98C186.136 107.12 186.822 107.478 187.364 108.008C187.905 108.538 188.277 109.217 188.432 109.959C188.588 110.701 188.52 111.472 188.237 112.175C187.954 112.878 187.469 113.481 186.843 113.908C186.217 114.335 185.478 114.567 184.72 114.574C183.962 114.581 183.219 114.364 182.585 113.948C181.951 113.533 181.455 112.939 181.158 112.242C180.862 111.544 180.779 110.775 180.921 110.03C181.112 109.035 181.69 108.155 182.527 107.584C183.365 107.013 184.394 106.796 185.391 106.98Z" fill="#EA7460"/>
<path opacity="0.91" d="M185.091 108.56C185.522 108.641 185.92 108.848 186.234 109.155C186.548 109.463 186.764 109.856 186.854 110.286C186.945 110.716 186.906 111.163 186.742 111.57C186.578 111.978 186.297 112.328 185.935 112.575C185.572 112.823 185.144 112.958 184.705 112.962C184.265 112.967 183.835 112.841 183.467 112.601C183.1 112.36 182.812 112.016 182.64 111.612C182.468 111.208 182.419 110.762 182.5 110.33C182.61 109.752 182.944 109.241 183.43 108.91C183.915 108.578 184.513 108.452 185.091 108.56Z" fill="#EA7460"/>
<path opacity="0.9" d="M185.281 110.86C185.266 110.939 185.236 111.013 185.193 111.08C185.149 111.147 185.092 111.204 185.026 111.249C184.96 111.294 184.886 111.325 184.807 111.341C184.729 111.356 184.649 111.356 184.571 111.34C184.492 111.326 184.417 111.296 184.349 111.252C184.282 111.209 184.224 111.152 184.179 111.087C184.133 111.021 184.101 110.946 184.084 110.868C184.067 110.79 184.066 110.709 184.08 110.63C184.112 110.47 184.205 110.329 184.34 110.237C184.475 110.146 184.64 110.111 184.801 110.14C184.88 110.154 184.956 110.184 185.023 110.229C185.091 110.273 185.149 110.331 185.194 110.398C185.238 110.465 185.27 110.541 185.284 110.62C185.299 110.7 185.298 110.781 185.281 110.86Z" fill="#EA7460"/>
</g>
<path d="M160.181 113.63C153.781 116.54 149.771 115.03 148.941 110.74C148.401 107.95 150.031 104.74 151.781 103.2C155.371 100.01 156.971 90.6798 156.991 90.5898C157.261 92.5898 156.861 100.38 152.481 105.78C152.039 106.276 151.703 106.858 151.493 107.489C151.283 108.12 151.204 108.787 151.261 109.45C151.501 112.64 154.561 115.13 160.181 113.63Z" fill="#DB7C65"/>
<path d="M133 86.9998C127 86.9998 124.233 91.0001 124.233 93.854C124.233 93.854 123.295 96.5103 134 97.4999C142.747 97.3545 145.609 94.8865 145.589 94.2357C145.547 92.4884 144 87.5 133 86.9998Z" fill="#F2F0F0"/>
<path d="M139.125 91.0931C139.089 90.2407 138.799 89.4185 138.293 88.7319C137.786 88.0453 137.086 87.5258 136.283 87.24C135.479 86.9541 134.608 86.915 133.782 87.1277C132.955 87.3403 132.212 87.7951 131.646 88.4335C131.08 89.0719 130.718 89.8649 130.606 90.7106C130.494 91.5564 130.637 92.4163 131.017 93.18C131.397 93.9438 131.997 94.5764 132.739 94.9968C133.482 95.4172 134.333 95.6062 135.183 95.5394C136.292 95.4626 137.326 94.9537 138.063 94.1221C138.8 93.2906 139.182 92.2029 139.125 91.0931Z" fill="#487CB8"/>
<path d="M137.886 91.1834C137.811 90.3946 137.426 89.6677 136.817 89.1613C136.207 88.6549 135.422 88.4102 134.633 88.4805C134.248 88.5102 133.872 88.6155 133.527 88.7904C133.183 88.9653 132.876 89.2064 132.624 89.4999C132.373 89.7934 132.181 90.1335 132.061 90.501C131.941 90.8684 131.895 91.2558 131.924 91.6412C131.954 92.0266 132.059 92.4024 132.234 92.7471C132.409 93.0918 132.65 93.3987 132.944 93.6502C133.237 93.9018 133.577 94.093 133.945 94.2131C134.312 94.3331 134.7 94.3797 135.085 94.35C135.875 94.2988 136.613 93.9371 137.138 93.3439C137.663 92.7507 137.932 91.974 137.886 91.1834Z" fill="#18100E"/>
<path d="M139.104 89.9265C139.093 89.7626 139.049 89.6025 138.975 89.4555C138.902 89.3085 138.8 89.1774 138.676 89.0697C138.551 88.962 138.407 88.8798 138.251 88.8279C138.095 88.7759 137.931 88.7552 137.767 88.7669C137.603 88.7785 137.443 88.8224 137.296 88.8959C137.149 88.9695 137.018 89.0712 136.91 89.1954C136.802 89.3196 136.72 89.4638 136.668 89.6197C136.616 89.7757 136.595 89.9403 136.607 90.1043C136.638 90.4311 136.796 90.7329 137.047 90.9443C137.298 91.1558 137.622 91.2599 137.949 91.2343C138.275 91.2125 138.579 91.0629 138.796 90.818C139.012 90.5731 139.123 90.2527 139.104 89.9265Z" fill="#EFECEC"/>
<path d="M134.011 83.3879C146.408 83.1331 145.575 92.1827 145.575 92.1827C145.575 92.1827 142.064 86.1402 133.437 86.6181C128.15 86.9076 124.22 91.801 124.22 91.801C124.22 91.801 124.671 83.5725 134.011 83.3879Z" fill="#E6966E"/>
<path d="M133.915 85.8319C144.636 85.0934 145.576 92.1826 145.576 92.1826C145.576 92.1826 141.347 86.0687 133.804 87.1911C126.915 88.2129 124.225 91.7713 124.225 91.7713C124.225 91.7713 124.698 86.4608 133.915 85.8319Z" fill="#412118"/>
<path d="M180 85.9998C187.5 86.4997 190.165 90.4998 190.165 93.8269C190.165 93.8269 189.415 97.0708 179.5 97.4999C169.988 97.3641 168.77 94.4715 168.79 93.8877C168.79 89.5 173.001 87.0001 180 85.9998Z" fill="#F2F0F0"/>
<path d="M175.311 90.8653C175.434 89.7572 175.99 88.7424 176.857 88.0417C177.724 87.341 178.833 87.0111 179.942 87.1236C180.752 87.2216 181.515 87.556 182.136 88.085C182.757 88.6141 183.208 89.3143 183.433 90.0983C183.658 90.8823 183.647 91.7152 183.401 92.493C183.156 93.2708 182.686 93.959 182.052 94.4716C181.418 94.9842 180.646 95.2985 179.834 95.3752C179.022 95.4519 178.206 95.2876 177.486 94.9028C176.767 94.5181 176.177 93.9299 175.79 93.2118C175.404 92.4938 175.237 91.6776 175.311 90.8653Z" fill="#487CB8"/>
<path d="M176.599 90.9847C176.64 90.3906 176.858 89.8223 177.224 89.3523C177.589 88.8822 178.087 88.5317 178.652 88.3453C179.218 88.1589 179.827 88.1451 180.4 88.3056C180.974 88.4662 181.486 88.7939 181.873 89.2468C182.26 89.6998 182.503 90.2576 182.571 90.8493C182.64 91.4409 182.531 92.0396 182.258 92.569C181.985 93.0984 181.561 93.5346 181.039 93.8221C180.518 94.1095 179.922 94.2352 179.329 94.1831C178.545 94.1143 177.82 93.7406 177.31 93.1424C176.799 92.5442 176.544 91.7693 176.599 90.9847Z" fill="#18100E"/>
<path d="M181.661 90.074C181.676 89.8254 181.765 89.5869 181.916 89.3892C182.068 89.1915 182.275 89.0435 182.511 88.9642C182.747 88.8849 183.001 88.878 183.241 88.9442C183.481 89.0105 183.696 89.1469 183.858 89.336C184.02 89.5252 184.122 89.7584 184.151 90.0058C184.179 90.2532 184.133 90.5034 184.019 90.7245C183.904 90.9456 183.726 91.1274 183.507 91.2466C183.289 91.3659 183.039 91.417 182.791 91.3936C182.63 91.3837 182.472 91.3413 182.326 91.2691C182.181 91.1968 182.052 91.0961 181.947 90.9731C181.841 90.85 181.762 90.7069 181.713 90.5525C181.664 90.398 181.646 90.2353 181.661 90.074Z" fill="#EFECEC"/>
<path d="M180.44 83.3587C168.775 82.5536 168.797 91.8375 168.797 91.8375C168.797 91.8375 172.409 85.8624 181.034 86.4976C186.319 86.8755 190.153 91.8246 190.153 91.8246C190.153 91.8246 190.523 84.059 180.44 83.3587Z" fill="#E6966E"/>
<path d="M180.225 85.8459C169.513 85.4827 168.796 91.8381 168.796 91.8381C170.23 90.1258 172.065 88.7932 174.136 87.958C176.208 87.1228 178.454 86.8108 180.675 87.0495C187.651 87.7416 190.172 91.8283 190.172 91.8283C190.172 91.8283 189.637 86.1685 180.225 85.8459Z" fill="#412118"/>
<path d="M203.98 109.15C203.98 109.15 201.41 129.01 176.17 139.82C153.93 149.35 132.231 134.61 127.391 130.97C134.941 142.71 148.261 149.62 160.601 149.6C197.391 149.55 206.73 116.9 206.73 116.9C210.065 117.331 213.45 116.691 216.397 115.074C219.345 113.456 221.703 110.944 223.131 107.9C212.541 117.96 203.98 109.15 203.98 109.15Z" fill="#EF8D72"/>
<path d="M146.62 74.0904C146.62 74.0904 137.621 71.6504 125.281 75.2304C125.281 75.2304 125.2 74.3204 127.52 72.3404C129.84 70.3604 137.811 68.4704 144.781 71.3404C144.781 71.3204 148.39 73.2604 146.62 74.0904Z" fill="#7C3425"/>
<path d="M167.241 73.56C167.241 73.56 176.241 70.96 188.601 74.32C188.601 74.32 188.661 73.41 186.311 71.47C183.961 69.53 175.951 67.79 169.031 70.77C169.031 70.77 165.451 72.77 167.241 73.56Z" fill="#7C3425"/>
<path d="M173.48 119.53C173.48 119.53 159.19 122.68 145.82 119.96C145.82 119.96 148.37 132.19 159.82 131.96C170.65 131.79 173.39 121.9 173.48 119.53Z" fill="#B22828"/>
<path d="M159.44 125.61C150.62 125.74 147.981 122.13 146.841 120.16C157.211 122.04 165.531 120.69 172.781 119.67C172.031 121.9 167.75 125.48 159.44 125.61Z" fill="white"/>
<path d="M159.65 30C127.39 34.33 119.46 58 118.58 77.87C118.58 77.87 121.8 40.27 154.51 33.87C154.51 33.87 164.91 64.74 204.74 77.47C177.67 64.82 159.65 30 159.65 30Z" fill="#EF8D72"/>
<g filter="url(#filter0_b_1253_8881)">
<path d="M133.571 109.69C143.087 109.69 150.801 101.976 150.801 92.4605C150.801 82.9446 143.087 75.2305 133.571 75.2305C124.055 75.2305 116.341 82.9446 116.341 92.4605C116.341 101.976 124.055 109.69 133.571 109.69Z" fill="url(#paint1_linear_1253_8881)"/>
</g>
<g filter="url(#filter1_b_1253_8881)">
<path d="M179.571 109.69C189.087 109.69 196.801 101.976 196.801 92.4605C196.801 82.9446 189.087 75.2305 179.571 75.2305C170.055 75.2305 162.341 82.9446 162.341 92.4605C162.341 101.976 170.055 109.69 179.571 109.69Z" fill="url(#paint2_linear_1253_8881)"/>
</g>
<path d="M133.57 110.621C129.978 110.621 126.467 109.556 123.481 107.56C120.494 105.565 118.167 102.729 116.792 99.4103C115.418 96.092 115.058 92.4406 115.759 88.9179C116.46 85.3953 118.189 82.1594 120.729 79.6197C123.269 77.08 126.505 75.3504 130.027 74.6497C133.55 73.949 137.201 74.3087 140.519 75.6831C143.838 77.0576 146.674 79.3853 148.669 82.3717C150.665 85.358 151.73 88.8691 151.73 92.4608C151.725 97.2755 149.81 101.891 146.405 105.296C143.001 108.701 138.385 110.616 133.57 110.621ZM133.57 76.3008C130.374 76.3008 127.25 77.2486 124.592 79.0242C121.935 80.7999 119.863 83.3238 118.64 86.2766C117.417 89.2295 117.097 92.4787 117.721 95.6134C118.344 98.7482 119.883 101.628 122.143 103.888C124.403 106.148 127.283 107.687 130.417 108.31C133.552 108.934 136.801 108.614 139.754 107.391C142.707 106.168 145.231 104.096 147.007 101.439C148.782 98.7813 149.73 95.6569 149.73 92.4608C149.725 88.1765 148.021 84.0692 144.991 81.0398C141.962 78.0104 137.854 76.3061 133.57 76.3008Z" fill="#CE3B28"/>
<path d="M179.57 110.621C175.978 110.621 172.467 109.556 169.481 107.56C166.494 105.565 164.167 102.729 162.792 99.4103C161.418 96.092 161.058 92.4406 161.759 88.9179C162.46 85.3953 164.189 82.1594 166.729 79.6197C169.269 77.08 172.505 75.3504 176.027 74.6497C179.55 73.949 183.201 74.3087 186.519 75.6831C189.838 77.0576 192.674 79.3853 194.669 82.3717C196.665 85.358 197.73 88.8691 197.73 92.4608C197.725 97.2755 195.81 101.891 192.405 105.296C189.001 108.701 184.385 110.616 179.57 110.621ZM179.57 76.3008C176.374 76.3008 173.25 77.2486 170.592 79.0242C167.935 80.7999 165.863 83.3238 164.64 86.2766C163.417 89.2295 163.097 92.4787 163.721 95.6134C164.344 98.7482 165.883 101.628 168.143 103.888C170.403 106.148 173.283 107.687 176.417 108.31C179.552 108.934 182.801 108.614 185.754 107.391C188.707 106.168 191.231 104.096 193.007 101.439C194.782 98.7813 195.73 95.6569 195.73 92.4608C195.725 88.1765 194.021 84.0692 190.991 81.0398C187.962 78.0104 183.854 76.3061 179.57 76.3008Z" fill="#CE3B28"/>
<path d="M162.01 91.5302C155.73 89.3002 151.19 91.4602 151.14 91.5302L150.25 89.7302C150.47 89.6302 155.56 87.1602 162.68 89.7302L162.01 91.5302Z" fill="#CE3B28"/>
<path d="M197.19 90.6199L196.011 88.9999C196.391 88.7199 208.48 79.1999 215.4 82.9999L213.311 83.3699C205.621 83.2599 197.28 90.5499 197.19 90.6199Z" fill="#CE3B28"/>
<path d="M228.101 180.23C217.811 184.29 211.481 232.67 228.161 280.7C240.722 279.551 253.145 277.207 265.261 273.7C251.831 190 228.101 180.23 228.101 180.23Z" fill="#CE3B28"/>
<path d="M269.63 305.41C268.3 293.8 266.83 283.26 265.26 273.67C253.144 277.177 240.721 279.521 228.16 280.67C229.82 292.5 234.74 303.23 236.68 311.35C245.34 347.68 281.27 411.48 281.27 411.48C295.18 414.8 301.61 406.09 301.61 406.09C289.19 363.36 269.63 305.41 269.63 305.41Z" fill="#FAA284"/>
<path d="M266.881 287.961C266.881 287.961 270.881 288.641 269.801 282.281C268.721 275.921 267.951 265.281 263.581 266.181C263.581 266.181 238.481 275.861 223.631 276.791C223.631 276.791 221.161 276.961 222.311 280.931C223.461 284.901 223.981 296.361 229.631 295.531C229.631 295.531 255.391 291.851 266.881 287.961Z" fill="#D8453A"/>
<path d="M281.51 405.92C283.93 400.42 291.77 402.42 291.77 402.42C291.77 402.42 323.29 395.15 330.43 398.96C334.91 401.36 338.63 406.77 342.15 411.07L351.24 422.07C351.24 422.07 348.67 428.72 334.24 411.22C335.59 416.48 339.73 426.22 340.24 427.95C340.24 427.95 333.58 431.39 328.75 411.47C328.93 416.03 330.87 427.47 331.08 429.47C331.08 429.47 324.66 431.64 323.75 414.55C322.64 417.55 322.2 426.9 321.83 428.1C321.83 428.1 316.92 427.72 318.24 413.5L305.08 421.22C305.08 421.22 316.83 433.1 309.83 439.72C309.83 439.72 300.64 428.88 297.21 426.6C292.648 423.711 288.357 420.414 284.39 416.75C284.39 416.75 279.1 411.42 281.51 405.92Z" fill="#FAA284"/>
<defs>
<filter id="filter0_b_1253_8881" x="114.341" y="73.2305" width="38.46" height="38.46" filterUnits="userSpaceOnUse" color-interpolation-filters="sRGB">
<feFlood flood-opacity="0" result="BackgroundImageFix"/>
<feGaussianBlur in="BackgroundImage" stdDeviation="1"/>
<feComposite in2="SourceAlpha" operator="in" result="effect1_backgroundBlur_1253_8881"/>
<feBlend mode="normal" in="SourceGraphic" in2="effect1_backgroundBlur_1253_8881" result="shape"/>
</filter>
<filter id="filter1_b_1253_8881" x="160.341" y="73.2305" width="38.46" height="38.46" filterUnits="userSpaceOnUse" color-interpolation-filters="sRGB">
<feFlood flood-opacity="0" result="BackgroundImageFix"/>
<feGaussianBlur in="BackgroundImage" stdDeviation="1"/>
<feComposite in2="SourceAlpha" operator="in" result="effect1_backgroundBlur_1253_8881"/>
<feBlend mode="normal" in="SourceGraphic" in2="effect1_backgroundBlur_1253_8881" result="shape"/>
</filter>
<linearGradient id="paint0_linear_1253_8881" x1="855402" y1="76244.3" x2="866040" y2="94728.8" gradientUnits="userSpaceOnUse">
<stop stop-color="#7C3425"/>
<stop offset="1" stop-color="#60261D"/>
</linearGradient>
<linearGradient id="paint1_linear_1253_8881" x1="-389018" y1="25824.8" x2="-389018" y2="19428" gradientUnits="userSpaceOnUse">
<stop stop-color="white" stop-opacity="0.8"/>
<stop offset="1" stop-color="white" stop-opacity="0.3"/>
</linearGradient>
<linearGradient id="paint2_linear_1253_8881" x1="-388972" y1="25824.8" x2="-388972" y2="19428" gradientUnits="userSpaceOnUse">
<stop stop-color="white" stop-opacity="0.8"/>
<stop offset="1" stop-color="white" stop-opacity="0.3"/>
</linearGradient>
</defs>
</svg>
