<svg width="363" height="430" viewBox="0 0 363 430" fill="none" xmlns="http://www.w3.org/2000/svg">
<path d="M259.647 459.75C258.147 453.59 250.987 427.61 248.037 422.75C227.377 388.75 181.597 405.51 181.597 405.51L120.387 417.51C107.777 442.18 94.5967 468.89 97.0867 493.45C99.5767 518.01 108.257 679.08 108.257 691.65C108.257 703.15 110.347 855.23 111.157 877.85C111.227 879.85 110.967 884.98 112.157 886.59C116.527 892.74 158.947 891.91 160.717 882.81C171.877 825.56 173.467 701.08 175.077 692.23C178.417 674 182.617 538.49 182.617 538.49C188.007 538.49 251.177 853.4 256.147 881.16C256.43 882.953 257.221 884.627 258.426 885.985C259.631 887.342 261.2 888.326 262.947 888.819C275.947 892.679 307.097 893.99 306.137 883.38C305.787 879.87 262.607 471.91 259.647 459.75Z" fill="#36393D"/>
<g style="mix-blend-mode:screen" opacity="0.2">
<path d="M194.177 402.439C189.908 403.09 185.7 404.093 181.597 405.439L120.387 417.439C107.777 442.109 94.5967 468.819 97.0867 493.379C99.5767 517.939 108.257 679.009 108.257 691.579C108.257 703.079 110.347 855.149 111.157 877.779C111.227 879.779 110.967 884.909 112.157 886.519C116.527 892.669 158.947 891.839 160.717 882.739C171.877 825.489 173.467 701.009 175.077 692.159C178.417 673.929 182.617 538.419 182.617 538.419L194.217 516.019L194.177 402.439Z" fill="#2E2B2D"/>
</g>
<path d="M115.578 413.11C138.688 416.4 191.798 417.28 213.348 413.36C234.898 409.44 244.448 407.29 244.448 407.29L248.038 422.73C248.038 422.73 253.828 428.73 211.268 431.31C168.708 433.89 123.098 431.54 115.578 428.42C112.168 427 115.578 413.11 115.578 413.11Z" fill="#1D1D1B"/>
<path d="M203.657 429.35C203.684 429.938 203.478 430.512 203.082 430.947C202.686 431.382 202.135 431.642 201.547 431.67L177.467 432.41C177.176 432.416 176.886 432.364 176.614 432.257C176.343 432.15 176.096 431.991 175.886 431.789C175.676 431.586 175.508 431.344 175.391 431.077C175.275 430.81 175.212 430.522 175.207 430.23L174.797 416.891C174.77 416.303 174.977 415.729 175.372 415.294C175.768 414.859 176.32 414.599 176.907 414.571L200.997 413.821C201.289 413.817 201.578 413.87 201.849 413.978C202.12 414.086 202.367 414.246 202.576 414.449C202.785 414.653 202.952 414.895 203.067 415.163C203.182 415.431 203.243 415.719 203.247 416.011L203.657 429.35Z" fill="#1D1D1B"/>
<path d="M177.397 433.75C176.519 433.751 175.674 433.415 175.037 432.81C174.694 432.487 174.418 432.098 174.226 431.667C174.033 431.236 173.928 430.772 173.917 430.3L173.497 416.97C173.487 416.497 173.57 416.027 173.741 415.586C173.913 415.145 174.17 414.742 174.497 414.4C174.807 414.069 175.18 413.804 175.593 413.618C176.007 413.433 176.454 413.331 176.907 413.32L200.987 412.57C201.438 412.552 201.889 412.625 202.312 412.784C202.734 412.944 203.12 413.188 203.447 413.5C204.136 414.158 204.541 415.058 204.577 416.01L204.987 429.35C205.005 430.305 204.645 431.228 203.987 431.92C203.679 432.251 203.308 432.516 202.896 432.702C202.484 432.887 202.039 432.989 201.587 433L177.497 433.75H177.397ZM201.067 415.16L176.977 415.9C176.751 415.913 176.54 416.014 176.387 416.18C176.211 416.374 176.117 416.629 176.127 416.89L176.537 430.23C176.546 430.492 176.657 430.74 176.847 430.92C177.013 431.073 177.231 431.159 177.457 431.16L201.537 430.41C201.649 430.409 201.759 430.384 201.86 430.338C201.962 430.291 202.053 430.224 202.127 430.14C202.219 430.045 202.29 429.932 202.334 429.808C202.379 429.684 202.397 429.552 202.387 429.42L201.957 416.05C201.958 415.918 201.931 415.787 201.877 415.667C201.824 415.546 201.745 415.438 201.647 415.35C201.49 415.203 201.283 415.121 201.067 415.12V415.16Z" fill="#C3B398"/>
<path d="M156.788 150.95C160.088 145.79 204.978 149.09 207.478 150.95C209.978 152.81 210.878 169.65 210.878 169.65V194.65L153.548 189.31L153.328 168.23C153.328 168.23 153.558 156 156.788 150.95Z" fill="#BCBEC0"/>
<path d="M103.377 187.88C127.077 179.17 142.377 174.58 149.447 171.42C155.327 168.89 158.897 159.98 158.377 153.42C157.487 142.25 155.167 110.35 155.167 110.35L205.007 107.65C205.007 107.65 203.137 147.3 206.827 159.98C208.727 166.49 214.257 168.23 218.827 169.65C234.397 174.46 238.037 182.26 253.607 197.24C266.527 209.68 250.157 305.75 242.607 344.49C239.237 361.8 242.197 401.83 242.197 401.83C196.957 415.03 139.277 411.12 120.067 393.36C120.067 393.36 120.827 357.5 119.877 341.18C117.707 303.42 105.437 226.33 103.377 187.88Z" fill="#E6966E"/>
<path d="M151.957 167.391C155.707 171.261 165.847 173.751 172.557 185.221C179.977 197.921 183.767 202.881 183.767 202.881C183.767 202.881 187.347 201.391 194.167 189.361C200.727 177.771 210.457 172.301 216.917 169.221C216.917 169.221 254.177 176.731 263.487 182.221C272.797 187.711 257.397 281.031 257.397 281.031C257.397 281.031 246.237 347.301 244.397 407.241C244.397 407.241 242.937 419.921 199.927 421.471C160.847 422.891 115.527 413.061 115.527 413.061C119.357 386.651 102.387 272.751 102.387 272.751C102.387 272.751 92.7468 182.841 104.517 179.871C117.397 176.601 151.957 167.391 151.957 167.391Z" fill="#E5E6E7"/>
<path d="M173.318 176.75C175.238 178.6 183.778 202.86 183.778 202.86C179.41 198.263 175.495 193.257 172.088 187.91L153.328 196.02L156.788 150.93C156.788 150.93 171.388 174.91 173.318 176.75Z" fill="#D1D3D4"/>
<path d="M173.317 176.75L153.317 196.02C153.317 196.02 144.437 175.8 145.867 167.17C146.367 164.17 156.777 150.93 156.777 150.93L173.317 176.75Z" fill="#F1F2F2"/>
<path d="M194.177 174.95C192.327 176.81 183.777 202.88 183.777 202.88C183.777 202.88 192.637 195.3 197.997 186.48L212.447 196.04L207.447 150.95C207.447 150.95 196.017 173.09 194.177 174.95Z" fill="#D1D3D4"/>
<path d="M194.178 174.95L212.448 196.04C212.448 196.04 220.218 178.28 218.858 169.65C218.378 166.65 207.478 150.95 207.478 150.95L194.178 174.95Z" fill="#F1F2F2"/>
<path d="M183.778 205.37L182.578 421.72L179.887 375.06L179.188 197.24L183.778 205.37Z" fill="#D1D3D4"/>
<path d="M104.517 179.861C104.517 179.861 90.8869 173.491 78.3969 194.651C59.8669 226.041 10.167 288.021 0.756966 325.491C-4.71303 347.261 44.0669 340.411 50.9069 331.491C57.6169 322.711 101.907 267.491 101.907 267.491C118.647 238.431 95.277 202.171 104.517 179.861Z" fill="#8C6048"/>
<g style="mix-blend-mode:multiply" opacity="0.2">
<path d="M104.956 238.44C104.956 238.44 50.9563 322.94 32.4463 330.33C23.6247 333.505 14.4683 335.659 5.15625 336.75C16.7662 343.75 45.7562 338.22 50.9062 331.46C57.6162 322.68 101.906 267.46 101.906 267.46C108.186 256.62 108.846 244.76 107.696 233C106.911 234.875 105.995 236.693 104.956 238.44Z" fill="#8C6048"/>
</g>
<path d="M117.797 396.9C117.797 396.9 107.597 487.49 107.147 494.73C106.697 501.97 59.057 487.73 56.817 480.82C54.577 473.91 84.987 392.34 88.577 380.56C92.357 368.17 102.637 266.46 98.6669 254.17C94.6968 241.88 90.7968 183.39 102.377 179.23C126.247 170.65 142.257 164.59 142.257 164.59L151.997 188.52L131.217 328.75L117.797 396.9Z" fill="#8C6048"/>
<g style="mix-blend-mode:multiply" opacity="0.5">
<g style="mix-blend-mode:multiply" opacity="0.5">
<path d="M242.117 303.089L242.427 303.029L242.117 303.089Z" fill="#F1F2F2"/>
</g>
</g>
<path d="M119.477 331.649C117.637 331.159 115.477 333.249 114.667 336.319C113.857 339.389 114.667 342.269 116.537 342.759C118.407 343.249 120.537 341.159 121.347 338.089C122.157 335.019 121.327 332.139 119.477 331.649Z" fill="#A67255"/>
<path d="M111.606 361.33C109.756 360.84 107.606 362.93 106.786 366C105.966 369.07 106.786 372 108.656 372.44C110.526 372.88 112.656 370.84 113.476 367.77C114.296 364.7 113.446 361.82 111.606 361.33Z" fill="#A67255"/>
<path d="M103.778 390.85C101.928 390.37 99.778 392.45 98.958 395.52C98.138 398.59 98.9581 401.52 100.828 401.96C102.698 402.4 104.828 400.36 105.638 397.3C106.448 394.24 105.618 391.34 103.778 390.85Z" fill="#A67255"/>
<g style="mix-blend-mode:multiply" opacity="0.2">
<path d="M93.1675 350.15C91.4275 365.09 89.7076 376.85 88.5776 380.56C86.5776 386.98 76.6975 414.13 68.4375 438.63C84.7475 444.29 106.998 455.01 109.438 471.95C111.847 449.7 115.438 417.58 116.998 403.72C110.178 394.22 99.4875 376.22 93.1675 350.15Z" fill="#8C6048"/>
</g>
<path d="M127.247 402.161C124.127 400.991 105.897 399.391 105.897 399.391L81.2871 404.251C84.3613 413.334 89.964 421.351 97.437 427.361C103.097 431.761 106.777 433.311 113.497 441.181C117.037 445.331 119.877 447.531 122.657 446.181C124.037 445.521 123.407 443.841 123.407 443.841C123.407 443.841 126.657 447.931 129.407 446.521C131.107 445.631 131.157 444.411 131.157 444.411C131.157 444.411 133.707 446.681 135.617 445.741C137.527 444.801 136.687 441.101 136.687 441.101L133.087 425.841L126.787 413.521C129.48 415.4 132.285 417.113 135.187 418.651C137.597 419.651 143.087 427.891 143.087 427.891C143.087 427.891 145.617 429.701 147.237 428.281C148.857 426.861 145.537 419.841 145.537 419.841C144.015 417.121 142.143 414.612 139.967 412.381C137.027 409.681 130.377 403.311 127.267 402.131L127.247 402.161Z" fill="#E6966E"/>
<g style="mix-blend-mode:multiply" opacity="0.3">
<path d="M97.4363 427.361C99.3263 428.831 101.316 430.221 103.336 431.731C104.066 432.271 108.946 429.301 110.766 427.941C112.586 426.581 126.166 401.891 125.146 401.651C119.466 400.591 106.226 399.421 105.926 399.391L81.3164 404.251C82.9597 408.458 84.9673 412.513 87.3164 416.371C90.0822 420.55 93.4986 424.26 97.4363 427.361Z" fill="#E6966E"/>
</g>
<g style="mix-blend-mode:multiply" opacity="0.3">
<g style="mix-blend-mode:multiply" opacity="0.3">
<path d="M131.987 443.521L127.007 430.841L123.047 423.811L126.187 433.991L131.987 443.521Z" fill="#E6966E"/>
</g>
</g>
<g style="mix-blend-mode:multiply" opacity="0.3">
<g style="mix-blend-mode:multiply" opacity="0.3">
<path d="M123.447 444.03L118.907 433.53L115.197 427.76L117.997 436.21L123.447 444.03Z" fill="#E6966E"/>
</g>
</g>
<path d="M102.067 392.87L108.677 399.49L90.3071 420.76L81.2871 413.31L102.067 392.87Z" fill="#E5E6E7"/>
<path d="M102.068 392.87C88.1875 374.48 72.9675 348.45 52.8175 328.99C27.2175 304.28 10.3274 305.99 0.757448 325.49C-3.24255 333.69 9.36752 354.25 20.5775 365.49C35.6775 380.56 69.7473 415.66 79.0873 418.71C84.0073 416.82 102.068 392.87 102.068 392.87Z" fill="#8C6048"/>
<path d="M12.9578 356.6C13.1478 356.6 13.3478 356.54 13.5378 356.51C17.0478 355.8 20.9778 354.23 21.9678 350.79C22.4374 348.736 22.0781 346.58 20.9678 344.79C19.9678 342.97 18.5677 341.39 17.4077 339.67C14.4147 335.172 13.0719 329.776 13.6077 324.4C14.1577 318.98 16.6077 313.53 15.1877 308.27C14.3958 305.527 12.6141 303.175 10.1877 301.67C5.94773 310.24 2.65766 318.3 0.857655 325.47C-2.36234 331.82 4.48775 345.53 12.9578 356.6Z" fill="#664634"/>
<g style="mix-blend-mode:multiply" opacity="0.2">
<path d="M18.5266 351.75C11.7366 344.97 4.43641 334.75 0.616415 325.93C-2.86358 334.37 9.53642 354.46 20.6164 365.48C35.7164 380.55 69.7864 415.65 79.1264 418.7C81.0064 418 84.7966 414.07 88.7666 409.49C68.6566 395.25 30.4766 363.64 18.5266 351.75Z" fill="#8C6048"/>
</g>
<path d="M258.447 179.861C258.447 179.861 272.077 173.491 284.567 194.651C303.097 226.041 352.787 288.021 362.207 325.491C367.677 347.261 318.887 340.411 312.047 331.491C305.347 322.711 261.107 267.491 261.107 267.491C244.317 238.431 267.687 202.171 258.447 179.861Z" fill="#8C6048"/>
<g style="mix-blend-mode:multiply" opacity="0.2">
<path d="M323.688 319.891C316.978 311.111 269.158 247.891 269.158 247.891C263.368 237.891 260.158 226.491 258.018 214.891C255.018 232.141 251.588 250.891 261.108 267.371C261.108 267.371 305.338 322.601 312.048 331.371C318.758 340.141 364.048 346.601 362.448 327.591C348.898 330.311 327.958 325.521 323.688 319.891Z" fill="#8C6048"/>
</g>
<path d="M246.016 396.9C246.016 396.9 256.216 487.49 256.666 494.73C257.116 501.97 304.756 487.73 306.996 480.82C309.236 473.91 278.826 392.34 275.236 380.56C271.456 368.17 261.176 266.46 265.146 254.17C269.116 241.88 273.016 183.39 261.436 179.23C237.566 170.65 221.556 164.59 221.556 164.59L211.816 188.52L232.596 328.75L246.016 396.9Z" fill="#8C6048"/>
<g style="mix-blend-mode:multiply" opacity="0.2">
<path d="M270.646 350.15C272.386 365.09 274.106 376.85 275.236 380.56C277.236 386.98 287.116 414.13 295.376 438.63C279.066 444.29 256.816 455.01 254.376 471.95C251.966 449.7 248.376 417.58 246.816 403.72C253.636 394.22 264.326 376.22 270.646 350.15Z" fill="#8C6048"/>
</g>
<path d="M227.028 166.93C226.738 164.79 222.028 164.72 211.498 156.83C213.559 164.137 213.669 171.857 211.818 179.22C204.198 209.51 229.038 309.48 229.038 309.48L232.598 328.74L229.338 212.4L219.888 197.3L229.588 193.3C229.588 193.3 227.708 171.75 227.028 166.93Z" fill="#A67255"/>
<path d="M235.718 402.161C238.838 400.991 257.068 399.391 257.068 399.391L281.678 404.251C278.603 413.334 273.001 421.351 265.528 427.361C259.858 431.761 256.188 433.311 249.468 441.181C245.928 445.331 243.078 447.531 240.308 446.181C238.928 445.521 239.558 443.841 239.558 443.841C239.558 443.841 236.298 447.931 233.558 446.521C231.858 445.631 231.798 444.411 231.798 444.411C231.798 444.411 229.258 446.681 227.348 445.741C225.438 444.801 226.268 441.101 226.268 441.101L229.868 425.841L236.178 413.521C233.485 415.4 230.68 417.113 227.778 418.651C225.368 419.651 219.878 427.891 219.878 427.891C219.878 427.891 217.348 429.701 215.728 428.281C214.108 426.861 217.418 419.841 217.418 419.841C218.945 417.121 220.821 414.613 222.998 412.381C225.938 409.681 232.588 403.311 235.698 402.131L235.718 402.161Z" fill="#E6966E"/>
<g style="mix-blend-mode:multiply" opacity="0.3">
<path d="M265.526 427.361C263.636 428.831 261.636 430.221 259.626 431.731C258.896 432.271 254.016 429.301 252.186 427.941C250.356 426.581 236.796 401.891 237.816 401.651C243.496 400.591 256.736 399.421 257.036 399.391L281.646 404.251C280.003 408.458 277.995 412.513 275.646 416.371C272.874 420.545 269.459 424.255 265.526 427.361Z" fill="#E6966E"/>
</g>
<g style="mix-blend-mode:multiply" opacity="0.3">
<g style="mix-blend-mode:multiply" opacity="0.3">
<path d="M230.977 443.521L235.957 430.841L239.917 423.811L236.777 433.991L230.977 443.521Z" fill="#E6966E"/>
</g>
</g>
<g style="mix-blend-mode:multiply" opacity="0.3">
<g style="mix-blend-mode:multiply" opacity="0.3">
<path d="M239.508 444.03L244.058 433.53L247.768 427.76L244.968 436.21L239.508 444.03Z" fill="#E6966E"/>
</g>
</g>
<path d="M260.897 392.87L254.277 399.49L272.657 420.76L281.677 413.31L260.897 392.87Z" fill="#E5E6E7"/>
<path d="M362.207 325.49C352.637 306.03 335.746 304.28 310.146 328.99C289.996 348.45 274.776 374.48 260.896 392.87C260.896 392.87 275.106 413.87 282.896 418.66C292.726 413.82 327.296 380.51 342.396 365.44C353.596 354.25 366.237 333.69 362.207 325.49Z" fill="#8C6048"/>
<path d="M362.207 325.49C360.207 317.62 356.407 308.64 351.547 299.12C350.113 299.667 348.843 300.572 347.858 301.748C346.873 302.924 346.204 304.333 345.917 305.84C345.177 310.06 346.917 314.3 348.747 318.17C350.577 322.04 352.617 326.03 352.537 330.32C352.427 335.81 348.917 340.55 345.907 345.14C342.897 349.73 340.157 355.28 341.777 360.53C342.207 361.817 342.887 363.006 343.777 364.03C354.577 352.61 366.077 333.36 362.207 325.49Z" fill="#664634"/>
<g style="mix-blend-mode:multiply" opacity="0.2">
<path d="M362.206 325.49C361.6 324.244 360.933 323.029 360.206 321.85C356.156 332.85 340.456 350.48 331.546 359.37C317.546 373.29 287.066 402.74 274.746 410.97C277.676 414.31 280.576 417.21 282.906 418.66C292.736 413.82 327.306 380.51 342.406 365.44C353.596 354.25 366.236 333.69 362.206 325.49Z" fill="#8C6048"/>
</g>
<path d="M220.958 79.8396L218.328 100.1C218.754 100.767 219.347 101.311 220.049 101.678C220.751 102.045 221.537 102.221 222.328 102.19C225.328 102.34 230.878 92.1896 230.878 92.1896C230.878 92.1896 235.718 81.0396 231.298 77.6696C226.398 73.9496 220.958 79.8396 220.958 79.8396Z" fill="#E6966E"/>
<path d="M149.847 79.3495L150.737 99.7595C150.262 100.386 149.63 100.877 148.905 101.18C148.179 101.484 147.386 101.591 146.607 101.49C143.607 101.34 138.947 90.6795 138.947 90.6795C138.947 90.6795 135.067 79.1095 139.757 76.1695C144.957 72.9595 149.847 79.3495 149.847 79.3495Z" fill="#F7A379"/>
<path d="M228.357 50.7994C228.357 50.7994 225.278 109.589 220.018 116.459C214.758 123.329 200.078 139.689 193.828 142.389C190.682 143.787 187.281 144.518 183.839 144.537C180.397 144.556 176.988 143.862 173.828 142.499C166.968 139.649 154.827 123.839 150.117 117.499C144.307 109.699 143.388 42.4194 143.268 47.5594C143.268 47.5594 148.377 14.9894 187.347 16.7294C221.587 18.2494 228.357 50.7994 228.357 50.7994Z" fill="#F7A379"/>
<path d="M145.047 79.0505C145.047 79.0505 145.957 115.44 150.737 125.87C158.567 142.95 166.127 149.48 173.317 154.07C176.817 156.3 191.657 156.41 195.317 154.44C204.217 149.64 211.487 143.1 219.507 125.86C225.057 113.93 227.327 74.4805 227.327 74.4805C227.327 74.4805 220.327 108.24 213.967 110.1C205.767 112.49 210.317 105.23 184.247 104.53C160.577 103.89 161.997 109.72 156.797 108.29C151.597 106.86 145.047 79.0505 145.047 79.0505ZM165.667 117.67C165.508 117.37 165.413 117.039 165.39 116.699C165.367 116.36 165.416 116.019 165.533 115.7C165.65 115.38 165.832 115.089 166.069 114.844C166.306 114.6 166.591 114.408 166.907 114.28C169.447 113.28 174.567 112.01 184.127 112.14C192.627 112.25 198.027 113.77 200.797 114.84C201.116 114.963 201.407 115.152 201.649 115.393C201.892 115.635 202.082 115.925 202.206 116.244C202.33 116.563 202.386 116.904 202.371 117.247C202.356 117.589 202.269 117.924 202.117 118.23C200.117 122.23 194.837 130.13 183.697 129.37C179.922 129.203 176.26 128.03 173.09 125.973C169.92 123.916 167.357 121.05 165.667 117.67Z" fill="#BD8242"/>
<g style="mix-blend-mode:multiply" opacity="0.3">
<path d="M226.437 78.4198C225.327 91.0398 223.107 110.42 219.497 118.21C214.927 128.04 210.587 134.32 206.067 138.85C206.147 137.06 205.767 135.19 205.917 133.38C204.779 136.921 203.092 140.262 200.917 143.28C199.123 144.568 197.25 145.74 195.307 146.79C194.35 147.206 193.341 147.488 192.307 147.63C192.843 145.314 192.746 142.896 192.027 140.63C191.639 142.83 190.637 144.875 189.137 146.53C188.652 146.271 188.256 145.874 187.997 145.39L186.497 147.15C185.946 146.408 185.661 145.503 185.687 144.58C185.317 145.75 185.047 146.94 184.747 148.13C182.432 148.135 180.12 147.978 177.827 147.66C175.986 146.451 174.306 145.012 172.827 143.38C168.617 138.79 165.927 131.79 165.927 131.79C165.927 131.79 167.717 139.51 171.407 145.06C169.322 143.626 167.352 142.031 165.517 140.29C164.687 138.96 163.877 137.61 163.097 136.29L160.537 131.83C159.809 130.837 159.455 129.618 159.537 128.39C159.347 129.02 159.167 129.65 158.977 130.28L155.957 124.75C155.555 125.561 155.395 126.47 155.497 127.37C153.756 124.413 152.168 121.369 150.737 118.25C147.497 111.17 146.037 92.1398 145.427 80.6398C145.187 79.6398 145.047 79.0798 145.047 79.0798C145.047 79.0798 145.957 115.47 150.737 125.9C158.567 142.98 166.127 149.51 173.317 154.1C176.817 156.33 191.657 156.44 195.317 154.47C204.217 149.67 211.487 143.13 219.507 125.89C225.057 113.96 227.327 74.5098 227.327 74.5098C227.327 74.5098 226.957 76.0298 226.437 78.4198Z" fill="#BD8242"/>
</g>
<path d="M226.187 25.05C226.518 24.1822 226.779 23.2894 226.967 22.38C227.727 18.43 226.577 13.83 223.167 11.7C222.794 12.1766 222.304 12.5492 221.746 12.7821C221.187 13.015 220.578 13.1004 219.977 13.03C221.167 9.93 219.577 6.31999 217.057 4.14999C214.537 1.97999 209.667 0.96 206.487 0C206.927 2.29 203.347 6.25 201.167 7.08C200.654 6.3926 200.289 5.60592 200.097 4.77C199.327 5.32767 198.473 5.75969 197.567 6.05C197.363 4.19506 197.012 2.35926 196.517 0.559998C196.517 0.559998 194.257 6.29 180.697 7.98C180.257 6.63008 180.218 5.18125 180.587 3.81C179.713 3.84814 178.873 4.15751 178.183 4.69514C177.493 5.23277 176.988 5.97196 176.737 6.81C175.887 5.96963 174.827 5.3745 173.667 5.08757C172.506 4.80064 171.29 4.83257 170.147 5.17999C172.067 5.62999 173.587 5.77001 173.597 7.88C173.597 7.88 170.947 7.77 169.517 7.81C161.427 8.08 160.287 11.37 152.987 14.19L154.797 14.66L149.067 16.78C149.434 16.6733 149.821 16.6529 150.198 16.7206C150.574 16.7883 150.93 16.9421 151.237 17.17C148.634 18.439 145.91 19.444 143.107 20.17L147.877 21.03C146.129 22.595 144.194 23.9385 142.117 25.03C142.676 24.9586 143.241 25.0938 143.707 25.41C143.631 26.4444 143.264 27.4362 142.647 28.27C142.816 27.9778 143.068 27.7417 143.37 27.5906C143.672 27.4396 144.012 27.3803 144.347 27.42C143.928 28.6579 143.221 29.7785 142.283 30.6896C141.346 31.6006 140.206 32.276 138.957 32.66C139.741 32.7769 140.541 32.7326 141.307 32.53C139.78 35.47 138.247 38.4133 136.707 41.36C137.244 41.3423 137.753 41.1164 138.127 40.73C137.847 43.05 139.287 52.06 138.937 56.04C139.077 55.91 139.217 55.75 139.357 55.61C139.818 65.6508 141.711 75.5742 144.977 85.08C145.267 85.89 146.407 85.78 146.407 85.78C144.247 74.29 146.517 59.33 148.187 53.56C150.737 44.76 152.627 32.67 174.087 40.42C208.177 52.72 216.677 39.42 216.677 39.42C225.147 49.49 226.777 72.48 224.347 88.11C224.347 88.11 225.277 88.67 225.497 87.9C226.267 85.17 229.187 67.4 231.207 52.7C232.647 42.1 231.297 32.22 226.187 25.05Z" fill="#BD8242"/>
<g style="mix-blend-mode:multiply" opacity="0.3">
<g style="mix-blend-mode:multiply" opacity="0.3">
<path d="M200.097 4.75005C199.327 5.30771 198.473 5.73973 197.567 6.03004C197.363 4.1751 197.012 2.3393 196.517 0.540039C196.517 0.540039 196.387 0.790041 196.177 1.12004C196.118 1.73135 195.94 2.32513 195.652 2.86737C195.364 3.40961 194.971 3.88965 194.497 4.28004C192.705 5.98474 190.635 7.3713 188.377 8.38005C192.608 8.79865 196.846 7.64143 200.277 5.13005C200.237 5.02005 200.127 4.90005 200.097 4.75005Z" fill="#BD8242"/>
</g>
<g style="mix-blend-mode:multiply" opacity="0.3">
<path d="M225.958 15.0098C225.711 15.7399 225.42 16.4546 225.087 17.1498C224.298 18.523 223.236 19.7208 221.968 20.6698C218.345 23.6184 214.081 25.6737 209.518 26.6698C213.531 27.0514 217.579 26.8085 221.518 25.9498C223.108 25.6598 224.698 25.2898 226.268 24.8698C226.568 24.0652 226.809 23.2397 226.988 22.3998C227.455 19.8899 227.094 17.296 225.958 15.0098Z" fill="#BD8242"/>
</g>
<g style="mix-blend-mode:multiply" opacity="0.3">
<path d="M223.278 11.8003C223.278 11.8003 223.207 11.7203 223.167 11.7003C222.794 12.1769 222.305 12.5495 221.746 12.7824C221.188 13.0153 220.579 13.1007 219.978 13.0303C220.516 11.5035 220.499 9.83537 219.927 8.32031C219.657 8.62031 219.397 8.92031 219.127 9.21031C217.97 10.5049 216.684 11.6777 215.288 12.7103C213.058 14.0957 210.594 15.0616 208.018 15.5603C212.162 15.8093 216.315 15.221 220.228 13.8303C221.41 13.4445 222.465 12.7425 223.278 11.8003Z" fill="#BD8242"/>
</g>
</g>
<g style="mix-blend-mode:multiply" opacity="0.3">
<path d="M217.557 34.88C217.557 34.88 209.067 48.17 174.977 35.88C153.517 28.13 151.627 40.22 149.077 49.02C148.509 51.1212 148.052 53.2508 147.707 55.3999C147.877 54.7099 148.037 54.02 148.187 53.49C150.737 44.69 152.627 32.6 174.087 40.35C208.177 52.65 216.677 39.35 216.677 39.35C225.147 49.42 226.777 72.41 224.347 88.04L225.227 83.57C227.667 67.94 226.037 44.95 217.557 34.88Z" fill="#BD8242"/>
</g>
<g style="mix-blend-mode:multiply" opacity="0.5">
<path d="M191.458 91.6094C191.458 91.6094 193.208 99.1495 192.048 101.939C190.888 104.729 176.987 103.449 175.627 101.789C174.267 100.129 176.538 91.4395 176.538 91.4395C176.538 91.4395 175.608 97.8694 177.538 99.6494C179.468 101.429 188.687 101.019 189.907 99.4995C191.127 97.9795 191.458 91.6094 191.458 91.6094Z" fill="#E6966E"/>
</g>
<path d="M161.627 74.4498C158.172 74.9075 155.006 76.6237 152.737 79.2698C152.737 79.2698 152.277 80.0298 162.977 81.0598C171.717 80.9498 174.097 80.3898 174.087 79.7298C174.067 78.0398 169.087 73.3998 161.627 74.4498Z" fill="#F2F0F0"/>
<path d="M167.647 76.6198C167.613 75.7694 167.327 74.9483 166.824 74.2614C166.321 73.5746 165.625 73.0531 164.825 72.7638C164.025 72.4744 163.156 72.4302 162.331 72.6369C161.505 72.8436 160.76 73.2917 160.19 73.924C159.62 74.5564 159.252 75.3442 159.132 76.1868C159.013 77.0295 159.147 77.8887 159.518 78.6546C159.889 79.4206 160.48 80.0585 161.215 80.487C161.951 80.9154 162.797 81.1149 163.647 81.0598C164.764 80.9978 165.812 80.4961 166.562 79.6643C167.311 78.8325 167.701 77.7381 167.647 76.6198Z" fill="#487CB8"/>
<path d="M166.408 76.7502C166.337 75.9607 165.956 75.2315 165.349 74.7219C164.742 74.2122 163.958 73.9635 163.168 74.0302C162.594 74.0904 162.051 74.3183 161.605 74.6853C161.16 75.0523 160.832 75.5422 160.664 76.0941C160.495 76.6459 160.492 77.2352 160.656 77.7885C160.82 78.3419 161.143 78.8347 161.585 79.2058C162.027 79.5768 162.568 79.8096 163.141 79.8751C163.715 79.9406 164.295 79.8359 164.809 79.5741C165.323 79.3122 165.749 78.9049 166.034 78.4027C166.318 77.9006 166.448 77.3258 166.408 76.7502Z" fill="#18100E"/>
<path d="M167.637 75.4097C167.627 75.1612 167.542 74.9215 167.395 74.7213C167.247 74.521 167.043 74.3694 166.809 74.2857C166.575 74.202 166.321 74.1902 166.08 74.2516C165.839 74.3131 165.622 74.4451 165.456 74.6307C165.29 74.8163 165.184 75.047 165.15 75.2935C165.116 75.54 165.157 75.7909 165.267 76.0141C165.377 76.2374 165.55 76.4228 165.766 76.5468C165.982 76.6707 166.229 76.7274 166.478 76.7097C166.64 76.7021 166.799 76.6622 166.945 76.5925C167.092 76.5227 167.223 76.4244 167.331 76.3033C167.439 76.1823 167.521 76.0409 167.574 75.8875C167.627 75.734 167.648 75.5716 167.637 75.4097Z" fill="#EFECEC"/>
<path d="M162.556 70.89C174.946 70.69 174.086 79.73 174.086 79.73C174.086 79.73 170.596 73.68 161.966 74.13C156.676 74.4 152.736 79.27 152.736 79.27C152.736 79.27 153.216 71.05 162.556 70.89Z" fill="#E6966E"/>
<path d="M162.446 73.3396C173.176 72.6396 174.086 79.7297 174.086 79.7297C174.086 79.7297 169.886 73.6096 162.336 74.7296C155.446 75.7296 152.736 79.2996 152.736 79.2996C152.736 79.2996 153.226 73.9296 162.446 73.3396Z" fill="#412118"/>
<path d="M207.897 75.5001C211.368 75.9459 214.523 77.7425 216.677 80.5001C216.677 80.5001 216.377 81.8801 206.457 82.2701C196.957 82.1001 195.277 81.0801 195.307 80.4401C195.547 78.0701 201.957 74.6801 207.897 75.5001Z" fill="#F2F0F0"/>
<path d="M201.838 77.5198C201.893 76.6691 202.202 75.8545 202.724 75.1805C203.246 74.5064 203.957 74.0035 204.767 73.7362C205.576 73.469 206.447 73.4496 207.268 73.6805C208.088 73.9114 208.821 74.3822 209.373 75.0323C209.924 75.6825 210.269 76.4825 210.362 77.3299C210.456 78.1772 210.295 79.0332 209.899 79.7882C209.503 80.5431 208.891 81.1627 208.14 81.5674C207.39 81.9722 206.536 82.1436 205.688 82.0598C204.576 81.9655 203.547 81.435 202.826 80.5842C202.104 79.7335 201.749 78.6317 201.838 77.5198Z" fill="#487CB8"/>
<path d="M203.077 77.64C203.121 77.0462 203.34 76.4789 203.708 76.0104C204.076 75.542 204.574 75.1935 205.141 75.0093C205.707 74.8252 206.315 74.8138 206.888 74.9764C207.461 75.1391 207.972 75.4686 208.357 75.9229C208.742 76.3772 208.983 76.9357 209.05 77.5275C209.116 78.1192 209.005 78.7173 208.73 79.2457C208.456 79.7741 208.03 80.2088 207.508 80.4945C206.985 80.7802 206.39 80.9039 205.797 80.85C205.013 80.7787 204.288 80.4022 203.779 79.8017C203.271 79.2013 203.018 78.4249 203.077 77.64Z" fill="#18100E"/>
<path d="M208.177 76.7499C208.233 76.4387 208.404 76.1598 208.656 75.9688C208.908 75.7777 209.223 75.6884 209.538 75.7187C209.853 75.7489 210.144 75.8964 210.356 76.1319C210.567 76.3674 210.681 76.6737 210.677 76.9899C210.637 77.3148 210.471 77.611 210.215 77.8148C209.959 78.0186 209.633 78.1138 209.307 78.0799C209.145 78.0686 208.987 78.025 208.841 77.9517C208.696 77.8783 208.568 77.7767 208.462 77.6528C208.357 77.5289 208.277 77.3852 208.228 77.2301C208.179 77.0751 208.162 76.9118 208.177 76.7499Z" fill="#EFECEC"/>
<path d="M206.957 72.03C195.287 71.16 195.277 80.47 195.277 80.47C195.277 80.47 198.917 74.47 207.537 75.18C212.817 75.57 216.637 80.53 216.637 80.53C216.637 80.53 217.097 72.75 206.957 72.03Z" fill="#E6966E"/>
<path d="M206.757 74.52C196.047 74.12 195.307 80.5199 195.307 80.5199C196.747 78.8165 198.583 77.4926 200.655 76.6644C202.726 75.8362 204.969 75.5291 207.187 75.77C214.117 76.49 216.677 80.5799 216.677 80.5799C216.677 80.5799 216.167 74.88 206.757 74.52Z" fill="#412118"/>
<path d="M154.836 59.9103C159.096 59.4203 177.836 60.3403 178.736 61.4603C179.636 62.5803 178.826 67.0503 177.016 66.9203C169.066 66.3403 159.916 64.3603 154.016 64.3503C151.746 64.3503 147.906 66.2303 147.906 66.2303C147.906 66.2303 150.586 60.4003 154.836 59.9103Z" fill="#8B5E3C"/>
<path d="M213.957 59.9106C209.697 59.4206 191.467 60.9106 190.607 61.9706C189.747 63.0306 190.667 67.3806 192.477 67.2406C199.627 66.7306 209.067 65.1406 214.877 65.0106C217.171 65.0481 219.45 65.3843 221.657 66.0106C221.657 66.0106 218.177 60.4006 213.957 59.9106Z" fill="#8B5E3C"/>
<path d="M189.332 121.791C188.462 125.351 185.502 127.681 182.712 126.991C179.922 126.301 178.372 122.881 179.242 119.321C180.112 115.761 183.072 113.431 185.862 114.121C188.652 114.811 190.192 118.231 189.332 121.791Z" fill="#A63F42"/>
<g style="mix-blend-mode:screen" opacity="0.5">
<path d="M180.561 123.471C180.429 124.105 180.375 124.753 180.4 125.401C180.964 126.192 181.778 126.769 182.711 127.041C185.501 127.731 188.461 125.401 189.331 121.841C189.467 121.207 189.52 120.558 189.49 119.911C188.929 119.115 188.115 118.533 187.181 118.261C184.391 117.531 181.431 119.861 180.561 123.471Z" fill="#A63F42"/>
</g>
<g style="mix-blend-mode:screen" opacity="0.3">
<path d="M220.347 85.0502C221.067 78.0502 215.137 73.7402 206.817 73.7402C198.497 73.7402 191.717 77.3102 191.717 84.3702C191.717 91.4302 198.607 99.1902 207.097 98.2502C215.587 97.3102 219.697 91.5402 220.347 85.0502Z" fill="#E6E7E8"/>
</g>
<g style="mix-blend-mode:screen" opacity="0.3">
<path d="M196.537 87.5102C196.537 80.4502 203.317 76.8702 211.637 76.8702C213.861 76.8561 216.07 77.2283 218.167 77.9702C215.797 75.2802 211.757 73.7402 206.817 73.7402C198.497 73.7402 191.717 77.3102 191.717 84.3702C191.717 89.6402 195.547 95.2902 201.027 97.4302C198.276 94.8483 196.661 91.2809 196.537 87.5102Z" fill="#E6E7E8"/>
</g>
<g style="mix-blend-mode:screen" opacity="0.3">
<path d="M178.388 84.1402C178.388 77.0802 171.628 73.4902 163.308 73.4902C154.988 73.4902 149.058 77.7502 149.748 84.7502C150.398 91.2402 154.558 97.0102 162.988 97.9602C171.418 98.9102 178.388 91.2102 178.388 84.1402Z" fill="#E6E7E8"/>
</g>
<g style="mix-blend-mode:screen" opacity="0.3">
<path d="M154.957 88.3102C154.257 81.3102 160.197 77.0002 168.517 77.0102C171.185 76.9802 173.836 77.4272 176.347 78.3302C173.727 75.1402 168.907 73.4902 163.347 73.4902C155.027 73.4902 149.097 77.7402 149.787 84.7802C149.962 87.4143 150.878 89.9452 152.43 92.0808C153.982 94.2165 156.106 95.8699 158.557 96.8502C156.486 94.4549 155.225 91.4655 154.957 88.3102Z" fill="#E6E7E8"/>
</g>
<path d="M217.238 75.13C209.478 71.4 201.438 71.28 192.808 76.01C192.374 76.2409 191.898 76.3821 191.408 76.425C190.919 76.468 190.426 76.4119 189.958 76.26C186.898 75.1616 183.559 75.1123 180.468 76.12C179.971 76.3086 179.44 76.3909 178.91 76.3616C178.379 76.3323 177.861 76.1921 177.388 75.95C168.818 71.28 160.718 71.33 152.998 75.03C150.392 76.8777 147.273 77.8637 144.078 77.85L144.178 81.25C146.728 81.73 148.018 83.33 148.038 86.53C148.403 86.7244 148.81 86.826 149.223 86.826C149.636 86.826 150.043 86.7244 150.408 86.53C150.198 79.13 154.118 74.76 163.308 74.29C171.918 73.99 176.938 77.19 178.068 84.15C178.828 84.99 180.068 85.27 180.758 84.29C180.966 84.0703 181.117 83.8032 181.198 83.512C181.279 83.2208 181.288 82.9141 181.224 82.6186C181.16 82.3232 181.025 82.0478 180.83 81.8162C180.636 81.5847 180.388 81.4041 180.108 81.29C180.055 80.9318 180.074 80.5665 180.166 80.216C180.257 79.8656 180.418 79.5371 180.639 79.2504C180.861 78.9638 181.138 78.7247 181.454 78.5477C181.77 78.3706 182.118 78.2592 182.478 78.22C184.207 77.7751 186.02 77.7751 187.748 78.22C189.308 78.62 190.298 79.56 190.118 81.3C189.835 81.4111 189.585 81.59 189.388 81.8209C189.191 82.0519 189.054 82.3277 188.989 82.6241C188.923 82.9205 188.932 83.2285 189.014 83.5207C189.096 83.813 189.248 84.0806 189.458 84.3C190.158 85.3 191.378 85 192.158 84.15C193.298 77.2 198.308 74.01 206.928 74.32C216.118 74.81 220.028 79.18 219.808 86.58C220.173 86.7735 220.58 86.8747 220.993 86.8747C221.406 86.8747 221.813 86.7735 222.178 86.58C222.178 83.38 223.498 81.78 226.038 81.3L226.158 77.9C222.968 77.9303 219.849 76.9618 217.238 75.13Z" fill="#3F2216"/>
<path d="M178.258 83.75C177.048 93.66 170.258 97.43 164.768 97.66C161.382 97.7849 158.061 96.7033 155.398 94.6082C152.736 92.513 150.903 89.5403 150.228 86.22L149.428 86.37C150.201 90.0266 152.286 93.274 155.288 95.5C157.871 97.3805 160.983 98.3956 164.178 98.4H164.808C168.23 98.2716 171.493 96.9238 174.008 94.6C176.919 91.7279 178.712 87.9137 179.068 83.84L178.258 83.75Z" fill="#3F2216"/>
<path d="M220.037 86.4907C219.357 89.8082 217.521 92.7764 214.856 94.8661C212.191 96.9558 208.871 98.0313 205.487 97.9007C200.017 97.6707 193.207 93.9007 192.017 83.9707L191.207 84.0507C191.549 88.1157 193.32 91.9281 196.207 94.8107C198.718 97.144 201.982 98.4994 205.407 98.6307H206.027C209.497 98.6476 212.865 97.4609 215.559 95.2728C218.252 93.0847 220.103 90.0306 220.797 86.6307L220.037 86.4907Z" fill="#3F2216"/>
<path d="M146.897 79.2399H145.427C145.347 79.2426 145.268 79.2139 145.209 79.1597C145.149 79.1056 145.113 79.0303 145.107 78.9499C145.113 78.8694 145.149 78.7941 145.209 78.74C145.268 78.6858 145.347 78.6571 145.427 78.6599H146.897C146.938 78.6572 146.979 78.6625 147.018 78.6756C147.056 78.6887 147.092 78.7094 147.123 78.7363C147.153 78.7633 147.179 78.796 147.197 78.8327C147.215 78.8693 147.225 78.9091 147.228 78.9499C147.22 79.0312 147.181 79.1065 147.12 79.1604C147.059 79.2144 146.979 79.2428 146.897 79.2399Z" fill="#B3B3B3"/>
<path d="M224.897 79.2193H223.427C223.347 79.2221 223.268 79.1934 223.209 79.1392C223.149 79.0851 223.113 79.0098 223.107 78.9293C223.113 78.8489 223.149 78.7736 223.209 78.7195C223.268 78.6653 223.347 78.6366 223.427 78.6394H224.897C224.938 78.6366 224.979 78.642 225.018 78.6551C225.056 78.6682 225.092 78.6889 225.123 78.7158C225.153 78.7427 225.179 78.7755 225.197 78.8121C225.215 78.8488 225.225 78.8886 225.228 78.9293C225.225 78.9701 225.215 79.0099 225.197 79.0466C225.179 79.0832 225.153 79.116 225.123 79.1429C225.092 79.1698 225.056 79.1904 225.018 79.2036C224.979 79.2167 224.938 79.2221 224.897 79.2193Z" fill="#B3B3B3"/>
<path d="M136.777 166.93C137.077 164.79 141.777 164.72 152.317 156.83C150.256 164.137 150.145 171.857 151.997 179.22C159.617 209.51 134.777 309.48 134.777 309.48L131.217 328.75L134.477 212.41L143.927 197.31L134.227 193.31C134.227 193.31 136.107 171.75 136.777 166.93Z" fill="#A67255"/>
</svg>
