<svg width="352" height="428" viewBox="0 0 352 428" fill="none" xmlns="http://www.w3.org/2000/svg">
<path d="M39.3102 162.27C39.3102 162.27 31.2403 91.1502 30.3903 75.1502C30.3903 75.1502 23.9904 68.5602 6.78041 74.1502C6.78041 74.1502 -11.1196 167.15 14.9904 189.55C14.9904 189.55 21.1404 194.84 47.0504 204.65C48.1804 186.07 52.7904 174.54 55.2404 165.73C49.8104 164.74 44.3902 163.59 39.3102 162.27Z" fill="#FAA284"/>
<path d="M114.311 172.2C114.311 172.2 81.4804 170.69 55.2104 165.76C52.7604 174.57 48.1505 186.1 47.0205 204.68C60.3805 209.74 85.0205 216.01 110.75 223.38C110.75 223.38 121.881 201.92 114.311 172.2Z" fill="#BA2F24"/>
<path d="M44.3909 163.62C44.3909 163.62 43.691 159.62 50.051 160.62C56.411 161.62 67.0507 162.37 66.1907 166.74C66.1907 166.74 56.6711 191.91 55.8211 206.74C55.8211 206.74 55.6709 209.21 51.7009 208.08C47.7309 206.95 36.2508 206.51 37.0408 200.85C37.0208 200.91 40.5609 175.15 44.3909 163.62Z" fill="#D8453A"/>
<path d="M17 32.67C19.3464 32.6756 21.688 32.8797 24 33.28V4.09C24 1.37 25.8003 0 28.5103 0H28.6802C31.4002 0 34 1.37 34 4.09V63.47C34 73.79 26.39 82.17 17 82.17C7.61 82.17 0 73.79 0 63.47V46.42C0 36.09 7.61 32.67 17 32.67Z" fill="#FAA284"/>
<path d="M162.73 2.15C162.73 2.15 239.23 -9.35 235.23 58.15C231.23 125.65 248.4 191.98 246.82 239.98C246.82 239.98 189.92 259.98 118.58 239.98C118.58 239.98 120.98 146.92 112.44 82.69C103.23 13.42 127.39 -0.33 162.73 2.15Z" fill="url(#paint0_linear_1236_2307)"/>
<path d="M207.52 328.66C207.52 328.66 242.69 369.97 251.83 542.33C251.83 542.33 176.68 565.33 69.1699 542.33C69.1699 542.33 87.8302 365.05 120.22 327.09L207.52 328.66Z" fill="#353B42"/>
<path d="M196.601 170.63C196.601 170.63 178.65 166.58 168.65 166.46C158.65 166.34 143.481 170.04 143.481 170.04C133.831 171.544 124.076 172.267 114.311 172.2L112.311 205.78C96.6306 225.85 96.7706 231.46 96.7706 240.35C96.7706 255.71 110.391 265.14 110.391 265.14L120.301 327.5C172.441 347.77 207.44 328.66 207.44 328.66C213.22 289.27 228.001 238.77 228.001 238.77V180.23C220.001 176.57 204.731 172.98 196.601 170.63Z" fill="#CE3B28"/>
<path opacity="0.2" d="M147.581 203.88L162.751 189.72L170.681 207.22C170.681 207.22 195.101 192.96 196.921 170.62C195.831 170.38 178.521 166.57 168.841 166.46C158.841 166.36 143.571 170.04 143.571 170.04L143.011 170.19C142.391 176.71 141.821 190.77 147.581 203.88Z" fill="black"/>
<path d="M155.471 158.46L155.381 183.21L185.661 183.33L185.781 151.13C176.839 157.028 166.119 159.62 155.471 158.46Z" fill="#FAA284"/>
<path d="M185.781 151.15L185.881 126.35L155.601 126.23L155.471 158.48C166.119 159.64 176.839 157.048 185.781 151.15Z" fill="#EF8D72"/>
<path d="M155.471 158.46C155.471 158.46 154.841 174.03 164.801 179.77C164.801 179.77 184.361 174.43 185.801 158.46L197.011 170.63C197.011 170.63 189.911 191.46 171.661 199.96L164.21 183.27L148.871 198.44C148.871 198.44 142.641 180.73 143.681 169.1L155.471 158.46Z" fill="#CE3B28"/>
<path opacity="0.1" d="M99.6807 245.87C99.6807 245.87 103.68 249.22 112.25 249.96C129.62 251.46 166.12 254.59 191.25 250.55C201.79 248.86 203.531 243.55 211.471 237.31C211.471 237.31 212.74 264.31 179.71 263.78C146.68 263.25 101.751 267.3 99.6807 245.87Z" fill="black"/>
<path d="M204.741 77.4302C204.741 77.4302 218.74 79.0002 219.9 85.6702C221.06 92.3402 217.691 118.67 223.131 166.67C223.131 166.67 210.571 123.95 211.231 99.1402C211.231 99.1502 204.301 85.7902 204.741 77.4302Z" fill="#511E17"/>
<path d="M232.24 33.1499C228.586 22.6479 220.965 13.9938 211.01 9.03986C202.88 21.7899 183.1 33.6899 159.65 29.9699C138.84 26.6699 134.39 14.1999 133.89 5.60986C125.95 9.00986 119.64 14.9799 115.58 24.6099C152.93 55.0899 204.39 43.2499 232.24 33.1499Z" fill="#994A3D"/>
<path d="M111.561 75.2301C111.561 75.2301 113.63 132.96 114.9 162C116.23 192.42 114.721 227 105.471 239.67C105.471 239.67 135.9 245.67 139.23 224.33C142.56 202.99 136.091 100.98 129.911 74.3301L111.561 75.2301Z" fill="#7C3425"/>
<path d="M212.07 83.75L211.27 84.03C211.27 84.03 205.7 87.67 204.74 77.43C177.67 64.82 159.65 30 159.65 30C127.39 34.33 119.46 58 118.58 77.87C120.05 85.3 121.89 97.19 121.31 107.43C119.88 133 141.45 149.64 160.6 149.62C197.39 149.57 206.73 116.92 206.73 116.92C206.73 116.92 223.84 119.83 226.05 96.85C227.86 78.07 212.07 83.75 212.07 83.75Z" fill="#FAA284"/>
<g opacity="0.9">
<path opacity="0.09" d="M138.39 95.4802C141.413 96.0537 144.198 97.5106 146.393 99.6667C148.588 101.823 150.095 104.581 150.722 107.594C151.35 110.606 151.07 113.736 149.919 116.59C148.768 119.443 146.796 121.891 144.254 123.624C141.712 125.358 138.713 126.298 135.636 126.327C132.559 126.356 129.542 125.472 126.968 123.787C124.393 122.102 122.377 119.691 121.172 116.86C119.967 114.029 119.629 110.904 120.2 107.88C120.579 105.871 121.351 103.957 122.47 102.246C123.59 100.535 125.036 99.0622 126.725 97.9107C128.415 96.7591 130.314 95.9517 132.316 95.5347C134.317 95.1177 136.381 95.0991 138.39 95.4802Z" fill="#EA7460"/>
<path opacity="0.18" d="M138.131 96.9504C140.865 97.4681 143.384 98.7851 145.37 100.735C147.356 102.685 148.72 105.18 149.287 107.904C149.855 110.629 149.603 113.46 148.561 116.041C147.519 118.622 145.735 120.836 143.435 122.403C141.135 123.97 138.422 124.82 135.639 124.844C132.856 124.869 130.128 124.068 127.801 122.542C125.473 121.017 123.65 118.835 122.562 116.273C121.475 113.712 121.171 110.885 121.69 108.15C122.389 104.487 124.512 101.25 127.594 99.1503C130.676 97.0506 134.466 96.2594 138.131 96.9504Z" fill="#EA7460"/>
<path opacity="0.27" d="M137.85 98.4201C140.293 98.8833 142.544 100.061 144.317 101.803C146.091 103.546 147.308 105.775 147.815 108.209C148.321 110.644 148.095 113.174 147.163 115.479C146.232 117.784 144.637 119.762 142.582 121.161C140.527 122.56 138.102 123.318 135.616 123.34C133.129 123.361 130.693 122.644 128.614 121.28C126.535 119.916 124.907 117.967 123.936 115.677C122.965 113.388 122.695 110.863 123.16 108.42C123.786 105.148 125.684 102.257 128.437 100.383C131.191 98.5078 134.576 97.802 137.85 98.4201Z" fill="#EA7460"/>
<path opacity="0.36" d="M137.57 99.9001C139.719 100.308 141.699 101.344 143.259 102.877C144.819 104.41 145.89 106.371 146.335 108.512C146.781 110.653 146.582 112.879 145.763 114.907C144.944 116.935 143.542 118.675 141.735 119.906C139.927 121.138 137.795 121.806 135.608 121.826C133.421 121.846 131.277 121.217 129.448 120.018C127.618 118.82 126.185 117.106 125.329 115.093C124.473 113.081 124.233 110.859 124.64 108.71C124.91 107.282 125.459 105.922 126.255 104.706C127.051 103.491 128.079 102.444 129.28 101.626C130.48 100.808 131.831 100.234 133.253 99.9382C134.676 99.6421 136.143 99.6291 137.57 99.9001Z" fill="#EA7460"/>
<path opacity="0.45" d="M137.291 101.37C139.151 101.722 140.865 102.617 142.216 103.943C143.567 105.269 144.495 106.966 144.882 108.819C145.268 110.672 145.097 112.598 144.388 114.354C143.68 116.109 142.467 117.615 140.903 118.682C139.339 119.748 137.493 120.326 135.6 120.343C133.707 120.361 131.852 119.816 130.269 118.779C128.685 117.741 127.445 116.257 126.705 114.515C125.965 112.773 125.758 110.85 126.111 108.99C126.584 106.498 128.027 104.295 130.123 102.866C132.22 101.437 134.798 100.899 137.291 101.37Z" fill="#EA7460"/>
<path opacity="0.55" d="M137.01 102.84C138.578 103.137 140.023 103.892 141.162 105.01C142.302 106.128 143.084 107.559 143.41 109.121C143.736 110.684 143.591 112.308 142.994 113.788C142.397 115.268 141.375 116.538 140.056 117.437C138.737 118.336 137.181 118.824 135.585 118.839C133.989 118.854 132.425 118.396 131.09 117.522C129.754 116.648 128.708 115.397 128.083 113.928C127.459 112.46 127.283 110.839 127.58 109.27C127.777 108.229 128.177 107.237 128.758 106.35C129.338 105.463 130.088 104.699 130.963 104.102C131.839 103.505 132.824 103.086 133.861 102.87C134.899 102.653 135.969 102.643 137.01 102.84Z" fill="#EA7460"/>
<path opacity="0.64" d="M136.731 104.32C138.005 104.562 139.179 105.177 140.104 106.086C141.029 106.994 141.665 108.157 141.929 109.427C142.194 110.697 142.076 112.017 141.591 113.22C141.106 114.422 140.274 115.454 139.203 116.185C138.131 116.916 136.867 117.313 135.57 117.325C134.273 117.337 133.002 116.965 131.916 116.255C130.831 115.545 129.98 114.529 129.472 113.336C128.964 112.142 128.821 110.825 129.061 109.55C129.219 108.702 129.544 107.894 130.015 107.172C130.487 106.45 131.097 105.828 131.809 105.342C132.522 104.856 133.324 104.516 134.168 104.34C135.013 104.165 135.883 104.158 136.731 104.32Z" fill="#EA7460"/>
<path opacity="0.73" d="M136.45 105.79C137.437 105.978 138.346 106.454 139.061 107.158C139.777 107.863 140.267 108.764 140.47 109.748C140.673 110.731 140.579 111.753 140.2 112.683C139.822 113.613 139.175 114.41 138.343 114.972C137.511 115.534 136.53 115.837 135.526 115.841C134.522 115.845 133.539 115.551 132.702 114.996C131.865 114.441 131.212 113.65 130.825 112.723C130.439 111.796 130.336 110.775 130.53 109.79C130.789 108.477 131.557 107.32 132.666 106.57C133.775 105.821 135.135 105.541 136.45 105.79Z" fill="#EA7460"/>
<path opacity="0.82" d="M136.18 107.26C136.873 107.393 137.511 107.728 138.014 108.223C138.517 108.717 138.862 109.35 139.005 110.041C139.149 110.732 139.084 111.449 138.82 112.103C138.555 112.758 138.104 113.319 137.521 113.716C136.938 114.114 136.25 114.329 135.545 114.336C134.839 114.343 134.148 114.141 133.557 113.755C132.966 113.37 132.503 112.817 132.226 112.169C131.949 111.52 131.871 110.804 132 110.11C132.177 109.178 132.717 108.355 133.501 107.82C134.285 107.286 135.248 107.085 136.18 107.26Z" fill="#EA7460"/>
<path opacity="0.91" d="M135.9 108.73C136.304 108.807 136.677 109.002 136.971 109.29C137.264 109.579 137.466 109.948 137.549 110.351C137.633 110.754 137.595 111.173 137.44 111.555C137.286 111.936 137.022 112.263 136.681 112.494C136.341 112.726 135.939 112.851 135.527 112.854C135.116 112.856 134.712 112.737 134.369 112.511C134.025 112.284 133.756 111.961 133.596 111.582C133.436 111.202 133.392 110.784 133.47 110.38C133.521 110.112 133.623 109.856 133.773 109.628C133.922 109.399 134.116 109.203 134.342 109.049C134.568 108.896 134.821 108.789 135.089 108.734C135.356 108.679 135.632 108.678 135.9 108.73Z" fill="#EA7460"/>
<path opacity="0.9" d="M136.071 110.88C136.049 110.991 135.995 111.092 135.915 111.172C135.835 111.252 135.734 111.306 135.624 111.329C135.513 111.351 135.399 111.34 135.294 111.297C135.19 111.254 135.101 111.181 135.038 111.088C134.975 110.994 134.942 110.884 134.941 110.771C134.941 110.659 134.974 110.548 135.037 110.454C135.099 110.361 135.188 110.287 135.292 110.244C135.395 110.2 135.51 110.189 135.621 110.21C135.694 110.225 135.764 110.253 135.827 110.295C135.889 110.336 135.943 110.39 135.985 110.452C136.027 110.514 136.056 110.584 136.07 110.658C136.085 110.731 136.085 110.807 136.071 110.88Z" fill="#EA7460"/>
</g>
<g opacity="0.9">
<path opacity="0.09" d="M187.78 94.3601C191.02 94.9733 194.005 96.5333 196.358 98.8429C198.71 101.153 200.325 104.108 200.999 107.335C201.672 110.563 201.373 113.918 200.139 116.975C198.906 120.033 196.794 122.656 194.069 124.513C191.345 126.37 188.132 127.378 184.835 127.408C181.538 127.439 178.306 126.492 175.548 124.686C172.79 122.88 170.629 120.296 169.339 117.262C168.049 114.228 167.687 110.88 168.3 107.64C169.125 103.297 171.639 99.4589 175.292 96.9688C178.945 94.4788 183.436 93.5405 187.78 94.3601Z" fill="#EA7460"/>
<path opacity="0.18" d="M187.491 95.9402C190.419 96.4947 193.118 97.9053 195.245 99.9935C197.372 102.082 198.832 104.754 199.44 107.672C200.048 110.59 199.778 113.623 198.662 116.387C197.547 119.151 195.637 121.522 193.173 123.201C190.71 124.879 187.804 125.789 184.824 125.816C181.843 125.844 178.922 124.986 176.428 123.353C173.935 121.719 171.982 119.383 170.817 116.64C169.651 113.896 169.326 110.869 169.881 107.94C170.628 104.015 172.901 100.547 176.203 98.297C179.505 96.0471 183.565 95.1995 187.491 95.9402Z" fill="#EA7460"/>
<path opacity="0.27" d="M187.191 97.5198C189.806 98.0153 192.216 99.2753 194.116 101.14C196.015 103.005 197.319 105.392 197.863 107.998C198.406 110.604 198.164 113.313 197.168 115.782C196.171 118.25 194.466 120.368 192.266 121.867C190.066 123.367 187.471 124.18 184.809 124.204C182.147 124.228 179.538 123.463 177.311 122.004C175.084 120.546 173.339 118.459 172.298 116.009C171.257 113.559 170.965 110.855 171.461 108.24C171.79 106.503 172.457 104.848 173.426 103.37C174.395 101.891 175.645 100.617 177.106 99.622C178.566 98.6266 180.209 97.9286 181.939 97.5679C183.67 97.2072 185.454 97.1909 187.191 97.5198Z" fill="#EA7460"/>
<path opacity="0.36" d="M186.89 99.15C189.192 99.5882 191.312 100.699 192.983 102.342C194.653 103.985 195.799 106.086 196.276 108.38C196.753 110.674 196.539 113.058 195.661 115.23C194.784 117.403 193.281 119.266 191.345 120.585C189.408 121.904 187.124 122.619 184.781 122.64C182.438 122.662 180.142 121.988 178.182 120.704C176.222 119.42 174.686 117.584 173.769 115.428C172.852 113.272 172.595 110.892 173.03 108.59C173.32 107.06 173.908 105.601 174.761 104.298C175.614 102.995 176.716 101.874 178.004 100.997C179.291 100.12 180.738 99.5057 182.263 99.1888C183.788 98.8719 185.36 98.8587 186.89 99.15Z" fill="#EA7460"/>
<path opacity="0.45" d="M186.591 100.67C188.581 101.051 190.413 102.013 191.856 103.434C193.3 104.856 194.29 106.674 194.701 108.657C195.112 110.641 194.926 112.702 194.166 114.581C193.406 116.459 192.107 118.07 190.432 119.21C188.758 120.35 186.783 120.968 184.757 120.987C182.731 121.005 180.745 120.423 179.05 119.313C177.355 118.203 176.027 116.616 175.233 114.752C174.44 112.888 174.216 110.831 174.591 108.84C174.842 107.515 175.351 106.253 176.09 105.125C176.829 103.998 177.783 103.027 178.898 102.268C180.012 101.509 181.265 100.977 182.585 100.703C183.905 100.429 185.267 100.418 186.591 100.67Z" fill="#EA7460"/>
<path opacity="0.55" d="M186.29 102.25C187.969 102.568 189.515 103.377 190.734 104.574C191.953 105.77 192.79 107.302 193.139 108.974C193.488 110.647 193.333 112.385 192.695 113.969C192.056 115.554 190.961 116.913 189.55 117.876C188.139 118.839 186.474 119.362 184.765 119.378C183.057 119.395 181.382 118.905 179.952 117.97C178.523 117.035 177.402 115.697 176.733 114.125C176.063 112.554 175.874 110.819 176.19 109.14C176.4 108.024 176.828 106.96 177.45 106.01C178.071 105.06 178.874 104.241 179.812 103.601C180.75 102.961 181.805 102.513 182.917 102.281C184.028 102.049 185.175 102.038 186.29 102.25Z" fill="#EA7460"/>
<path opacity="0.64" d="M185.991 103.83C187.347 104.094 188.595 104.753 189.577 105.725C190.56 106.696 191.232 107.937 191.511 109.29C191.789 110.643 191.661 112.049 191.142 113.329C190.624 114.61 189.737 115.708 188.595 116.486C187.454 117.264 186.107 117.687 184.726 117.701C183.344 117.715 181.989 117.32 180.832 116.565C179.674 115.811 178.766 114.731 178.221 113.461C177.677 112.191 177.52 110.789 177.771 109.43C177.939 108.52 178.285 107.653 178.79 106.879C179.295 106.104 179.949 105.437 180.713 104.916C181.477 104.395 182.337 104.031 183.243 103.845C184.149 103.658 185.083 103.653 185.991 103.83Z" fill="#EA7460"/>
<path opacity="0.73" d="M185.691 105.41C186.746 105.609 187.719 106.117 188.487 106.869C189.254 107.621 189.781 108.584 190 109.636C190.22 110.688 190.123 111.781 189.721 112.777C189.319 113.774 188.63 114.628 187.742 115.233C186.855 115.838 185.807 116.166 184.733 116.176C183.659 116.185 182.606 115.876 181.707 115.287C180.809 114.698 180.105 113.855 179.686 112.866C179.266 111.877 179.15 110.786 179.351 109.73C179.483 109.03 179.752 108.363 180.142 107.766C180.532 107.17 181.036 106.657 181.625 106.255C182.214 105.854 182.876 105.573 183.574 105.428C184.272 105.283 184.991 105.277 185.691 105.41Z" fill="#EA7460"/>
<path opacity="0.82" d="M185.391 106.98C186.136 107.12 186.822 107.478 187.364 108.008C187.905 108.538 188.277 109.217 188.432 109.959C188.588 110.701 188.52 111.472 188.237 112.175C187.954 112.878 187.469 113.481 186.843 113.908C186.217 114.335 185.478 114.567 184.72 114.574C183.962 114.581 183.219 114.364 182.585 113.948C181.951 113.533 181.455 112.939 181.158 112.242C180.862 111.544 180.779 110.775 180.921 110.03C181.112 109.035 181.69 108.155 182.527 107.584C183.365 107.013 184.394 106.796 185.391 106.98Z" fill="#EA7460"/>
<path opacity="0.91" d="M185.091 108.56C185.522 108.641 185.92 108.848 186.234 109.155C186.548 109.462 186.764 109.855 186.854 110.285C186.945 110.715 186.906 111.162 186.742 111.57C186.578 111.977 186.297 112.327 185.935 112.575C185.572 112.823 185.144 112.957 184.705 112.962C184.265 112.966 183.835 112.84 183.467 112.6C183.1 112.36 182.812 112.016 182.64 111.612C182.468 111.208 182.419 110.761 182.5 110.33C182.61 109.752 182.944 109.241 183.43 108.909C183.915 108.577 184.513 108.452 185.091 108.56Z" fill="#EA7460"/>
<path opacity="0.9" d="M185.281 110.86C185.266 110.939 185.236 111.013 185.193 111.08C185.149 111.147 185.092 111.204 185.026 111.249C184.96 111.294 184.886 111.325 184.807 111.341C184.729 111.356 184.649 111.356 184.571 111.34C184.492 111.326 184.417 111.296 184.349 111.252C184.282 111.209 184.224 111.152 184.179 111.087C184.133 111.021 184.101 110.946 184.084 110.868C184.067 110.79 184.066 110.709 184.08 110.63C184.112 110.47 184.205 110.329 184.34 110.237C184.475 110.146 184.64 110.111 184.801 110.14C184.88 110.154 184.956 110.184 185.023 110.229C185.091 110.273 185.149 110.331 185.194 110.398C185.238 110.465 185.27 110.541 185.284 110.62C185.299 110.7 185.298 110.781 185.281 110.86Z" fill="#EA7460"/>
</g>
<path d="M160.181 113.63C153.781 116.54 149.771 115.03 148.941 110.74C148.401 107.95 150.031 104.74 151.781 103.2C155.371 100.01 156.971 90.6803 156.991 90.5903C157.261 92.5903 156.861 100.38 152.481 105.78C152.039 106.277 151.703 106.859 151.493 107.49C151.283 108.121 151.204 108.788 151.261 109.45C151.501 112.64 154.561 115.13 160.181 113.63Z" fill="#DB7C65"/>
<path d="M133 86.9998C127 86.9998 124.233 91.0001 124.233 93.854C124.233 93.854 123.295 96.5103 134 97.4999C142.747 97.3545 145.609 94.8865 145.589 94.2357C145.547 92.4884 144 87.5 133 86.9998Z" fill="#F2F0F0"/>
<path d="M139.125 91.0931C139.089 90.2407 138.799 89.4185 138.293 88.7319C137.786 88.0453 137.086 87.5258 136.283 87.24C135.479 86.9541 134.608 86.915 133.782 87.1277C132.955 87.3403 132.212 87.7951 131.646 88.4335C131.08 89.0719 130.718 89.8649 130.606 90.7106C130.494 91.5564 130.637 92.4163 131.017 93.18C131.397 93.9438 131.997 94.5764 132.739 94.9968C133.482 95.4172 134.333 95.6062 135.183 95.5394C136.292 95.4626 137.326 94.9537 138.063 94.1221C138.8 93.2906 139.182 92.2029 139.125 91.0931Z" fill="#487CB8"/>
<path d="M137.886 91.1834C137.811 90.3946 137.426 89.6677 136.817 89.1613C136.207 88.6549 135.422 88.4102 134.633 88.4805C134.248 88.5102 133.872 88.6155 133.527 88.7904C133.183 88.9653 132.876 89.2064 132.624 89.4999C132.373 89.7934 132.181 90.1335 132.061 90.501C131.941 90.8684 131.895 91.2558 131.924 91.6412C131.954 92.0266 132.059 92.4024 132.234 92.7471C132.409 93.0918 132.65 93.3987 132.944 93.6502C133.237 93.9018 133.577 94.093 133.945 94.2131C134.312 94.3331 134.7 94.3797 135.085 94.35C135.875 94.2988 136.613 93.9371 137.138 93.3439C137.663 92.7507 137.932 91.974 137.886 91.1834Z" fill="#18100E"/>
<path d="M139.104 89.9261C139.093 89.7621 139.049 89.602 138.975 89.455C138.902 89.308 138.8 89.1769 138.676 89.0692C138.551 88.9615 138.407 88.8793 138.251 88.8274C138.095 88.7754 137.931 88.7547 137.767 88.7664C137.603 88.778 137.443 88.8219 137.296 88.8954C137.149 88.969 137.018 89.0707 136.91 89.1949C136.802 89.3191 136.72 89.4633 136.668 89.6192C136.616 89.7752 136.595 89.9398 136.607 90.1038C136.638 90.4306 136.796 90.7324 137.047 90.9438C137.298 91.1553 137.622 91.2594 137.949 91.2338C138.275 91.212 138.579 91.0624 138.796 90.8175C139.012 90.5726 139.123 90.2523 139.104 89.9261Z" fill="#EFECEC"/>
<path d="M134.011 83.3879C146.408 83.1331 145.575 92.1827 145.575 92.1827C145.575 92.1827 142.064 86.1402 133.437 86.6181C128.15 86.9076 124.22 91.801 124.22 91.801C124.22 91.801 124.671 83.5725 134.011 83.3879Z" fill="#E6966E"/>
<path d="M133.915 85.8319C144.636 85.0934 145.576 92.1826 145.576 92.1826C145.576 92.1826 141.347 86.0687 133.804 87.1911C126.915 88.2129 124.225 91.7713 124.225 91.7713C124.225 91.7713 124.698 86.4608 133.915 85.8319Z" fill="#412118"/>
<path d="M180 85.9998C187.5 86.4997 190.165 90.4998 190.165 93.8269C190.165 93.8269 189.415 97.0708 179.5 97.4999C169.988 97.3641 168.77 94.4715 168.79 93.8877C168.79 89.5 173.001 87.0001 180 85.9998Z" fill="#F2F0F0"/>
<path d="M175.311 90.8653C175.434 89.7572 175.99 88.7424 176.857 88.0417C177.724 87.341 178.833 87.0111 179.942 87.1236C180.752 87.2216 181.515 87.556 182.136 88.085C182.757 88.6141 183.208 89.3143 183.433 90.0983C183.658 90.8823 183.647 91.7152 183.401 92.493C183.156 93.2708 182.686 93.959 182.052 94.4716C181.418 94.9842 180.646 95.2985 179.834 95.3752C179.022 95.4519 178.206 95.2876 177.486 94.9028C176.767 94.5181 176.177 93.9299 175.79 93.2118C175.404 92.4938 175.237 91.6776 175.311 90.8653Z" fill="#487CB8"/>
<path d="M176.599 90.9847C176.64 90.3906 176.858 89.8223 177.224 89.3523C177.589 88.8822 178.087 88.5317 178.652 88.3453C179.218 88.1589 179.827 88.1451 180.4 88.3056C180.974 88.4662 181.486 88.7939 181.873 89.2468C182.26 89.6998 182.503 90.2576 182.571 90.8493C182.64 91.4409 182.531 92.0396 182.258 92.569C181.985 93.0984 181.561 93.5346 181.039 93.8221C180.518 94.1095 179.922 94.2352 179.329 94.1831C178.545 94.1143 177.82 93.7406 177.31 93.1424C176.799 92.5442 176.544 91.7693 176.599 90.9847Z" fill="#18100E"/>
<path d="M181.661 90.0735C181.676 89.8249 181.765 89.5864 181.916 89.3887C182.068 89.191 182.275 89.043 182.511 88.9637C182.747 88.8844 183.001 88.8775 183.241 88.9437C183.481 89.01 183.696 89.1464 183.858 89.3355C184.02 89.5247 184.122 89.7579 184.151 90.0053C184.179 90.2527 184.133 90.5029 184.019 90.724C183.904 90.9451 183.726 91.1269 183.507 91.2461C183.289 91.3654 183.039 91.4165 182.791 91.3932C182.63 91.3832 182.472 91.3408 182.326 91.2686C182.181 91.1963 182.052 91.0957 181.947 90.9726C181.841 90.8495 181.762 90.7064 181.713 90.552C181.664 90.3975 181.646 90.2348 181.661 90.0735Z" fill="#EFECEC"/>
<path d="M180.44 83.3587C168.775 82.5536 168.797 91.8375 168.797 91.8375C168.797 91.8375 172.409 85.8624 181.034 86.4976C186.319 86.8755 190.153 91.8246 190.153 91.8246C190.153 91.8246 190.523 84.059 180.44 83.3587Z" fill="#E6966E"/>
<path d="M180.225 85.8454C169.513 85.4823 168.796 91.8376 168.796 91.8376C170.23 90.1253 172.065 88.7927 174.136 87.9575C176.208 87.1223 178.454 86.8103 180.675 87.049C187.651 87.7411 190.172 91.8279 190.172 91.8279C190.172 91.8279 189.637 86.168 180.225 85.8454Z" fill="#412118"/>
<path d="M203.98 109.15C203.98 109.15 201.41 129.01 176.17 139.82C153.93 149.35 132.231 134.61 127.391 130.97C134.941 142.71 148.261 149.62 160.601 149.6C197.391 149.55 206.73 116.9 206.73 116.9C210.065 117.33 213.45 116.691 216.397 115.073C219.345 113.456 221.703 110.944 223.131 107.9C212.541 117.96 203.98 109.15 203.98 109.15Z" fill="#EF8D72"/>
<path d="M146.62 74.0899C146.62 74.0899 137.621 71.6499 125.281 75.2299C125.281 75.2299 125.2 74.3199 127.52 72.3399C129.84 70.3599 137.811 68.4699 144.781 71.3399C144.781 71.3199 148.39 73.2599 146.62 74.0899Z" fill="#7C3425"/>
<path d="M167.241 73.56C167.241 73.56 176.241 70.96 188.601 74.32C188.601 74.32 188.661 73.41 186.311 71.47C183.961 69.53 175.951 67.79 169.031 70.77C169.031 70.77 165.451 72.77 167.241 73.56Z" fill="#7C3425"/>
<path d="M173.48 119.53C173.48 119.53 159.19 122.68 145.82 119.96C145.82 119.96 148.37 132.19 159.82 131.96C170.65 131.79 173.39 121.9 173.48 119.53Z" fill="#B22828"/>
<path d="M159.44 125.61C150.62 125.74 147.981 122.13 146.841 120.16C157.211 122.04 165.531 120.69 172.781 119.67C172.031 121.9 167.75 125.48 159.44 125.61Z" fill="white"/>
<path d="M159.65 30C127.39 34.33 119.46 58 118.58 77.87C118.58 77.87 121.8 40.27 154.51 33.87C154.51 33.87 164.91 64.74 204.74 77.47C177.67 64.82 159.65 30 159.65 30Z" fill="#EF8D72"/>
<g filter="url(#filter0_b_1236_2307)">
<path d="M133.571 109.69C143.087 109.69 150.801 101.976 150.801 92.46C150.801 82.9441 143.087 75.23 133.571 75.23C124.055 75.23 116.341 82.9441 116.341 92.46C116.341 101.976 124.055 109.69 133.571 109.69Z" fill="url(#paint1_linear_1236_2307)"/>
</g>
<g filter="url(#filter1_b_1236_2307)">
<path d="M179.571 109.69C189.087 109.69 196.801 101.976 196.801 92.46C196.801 82.9441 189.087 75.23 179.571 75.23C170.055 75.23 162.341 82.9441 162.341 92.46C162.341 101.976 170.055 109.69 179.571 109.69Z" fill="url(#paint2_linear_1236_2307)"/>
</g>
<path d="M133.57 110.62C129.978 110.62 126.467 109.555 123.481 107.56C120.494 105.564 118.167 102.728 116.792 99.4098C115.418 96.0915 115.058 92.4402 115.759 88.9175C116.46 85.3948 118.189 82.159 120.729 79.6192C123.269 77.0795 126.505 75.3499 130.027 74.6492C133.55 73.9485 137.201 74.3082 140.519 75.6827C143.838 77.0571 146.674 79.3848 148.669 82.3712C150.665 85.3576 151.73 88.8686 151.73 92.4603C151.725 97.275 149.81 101.891 146.405 105.296C143.001 108.7 138.385 110.615 133.57 110.62ZM133.57 76.3003C130.374 76.3003 127.25 77.2481 124.592 79.0237C121.935 80.7994 119.863 83.3233 118.64 86.2761C117.417 89.229 117.097 92.4782 117.721 95.613C118.344 98.7477 119.883 101.627 122.143 103.887C124.403 106.147 127.283 107.686 130.417 108.31C133.552 108.933 136.801 108.613 139.754 107.39C142.707 106.167 145.231 104.096 147.007 101.438C148.782 98.7808 149.73 95.6565 149.73 92.4603C149.725 88.176 148.021 84.0688 144.991 81.0393C141.962 78.0099 137.854 76.3056 133.57 76.3003Z" fill="#CE3B28"/>
<path d="M179.57 110.62C175.978 110.62 172.467 109.555 169.481 107.56C166.494 105.564 164.167 102.728 162.792 99.4098C161.418 96.0915 161.058 92.4402 161.759 88.9175C162.46 85.3948 164.189 82.159 166.729 79.6192C169.269 77.0795 172.505 75.3499 176.027 74.6492C179.55 73.9485 183.201 74.3082 186.519 75.6827C189.838 77.0571 192.674 79.3848 194.669 82.3712C196.665 85.3576 197.73 88.8686 197.73 92.4603C197.725 97.275 195.81 101.891 192.405 105.296C189.001 108.7 184.385 110.615 179.57 110.62ZM179.57 76.3003C176.374 76.3003 173.25 77.2481 170.592 79.0237C167.935 80.7994 165.863 83.3233 164.64 86.2761C163.417 89.229 163.097 92.4782 163.721 95.613C164.344 98.7477 165.883 101.627 168.143 103.887C170.403 106.147 173.283 107.686 176.417 108.31C179.552 108.933 182.801 108.613 185.754 107.39C188.707 106.167 191.231 104.096 193.007 101.438C194.782 98.7808 195.73 95.6565 195.73 92.4603C195.725 88.176 194.021 84.0688 190.991 81.0393C187.962 78.0099 183.854 76.3056 179.57 76.3003Z" fill="#CE3B28"/>
<path d="M162.01 91.5302C155.73 89.3002 151.19 91.4602 151.14 91.5302L150.25 89.7302C150.47 89.6302 155.56 87.1602 162.68 89.7302L162.01 91.5302Z" fill="#CE3B28"/>
<path d="M197.19 90.6199L196.011 88.9999C196.391 88.7199 208.48 79.1999 215.4 82.9999L213.311 83.3699C205.621 83.2599 197.28 90.5499 197.19 90.6199Z" fill="#CE3B28"/>
<path d="M228.101 180.23C217.811 184.29 211.481 232.67 228.161 280.7C240.722 279.551 253.145 277.207 265.261 273.7C251.831 190 228.101 180.23 228.101 180.23Z" fill="#CE3B28"/>
<path d="M269.63 305.41C268.3 293.8 266.83 283.26 265.26 273.67C253.144 277.177 240.721 279.521 228.16 280.67C229.82 292.5 234.74 303.23 236.68 311.35C245.34 347.68 281.27 411.48 281.27 411.48C295.18 414.8 301.61 406.09 301.61 406.09C289.19 363.36 269.63 305.41 269.63 305.41Z" fill="#FAA284"/>
<path d="M266.881 287.96C266.881 287.96 270.881 288.64 269.801 282.28C268.721 275.92 267.951 265.28 263.581 266.18C263.581 266.18 238.481 275.86 223.631 276.79C223.631 276.79 221.161 276.96 222.311 280.93C223.461 284.9 223.981 296.36 229.631 295.53C229.631 295.53 255.391 291.85 266.881 287.96Z" fill="#D8453A"/>
<path d="M281.51 405.92C283.93 400.42 291.77 402.42 291.77 402.42C291.77 402.42 323.29 395.15 330.43 398.96C334.91 401.36 338.63 406.77 342.15 411.07L351.24 422.07C351.24 422.07 348.67 428.72 334.24 411.22C335.59 416.48 339.73 426.22 340.24 427.95C340.24 427.95 333.58 431.39 328.75 411.47C328.93 416.03 330.87 427.47 331.08 429.47C331.08 429.47 324.66 431.64 323.75 414.55C322.64 417.55 322.2 426.9 321.83 428.1C321.83 428.1 316.92 427.72 318.24 413.5L305.08 421.22C305.08 421.22 316.83 433.1 309.83 439.72C309.83 439.72 300.64 428.88 297.21 426.6C292.648 423.711 288.357 420.414 284.39 416.75C284.39 416.75 279.1 411.42 281.51 405.92Z" fill="#FAA284"/>
<defs>
<filter id="filter0_b_1236_2307" x="114.341" y="73.23" width="38.46" height="38.46" filterUnits="userSpaceOnUse" color-interpolation-filters="sRGB">
<feFlood flood-opacity="0" result="BackgroundImageFix"/>
<feGaussianBlur in="BackgroundImage" stdDeviation="1"/>
<feComposite in2="SourceAlpha" operator="in" result="effect1_backgroundBlur_1236_2307"/>
<feBlend mode="normal" in="SourceGraphic" in2="effect1_backgroundBlur_1236_2307" result="shape"/>
</filter>
<filter id="filter1_b_1236_2307" x="160.341" y="73.23" width="38.46" height="38.46" filterUnits="userSpaceOnUse" color-interpolation-filters="sRGB">
<feFlood flood-opacity="0" result="BackgroundImageFix"/>
<feGaussianBlur in="BackgroundImage" stdDeviation="1"/>
<feComposite in2="SourceAlpha" operator="in" result="effect1_backgroundBlur_1236_2307"/>
<feBlend mode="normal" in="SourceGraphic" in2="effect1_backgroundBlur_1236_2307" result="shape"/>
</filter>
<linearGradient id="paint0_linear_1236_2307" x1="855402" y1="76244.3" x2="866040" y2="94728.8" gradientUnits="userSpaceOnUse">
<stop stop-color="#7C3425"/>
<stop offset="1" stop-color="#60261D"/>
</linearGradient>
<linearGradient id="paint1_linear_1236_2307" x1="-389018" y1="25824.8" x2="-389018" y2="19428" gradientUnits="userSpaceOnUse">
<stop stop-color="white" stop-opacity="0.8"/>
<stop offset="1" stop-color="white" stop-opacity="0.3"/>
</linearGradient>
<linearGradient id="paint2_linear_1236_2307" x1="-388972" y1="25824.8" x2="-388972" y2="19428" gradientUnits="userSpaceOnUse">
<stop stop-color="white" stop-opacity="0.8"/>
<stop offset="1" stop-color="white" stop-opacity="0.3"/>
</linearGradient>
</defs>
</svg>
