<svg width="384" height="426" viewBox="0 0 384 426" fill="none" xmlns="http://www.w3.org/2000/svg">
<path d="M260.199 460.69C258.699 454.53 251.539 428.55 248.589 423.69C227.929 389.69 182.149 406.45 182.149 406.45L120.939 418.45C108.329 443.12 95.1492 469.83 97.6392 494.39C100.129 518.95 97.0688 691.63 97.0688 704.19C97.0688 715.7 94.9991 857.12 95.8091 879.75C95.8791 881.75 95.6191 886.88 96.8091 888.49C101.179 894.63 140.229 894.18 142.009 885.09C153.169 827.84 162.279 713.62 163.899 704.78C167.239 686.55 181.709 549.93 181.709 549.93C187.099 549.93 277.419 854.34 282.389 882.1C282.672 883.893 283.463 885.567 284.668 886.925C285.874 888.282 287.442 889.266 289.189 889.76C302.189 893.62 333.339 894.93 332.379 884.32C332.029 880.86 263.159 472.9 260.199 460.69Z" fill="#36393D"/>
<g style="mix-blend-mode:screen" opacity="0.2">
<path d="M201.649 401.75C194.159 402.97 182.149 406.48 182.149 406.48L120.939 418.48C108.329 443.15 95.1492 469.86 97.6392 494.42C100.129 518.98 97.0688 691.66 97.0688 704.22C97.0688 715.73 94.9991 857.15 95.8091 879.78C95.8791 881.78 95.6191 886.91 96.8091 888.52C101.179 894.66 140.229 894.21 142.009 885.12C153.169 827.87 162.279 713.65 163.899 704.81C167.239 686.58 181.709 549.96 181.709 549.96L187.449 526.61L198.719 511.91L201.649 401.75Z" fill="#2E2B2D"/>
</g>
<path d="M116.128 414.1C139.248 417.39 192.348 418.27 213.898 414.35C235.448 410.43 244.998 408.28 244.998 408.28L248.588 423.72C248.588 423.72 254.378 429.72 211.818 432.3C169.258 434.88 123.648 432.53 116.128 429.41C112.728 427.99 116.128 414.1 116.128 414.1Z" fill="#1D1D1B"/>
<path d="M204.209 430.34C204.237 430.927 204.03 431.501 203.634 431.936C203.239 432.371 202.687 432.631 202.1 432.66L178.02 433.4C177.728 433.405 177.439 433.353 177.168 433.246C176.898 433.139 176.65 432.98 176.441 432.778C176.232 432.575 176.066 432.333 175.95 432.066C175.835 431.798 175.773 431.511 175.77 431.22L175.35 417.88C175.325 417.293 175.533 416.721 175.928 416.286C176.323 415.852 176.873 415.591 177.459 415.56L201.549 414.81C201.841 414.805 202.131 414.857 202.403 414.965C202.674 415.072 202.922 415.232 203.131 415.436C203.34 415.64 203.507 415.883 203.622 416.151C203.736 416.42 203.797 416.708 203.799 417L204.209 430.34Z" fill="#1D1D1B"/>
<path d="M177.95 434.69C177.072 434.689 176.228 434.353 175.59 433.75C175.246 433.426 174.971 433.038 174.779 432.607C174.586 432.176 174.482 431.712 174.47 431.24L174.06 417.91C174.047 417.437 174.129 416.965 174.301 416.524C174.473 416.083 174.731 415.68 175.06 415.34C175.367 415.009 175.738 414.742 176.15 414.557C176.562 414.371 177.008 414.27 177.46 414.26L201.54 413.51C202.002 413.498 202.462 413.578 202.893 413.745C203.324 413.911 203.718 414.162 204.052 414.482C204.386 414.802 204.653 415.184 204.838 415.608C205.023 416.032 205.122 416.488 205.13 416.95L205.54 430.29C205.551 430.763 205.469 431.234 205.297 431.675C205.126 432.116 204.868 432.519 204.54 432.86C204.232 433.191 203.861 433.458 203.449 433.643C203.037 433.829 202.592 433.93 202.14 433.94L178.05 434.69H177.95ZM201.62 416.1L177.53 416.84C177.306 416.854 177.097 416.95 176.94 417.11C176.851 417.207 176.783 417.321 176.738 417.444C176.693 417.568 176.674 417.699 176.68 417.83L177.1 431.17C177.1 431.299 177.126 431.428 177.178 431.546C177.229 431.665 177.305 431.772 177.4 431.86C177.48 431.939 177.575 432.001 177.68 432.043C177.785 432.084 177.897 432.103 178.01 432.1L202.1 431.35C202.21 431.348 202.319 431.324 202.419 431.277C202.519 431.231 202.608 431.163 202.68 431.08C202.773 430.986 202.845 430.873 202.892 430.749C202.938 430.625 202.958 430.492 202.95 430.36L202.53 417.03C202.526 416.766 202.418 416.515 202.23 416.33C202.062 416.181 201.844 416.102 201.62 416.11V416.1Z" fill="#C3B398"/>
<path d="M157.351 151.94C160.641 146.78 205.54 150.08 208.03 151.94C210.52 153.8 211.44 170.64 211.44 170.64V195.64L154.11 190.3L153.891 169.22C153.891 169.22 154.111 156.99 157.351 151.94Z" fill="#BCBEC0"/>
<path d="M103.93 188.87C127.63 180.16 142.93 175.57 150 172.41C155.88 169.88 159.45 160.97 158.93 154.41C158.04 143.24 155.72 111.34 155.72 111.34L205.56 108.64C205.56 108.64 203.69 148.29 207.39 160.97C209.28 167.48 214.81 169.22 219.39 170.64C234.96 175.45 238.599 183.25 254.169 198.23C267.089 210.67 250.719 306.74 243.169 345.48C239.799 362.79 242.76 402.82 242.76 402.82C197.52 416.02 139.839 412.11 120.629 394.35C120.629 394.35 121.399 358.49 120.439 342.17C118.269 304.41 105.99 227.32 103.93 188.87Z" fill="#E6966E"/>
<path d="M152.52 168.38C156.27 172.25 166.41 174.74 173.12 186.21C180.55 198.91 184.33 203.87 184.33 203.87C184.33 203.87 187.92 202.38 194.73 190.35C201.29 178.76 211.02 173.29 217.48 170.21C217.48 170.21 254.739 177.72 264.049 183.26C273.359 188.8 257.96 282.07 257.96 282.07C257.96 282.07 246.8 348.34 244.96 408.28C244.96 408.28 243.5 420.96 200.49 422.51C161.41 423.93 116.089 414.1 116.089 414.1C119.919 387.69 102.94 273.69 102.94 273.69C102.94 273.69 93.2994 183.78 105.069 180.81C117.949 177.59 152.52 168.38 152.52 168.38Z" fill="#E5E6E7"/>
<path d="M173.871 177.76C175.801 179.61 184.331 203.87 184.331 203.87C179.963 199.274 176.048 194.267 172.641 188.92L153.891 197.03L157.351 151.94C157.351 151.94 171.941 175.9 173.871 177.76Z" fill="#D1D3D4"/>
<path d="M173.87 177.76L153.87 197.03C153.87 197.03 144.98 176.81 146.41 168.18C146.91 165.18 157.33 151.94 157.33 151.94L173.87 177.76Z" fill="#F1F2F2"/>
<path d="M194.73 175.94C192.89 177.8 184.33 203.87 184.33 203.87C184.33 203.87 193.19 196.29 198.55 187.47L213 197.03L208 151.94C208 151.94 196.57 174.08 194.73 175.94Z" fill="#D1D3D4"/>
<path d="M194.73 175.94L213 197.03C213 197.03 220.781 179.27 219.411 170.64C218.931 167.64 208.03 151.94 208.03 151.94L194.73 175.94Z" fill="#F1F2F2"/>
<path d="M184.33 206.36L183.13 422.71L180.45 376.05L179.74 198.23L184.33 206.36Z" fill="#D1D3D4"/>
<path d="M105.069 180.85C105.069 180.85 91.4398 174.48 78.9498 195.64C60.4198 227.03 10.7296 289.01 1.30962 326.48C-4.16038 348.25 44.6298 341.4 51.4698 332.48C58.1798 323.7 102.41 268.48 102.41 268.48C119.2 239.42 95.8294 203.16 105.069 180.85Z" fill="#8C6048"/>
<g style="mix-blend-mode:multiply" opacity="0.2">
<path d="M105.539 239.43C105.539 239.43 51.5388 323.93 33.0288 331.32C24.1975 334.495 15.031 336.646 5.70898 337.73C17.329 344.73 46.3092 339.2 51.4692 332.44C58.1792 323.66 102.409 268.44 102.409 268.44C108.689 257.6 109.349 245.74 108.209 233.98C107.447 235.856 106.554 237.677 105.539 239.43Z" fill="#8C6048"/>
</g>
<path d="M118.349 397.89C118.349 397.89 108.159 488.48 107.699 495.72C107.239 502.96 59.6188 488.72 57.3688 481.81C55.1188 474.9 85.5385 393.33 89.1285 381.55C92.9085 369.16 103.199 267.45 99.2286 255.16C95.2586 242.87 91.3488 184.38 102.929 180.22C126.799 171.64 142.809 165.58 142.809 165.58L152.548 189.51L131.769 329.69L118.349 397.89Z" fill="#8C6048"/>
<g style="mix-blend-mode:multiply" opacity="0.5">
<g style="mix-blend-mode:multiply" opacity="0.5">
<path d="M242.68 304.08L242.99 304.02L242.68 304.08Z" fill="#F1F2F2"/>
</g>
</g>
<path d="M120.04 332.69C118.19 332.2 116.04 334.29 115.22 337.36C114.4 340.43 115.219 343.36 117.089 343.8C118.959 344.24 121.089 342.2 121.899 339.13C122.709 336.06 121.88 333.13 120.04 332.69Z" fill="#A67255"/>
<path d="M112.159 362.32C110.319 361.83 108.158 363.92 107.348 366.99C106.538 370.06 107.348 372.99 109.208 373.43C111.068 373.87 113.208 371.83 114.028 368.76C114.848 365.69 114.009 362.81 112.159 362.32Z" fill="#A67255"/>
<path d="M104.33 391.84C102.48 391.36 100.33 393.44 99.5204 396.51C98.7104 399.58 99.5202 402.46 101.38 402.95C103.24 403.44 105.381 401.35 106.201 398.29C107.021 395.23 106.17 392.33 104.33 391.84Z" fill="#A67255"/>
<g style="mix-blend-mode:multiply" opacity="0.2">
<path d="M93.7202 351.14C91.9802 366.08 90.2699 377.84 89.1299 381.55C87.1799 387.97 77.2502 415.12 68.9902 439.62C85.3002 445.28 107.55 456 110.04 472.94C112.44 450.69 116.04 418.57 117.59 404.71C110.73 395.21 100.04 377.21 93.7202 351.14Z" fill="#8C6048"/>
</g>
<path d="M127.8 403.15C124.68 401.98 106.45 400.38 106.45 400.38L81.8398 405.24C84.9141 414.323 90.5172 422.341 97.9902 428.35C103.66 432.75 107.33 434.35 114.05 442.17C117.59 446.32 120.44 448.52 123.21 447.17C124.6 446.51 123.96 444.83 123.96 444.83C123.96 444.83 127.22 448.92 129.96 447.51C131.66 446.62 131.72 445.4 131.72 445.4C131.72 445.4 134.26 447.67 136.17 446.73C138.08 445.79 137.25 442.09 137.25 442.09L133.65 426.83L127.35 414.51C127.35 414.51 133.35 418.62 135.74 419.64C138.13 420.66 143.64 428.89 143.64 428.89C143.64 428.89 146.17 430.69 147.8 429.27C149.43 427.85 146.1 420.83 146.1 420.83C144.573 418.111 142.697 415.603 140.52 413.37C137.58 410.67 130.93 404.3 127.82 403.12L127.8 403.15Z" fill="#E6966E"/>
<g style="mix-blend-mode:multiply" opacity="0.3">
<path d="M97.9893 428.35C99.8793 429.82 101.879 431.21 103.899 432.72C104.619 433.26 109.509 430.29 111.329 428.93C113.149 427.57 126.719 402.93 125.699 402.64C120.019 401.58 106.779 400.41 106.479 400.38L81.8691 405.24C83.5124 409.447 85.5201 413.502 87.8691 417.36C90.6411 421.534 94.0569 425.244 97.9893 428.35Z" fill="#E6966E"/>
</g>
<g style="mix-blend-mode:multiply" opacity="0.3">
<g style="mix-blend-mode:multiply" opacity="0.3">
<path d="M132.54 444.51L127.56 431.83L123.6 424.8L126.74 434.98L132.54 444.51Z" fill="#E6966E"/>
</g>
</g>
<path d="M102.63 393.86L109.24 400.48L90.8599 421.75L81.8398 414.3L102.63 393.86Z" fill="#E5E6E7"/>
<path d="M102.63 393.86C88.7396 375.47 73.5198 349.44 53.3698 329.98C27.7798 305.27 10.8798 306.98 1.30976 326.48C-2.69024 334.68 9.92958 355.24 21.1296 366.43C36.2296 381.5 70.2998 416.6 79.6398 419.65C84.5598 417.81 102.63 393.86 102.63 393.86Z" fill="#8C6048"/>
<path d="M13.4801 357.59L14.0699 357.5C17.57 356.79 21.5004 355.22 22.4904 351.78C22.96 349.727 22.6007 347.571 21.4904 345.78C20.4904 343.96 19.0903 342.38 17.9303 340.66C14.9465 336.158 13.6043 330.766 14.13 325.39C14.68 319.97 17.1301 314.52 15.7101 309.26C14.9181 306.517 13.1365 304.165 10.7101 302.66C6.47009 311.23 3.18001 319.29 1.38001 326.45C-1.80999 332.81 5.04011 346.52 13.4801 357.59Z" fill="#664634"/>
<g style="mix-blend-mode:multiply" opacity="0.2">
<path d="M19.0801 352.69C12.2901 345.91 4.99016 335.69 1.18016 326.87C-2.30984 335.31 10.0899 355.4 21.1299 366.42C36.2299 381.49 70.3001 416.59 79.6401 419.64C81.5201 418.94 85.3098 415.01 89.2798 410.43C69.2098 396.24 31.0301 364.63 19.0801 352.69Z" fill="#8C6048"/>
</g>
<path d="M259 180.85C259 180.85 272.63 174.48 285.12 195.64C303.66 227.03 344.521 265.47 353.931 302.93C359.401 324.71 319.45 341.4 312.61 332.44C305.9 323.66 261.661 268.44 261.661 268.44C244.871 239.42 268.27 203.16 259 180.85Z" fill="#8C6048"/>
<g style="mix-blend-mode:multiply" opacity="0.2">
<path d="M324.268 320.88C317.558 312.1 269.728 248.88 269.728 248.88C263.938 238.88 260.728 227.48 258.588 215.93C255.588 233.18 252.159 251.93 261.679 268.41C261.679 268.41 305.918 323.64 312.628 332.41C319.338 341.18 322.798 277.34 321.208 258.33C285.448 290.95 328.548 326.51 324.268 320.88Z" fill="#8C6048"/>
</g>
<path d="M246.57 397.89C246.57 397.89 256.77 488.48 257.27 495.69C257.77 502.9 305.36 488.69 307.6 481.78C309.84 474.87 279.43 393.3 275.84 381.52C272.06 369.13 261.78 267.42 265.75 255.13C269.72 242.84 273.62 184.35 262.04 180.19C238.17 171.61 222.17 165.55 222.17 165.55L212.42 189.48L233.15 329.69L246.57 397.89Z" fill="#8C6048"/>
<g style="mix-blend-mode:multiply" opacity="0.2">
<path d="M271.2 351.14C272.94 366.08 274.66 377.84 275.79 381.55C277.79 387.97 287.67 415.12 295.94 439.62C279.62 445.28 257.37 456 254.89 472.94C252.48 450.69 248.89 418.57 247.34 404.71C254.19 395.21 264.88 377.21 271.2 351.14Z" fill="#8C6048"/>
</g>
<path d="M227.589 167.92C227.289 165.78 222.589 165.71 212.049 157.82C214.11 165.127 214.221 172.847 212.37 180.21C204.76 210.5 229.589 310.47 229.589 310.47L233.149 329.73L229.899 213.39L220.439 198.29L230.14 194.29C230.14 194.29 228.269 172.76 227.589 167.92Z" fill="#A67255"/>
<path d="M215.49 76.0599L216.61 96.4499C217.144 97.0272 217.821 97.4545 218.572 97.6896C219.323 97.9247 220.122 97.9593 220.89 97.7899C223.89 97.3799 227.47 86.3699 227.47 86.3699C227.47 86.3699 230.19 74.5299 225.23 72.0099C219.78 69.2599 215.49 76.0599 215.49 76.0599Z" fill="#E6966E"/>
<path d="M145.511 88.56L150.121 108.47C149.765 109.172 149.232 109.767 148.574 110.197C147.915 110.627 147.156 110.877 146.371 110.92C143.371 111.33 136.86 101.7 136.86 101.7C136.86 101.7 130.941 91.03 135.011 87.28C139.481 83.18 145.511 88.56 145.511 88.56Z" fill="#F7A379"/>
<path d="M217.479 46.15C217.479 46.15 225.199 104.51 221.279 112.23C217.359 119.95 205.919 138.7 200.279 142.5C197.447 144.444 194.245 145.782 190.872 146.429C187.499 147.076 184.029 147.018 180.679 146.26C173.409 144.71 158.599 131.38 152.799 126.01C145.659 119.41 132.459 53.42 133.279 58.5C133.279 58.5 132.349 25.55 170.989 20.14C204.879 15.38 217.479 46.15 217.479 46.15Z" fill="#F7A379"/>
<path d="M140.73 89.1401C140.73 89.1401 148.281 124.76 154.891 134.14C165.701 149.5 174.32 154.54 182.23 157.73C186.08 159.29 200.691 156.73 203.931 154.08C211.801 147.74 217.75 139.98 222.48 121.57C225.76 108.82 220.78 69.6201 220.78 69.6201C220.78 69.6201 220.071 104.09 214.161 107.08C206.541 110.93 209.68 102.96 183.92 107.03C160.54 110.73 163.001 116.2 157.621 115.75C152.241 115.3 140.73 89.1401 140.73 89.1401ZM171.73 122.14C170.95 120.72 171.051 118.76 171.971 117.93C173.721 116.37 177.421 114.11 184.871 112.83C191.491 111.69 196.011 112.69 198.391 113.55C199.561 113.97 200.391 115.72 200.141 117.37C199.481 122.47 197.06 132.56 188.25 133.37C179.44 134.18 174.011 126.25 171.721 122.11L171.73 122.14Z" fill="#BD8242"/>
<g style="mix-blend-mode:multiply" opacity="0.3">
<path d="M220.639 73.6899C221.849 86.2899 223.219 105.77 221.089 114.08C218.389 124.57 215.269 131.54 211.659 136.82C211.409 135.04 210.659 133.28 210.509 131.47C210.033 135.157 208.984 138.747 207.399 142.11C205.876 143.709 204.249 145.206 202.529 146.59C201.654 147.178 200.702 147.643 199.699 147.97C199.803 145.608 199.267 143.262 198.149 141.18C198.175 143.411 197.564 145.603 196.389 147.5C195.867 147.337 195.404 147.024 195.059 146.6L193.909 148.6C193.233 147.97 192.786 147.132 192.639 146.22C192.489 147.43 192.449 148.66 192.369 149.89C190.093 150.311 187.791 150.579 185.479 150.69C183.436 149.842 181.511 148.737 179.749 147.4C174.749 143.65 170.849 137.26 170.849 137.26C170.849 137.26 174.019 144.53 178.659 149.26C176.346 148.236 174.119 147.029 171.999 145.65C170.939 144.5 169.899 143.32 168.889 142.13C167.879 140.94 166.659 139.52 165.549 138.22C164.646 137.378 164.069 136.245 163.919 135.02C163.849 135.67 163.779 136.33 163.719 137.02L159.809 132.08C159.549 132.951 159.549 133.879 159.809 134.75C157.554 132.158 155.435 129.451 153.459 126.64C148.979 120.28 144.059 101.84 141.359 90.6399C140.949 89.7399 140.699 89.1699 140.699 89.1699C140.699 89.1699 148.249 124.79 154.859 134.17C165.669 149.53 174.289 154.57 182.199 157.76C186.049 159.32 200.659 156.71 203.899 154.11C211.769 147.77 217.719 140.01 222.449 121.6C225.729 108.85 220.749 69.6499 220.749 69.6499C220.749 69.6499 220.749 71.2099 220.639 73.6899Z" fill="#BD8242"/>
</g>
<path d="M210.639 21.2297C210.808 20.3156 210.902 19.3892 210.919 18.4597C210.919 14.4597 208.969 10.1297 205.239 8.64972C204.959 9.18792 204.544 9.64518 204.037 9.97781C203.529 10.3105 202.944 10.5073 202.339 10.5497C202.939 7.27971 200.719 4.01972 197.849 2.34972C194.979 0.679716 189.999 0.559707 186.699 0.199707C187.549 2.36971 184.699 6.91971 182.759 8.13971C182.13 7.5519 181.63 6.84032 181.289 6.04971C180.632 6.74184 179.869 7.32571 179.029 7.77971C178.503 5.99533 177.834 4.25635 177.029 2.57971C177.029 2.57971 175.859 8.57972 162.839 12.7597C162.157 11.51 161.855 10.0886 161.969 8.66971C161.122 8.86792 160.356 9.32133 159.775 9.9687C159.194 10.6161 158.825 11.4262 158.719 12.2897C157.731 11.6198 156.581 11.229 155.389 11.1586C154.198 11.0882 153.009 11.3408 151.949 11.8897C153.949 11.9897 155.439 11.8897 155.839 13.8897C155.839 13.8897 153.199 14.2597 151.839 14.5697C143.939 16.2997 143.419 19.7497 136.749 23.8497L138.619 23.9897C136.872 25.0297 135.126 26.073 133.379 27.1197C133.721 26.9497 134.097 26.8613 134.479 26.8613C134.861 26.8613 135.237 26.9497 135.579 27.1197C133.249 28.8372 130.753 30.3179 128.129 31.5397H132.979C131.542 33.401 129.883 35.08 128.039 36.5397C128.575 36.3708 129.153 36.3992 129.669 36.6197C129.785 37.6488 129.604 38.6896 129.149 39.6197C129.263 39.3021 129.469 39.0249 129.739 38.8224C130.009 38.6198 130.332 38.5007 130.669 38.4797C130.482 39.7732 129.99 41.0037 129.234 42.0696C128.478 43.1355 127.478 44.0061 126.319 44.6097C127.116 44.5806 127.898 44.3901 128.619 44.0497C127.639 47.2297 126.666 50.403 125.699 53.5697C125.961 53.5182 126.211 53.4147 126.432 53.2653C126.654 53.1159 126.843 52.9236 126.989 52.6997C127.129 55.0297 130.199 63.6197 130.579 67.5997C130.689 67.4497 130.799 67.2597 130.919 67.0997C133.204 76.8842 136.875 86.2924 141.819 95.0397C142.259 95.7897 143.359 95.4697 143.359 95.4697C139.129 84.5697 138.639 69.4697 139.219 63.4697C140.119 54.3497 139.769 42.1197 162.289 45.8197C198.049 51.6897 203.969 37.0697 203.969 37.0697C214.139 45.4097 219.969 67.7197 220.409 83.5297C220.409 83.5297 221.409 83.9097 221.499 83.1197C221.769 80.2897 221.389 62.2897 220.689 47.4597C220.109 36.8097 216.979 27.3397 210.639 21.2297Z" fill="#BD8242"/>
<g style="mix-blend-mode:multiply" opacity="0.3">
<g style="mix-blend-mode:multiply" opacity="0.3">
<path d="M181.269 6.05008C180.612 6.74221 179.849 7.32608 179.009 7.78008C178.484 5.9957 177.815 4.25671 177.009 2.58008C176.948 2.79093 176.875 2.99796 176.789 3.20007C176.895 4.43801 176.507 5.66764 175.709 6.62007C174.265 8.6241 172.486 10.3631 170.449 11.7601C174.683 11.4024 178.636 9.49362 181.549 6.40009C181.469 6.27009 181.339 6.18008 181.269 6.05008Z" fill="#BD8242"/>
</g>
<g style="mix-blend-mode:multiply" opacity="0.3">
<path d="M208.579 11.3999C208.473 12.1628 208.315 12.9178 208.109 13.6599C207.589 15.1468 206.765 16.5091 205.689 17.6599C202.667 21.2137 198.851 24.0058 194.549 25.8099C198.555 25.4562 202.482 24.4812 206.189 22.9199C207.699 22.3399 209.189 21.6899 210.659 20.9899C210.81 20.1444 210.897 19.2886 210.919 18.4299C210.918 15.8954 210.097 13.4292 208.579 11.3999Z" fill="#BD8242"/>
</g>
<g style="mix-blend-mode:multiply" opacity="0.3">
<path d="M205.359 8.69014C205.317 8.6658 205.278 8.63909 205.239 8.61014C204.959 9.14834 204.544 9.6056 204.037 9.93823C203.529 10.2709 202.944 10.4678 202.339 10.5101C202.598 8.91087 202.276 7.27164 201.429 5.89014C201.219 6.23014 201.019 6.57014 200.799 6.89014C199.906 8.38093 198.857 9.77216 197.669 11.0401C195.729 12.8041 193.486 14.2032 191.049 15.1701C195.167 14.6538 199.139 13.3138 202.729 11.2301C203.821 10.6399 204.731 9.76135 205.359 8.69014Z" fill="#BD8242"/>
</g>
</g>
<g style="mix-blend-mode:multiply" opacity="0.3">
<path d="M203.959 32.4697C203.959 32.4697 198.029 47.0897 162.269 41.2197C139.759 37.5197 140.109 49.7597 139.209 58.8697C139.028 61.0414 138.968 63.2214 139.029 65.3997C139.029 64.6897 139.099 63.9797 139.149 63.3997C140.049 54.2797 139.699 42.0497 162.219 45.7497C197.979 51.6197 203.899 36.9997 203.899 36.9997C214.069 45.3397 219.899 67.6497 220.339 83.4597L220.389 78.9097C219.929 63.1197 214.129 40.8197 203.959 32.4697Z" fill="#BD8242"/>
</g>
<g style="mix-blend-mode:multiply" opacity="0.5">
<path d="M188.659 93.0098C188.659 93.0098 191.759 100.11 191.129 103.06C190.499 106.01 176.599 107.29 174.959 105.91C173.319 104.53 173.959 95.5698 173.959 95.5698C173.959 95.5698 174.229 102.06 176.489 103.46C178.749 104.86 187.699 102.76 188.629 101.05C189.559 99.3397 188.659 93.0098 188.659 93.0098Z" fill="#E6966E"/>
</g>
<path d="M157.129 79.3499C169.279 76.8799 170.229 87.0099 170.229 87.0099C170.229 87.0099 165.699 81.6899 157.269 83.6899C152.119 84.9199 149.139 90.4399 149.139 90.4399C149.139 90.4399 147.979 81.2099 157.129 79.3499Z" fill="#E6966E"/>
<path d="M157.64 81.9698C168.07 79.3298 170.23 86.9698 170.23 86.9698C170.23 86.9698 164.981 81.7098 157.761 84.1698C151.161 86.3998 149.16 90.4198 149.16 90.4198C149.16 90.4198 148.69 84.2398 157.64 81.9698Z" fill="#412118"/>
<path d="M201.019 72.3501C189.389 73.6301 191.229 83.8501 191.229 83.8501C191.229 83.8501 193.709 77.3301 202.309 76.4101C207.579 75.8401 212.24 80.0101 212.24 80.0101C212.24 80.0101 211.099 71.2401 201.019 72.3501Z" fill="#E6966E"/>
<path d="M201.429 75.0499C190.819 76.5999 191.229 83.8499 191.229 83.8499C192.332 81.9119 193.895 80.2752 195.78 79.0841C197.666 77.893 199.815 77.1841 202.039 77.0199C208.979 76.4499 212.249 80.0199 212.249 80.0199C212.249 80.0199 210.739 73.6899 201.429 75.0499Z" fill="#412118"/>
<path d="M146.86 68.5399C150.96 67.2799 169.06 62.3899 170.11 63.3199C171.16 64.2499 171.22 68.8099 169.42 69.0099C161.49 69.8999 152.67 72.0099 146.91 73.0099C144.68 73.4199 141.24 76.0099 141.24 76.0099C141.24 76.0099 142.77 69.7999 146.86 68.5399Z" fill="#8B5E3C"/>
<path d="M204.96 57.74C200.68 58.04 183.31 60.2 182.66 61.45C182.01 62.7 183.66 66.75 185.47 66.29C192.4 64.48 201.11 63.77 206.79 62.59C209.052 62.2022 211.355 62.1114 213.64 62.32C213.64 62.32 209.27 57.45 204.96 57.74Z" fill="#8B5E3C"/>
<g style="mix-blend-mode:screen" opacity="0.3">
<path d="M216.49 78.5197C215.9 71.4697 209.16 68.3497 200.8 69.8597C192.44 71.3697 186.32 76.1398 187.63 83.0798C188.94 90.0198 197.31 96.3897 205.63 93.9097C213.95 91.4297 217.05 85.0197 216.49 78.5197Z" fill="#E6E7E8"/>
</g>
<g style="mix-blend-mode:screen" opacity="0.3">
<path d="M193.05 85.2801C191.74 78.3401 197.88 73.5801 206.23 72.0601C208.457 71.6413 210.74 71.6041 212.98 71.9501C210.11 69.7401 205.76 68.9502 200.8 69.8602C192.45 71.3802 186.32 76.1402 187.63 83.0802C188.63 88.2602 193.52 93.0801 199.41 94.2101C197.814 93.214 196.43 91.9123 195.339 90.3798C194.247 88.8473 193.469 87.1142 193.05 85.2801Z" fill="#E6E7E8"/>
</g>
<g style="mix-blend-mode:screen" opacity="0.3">
<path d="M174.269 85.2899C172.959 78.3499 165.489 76.0499 157.139 77.5699C148.789 79.0899 143.629 84.3599 145.639 91.1499C147.499 97.4099 152.749 102.32 161.389 101.72C170.029 101.12 175.529 92.2399 174.269 85.2899Z" fill="#E6E7E8"/>
</g>
<g style="mix-blend-mode:screen" opacity="0.3">
<path d="M151.45 93.6899C149.45 86.8999 154.59 81.6199 162.95 80.1099C165.621 79.5917 168.362 79.5443 171.049 79.9699C167.829 77.3099 162.689 76.5699 157.049 77.5899C148.699 79.0999 143.539 84.3799 145.549 91.1699C146.236 93.7498 147.64 96.0824 149.597 97.8981C151.555 99.7138 153.985 100.938 156.61 101.43C154.107 99.4672 152.299 96.7548 151.45 93.6899Z" fill="#E6E7E8"/>
</g>
<path d="M211.52 69.3299C203.04 67.0799 194.949 68.4299 187.169 74.6499C186.774 74.9595 186.322 75.1871 185.837 75.3193C185.353 75.4515 184.847 75.4857 184.35 75.4199C181.08 74.9045 177.732 75.4661 174.81 77.0199C174.342 77.2936 173.823 77.4694 173.285 77.5364C172.747 77.6034 172.201 77.5604 171.68 77.4099C162.2 74.4099 154.089 75.9199 147.029 80.9699C144.741 83.2722 141.797 84.8093 138.6 85.3698L139.339 88.6999C141.989 88.6999 143.58 90.0398 144.2 93.1798C144.602 93.303 145.028 93.3282 145.442 93.2534C145.856 93.1786 146.246 93.006 146.58 92.7499C144.99 85.5099 148.11 80.4999 157.24 78.3599C165.83 76.4899 171.46 78.7099 173.89 85.3599C174.82 86.0499 176.1 86.0999 176.62 85.0099C176.784 84.7552 176.883 84.464 176.908 84.162C176.934 83.86 176.884 83.5565 176.765 83.278C176.645 82.9995 176.459 82.7546 176.223 82.5649C175.986 82.3751 175.707 82.2463 175.41 82.1899C174.91 80.5199 175.719 79.3998 177.209 78.7398C178.876 77.9978 180.701 77.685 182.52 77.8299C184.16 77.9299 185.319 78.6799 185.459 80.4199C185.202 80.5796 184.988 80.8003 184.837 81.0626C184.685 81.3248 184.601 81.6204 184.591 81.9231C184.581 82.2258 184.646 82.5263 184.78 82.7978C184.914 83.0694 185.113 83.3037 185.359 83.4799C186.249 84.3099 187.42 83.8198 188.04 82.8398C187.89 75.8398 192.33 71.7498 201.04 70.4798C210.35 69.2798 215.1 72.8598 216.26 80.1798C216.66 80.303 217.085 80.3282 217.497 80.2534C217.909 80.1785 218.298 80.0059 218.629 79.7499C218.059 76.5999 219.059 74.7499 221.529 73.8599L221.01 70.4899C217.803 71.0918 214.487 70.6866 211.52 69.3299Z" fill="#3F2216"/>
<path d="M174.011 84.9401C174.651 94.9401 168.511 99.8601 163.061 101.08C159.71 101.834 156.201 101.387 153.147 99.8166C150.093 98.2466 147.687 95.6534 146.351 92.4901L145.57 92.7801C147.045 96.2569 149.742 99.0739 153.15 100.7C156.102 102.074 159.407 102.5 162.61 101.92L163.241 101.79C166.636 101.051 169.659 99.1301 171.771 96.3701C174.146 93.032 175.236 88.9482 174.84 84.8701L174.011 84.9401Z" fill="#3F2216"/>
<path d="M216.449 79.98C216.352 83.3986 215.044 86.6717 212.758 89.2157C210.473 91.7597 207.358 93.4092 203.969 93.87C198.439 94.64 190.898 92.16 187.858 82.63L187.059 82.85C188.186 86.8136 190.694 90.2434 194.128 92.52C197.098 94.35 200.615 95.0824 204.068 94.59L204.699 94.49C207.892 93.9151 210.826 92.3556 213.088 90.03C215.675 87.3303 217.168 83.7671 217.278 80.03L216.449 79.98Z" fill="#3F2216"/>
<path d="M141.7 86.2197L140.23 86.4797C140.149 86.5014 140.063 86.4904 139.99 86.4493C139.917 86.4082 139.863 86.3401 139.84 86.2597C139.831 86.1764 139.856 86.093 139.908 86.0275C139.961 85.9621 140.037 85.9198 140.12 85.9097L141.59 85.6397C141.67 85.6214 141.755 85.6352 141.826 85.6781C141.897 85.721 141.949 85.7897 141.97 85.8697C141.979 85.9516 141.955 86.0337 141.905 86.0989C141.855 86.164 141.781 86.2073 141.7 86.2197Z" fill="#B3B3B3"/>
<path d="M219.98 71.9501L218.5 72.2201C218.419 72.2384 218.334 72.2247 218.264 72.1818C218.193 72.1389 218.141 72.0702 218.12 71.9901C218.114 71.9499 218.117 71.909 218.128 71.8698C218.139 71.8307 218.157 71.7941 218.182 71.7623C218.207 71.7305 218.239 71.7042 218.274 71.6849C218.31 71.6656 218.35 71.6538 218.39 71.6501L219.87 71.3801C219.91 71.3697 219.952 71.3674 219.993 71.3734C220.034 71.3793 220.073 71.3935 220.108 71.4149C220.144 71.4364 220.175 71.4647 220.199 71.4982C220.223 71.5317 220.241 71.5698 220.25 71.6101C220.258 71.6908 220.235 71.7717 220.184 71.8353C220.134 71.8988 220.06 71.9401 219.98 71.9501Z" fill="#B3B3B3"/>
<path d="M137.339 167.92C137.629 165.78 142.339 165.71 152.879 157.82C150.812 165.126 150.698 172.846 152.549 180.21C160.169 210.5 135.33 310.47 135.33 310.47L131.77 329.69L135.029 213.35L144.479 198.25L134.779 194.25C134.779 194.25 136.669 172.76 137.339 167.92Z" fill="#A67255"/>
<path d="M192.41 123.01C191.54 126.57 188.58 128.9 185.79 128.21C183 127.52 181.45 124.1 182.32 120.54C183.19 116.98 186.15 114.65 188.94 115.34C191.73 116.03 193.27 119.45 192.41 123.01Z" fill="#A63F42"/>
<g style="mix-blend-mode:screen" opacity="0.5">
<path d="M183.639 124.69C183.507 125.324 183.454 125.973 183.479 126.62C184.042 127.411 184.856 127.989 185.789 128.26C188.579 128.95 191.539 126.62 192.409 123.06C192.545 122.426 192.599 121.778 192.568 121.13C192.007 120.334 191.193 119.753 190.259 119.48C187.469 118.75 184.509 121.08 183.639 124.69Z" fill="#A63F42"/>
</g>
<path d="M367.27 240.69C367.77 228.81 369.51 217.02 372.76 213C376.48 208.38 383.909 190.46 383.399 185.93C383.139 183.69 384.139 181.62 381.819 179.27C380.819 178.27 377.72 178.52 377.72 178.52C377.72 178.52 378.79 175.29 377.24 172.92C376.59 171.92 374.939 171.41 373.399 170.81C373.399 170.81 374 165.93 370.12 163.81C368.82 163.1 365.96 163.47 364.49 164.51C364.98 161.44 368.389 144.51 367.839 141.35C367.289 137.96 365.839 135.72 363.549 137.68C361.259 139.64 357.769 157.37 356.939 160.21C356.039 163.3 354.82 166.59 353.7 169.35C351.57 174.6 346.3 184.79 346.01 185.78C343.09 195.83 344.5 203.6 347.08 208.46C348.95 211.99 342.93 230.57 342.93 230.57C342.93 230.57 367.05 245.99 367.27 240.69Z" fill="#E6966E"/>
<g style="mix-blend-mode:multiply" opacity="0.3">
<path d="M347.089 183.42C348.649 180.42 351.569 174.59 353.699 169.34C354.819 166.58 361.389 158.76 364.489 164.5C364.855 166.456 364.855 168.464 364.489 170.42C363.889 173.54 360.719 177.58 362.699 180.62C366.319 186.18 373.359 170.81 373.359 170.81C374.089 174.87 362.409 183.81 366.359 187.15C370.309 190.49 376.299 182.82 377.639 178.52C375.839 185.75 372.059 189.37 373.389 191.41C377.709 198.04 383.249 186.05 383.249 186.05C383.329 194.1 375.249 202.05 365.499 196.56C362.805 195.161 360.471 193.159 358.679 190.71C356.729 188.22 357.389 184.84 358.579 182.25C363.249 172.09 362.649 166.43 360.079 165.25C358.379 164.45 355.938 168.03 354.278 172.25C352.558 176.8 346.749 184.08 347.089 183.42Z" fill="#E6966E"/>
</g>
<path d="M340.869 216.61L344.569 208.45L375.899 216.33L372.189 230.56L340.869 216.61Z" fill="#D1D3D4"/>
<path d="M312.91 277.14C322.61 255.02 340.76 214.34 340.76 214.34C350.76 211.09 375.899 233.69 375.899 233.69C375.899 233.69 364.29 297.3 356.1 315.98C349.88 330.18 326.27 341.71 318.1 337.42C307.51 331.89 298.92 309.04 312.91 277.14Z" fill="#8C6048"/>
<path d="M356.101 315.98C358.129 310.972 359.833 305.838 361.201 300.61C355.201 294.07 344.2 293.94 332.9 307.75C323.13 319.68 318.031 329.26 316.391 336.35C316.924 336.746 317.485 337.104 318.07 337.42C326.27 341.69 349.881 330.18 356.101 315.98Z" fill="#664634"/>
<g style="mix-blend-mode:multiply" opacity="0.2">
<path d="M367.88 227.07C363.75 247.12 357.68 274.07 352.82 285.12C346.6 299.32 322.99 310.85 314.82 306.56C311.77 304.96 308.9 301.87 306.67 297.56C303.05 318.56 309.97 333.16 318.1 337.42C326.23 341.68 349.91 330.18 356.1 315.98C364.29 297.3 375.9 233.69 375.9 233.69C375.9 233.69 372.57 230.69 367.88 227.07Z" fill="#8C6048"/>
</g>
</svg>
