<svg width="410" height="375" viewBox="0 0 410 375" fill="none" xmlns="http://www.w3.org/2000/svg">
<path d="M163.1 454.182C163.403 453.768 163.738 453.377 164.1 453.012C169.68 447.362 178.92 448.012 185.93 445.882C210.29 438.552 233.93 421.112 246.81 397.592C254.24 384.052 258.18 368.332 259.5 352.732C267.5 258.812 333.5 205.222 406.99 226.792C481.9 248.792 461.81 459.462 359.16 481.882C321.57 490.092 282.87 493.742 244.59 490.662C219.59 488.662 190.81 484.932 169.59 469.312C164.84 465.852 159.18 459.672 163.1 454.182Z" fill="#4EBCCE"/>
<path d="M163.26 284.592C163.26 284.592 166.1 288.432 166.08 296.392C166.08 302.182 164.49 307.782 163.16 308.292C156.357 309.682 149.403 310.189 142.47 309.802C130.38 309.232 130.34 308.642 126.69 309.932C123.04 311.222 120.46 317.072 116.16 318.452C108.09 321.052 98.2998 313.012 98.2998 313.012C98.2998 313.012 107.64 301.462 120.3 294.292C132.96 287.122 163.26 284.592 163.26 284.592Z" fill="#EF8D72"/>
<path d="M227.31 261.072C225.24 272.422 224.24 280.242 224.24 280.242L161.79 284.592C149.28 297.592 160.9 308.662 160.9 308.662C160.9 308.662 236.58 318.712 250.9 311.422C255.33 309.172 259.81 292.072 264.03 269.952L227.31 261.072Z" fill="#EF8D72"/>
<path d="M270.57 231.402C276.49 193.402 261.57 178.262 261.57 178.262C243.31 187.132 232.26 234.072 227.33 261.072L264.06 269.952C266.31 258.052 268.46 244.672 270.57 231.402Z" fill="#BA2F24"/>
<path d="M265.16 277.602C265.16 277.602 268.74 279.893 270.31 273.293C271.88 266.693 275.5 256.063 270.89 255.153C270.89 255.153 242.61 254.233 227.89 249.043C227.89 249.043 225.43 248.203 224.89 252.513C224.35 256.823 220.18 268.143 225.99 269.663C225.97 269.673 252.4 276.672 265.16 277.602Z" fill="#E24F4B"/>
<path d="M310.57 0.742773C310.57 0.742773 387.07 -10.7572 383.07 56.7428C379.07 124.243 396.24 190.583 394.66 238.583C394.66 238.583 337.75 258.583 266.41 238.583C266.41 238.583 268.82 145.513 260.28 81.2928C251.07 11.9928 275.23 -1.75723 310.57 0.742773Z" fill="url(#paint0_linear_1253_10570)"/>
<path d="M343.25 171.672C343.25 171.672 325.09 167.622 315.09 167.512C305.09 167.402 289.81 171.082 289.81 171.082C270.81 174.082 261.55 178.242 261.55 178.242L257.55 205.822C241.87 225.892 241.01 232.512 241.01 241.392C241.01 256.762 254.61 268.182 254.61 268.182L266.53 328.542C318.67 348.812 354.08 329.702 354.08 329.702C359.87 290.312 375.08 239.812 375.08 239.812V181.272C367.07 177.672 351.38 174.042 343.25 171.672Z" fill="#CE3B28"/>
<path opacity="0.2" d="M293.81 204.944L308.97 190.784L316.91 208.284C316.91 208.284 341.33 194.024 343.15 171.684C342.06 171.444 324.75 167.634 315.07 167.534C305.07 167.424 289.8 171.103 289.8 171.103L289.24 171.254C288.57 177.774 288.05 191.834 293.81 204.944Z" fill="black"/>
<path d="M301.7 159.523L301.6 184.273L331.89 184.393L332.01 152.193C323.068 158.091 312.348 160.684 301.7 159.523Z" fill="#FAA284"/>
<path d="M332.01 152.193L332.11 127.393L301.83 127.273L301.7 159.523C312.349 160.684 323.069 158.091 332.01 152.193Z" fill="#EF8D72"/>
<path d="M301.7 159.523C301.7 159.523 301.07 175.093 311.03 180.833C311.03 180.833 330.58 175.493 331.98 159.523L343.2 171.693C343.2 171.693 336.1 192.533 317.85 201.033L310.4 184.333L295.06 199.503C295.06 199.503 288.83 181.793 289.87 170.163L301.7 159.523Z" fill="#CE3B28"/>
<path opacity="0.1" d="M245.91 250.933C245.91 250.933 249.91 254.283 258.47 255.033C275.85 256.533 304.35 259.653 329.47 255.613C340.01 253.923 347.76 248.613 355.7 242.373C355.7 242.373 350.97 269.373 317.94 268.843C284.91 268.313 247.98 272.363 245.91 250.933Z" fill="black"/>
<path d="M354.13 329.732C354.13 329.732 387.04 396.462 376.95 427.852C366.86 459.242 351.78 474.242 189.15 462.242C189.15 462.242 135.8 450.242 156.92 396.242C156.92 396.242 156.53 382.742 257.53 370.102L266.53 328.582L354.13 329.732Z" fill="#353B42"/>
<path d="M233.14 287.562C233.14 287.562 235.85 291.212 235.8 298.652C235.8 304.442 233.36 309.712 231.99 310.102C225.012 311.176 217.915 311.234 210.92 310.272C198.92 308.692 199.58 306.922 195.84 307.912C192.1 308.902 187.22 312.632 182.84 313.662C174.59 315.572 165.5 306.752 165.5 306.752C165.5 306.752 175.77 296.012 188.94 289.922C202.11 283.832 233.14 287.562 233.14 287.562Z" fill="#FAA284"/>
<path d="M323.83 278.912L231.57 287.392C218.02 299.462 229.57 310.452 229.57 310.452C229.57 310.452 323.78 325.992 348.26 313.932C358.66 308.812 363.59 294.212 370.45 273.932L332.3 258.762C327.19 270.552 323.83 278.912 323.83 278.912Z" fill="#FAA284"/>
<path d="M375.07 181.293C346.74 186.293 343.99 231.503 332.28 258.723L370.43 273.893C373.43 264.893 376.89 254.763 381.33 243.833C401.57 194.013 375.07 181.293 375.07 181.293Z" fill="#DB3A2E"/>
<path d="M365.12 285.402C365.12 285.402 368.23 288.312 370.97 282.102C373.71 275.892 379.2 266.102 374.84 264.372C374.84 264.372 347.19 258.372 333.62 250.542C333.62 250.542 331.35 249.262 330.06 253.412C328.77 257.562 322.59 267.922 328.06 270.472C328.03 270.472 352.75 282.142 365.12 285.402Z" fill="#E24F4B"/>
<path d="M352.581 76.0117C352.581 76.0117 366.58 77.5817 367.74 84.2417C368.9 90.9017 365.53 117.242 370.97 165.242C370.97 165.242 358.401 122.522 359.071 97.7217C359.071 97.7217 352.131 84.3717 352.581 76.0117Z" fill="#511E17"/>
<path d="M380.08 31.7527C376.422 21.2521 368.797 12.6012 358.84 7.65259C350.71 20.3926 330.93 32.3025 307.49 28.5825C286.68 25.2825 282.23 12.8027 281.73 4.22266C273.78 7.61266 267.48 13.5827 263.42 23.2227C300.77 53.6727 352.17 41.8327 380.08 31.7527Z" fill="#994A3D"/>
<path d="M259.389 73.812C259.389 73.812 261.46 131.542 262.74 160.582C264.07 190.992 262.55 225.582 253.31 238.242C253.31 238.242 283.74 244.242 287.07 222.912C290.4 201.582 283.93 99.5621 277.75 72.9121L259.389 73.812Z" fill="#7C3425"/>
<path d="M359.91 82.332L359.11 82.6021C359.11 82.6021 353.54 86.2422 352.58 76.0122C325.5 63.3922 307.49 28.582 307.49 28.582C275.23 32.912 267.29 56.5821 266.41 76.4521C267.89 83.8821 269.72 95.7622 269.15 106.012C267.72 131.572 289.28 148.222 308.43 148.192C345.22 148.192 354.57 115.492 354.57 115.492C354.57 115.492 371.68 118.412 373.89 95.4321C375.7 76.6721 359.91 82.332 359.91 82.332Z" fill="#FAA284"/>
<g opacity="0.9">
<path opacity="0.09" d="M286.24 94.0523C289.266 94.6244 292.054 96.0813 294.253 98.2383C296.451 100.395 297.96 103.156 298.589 106.17C299.218 109.185 298.939 112.319 297.787 115.175C296.635 118.031 294.662 120.482 292.117 122.217C289.573 123.951 286.571 124.892 283.491 124.921C280.411 124.949 277.393 124.064 274.816 122.376C272.24 120.689 270.222 118.275 269.017 115.441C267.813 112.606 267.476 109.478 268.05 106.452C268.818 102.396 271.166 98.8117 274.577 96.4864C277.988 94.1611 282.183 93.2854 286.24 94.0523Z" fill="#EA7460"/>
<path opacity="0.18" d="M285.959 95.5328C288.695 96.0486 291.216 97.3642 293.203 99.3131C295.191 101.262 296.555 103.757 297.125 106.482C297.694 109.206 297.442 112.039 296.401 114.62C295.36 117.202 293.577 119.417 291.277 120.985C288.977 122.553 286.264 123.403 283.48 123.428C280.697 123.454 277.968 122.653 275.64 121.127C273.312 119.601 271.489 117.419 270.401 114.857C269.313 112.295 269.01 109.467 269.53 106.733C270.225 103.07 272.347 99.8332 275.427 97.7333C278.508 95.6333 282.296 94.8419 285.959 95.5328Z" fill="#EA7460"/>
<path opacity="0.27" d="M285.69 97.0033C288.13 97.4679 290.377 98.6453 292.148 100.387C293.918 102.128 295.133 104.356 295.638 106.788C296.143 109.219 295.916 111.746 294.985 114.049C294.054 116.352 292.461 118.327 290.408 119.724C288.355 121.122 285.934 121.879 283.45 121.901C280.967 121.923 278.532 121.208 276.455 119.846C274.378 118.485 272.751 116.538 271.78 114.252C270.809 111.966 270.537 109.444 271 107.003C271.623 103.73 273.52 100.837 276.275 98.9623C279.029 97.0871 282.416 96.3825 285.69 97.0033Z" fill="#EA7460"/>
<path opacity="0.36" d="M285.46 98.4732C287.611 98.8811 289.592 99.9175 291.154 101.451C292.716 102.985 293.788 104.948 294.234 107.091C294.681 109.234 294.482 111.462 293.663 113.492C292.844 115.522 291.441 117.264 289.632 118.497C287.823 119.73 285.689 120.398 283.5 120.419C281.311 120.439 279.165 119.81 277.334 118.611C275.502 117.412 274.067 115.696 273.21 113.682C272.353 111.667 272.113 109.444 272.52 107.293C272.79 105.864 273.339 104.502 274.136 103.286C274.932 102.069 275.961 101.021 277.162 100.202C278.364 99.3829 279.715 98.8087 281.139 98.512C282.563 98.2154 284.031 98.2022 285.46 98.4732Z" fill="#EA7460"/>
<path opacity="0.45" d="M285.129 99.9534C286.989 100.305 288.703 101.2 290.054 102.526C291.405 103.852 292.333 105.549 292.719 107.402C293.106 109.255 292.935 111.181 292.227 112.937C291.518 114.692 290.305 116.199 288.741 117.265C287.177 118.331 285.332 118.909 283.439 118.926C281.546 118.944 279.69 118.399 278.107 117.362C276.523 116.324 275.283 114.841 274.543 113.098C273.803 111.356 273.596 109.433 273.949 107.573C274.182 106.338 274.656 105.162 275.344 104.11C276.032 103.059 276.921 102.153 277.959 101.446C278.998 100.738 280.165 100.242 281.395 99.9857C282.626 99.7296 283.894 99.7187 285.129 99.9534Z" fill="#EA7460"/>
<path opacity="0.55" d="M284.85 101.422C286.418 101.719 287.863 102.474 289.002 103.592C290.141 104.71 290.923 106.14 291.249 107.703C291.575 109.265 291.431 110.889 290.834 112.369C290.237 113.85 289.214 115.119 287.896 116.019C286.577 116.918 285.021 117.406 283.425 117.421C281.829 117.436 280.265 116.977 278.93 116.103C277.594 115.229 276.548 113.979 275.923 112.51C275.298 111.041 275.123 109.42 275.42 107.852C275.617 106.81 276.017 105.818 276.597 104.931C277.178 104.044 277.927 103.281 278.803 102.684C279.679 102.087 280.663 101.668 281.701 101.451C282.738 101.235 283.808 101.225 284.85 101.422Z" fill="#EA7460"/>
<path opacity="0.64" d="M284.57 102.893C285.846 103.135 287.022 103.75 287.949 104.661C288.876 105.572 289.512 106.737 289.777 108.009C290.041 109.281 289.923 110.603 289.436 111.808C288.95 113.013 288.116 114.046 287.042 114.778C285.968 115.509 284.702 115.906 283.402 115.917C282.103 115.928 280.829 115.554 279.743 114.842C278.656 114.13 277.805 113.111 277.297 111.915C276.789 110.719 276.647 109.399 276.89 108.123C277.05 107.275 277.377 106.467 277.85 105.746C278.323 105.024 278.933 104.403 279.646 103.917C280.36 103.431 281.162 103.091 282.006 102.915C282.851 102.739 283.722 102.732 284.57 102.893Z" fill="#EA7460"/>
<path opacity="0.73" d="M284.289 104.363C285.275 104.552 286.183 105.029 286.897 105.735C287.611 106.44 288.099 107.342 288.301 108.325C288.502 109.308 288.407 110.329 288.027 111.259C287.648 112.188 287.001 112.984 286.169 113.545C285.337 114.106 284.357 114.408 283.353 114.412C282.349 114.415 281.367 114.121 280.53 113.566C279.694 113.011 279.041 112.221 278.655 111.294C278.268 110.368 278.165 109.347 278.359 108.363C278.62 107.049 279.39 105.891 280.501 105.142C281.612 104.393 282.973 104.113 284.289 104.363Z" fill="#EA7460"/>
<path opacity="0.82" d="M284.01 105.843C284.704 105.974 285.343 106.308 285.847 106.803C286.351 107.298 286.697 107.931 286.841 108.622C286.986 109.314 286.921 110.032 286.657 110.687C286.393 111.342 285.94 111.904 285.356 112.302C284.772 112.699 284.084 112.915 283.377 112.921C282.671 112.927 281.979 112.724 281.388 112.336C280.798 111.949 280.335 111.395 280.06 110.745C279.784 110.094 279.707 109.377 279.839 108.683C279.926 108.222 280.102 107.783 280.359 107.391C280.615 106.999 280.947 106.661 281.335 106.397C281.722 106.133 282.158 105.948 282.617 105.853C283.076 105.758 283.549 105.755 284.01 105.843Z" fill="#EA7460"/>
<path opacity="0.91" d="M283.729 107.313C284.131 107.39 284.502 107.584 284.794 107.87C285.086 108.157 285.286 108.524 285.37 108.925C285.453 109.326 285.416 109.742 285.263 110.122C285.11 110.501 284.848 110.827 284.51 111.057C284.171 111.288 283.772 111.413 283.363 111.417C282.954 111.421 282.552 111.303 282.21 111.079C281.867 110.855 281.599 110.535 281.439 110.158C281.278 109.781 281.233 109.366 281.309 108.963C281.359 108.696 281.46 108.44 281.609 108.212C281.757 107.983 281.95 107.787 282.175 107.633C282.4 107.48 282.653 107.373 282.92 107.318C283.187 107.263 283.462 107.261 283.729 107.313Z" fill="#EA7460"/>
<path opacity="0.9" d="M283.909 109.452C283.895 109.526 283.867 109.597 283.826 109.66C283.785 109.724 283.732 109.778 283.669 109.821C283.607 109.864 283.537 109.894 283.463 109.909C283.39 109.925 283.313 109.926 283.239 109.912C283.165 109.898 283.094 109.87 283.031 109.829C282.968 109.788 282.913 109.735 282.87 109.672C282.828 109.61 282.798 109.54 282.782 109.466C282.766 109.393 282.765 109.316 282.779 109.242C282.808 109.093 282.895 108.961 283.02 108.875C283.146 108.789 283.3 108.756 283.449 108.782C283.598 108.811 283.73 108.898 283.816 109.023C283.902 109.149 283.936 109.303 283.909 109.452Z" fill="#EA7460"/>
</g>
<g opacity="0.9">
<path opacity="0.09" d="M335.62 92.9413C338.86 93.5545 341.845 95.1146 344.197 97.4242C346.55 99.7338 348.165 102.689 348.838 105.917C349.512 109.144 349.213 112.499 347.979 115.556C346.746 118.614 344.634 121.237 341.91 123.094C339.185 124.951 335.972 125.959 332.675 125.99C329.378 126.02 326.146 125.073 323.388 123.267C320.63 121.461 318.469 118.877 317.179 115.843C315.889 112.809 315.527 109.461 316.14 106.221C316.547 104.07 317.374 102.02 318.573 100.189C319.773 98.3573 321.321 96.7797 323.13 95.5465C324.939 94.3133 326.973 93.4486 329.116 93.0016C331.259 92.5546 333.469 92.5341 335.62 92.9413Z" fill="#EA7460"/>
<path opacity="0.18" d="M335.32 94.5224C338.246 95.0783 340.941 96.489 343.064 98.5763C345.188 100.664 346.646 103.334 347.252 106.249C347.859 109.165 347.588 112.194 346.473 114.956C345.358 117.717 343.45 120.086 340.989 121.763C338.528 123.44 335.625 124.349 332.647 124.377C329.67 124.404 326.751 123.549 324.259 121.917C321.768 120.286 319.816 117.953 318.65 115.213C317.484 112.473 317.157 109.449 317.71 106.522C318.076 104.577 318.822 102.723 319.906 101.066C320.99 99.4098 322.39 97.9835 324.025 96.8688C325.661 95.7541 327.501 94.9731 329.439 94.5705C331.377 94.1678 333.376 94.1515 335.32 94.5224Z" fill="#EA7460"/>
<path opacity="0.27" d="M335.02 96.0922C337.635 96.5872 340.045 97.8466 341.945 99.7111C343.844 101.576 345.149 103.961 345.693 106.567C346.236 109.173 345.996 111.881 345 114.35C344.005 116.818 342.3 118.937 340.102 120.437C337.903 121.937 335.308 122.751 332.647 122.777C329.985 122.802 327.375 122.039 325.148 120.581C322.92 119.124 321.175 117.039 320.132 114.59C319.09 112.141 318.797 109.438 319.29 106.822C319.618 105.085 320.285 103.429 321.253 101.949C322.221 100.469 323.471 99.1946 324.932 98.1981C326.392 97.2017 328.035 96.5028 329.766 96.1415C331.497 95.7802 333.283 95.7633 335.02 96.0922Z" fill="#EA7460"/>
<path opacity="0.36" d="M334.72 97.6724C337.022 98.1088 339.144 99.2182 340.816 100.86C342.488 102.502 343.636 104.603 344.114 106.897C344.592 109.192 344.379 111.576 343.502 113.749C342.625 115.923 341.124 117.787 339.187 119.107C337.251 120.427 334.966 121.143 332.623 121.165C330.279 121.186 327.982 120.513 326.021 119.229C324.061 117.945 322.525 116.109 321.608 113.952C320.691 111.795 320.434 109.415 320.87 107.112C321.456 104.025 323.245 101.297 325.842 99.5267C328.438 97.7567 331.632 97.0898 334.72 97.6724Z" fill="#EA7460"/>
<path opacity="0.45" d="M334.46 99.2515C336.45 99.6328 338.283 100.595 339.726 102.018C341.169 103.44 342.158 105.258 342.569 107.242C342.979 109.227 342.792 111.288 342.031 113.166C341.271 115.044 339.971 116.655 338.295 117.794C336.619 118.934 334.644 119.551 332.617 119.568C330.591 119.585 328.605 119.001 326.911 117.89C325.216 116.779 323.889 115.19 323.097 113.325C322.305 111.46 322.083 109.402 322.46 107.411C322.711 106.087 323.221 104.825 323.96 103.698C324.699 102.571 325.653 101.6 326.768 100.842C327.882 100.084 329.136 99.5538 330.456 99.2808C331.776 99.0078 333.136 98.9978 334.46 99.2515Z" fill="#EA7460"/>
<path opacity="0.55" d="M334.13 100.833C335.809 101.152 337.355 101.961 338.574 103.158C339.793 104.356 340.629 105.888 340.977 107.561C341.326 109.234 341.17 110.972 340.53 112.557C339.89 114.141 338.795 115.5 337.383 116.462C335.971 117.424 334.305 117.946 332.596 117.961C330.888 117.976 329.213 117.485 327.784 116.548C326.354 115.612 325.235 114.273 324.567 112.7C323.899 111.127 323.712 109.392 324.03 107.713C324.24 106.597 324.668 105.534 325.29 104.584C325.911 103.634 326.714 102.816 327.652 102.177C328.59 101.538 329.646 101.09 330.757 100.86C331.869 100.629 333.015 100.62 334.13 100.833Z" fill="#EA7460"/>
<path opacity="0.64" d="M333.831 102.412C335.186 102.677 336.432 103.338 337.413 104.311C338.394 105.283 339.065 106.524 339.342 107.877C339.619 109.23 339.49 110.635 338.97 111.915C338.451 113.194 337.564 114.292 336.422 115.069C335.281 115.846 333.934 116.267 332.553 116.281C331.172 116.295 329.818 115.899 328.661 115.145C327.504 114.39 326.596 113.311 326.052 112.041C325.507 110.772 325.35 109.37 325.6 108.012C325.768 107.101 326.115 106.233 326.621 105.458C327.127 104.682 327.781 104.015 328.546 103.494C329.312 102.973 330.173 102.609 331.08 102.424C331.987 102.238 332.922 102.234 333.831 102.412Z" fill="#EA7460"/>
<path opacity="0.73" d="M333.53 103.982C334.584 104.183 335.556 104.691 336.322 105.444C337.087 106.196 337.613 107.159 337.832 108.21C338.051 109.261 337.953 110.353 337.551 111.348C337.15 112.344 336.462 113.198 335.575 113.803C334.688 114.408 333.642 114.736 332.568 114.746C331.495 114.757 330.442 114.449 329.544 113.861C328.645 113.274 327.941 112.433 327.52 111.445C327.1 110.457 326.981 109.367 327.18 108.312C327.312 107.61 327.581 106.942 327.972 106.345C328.362 105.747 328.867 105.233 329.457 104.83C330.047 104.428 330.71 104.146 331.409 104.001C332.108 103.855 332.828 103.849 333.53 103.982Z" fill="#EA7460"/>
<path opacity="0.82" d="M333.23 105.562C333.975 105.702 334.662 106.059 335.203 106.59C335.745 107.12 336.117 107.799 336.272 108.54C336.427 109.282 336.359 110.053 336.076 110.756C335.793 111.459 335.308 112.063 334.682 112.49C334.056 112.917 333.317 113.148 332.56 113.156C331.802 113.163 331.059 112.945 330.425 112.53C329.791 112.115 329.295 111.521 328.998 110.823C328.702 110.126 328.619 109.356 328.761 108.612C328.853 108.118 329.042 107.647 329.317 107.226C329.592 106.805 329.947 106.442 330.362 106.159C330.778 105.875 331.245 105.677 331.737 105.574C332.229 105.472 332.737 105.468 333.23 105.562Z" fill="#EA7460"/>
<path opacity="0.91" d="M332.929 107.141C333.361 107.222 333.759 107.429 334.073 107.736C334.387 108.043 334.603 108.437 334.693 108.867C334.784 109.296 334.745 109.743 334.581 110.151C334.417 110.559 334.136 110.908 333.773 111.156C333.411 111.404 332.983 111.539 332.544 111.543C332.104 111.548 331.674 111.422 331.306 111.181C330.939 110.941 330.65 110.597 330.478 110.193C330.306 109.789 330.258 109.343 330.339 108.911C330.392 108.624 330.501 108.351 330.66 108.107C330.819 107.862 331.025 107.651 331.266 107.487C331.507 107.322 331.778 107.207 332.063 107.148C332.349 107.088 332.643 107.086 332.929 107.141Z" fill="#EA7460"/>
<path opacity="0.9" d="M333.12 109.433C333.106 109.513 333.076 109.589 333.032 109.657C332.988 109.725 332.93 109.784 332.863 109.829C332.796 109.875 332.721 109.907 332.641 109.923C332.562 109.939 332.48 109.939 332.4 109.923C332.283 109.899 332.174 109.841 332.089 109.757C332.004 109.672 331.946 109.564 331.922 109.446C331.898 109.328 331.91 109.206 331.955 109.095C332 108.983 332.078 108.888 332.177 108.82C332.276 108.753 332.393 108.716 332.513 108.715C332.634 108.714 332.752 108.748 332.852 108.813C332.953 108.878 333.032 108.972 333.08 109.083C333.128 109.193 333.142 109.315 333.12 109.433Z" fill="#EA7460"/>
</g>
<path d="M308.01 112.202C301.62 115.122 297.61 113.612 296.78 109.322C296.24 106.522 297.87 103.322 299.61 101.782C303.21 98.5922 304.81 89.2621 304.82 89.1621C305.1 91.1621 304.7 98.9621 300.32 104.362C299.877 104.856 299.539 105.436 299.33 106.065C299.12 106.695 299.041 107.361 299.1 108.022C299.33 111.212 302.4 113.702 308.01 112.202Z" fill="#DB7C65"/>
<path d="M284.86 83.8833C284.86 83.8833 279.26 84.0334 278.45 81.9434C278.369 82.3818 278.375 82.8322 278.47 83.2681C278.564 83.7039 278.745 84.1166 279.001 84.4817C279.257 84.8468 279.584 85.157 279.961 85.3943C280.339 85.6316 280.76 85.791 281.2 85.8633C280.048 87.4038 279.456 89.2909 279.52 91.2134C279.58 95.2134 282.07 98.4233 285.09 98.3733C288.11 98.3233 290.49 95.0435 290.43 91.0435C290.37 87.0435 287.87 83.8333 284.86 83.8833Z" fill="#502F26"/>
<path d="M326.86 83.2229C326.86 83.2229 321.251 83.383 320.441 81.293C320.359 81.7308 320.365 82.1805 320.46 82.6157C320.555 83.051 320.736 83.4628 320.992 83.8271C321.248 84.1915 321.575 84.5008 321.952 84.7371C322.33 84.9733 322.751 85.1318 323.191 85.2029C322.04 86.7441 321.448 88.6305 321.511 90.5527C321.581 94.5527 324.071 97.7629 327.081 97.7229C330.091 97.6829 332.481 94.3928 332.421 90.3828C332.361 86.3728 329.87 83.1729 326.86 83.2229Z" fill="#502F26"/>
<path d="M351.82 107.742C351.82 107.742 349.24 127.612 324.01 138.422C301.76 147.942 280.069 133.202 275.229 129.562C282.769 141.302 296.099 148.212 308.429 148.192C345.219 148.192 354.57 115.492 354.57 115.492C357.904 115.923 361.289 115.283 364.237 113.666C367.184 112.048 369.542 109.536 370.969 106.492C360.379 116.532 351.82 107.742 351.82 107.742Z" fill="#EF8D72"/>
<path d="M294.46 72.6727C294.46 72.6727 285.46 70.2326 273.11 73.8226C273.11 73.8226 273.04 72.9127 275.36 70.9327C277.68 68.9527 285.65 67.0527 292.62 69.9327C292.62 69.9027 296.24 71.8327 294.46 72.6727Z" fill="#7C3425"/>
<path d="M315.08 72.1425C315.08 72.1425 324.08 69.5325 336.44 72.9025C336.44 72.9025 336.5 71.9924 334.14 70.0524C331.93 68.2324 323.78 66.3624 316.87 69.3424C316.87 69.3424 313.28 71.3425 315.08 72.1425Z" fill="#7C3425"/>
<path d="M307.32 127.243C303.518 126.897 299.847 125.672 296.6 123.663C296.392 123.505 296.248 123.279 296.192 123.023C296.137 122.768 296.176 122.502 296.3 122.273C296.35 122.163 296.423 122.065 296.514 121.986C296.605 121.906 296.712 121.848 296.828 121.813C296.944 121.779 297.065 121.77 297.185 121.788C297.304 121.805 297.419 121.847 297.52 121.913C298.09 122.293 311.52 131.063 319.18 118.913C319.24 118.807 319.321 118.716 319.419 118.645C319.517 118.574 319.629 118.524 319.748 118.501C319.867 118.477 319.989 118.479 320.107 118.507C320.225 118.535 320.335 118.588 320.43 118.663C320.627 118.835 320.756 119.072 320.792 119.331C320.829 119.589 320.772 119.853 320.63 120.073C316.85 126.053 311.81 127.513 307.32 127.243Z" fill="#993434"/>
<path d="M307.46 28.582C275.2 32.912 267.26 56.5821 266.38 76.4521C266.38 76.4521 269.6 38.8521 302.31 32.4521C302.31 32.4521 312.72 63.312 352.55 76.052C325.46 63.392 307.46 28.582 307.46 28.582Z" fill="#EF8D72"/>
<g filter="url(#filter0_b_1253_10570)">
<path d="M281.41 108.273C290.926 108.273 298.64 100.559 298.64 91.0427C298.64 81.5269 290.926 73.8125 281.41 73.8125C271.894 73.8125 264.18 81.5269 264.18 91.0427C264.18 100.559 271.894 108.273 281.41 108.273Z" fill="url(#paint1_linear_1253_10570)"/>
</g>
<g filter="url(#filter1_b_1253_10570)">
<path d="M327.41 108.273C336.926 108.273 344.64 100.559 344.64 91.0427C344.64 81.5269 336.926 73.8125 327.41 73.8125C317.894 73.8125 310.18 81.5269 310.18 91.0427C310.18 100.559 317.894 108.273 327.41 108.273Z" fill="url(#paint2_linear_1253_10570)"/>
</g>
<path d="M281.46 109.203C277.868 109.203 274.357 108.138 271.371 106.142C268.384 104.147 266.057 101.311 264.682 97.9925C263.308 94.6742 262.948 91.0228 263.649 87.5001C264.349 83.9774 266.079 80.7417 268.619 78.202C271.158 75.6622 274.394 73.9325 277.917 73.2317C281.44 72.531 285.091 72.8907 288.409 74.2652C291.728 75.6397 294.564 77.9673 296.559 80.9537C298.555 83.9401 299.62 87.4513 299.62 91.043C299.612 95.8569 297.696 100.471 294.292 103.875C290.888 107.279 286.274 109.195 281.46 109.203ZM281.46 74.8829C278.264 74.8829 275.139 75.8306 272.482 77.6063C269.824 79.3819 267.753 81.9058 266.53 84.8587C265.307 87.8116 264.987 91.0609 265.61 94.1956C266.234 97.3304 267.773 100.21 270.033 102.47C272.293 104.73 275.172 106.269 278.307 106.892C281.442 107.516 284.691 107.196 287.644 105.973C290.597 104.75 293.121 102.678 294.896 100.021C296.672 97.3633 297.62 94.2392 297.62 91.043C297.614 86.7588 295.91 82.6513 292.881 79.6219C289.851 76.5924 285.744 74.8882 281.46 74.8829Z" fill="#CE3B28"/>
<path d="M327.46 109.203C323.868 109.203 320.357 108.138 317.371 106.142C314.384 104.147 312.057 101.311 310.682 97.9925C309.308 94.6742 308.948 91.0228 309.649 87.5001C310.349 83.9774 312.079 80.7417 314.619 78.202C317.158 75.6622 320.394 73.9325 323.917 73.2317C327.44 72.531 331.091 72.8907 334.409 74.2652C337.728 75.6397 340.564 77.9673 342.559 80.9537C344.555 83.9401 345.62 87.4513 345.62 91.043C345.612 95.8569 343.696 100.471 340.292 103.875C336.888 107.279 332.274 109.195 327.46 109.203ZM327.46 74.8829C324.264 74.8829 321.139 75.8306 318.482 77.6063C315.824 79.3819 313.753 81.9058 312.53 84.8587C311.307 87.8116 310.987 91.0609 311.61 94.1956C312.234 97.3304 313.773 100.21 316.033 102.47C318.293 104.73 321.172 106.269 324.307 106.892C327.442 107.516 330.691 107.196 333.644 105.973C336.597 104.75 339.121 102.678 340.896 100.021C342.672 97.3633 343.62 94.2392 343.62 91.043C343.614 86.7588 341.91 82.6513 338.881 79.6219C335.851 76.5924 331.744 74.8882 327.46 74.8829Z" fill="#CE3B28"/>
<path d="M309.85 90.1124C303.56 87.8824 299.02 90.0423 298.98 90.0623L298.09 88.2725C298.3 88.1625 303.39 85.7025 310.51 88.2725L309.85 90.1124Z" fill="#CE3B28"/>
<path d="M345.02 89.1916L343.84 87.5815C344.23 87.3015 356.32 77.7715 363.24 81.5815L361.14 81.9516C353.46 81.8416 345.11 89.1316 345.02 89.1916Z" fill="#CE3B28"/>
<path d="M47.98 321.903L31.3799 206.523H191.76L201.82 321.913L47.98 321.903Z" fill="url(#paint3_linear_1253_10570)"/>
<path d="M191.76 206.523H199.05L207.12 314.693L275.07 314.953V321.673L201.52 321.893L191.76 206.523Z" fill="#ACACB7"/>
<path d="M121.46 239.673C122.46 247.493 118.65 254.413 112.98 255.123C107.31 255.833 101.91 250.123 100.92 242.273C99.9295 234.423 103.73 227.543 109.4 226.823C115.07 226.103 120.46 231.853 121.46 239.673Z" fill="white"/>
<path d="M578.53 321.322H-189.851V342.922H578.53V321.322Z" fill="#A0A0A8"/>
<path d="M578.52 321.322H348.41V342.922H578.52V321.322Z" fill="#7A7A7F"/>
<path d="M365.97 673.442H377.38L318.94 342.922H296.78L365.97 673.442Z" fill="#A0A0A8"/>
<path d="M296.78 342.523L306.2 388.523H326.9L318.94 342.523H296.78Z" fill="#7A7A7F"/>
<path d="M22.7 673.442H11.29L69.73 342.922H91.8899L22.7 673.442Z" fill="#7A7A7F"/>
<path d="M69.7305 342.523L61.7705 388.523H82.4705L91.8904 342.523H69.7305Z" fill="#57575B"/>
<defs>
<filter id="filter0_b_1253_10570" x="262.18" y="71.8125" width="38.46" height="38.4609" filterUnits="userSpaceOnUse" color-interpolation-filters="sRGB">
<feFlood flood-opacity="0" result="BackgroundImageFix"/>
<feGaussianBlur in="BackgroundImage" stdDeviation="1"/>
<feComposite in2="SourceAlpha" operator="in" result="effect1_backgroundBlur_1253_10570"/>
<feBlend mode="normal" in="SourceGraphic" in2="effect1_backgroundBlur_1253_10570" result="shape"/>
</filter>
<filter id="filter1_b_1253_10570" x="308.18" y="71.8125" width="38.46" height="38.4609" filterUnits="userSpaceOnUse" color-interpolation-filters="sRGB">
<feFlood flood-opacity="0" result="BackgroundImageFix"/>
<feGaussianBlur in="BackgroundImage" stdDeviation="1"/>
<feComposite in2="SourceAlpha" operator="in" result="effect1_backgroundBlur_1253_10570"/>
<feBlend mode="normal" in="SourceGraphic" in2="effect1_backgroundBlur_1253_10570" result="shape"/>
</filter>
<linearGradient id="paint0_linear_1253_10570" x1="505388" y1="615254" x2="516027" y2="633736" gradientUnits="userSpaceOnUse">
<stop stop-color="#7C3425"/>
<stop offset="1" stop-color="#60261D"/>
</linearGradient>
<linearGradient id="paint1_linear_1253_10570" x1="-388870" y1="25823.5" x2="-388870" y2="19426.7" gradientUnits="userSpaceOnUse">
<stop stop-color="white" stop-opacity="0.8"/>
<stop offset="1" stop-color="white" stop-opacity="0.3"/>
</linearGradient>
<linearGradient id="paint2_linear_1253_10570" x1="-388824" y1="25823.5" x2="-388824" y2="19426.7" gradientUnits="userSpaceOnUse">
<stop stop-color="white" stop-opacity="0.8"/>
<stop offset="1" stop-color="white" stop-opacity="0.3"/>
</linearGradient>
<linearGradient id="paint3_linear_1253_10570" x1="116.6" y1="301.833" x2="116.6" y2="203.673" gradientUnits="userSpaceOnUse">
<stop stop-color="#C9C9D1"/>
<stop offset="1" stop-color="#9F9FA5"/>
</linearGradient>
</defs>
</svg>
