<svg width="244" height="423" viewBox="0 0 244 423" fill="none" xmlns="http://www.w3.org/2000/svg">
<path d="M101.96 176.783C112.25 180.843 109.56 235.183 103.79 276.273C91.7196 275.373 78.7895 272.023 69.6895 269.273C82.5895 190.393 101.96 176.783 101.96 176.783Z" fill="#BA2F24"/>
<path d="M65.3198 300.982C66.6498 289.382 68.1199 278.832 69.6899 269.242C78.7599 272.022 91.69 275.372 103.79 276.242C102.13 288.072 100.21 298.812 98.27 306.932C89.61 343.262 53.6802 407.052 53.6802 407.052C39.7702 410.382 33.3398 401.662 33.3398 401.662C45.7598 358.932 65.3198 300.982 65.3198 300.982Z" fill="url(#paint0_linear_1253_9807)"/>
<path d="M68.0698 283.542C68.0698 283.542 64.0699 284.212 65.1499 277.852C66.2299 271.492 67.0001 260.852 71.3701 261.762C71.3701 261.762 96.4698 271.432 111.32 272.362C111.32 272.362 113.79 272.532 112.64 276.502C111.49 280.472 110.97 291.932 105.32 291.112C105.32 291.112 79.5898 287.392 68.0698 283.542Z" fill="#D8453A"/>
<path d="M46.1704 394.032C38.0204 392.242 33.3403 401.692 33.3403 401.692C33.3403 401.692 26.7106 418.172 25.8506 424.422C24.9906 430.672 30.1007 444.232 33.4507 446.872C33.4507 446.872 40.0706 451.402 42.1606 453.222C42.1606 453.222 45.0103 454.522 46.0503 450.142C46.0503 450.142 49.9803 450.772 51.0503 447.502C53.5506 444.559 55.0836 440.917 55.4404 437.072C55.4404 437.072 53.7806 429.072 51.6406 425.812C51.6406 425.812 55.9606 414.212 53.6406 407.082C53.6806 407.082 54.3204 395.822 46.1704 394.032Z" fill="#FAA284"/>
<path d="M45.6803 407.683C45.6803 407.683 44.0299 419.112 42.0499 425.522C42.0499 425.522 47.77 433.993 44.42 437.673C40.6114 434.762 37.1338 431.442 34.0499 427.772C34.0499 427.772 37.8398 438.773 38.4898 440.473C39.1398 442.173 44.58 445.583 45.13 448.473C45.13 448.473 49.4303 446.953 49.7003 444.603C49.7003 444.603 53.5202 440.403 53.3902 437.463C52.6978 433.713 51.7418 430.017 50.5299 426.403C50.5299 426.403 56.2699 414.993 53.2599 407.203C53.0699 406.693 46.0303 408.013 45.6803 407.683Z" fill="#EF8D72"/>
<path d="M149.461 0.742773C149.461 0.742773 225.961 -10.7572 221.961 56.7428C217.961 124.243 235.131 190.573 233.541 238.573C233.541 238.573 176.641 258.573 105.301 238.573C105.301 238.573 107.711 145.513 99.1711 81.2826C89.9211 11.9926 114.081 -1.75723 149.461 0.742773Z" fill="url(#paint1_linear_1253_9807)"/>
<path d="M194.211 327.234C194.211 327.234 229.371 368.544 238.521 540.914C238.521 540.914 163.372 563.914 55.8516 540.914C55.8516 540.914 74.5216 363.634 106.912 325.664L194.211 327.234Z" fill="#353B42"/>
<path d="M183.371 169.212C183.371 169.212 165.371 165.151 155.371 165.041C145.371 164.931 130.181 168.612 130.181 168.612C114.841 172.702 101.951 176.781 101.951 176.781L98.9512 204.352C83.2712 224.422 83.4111 230.042 83.4111 238.922C83.4111 254.292 97.0308 263.712 97.0308 263.712L106.941 326.072C159.081 346.342 194.161 327.232 194.161 327.232C199.941 287.842 214.801 237.342 214.801 237.342V178.801C206.851 175.141 191.461 171.552 183.371 169.212Z" fill="#CE3B28"/>
<path opacity="0.2" d="M134.271 202.462L149.46 188.291L157.391 205.791C157.391 205.791 181.821 191.532 183.641 169.192C182.541 168.952 165.241 165.141 155.561 165.041C145.561 164.931 130.291 168.612 130.291 168.612L129.73 168.762C129.02 175.282 128.461 189.392 134.271 202.462Z" fill="black"/>
<path d="M142.161 157.033L142.061 181.783L172.341 181.903L172.471 149.703C163.529 155.601 152.81 158.193 142.161 157.033Z" fill="#FAA284"/>
<path d="M172.46 149.703L172.561 124.903L142.28 124.783L142.15 157.033C152.799 158.193 163.519 155.601 172.46 149.703Z" fill="#EF8D72"/>
<path d="M142.161 157.033C142.161 157.033 141.531 172.613 151.491 178.343C151.491 178.343 171.041 173.003 172.441 157.033L183.661 169.213C183.661 169.213 176.561 190.043 158.311 198.543L150.861 181.843L135.511 197.013C135.511 197.013 129.291 179.303 130.331 167.673L142.161 157.033Z" fill="#CE3B28"/>
<path opacity="0.1" d="M86.3715 244.443C86.3715 244.443 90.3215 247.802 98.9315 248.542C116.312 250.042 152.812 253.163 177.932 249.133C188.472 247.433 190.221 242.133 198.161 235.893C198.161 235.893 199.431 262.893 166.401 262.363C133.371 261.833 88.4615 265.873 86.3715 244.443Z" fill="black"/>
<path d="M191.461 76.0117C191.461 76.0117 205.461 77.5717 206.631 84.2417C207.801 90.9117 204.421 117.242 209.861 165.242C209.861 165.242 197.291 122.522 197.961 97.7117C197.921 97.7117 190.981 84.3917 191.461 76.0117Z" fill="#511E17"/>
<path d="M218.932 31.7527C215.277 21.2478 207.652 12.5927 197.691 7.64258C189.561 20.3926 169.781 32.2925 146.341 28.5725C125.531 25.2725 121.082 12.8027 120.582 4.22266C112.632 7.61266 106.331 13.5827 102.271 23.2227C139.621 53.6727 191.022 41.8227 218.932 31.7527Z" fill="#994A3D"/>
<path d="M98.2401 73.814C98.2401 73.814 100.31 131.534 101.59 160.574C102.92 190.994 101.401 225.574 92.1605 238.244C92.1605 238.244 122.58 244.244 125.92 222.914C129.26 201.584 122.78 99.5541 116.6 72.9141L98.2401 73.814Z" fill="#7C3425"/>
<path d="M198.761 82.3223L197.961 82.6023C197.961 82.6023 192.391 86.2425 191.421 76.0125C164.351 63.3925 146.341 28.5723 146.341 28.5723C114.081 32.9123 106.141 56.5724 105.261 76.4524C106.741 83.8724 108.571 95.7625 108.001 106.012C106.571 131.572 128.131 148.222 147.281 148.192C184.071 148.142 193.421 115.492 193.421 115.492C193.421 115.492 210.531 118.412 212.741 95.4324C214.541 76.6424 198.761 82.3223 198.761 82.3223Z" fill="#FAA284"/>
<g opacity="0.9">
<path opacity="0.09" d="M125.092 94.052C128.118 94.6241 130.907 96.0807 133.105 98.2378C135.303 100.395 136.812 103.155 137.441 106.17C138.07 109.185 137.791 112.319 136.639 115.175C135.487 118.031 133.514 120.482 130.969 122.216C128.425 123.951 125.423 124.892 122.343 124.92C119.263 124.949 116.244 124.063 113.668 122.376C111.092 120.689 109.074 118.275 107.869 115.44C106.665 112.606 106.328 109.478 106.902 106.452C107.281 104.443 108.052 102.528 109.172 100.818C110.292 99.1072 111.738 97.6342 113.427 96.4827C115.116 95.3311 117.016 94.5235 119.017 94.1064C121.019 93.6894 123.083 93.6709 125.092 94.052Z" fill="#EA7460"/>
<path opacity="0.18" d="M124.811 95.523C127.546 96.0384 130.067 97.3535 132.054 99.3018C134.042 101.25 135.407 103.744 135.977 106.469C136.547 109.193 136.296 112.025 135.256 114.606C134.216 117.188 132.434 119.404 130.135 120.972C127.836 122.541 125.123 123.393 122.34 123.419C119.557 123.446 116.829 122.646 114.5 121.122C112.171 119.598 110.347 117.417 109.258 114.856C108.168 112.295 107.863 109.468 108.381 106.733C109.077 103.07 111.197 99.8323 114.278 97.7307C117.358 95.6292 121.146 94.8351 124.811 95.523Z" fill="#EA7460"/>
<path opacity="0.27" d="M124.542 97.003C126.982 97.4676 129.229 98.645 130.999 100.387C132.77 102.128 133.985 104.356 134.489 106.787C134.994 109.219 134.768 111.746 133.837 114.049C132.906 116.351 131.313 118.326 129.26 119.724C127.207 121.121 124.786 121.879 122.302 121.901C119.818 121.922 117.384 121.207 115.307 119.846C113.23 118.484 111.603 116.538 110.632 114.252C109.661 111.966 109.389 109.443 109.852 107.003C110.159 105.382 110.783 103.836 111.687 102.456C112.592 101.076 113.76 99.8873 115.124 98.9586C116.489 98.0299 118.023 97.3791 119.638 97.0436C121.254 96.708 122.92 96.6943 124.542 97.003Z" fill="#EA7460"/>
<path opacity="0.36" d="M124.261 98.4732C126.412 98.8811 128.393 99.9175 129.955 101.451C131.517 102.985 132.589 104.948 133.036 107.091C133.482 109.234 133.283 111.462 132.464 113.492C131.645 115.522 130.242 117.263 128.433 118.496C126.624 119.729 124.491 120.398 122.301 120.419C120.112 120.439 117.967 119.81 116.135 118.611C114.303 117.412 112.868 115.696 112.011 113.682C111.155 111.667 110.914 109.444 111.321 107.293C111.591 105.864 112.14 104.502 112.937 103.286C113.733 102.069 114.762 101.021 115.964 100.202C117.165 99.3829 118.517 98.8087 119.941 98.512C121.364 98.2154 122.832 98.2022 124.261 98.4732Z" fill="#EA7460"/>
<path opacity="0.45" d="M123.981 99.9418C125.84 100.295 127.553 101.192 128.902 102.519C130.252 103.845 131.178 105.543 131.563 107.395C131.949 109.248 131.776 111.174 131.067 112.928C130.358 114.683 129.144 116.188 127.58 117.254C126.016 118.319 124.171 118.896 122.278 118.913C120.386 118.93 118.531 118.385 116.948 117.348C115.365 116.311 114.125 114.827 113.385 113.085C112.645 111.343 112.439 109.421 112.791 107.562C113.025 106.326 113.5 105.149 114.189 104.098C114.878 103.046 115.768 102.141 116.807 101.433C117.846 100.726 119.015 100.23 120.245 99.9738C121.476 99.7179 122.746 99.707 123.981 99.9418Z" fill="#EA7460"/>
<path opacity="0.55" d="M123.701 101.393C125.27 101.69 126.715 102.446 127.854 103.564C128.992 104.683 129.774 106.114 130.099 107.677C130.424 109.24 130.279 110.865 129.681 112.345C129.083 113.825 128.06 115.094 126.74 115.993C125.421 116.891 123.864 117.378 122.268 117.392C120.671 117.405 119.107 116.945 117.772 116.07C116.437 115.194 115.392 113.942 114.769 112.472C114.146 111.003 113.973 109.381 114.271 107.813C114.671 105.712 115.889 103.855 117.657 102.651C119.425 101.447 121.599 100.995 123.701 101.393Z" fill="#EA7460"/>
<path opacity="0.64" d="M123.461 102.893C124.737 103.135 125.913 103.75 126.84 104.661C127.767 105.572 128.403 106.737 128.668 108.009C128.933 109.281 128.814 110.603 128.328 111.808C127.841 113.013 127.008 114.046 125.933 114.778C124.859 115.509 123.593 115.906 122.293 115.917C120.994 115.928 119.72 115.554 118.634 114.842C117.547 114.13 116.696 113.111 116.188 111.915C115.681 110.719 115.538 109.399 115.781 108.123C115.942 107.275 116.268 106.467 116.741 105.746C117.214 105.024 117.824 104.403 118.537 103.917C119.251 103.431 120.053 103.091 120.897 102.915C121.742 102.739 122.613 102.732 123.461 102.893Z" fill="#EA7460"/>
<path opacity="0.73" d="M123.142 104.392C124.127 104.581 125.035 105.059 125.749 105.764C126.463 106.469 126.951 107.371 127.153 108.354C127.354 109.338 127.259 110.359 126.88 111.288C126.5 112.217 125.853 113.013 125.021 113.574C124.189 114.136 123.209 114.437 122.205 114.441C121.201 114.445 120.219 114.151 119.383 113.596C118.546 113.041 117.893 112.25 117.507 111.323C117.12 110.397 117.017 109.377 117.211 108.392C117.473 107.078 118.242 105.92 119.353 105.171C120.464 104.422 121.825 104.142 123.142 104.392Z" fill="#EA7460"/>
<path opacity="0.82" d="M122.861 105.833C123.554 105.964 124.194 106.298 124.698 106.792C125.202 107.286 125.549 107.918 125.694 108.609C125.838 109.3 125.775 110.018 125.512 110.673C125.249 111.328 124.797 111.89 124.214 112.289C123.631 112.687 122.943 112.904 122.237 112.911C121.531 112.919 120.839 112.717 120.248 112.331C119.657 111.945 119.193 111.392 118.916 110.743C118.639 110.094 118.56 109.377 118.691 108.683C118.777 108.222 118.954 107.783 119.21 107.39C119.467 106.997 119.798 106.659 120.185 106.394C120.573 106.129 121.008 105.944 121.467 105.847C121.926 105.751 122.4 105.746 122.861 105.833Z" fill="#EA7460"/>
<path opacity="0.91" d="M122.582 107.313C122.984 107.39 123.354 107.584 123.646 107.87C123.938 108.157 124.139 108.524 124.222 108.925C124.306 109.326 124.268 109.742 124.115 110.122C123.962 110.501 123.7 110.827 123.362 111.057C123.024 111.288 122.625 111.413 122.215 111.417C121.806 111.421 121.404 111.303 121.062 111.079C120.719 110.855 120.451 110.534 120.291 110.158C120.131 109.781 120.086 109.366 120.162 108.963C120.211 108.696 120.312 108.44 120.461 108.212C120.609 107.983 120.802 107.787 121.027 107.633C121.252 107.48 121.505 107.373 121.772 107.318C122.039 107.263 122.314 107.261 122.582 107.313Z" fill="#EA7460"/>
<path opacity="0.9" d="M122.761 109.452C122.733 109.602 122.647 109.734 122.521 109.821C122.395 109.907 122.241 109.94 122.091 109.912C121.941 109.884 121.808 109.798 121.722 109.672C121.636 109.547 121.603 109.392 121.631 109.242C121.644 109.168 121.672 109.097 121.713 109.033C121.754 108.969 121.807 108.915 121.87 108.872C121.932 108.829 122.002 108.799 122.076 108.783C122.15 108.768 122.226 108.768 122.301 108.782C122.45 108.811 122.582 108.898 122.668 109.023C122.754 109.148 122.787 109.302 122.761 109.452Z" fill="#EA7460"/>
</g>
<g opacity="0.9">
<path opacity="0.09" d="M174.462 92.9413C177.701 93.5545 180.686 95.1146 183.039 97.4242C185.392 99.7338 187.007 102.689 187.68 105.917C188.353 109.144 188.054 112.499 186.821 115.556C185.587 118.614 183.476 121.237 180.751 123.094C178.027 124.951 174.813 125.959 171.517 125.99C168.22 126.02 164.988 125.073 162.229 123.267C159.471 121.461 157.311 118.877 156.02 115.843C154.73 112.809 154.369 109.461 154.982 106.221C155.389 104.07 156.216 102.02 157.415 100.189C158.614 98.357 160.162 96.7797 161.971 95.5465C163.78 94.3133 165.814 93.4486 167.957 93.0016C170.101 92.5546 172.311 92.5341 174.462 92.9413Z" fill="#EA7460"/>
<path opacity="0.18" d="M174.171 94.5129C177.1 95.0674 179.798 96.4779 181.925 98.5661C184.052 100.654 185.512 103.326 186.12 106.244C186.729 109.162 186.458 112.195 185.343 114.959C184.227 117.724 182.317 120.095 179.854 121.773C177.391 123.452 174.485 124.362 171.504 124.389C168.524 124.416 165.602 123.559 163.109 121.925C160.615 120.292 158.663 117.955 157.497 115.212C156.332 112.469 156.006 109.441 156.561 106.513C156.929 104.568 157.675 102.715 158.76 101.059C159.844 99.4032 161.244 97.9772 162.879 96.8627C164.515 95.7482 166.354 94.9671 168.291 94.5639C170.229 94.1607 172.227 94.1434 174.171 94.5129Z" fill="#EA7460"/>
<path opacity="0.27" d="M173.872 96.0923C176.487 96.5878 178.897 97.8478 180.796 99.7129C182.696 101.578 184 103.964 184.543 106.571C185.086 109.177 184.844 111.885 183.848 114.354C182.852 116.823 181.146 118.941 178.946 120.44C176.746 121.939 174.152 122.752 171.49 122.777C168.828 122.801 166.218 122.035 163.991 120.577C161.764 119.118 160.02 117.032 158.979 114.582C157.937 112.132 157.646 109.428 158.142 106.812C158.469 105.075 159.136 103.419 160.105 101.94C161.073 100.461 162.323 99.1868 163.784 98.1912C165.245 97.1955 166.888 96.4976 168.619 96.1375C170.35 95.7774 172.135 95.762 173.872 96.0923Z" fill="#EA7460"/>
<path opacity="0.36" d="M173.571 97.6724C175.874 98.1088 177.995 99.2182 179.667 100.86C181.339 102.502 182.487 104.603 182.966 106.897C183.444 109.192 183.231 111.576 182.354 113.749C181.477 115.923 179.975 117.787 178.039 119.107C176.102 120.427 173.818 121.143 171.474 121.165C169.131 121.186 166.833 120.513 164.873 119.229C162.912 117.945 161.377 116.109 160.46 113.952C159.543 111.795 159.285 109.415 159.721 107.112C160.308 104.025 162.096 101.297 164.693 99.5267C167.29 97.7567 170.483 97.0898 173.571 97.6724Z" fill="#EA7460"/>
<path opacity="0.45" d="M173.271 99.2514C175.258 99.6341 177.087 100.597 178.527 102.018C179.967 103.44 180.954 105.256 181.363 107.237C181.772 109.219 181.585 111.278 180.824 113.153C180.064 115.028 178.766 116.636 177.092 117.774C175.419 118.912 173.446 119.529 171.423 119.546C169.399 119.564 167.416 118.981 165.723 117.872C164.031 116.764 162.705 115.178 161.912 113.317C161.12 111.455 160.897 109.4 161.271 107.411C161.521 106.086 162.029 104.824 162.768 103.696C163.507 102.568 164.461 101.597 165.576 100.839C166.691 100.081 167.945 99.5499 169.265 99.2775C170.586 99.0051 171.947 98.9963 173.271 99.2514Z" fill="#EA7460"/>
<path opacity="0.55" d="M172.982 100.823C174.663 101.14 176.213 101.948 177.435 103.146C178.657 104.344 179.496 105.877 179.847 107.552C180.197 109.227 180.043 110.968 179.404 112.556C178.765 114.143 177.669 115.505 176.255 116.469C174.841 117.434 173.174 117.957 171.463 117.973C169.751 117.989 168.074 117.498 166.642 116.56C165.211 115.623 164.089 114.282 163.42 112.707C162.75 111.132 162.563 109.394 162.882 107.713C163.092 106.597 163.52 105.534 164.141 104.583C164.763 103.633 165.566 102.814 166.504 102.175C167.442 101.535 168.497 101.086 169.608 100.854C170.72 100.622 171.866 100.612 172.982 100.823Z" fill="#EA7460"/>
<path opacity="0.64" d="M172.682 102.392C174.037 102.657 175.283 103.317 176.264 104.289C177.245 105.261 177.916 106.501 178.194 107.854C178.472 109.206 178.343 110.611 177.825 111.891C177.306 113.17 176.421 114.268 175.28 115.046C174.139 115.824 172.793 116.247 171.413 116.261C170.032 116.276 168.677 115.883 167.52 115.13C166.362 114.377 165.454 113.298 164.908 112.03C164.362 110.762 164.203 109.36 164.452 108.002C164.618 107.091 164.964 106.221 165.469 105.445C165.974 104.668 166.629 104 167.394 103.478C168.16 102.956 169.022 102.591 169.929 102.405C170.837 102.218 171.772 102.214 172.682 102.392Z" fill="#EA7460"/>
<path opacity="0.73" d="M172.382 103.982C173.436 104.183 174.408 104.691 175.174 105.444C175.939 106.196 176.465 107.159 176.684 108.21C176.903 109.261 176.805 110.353 176.403 111.348C176.002 112.344 175.314 113.198 174.427 113.803C173.54 114.408 172.494 114.736 171.42 114.746C170.347 114.757 169.294 114.449 168.396 113.861C167.497 113.274 166.793 112.433 166.372 111.445C165.951 110.457 165.833 109.367 166.031 108.312C166.163 107.61 166.433 106.942 166.823 106.345C167.214 105.747 167.719 105.233 168.309 104.83C168.899 104.428 169.562 104.146 170.261 104.001C170.96 103.855 171.68 103.849 172.382 103.982Z" fill="#EA7460"/>
<path opacity="0.82" d="M172.081 105.562C172.824 105.705 173.508 106.066 174.045 106.599C174.583 107.131 174.95 107.811 175.1 108.553C175.251 109.294 175.178 110.064 174.89 110.764C174.603 111.464 174.114 112.062 173.486 112.484C172.857 112.906 172.118 113.131 171.361 113.132C170.605 113.133 169.865 112.909 169.236 112.489C168.606 112.069 168.116 111.471 167.826 110.772C167.537 110.073 167.462 109.303 167.611 108.562C167.809 107.573 168.39 106.702 169.228 106.14C170.065 105.578 171.091 105.37 172.081 105.562Z" fill="#EA7460"/>
<path opacity="0.91" d="M171.781 107.142C172.069 107.194 172.343 107.302 172.588 107.461C172.834 107.619 173.044 107.825 173.209 108.066C173.374 108.307 173.489 108.579 173.548 108.865C173.607 109.151 173.608 109.446 173.551 109.732C173.47 110.164 173.264 110.562 172.957 110.876C172.649 111.19 172.256 111.406 171.826 111.496C171.396 111.586 170.949 111.547 170.542 111.384C170.134 111.22 169.784 110.939 169.537 110.576C169.289 110.214 169.154 109.785 169.149 109.346C169.145 108.907 169.271 108.476 169.511 108.109C169.752 107.741 170.095 107.453 170.5 107.281C170.904 107.109 171.35 107.061 171.781 107.142Z" fill="#EA7460"/>
<path opacity="0.9" d="M171.971 109.391C171.94 109.551 171.847 109.693 171.712 109.784C171.577 109.876 171.412 109.911 171.252 109.881C171.107 109.836 170.983 109.739 170.905 109.609C170.827 109.478 170.799 109.324 170.828 109.174C170.856 109.025 170.939 108.891 171.059 108.798C171.18 108.706 171.33 108.661 171.482 108.672C171.561 108.686 171.638 108.716 171.706 108.76C171.774 108.804 171.832 108.862 171.878 108.929C171.923 108.996 171.955 109.071 171.971 109.151C171.988 109.23 171.987 109.312 171.971 109.391Z" fill="#EA7460"/>
</g>
<path d="M146.861 112.204C140.471 115.114 136.461 113.604 135.631 109.314C135.091 106.524 136.721 103.314 138.461 101.774C142.061 98.5939 143.661 89.2641 143.671 89.1641C143.951 91.1641 143.551 98.954 139.171 104.364C138.727 104.858 138.39 105.437 138.18 106.067C137.97 106.697 137.893 107.363 137.952 108.024C138.182 111.214 141.251 113.704 146.861 112.204Z" fill="#DB7C65"/>
<path d="M128.681 95.8295C126.681 93.1095 124.541 91.6295 122.231 91.4195C119.967 91.356 117.769 92.1775 116.101 93.7095L114.251 91.4895C114.391 91.3495 117.831 88.0195 122.461 88.4295C125.561 88.7095 128.381 90.5795 130.851 93.9695L128.681 95.8295Z" fill="#502F26"/>
<path d="M159.002 94.8307L156.802 93.0007C159.282 89.6107 162.102 87.7407 165.202 87.4607C169.832 87.0507 173.272 90.3807 173.412 90.5207L171.552 92.7407L172.482 91.6307L171.552 92.7507C169.88 91.212 167.673 90.3898 165.402 90.4607C163.112 90.6407 161.002 92.1207 159.002 94.8307Z" fill="#502F26"/>
<path d="M190.67 107.742C190.67 107.742 188.09 127.612 162.86 138.422C140.61 147.942 118.921 133.202 114.081 129.562C121.621 141.302 134.95 148.212 147.28 148.192C184.07 148.142 193.42 115.492 193.42 115.492C196.755 115.923 200.14 115.283 203.087 113.666C206.035 112.048 208.393 109.536 209.82 106.492C199.23 116.532 190.67 107.742 190.67 107.742Z" fill="#EF8D72"/>
<path d="M133.311 72.6627C133.311 72.6627 124.311 70.2226 111.961 73.8126C111.961 73.8126 111.891 72.8927 114.211 70.9127C116.531 68.9327 124.501 67.0427 131.471 69.9127C131.461 69.9027 135.091 71.8327 133.311 72.6627Z" fill="#7C3425"/>
<path d="M153.931 72.1418C153.931 72.1418 162.931 69.5318 175.291 72.9018C175.291 72.9018 175.351 71.9817 172.991 70.0417C170.781 68.2217 162.631 66.3618 155.721 69.3418C155.721 69.3918 152.131 71.3918 153.931 72.1418Z" fill="#7C3425"/>
<path d="M156.811 123.63C156.645 123.633 156.482 123.682 156.341 123.77C142.631 131.97 136.821 124.4 136.581 124.07C136.496 123.954 136.387 123.858 136.262 123.788C136.136 123.718 135.997 123.675 135.854 123.664C135.71 123.653 135.566 123.672 135.431 123.722C135.296 123.771 135.174 123.849 135.071 123.95C134.856 124.195 134.728 124.506 134.71 124.833C134.692 125.159 134.784 125.482 134.971 125.75C135.251 126.14 141.971 135.19 157.291 126.05C157.557 125.864 157.75 125.593 157.837 125.281C157.925 124.969 157.901 124.636 157.771 124.34C157.701 124.139 157.572 123.964 157.401 123.837C157.229 123.71 157.024 123.638 156.811 123.63Z" fill="#C43131"/>
<path d="M146.341 28.5723C114.081 32.9123 106.141 56.5724 105.261 76.4524C105.261 76.4524 108.481 38.8524 141.191 32.4524C141.191 32.4524 151.601 63.3122 191.421 76.0522C164.351 63.3922 146.341 28.5723 146.341 28.5723Z" fill="#EF8D72"/>
<g filter="url(#filter0_b_1253_9807)">
<path d="M113.666 106.962C104.874 103.32 100.699 93.2414 104.341 84.4499C107.983 75.6584 118.062 71.4836 126.853 75.1251C135.645 78.7667 139.819 88.8457 136.178 97.6372C132.536 106.429 122.457 110.604 113.666 106.962Z" fill="url(#paint2_linear_1253_9807)"/>
</g>
<g filter="url(#filter1_b_1253_9807)">
<path d="M159.665 106.966C150.873 103.324 146.698 93.2453 150.34 84.4538C153.982 75.6623 164.061 71.4875 172.852 75.129C181.644 78.7706 185.818 88.8496 182.177 97.6411C178.535 106.433 168.456 110.607 159.665 106.966Z" fill="url(#paint3_linear_1253_9807)"/>
</g>
<path d="M138.461 91.0428C138.461 87.4511 137.396 83.9401 135.4 80.9537C133.405 77.9673 130.569 75.6397 127.25 74.2652C123.932 72.8907 120.281 72.531 116.758 73.2317C113.236 73.9325 110 75.662 107.46 78.2017C104.92 80.7414 103.19 83.9774 102.49 87.5001C101.789 91.0228 102.149 94.6742 103.523 97.9925C104.898 101.311 107.226 104.147 110.212 106.142C113.198 108.138 116.709 109.203 120.301 109.203C125.115 109.198 129.732 107.283 133.136 103.878C136.541 100.473 138.456 95.8575 138.461 91.0428ZM136.461 91.0428C136.461 94.2389 135.513 97.3633 133.737 100.021C131.962 102.678 129.438 104.75 126.485 105.973C123.532 107.196 120.283 107.516 117.148 106.892C114.014 106.269 111.134 104.73 108.874 102.47C106.614 100.21 105.075 97.3304 104.452 94.1956C103.828 91.0609 104.148 87.8116 105.371 84.8587C106.594 81.9058 108.665 79.3819 111.323 77.6063C113.98 75.8306 117.105 74.8829 120.301 74.8829C124.585 74.8882 128.693 76.5924 131.722 79.6219C134.752 82.6513 136.456 86.7585 136.461 91.0428Z" fill="#CE3B28"/>
<path d="M184.461 91.0428C184.461 87.4511 183.396 83.9401 181.4 80.9537C179.405 77.9673 176.569 75.6397 173.25 74.2652C169.932 72.8907 166.281 72.531 162.758 73.2317C159.236 73.9325 156 75.662 153.46 78.2017C150.92 80.7414 149.19 83.9774 148.49 87.5001C147.789 91.0228 148.149 94.6742 149.523 97.9925C150.898 101.311 153.226 104.147 156.212 106.142C159.198 108.138 162.709 109.203 166.301 109.203C171.115 109.198 175.732 107.283 179.136 103.878C182.541 100.473 184.456 95.8575 184.461 91.0428ZM182.461 91.0428C182.461 94.2389 181.513 97.3633 179.737 100.021C177.962 102.678 175.438 104.75 172.485 105.973C169.532 107.196 166.283 107.516 163.148 106.892C160.014 106.269 157.134 104.73 154.874 102.47C152.614 100.21 151.075 97.3304 150.452 94.1956C149.828 91.0609 150.148 87.8116 151.371 84.8587C152.594 81.9058 154.665 79.3819 157.323 77.6063C159.98 75.8306 163.105 74.8829 166.301 74.8829C170.585 74.8882 174.693 76.5924 177.722 79.6219C180.752 82.6513 182.456 86.7585 182.461 91.0428Z" fill="#CE3B28"/>
<path d="M148.702 90.1028C142.412 87.8828 137.872 90.0428 137.832 90.1028L136.941 88.3128C137.151 88.2028 142.241 85.733 149.361 88.263L148.702 90.1028Z" fill="#CE3B28"/>
<path d="M183.871 89.1923L182.691 87.5722C183.081 87.2922 195.171 77.7722 202.091 81.5722L199.991 81.9323C192.311 81.8323 183.961 89.1323 183.871 89.1923Z" fill="#CE3B28"/>
<path opacity="0.1" d="M135.221 344.793C135.221 344.793 167.861 359.963 207.151 352.743C204.241 345.643 200.721 336.183 194.211 327.233C199.991 287.843 214.831 237.413 214.831 237.413V235.293L197.351 238.123L190.111 286.853L136.111 295.123C136.111 295.123 117.791 283.123 100.021 282.603L106.851 325.663C103.25 330.259 100.187 335.251 97.7207 340.543C108.411 340.603 126.711 344.983 135.221 344.793Z" fill="black"/>
<path d="M197.28 279.183L197.601 231.033C197.601 231.033 195.221 195.623 214.851 178.803C214.851 178.803 245.251 192.143 235.521 281.453C222.734 282.742 209.824 281.976 197.28 279.183Z" fill="#CE3B28"/>
<path d="M93.7185 357.277L98.835 356.193C109.459 353.943 115.965 341.996 113.332 329.562C110.698 317.127 99.9054 308.834 89.281 311.084L84.1646 312.167L85.4844 318.399L90.6009 317.316C97.8012 315.791 105.201 321.869 107.109 330.879C109.018 339.89 104.696 348.441 97.5151 349.961L92.3986 351.045L93.7185 357.277Z" fill="#841819"/>
<path d="M50.0961 316.953L89.1201 308.688L99.7535 358.894L60.7296 367.159L50.0961 316.953Z" fill="#B42525"/>
<path d="M106.955 316.542C104.428 315.033 104.544 311.819 104.544 311.819C146.029 305.905 145.556 335.331 145.556 335.331C144.901 352.847 127.666 352.889 113.685 351.987C99.7046 351.084 100.93 329.552 100.93 329.552C89.1362 321.89 98.2074 318.241 106.955 316.542Z" fill="#FAA284"/>
<path d="M139.545 320.077L198.198 298.117L200.501 280.001C213.351 280.134 220.318 279.131 232.56 275.221C233.68 286.35 234.476 298.744 234.718 312.584C234.718 312.584 231.5 336 142.088 345.645C142.129 345.646 135.063 335.592 139.545 320.077Z" fill="#FAA284"/>
<path d="M235.261 292.494C235.261 292.494 238.941 294.174 239.531 287.744C240.121 281.314 242.091 270.824 237.631 270.594C237.631 270.594 210.891 273.594 196.291 270.654C196.291 270.654 193.861 270.184 193.961 274.314C194.061 278.444 191.641 289.664 197.311 290.314C197.311 290.304 223.131 293.314 235.261 292.494Z" fill="#D8453A"/>
<defs>
<filter id="filter0_b_1253_9807" x="101.025" y="71.8086" width="38.4688" height="38.4688" filterUnits="userSpaceOnUse" color-interpolation-filters="sRGB">
<feFlood flood-opacity="0" result="BackgroundImageFix"/>
<feGaussianBlur in="BackgroundImage" stdDeviation="1"/>
<feComposite in2="SourceAlpha" operator="in" result="effect1_backgroundBlur_1253_9807"/>
<feBlend mode="normal" in="SourceGraphic" in2="effect1_backgroundBlur_1253_9807" result="shape"/>
</filter>
<filter id="filter1_b_1253_9807" x="147.024" y="71.8125" width="38.4688" height="38.4688" filterUnits="userSpaceOnUse" color-interpolation-filters="sRGB">
<feFlood flood-opacity="0" result="BackgroundImageFix"/>
<feGaussianBlur in="BackgroundImage" stdDeviation="1"/>
<feComposite in2="SourceAlpha" operator="in" result="effect1_backgroundBlur_1253_9807"/>
<feBlend mode="normal" in="SourceGraphic" in2="effect1_backgroundBlur_1253_9807" result="shape"/>
</filter>
<linearGradient id="paint0_linear_1253_9807" x1="-307134" y1="362150" x2="-304873" y2="359667" gradientUnits="userSpaceOnUse">
<stop stop-color="#FAA284"/>
<stop offset="1" stop-color="#EF8D72"/>
</linearGradient>
<linearGradient id="paint1_linear_1253_9807" x1="243362" y1="576692" x2="254000" y2="595176" gradientUnits="userSpaceOnUse">
<stop stop-color="#7C3425"/>
<stop offset="1" stop-color="#60261D"/>
</linearGradient>
<linearGradient id="paint2_linear_1253_9807" x1="349802" y1="172786" x2="352250" y2="166877" gradientUnits="userSpaceOnUse">
<stop stop-color="white" stop-opacity="0.8"/>
<stop offset="1" stop-color="white" stop-opacity="0.3"/>
</linearGradient>
<linearGradient id="paint3_linear_1253_9807" x1="349848" y1="172786" x2="352296" y2="166877" gradientUnits="userSpaceOnUse">
<stop stop-color="white" stop-opacity="0.8"/>
<stop offset="1" stop-color="white" stop-opacity="0.3"/>
</linearGradient>
</defs>
</svg>
