<svg width="462" height="395" viewBox="0 0 462 395" fill="none" xmlns="http://www.w3.org/2000/svg">
<path d="M438.569 132.57C438.569 132.57 458.389 132.87 460.109 133.08C525.819 141.32 564.109 245.82 550.679 333.96C538.019 416.79 484.129 455.68 423.139 453.23H403.879L438.569 132.57Z" fill="#414042"/>
<path d="M509.99 226.02C513.049 205.347 513.486 184.372 511.29 163.59C515.505 168.638 519.348 173.986 522.79 179.59V179.65C528.256 188.596 532.923 198.006 536.74 207.77L536.92 208.22C539.51 214.81 541.82 221.68 543.82 228.74L544.13 229.86C545.063 233.193 545.927 236.573 546.72 240C546.72 240.15 546.8 240.3 546.83 240.45C547.657 244.05 548.407 247.693 549.08 251.38C549.15 251.74 549.21 252.11 549.27 252.47C549.84 255.66 550.34 258.87 550.8 262.09C550.89 262.78 550.99 263.46 551.08 264.09C552.02 271.21 552.66 278.39 553 285.63C553 286.51 553.08 287.38 553.11 288.26C553.217 291.213 553.277 294.167 553.29 297.12C553.29 297.81 553.29 298.51 553.29 299.21C553.29 302.75 553.193 306.283 553 309.81C553 310.56 552.91 311.32 552.86 312.07C552.7 314.91 552.49 317.73 552.22 320.55C552.13 321.55 552.05 322.49 551.94 323.46C551.57 326.95 551.15 330.46 550.63 333.87C537.97 416.7 484.08 455.59 423.09 453.14H403.83L415.83 342.2C462.25 331.59 499.72 293.31 509.99 226.02Z" fill="#313133"/>
<path d="M293.82 304.14C280.35 392.28 326.74 444.03 392.45 452.27C458.16 460.51 518.32 422.1 531.79 333.96C545.26 245.82 506.93 141.32 441.22 133.09C375.51 124.86 307.29 216.02 293.82 304.14Z" fill="#BCBEC0"/>
<g style="mix-blend-mode:multiply" opacity="0.3">
<path d="M351.768 344.36C355.598 344.84 359.408 345.13 363.198 345.29H363.568C365.168 345.35 366.748 345.29 368.348 345.29H382.448C443.448 347.74 497.338 308.86 509.988 226.03C513.048 205.357 513.484 184.381 511.288 163.6C544.168 202.73 560.088 272.309 550.678 333.929C538.018 416.759 484.128 455.649 423.138 453.199H408.988C407.398 453.199 405.818 453.259 404.208 453.199H403.838C400.048 453.029 396.238 452.75 392.398 452.27C330.808 444.55 286.198 398.6 291.928 320.27C308.448 333.37 328.928 341.5 351.768 344.36Z" fill="#BCBEC0"/>
</g>
<path d="M316.989 462.44C287.209 473.96 202.909 502.09 198.289 506.1C193.669 510.11 140.509 485.39 143.209 472.55C145.909 459.71 271.329 390.26 271.329 390.26L316.989 462.44Z" fill="#36393D"/>
<path d="M393.879 389.19C401.389 412.42 410.419 421.28 412.979 442.14C415.539 463 407.249 475.28 407.249 475.28H260.189C260.189 475.28 264.299 406.79 271.649 384.06C278.999 361.33 393.879 389.19 393.879 389.19Z" fill="#36393D"/>
<g style="mix-blend-mode:multiply" opacity="0.2">
<path d="M202.829 691.72C202.399 651.15 198.239 511.56 192.619 485.44C207.619 479.44 240.279 468.13 267.889 458.36L279.989 446.07C286.078 439.907 290.029 431.954 291.264 423.379C292.499 414.805 290.951 406.06 286.849 398.43L301.019 392.93L327.989 475.28H281.689C254.079 485.05 221.429 496.37 206.419 502.36C214.599 522.67 218.319 693.77 218.319 693.77C213.093 693.7 207.894 693.012 202.829 691.72Z" fill="#36393D"/>
</g>
<path d="M365.089 129.14C361.789 123.98 316.849 124.94 314.359 126.8C311.869 128.66 305.219 146.43 305.219 146.43V171.43L362.549 166.09L362.769 145.01C362.769 145.01 368.319 134.19 365.089 129.14Z" fill="#BCBEC0"/>
<path d="M187.99 294.47C189.99 284.85 230.99 216.36 239.41 196.83C251 169.93 260.6 156.97 277.04 163.16C288.72 167.56 308.04 195.37 300.92 215.77C290.39 246.03 250.62 296.87 230.44 323.38C218.75 338.79 185.99 304.28 187.99 294.47Z" fill="#8C6048"/>
<g style="mix-blend-mode:multiply" opacity="0.2">
<path d="M257.099 220.75C256.599 199.16 272.619 162.46 281.499 165.81C293.179 170.21 308.049 195.37 300.959 215.81C290.429 246.07 250.659 296.91 230.479 323.42C229.079 325.26 220.479 325.76 218.819 326.3C229.989 310.47 257.989 260.91 257.099 220.75Z" fill="#8C6048"/>
</g>
<path d="M232.859 317.83C232.859 327.7 200.409 343.74 182.649 348.38C158.729 354.63 124.469 356.47 112.939 354.38C113.619 353.24 104.139 323.38 104.139 323.38C128.489 313.38 174.649 297.49 189.139 291.12C218.139 278.42 223.759 290.59 230.039 303.81C232.009 308.216 232.972 313.005 232.859 317.83Z" fill="#8C6048"/>
<g style="mix-blend-mode:multiply" opacity="0.2">
<path d="M108.52 337.6C129.67 337.33 156.15 338 178.52 332.87C195.35 329.02 224.22 316.279 231.01 306.189C232.27 309.939 232.885 313.875 232.83 317.83C232.83 327.7 200.379 343.74 182.619 348.38C158.699 354.63 124.439 356.47 112.909 354.38C113.289 353.83 110.9 345.48 108.52 337.6Z" fill="#8C6048"/>
</g>
<path d="M115.61 353.7L102.12 355.98L93.6501 326.21L104.14 323.46L115.61 353.7Z" fill="#E5E6E7"/>
<path d="M417.3 170.85C393.87 161.44 378.73 152.36 371.75 148.99C365.94 146.29 353.4 78.3799 353.4 78.3799L317.87 85.0898C317.87 85.0898 318.8 123.28 314.73 135.85C312.64 142.29 305.67 148.7 301.03 149.98C285.32 154.32 267.03 280.26 273.43 319.2C276.28 336.61 394.76 335.84 396.2 319.56C399.53 281.89 414.1 209.23 417.3 170.85Z" fill="#E6966E"/>
<path d="M353.489 147.22C349.739 151.09 316.879 191.39 316.879 191.39L313.229 197.39C313.229 197.39 306.789 168.49 305.109 158.99C303.929 152.33 303.649 154.58 297.199 151.5L267.899 164.69C258.579 170.24 264.379 259.03 264.379 259.03C264.379 259.03 269.859 324.09 271.649 384.03C271.649 384.03 273.119 396.71 316.129 398.27C355.209 399.68 393.879 389.16 393.879 389.16C395.879 363.64 420.279 270.02 420.279 270.02C429.929 228.85 441.589 181.6 441.589 181.6C441.589 181.6 438.589 170.05 408.059 159.73L353.489 147.22Z" fill="#E5E6E7"/>
<path d="M342.459 154.551C340.459 156.341 316.879 191.391 316.879 191.391C316.879 191.391 332.079 173.22 339.069 167L346.499 177.42L365.089 129.141C365.089 129.141 344.439 152.751 342.459 154.551Z" fill="#D1D3D4"/>
<path d="M342.459 154.551L346.459 177.42C346.459 177.42 376.579 153.541 375.399 144.871C374.989 141.871 364.979 128.311 364.979 128.311L342.459 154.551Z" fill="#F1F2F2"/>
<path d="M307.939 159.9C306.229 166.47 313.229 197.42 313.229 197.42C313.229 197.42 305.81 176.95 306.08 170.51L295.369 174.88L304.979 145.08L307.939 159.9Z" fill="#D1D3D4"/>
<path d="M309.11 153.28L295.26 175.28C292.59 171.075 291.678 165.99 292.72 161.12C293.29 158.12 307.9 138.72 307.9 138.72L309.11 153.28Z" fill="#F1F2F2"/>
<path d="M313.229 197.419L301.069 392.929L305.149 346.37L318.069 189.439L313.229 197.419Z" fill="#D1D3D4"/>
<path d="M333.229 332.68C333.229 332.68 344.319 404.42 347.709 410.84C356.549 427.59 375.529 453.45 390.889 461.64C398.559 465.73 437.709 474.2 439.089 469.96C441.339 463.05 403.879 368.81 410.379 341.22C413.209 329.22 426.629 249.13 429.849 221.44C431.329 208.61 435.269 171.09 425.159 164.07C419.089 159.85 386.159 147.22 386.159 147.22L347.569 193.93L333.229 332.68Z" fill="#8C6048"/>
<g style="mix-blend-mode:multiply" opacity="0.2">
<path d="M372.469 446.02C362.886 435.298 354.577 423.503 347.709 410.87C344.319 404.45 333.229 332.71 333.229 332.71L333.539 329.76C351.659 325.88 386.319 316.17 418.809 294.26C415.109 316.43 411.659 335.83 410.379 341.26C407.029 355.49 415.379 387.46 423.929 416.03C410.609 421.79 387.529 432.9 372.469 446.02Z" fill="#8C6048"/>
</g>
<path d="M386.13 147.22C386.18 146.16 379.64 140.65 369.13 133.55C369.13 133.55 356.26 155.55 353.04 167.82C345.09 198.02 324.68 223.71 333.22 332.68C333.35 334.37 347.96 225.85 371.35 194.77L362.06 179.56L371.8 175.63C371.8 175.63 385.86 152.1 386.13 147.22Z" fill="#A67255"/>
<path d="M341.8 333.85C344.31 333.31 346.89 335.39 347.55 338.5C348.21 341.61 346.72 344.55 344.2 345.09C341.68 345.63 339.12 343.55 338.45 340.44C337.78 337.33 339.29 334.39 341.8 333.85Z" fill="#A67255"/>
<path d="M348.229 363.88C350.739 363.34 353.319 365.42 353.979 368.53C354.639 371.64 353.149 374.53 350.639 375.12C348.129 375.71 345.549 373.58 344.879 370.47C344.209 367.36 345.719 364.42 348.229 363.88Z" fill="#A67255"/>
<path d="M354.628 393.75C357.138 393.21 359.708 395.29 360.378 398.39C361.048 401.49 359.549 404.45 357.029 404.99C354.509 405.53 351.939 403.44 351.279 400.34C350.619 397.24 352.108 394.29 354.628 393.75Z" fill="#A67255"/>
<path d="M282.438 323.55C280.348 365.55 265.018 421.17 260.808 419.07C240.738 409.07 230.038 413.93 230.038 413.93C235.848 403.44 263.318 370.07 263.298 358.15C263.278 346.23 260.028 248.63 257.388 224.03C256.048 211.59 255.128 171.61 265.758 165.6C270.058 163.17 290.618 154.34 290.618 154.34L285.998 184.24C285.998 184.24 284.158 288.76 282.438 323.55Z" fill="#8C6048"/>
<path d="M289.07 154.5C289.31 153.83 294.779 150.61 300.729 146.05C300.729 146.05 291.249 164.74 290.129 176.95C286.539 215.95 283.53 304.95 283.53 304.95L282.439 323.6L272.6 209.13L282.06 194.51L272.36 190.6C272.36 190.6 287.48 159.02 289.07 154.5Z" fill="#A67255"/>
<g style="mix-blend-mode:multiply" opacity="0.5">
<g style="mix-blend-mode:multiply" opacity="0.5">
<path d="M273.989 279.871L273.679 279.811L273.989 279.871Z" fill="#F1F2F2"/>
</g>
</g>
<path d="M422.42 163.63C437.57 159.41 447.28 184.52 453.55 208.27C465.12 252.04 467.49 283.49 471.75 321.88C474.23 344.2 426.23 333.249 420.66 323.459C415.2 313.849 404.83 274.959 400.99 250.939C393.44 203.549 394.44 171.42 422.42 163.63Z" fill="#8C6048"/>
<g style="mix-blend-mode:multiply" opacity="0.2">
<path d="M397.658 197.42C397.758 207.811 398.691 218.178 400.448 228.42C404.278 252.42 416.958 291.73 422.448 301.34C422.448 301.34 450.448 290.96 471.448 318.46C471.578 319.61 471.688 320.72 471.818 321.89C474.298 344.2 426.298 333.26 420.728 323.47C415.268 313.86 404.898 274.97 401.058 250.95C397.618 229.78 395.988 211.69 397.658 197.42Z" fill="#8C6048"/>
</g>
<path d="M305.388 359.35C314.118 358.76 325.388 360.96 333.218 358.7C338.098 357.3 340.878 353.98 344.218 351.6C347.558 349.22 354.278 342.06 354.278 342.06L348.638 328.74C348.638 328.74 341.938 329.16 331.388 329.66C320.668 330.17 305.328 330.17 305.328 330.17C305.328 330.17 271.848 339.77 271.438 340.23C271.028 340.69 271.848 343.51 273.638 344C275.428 344.49 279.588 343.67 279.588 343.67L273.168 348.98C272.368 349.73 274.968 351.8 276.428 351.82C277.662 351.756 278.84 351.285 279.778 350.48C280.558 349.92 281.458 349.31 281.458 349.31C281.458 349.31 278.458 351.31 277.878 352.52C277.298 353.73 281.048 355.14 282.278 354.32C283.508 353.5 287.128 351.61 287.908 351.05C288.688 350.49 294.708 346.98 294.708 346.98C294.708 346.98 291.198 355.21 291.438 356.64C291.678 358.07 294.798 357.08 295.628 355.95C296.458 354.82 300.958 349.01 300.958 349.01C300.958 349.01 304.958 345.87 307.478 344.25C309.188 343.15 317.728 345.96 317.838 348.8C317.898 350.55 314.048 352.07 311.618 352.04C309.188 352.01 304.318 353.32 302.688 354.57C301.058 355.82 300.688 356.7 300.908 358.25C301.058 359.59 304.628 359.41 305.388 359.35Z" fill="#E6966E"/>
<g style="mix-blend-mode:multiply" opacity="0.5">
<path d="M302.669 354.571C304.299 353.321 309.169 352.011 311.599 352.041C314.029 352.071 317.879 350.551 317.819 348.801C317.709 345.961 309.169 343.15 307.459 344.24C316.399 338.24 338.019 348.921 345.719 346.351L348.579 347.791C347.199 349.149 345.736 350.422 344.199 351.601C340.879 353.981 338.099 357.3 333.199 358.7C325.329 360.96 314.099 358.761 305.369 359.351C304.609 359.411 301.039 359.59 300.869 358.25C300.709 356.7 300.899 355.881 302.669 354.571Z" fill="#E6966E"/>
</g>
<g style="mix-blend-mode:multiply" opacity="0.3">
<path d="M279.569 343.67L296.989 335.04L276.799 345.96L279.569 343.67Z" fill="#E6966E"/>
</g>
<g style="mix-blend-mode:multiply" opacity="0.3">
<path d="M281.439 349.31L295.339 339.32L306.569 335.04L295.869 340.5L281.439 349.31Z" fill="#E6966E"/>
</g>
<g style="mix-blend-mode:multiply" opacity="0.3">
<path d="M294.688 346.98L305.099 338.49L296.989 344.24L294.688 346.98Z" fill="#E6966E"/>
</g>
<path d="M349.59 327.51L340.36 329.08L343.02 357.07L354.7 356.21L349.59 327.51Z" fill="#F1F2F2"/>
<path d="M349.59 327.51C371.59 320.56 399.04 308.15 426.73 303.96C461.92 298.64 474.67 309.86 471.2 331.26C469.74 340.26 447.52 349.72 431.91 352.35C410.91 355.89 361.73 359.55 352.35 356.63C352.12 350.42 349.59 327.51 349.59 327.51Z" fill="#8C6048"/>
<path d="M447.079 339.56C455.789 333.46 464.459 326.75 471.709 324.75C471.724 326.927 471.553 329.102 471.199 331.25C469.799 339.92 449.309 348.94 433.859 351.98C433.369 349.88 436.629 346.87 447.079 339.56Z" fill="#664634"/>
<g style="mix-blend-mode:multiply" opacity="0.2">
<path d="M428.708 341.63C441.928 339.41 471.828 327.41 471.198 331.25C469.738 340.25 447.518 349.72 431.908 352.35C410.908 355.89 361.728 359.55 352.348 356.63C352.268 354.57 351.938 350.63 351.538 346.41C364.938 348.35 409.068 344.94 428.708 341.63Z" fill="#8C6048"/>
</g>
<path d="M81.739 350.42H292.079C292.435 350.398 292.791 350.449 293.126 350.57C293.461 350.691 293.768 350.879 294.028 351.123C294.288 351.367 294.495 351.662 294.636 351.989C294.777 352.316 294.851 352.669 294.851 353.025C294.851 353.381 294.777 353.734 294.636 354.061C294.495 354.388 294.288 354.683 294.028 354.927C293.768 355.171 293.461 355.359 293.126 355.48C292.791 355.601 292.435 355.652 292.079 355.63H81.739C81.3833 355.652 81.0269 355.601 80.6917 355.48C80.3564 355.359 80.0497 355.171 79.79 354.927C79.5304 354.683 79.3233 354.388 79.1819 354.061C79.0404 353.734 78.9675 353.381 78.9675 353.025C78.9675 352.669 79.0404 352.316 79.1819 351.989C79.3233 351.662 79.5304 351.367 79.79 351.123C80.0497 350.879 80.3564 350.691 80.6917 350.57C81.0269 350.449 81.3833 350.398 81.739 350.42Z" fill="#414042"/>
<path d="M19.8696 258.08C20.1997 257.871 20.5735 257.741 20.9619 257.699C21.3503 257.657 21.743 257.706 22.1099 257.84H122.78L181.72 354.2H80.5498C80.1154 354.21 79.6853 354.112 79.2991 353.912C78.9129 353.713 78.583 353.42 78.3398 353.06L19.1196 261.72C18.9275 261.432 18.7946 261.109 18.7283 260.77C18.662 260.431 18.6636 260.082 18.7334 259.743C18.8032 259.404 18.9397 259.083 19.1348 258.797C19.3298 258.512 19.5795 258.268 19.8696 258.08Z" fill="#58595B"/>
<path d="M121.39 261.69L180.62 353.02C180.806 353.307 181.047 353.554 181.329 353.747C181.611 353.94 181.928 354.076 182.262 354.147C182.597 354.217 182.941 354.221 183.277 354.158C183.613 354.096 183.934 353.967 184.22 353.78C184.508 353.596 184.757 353.356 184.952 353.074C185.147 352.793 185.284 352.476 185.356 352.141C185.427 351.806 185.432 351.461 185.369 351.124C185.306 350.788 185.177 350.467 184.99 350.18L125.77 258.841C125.583 258.553 125.342 258.305 125.06 258.111C124.777 257.916 124.46 257.779 124.124 257.708C123.789 257.636 123.443 257.632 123.106 257.694C122.769 257.756 122.447 257.884 122.16 258.071C121.578 258.449 121.171 259.043 121.026 259.721C120.882 260.4 121.013 261.108 121.39 261.69Z" fill="#414042"/>
<path d="M84.2394 305.43C85.5894 307.77 87.7793 309.03 89.1293 308.25C90.4793 307.47 90.4893 304.941 89.1293 302.611C87.7693 300.281 85.5894 299.01 84.2394 299.79C82.8894 300.57 82.8894 303.1 84.2394 305.43Z" fill="#BCBEC0"/>
<path d="M461.179 362.01H479.829V747.76H461.179V362.01Z" fill="#414042"/>
<path d="M350.73 362.01H369.38V747.76H350.73V362.01Z" fill="#414042"/>
<path d="M49.3491 362.01H67.999V747.76H49.3491V362.01Z" fill="#414042"/>
<path d="M-88.0002 355.22H506.72V368.8H-88.0002V355.22Z" fill="#58595B"/>
<path d="M259.138 95.2396C268.658 91.0596 274.459 88.6096 285.809 83.7696C289.809 82.0496 292.619 80.0795 297.199 79.9395C302.759 79.7595 308.349 85.7696 314.429 86.7996C316.429 87.9596 316.038 88.9295 312.668 89.6595C306.668 88.5895 302.799 80.8596 297.229 81.0296C292.649 81.1596 289.879 83.1297 285.839 84.8397C274.479 89.6597 268.678 92.0896 259.138 96.2396V95.2396Z" fill="#7B3A25"/>
<path d="M265.918 57.6005C264.838 66.6005 269.558 87.9205 271.208 91.3505C273.018 95.1105 273.718 102.77 277.478 109.16C281.238 115.55 293.169 140.9 299.349 144.97C303.469 147.68 315.978 144.97 323.748 140.33C332.648 135.01 346.918 118.75 346.368 113.05C345.588 104.79 343.068 81.1804 338.628 68.7904C334.188 56.4004 332.629 45.0904 323.029 36.7904C313.429 28.4904 304.029 20.7903 289.359 31.1803C274.689 41.5703 267.058 48.1405 265.918 57.6005Z" fill="#F7A379"/>
<path d="M253.99 40.4099C254.886 41.1796 255.942 41.7412 257.082 42.0542C258.221 42.3672 259.416 42.4237 260.58 42.22C256.1 37.01 255.58 28.2199 259.5 22.9299C259.774 24.8428 260.597 26.6352 261.869 28.0901C261.969 27.4101 262.059 26.7301 262.149 26.0901L265.24 28.6899C263.71 22.5499 266.5 15.6901 271.56 13.1201C270.877 14.1028 270.543 15.2861 270.612 16.4807C270.681 17.6753 271.148 18.8122 271.939 19.71L272.939 17.5601C273.223 18.1574 273.624 18.6912 274.119 19.1294C274.614 19.5676 275.192 19.9013 275.82 20.1101C276.68 13.1901 281.34 7.24012 287.36 5.37012C287.118 6.32908 287.082 7.32838 287.254 8.30225C287.426 9.27611 287.803 10.2023 288.36 11.02C288.968 8.83333 290.133 6.84221 291.743 5.2417C293.352 3.64119 295.35 2.48632 297.54 1.89014C298.71 4.62014 301.96 6.04014 304.36 4.89014L309.06 6.40991C310.736 3.37123 313.502 1.08086 316.8 0C317.23 2.87 321.659 5.35013 324.119 6.38013C325.719 6.91351 327.385 7.22304 329.07 7.30005C328.848 6.57 328.783 5.80168 328.876 5.04468C328.97 4.28767 329.222 3.55864 329.615 2.90479C330.008 2.25093 330.533 1.68686 331.157 1.24854C331.782 0.81021 332.491 0.507568 333.24 0.360107C333.145 0.491518 333.058 0.628337 332.979 0.77002C332.448 1.70878 332.205 2.78361 332.281 3.85986C332.358 4.93612 332.75 5.96597 333.409 6.82007C333.91 5.55695 334.864 4.52602 336.085 3.92871C337.305 3.33141 338.705 3.21067 340.01 3.59009L339.59 3.84009C338.34 4.65009 341.33 11.1199 341.35 12.9199C341.413 12.9768 341.473 13.037 341.53 13.1001H342.02C344.02 12.8901 346.669 12.3399 347.629 10.9399L346.82 12.1301C349.646 12.3765 352.394 13.1892 354.899 14.52L352.49 15C355.786 15.4762 358.779 17.1887 360.86 19.79L359.49 19.54C361.074 21.0082 363.091 21.9238 365.24 22.1499L364.389 23.1499C367.349 25.3248 369.544 28.381 370.659 31.8801L369.56 31.51C371.36 34.64 371.74 38.15 373.56 41.28L372.75 41.7C373.24 44.8899 372.3 49.7001 372.75 52.8501L372.659 52.77C372.709 54.13 372.82 55.4101 372.8 56.8601C372.33 96.6701 364.929 95.35 361.139 114.2C360.649 116.66 352.22 89.92 346.3 85C340.38 80.08 332.51 81.27 332.51 81.27C331.56 65.27 329.789 40.8001 310.369 41.3701C290.949 41.9401 272.959 58.3699 261.959 53.9299C256.569 51.7199 253.759 45.8299 253.99 40.4099Z" fill="#BD8242"/>
<g style="mix-blend-mode:multiply" opacity="0.3">
<g style="mix-blend-mode:multiply" opacity="0.3">
<path d="M343.99 83.4299C343.268 83.0198 342.516 82.6656 341.74 82.3701C343.26 81.6001 344.07 79.3701 345.84 79.1401C346.57 79.0701 347.28 79.4101 348 79.3801C348.72 79.3501 349.53 78.62 349.17 77.99L350.83 80.55C350.957 80.7934 351.151 80.995 351.39 81.1301C352.09 81.4401 352.71 80.5801 352.98 79.8701C355.625 72.8368 356.98 65.3843 356.98 57.8701C360.33 65.2101 357.93 73.7901 358.71 81.8701C359.785 80.4244 360.505 78.7456 360.81 76.97C360.764 77.2597 360.815 77.5566 360.957 77.8137C361.098 78.0709 361.321 78.2738 361.59 78.3901C362.327 77.1836 362.73 75.8034 362.76 74.3901C363.009 78.6356 362.411 82.8879 361 86.8999C364.81 83.026 368.387 78.929 371.71 74.6301C369.22 96.8001 364.15 98.74 361.04 114.21C361.04 114.32 360.91 114.3 360.84 114.28C359.56 113 351.71 89.59 346.2 85.01C345.516 84.4132 344.776 83.884 343.99 83.4299Z" fill="#BD8242"/>
</g>
<g style="mix-blend-mode:multiply" opacity="0.3">
<path d="M339.3 78.75L340.86 82.0801C339.698 81.6993 338.503 81.4281 337.29 81.27C337.855 80.3509 338.53 79.5045 339.3 78.75Z" fill="#BD8242"/>
</g>
</g>
<g style="mix-blend-mode:multiply" opacity="0.5">
<path d="M286.479 83.7002C286.479 83.7002 282.239 103.82 283.129 105.01C286.469 109.49 297.31 106.8 297.31 106.8C297.31 106.8 287.089 106.5 286.619 103.86C286.149 101.22 286.479 83.7002 286.479 83.7002Z" fill="#E6966E"/>
</g>
<path d="M313.249 65.2798C309.579 65.0798 294.819 67.1999 294.189 68.3399C293.559 69.4799 293.619 73.3399 295.189 73.0899C301.459 72.0899 308.109 70.6998 313.189 70.0198C315.669 69.6898 320.819 71.3299 320.819 71.3299C320.819 71.3299 316.919 65.4898 313.249 65.2798Z" fill="#8B5E3C"/>
<path d="M267.988 74.5297C269.848 73.3297 280.228 70.1795 280.818 71.1495C281.408 72.1195 282.208 76.2197 281.318 76.3297C276.845 77.0085 272.412 77.9299 268.038 79.0897C268.038 79.0897 266.378 75.5597 267.988 74.5297Z" fill="#8B5E3C"/>
<path d="M346.459 81.0202C340.939 101.7 352.019 114.57 350.159 120.81C345.019 138 333.479 146.38 323.709 153.65C318.709 157.39 307.099 160.11 303.399 158.65C294.399 155.18 278.839 116.16 280.569 114.9C283.179 112.99 287.199 109.78 302.019 107.49C324.369 104.03 323.729 109.73 328.479 107.75C331.269 106.6 330.719 87.8201 332.009 79.9001C332.919 74.2901 347.389 77.4702 346.459 81.0202ZM307.879 119.59C308.012 119.011 307.97 118.405 307.758 117.849C307.546 117.294 307.174 116.814 306.689 116.47C304.989 115.71 301.689 114.89 295.769 115.73C292.16 116.105 288.712 117.419 285.769 119.54C285.368 119.981 285.114 120.535 285.043 121.126C284.971 121.718 285.085 122.317 285.369 122.84C287.099 126.53 291.369 133.56 298.149 132.01C304.929 130.46 307.159 123.21 307.879 119.54V119.59Z" fill="#BD8242"/>
<g style="mix-blend-mode:multiply" opacity="0.3">
<path d="M298.429 153.28C298.792 153.387 299.163 153.461 299.539 153.5C298.546 151.146 298.043 148.615 298.059 146.06C298.768 149.123 300.626 151.797 303.249 153.53C307.09 153.092 310.849 152.106 314.409 150.6C313.912 148.4 313.545 146.173 313.309 143.93C313.494 144.929 313.955 145.857 314.641 146.607C315.327 147.356 316.21 147.898 317.189 148.17C317.189 146.91 317.189 145.66 317.189 144.4C317.946 145.502 318.782 146.548 319.689 147.53C321.459 146.21 323.269 144.83 325.099 143.38C326.153 139.489 325.689 135.342 323.799 131.78C325.279 134.7 327.609 137.47 330.529 138.7C337.449 132.417 342.516 124.359 345.179 115.4C346.989 109.34 336.609 96.98 341.099 77.29C344.219 77.98 346.859 79.42 346.449 80.97C340.929 101.65 352.009 114.52 350.149 120.76C345.009 137.95 333.469 146.33 323.699 153.6C318.699 157.34 307.089 160.06 303.389 158.6C301.529 157.89 299.389 155.6 297.189 152.52C297.572 152.82 297.988 153.075 298.429 153.28Z" fill="#BD8242"/>
</g>
<g style="mix-blend-mode:multiply" opacity="0.5">
<path d="M285.79 121.69C291.79 127.35 303.25 119.07 303.79 118.22C303.81 118.22 284.87 121.24 285.79 121.69Z" fill="#E6966E"/>
</g>
<g style="mix-blend-mode:multiply" opacity="0.5">
<path d="M291.3 127.7C294.68 132.17 299.61 126.7 299.88 126C299.89 125.53 290.73 127.2 291.3 127.7Z" fill="#E6966E"/>
</g>
<path d="M306.888 80.0199C308.941 80.5218 310.824 81.5566 312.349 83.0199C312.349 83.0199 311.859 85.5498 306.349 87.1998C300.419 88.3498 296.539 86.5899 295.979 83.3299C296.179 81.0199 299.848 78.8699 306.888 80.0199Z" fill="#F2F0F0"/>
<path d="M300.11 80.5603C301.81 79.5603 304.169 80.3702 305.389 82.4102C305.873 83.1434 306.113 84.01 306.078 84.8875C306.042 85.7649 305.731 86.609 305.189 87.3003C303.445 87.5752 301.663 87.497 299.949 87.0703C299.676 86.7626 299.434 86.4275 299.229 86.0703C298.099 84.0203 298.41 81.5903 300.11 80.5603Z" fill="#487CB8"/>
<path d="M300.368 76.9497C296.518 77.9997 296.019 83.3299 296.019 83.3299C298.475 82.1898 301.162 81.6352 303.868 81.7098C306.737 81.8106 309.583 82.2503 312.349 83.0198C312.349 83.0198 309.178 74.5497 300.368 76.9497Z" fill="#E6966E"/>
<path d="M299.569 85.7002C299.396 85.2406 299.358 84.7413 299.459 84.2607C299.56 83.7801 299.795 83.3382 300.139 82.9871C300.482 82.6359 300.919 82.3902 301.397 82.2786C301.875 82.1669 302.375 82.194 302.839 82.3567C303.302 82.5194 303.709 82.8108 304.012 83.197C304.316 83.5832 304.503 84.0479 304.551 84.5366C304.599 85.0253 304.507 85.5176 304.286 85.9558C304.064 86.394 303.722 86.7598 303.299 87.0102C302.629 87.3193 301.865 87.3553 301.169 87.1108C300.473 86.8663 299.899 86.3603 299.569 85.7002Z" fill="#18100E"/>
<path d="M302.689 83.56C302.586 83.4417 302.512 83.3026 302.469 83.1523C302.427 83.002 302.417 82.8443 302.442 82.6901C302.467 82.5359 302.526 82.3889 302.614 82.2597C302.701 82.1305 302.816 82.0221 302.95 81.9421C303.085 81.862 303.235 81.8124 303.39 81.7966C303.545 81.7807 303.702 81.799 303.85 81.8503C303.997 81.9015 304.132 81.9844 304.244 82.0932C304.356 82.202 304.443 82.334 304.499 82.4799C304.674 82.7325 304.746 83.0434 304.697 83.3473C304.649 83.6513 304.484 83.9247 304.239 84.11C304.101 84.1761 303.951 84.2142 303.799 84.2223C303.646 84.2304 303.493 84.2083 303.349 84.1572C303.205 84.106 303.073 84.027 302.959 83.9245C302.846 83.822 302.754 83.6981 302.689 83.56Z" fill="#EFECEC"/>
<path d="M302.188 81.4695C297.548 81.6595 296.019 83.3296 296.019 83.3296C298.537 83.072 301.068 82.9718 303.599 83.0295C306.513 83.1905 309.434 83.1905 312.349 83.0295C309.083 81.9047 305.641 81.3762 302.188 81.4695Z" fill="#412118"/>
<path d="M279.308 85.5205C281.788 86.0305 284.118 88.5705 284.118 88.5705C284.118 88.5705 283.838 91.0405 279.248 92.5705C274.248 93.5705 270.838 91.8005 270.198 88.5705C270.208 86.2805 273.238 84.2905 279.308 85.5205Z" fill="#F2F0F0"/>
<path d="M273.879 85.9194C275.359 84.9994 277.499 85.8396 278.669 87.8196C279.155 88.5287 279.406 89.3726 279.387 90.2322C279.367 91.0918 279.077 91.9236 278.559 92.6096C277.117 92.8633 275.637 92.8052 274.219 92.4395C273.868 92.062 273.566 91.642 273.319 91.1895C272.219 89.1795 272.399 86.8594 273.879 85.9194Z" fill="#487CB8"/>
<path d="M273.588 82.42C270.358 83.42 270.198 88.5902 270.198 88.5902C272.006 87.2648 274.221 86.6137 276.458 86.7501C279.092 86.9445 281.678 87.559 284.118 88.5701C284.118 88.5701 280.988 80.22 273.588 82.42Z" fill="#E6966E"/>
<path d="M273.628 91.0906C272.798 89.6806 272.959 88.0306 273.989 87.3806C275.019 86.7306 276.529 87.3805 277.359 88.7505C278.189 90.1205 278.019 91.8205 276.989 92.4605C275.959 93.1005 274.448 92.4906 273.628 91.0906Z" fill="#18100E"/>
<path d="M276.17 88.7506C275.998 88.5225 275.92 88.238 275.949 87.9542C275.979 87.6704 276.115 87.4083 276.33 87.2206C276.75 86.9506 277.33 87.2206 277.72 87.7906C277.891 88.0188 277.97 88.3032 277.94 88.587C277.91 88.8708 277.775 89.133 277.56 89.3207C277.14 89.6007 276.52 89.3406 276.17 88.7506Z" fill="#EFECEC"/>
<path d="M276.088 86.2496C270.508 86.4996 270.198 88.5897 270.198 88.5897C271.038 87.9497 273.478 87.9096 276.698 88.0796C281.438 88.3396 284.118 88.5696 284.118 88.5696C281.759 86.9561 278.944 86.1427 276.088 86.2496Z" fill="#412118"/>
<path d="M314.559 85.2095C321.129 81.9995 328.618 79.3097 336.468 75.6097C339.258 74.2897 341.029 72.6097 344.529 72.8397C348.789 73.0497 354.199 79.0097 359.079 80.3897C360.839 81.5997 360.709 82.4695 358.249 82.9195C353.399 81.5095 349.019 74.0797 344.759 73.8497C341.249 73.6597 339.478 75.2897 336.688 76.5997C328.828 80.2797 321.328 82.9495 314.749 86.1495L314.559 85.2095Z" fill="#7B3A25"/>
<g style="mix-blend-mode:screen" opacity="0.3">
<path d="M263.349 99.2997C261.349 93.7497 264.489 89.5996 270.239 88.4896C275.989 87.3796 281.849 89.3197 283.609 95.1297C285.369 100.94 282.249 108.53 275.749 108.7C269.449 108.86 265.219 104.53 263.349 99.2997Z" fill="#E6E7E8"/>
</g>
<g style="mix-blend-mode:screen" opacity="0.3">
<path d="M280.849 98.3701C279.109 92.5301 273.409 90.5201 267.589 91.6201C266.065 91.8943 264.615 92.4798 263.329 93.3401C264.329 90.9001 266.819 89.15 270.239 88.49C276.099 87.36 281.839 89.3201 283.609 95.1301C284.949 99.5501 283.529 104.82 280.009 107.3C281.413 104.538 281.714 101.345 280.849 98.3701Z" fill="#E6E7E8"/>
</g>
<g style="mix-blend-mode:screen" opacity="0.3">
<path d="M293.54 93.17C291.64 87.29 295.79 83.3602 302.16 82.1202C308.53 80.8802 314.71 83.5601 316.35 89.7101C317.88 95.4901 316.28 101.19 309.65 103.14C303.02 105.09 295.47 99.18 293.54 93.17Z" fill="#E6E7E8"/>
</g>
<g style="mix-blend-mode:screen" opacity="0.3">
<path d="M313.219 93.5101C311.619 87.3301 305.629 84.5901 299.159 85.8101C297.154 86.1546 295.242 86.9068 293.539 88.0201C294.659 85.0201 297.879 82.9502 302.159 82.1202C308.669 80.8602 314.709 83.56 316.349 89.71C317.569 94.34 316.739 98.8901 312.949 101.54C313.9 98.962 313.995 96.1461 313.219 93.5101Z" fill="#E6E7E8"/>
</g>
<path d="M263.359 91.0198C267.869 87.0198 273.449 85.8597 280.729 88.4597C281.077 88.5898 281.45 88.6403 281.82 88.6074C282.191 88.5745 282.549 88.4592 282.869 88.2698C284.938 86.9264 287.438 86.4157 289.869 86.8398C290.264 86.93 290.676 86.9244 291.069 86.8235C291.462 86.7226 291.825 86.5293 292.129 86.2598C297.359 81.1698 303.599 79.9997 310.759 81.9097C313.29 83.0498 316.106 83.3984 318.839 82.9097L319.839 85.8498C317.899 86.6398 317.349 88.2198 318.349 90.9998C318.081 91.2382 317.752 91.3972 317.398 91.459C317.045 91.5208 316.682 91.4831 316.349 91.3498C314.209 84.9298 309.739 81.8198 302.349 82.8098C295.659 83.8098 292.729 87.1797 293.749 93.1497C293.689 93.349 293.578 93.5294 293.427 93.6724C293.275 93.8154 293.089 93.916 292.887 93.9646C292.684 94.0132 292.473 94.008 292.273 93.9492C292.073 93.8904 291.893 93.7804 291.749 93.6299C290.679 92.6299 290.749 91.4498 291.449 91.0398C291.346 90.4249 291.03 89.8657 290.556 89.46C290.083 89.0542 289.482 88.8276 288.859 88.8198C287.512 88.6988 286.159 88.966 284.959 89.5898C284.693 89.6954 284.452 89.8567 284.254 90.0632C284.055 90.2697 283.904 90.5164 283.809 90.7866C283.714 91.0568 283.678 91.3444 283.704 91.6296C283.73 91.9148 283.817 92.1909 283.959 92.4397C284.779 92.5797 285.049 93.6299 284.679 94.8699C284.409 95.7799 283.959 95.6698 283.179 95.0698C280.619 89.5098 276.239 87.6098 270.239 89.0698C263.989 90.6698 262.239 94.6398 263.989 100.58C263.774 100.781 263.506 100.915 263.217 100.966C262.928 101.018 262.63 100.984 262.359 100.87C261.659 98.2799 260.439 97.1598 258.609 97.0898L257.839 94.3997C260.041 94.0132 262.014 92.8053 263.359 91.0198Z" fill="#3F2216"/>
<path d="M293.529 92.8398C297.199 101.14 303.649 103.58 308.109 103.09C312.829 102.56 317.489 98.5298 316.409 91.0898H317.118C317.407 92.6222 317.385 94.1968 317.053 95.7205C316.722 97.2441 316.087 98.6856 315.189 99.9597C313.63 101.99 311.341 103.332 308.809 103.7L308.299 103.77C305.312 104.041 302.323 103.271 299.839 101.59C296.762 99.4655 294.365 96.496 292.939 93.0398L293.529 92.8398Z" fill="#3F2216"/>
<path d="M263.869 100.43C266.989 106.95 272.769 109.08 276.869 108.22C280.969 107.36 284.939 103.33 283.299 94.8398H283.919C284.659 98.6398 284.309 102 282.919 104.54C282.321 105.645 281.488 106.606 280.48 107.356C279.471 108.106 278.31 108.626 277.079 108.88L276.629 108.96C274.17 109.301 271.668 108.801 269.529 107.54C266.821 105.942 264.673 103.546 263.379 100.68L263.869 100.43Z" fill="#3F2216"/>
<path d="M316.929 84.5098L318.129 84.2799C318.162 84.2747 318.193 84.2623 318.22 84.2435C318.248 84.2246 318.271 84.1998 318.287 84.171C318.303 84.1421 318.313 84.1098 318.315 84.0767C318.317 84.0436 318.312 84.0105 318.299 83.9798C318.269 83.9117 318.218 83.8553 318.153 83.8192C318.088 83.783 318.013 83.7692 317.939 83.7799L316.739 84.0098C316.707 84.0135 316.676 84.0248 316.648 84.0426C316.621 84.0603 316.598 84.0842 316.582 84.1124C316.565 84.1405 316.555 84.1721 316.553 84.2047C316.551 84.2372 316.557 84.2698 316.569 84.2999C316.598 84.3699 316.648 84.4284 316.713 84.4664C316.779 84.5044 316.854 84.5197 316.929 84.5098Z" fill="#B3B3B3"/>
<path d="M258.99 95.1897L259.99 94.9998C260.02 94.9957 260.048 94.9849 260.074 94.9683C260.099 94.9516 260.12 94.9296 260.135 94.9036C260.15 94.8776 260.16 94.8485 260.162 94.8184C260.165 94.7883 260.161 94.7579 260.15 94.7297C260.135 94.6687 260.099 94.6155 260.047 94.5803C259.995 94.5451 259.932 94.5306 259.87 94.5398L258.87 94.7197C258.84 94.7266 258.813 94.7395 258.788 94.7576C258.764 94.7757 258.744 94.7987 258.729 94.825C258.714 94.8512 258.704 94.8803 258.701 94.9104C258.698 94.9405 258.701 94.9709 258.71 94.9998C258.726 95.0596 258.763 95.1116 258.815 95.1465C258.866 95.1813 258.928 95.1967 258.99 95.1897Z" fill="#B3B3B3"/>
<path d="M337.419 74.4398C336.819 79.3798 341.159 93.9798 341.159 93.9798C341.753 94.4673 342.464 94.7912 343.221 94.9193C343.979 95.0473 344.757 94.9751 345.479 94.7098C348.309 93.9298 350.329 82.8299 350.329 82.8299C350.329 82.8299 351.409 71.0298 346.329 69.2598C345.407 68.8802 344.41 68.7178 343.416 68.7855C342.422 68.8531 341.456 69.149 340.595 69.65C339.733 70.1509 338.998 70.8435 338.448 71.6741C337.897 72.5048 337.545 73.4511 337.419 74.4398Z" fill="#F7A379"/>
<g style="mix-blend-mode:multiply" opacity="0.3">
<g style="mix-blend-mode:multiply" opacity="0.3">
<path d="M273.05 20.5498C272.603 21.9509 271.821 23.2212 270.77 24.2498C269.891 20.8257 269.788 17.2485 270.47 13.7798C270.81 13.5256 271.168 13.2951 271.54 13.0898C270.857 14.0726 270.523 15.2558 270.592 16.4504C270.661 17.6451 271.128 18.782 271.92 19.6797L272.92 17.5298C273.203 18.1271 273.604 18.6609 274.099 19.0991C274.594 19.5374 275.173 19.871 275.8 20.0798C276.075 17.8401 276.752 15.6684 277.8 13.6697C277.967 16.6058 279.013 19.4242 280.8 21.7598C280.136 21.9912 279.426 22.0601 278.73 21.9609C278.035 21.8618 277.373 21.5973 276.8 21.1897C277.015 21.4729 277.181 21.791 277.29 22.1299C276.513 22.1658 275.737 22.0442 275.008 21.7727C274.28 21.5012 273.614 21.0853 273.05 20.5498Z" fill="#BD8242"/>
</g>
<g style="mix-blend-mode:multiply" opacity="0.3">
<path d="M304.25 4.85034L307.99 6.02026C308.199 6.21768 308.448 6.3677 308.72 6.46021C306.993 7.25438 305.056 7.47229 303.196 7.08154C301.336 6.69079 299.651 5.71217 298.39 4.29028L296.59 6.61035C296.258 5.87395 296.116 5.0661 296.177 4.26074C296.238 3.45538 296.501 2.67811 296.94 2.00024C297.1 2.00024 297.25 1.86031 297.41 1.82031C298.6 4.59031 301.85 6.02034 304.25 4.85034Z" fill="#BD8242"/>
</g>
<g style="mix-blend-mode:multiply" opacity="0.3">
<path d="M261.85 28.0901C261.95 27.4101 262.04 26.7301 262.13 26.0901L265.22 28.6899C264.651 26.3426 264.67 23.8909 265.278 21.553C265.885 19.2151 267.06 17.0636 268.7 15.29C267.827 17.0694 267.156 18.9412 266.7 20.8701C265.85 24.7601 266.28 29.13 268.78 32.23C267.584 32.2835 266.399 31.9778 265.378 31.3523C264.357 30.7268 263.546 29.81 263.05 28.72C262.92 29.38 262.78 30.04 262.64 30.72C259.94 30.11 259.58 26.8701 258.94 23.8801C259.12 23.5801 259.26 23.26 259.47 22.97C259.755 24.8698 260.582 26.6475 261.85 28.0901Z" fill="#BD8242"/>
</g>
<g style="mix-blend-mode:multiply" opacity="0.3">
<path d="M256.42 49.2402C257.39 49.6842 258.393 50.0521 259.42 50.3403C263.84 51.3403 268.42 50.6604 272.89 49.6304C285.82 46.6304 295.79 41.4304 309.06 41.3804C309.06 41.3804 310.56 41.3203 310.29 41.3203C290.86 41.9003 272.88 58.3204 261.88 53.8804C259.627 52.9292 257.722 51.3094 256.42 49.2402Z" fill="#BD8242"/>
</g>
<g style="mix-blend-mode:multiply" opacity="0.3">
<path d="M288.99 11.22L284.99 17.02C283.865 15.5515 283.278 13.7415 283.327 11.8923C283.377 10.0432 284.059 8.26685 285.26 6.86011C285.718 6.39386 286.213 5.96574 286.74 5.58008C286.92 5.52008 287.08 5.43012 287.25 5.37012C287.008 6.32908 286.972 7.32838 287.145 8.30225C287.317 9.27611 287.694 10.2023 288.25 11.02C288.459 10.4393 288.709 9.87455 289 9.33008C288.924 9.95759 288.921 10.5917 288.99 11.22Z" fill="#BD8242"/>
</g>
<g style="mix-blend-mode:multiply" opacity="0.3">
<path d="M316.301 3.33008C316.023 2.88799 315.843 2.39117 315.774 1.87354C315.705 1.3559 315.748 0.829556 315.9 0.330078C316.17 0.230078 316.42 0.08 316.69 0C317.12 2.87 321.55 5.35013 324.01 6.38013C325.452 6.86677 326.952 7.15593 328.47 7.23999C328.567 7.49707 328.681 7.7476 328.811 7.98999L319.9 5.37012C318.507 5.1104 317.24 4.39234 316.301 3.33008Z" fill="#BD8242"/>
</g>
<g style="mix-blend-mode:multiply" opacity="0.3">
<path d="M333.9 10.0203C331.05 9.02026 330.08 5.22038 331.13 2.39038C331.348 1.84484 331.619 1.32222 331.94 0.830322C332.314 0.611506 332.714 0.440174 333.13 0.320312C333.035 0.451724 332.948 0.588542 332.87 0.730225C332.338 1.66899 332.095 2.74381 332.172 3.82007C332.248 4.89633 332.641 5.92617 333.3 6.78027C333.801 5.51716 334.755 4.48622 335.975 3.88892C337.196 3.29161 338.595 3.17088 339.9 3.55029L339.48 3.80029C338.23 4.61029 341.22 11.0804 341.24 12.8804C341.303 12.9372 341.363 12.9972 341.42 13.0603C341.42 13.0603 342 13.0602 342.96 13.2102C342.486 13.3981 341.993 13.5324 341.49 13.6104C340.732 13.7115 339.961 13.58 339.279 13.2336C338.597 12.8873 338.036 12.3421 337.67 11.6702C336.72 9.51017 338.67 6.96022 337.94 4.73022C336.91 5.24888 336.012 5.99457 335.312 6.91089C334.612 7.82721 334.129 8.89032 333.9 10.0203Z" fill="#BD8242"/>
</g>
</g>
<g style="mix-blend-mode:multiply" opacity="0.3">
<path d="M310.85 37.23C304.188 37.1394 297.544 36.5209 290.98 35.3801C297.327 35.8231 303.703 35.232 309.86 33.6301C308.979 33.3119 308.126 32.9204 307.31 32.46C309.014 32.474 310.707 32.1864 312.31 31.6101C308.73 30.6801 304.92 29.6101 302.45 26.8501C306.748 28.9856 311.502 30.0425 316.3 29.9299C316.678 29.9404 317.055 29.8794 317.41 29.75C318.58 28.4 319.87 27.0299 321.26 25.6499L317.4 23.51C319.157 23.5401 320.913 23.46 322.66 23.27C321.664 22.9037 320.782 22.2831 320.1 21.47L322.18 21.2C321.699 21.0541 321.259 20.7972 320.896 20.4497C320.533 20.1022 320.257 19.674 320.09 19.2C321.689 19.3995 323.313 19.2703 324.86 18.8201L318.79 14.49C322.07 16.1114 325.682 16.9467 329.34 16.9299C329.011 16.5988 328.758 16.1995 328.6 15.76C329.769 15.9417 330.963 15.8492 332.09 15.49C330.783 15.1571 329.56 14.5541 328.5 13.72C330.939 14.7737 333.603 15.2033 336.25 14.97C337.91 14.1999 339.624 13.5549 341.38 13.04C341.38 13.04 328.44 19.4901 309.01 41.3601C309.01 41.3601 310.01 39.6601 311.7 37.1201C311.419 37.1749 311.135 37.2115 310.85 37.23Z" fill="#BD8242"/>
</g>
</svg>
