<svg width="352" height="428" viewBox="0 0 352 428" fill="none" xmlns="http://www.w3.org/2000/svg">
<path d="M19.8641 372.733C19.0541 370.983 20.244 368.733 22.544 367.733L15.8841 370.562C13.5741 371.562 11.1542 371.133 10.2342 369.133C9.31423 367.133 10.6142 365.133 12.9142 364.133L7.08408 366.613C6.06118 367.109 4.88719 367.194 3.80308 366.852C2.71896 366.51 1.80685 365.766 1.25401 364.772C1.05727 364.256 0.966248 363.705 0.985939 363.152C1.00563 362.599 1.13572 362.056 1.36875 361.555C1.60178 361.053 1.93295 360.604 2.34263 360.232C2.75231 359.861 3.23215 359.575 3.75401 359.393L8.75401 357.272C7.73029 357.764 6.55821 357.847 5.47544 357.505C4.39267 357.163 3.48051 356.422 2.92417 355.433C2.72743 354.916 2.63617 354.365 2.65586 353.812C2.67555 353.26 2.80564 352.717 3.03867 352.215C3.27171 351.714 3.60287 351.264 4.01255 350.892C4.42223 350.521 4.90231 350.235 5.42417 350.052L36.494 336.842L25.9342 332.663C23.3142 331.583 22.0242 329.042 22.9342 326.852L23.024 326.772C24.024 324.582 26.904 323.702 29.534 324.772L51.0541 330.243C57.3341 331.173 64.2341 332.883 67.5741 340.133C71.0541 347.663 67.4441 356.262 59.5741 359.592L52.0841 362.782L46.6642 365.082L25.4142 374.082C23.1642 375.142 20.6241 374.473 19.8641 372.733Z" fill="#FAA284"/>
<path d="M130.864 253.482C141.104 258.212 153.474 265.082 161.794 276.692C155.034 288.202 144.994 301.222 140.614 309.052C140.614 309.052 117.274 335.632 67.0139 352.462C67.0139 352.462 61.2241 343.022 56.4641 333.162C56.4641 333.162 96.5241 303.002 108.164 288.032C108.214 288.032 121.534 271.892 130.864 253.482Z" fill="#FAA284"/>
<path d="M150.085 215.142C165.265 186.952 176.855 176.782 176.855 176.782L183.425 242.572C183.425 242.572 171.515 264.152 159.485 280.842C148.895 274.952 136.985 265.372 127.305 257.662C136.445 240.752 142.765 228.732 150.085 215.142Z" fill="#BA2F24"/>
<path d="M122.284 267.283C122.284 267.283 118.284 266.573 121.444 260.953C124.604 255.333 128.914 245.553 132.724 247.883C132.724 247.883 153.104 265.443 166.724 271.323C166.724 271.323 168.984 272.323 166.574 275.663C164.164 279.003 159.804 289.663 154.764 286.953C154.814 286.953 131.864 274.823 122.284 267.283Z" fill="#D8453A"/>
<path d="M224.334 0.742773C224.334 0.742773 300.834 -10.7572 296.834 56.7428C292.834 124.243 310.014 190.573 308.424 238.573C308.424 238.573 251.524 258.573 180.184 238.573C180.184 238.573 182.584 145.513 174.054 81.2826C164.864 11.9926 188.994 -1.75723 224.334 0.742773Z" fill="url(#paint0_linear_1239_3908)"/>
<path d="M269.135 327.233C269.135 327.233 304.295 368.543 313.435 540.913C313.435 540.913 238.284 563.913 130.774 540.913C130.774 540.913 149.434 363.633 181.824 325.663L269.135 327.233Z" fill="#353B42"/>
<path d="M258.034 169.213C258.034 169.213 240.164 165.152 230.174 165.042C220.184 164.932 205.044 168.613 205.044 168.613C189.704 172.703 176.854 176.782 176.854 176.782L173.864 204.393C158.184 224.463 158.334 230.083 158.334 238.963C158.334 254.333 171.954 263.753 171.954 263.753L181.864 326.113C234.014 346.383 268.864 327.272 268.864 327.272C274.644 287.882 289.244 237.383 289.244 237.383V178.843C281.254 175.143 266.164 171.553 258.034 169.213Z" fill="#CE3B28"/>
<path opacity="0.2" d="M209.185 202.463L224.354 188.292L232.284 205.792C232.284 205.792 256.704 191.533 258.524 169.193C257.434 168.953 240.125 165.142 230.445 165.042C220.445 164.932 205.175 168.613 205.175 168.613L204.625 168.763C203.945 175.283 203.425 189.393 209.185 202.463Z" fill="black"/>
<path d="M217.074 157.032L216.985 181.782L247.264 181.903L247.395 149.703C238.45 155.603 227.726 158.195 217.074 157.032Z" fill="#FAA284"/>
<path d="M247.394 149.702L247.484 124.902L217.204 124.782L217.074 157.032C227.726 158.195 238.45 155.603 247.394 149.702Z" fill="#EF8D72"/>
<path d="M217.074 157.032C217.074 157.032 216.444 172.612 226.404 178.342C226.404 178.342 245.964 173.002 247.404 157.032L258.624 169.212C258.624 169.212 251.514 190.042 233.264 198.542L225.824 181.842L210.474 197.012C210.474 197.012 204.254 179.302 205.284 167.672L217.074 157.032Z" fill="#CE3B28"/>
<path opacity="0.1" d="M161.285 244.443C161.285 244.443 165.285 247.802 173.855 248.542C191.225 250.042 227.725 253.163 252.855 249.133C263.395 247.433 265.145 242.133 273.075 235.893C273.075 235.893 274.345 262.893 241.325 262.363C208.305 261.833 163.355 265.873 161.285 244.443Z" fill="black"/>
<path d="M266.344 76.0127C266.344 76.0127 280.344 77.5727 281.504 84.2427C282.664 90.9127 279.304 117.243 284.734 165.243C284.734 165.243 272.174 122.523 272.834 97.7126C272.864 97.7126 265.864 84.3927 266.344 76.0127Z" fill="#511E17"/>
<path d="M293.864 31.7527C290.213 21.2491 282.591 12.5939 272.634 7.64258C264.504 20.3926 244.724 32.2925 221.274 28.5725C200.474 25.2725 196.014 12.8027 195.514 4.22266C187.574 7.61266 181.264 13.5827 177.204 23.2227C214.544 53.6727 265.944 41.8227 293.864 31.7527Z" fill="#994A3D"/>
<path d="M173.164 73.8125C173.164 73.8125 175.234 131.533 176.504 160.573C177.834 190.993 176.324 225.573 167.084 238.243C167.084 238.243 197.504 244.243 200.834 222.913C204.164 201.583 197.694 99.5526 191.514 72.9126L173.164 73.8125Z" fill="#7C3425"/>
<path d="M273.674 82.3223L272.874 82.6023C272.874 82.6023 267.314 86.2425 266.344 76.0125C239.274 63.3925 221.254 28.5723 221.254 28.5723C188.994 32.9123 181.064 56.5724 180.184 76.4524C181.654 83.8724 183.494 95.7625 182.914 106.012C181.484 131.572 203.054 148.222 222.204 148.192C258.994 148.142 268.334 115.492 268.334 115.492C268.334 115.492 285.444 118.412 287.654 95.4324C289.464 76.6424 273.674 82.3223 273.674 82.3223Z" fill="#FAA284"/>
<g opacity="0.9">
<path opacity="0.09" d="M200.014 94.0525C203.04 94.6246 205.828 96.0812 208.027 98.2383C210.225 100.395 211.734 103.156 212.363 106.171C212.992 109.185 212.713 112.319 211.561 115.175C210.409 118.031 208.436 120.482 205.892 122.217C203.347 123.952 200.345 124.892 197.265 124.921C194.185 124.949 191.167 124.064 188.59 122.376C186.014 120.689 183.996 118.275 182.792 115.441C181.587 112.606 181.25 109.479 181.824 106.453C182.203 104.444 182.975 102.529 184.094 100.818C185.214 99.1077 186.66 97.6347 188.349 96.4831C190.038 95.3316 191.938 94.524 193.94 94.1069C195.941 93.6899 198.005 93.6714 200.014 94.0525Z" fill="#EA7460"/>
<path opacity="0.18" d="M199.735 95.5224C202.469 96.0397 204.988 97.3563 206.974 99.3054C208.961 101.255 210.324 103.749 210.893 106.473C211.461 109.197 211.209 112.029 210.169 114.609C209.128 117.19 207.345 119.404 205.046 120.972C202.747 122.54 200.034 123.391 197.252 123.417C194.469 123.443 191.741 122.643 189.413 121.119C187.085 119.595 185.261 117.415 184.172 114.854C183.083 112.293 182.777 109.467 183.295 106.733C183.638 104.917 184.336 103.187 185.348 101.641C186.36 100.095 187.666 98.7636 189.193 97.7226C190.72 96.6817 192.436 95.9517 194.245 95.5742C196.054 95.1967 197.919 95.179 199.735 95.5224Z" fill="#EA7460"/>
<path opacity="0.27" d="M199.454 97.0027C201.894 97.4654 204.143 98.6415 205.915 100.382C207.687 102.123 208.904 104.35 209.41 106.782C209.917 109.214 209.69 111.742 208.76 114.045C207.83 116.349 206.238 118.325 204.185 119.723C202.132 121.122 199.71 121.88 197.226 121.902C194.742 121.924 192.307 121.209 190.229 119.848C188.152 118.486 186.525 116.539 185.553 114.253C184.582 111.966 184.311 109.443 184.774 107.003C185.394 103.73 187.29 100.838 190.043 98.9624C192.796 97.087 196.181 96.3821 199.454 97.0027Z" fill="#EA7460"/>
<path opacity="0.36" d="M199.175 98.4724C201.326 98.8784 203.309 99.9133 204.873 101.446C206.436 102.98 207.509 104.942 207.957 107.085C208.405 109.229 208.208 111.457 207.389 113.488C206.571 115.519 205.168 117.261 203.36 118.495C201.551 119.729 199.417 120.399 197.227 120.42C195.037 120.44 192.891 119.812 191.059 118.612C189.227 117.413 187.791 115.698 186.935 113.683C186.078 111.668 185.837 109.444 186.244 107.292C186.79 104.408 188.459 101.859 190.883 100.205C193.308 98.5513 196.29 97.928 199.175 98.4724Z" fill="#EA7460"/>
<path opacity="0.45" d="M198.864 99.943C200.724 100.295 202.438 101.19 203.789 102.516C205.14 103.842 206.068 105.539 206.454 107.392C206.841 109.245 206.669 111.171 205.961 112.926C205.253 114.682 204.04 116.188 202.476 117.254C200.912 118.32 199.066 118.899 197.173 118.916C195.281 118.933 193.425 118.389 191.842 117.351C190.258 116.314 189.018 114.83 188.278 113.088C187.538 111.345 187.331 109.423 187.684 107.563C188.157 105.07 189.6 102.867 191.696 101.439C193.793 100.01 196.371 99.4717 198.864 99.943Z" fill="#EA7460"/>
<path opacity="0.55" d="M198.614 101.393C200.183 101.69 201.628 102.445 202.767 103.564C203.906 104.683 204.687 106.114 205.012 107.677C205.338 109.24 205.192 110.864 204.594 112.344C203.996 113.824 202.973 115.094 201.653 115.992C200.334 116.891 198.777 117.377 197.181 117.391C195.585 117.405 194.02 116.945 192.685 116.069C191.351 115.193 190.305 113.942 189.682 112.472C189.059 111.002 188.886 109.381 189.184 107.813C189.584 105.711 190.802 103.854 192.57 102.651C194.338 101.447 196.512 100.994 198.614 101.393Z" fill="#EA7460"/>
<path opacity="0.64" d="M198.345 102.893C199.621 103.135 200.797 103.75 201.724 104.661C202.651 105.572 203.287 106.737 203.552 108.009C203.816 109.281 203.698 110.603 203.211 111.808C202.725 113.013 201.892 114.046 200.818 114.778C199.744 115.509 198.477 115.906 197.177 115.917C195.878 115.928 194.604 115.554 193.518 114.842C192.431 114.13 191.58 113.111 191.072 111.915C190.564 110.719 190.422 109.399 190.665 108.123C190.826 107.275 191.152 106.467 191.625 105.746C192.098 105.024 192.708 104.403 193.422 103.917C194.135 103.431 194.936 103.091 195.781 102.915C196.626 102.739 197.497 102.732 198.345 102.893Z" fill="#EA7460"/>
<path opacity="0.73" d="M198.064 104.393C199.05 104.582 199.957 105.059 200.672 105.765C201.386 106.47 201.874 107.372 202.076 108.355C202.277 109.338 202.182 110.359 201.802 111.289C201.423 112.218 200.776 113.014 199.944 113.575C199.112 114.136 198.132 114.438 197.128 114.442C196.124 114.446 195.142 114.151 194.305 113.596C193.469 113.041 192.816 112.25 192.43 111.324C192.043 110.398 191.94 109.378 192.134 108.393C192.393 107.077 193.162 105.918 194.274 105.169C195.385 104.419 196.748 104.14 198.064 104.393Z" fill="#EA7460"/>
<path opacity="0.82" d="M197.784 105.832C198.477 105.965 199.115 106.3 199.618 106.795C200.121 107.29 200.466 107.922 200.609 108.613C200.752 109.304 200.688 110.022 200.424 110.676C200.16 111.33 199.708 111.891 199.125 112.288C198.542 112.686 197.854 112.902 197.149 112.909C196.443 112.916 195.752 112.714 195.161 112.328C194.57 111.942 194.108 111.39 193.831 110.741C193.553 110.092 193.475 109.376 193.604 108.683C193.781 107.751 194.321 106.927 195.105 106.393C195.889 105.858 196.852 105.657 197.784 105.832Z" fill="#EA7460"/>
<path opacity="0.91" d="M197.504 107.313C197.906 107.389 198.277 107.583 198.569 107.87C198.861 108.157 199.061 108.523 199.145 108.924C199.228 109.325 199.191 109.741 199.038 110.121C198.885 110.501 198.623 110.826 198.285 111.057C197.946 111.287 197.547 111.412 197.138 111.416C196.729 111.42 196.328 111.303 195.985 111.078C195.643 110.854 195.374 110.534 195.214 110.157C195.054 109.78 195.008 109.365 195.084 108.963C195.135 108.695 195.237 108.441 195.386 108.213C195.535 107.985 195.728 107.789 195.953 107.636C196.177 107.483 196.43 107.375 196.696 107.32C196.962 107.264 197.237 107.262 197.504 107.313Z" fill="#EA7460"/>
<path opacity="0.9" d="M197.675 109.453C197.643 109.598 197.556 109.724 197.433 109.806C197.309 109.888 197.158 109.919 197.013 109.892C196.867 109.864 196.738 109.781 196.652 109.66C196.567 109.539 196.532 109.389 196.555 109.243C196.568 109.168 196.596 109.097 196.637 109.033C196.678 108.97 196.731 108.915 196.793 108.872C196.856 108.829 196.926 108.799 197 108.784C197.074 108.769 197.151 108.768 197.225 108.782C197.299 108.796 197.37 108.824 197.433 108.865C197.496 108.906 197.55 108.959 197.592 109.022C197.634 109.084 197.663 109.155 197.678 109.229C197.692 109.303 197.691 109.379 197.675 109.453Z" fill="#EA7460"/>
</g>
<g opacity="0.9">
<path opacity="0.09" d="M249.394 92.9426C252.633 93.5576 255.616 95.119 257.968 97.4294C260.319 99.7398 261.933 102.696 262.604 105.923C263.276 109.15 262.976 112.504 261.742 115.561C260.508 118.617 258.395 121.24 255.671 123.096C252.947 124.952 249.733 125.959 246.437 125.989C243.141 126.019 239.909 125.072 237.151 123.266C234.394 121.46 232.233 118.877 230.943 115.843C229.653 112.809 229.292 109.462 229.904 106.223C230.311 104.071 231.138 102.02 232.338 100.187C233.538 98.3549 235.087 96.777 236.897 95.5437C238.707 94.3104 240.743 93.4461 242.887 92.9997C245.031 92.5534 247.243 92.5339 249.394 92.9426Z" fill="#EA7460"/>
<path opacity="0.18" d="M249.094 94.5125C252.023 95.067 254.721 96.4775 256.848 98.5657C258.975 100.654 260.435 103.326 261.043 106.244C261.652 109.162 261.381 112.195 260.265 114.959C259.15 117.723 257.24 120.094 254.777 121.773C252.313 123.451 249.408 124.362 246.427 124.389C243.446 124.416 240.525 123.558 238.032 121.925C235.539 120.291 233.586 117.955 232.42 115.212C231.255 112.468 230.929 109.441 231.484 106.512C232.231 102.587 234.505 99.1191 237.806 96.8692C241.108 94.6193 245.168 93.7717 249.094 94.5125Z" fill="#EA7460"/>
<path opacity="0.27" d="M248.794 96.0924C251.41 96.5879 253.82 97.8479 255.719 99.713C257.619 101.578 258.923 103.965 259.466 106.571C260.009 109.177 259.767 111.885 258.771 114.354C257.775 116.823 256.069 118.941 253.869 120.44C251.669 121.939 249.074 122.752 246.412 122.777C243.75 122.801 241.141 122.035 238.914 120.577C236.687 119.118 234.943 117.032 233.901 114.582C232.86 112.132 232.569 109.428 233.064 106.812C233.731 103.306 235.762 100.208 238.711 98.1981C241.661 96.1882 245.287 95.4308 248.794 96.0924Z" fill="#EA7460"/>
<path opacity="0.36" d="M248.494 97.6726C250.797 98.109 252.918 99.2183 254.59 100.86C256.262 102.502 257.41 104.603 257.888 106.897C258.367 109.192 258.154 111.576 257.277 113.75C256.4 115.923 254.898 117.787 252.962 119.107C251.025 120.427 248.741 121.143 246.397 121.165C244.054 121.186 241.757 120.513 239.796 119.229C237.836 117.945 236.3 116.109 235.383 113.952C234.466 111.795 234.209 109.415 234.644 107.113C234.934 105.583 235.521 104.126 236.374 102.824C237.227 101.522 238.328 100.4 239.614 99.5234C240.9 98.6468 242.346 98.0322 243.87 97.7146C245.394 97.397 246.965 97.3828 248.494 97.6726Z" fill="#EA7460"/>
<path opacity="0.45" d="M248.194 99.2523C250.181 99.6351 252.01 100.598 253.45 102.019C254.89 103.441 255.877 105.257 256.286 107.238C256.695 109.22 256.507 111.279 255.747 113.154C254.987 115.029 253.688 116.637 252.015 117.775C250.342 118.913 248.369 119.53 246.346 119.547C244.322 119.565 242.339 118.982 240.646 117.873C238.954 116.765 237.627 115.179 236.835 113.318C236.043 111.456 235.82 109.401 236.194 107.412C236.444 106.087 236.952 104.825 237.691 103.697C238.43 102.569 239.384 101.598 240.499 100.84C241.614 100.082 242.868 99.5509 244.188 99.2785C245.509 99.006 246.87 98.9973 248.194 99.2523Z" fill="#EA7460"/>
<path opacity="0.55" d="M247.864 100.823C249.546 101.139 251.096 101.948 252.318 103.146C253.54 104.343 254.379 105.877 254.73 107.552C255.08 109.227 254.926 110.968 254.286 112.555C253.647 114.143 252.551 115.505 251.138 116.469C249.724 117.433 248.056 117.957 246.345 117.973C244.634 117.989 242.956 117.497 241.525 116.56C240.093 115.623 238.972 114.282 238.302 112.707C237.633 111.132 237.446 109.394 237.764 107.713C238.194 105.462 239.498 103.473 241.391 102.181C243.284 100.89 245.612 100.401 247.864 100.823Z" fill="#EA7460"/>
<path opacity="0.64" d="M247.594 102.393C248.95 102.656 250.198 103.315 251.181 104.286C252.163 105.257 252.836 106.497 253.115 107.849C253.395 109.202 253.267 110.607 252.749 111.888C252.232 113.169 251.347 114.267 250.206 115.046C249.065 115.825 247.719 116.248 246.338 116.264C244.957 116.279 243.602 115.886 242.444 115.133C241.286 114.38 240.376 113.301 239.83 112.032C239.284 110.763 239.125 109.361 239.374 108.003C239.541 107.092 239.887 106.224 240.391 105.448C240.896 104.672 241.549 104.004 242.314 103.482C243.078 102.961 243.938 102.596 244.845 102.409C245.751 102.222 246.686 102.216 247.594 102.393Z" fill="#EA7460"/>
<path opacity="0.73" d="M247.294 103.982C248.349 104.181 249.322 104.688 250.09 105.44C250.857 106.191 251.384 107.154 251.604 108.205C251.825 109.256 251.728 110.349 251.327 111.345C250.926 112.342 250.239 113.197 249.352 113.803C248.465 114.408 247.418 114.738 246.344 114.748C245.27 114.759 244.217 114.451 243.318 113.864C242.419 113.276 241.715 112.435 241.294 111.447C240.873 110.459 240.755 109.368 240.954 108.312C241.221 106.897 242.038 105.647 243.227 104.835C244.416 104.023 245.879 103.716 247.294 103.982Z" fill="#EA7460"/>
<path opacity="0.82" d="M246.994 105.563C247.738 105.704 248.423 106.064 248.962 106.596C249.501 107.127 249.87 107.807 250.022 108.549C250.174 109.291 250.102 110.061 249.815 110.762C249.528 111.463 249.04 112.062 248.412 112.485C247.783 112.908 247.044 113.134 246.287 113.135C245.529 113.136 244.789 112.913 244.159 112.493C243.529 112.072 243.039 111.474 242.75 110.775C242.46 110.075 242.385 109.305 242.534 108.563C242.733 107.576 243.313 106.707 244.148 106.146C244.983 105.584 246.006 105.374 246.994 105.563Z" fill="#EA7460"/>
<path opacity="0.91" d="M246.704 107.142C247.268 107.266 247.762 107.605 248.081 108.088C248.399 108.57 248.517 109.158 248.409 109.726C248.301 110.294 247.976 110.797 247.502 111.129C247.029 111.461 246.444 111.595 245.874 111.502C245.581 111.455 245.3 111.349 245.049 111.192C244.798 111.034 244.58 110.828 244.41 110.585C244.24 110.342 244.12 110.067 244.058 109.777C243.995 109.487 243.992 109.187 244.048 108.896C244.103 108.604 244.216 108.327 244.381 108.08C244.545 107.833 244.758 107.621 245.005 107.458C245.253 107.295 245.531 107.182 245.822 107.128C246.114 107.074 246.414 107.079 246.704 107.142Z" fill="#EA7460"/>
<path opacity="0.9" d="M246.864 109.393C246.842 109.514 246.785 109.625 246.699 109.714C246.613 109.802 246.503 109.862 246.383 109.888C246.262 109.913 246.137 109.902 246.023 109.856C245.909 109.81 245.811 109.732 245.742 109.63C245.673 109.528 245.636 109.408 245.635 109.285C245.634 109.162 245.669 109.042 245.737 108.939C245.805 108.837 245.902 108.757 246.015 108.709C246.129 108.662 246.254 108.649 246.374 108.673C246.533 108.707 246.673 108.8 246.764 108.935C246.855 109.069 246.891 109.233 246.864 109.393Z" fill="#EA7460"/>
</g>
<path d="M221.784 112.203C215.394 115.113 211.374 113.603 210.554 109.312C210.004 106.522 211.634 103.312 213.384 101.772C216.974 98.5925 218.574 89.2626 218.594 89.1626C218.874 91.1626 218.464 98.9525 214.084 104.363C213.642 104.857 213.306 105.437 213.097 106.066C212.889 106.696 212.813 107.362 212.874 108.022C213.104 111.212 216.164 113.703 221.784 112.203Z" fill="#DB7C65"/>
<path d="M242.262 88.0521C248.262 88.0521 251.028 92.0523 251.029 94.9062C251.029 94.9062 251.967 97.5626 241.261 98.5522C232.515 98.4067 229.653 95.9388 229.673 95.2879C229.714 93.5407 231.262 88.5522 242.262 88.0521Z" fill="#F2F0F0"/>
<path d="M236.137 92.1454C236.173 91.293 236.463 90.4707 236.969 89.7842C237.475 89.0976 238.175 88.5781 238.979 88.2922C239.783 88.0064 240.654 87.9672 241.48 88.1799C242.306 88.3926 243.05 88.8473 243.616 89.4857C244.182 90.1242 244.544 90.9171 244.656 91.7629C244.768 92.6086 244.625 93.4686 244.245 94.2323C243.865 94.996 243.265 95.6287 242.522 96.0491C241.78 96.4695 240.929 96.6584 240.078 96.5917C238.97 96.5149 237.936 96.0059 237.199 95.1744C236.461 94.3428 236.08 93.2551 236.137 92.1454Z" fill="#487CB8"/>
<path d="M237.376 92.2357C237.451 91.4469 237.836 90.72 238.445 90.2136C239.054 89.7072 239.839 89.4624 240.629 89.5328C241.014 89.5624 241.39 89.6677 241.734 89.8426C242.079 90.0175 242.386 90.2586 242.638 90.5521C242.889 90.8456 243.08 91.1858 243.201 91.5532C243.321 91.9206 243.367 92.3081 243.337 92.6935C243.308 93.0789 243.203 93.4547 243.028 93.7994C242.853 94.1441 242.612 94.4509 242.318 94.7025C242.025 94.954 241.685 95.1453 241.317 95.2653C240.95 95.3854 240.562 95.432 240.177 95.4023C239.386 95.351 238.648 94.9893 238.124 94.3961C237.599 93.8029 237.33 93.0263 237.376 92.2357Z" fill="#18100E"/>
<path d="M236.157 90.9783C236.169 90.8143 236.213 90.6543 236.287 90.5072C236.36 90.3602 236.462 90.2292 236.586 90.1215C236.71 90.0138 236.854 89.9316 237.01 89.8796C237.166 89.8277 237.331 89.807 237.495 89.8186C237.659 89.8303 237.819 89.8742 237.966 89.9477C238.113 90.0212 238.244 90.123 238.352 90.2472C238.459 90.3713 238.542 90.5155 238.594 90.6715C238.646 90.8274 238.666 90.9921 238.655 91.156C238.624 91.4829 238.466 91.7846 238.215 91.9961C237.964 92.2075 237.64 92.3117 237.313 92.2861C236.987 92.2642 236.682 92.1146 236.466 91.8697C236.25 91.6249 236.139 91.3045 236.157 90.9783Z" fill="#EFECEC"/>
<path d="M241.251 84.4402C228.854 84.1853 229.687 93.2349 229.687 93.2349C229.687 93.2349 233.198 87.1924 241.825 87.6703C247.112 87.9599 251.042 92.8533 251.042 92.8533C251.042 92.8533 250.59 84.6248 241.251 84.4402Z" fill="#E6966E"/>
<path d="M241.347 86.8842C230.625 86.1457 229.685 93.2348 229.685 93.2348C229.685 93.2348 233.915 87.121 241.457 88.2434C248.347 89.2651 251.036 92.8235 251.036 92.8235C251.036 92.8235 250.563 87.513 241.347 86.8842Z" fill="#412118"/>
<path d="M195.316 87.052C187.816 87.552 185.152 91.552 185.152 94.8792C185.152 94.8792 185.902 98.1231 195.816 98.5522C205.328 98.4164 206.546 95.5238 206.526 94.9399C206.526 90.5522 202.316 88.0524 195.316 87.052Z" fill="#F2F0F0"/>
<path d="M200.005 91.9176C199.882 90.8094 199.327 89.7947 198.459 89.094C197.592 88.3933 196.483 88.0633 195.374 88.1758C194.564 88.2738 193.801 88.6082 193.18 89.1373C192.56 89.6663 192.109 90.3666 191.884 91.1506C191.659 91.9345 191.669 92.7675 191.915 93.5453C192.161 94.3231 192.63 95.0112 193.264 95.5238C193.899 96.0364 194.67 96.3507 195.482 96.4274C196.294 96.5041 197.111 96.3398 197.83 95.9551C198.549 95.5703 199.139 94.9822 199.526 94.2641C199.913 93.546 200.08 92.7298 200.005 91.9176Z" fill="#487CB8"/>
<path d="M198.718 92.037C198.676 91.4428 198.459 90.8745 198.093 90.4045C197.727 89.9344 197.23 89.5839 196.664 89.3975C196.098 89.2111 195.49 89.1973 194.916 89.3579C194.343 89.5184 193.83 89.8461 193.443 90.2991C193.057 90.7521 192.814 91.3099 192.745 91.9015C192.677 92.4931 192.786 93.0918 193.058 93.6212C193.331 94.1506 193.755 94.5869 194.277 94.8743C194.799 95.1618 195.394 95.2874 195.988 95.2353C196.771 95.1665 197.496 94.7928 198.007 94.1946C198.517 93.5964 198.773 92.8216 198.718 92.037Z" fill="#18100E"/>
<path d="M193.655 91.1257C193.64 90.8771 193.551 90.6387 193.4 90.441C193.249 90.2432 193.042 90.0953 192.806 90.016C192.57 89.9367 192.315 89.9297 192.075 89.996C191.835 90.0622 191.62 90.1986 191.458 90.3878C191.296 90.5769 191.194 90.8101 191.166 91.0575C191.137 91.3049 191.183 91.5552 191.298 91.7763C191.412 91.9974 191.59 92.1792 191.809 92.2984C192.028 92.4176 192.277 92.4688 192.525 92.4454C192.687 92.4354 192.845 92.3931 192.99 92.3208C193.135 92.2486 193.264 92.1479 193.37 92.0248C193.475 91.9017 193.555 91.7587 193.604 91.6042C193.653 91.4498 193.67 91.2871 193.655 91.1257Z" fill="#EFECEC"/>
<path d="M194.876 84.411C206.541 83.6059 206.52 92.8898 206.52 92.8898C206.52 92.8898 202.907 86.9147 194.282 87.5498C188.997 87.9278 185.163 92.8769 185.163 92.8769C185.163 92.8769 184.794 85.1112 194.876 84.411Z" fill="#E6966E"/>
<path d="M195.092 86.8976C205.804 86.5345 206.52 92.8899 206.52 92.8899C205.086 91.1776 203.252 89.8449 201.18 89.0097C199.108 88.1745 196.863 87.8625 194.642 88.1012C187.665 88.7933 185.144 92.8801 185.144 92.8801C185.144 92.8801 185.679 87.2203 195.092 86.8976Z" fill="#412118"/>
<path d="M265.584 107.743C265.584 107.743 263.014 127.613 237.774 138.423C215.534 147.943 193.834 133.202 188.994 129.562C196.544 141.302 209.864 148.213 222.204 148.193C258.994 148.143 268.334 115.493 268.334 115.493C271.669 115.923 275.054 115.284 278.001 113.666C280.949 112.048 283.307 109.537 284.734 106.493C274.144 116.533 265.584 107.743 265.584 107.743Z" fill="#EF8D72"/>
<path d="M208.225 72.6627C208.225 72.6627 199.224 70.2226 186.884 73.8126C186.884 73.8126 186.804 72.8927 189.124 70.9127C191.444 68.9327 199.414 67.0427 206.384 69.9127C206.384 69.9027 210.005 71.8327 208.225 72.6627Z" fill="#7C3425"/>
<path d="M228.864 72.1423C228.864 72.1423 237.864 69.5323 250.234 72.9023C250.234 72.9023 250.284 71.9822 247.934 70.0422C245.584 68.1022 237.574 66.3623 230.654 69.3423C230.634 69.3923 227.054 71.3923 228.864 72.1423Z" fill="#7C3425"/>
<path d="M235.084 118.112C235.084 118.112 220.794 121.262 207.434 118.542C207.434 118.542 209.984 130.762 221.434 130.542C232.254 130.392 234.994 120.482 235.084 118.112Z" fill="white"/>
<path d="M221.255 28.5723C188.995 32.9123 181.065 56.5724 180.185 76.4524C180.185 76.4524 183.405 38.8524 216.115 32.4524C216.115 32.4524 226.515 63.3122 266.345 76.0522C239.275 63.3922 221.255 28.5723 221.255 28.5723Z" fill="#EF8D72"/>
<g filter="url(#filter0_b_1239_3908)">
<path d="M178.555 94.713C176.386 85.4478 182.138 76.1779 191.403 74.0082C200.668 71.8385 209.938 77.5905 212.108 86.8557C214.277 96.1209 208.525 105.391 199.26 107.56C189.995 109.73 180.725 103.978 178.555 94.713Z" fill="url(#paint1_linear_1239_3908)"/>
</g>
<g filter="url(#filter1_b_1239_3908)">
<path d="M224.544 94.7115C222.374 85.4463 228.126 76.1765 237.391 74.0068C246.656 71.837 255.926 77.589 258.096 86.8543C260.266 96.1195 254.514 105.389 245.248 107.559C235.983 109.729 226.713 103.977 224.544 94.7115Z" fill="url(#paint2_linear_1239_3908)"/>
</g>
<path d="M213.334 91.0428C213.334 87.4511 212.269 83.9401 210.273 80.9537C208.278 77.9673 205.442 75.6397 202.124 74.2652C198.805 72.8907 195.154 72.531 191.631 73.2317C188.108 73.9325 184.873 75.662 182.333 78.2017C179.793 80.7414 178.064 83.9774 177.363 87.5001C176.662 91.0228 177.022 94.6742 178.396 97.9925C179.771 101.311 182.099 104.147 185.085 106.142C188.071 108.138 191.582 109.203 195.174 109.203C199.99 109.2 204.607 107.286 208.012 103.881C211.417 100.476 213.331 95.8583 213.334 91.0428ZM211.334 91.0428C211.334 94.2389 210.386 97.3633 208.611 100.021C206.835 102.678 204.311 104.75 201.358 105.973C198.405 107.196 195.156 107.516 192.021 106.892C188.887 106.269 186.007 104.73 183.747 102.47C181.487 100.21 179.948 97.3304 179.324 94.1956C178.701 91.0609 179.021 87.8116 180.244 84.8587C181.467 81.9058 183.539 79.3819 186.196 77.6063C188.854 75.8306 191.978 74.8829 195.174 74.8829C199.459 74.8855 203.568 76.5889 206.598 79.619C209.628 82.649 211.331 86.7577 211.334 91.0428Z" fill="#CE3B28"/>
<path d="M259.334 91.0428C259.334 87.4511 258.269 83.9401 256.273 80.9537C254.278 77.9673 251.442 75.6397 248.124 74.2652C244.805 72.8907 241.154 72.531 237.631 73.2317C234.108 73.9325 230.873 75.662 228.333 78.2017C225.793 80.7414 224.064 83.9774 223.363 87.5001C222.662 91.0228 223.022 94.6742 224.396 97.9925C225.771 101.311 228.099 104.147 231.085 106.142C234.071 108.138 237.582 109.203 241.174 109.203C245.99 109.2 250.607 107.286 254.012 103.881C257.417 100.476 259.331 95.8583 259.334 91.0428ZM257.334 91.0428C257.334 94.2389 256.386 97.3633 254.611 100.021C252.835 102.678 250.311 104.75 247.358 105.973C244.405 107.196 241.156 107.516 238.021 106.892C234.887 106.269 232.007 104.73 229.747 102.47C227.487 100.21 225.948 97.3304 225.324 94.1956C224.701 91.0609 225.021 87.8116 226.244 84.8587C227.467 81.9058 229.539 79.3819 232.196 77.6063C234.854 75.8306 237.978 74.8829 241.174 74.8829C245.459 74.8855 249.568 76.5889 252.598 79.619C255.628 82.649 257.331 86.7577 257.334 91.0428Z" fill="#CE3B28"/>
<path d="M223.614 90.1028C220.117 88.7506 216.241 88.7506 212.744 90.1028L211.864 88.3128C212.074 88.2028 217.164 85.733 224.284 88.263L223.614 90.1028Z" fill="#CE3B28"/>
<path d="M258.794 89.1923L257.614 87.5722C258.004 87.2922 270.084 77.7722 277.004 81.5722L274.914 81.9323C267.224 81.8323 258.864 89.1323 258.794 89.1923Z" fill="#CE3B28"/>
<path d="M272.225 233.352L350.544 360.707L261.742 415.317L183.423 287.962L272.225 233.352Z" fill="#4EBCCE"/>
<path d="M291.923 254.146L298.559 264.992L263.113 286.676L256.478 275.83L291.923 254.146Z" fill="#E2D5D5"/>
<path d="M209.745 271.743L288.063 399.098L261.751 415.28L183.432 287.924L209.745 271.743Z" fill="#3AA2AD"/>
<path d="M208.971 280.781L252.905 352.223L235.145 363.145L191.21 291.703L208.971 280.781Z" fill="#E2D5D5"/>
<path d="M271.155 384.933C267.985 379.783 261.884 377.783 257.524 380.463C253.164 383.143 252.205 389.463 255.365 394.643C258.525 399.823 264.625 401.783 268.985 399.103C273.345 396.423 274.315 390.073 271.155 384.933Z" fill="#26767A"/>
<path d="M211.98 288.405L212.934 289.955L197.805 299.258L196.852 297.708L211.98 288.405Z" fill="#BCACAC"/>
<path d="M216.775 296.091L217.729 297.642L202.599 306.942L201.646 305.392L216.775 296.091Z" fill="#BCACAC"/>
<path d="M219.142 300.065L220.096 301.615L204.967 310.919L204.014 309.368L219.142 300.065Z" fill="#BCACAC"/>
<path d="M221.54 303.944L222.493 305.494L207.365 314.797L206.411 313.247L221.54 303.944Z" fill="#BCACAC"/>
<path d="M224.368 308.771L225.321 310.321L210.193 319.625L209.24 318.074L224.368 308.771Z" fill="#BCACAC"/>
<path d="M227.137 313.868L228.09 315.418L212.962 324.721L212.008 323.171L227.137 313.868Z" fill="#BCACAC"/>
<path d="M230.131 317.913L231.084 319.464L215.956 328.767L215.002 327.217L230.131 317.913Z" fill="#BCACAC"/>
<path d="M216.223 268.131L294.564 395.473L287.989 399.518L209.648 272.176L216.223 268.131Z" fill="#59CCD8"/>
<path d="M228.134 334.132C227.346 333.741 226.665 333.161 226.154 332.444C225.643 331.728 225.317 330.895 225.204 330.022C263.394 318.762 266.994 346.492 266.994 346.492C268.774 363.032 252.284 363.552 239.324 366.492C223.324 370.162 215.404 349.062 215.404 349.062C203.274 343.532 220.144 336.932 228.134 334.132Z" fill="#FAA284"/>
<path d="M290.124 245.593C290.124 245.593 269.204 197.593 289.254 178.803C289.254 178.803 321.474 186.223 342.784 264.593L302.784 276.593L290.124 245.593Z" fill="#CE3B28"/>
<path d="M257.384 331.393L311.484 300.292L302.744 276.643L342.744 264.643C346.397 277.532 349.358 290.607 351.614 303.812C351.614 303.812 358.544 335.442 264.614 357.042C264.694 356.992 252.574 340.393 257.384 331.393Z" fill="#FAA284"/>
<path d="M344.864 276.022C344.864 276.022 348.864 276.212 347.074 270.022C345.284 263.832 343.174 253.362 338.944 254.802C338.944 254.802 315.204 267.452 300.574 270.172C300.574 270.172 298.144 270.643 299.764 274.443C301.384 278.243 303.294 289.552 308.764 288.052C308.784 288.052 333.864 281.272 344.864 276.022Z" fill="#D8453A"/>
<defs>
<filter id="filter0_b_1239_3908" x="176.098" y="71.5503" width="38.4678" height="38.4678" filterUnits="userSpaceOnUse" color-interpolation-filters="sRGB">
<feFlood flood-opacity="0" result="BackgroundImageFix"/>
<feGaussianBlur in="BackgroundImage" stdDeviation="1"/>
<feComposite in2="SourceAlpha" operator="in" result="effect1_backgroundBlur_1239_3908"/>
<feBlend mode="normal" in="SourceGraphic" in2="effect1_backgroundBlur_1239_3908" result="shape"/>
</filter>
<filter id="filter1_b_1239_3908" x="222.086" y="71.5488" width="38.4678" height="38.4678" filterUnits="userSpaceOnUse" color-interpolation-filters="sRGB">
<feFlood flood-opacity="0" result="BackgroundImageFix"/>
<feGaussianBlur in="BackgroundImage" stdDeviation="1"/>
<feComposite in2="SourceAlpha" operator="in" result="effect1_backgroundBlur_1239_3908"/>
<feBlend mode="normal" in="SourceGraphic" in2="effect1_backgroundBlur_1239_3908" result="shape"/>
</filter>
<linearGradient id="paint0_linear_1239_3908" x1="477473" y1="842960" x2="488112" y2="861444" gradientUnits="userSpaceOnUse">
<stop stop-color="#7C3425"/>
<stop offset="1" stop-color="#60261D"/>
</linearGradient>
<linearGradient id="paint1_linear_1239_3908" x1="63871.7" y1="384859" x2="70100" y2="383400" gradientUnits="userSpaceOnUse">
<stop stop-color="white" stop-opacity="0.8"/>
<stop offset="1" stop-color="white" stop-opacity="0.3"/>
</linearGradient>
<linearGradient id="paint2_linear_1239_3908" x1="63917.7" y1="384859" x2="70146" y2="383400" gradientUnits="userSpaceOnUse">
<stop stop-color="white" stop-opacity="0.8"/>
<stop offset="1" stop-color="white" stop-opacity="0.3"/>
</linearGradient>
</defs>
</svg>
