<svg width="286" height="428" viewBox="0 0 286 428" fill="none" xmlns="http://www.w3.org/2000/svg">
<path d="M55.7889 727.53C56.2989 716.61 76.3789 564.32 89.0889 479.29C94.0889 445.72 100.089 423.09 100.089 423.09L233.789 419.25C237.239 428.56 244.559 446.55 246.129 471.92C253.949 597.92 236.499 880.57 231.269 897.31C229.469 903.08 176.949 908.68 180.369 889.52C183.789 870.36 172.659 528.87 172.659 528.87C172.659 528.87 118.869 705.08 118.459 723.36C118.029 742.49 87.089 891.08 75.669 895.15C64.249 899.22 22.6689 904.15 23.7289 895.73C24.7889 887.31 55.0689 742.75 55.7889 727.53Z" fill="#36393D"/>
<g style="mix-blend-mode:screen" opacity="0.2">
<path d="M55.7887 727.529C56.4987 712.299 94.2687 425.689 94.2687 425.689L164.629 429.499L162.769 520.269L172.669 528.909C172.669 528.909 118.879 705.119 118.469 723.399C118.039 742.529 87.0987 891.119 75.6787 895.189C64.2587 899.259 22.6787 904.189 23.7387 895.769C24.7987 887.349 55.0687 742.749 55.7887 727.529Z" fill="#2E2B2D"/>
</g>
<path d="M101.27 409.631C124.38 412.931 177.49 413.801 199.04 409.891C220.59 405.981 230.14 403.811 230.14 403.811L233.73 419.251C233.73 419.251 239.52 425.251 196.96 427.841C154.4 430.431 108.79 428.071 101.27 424.951C97.8803 423.531 101.27 409.631 101.27 409.631Z" fill="#1D1D1B"/>
<path d="M189.369 425.87C189.385 426.161 189.343 426.453 189.245 426.728C189.148 427.003 188.996 427.256 188.8 427.472C188.603 427.688 188.366 427.862 188.101 427.986C187.837 428.109 187.55 428.178 187.259 428.19L163.179 428.94C162.886 428.945 162.596 428.893 162.324 428.785C162.052 428.678 161.804 428.518 161.594 428.314C161.384 428.111 161.216 427.868 161.1 427.6C160.984 427.331 160.923 427.042 160.919 426.75L160.509 413.42C160.494 413.129 160.537 412.838 160.635 412.563C160.733 412.289 160.885 412.036 161.081 411.821C161.277 411.605 161.514 411.43 161.778 411.307C162.042 411.183 162.328 411.113 162.619 411.1L186.709 410.35C187 410.346 187.29 410.399 187.561 410.507C187.832 410.615 188.078 410.775 188.287 410.979C188.496 411.182 188.663 411.425 188.778 411.693C188.893 411.96 188.955 412.248 188.959 412.54L189.369 425.87Z" fill="#1D1D1B"/>
<path d="M163.1 430.24C162.228 430.241 161.389 429.904 160.76 429.3C160.413 428.978 160.135 428.59 159.941 428.159C159.747 427.728 159.641 427.262 159.63 426.79L159.21 413.46C159.199 412.987 159.282 412.516 159.454 412.075C159.626 411.634 159.882 411.231 160.21 410.89C160.518 410.558 160.889 410.291 161.301 410.104C161.713 409.917 162.158 409.813 162.61 409.8L186.7 409.05C187.611 409.031 188.493 409.368 189.16 409.99C189.852 410.645 190.258 411.547 190.29 412.5L190.7 425.83C190.719 426.788 190.36 427.715 189.7 428.41C189.074 429.073 188.211 429.461 187.3 429.49L163.21 430.23L163.1 430.24ZM186.78 411.64L162.69 412.39C162.465 412.399 162.254 412.496 162.1 412.66C162.008 412.754 161.937 412.867 161.892 412.992C161.848 413.116 161.83 413.248 161.84 413.38L162.27 426.69C162.273 426.821 162.302 426.95 162.355 427.07C162.409 427.191 162.485 427.299 162.58 427.39C162.651 427.477 162.744 427.544 162.85 427.584C162.955 427.624 163.068 427.637 163.18 427.62L187.27 426.88C187.381 426.876 187.491 426.85 187.592 426.804C187.693 426.757 187.784 426.691 187.86 426.61C187.951 426.516 188.021 426.404 188.065 426.282C188.11 426.16 188.129 426.03 188.12 425.9L187.71 412.56C187.707 412.428 187.678 412.299 187.625 412.179C187.571 412.059 187.495 411.95 187.4 411.86C187.223 411.725 187.001 411.664 186.78 411.69V411.64Z" fill="#C3B398"/>
<path d="M142.499 147.471C145.799 142.321 190.689 145.621 193.189 147.471C195.689 149.321 196.589 166.181 196.589 166.181V191.181L139.269 185.831L139.039 164.761C139.039 164.761 139.269 152.531 142.499 147.471Z" fill="#BCBEC0"/>
<path d="M89.0898 184.4C112.79 175.69 128.09 171.11 135.16 167.94C141.04 165.41 144.61 156.51 144.09 149.94C143.2 138.77 140.88 106.87 140.88 106.87L190.72 104.17C190.72 104.17 188.85 143.82 192.54 156.5C194.44 163 199.97 164.75 204.54 166.17C220.11 170.98 223.75 178.78 239.32 193.76C252.24 206.2 235.87 302.27 228.32 341.01C224.95 358.32 227.91 398.35 227.91 398.35C182.67 411.54 124.99 407.64 105.78 389.88C105.78 389.88 106.55 354.01 105.59 337.7C103.42 299.95 91.1498 222.86 89.0898 184.4Z" fill="#E6966E"/>
<path d="M137.679 163.92C141.429 167.79 151.569 170.28 158.279 181.75L169.489 216.01C169.489 216.01 173.069 197.92 179.889 185.88C186.449 174.3 196.179 168.82 202.639 165.75C202.639 165.75 239.079 173.25 248.389 178.8C257.699 184.35 243.119 277.61 243.119 277.61C243.119 277.61 231.959 343.88 230.119 403.81C230.119 403.81 228.659 416.49 185.649 418.05C146.569 419.46 101.249 409.63 101.249 409.63C105.029 383.17 88.0593 269.27 88.0593 269.27C88.0593 269.27 81.9392 178.46 93.7092 175.48C106.629 172.23 137.679 163.92 137.679 163.92Z" fill="#E5E6E7"/>
<path d="M159.029 173.289C160.959 175.149 169.489 216.009 169.489 216.009C169.489 216.009 161.079 201.389 155.489 192.569H139.059L142.519 147.469C142.519 147.469 157.099 171.439 159.029 173.289Z" fill="#D1D3D4"/>
<path d="M159.03 173.289L139.03 192.569C139.03 192.569 130.15 172.349 131.58 163.709C132.08 160.709 142.49 147.469 142.49 147.469L159.03 173.289Z" fill="#F1F2F2"/>
<path d="M179.89 171.48C178.04 173.34 169.49 216.01 169.49 216.01C169.49 216.01 178.35 191.83 183.71 183.01L198.16 192.58L193.16 147.48C193.16 147.48 181.73 169.62 179.89 171.48Z" fill="#D1D3D4"/>
<path d="M179.891 171.479L198.16 192.569C198.16 192.569 205.931 174.809 204.571 166.179C204.091 163.179 193.19 147.469 193.19 147.469L179.891 171.479Z" fill="#F1F2F2"/>
<path d="M169.489 216.011L168.289 418.251L165.609 371.591L164.898 207.891L169.489 216.011Z" fill="#D1D3D4"/>
<path d="M203.12 303.169C203.12 303.169 213.33 482.359 213.78 489.599C214.23 496.839 258.87 485.379 261.11 478.469C263.35 471.559 244.11 385.089 244.11 372.779C244.11 360.469 245.53 245.779 249.5 233.529C253.47 221.279 255.69 180.679 244.11 176.529C220.24 167.949 208.32 162.529 208.32 162.529L198.57 186.459L203.12 303.169Z" fill="#8C6048"/>
<g style="mix-blend-mode:multiply" opacity="0.3">
<path d="M246.76 264.14C246.27 263.36 245.759 262.98 245.219 263.2C238.699 265.87 220.22 273.48 202.1 276.73L203.1 303.17C203.1 303.17 204.95 335.47 207.1 373.17C220.1 371.98 234.539 368.17 244.209 365.32C244.419 345.83 245.18 296.89 246.76 264.14Z" fill="#8C6048"/>
</g>
<path d="M213.839 164.901C213.539 162.761 208.839 162.691 198.299 154.801C200.36 162.108 200.471 169.828 198.619 177.191C190.999 207.481 203.119 303.191 203.119 303.191L204.209 322.441L216.149 210.441L206.689 195.341L216.389 191.341C216.389 191.341 214.509 169.741 213.839 164.901Z" fill="#A67255"/>
<path d="M149.689 311.341C149.689 311.341 148.499 483.251 148.049 490.491C147.599 497.731 76.2791 485.381 74.0491 478.491C71.8191 471.601 91.0491 385.111 91.0491 372.801C91.0491 360.491 89.6291 245.801 85.6591 233.551C81.6891 221.301 79.4691 180.701 91.0491 176.551C114.919 167.971 126.839 162.551 126.839 162.551L136.589 186.481L149.689 311.341Z" fill="#8C6048"/>
<path d="M139.039 340.689C137.901 340.689 136.789 341.027 135.844 341.659C134.898 342.291 134.161 343.19 133.726 344.241C133.291 345.293 133.178 346.449 133.4 347.565C133.623 348.681 134.172 349.705 134.977 350.509C135.782 351.313 136.807 351.859 137.923 352.08C139.04 352.301 140.196 352.186 141.246 351.749C142.297 351.312 143.194 350.574 143.825 349.627C144.456 348.68 144.791 347.567 144.789 346.429C144.789 345.675 144.64 344.928 144.351 344.231C144.062 343.533 143.638 342.9 143.104 342.367C142.57 341.834 141.936 341.411 141.239 341.124C140.541 340.836 139.794 340.688 139.039 340.689Z" fill="#A67255"/>
<path d="M139.039 371.42C137.901 371.42 136.789 371.757 135.844 372.39C134.898 373.022 134.161 373.921 133.726 374.972C133.291 376.023 133.178 377.18 133.4 378.295C133.623 379.411 134.172 380.436 134.977 381.239C135.782 382.043 136.807 382.59 137.923 382.811C139.04 383.031 140.196 382.916 141.246 382.479C142.297 382.043 143.194 381.304 143.825 380.357C144.456 379.41 144.791 378.298 144.789 377.16C144.789 376.405 144.64 375.658 144.351 374.961C144.062 374.264 143.638 373.631 143.104 373.098C142.57 372.564 141.936 372.142 141.239 371.854C140.541 371.566 139.794 371.419 139.039 371.42Z" fill="#A67255"/>
<path d="M139.039 401.961C137.902 401.961 136.79 402.298 135.845 402.93C134.899 403.562 134.162 404.46 133.727 405.511C133.292 406.561 133.178 407.717 133.4 408.833C133.621 409.948 134.169 410.973 134.973 411.777C135.777 412.581 136.802 413.129 137.917 413.35C139.033 413.572 140.189 413.458 141.24 413.023C142.29 412.588 143.188 411.851 143.82 410.905C144.452 409.96 144.789 408.848 144.789 407.711C144.79 406.955 144.643 406.207 144.354 405.509C144.066 404.811 143.642 404.176 143.108 403.642C142.574 403.108 141.939 402.684 141.241 402.396C140.543 402.107 139.795 401.96 139.039 401.961Z" fill="#A67255"/>
<g style="mix-blend-mode:multiply" opacity="0.3">
<path d="M103.949 263.199C103.949 263.199 94.0094 292.539 90.1094 316.969C90.3394 326.909 90.5194 336.439 90.6494 344.799C99.4394 361.459 139.109 371.089 149.229 373.309C149.499 339.389 149.689 311.309 149.689 311.309L148.189 297.049L145.769 291.049C145.769 291.049 126.749 282.249 103.949 263.199Z" fill="#8C6048"/>
</g>
<path d="M121.269 164.901C121.569 162.761 126.269 162.691 136.809 154.801C134.748 162.108 134.637 169.828 136.489 177.191C144.099 207.481 150.199 303.441 150.199 303.441L149.099 322.701L118.959 210.371L128.419 195.271L118.719 191.271C118.719 191.271 120.639 169.741 121.269 164.901Z" fill="#A67255"/>
<g style="mix-blend-mode:multiply" opacity="0.5">
<g style="mix-blend-mode:multiply" opacity="0.5">
<path d="M227.83 299.621L228.15 299.561L227.83 299.621Z" fill="#F1F2F2"/>
</g>
</g>
<path d="M93.7489 175.48C100.649 198.25 106.449 238.63 111.749 271.21C111.749 271.21 123.149 308.85 126.569 315.1C131.899 324.84 89.479 360.48 80.039 340.48C63.799 306.06 47.269 245.89 53.579 210.53C57.889 186.6 93.7489 175.48 93.7489 175.48Z" fill="#8C6048"/>
<g style="mix-blend-mode:multiply" opacity="0.2">
<path d="M126.61 315.1C123.19 308.85 111.79 271.21 111.79 271.21C108.79 252.8 105.61 231.91 102.18 213.1C100.9 239.27 99.3903 266.77 102.07 283.17C102.07 283.17 97.4203 298.61 89.6603 304.28C84.6603 307.93 81.3203 322.82 77.5703 334.91C78.4003 336.82 79.2403 338.7 80.0803 340.48C89.5203 360.48 131.94 324.84 126.61 315.1Z" fill="#8C6048"/>
</g>
<path d="M147.27 340.48C140.11 338.98 132.21 334.94 129.63 325.88C127.05 316.82 107.7 299.11 105.2 296.07C102.7 293.03 104.62 291.07 104.62 291.07C104.018 289.943 103.827 288.642 104.08 287.39C104.117 287.138 104.209 286.898 104.35 286.686C104.491 286.475 104.678 286.297 104.897 286.167C105.115 286.037 105.36 285.957 105.613 285.933C105.866 285.909 106.121 285.942 106.36 286.03C106.36 286.03 105.29 284.09 106.21 283.16C107.13 282.23 109.1 283.16 109.1 283.16C109.1 283.16 109.4 281.5 110.16 281.1C110.92 280.7 115.33 284.73 118.98 288.49C122.63 292.25 131.6 299.1 135.98 305.95C140.36 312.8 153.27 321.32 153.27 321.32L147.27 340.48Z" fill="#E6966E"/>
<g style="mix-blend-mode:multiply" opacity="0.5">
<g style="mix-blend-mode:multiply" opacity="0.5">
<path d="M120.679 297.56C120.679 297.56 110.109 287.78 105.949 284.73C106.04 285.184 106.188 285.624 106.389 286.04C105.976 285.911 105.533 285.911 105.119 286.04L120.679 297.56Z" fill="#E6966E"/>
</g>
<g style="mix-blend-mode:multiply" opacity="0.5">
<path d="M120.109 300.981C120.109 300.981 108.589 292.421 104.509 289.911C104.369 289.831 104.269 289.721 104.139 289.631C104.255 290.131 104.426 290.618 104.649 291.081C104.489 291.269 104.355 291.478 104.249 291.701C110.609 294.841 120.109 300.981 120.109 300.981Z" fill="#E6966E"/>
</g>
<g style="mix-blend-mode:multiply" opacity="0.5">
<path d="M109.329 282.42C109.25 282.666 109.183 282.917 109.129 283.17C108.67 282.986 108.19 282.862 107.699 282.8L123.529 296.07C119.121 291.193 114.376 286.632 109.329 282.42Z" fill="#E6966E"/>
</g>
</g>
<path d="M188.35 282.991C200.82 278.131 208.429 276.801 215.419 278.721C222.409 280.641 230.14 288.501 230.14 288.501L227.14 297.261C227.14 297.261 203.379 304.121 199.899 304.261C196.419 304.401 188.35 282.991 188.35 282.991Z" fill="#E6966E"/>
<path d="M244.16 176.52C237.37 199.29 239.161 240.71 233.881 273.29C233.881 273.29 221.981 310.5 218.621 316.75C213.381 326.49 259.491 348.99 268.781 328.99C284.781 294.57 288.67 245.89 282.47 210.53C278.27 186.6 244.16 176.52 244.16 176.52Z" fill="#8C6048"/>
<g style="mix-blend-mode:multiply" opacity="0.2">
<path d="M282.47 210.53C281.986 207.823 281.107 205.202 279.861 202.75C280.441 232.63 275.23 265.84 263.42 291.28C256.64 305.89 259.681 289 225.801 297.36C222.121 308.41 220.531 313.19 218.621 316.75C213.381 326.49 259.491 348.99 268.781 328.99C284.761 294.57 288.67 245.89 282.47 210.53Z" fill="#8C6048"/>
</g>
<path d="M154.359 311.211H145.779V342.001L157.469 343.391L154.359 311.211Z" fill="#D1D3D4"/>
<path d="M154.359 311.21L156.709 344.43C156.709 344.43 218.329 355.59 237.639 349.58C252.319 345.01 270.879 332.65 269.689 323.72C266.879 302.55 249.689 289.36 216.749 299.62C193.889 306.74 180.479 307.15 154.359 311.21Z" fill="#8C6048"/>
<path d="M273.97 312.069C272.38 312.569 270.6 313.159 269.65 314.529C264.86 321.459 259.56 328.319 243.03 333.749C241.665 334.246 240.47 335.121 239.584 336.272C238.699 337.423 238.16 338.803 238.03 340.249C237.87 342.609 239.52 344.799 241.57 345.989C242.432 346.46 243.349 346.819 244.3 347.059C252.02 343.719 259.82 338.829 264.71 333.799C266.447 332.566 267.841 330.911 268.76 328.989C271.264 323.443 273.428 317.749 275.24 311.939C274.814 311.943 274.389 311.986 273.97 312.069Z" fill="#664634"/>
<g style="mix-blend-mode:multiply" opacity="0.2">
<path d="M265.99 311.69C265.99 320.53 248.15 332.27 233.99 336.69C214.68 342.69 195.94 342.37 185.38 336.26C174.67 330.06 222.74 299.37 225.85 297.4C222.795 297.989 219.774 298.744 216.8 299.66C193.94 306.78 180.53 307.19 154.41 311.25L156.76 344.47C156.76 344.47 218.38 355.63 237.69 349.62C252.37 345.05 270.93 332.69 269.74 323.76C269.199 319.55 267.93 315.466 265.99 311.69Z" fill="#8C6048"/>
</g>
<path d="M183.75 283.169L192.74 281.109L199.9 304.279L190.45 309.289L183.75 283.169Z" fill="#F1F2F2"/>
<path d="M183.75 283.17C183.75 283.17 191.17 310.09 192.27 310.69C184.83 316.89 146.47 336.79 127.49 344.6C113.06 350.54 86.1498 350.6 81.4198 342.97C70.1998 324.8 80.8298 310.5 113.25 297.16C135.68 287.94 161.13 285.12 183.75 283.17Z" fill="#8C6048"/>
<path d="M109.009 348.62C108.981 348.278 108.907 347.942 108.789 347.62C108.039 345.62 105.919 344.68 104.099 343.62C99.299 340.9 95.5391 336.7 91.7891 332.62C88.0391 328.54 84.0691 324.52 79.0591 322.21C76.7711 321.18 74.2978 320.626 71.7891 320.58C73.8591 326.11 75.989 331.37 78.139 336.18C78.9408 338.571 80.0251 340.857 81.369 342.99C84.429 347.95 96.769 349.69 109.009 348.62Z" fill="#664634"/>
<g style="mix-blend-mode:multiply" opacity="0.2">
<path d="M121.389 332.849C108.389 338.209 85.2787 338.789 77.3887 333.239C78.1054 336.709 79.4619 340.015 81.3887 342.989C86.1187 350.649 113.029 350.559 127.459 344.619C146.459 336.809 184.799 316.909 192.239 310.709C191.819 310.459 190.349 305.879 188.749 300.539C171.899 309.939 136.739 326.539 121.389 332.849Z" fill="#8C6048"/>
</g>
<path d="M203.209 76.6207L203.809 97.0407C204.332 97.6284 204.999 98.0701 205.744 98.3225C206.489 98.5749 207.287 98.6295 208.059 98.4807C211.059 98.1507 214.919 87.2407 214.919 87.2407C214.919 87.2407 217.919 75.4607 213.049 72.8307C207.669 69.9407 203.209 76.6207 203.209 76.6207Z" fill="#E6966E"/>
<path d="M132.929 87.3403L137.029 107.34C136.659 108.024 136.118 108.6 135.459 109.012C134.8 109.424 134.045 109.658 133.269 109.69C130.269 110.01 123.999 100.22 123.999 100.22C123.999 100.22 118.349 89.4103 122.519 85.7603C127.039 81.8103 132.929 87.3403 132.929 87.3403Z" fill="#F7A379"/>
<path d="M205.959 46.7703C205.959 46.7703 212.19 105.31 208.08 112.93C203.97 120.55 192.079 139 186.299 142.66C183.417 144.525 180.181 145.776 176.793 146.335C173.405 146.894 169.939 146.75 166.61 145.91C159.38 144.18 144.919 130.48 139.259 124.91C132.259 118.13 120.769 51.8303 121.459 56.9103C121.459 56.9103 121.37 23.9103 160.13 19.5203C194.15 15.6903 205.959 46.7703 205.959 46.7703Z" fill="#F7A379"/>
<path d="M128.139 87.8003C128.139 87.8003 134.779 123.59 141.139 133.14C151.559 148.77 160.049 154.03 167.869 157.42C171.679 159.08 186.349 156.85 189.649 154.32C197.649 148.18 203.829 140.58 209.029 122.32C212.629 109.67 208.649 70.3203 208.649 70.3203C208.649 70.3203 207.059 104.76 201.079 107.6C193.359 111.25 196.709 103.37 170.849 106.78C147.379 109.88 149.699 115.42 144.339 114.83C138.979 114.24 128.139 87.8003 128.139 87.8003ZM154.589 122.69C154.386 122.417 154.242 122.105 154.167 121.773C154.092 121.441 154.087 121.097 154.151 120.763C154.216 120.429 154.35 120.113 154.544 119.833C154.738 119.554 154.988 119.318 155.279 119.14C157.629 117.75 162.489 115.7 171.949 114.32C180.369 113.08 185.949 113.73 188.839 114.32C189.174 114.391 189.491 114.531 189.769 114.731C190.047 114.932 190.28 115.188 190.453 115.484C190.626 115.779 190.736 116.108 190.775 116.448C190.813 116.788 190.781 117.133 190.679 117.46C189.359 121.77 185.369 130.35 174.239 131.36C170.488 131.794 166.69 131.219 163.236 129.695C159.782 128.171 156.797 125.753 154.589 122.69Z" fill="#BD8242"/>
<g style="mix-blend-mode:multiply" opacity="0.3">
<path d="M208.419 74.3497C209.309 86.9797 210.179 106.49 207.839 114.74C204.839 125.16 201.579 132.05 197.839 137.24C197.639 135.45 196.969 133.67 196.839 131.86C196.272 135.535 195.132 139.098 193.459 142.42C191.888 143.976 190.218 145.429 188.459 146.77C187.567 147.336 186.601 147.777 185.589 148.08C185.757 145.721 185.284 143.361 184.219 141.25C184.186 143.483 183.521 145.66 182.299 147.53C181.781 147.354 181.328 147.027 180.999 146.59C180.589 147.24 180.189 147.9 179.789 148.59C179.129 147.943 178.704 147.095 178.579 146.18C178.399 147.39 178.329 148.61 178.219 149.84C175.933 150.206 173.624 150.413 171.309 150.46C169.29 149.563 167.394 148.41 165.669 147.03C160.779 143.16 157.029 136.67 157.029 136.67C157.029 136.67 160.029 144.01 164.529 148.9C162.24 147.821 160.043 146.556 157.959 145.12C156.926 143.94 155.926 142.743 154.959 141.53L151.719 137.53C150.84 136.663 150.292 135.517 150.169 134.29L149.919 136.29L146.139 131.29C145.879 132.157 145.879 133.082 146.139 133.95C143.95 131.305 141.901 128.548 139.999 125.69C135.679 119.21 131.239 100.69 128.829 89.3897L128.199 87.9097C128.199 87.9097 134.839 123.7 141.199 133.25C151.619 148.88 160.109 154.14 167.929 157.53C171.739 159.19 186.409 156.96 189.709 154.43C197.709 148.29 203.889 140.69 209.089 122.43C212.689 109.78 208.709 70.4297 208.709 70.4297C208.709 70.4297 208.589 71.9097 208.419 74.3497Z" fill="#BD8242"/>
</g>
<path d="M199.76 21.69C199.947 20.7802 200.064 19.8576 200.111 18.93C200.241 14.93 198.37 10.54 194.67 8.93001C194.377 9.45944 193.952 9.90474 193.438 10.2234C192.923 10.542 192.335 10.7233 191.73 10.75C192.41 7.49 190.28 4.18 187.45 2.44C184.62 0.700002 179.651 0.44 176.361 0C177.151 2.2 174.24 6.67 172.21 7.84C171.601 7.23666 171.121 6.51527 170.801 5.72C170.127 6.39498 169.351 6.95867 168.5 7.39C168.008 5.58907 167.372 3.8302 166.601 2.13C166.601 2.13 165.27 8.13 152.15 11.95C151.496 10.6887 151.229 9.26264 151.381 7.85001C150.529 8.02508 149.752 8.45761 149.155 9.08902C148.557 9.72043 148.168 10.5202 148.041 11.38C147.071 10.682 145.93 10.2604 144.739 10.16C143.549 10.0596 142.353 10.2843 141.281 10.81C143.281 10.96 144.771 10.81 145.111 12.93C145.111 12.93 142.471 13.24 141.111 13.51C133.111 15.04 132.551 18.51 125.791 22.41L127.641 22.59L122.331 25.59C122.673 25.4222 123.049 25.335 123.431 25.335C123.812 25.335 124.188 25.4222 124.531 25.59C122.161 27.2535 119.628 28.6709 116.97 29.82L121.821 29.92C120.335 31.7317 118.632 33.3538 116.75 34.75C117.291 34.5937 117.869 34.6363 118.38 34.87C118.472 35.9068 118.264 36.9482 117.781 37.87C117.904 37.5549 118.116 37.2824 118.391 37.0854C118.666 36.8884 118.993 36.7754 119.331 36.76C119.109 38.0451 118.586 39.2592 117.804 40.3024C117.021 41.3456 116.002 42.1879 114.831 42.76C115.625 42.749 116.41 42.5825 117.141 42.27L113.98 51.7C114.243 51.6558 114.494 51.5597 114.719 51.4171C114.944 51.2746 115.138 51.0886 115.291 50.87C115.381 53.2 118.22 61.87 118.5 65.87C118.62 65.72 118.73 65.53 118.85 65.37C120.871 75.2458 124.292 84.7822 129.01 93.69C129.43 94.45 130.541 94.15 130.541 94.15C126.541 83.15 126.48 68.01 127.22 62.05C128.35 52.96 128.31 40.73 150.72 45C186.32 51.77 192.621 37.31 192.621 37.31C202.621 45.91 207.801 68.31 207.871 84.18C207.871 84.18 208.87 84.58 208.97 83.79C209.31 80.97 209.391 62.96 209.061 48.13C208.831 37.51 205.94 27.96 199.76 21.69Z" fill="#BD8242"/>
<g style="mix-blend-mode:multiply" opacity="0.3">
<g style="mix-blend-mode:multiply" opacity="0.3">
<path d="M170.799 5.76968C170.125 6.44466 169.349 7.00836 168.499 7.43968C168.006 5.63876 167.371 3.87989 166.599 2.17969C166.599 2.17969 166.509 2.43968 166.349 2.79968C166.425 4.03852 166.008 5.25718 165.189 6.18968C163.691 8.15225 161.868 9.84343 159.799 11.1897C164.043 10.9377 168.045 9.12888 171.039 6.10968C170.969 5.98968 170.849 5.89968 170.799 5.76968Z" fill="#BD8242"/>
</g>
<g style="mix-blend-mode:multiply" opacity="0.3">
<path d="M197.949 11.8105C197.818 12.5707 197.641 13.3221 197.419 14.0605C196.863 15.5532 196.005 16.915 194.899 18.0605C191.784 21.5337 187.896 24.2261 183.549 25.9205C187.563 25.6629 191.513 24.7859 195.259 23.3206C196.789 22.7906 198.259 22.1706 199.789 21.5106C199.961 20.67 200.068 19.8175 200.109 18.9606C200.184 16.4059 199.426 13.8962 197.949 11.8105Z" fill="#BD8242"/>
</g>
<g style="mix-blend-mode:multiply" opacity="0.3">
<path d="M194.788 9.06038C194.75 9.03142 194.71 9.00471 194.668 8.98038C194.375 9.50981 193.95 9.95512 193.436 10.2738C192.921 10.5924 192.333 10.7737 191.728 10.8004C192.026 9.20576 191.746 7.5571 190.938 6.15039C190.718 6.49039 190.508 6.83039 190.278 7.15039C189.346 8.61595 188.264 9.98002 187.048 11.2204C185.066 12.9509 182.786 14.3063 180.318 15.2204C184.449 14.8096 188.456 13.5717 192.098 11.5804C193.208 11.0019 194.139 10.1304 194.788 9.06038Z" fill="#BD8242"/>
</g>
</g>
<g style="mix-blend-mode:multiply" opacity="0.3">
<path d="M192.789 32.75C192.789 32.75 186.489 47.22 150.899 40.44C128.479 36.17 128.519 48.44 127.389 57.5C127.157 59.6655 127.043 61.8421 127.049 64.02C127.049 63.31 127.149 62.61 127.219 62.02C128.349 52.93 128.309 40.7 150.719 44.97C186.319 51.74 192.619 37.28 192.619 37.28C202.619 45.88 207.799 68.28 207.869 84.15L208.039 79.59C207.979 63.8 202.749 41.36 192.789 32.75Z" fill="#BD8242"/>
</g>
<g style="mix-blend-mode:multiply" opacity="0.5">
<path d="M175.96 92.8906C175.96 92.8906 178.87 100.061 178.17 103.001C177.47 105.941 163.54 106.861 161.93 105.431C160.32 104.001 161.19 95.0706 161.19 95.0706C161.19 95.0706 161.29 101.571 163.51 103.021C165.73 104.471 174.74 102.611 175.71 100.921C176.68 99.2306 175.96 92.8906 175.96 92.8906Z" fill="#E6966E"/>
</g>
<path d="M143.79 80.6906C140.456 81.6953 137.609 83.8915 135.79 86.8606C135.79 86.8606 135.46 87.6806 146.19 87.0106C154.81 85.5206 157.07 84.5906 156.95 83.9506C156.64 82.2306 150.99 78.4306 143.79 80.6906Z" fill="#F2F0F0"/>
<path d="M150.079 81.839C149.913 81.0023 149.5 80.2344 148.894 79.634C148.288 79.0336 147.516 78.628 146.678 78.4692C145.84 78.3105 144.973 78.406 144.189 78.7433C143.406 79.0806 142.741 79.6444 142.28 80.3623C141.819 81.0802 141.583 81.9195 141.603 82.7724C141.622 83.6253 141.896 84.4529 142.389 85.149C142.883 85.8451 143.573 86.3779 144.371 86.6791C145.169 86.9802 146.039 87.0359 146.869 86.839C147.953 86.5925 148.896 85.9304 149.496 84.9953C150.097 84.0602 150.306 82.9268 150.079 81.839Z" fill="#487CB8"/>
<path d="M148.869 82.1198C148.673 81.352 148.182 80.6929 147.502 80.2864C146.821 79.8798 146.008 79.7588 145.239 79.9498C144.863 80.0384 144.508 80.2003 144.194 80.4262C143.881 80.6521 143.614 80.9375 143.411 81.2662C143.208 81.5949 143.071 81.9605 143.009 82.342C142.947 82.7235 142.961 83.1135 143.049 83.4898C143.138 83.866 143.3 84.2211 143.525 84.5348C143.751 84.8485 144.037 85.1146 144.366 85.3179C144.694 85.5213 145.06 85.6579 145.441 85.72C145.823 85.7821 146.213 85.7684 146.589 85.6798C147.362 85.5075 148.036 85.0365 148.463 84.3696C148.89 83.7027 149.036 82.894 148.869 82.1198Z" fill="#18100E"/>
<path d="M149.88 80.6905C149.843 80.5303 149.775 80.3789 149.68 80.2449C149.585 80.111 149.464 79.9971 149.325 79.9098C149.185 79.8225 149.03 79.7635 148.868 79.7362C148.706 79.7088 148.54 79.7137 148.38 79.7505C148.22 79.7872 148.068 79.8552 147.934 79.9505C147.801 80.0458 147.687 80.1665 147.599 80.3058C147.512 80.4451 147.453 80.6002 147.426 80.7623C147.398 80.9244 147.403 81.0903 147.44 81.2505C147.52 81.5687 147.723 81.8426 148.004 82.0128C148.284 82.1831 148.62 82.2361 148.94 82.1605C149.259 82.0887 149.536 81.894 149.712 81.6188C149.888 81.3435 149.949 81.0099 149.88 80.6905Z" fill="#EFECEC"/>
<path d="M144.149 76.9888C156.359 74.8288 156.929 83.8988 156.929 83.8988C156.929 83.8988 152.529 78.4688 144.079 80.2688C138.899 81.3688 135.769 86.8088 135.769 86.8088C135.769 86.8088 134.949 78.6088 144.149 76.9888Z" fill="#E6966E"/>
<path d="M144.429 79.4197C154.909 77.0397 156.929 83.8997 156.929 83.8997C156.929 83.8997 151.809 78.5097 144.529 80.7797C137.879 82.8497 135.769 86.7797 135.769 86.7797C135.769 86.7797 135.419 81.4597 144.429 79.4197Z" fill="#412118"/>
<path d="M189.65 74.3797C193.154 74.287 196.554 75.5807 199.11 77.9796C199.11 77.9796 199.04 79.3796 189.31 81.3296C179.89 82.6596 178.07 81.9096 178 81.3296C177.87 78.8796 183.69 74.5097 189.65 74.3797Z" fill="#F2F0F0"/>
<path d="M183.979 77.3401C183.93 76.2263 184.322 75.1381 185.071 74.3123C185.821 73.4864 186.865 72.9897 187.979 72.9302C188.794 72.9023 189.599 73.1153 190.294 73.5425C190.989 73.9697 191.542 74.5922 191.885 75.3321C192.229 76.0721 192.346 76.8968 192.223 77.7031C192.1 78.5095 191.742 79.2617 191.194 79.8659C190.646 80.47 189.933 80.8993 189.142 81.1C188.351 81.3008 187.519 81.2642 186.749 80.9947C185.98 80.7252 185.306 80.2349 184.813 79.5849C184.321 78.9349 184.03 78.1542 183.979 77.3401Z" fill="#487CB8"/>
<path d="M185.269 77.2611C185.218 76.6676 185.346 76.0726 185.635 75.5519C185.924 75.0311 186.361 74.6082 186.892 74.337C187.422 74.0657 188.021 73.9585 188.612 74.0288C189.204 74.0992 189.761 74.344 190.213 74.7321C190.664 75.1201 190.99 75.6339 191.149 76.2079C191.308 76.782 191.292 77.3903 191.104 77.9554C190.916 78.5205 190.564 79.0168 190.093 79.3811C189.622 79.7454 189.053 79.9612 188.458 80.0011C187.674 80.0537 186.9 79.7961 186.303 79.2836C185.707 78.7711 185.335 78.0448 185.269 77.2611Z" fill="#18100E"/>
<path d="M190.131 75.5806C190.107 75.3327 190.158 75.0834 190.277 74.8647C190.396 74.6461 190.578 74.468 190.799 74.3533C191.02 74.2386 191.271 74.1926 191.518 74.2211C191.765 74.2496 191.999 74.3514 192.188 74.5133C192.377 74.6753 192.513 74.89 192.58 75.1301C192.646 75.3701 192.639 75.6245 192.56 75.8606C192.481 76.0966 192.333 76.3037 192.135 76.4551C191.938 76.6066 191.699 76.6956 191.45 76.7106C191.289 76.7257 191.126 76.7081 190.972 76.6591C190.817 76.61 190.674 76.5304 190.551 76.425C190.428 76.3196 190.327 76.1906 190.255 76.0455C190.183 75.9005 190.141 75.7424 190.131 75.5806Z" fill="#EFECEC"/>
<path d="M188.199 71.1098C176.549 72.1098 177.999 81.2798 177.999 81.2798C177.999 81.2798 180.649 74.8197 189.269 74.1197C194.549 73.6797 199.099 77.9797 199.099 77.9797C199.099 77.9797 198.269 70.2498 188.199 71.1098Z" fill="#E6966E"/>
<path d="M188.369 73.6C177.729 74.89 177.999 81.28 177.999 81.28C179.152 79.3673 180.76 77.7682 182.678 76.6241C184.597 75.48 186.767 74.826 188.999 74.72C195.999 74.33 199.119 77.98 199.119 77.98C199.119 77.98 197.719 72.47 188.369 73.6Z" fill="#412118"/>
<path d="M134.79 67.3603C138.92 66.2003 157.61 64.1503 158.65 65.1203C159.69 66.0903 159.65 70.6303 157.8 70.7803C149.86 71.4703 140.51 70.9503 134.73 71.8603C132.48 72.2203 128.99 74.6903 128.99 74.6903C128.99 74.6903 130.67 68.5103 134.79 67.3603Z" fill="#8B5E3C"/>
<path d="M193.15 58.0399C188.86 58.2299 171.09 62.5199 170.41 63.7599C169.73 64.9999 171.33 69.0899 173.09 68.6699C180.09 67.0399 189.09 63.9699 194.86 62.9299C197.13 62.6008 199.433 62.5706 201.71 62.8399C201.71 62.8399 197.42 57.8599 193.15 58.0399Z" fill="#8B5E3C"/>
<g style="mix-blend-mode:multiply" opacity="0.5">
<path d="M186.77 115.781C173.08 125.381 155.16 119.451 158.09 120.331C156.27 119.791 187.98 114.941 186.77 115.781Z" fill="#E6966E"/>
</g>
<g style="mix-blend-mode:multiply" opacity="0.5">
<path d="M180.539 123.399C173.919 130.899 164.009 124.229 166.369 125.599C165.519 125.099 181.189 122.689 180.539 123.399Z" fill="#E6966E"/>
</g>
<g style="mix-blend-mode:screen" opacity="0.3">
<path d="M203.449 81.8598C203.049 74.7998 196.519 71.5098 188.309 72.8598C180.099 74.2098 173.959 78.6898 175.069 85.6898C176.179 92.6898 184.209 99.2398 192.439 96.9698C200.669 94.6998 203.829 88.3698 203.449 81.8598Z" fill="#E6E7E8"/>
</g>
<g style="mix-blend-mode:screen" opacity="0.3">
<path d="M180.32 88.0392C179.22 81.0392 185.319 76.4592 193.559 75.1492C195.753 74.7866 197.993 74.8069 200.179 75.2092C197.419 72.9192 193.179 72.0392 188.309 72.8192C180.089 74.1192 173.96 78.7292 175.07 85.6992C175.89 90.9092 180.58 95.8692 186.32 97.1192C183.201 95.0017 181.045 91.7384 180.32 88.0392Z" fill="#E6E7E8"/>
</g>
<g style="mix-blend-mode:screen" opacity="0.3">
<path d="M161.869 87.5793C160.769 80.5793 153.519 78.1193 145.299 79.4293C137.079 80.7393 131.889 85.8793 133.689 92.7193C135.359 99.0293 140.369 104.069 148.839 103.719C157.309 103.369 162.979 94.5493 161.869 87.5793Z" fill="#E6E7E8"/>
</g>
<g style="mix-blend-mode:screen" opacity="0.3">
<path d="M139.359 95.3796C137.569 88.5396 142.749 83.3796 150.969 82.0896C153.599 81.645 156.287 81.6687 158.908 82.1596C155.828 79.4196 150.799 78.5496 145.299 79.4296C137.079 80.7296 131.889 85.8796 133.689 92.7196C134.279 95.2941 135.586 97.649 137.458 99.5123C139.33 101.376 141.691 102.671 144.269 103.25C141.837 101.215 140.117 98.4583 139.359 95.3796Z" fill="#E6E7E8"/>
</g>
<path d="M198.811 72.5509C190.571 70.0909 182.601 71.2409 174.811 77.2709C174.418 77.5674 173.969 77.7814 173.491 77.9C173.013 78.0186 172.516 78.0393 172.031 77.9609C168.839 77.3677 165.542 77.8458 162.65 79.3209C162.189 79.5855 161.678 79.7506 161.149 79.8057C160.621 79.8608 160.086 79.8047 159.581 79.6409C150.371 76.3809 142.38 77.7109 135.34 82.5809C133.06 84.8164 130.136 86.2816 126.98 86.7709L127.62 90.1109C130.21 90.1909 131.73 91.5609 132.26 94.7109C132.649 94.8472 133.064 94.8856 133.471 94.8228C133.877 94.76 134.262 94.5979 134.59 94.3509C133.22 87.0709 136.4 82.1409 145.41 80.2209C153.87 78.5709 159.321 80.9309 161.531 87.6309C162.421 88.3409 163.68 88.4209 164.21 87.3509C164.381 87.1023 164.489 86.8158 164.523 86.5163C164.558 86.2168 164.519 85.9133 164.409 85.6323C164.3 85.3514 164.123 85.1014 163.895 84.9042C163.667 84.707 163.394 84.5686 163.101 84.5009C162.651 82.8109 163.47 81.7209 164.95 81.0909C166.598 80.3987 168.393 80.1305 170.17 80.3109C171.78 80.4509 172.9 81.2409 172.99 82.9809C172.743 83.1385 172.536 83.3527 172.387 83.606C172.239 83.8592 172.153 84.1442 172.136 84.4373C172.12 84.7304 172.173 85.0233 172.292 85.2917C172.411 85.5601 172.592 85.7964 172.821 85.9809C173.661 86.8409 174.82 86.3709 175.45 85.4209C175.45 78.4209 179.94 74.4209 188.45 73.4209C197.6 72.4209 202.161 76.1509 203.111 83.4909C203.499 83.6258 203.915 83.6626 204.322 83.598C204.728 83.5335 205.113 83.3696 205.44 83.1209C204.97 79.9609 205.99 78.1809 208.44 77.3109L208.021 73.9309C204.882 74.4378 201.663 73.9555 198.811 72.5509Z" fill="#3F2216"/>
<path d="M161.689 87.2197C162.049 97.2197 155.919 102 150.549 103.09C147.227 103.746 143.78 103.202 140.822 101.553C137.865 99.9051 135.588 97.26 134.399 94.0897L133.629 94.3597C134.843 97.6116 137.147 100.342 140.148 102.085C143.15 103.828 146.663 104.477 150.089 103.92L150.709 103.81C154.068 103.144 157.077 101.295 159.189 98.5997C161.611 95.3056 162.784 91.2583 162.499 87.1797L161.689 87.2197Z" fill="#3F2216"/>
<path d="M203.37 83.3203C203.221 86.7046 201.876 89.9262 199.574 92.4114C197.272 94.8965 194.163 96.4838 190.8 96.8903C185.36 97.5203 178.04 94.8903 175.31 85.2503L174.52 85.4603C175.508 89.4263 177.872 92.913 181.189 95.3003C184.041 97.2002 187.478 98.0194 190.88 97.6103L191.49 97.5303C194.92 96.9988 198.06 95.2939 200.374 92.7063C202.688 90.1187 204.033 86.8086 204.179 83.3403L203.37 83.3203Z" fill="#3F2216"/>
<path d="M130.009 87.6892L128.549 87.9192C128.51 87.9279 128.469 87.9286 128.429 87.9211C128.389 87.9137 128.352 87.8983 128.318 87.8759C128.284 87.8534 128.256 87.8245 128.233 87.7907C128.211 87.7569 128.196 87.7189 128.189 87.6792C128.185 87.6397 128.189 87.5999 128.2 87.5619C128.211 87.5239 128.23 87.4886 128.255 87.4579C128.28 87.4272 128.311 87.4018 128.346 87.3831C128.381 87.3645 128.42 87.3529 128.459 87.3492L129.909 87.1192C129.949 87.1088 129.99 87.1067 130.03 87.1127C130.07 87.1188 130.109 87.1331 130.144 87.1546C130.178 87.1761 130.208 87.2045 130.231 87.2379C130.255 87.2714 130.271 87.3092 130.279 87.3492C130.288 87.4299 130.264 87.5108 130.214 87.5743C130.163 87.6379 130.09 87.6792 130.009 87.6892Z" fill="#B3B3B3"/>
<path d="M207.029 75.3806L205.579 75.6106C205.539 75.6194 205.497 75.6202 205.457 75.6128C205.417 75.6055 205.378 75.5902 205.344 75.5679C205.309 75.5456 205.279 75.5166 205.256 75.4828C205.233 75.4489 205.217 75.4108 205.209 75.3706C205.205 75.3312 205.208 75.2913 205.22 75.2533C205.231 75.2153 205.25 75.18 205.275 75.1493C205.3 75.1186 205.331 75.0932 205.366 75.0746C205.401 75.0559 205.439 75.0444 205.479 75.0406L206.939 74.8106C207.018 74.7951 207.1 74.8103 207.169 74.8529C207.238 74.8956 207.288 74.9626 207.309 75.0406C207.315 75.1224 207.289 75.2032 207.236 75.2664C207.184 75.3297 207.11 75.3706 207.029 75.3806Z" fill="#B3B3B3"/>
</svg>
