<svg width="350" height="470" viewBox="0 0 350 470" fill="none" xmlns="http://www.w3.org/2000/svg">
<mask id="mask0_1165_9053" style="mask-type:alpha" maskUnits="userSpaceOnUse" x="0" y="0" width="350" height="470">
<rect width="350" height="470" rx="32" fill="#C4C4C4"/>
</mask>
<g mask="url(#mask0_1165_9053)">
<path d="M93.427 500.55C107.277 406.96 181.677 453.5 232.687 458.34C284.257 524.97 221.067 842.89 226.957 919.64C233.437 938.95 184.447 934.06 180.797 924.98C169.627 867.73 170.497 579.32 170.497 579.32C159.577 583.95 107.577 906.48 89.3371 930.87C76.3371 934.73 45.1769 936.04 46.1369 925.43C46.4469 921.89 90.477 512.71 93.427 500.55Z" fill="#36393D"/>
<g style="mix-blend-mode:screen" opacity="0.2">
<path d="M171.487 446.29L189.487 449.83C201.687 544.96 167.667 557.98 255.347 541.43C252.287 580.81 227.727 896.98 226.917 919.61C233.417 938.93 184.408 934.02 180.768 924.95C169.598 867.7 170.467 579.29 170.467 579.29L158.867 556.89V443.24C163.151 443.906 167.372 444.926 171.487 446.29Z" fill="#2E2B2D"/>
</g>
<path d="M237.497 453.91C206.497 459.53 132.327 456.28 108.627 448.09L105.047 463.55C105.047 463.55 99.267 469.55 141.817 472.13C184.367 474.71 229.997 472.36 237.507 469.24C240.907 467.8 237.497 453.91 237.497 453.91Z" fill="#1D1D1B"/>
<path d="M149.416 470.15C148.266 474.76 173.886 472.15 175.616 473.21C176.203 473.218 176.77 472.993 177.191 472.585C177.613 472.176 177.856 471.617 177.866 471.03C177.106 469.03 180.416 455.14 176.166 455.37L152.076 454.62C147.886 454.1 150.236 468.21 149.416 470.15Z" fill="#1D1D1B"/>
<path d="M175.687 474.55H175.577L174.957 474.37C174.427 474.23 171.117 474.28 168.197 474.37C157.987 474.52 150.537 474.44 148.617 472.02C148.383 471.729 148.22 471.388 148.14 471.024C148.06 470.659 148.066 470.281 148.157 469.92L148.217 469.74C148.327 468.385 148.327 467.024 148.217 465.67C148.047 460.18 148.067 455.84 149.947 454.13C150.243 453.849 150.6 453.639 150.99 453.518C151.38 453.397 151.793 453.366 152.197 453.43L176.197 454.17C176.587 454.154 176.976 454.222 177.339 454.368C177.701 454.515 178.027 454.737 178.297 455.02C180.047 456.84 179.797 461.1 179.297 466.48C179.106 467.871 179.036 469.276 179.087 470.68L179.167 471.15C179.11 472.062 178.71 472.92 178.047 473.55C177.42 474.176 176.574 474.535 175.687 474.55ZM171.977 471.69C173.263 471.617 174.553 471.704 175.817 471.95C175.984 471.92 176.138 471.84 176.257 471.72C176.415 471.579 176.521 471.388 176.557 471.18C176.398 469.513 176.451 467.833 176.717 466.18C176.997 463.27 177.507 457.87 176.447 456.76L152.047 455.95C150.587 457.03 150.757 462.56 150.847 465.53C151.004 467.159 150.958 468.802 150.707 470.42C152.147 471.96 163.367 471.79 168.157 471.72C169.707 471.67 170.967 471.65 171.977 471.65V471.69Z" fill="#C3B398"/>
<path d="M196.286 191.75C192.986 186.59 148.096 189.89 145.596 191.75C140.066 203.68 142.906 223.56 142.196 235.45L199.526 230.11C198.826 217.55 202.256 205.8 196.286 191.75Z" fill="#BCBEC0"/>
<path d="M249.696 228.68C181.236 209.11 194.566 204.16 197.906 151.15L148.046 148.45C146.116 151.65 156.297 196.17 134.207 210.45C119.617 219.88 125.346 376.36 110.826 442.63C156.066 455.83 213.757 451.92 232.957 434.16C228.507 382.67 245.916 284.32 249.696 228.68Z" fill="#E6966E"/>
<path d="M201.107 208.19C191.707 210.13 171.277 238.44 169.297 243.68C165.997 240.97 144.507 208.91 136.157 210.02C136.157 210.02 104.217 232.5 94.8967 238.02C87.1867 330.15 106.147 325.29 108.627 448.02C108.627 448.02 110.096 460.7 153.096 462.25C192.176 463.67 237.497 453.84 237.497 453.84C232.667 366.47 268.847 291 248.567 220.59C235.677 217.4 201.107 208.19 201.107 208.19Z" fill="#E5E6E7"/>
<path d="M179.767 217.55C177.837 219.4 169.297 243.66 169.297 243.66C173.668 239.067 177.583 234.06 180.987 228.71L199.747 236.82L196.287 191.73C196.287 191.73 181.697 215.71 179.767 217.55Z" fill="#D1D3D4"/>
<path d="M179.768 217.55L199.768 236.82C205.698 223.11 213.207 207.38 196.307 191.73L179.768 217.55Z" fill="#F1F2F2"/>
<path d="M158.897 215.75C160.747 217.61 169.297 243.68 169.297 243.68C169.297 243.68 160.437 236.1 155.077 227.28L140.627 236.84L145.627 191.75C145.627 191.75 157.047 213.89 158.897 215.75Z" fill="#D1D3D4"/>
<path d="M158.896 215.75L140.626 236.84C133.096 220.84 130.786 208.59 145.626 191.75L158.896 215.75Z" fill="#F1F2F2"/>
<path d="M169.297 246.17L170.497 462.52C174.307 432.24 173.567 271.84 173.887 238.04L169.297 246.17Z" fill="#D1D3D4"/>
<path d="M199.047 535.22C199.497 542.46 272.877 533.12 275.117 526.22C277.357 519.32 262.328 432.85 258.728 421.08C254.948 408.68 250.427 307.27 254.397 294.98C258.367 282.69 262.277 224.2 250.688 220.04C226.817 211.46 210.817 205.4 210.817 205.4L201.047 229.32L189.367 372.38C189.367 372.38 198.607 527.98 199.047 535.22Z" fill="#8C6048"/>
<path d="M216.296 207.73C216.006 205.59 211.296 205.52 200.756 197.63C200.926 244.86 182.596 350.01 189.396 374.51L218.606 253.2L209.146 238.1L218.846 234.1C218.846 234.1 216.966 212.55 216.296 207.73Z" fill="#A67255"/>
<path d="M248.046 219.11C244.296 222.11 245.656 286.11 253.176 305.84C273.236 281.51 290.856 298.59 331.406 272.84C356.726 256.72 251.106 205.39 248.046 219.11Z" fill="#8C6048"/>
<g style="mix-blend-mode:multiply" opacity="0.2">
<path d="M324.216 250.73C324.616 253.58 323.496 256.09 320.396 258.07C279.836 283.84 262.226 266.77 242.166 291.07C241.256 310.32 248.656 352.27 254.856 382.28C253.296 355.9 252.356 323.14 253.166 305.81C273.236 281.5 290.846 298.56 331.396 272.81C339.236 267.84 334.526 259.49 324.216 250.73Z" fill="#8C6048"/>
</g>
<path d="M72.046 233.33C78.856 255.79 77.046 295.13 82.276 327.33C82.276 327.33 57.496 375.04 52.756 384.89C48.016 394.74 1.47626 410.43 4.28626 391.64C7.06626 373.04 32.576 299.52 46.566 259.02C54.346 236.31 72.046 233.33 72.046 233.33Z" fill="#8C6048"/>
<g style="mix-blend-mode:multiply" opacity="0.2">
<path d="M74.5074 287.27C74.5074 287.27 52.6774 364.39 41.7574 364.89C23.0874 365.73 14.5975 375.36 4.60752 389.45C4.45752 390.22 4.3374 390.95 4.2374 391.59C1.4274 410.38 47.9776 394.72 52.7076 384.84C57.4376 374.96 82.2276 327.28 82.2276 327.28C78.7976 306.34 78.3575 276.17 76.6075 258.97C74.2475 268.46 72.9874 278.03 74.5074 287.27Z" fill="#8C6048"/>
</g>
<g style="mix-blend-mode:multiply" opacity="0.2">
<path d="M93.4268 500.55C92.8568 502.93 90.7167 520.45 87.6367 547.07C110.167 553.15 147.537 558.62 147.857 553.49C147.947 551.99 148.687 544.88 149.787 534.49L198.157 466.59C166.797 462.8 101.257 447.63 93.4268 500.55Z" fill="#36393D"/>
</g>
<path d="M154.857 403.39C154.857 403.39 139.277 543.21 138.857 550.45C138.437 557.69 64.2371 543.84 61.9871 536.93C59.7371 530.02 77.7874 446.39 77.7674 434.08C77.7474 421.77 75.9374 322.47 72.7674 294.78C71.2774 281.96 59.8572 234.85 72.0672 233.33C84.2772 231.81 117.217 222.15 117.217 222.15L135.417 261.92L154.857 403.39Z" fill="#8C6048"/>
<path d="M117.147 222.15C117.087 221.09 127.287 212.35 137.777 205.25C137.777 205.25 131.197 219.98 134.417 232.25C142.367 262.45 155.577 397.82 154.857 403.41C154.637 405.09 118.636 267.97 118.636 267.97L127.917 252.77L118.177 248.84C118.177 248.84 117.407 227.03 117.147 222.15Z" fill="#A67255"/>
<path d="M139.786 390.48C138.664 390.311 137.517 390.478 136.49 390.961C135.463 391.444 134.602 392.22 134.016 393.192C133.43 394.164 133.145 395.288 133.198 396.422C133.25 397.555 133.638 398.648 134.311 399.561C134.984 400.475 135.913 401.169 136.98 401.554C138.048 401.94 139.206 402.001 140.307 401.729C141.409 401.457 142.406 400.864 143.171 400.026C143.936 399.188 144.435 398.142 144.606 397.02C144.72 396.274 144.685 395.513 144.504 394.78C144.323 394.048 144 393.358 143.552 392.751C143.104 392.143 142.542 391.63 141.895 391.24C141.249 390.851 140.533 390.592 139.786 390.48Z" fill="#A67255"/>
<path d="M135.198 420.84C134.073 420.669 132.923 420.835 131.893 421.317C130.863 421.8 129.999 422.578 129.41 423.551C128.822 424.525 128.536 425.652 128.588 426.788C128.64 427.924 129.028 429.02 129.703 429.936C130.378 430.852 131.31 431.547 132.38 431.933C133.45 432.319 134.611 432.379 135.715 432.106C136.819 431.832 137.818 431.237 138.584 430.396C139.35 429.555 139.849 428.505 140.018 427.38C140.132 426.634 140.097 425.873 139.916 425.14C139.735 424.408 139.412 423.718 138.964 423.111C138.516 422.503 137.954 421.99 137.307 421.6C136.661 421.211 135.944 420.952 135.198 420.84Z" fill="#A67255"/>
<path d="M130.626 451.04C129.504 450.871 128.356 451.038 127.329 451.521C126.302 452.004 125.441 452.78 124.855 453.752C124.269 454.724 123.985 455.848 124.037 456.981C124.09 458.115 124.477 459.207 125.15 460.121C125.823 461.035 126.753 461.728 127.82 462.114C128.887 462.5 130.045 462.56 131.147 462.288C132.249 462.016 133.245 461.424 134.01 460.586C134.775 459.748 135.275 458.702 135.446 457.58C135.559 456.834 135.525 456.073 135.344 455.34C135.163 454.607 134.84 453.918 134.392 453.31C133.944 452.703 133.381 452.189 132.735 451.8C132.088 451.41 131.372 451.152 130.626 451.04Z" fill="#A67255"/>
<path d="M141.447 524.55L83.1572 472.76C82.3784 472.05 81.9112 471.062 81.8569 470.01C81.8026 468.957 82.1655 467.926 82.8671 467.14L164.867 374.8C165.564 374.011 166.544 373.529 167.594 373.458C168.644 373.387 169.68 373.732 170.477 374.42L228.777 426.22C229.553 426.929 230.018 427.916 230.073 428.965C230.127 430.015 229.766 431.044 229.067 431.83L147.067 524.17C146.727 524.57 146.311 524.898 145.842 525.134C145.373 525.371 144.861 525.511 144.337 525.546C143.813 525.582 143.288 525.512 142.791 525.341C142.295 525.17 141.838 524.901 141.447 524.55Z" fill="#F5C424"/>
<path d="M124.157 412.38C120.667 412.51 103.607 418.38 103.607 418.38L85.0469 433.24C85.0469 433.24 97.3069 444.92 114.047 449.16C121.857 451.16 126.047 451.16 137.047 456.06C142.817 458.66 146.737 459.64 148.327 457.22C149.127 456.01 147.487 454.62 147.487 454.62C147.487 454.62 152.977 457.28 154.487 454.79C154.761 454.385 154.924 453.914 154.957 453.426C154.99 452.937 154.894 452.449 154.677 452.01C154.677 452.01 158.367 453.18 159.447 451.48C160.527 449.78 157.447 446.48 157.447 446.48L144.447 433.08L131.047 423.68C131.047 423.68 138.947 425.23 141.717 425.25C144.487 425.27 154.597 431.02 154.597 431.02C154.597 431.02 157.977 431.75 158.497 429.7C159.017 427.65 151.587 422.16 151.587 422.16C148.549 420.151 145.303 418.475 141.907 417.16C137.587 415.73 127.657 412.23 124.157 412.36V412.38Z" fill="#E6966E"/>
<g style="mix-blend-mode:multiply" opacity="0.3">
<path d="M114.097 449.16C117.657 450.06 121.267 450.73 125.097 451.75C125.786 451.502 126.352 450.997 126.677 450.34C127.127 448.88 125.457 446.34 126.177 444.26C126.897 442.18 130.037 442.08 130.627 439.59C131.507 435.87 125.237 433.49 126.727 431C127.657 429.44 129.497 429 129.527 425.69C129.557 422.38 126.687 422.4 126.407 420.25C126.127 418.1 131.127 415.39 126.337 412.61C125.802 412.51 125.26 412.447 124.717 412.42C123.793 412.457 122.873 412.567 121.967 412.75C116.297 414.03 103.897 418.32 103.617 418.41L85.0469 433.24C89.1954 436.639 93.5724 439.75 98.147 442.55C103.144 445.458 108.508 447.681 114.097 449.16Z" fill="#E6966E"/>
</g>
<g style="mix-blend-mode:multiply" opacity="0.3">
<g style="mix-blend-mode:multiply" opacity="0.3">
<path d="M154.858 450.77L142.338 440.45L134.348 435.21L143.638 443.85L154.858 450.77Z" fill="#E6966E"/>
</g>
</g>
<g style="mix-blend-mode:multiply" opacity="0.3">
<g style="mix-blend-mode:multiply" opacity="0.3">
<path d="M147.667 454.76L136.946 446.39L129.977 442.28L137.856 449.37L147.667 454.76Z" fill="#E6966E"/>
</g>
</g>
<path d="M108.986 416.61L93.1963 442.99L77.7363 434.08L98.2866 412.94L108.986 416.61Z" fill="#E5E6E7"/>
<path d="M109.806 415.55C109.806 415.55 69.2463 390.14 51.8063 379.85C26.6463 365 13.9766 371.13 4.89659 389.77C1.06659 397.63 10.0667 411.32 21.2667 417.93C35.9967 426.61 74.4965 439.67 81.3165 442.93C81.3265 441.82 100.376 428.55 109.806 415.55Z" fill="#8C6048"/>
<g style="mix-blend-mode:multiply" opacity="0.2">
<path d="M91.4462 434.19C73.4462 425.11 42.5965 413.72 31.2065 407C23.7365 402.59 13.7563 392.11 8.75626 383C7.34442 385.19 6.05589 387.457 4.8964 389.79C1.1364 397.68 10.0665 411.34 21.2665 417.95C35.9965 426.63 74.4963 439.69 81.3163 442.95C81.3163 442.39 85.7862 439 91.4462 434.19Z" fill="#8C6048"/>
</g>
<path d="M27.2565 421.07C30.8065 417.58 25.2567 410.55 22.9967 406.7C17.8467 398.06 11.3863 391.32 5.36632 388.85C5.21632 389.15 5.04659 389.43 4.89659 389.75C1.06659 397.61 10.0667 411.3 21.2667 417.9C22.9667 418.91 25.0465 419.97 27.2565 421.07Z" fill="#664634"/>
<path d="M204.507 128.64L202.107 148.92C202.535 149.583 203.13 150.121 203.833 150.481C204.535 150.841 205.319 151.01 206.107 150.97C209.107 151.09 214.547 140.86 214.547 140.86C214.547 140.86 219.267 129.66 214.807 126.33C209.907 122.68 204.507 128.64 204.507 128.64Z" fill="#E6966E"/>
<path d="M133.416 128.93L134.537 149.33C134.066 149.961 133.437 150.457 132.714 150.77C131.991 151.082 131.199 151.199 130.416 151.11C127.416 150.99 122.636 140.38 122.636 140.38C122.636 140.38 118.636 128.86 123.296 125.87C128.406 122.55 133.416 128.93 133.416 128.93Z" fill="#F7A379"/>
<path d="M211.617 99.55C211.617 99.55 209.177 158.36 203.997 165.3C198.817 172.24 184.317 188.74 178.097 191.51C174.965 192.939 171.573 193.706 168.131 193.762C164.69 193.819 161.273 193.165 158.097 191.84C151.197 189.06 138.907 173.39 134.097 167.1C128.197 159.37 126.527 92.1 126.467 97.24C126.467 97.24 131.217 64.62 170.207 65.93C204.487 67.05 211.617 99.55 211.617 99.55Z" fill="#F7A379"/>
<path d="M128.617 128.68C128.617 128.68 129.927 165.06 134.827 175.44C142.827 192.44 150.468 198.88 157.708 203.38C161.228 205.58 176.068 205.52 179.708 203.51C188.548 198.62 195.707 192 203.577 174.67C208.997 162.67 210.827 123.21 210.827 123.21C210.827 123.21 204.197 157.04 197.827 158.97C189.657 161.46 194.128 154.15 168.038 153.73C144.368 153.35 145.857 159.16 140.637 157.79C135.417 156.42 128.617 128.68 128.617 128.68ZM149.617 167.08C149.455 166.78 149.358 166.45 149.331 166.111C149.304 165.772 149.349 165.43 149.462 165.109C149.575 164.788 149.754 164.494 149.987 164.246C150.221 163.998 150.504 163.802 150.817 163.67C153.347 162.67 158.458 161.32 168.018 161.34C176.518 161.34 181.937 162.82 184.717 163.86C185.038 163.98 185.331 164.166 185.576 164.405C185.821 164.645 186.013 164.933 186.141 165.251C186.269 165.569 186.33 165.91 186.319 166.252C186.308 166.594 186.225 166.931 186.077 167.24C184.137 171.31 178.927 179.24 167.777 178.57C164.009 178.436 160.344 177.3 157.16 175.281C153.975 173.262 151.386 170.431 149.657 167.08H149.617Z" fill="#BD8242"/>
<g style="mix-blend-mode:multiply" opacity="0.3">
<path d="M210.046 127.16C209.046 139.79 207.047 159.21 203.537 167.03C199.077 176.9 194.816 183.23 190.336 187.81C190.396 186.02 189.996 184.15 190.136 182.34C189.032 185.892 187.379 189.249 185.236 192.29C183.462 193.604 181.601 194.797 179.667 195.86C178.714 196.295 177.703 196.591 176.667 196.74C177.169 194.433 177.045 192.033 176.306 189.79C175.942 191.989 174.965 194.041 173.486 195.71C172.998 195.462 172.597 195.071 172.336 194.59L170.856 196.36C170.297 195.624 169.998 194.724 170.006 193.8C169.656 194.97 169.406 196.17 169.116 197.37C166.803 197.397 164.491 197.264 162.196 196.97C160.328 195.785 158.617 194.367 157.106 192.75C152.846 188.2 150.106 181.23 150.106 181.23C150.106 181.23 151.976 188.93 155.736 194.44C153.615 193.032 151.608 191.457 149.736 189.73C148.886 188.41 148.066 187.07 147.276 185.73L144.667 181.3C143.918 180.318 143.542 179.103 143.606 177.87L143.066 179.77L140.066 174.23C139.666 175.045 139.513 175.959 139.626 176.86C137.856 173.92 136.234 170.893 134.767 167.79C131.447 160.79 129.766 141.74 129.046 130.24C128.796 129.24 128.646 128.68 128.646 128.68C128.646 128.68 129.956 165.06 134.856 175.44C142.856 192.44 150.496 198.88 157.736 203.38C161.256 205.58 176.096 205.52 179.736 203.51C188.576 198.62 195.736 192 203.606 174.67C209.026 162.67 210.856 123.21 210.856 123.21C210.856 123.21 210.516 124.77 210.046 127.16Z" fill="#BD8242"/>
</g>
<path d="M209.156 73.8C209.476 72.9243 209.727 72.0248 209.906 71.11C210.626 67.16 209.416 62.57 205.986 60.48C205.618 60.9589 205.134 61.3355 204.579 61.5736C204.024 61.8117 203.417 61.9034 202.816 61.84C203.966 58.73 202.336 55.13 199.816 53C197.296 50.87 192.397 49.89 189.207 49C189.667 51.29 186.127 55.29 183.957 56.14C183.438 55.4573 183.066 54.674 182.866 53.84C182.102 54.4087 181.251 54.8511 180.346 55.15C180.12 53.3005 179.749 51.4715 179.236 49.68C179.236 49.68 177.036 55.43 163.506 57.27C163.045 55.9224 162.989 54.4689 163.346 53.09C162.478 53.1371 161.646 53.4503 160.963 53.9871C160.279 54.5238 159.778 55.2581 159.526 56.09C158.668 55.2572 157.6 54.6724 156.437 54.3978C155.273 54.1231 154.056 54.1688 152.917 54.53C154.837 54.96 156.366 55.08 156.396 57.19C156.396 57.19 153.746 57.11 152.316 57.19C144.236 57.54 143.126 60.85 135.856 63.75L137.676 64.2L131.977 66.38C132.343 66.2735 132.728 66.2514 133.104 66.3155C133.48 66.3796 133.836 66.5282 134.146 66.75C131.556 68.0443 128.842 69.0761 126.046 69.83L130.826 70.64C129.088 72.1988 127.167 73.5418 125.106 74.64C125.663 74.5618 126.228 74.6899 126.696 75C126.645 76.0328 126.298 77.0291 125.696 77.87C125.863 77.5768 126.112 77.339 126.412 77.1861C126.713 77.0332 127.051 76.972 127.386 77.01C126.98 78.251 126.286 79.3778 125.359 80.2975C124.432 81.2172 123.3 81.9036 122.056 82.3C122.842 82.4101 123.641 82.3591 124.406 82.15L119.896 91.02C120.434 91.0023 120.943 90.7764 121.316 90.39C121.056 92.71 122.596 101.7 122.316 105.69C122.456 105.56 122.596 105.38 122.736 105.25C123.307 115.283 125.307 125.183 128.676 134.65C128.976 135.46 130.116 135.34 130.116 135.34C127.826 123.87 129.936 108.88 131.546 103.1C133.996 94.27 135.756 82.16 157.296 89.67C191.516 101.6 199.866 88.22 199.866 88.22C208.456 98.22 210.336 121.16 208.076 136.82C208.076 136.82 209.017 137.37 209.227 136.6C209.967 133.85 212.696 116.05 214.546 101.33C215.806 90.78 214.346 80.91 209.156 73.8Z" fill="#BD8242"/>
<g style="mix-blend-mode:multiply" opacity="0.3">
<g style="mix-blend-mode:multiply" opacity="0.3">
<path d="M182.848 53.7997C182.083 54.3684 181.232 54.8107 180.328 55.1096C180.101 53.2601 179.73 51.4312 179.218 49.6396C179.218 49.6396 179.098 49.8797 178.888 50.2097C178.835 50.8221 178.663 51.4182 178.379 51.9638C178.096 52.5094 177.708 52.9939 177.238 53.3896C175.468 55.1169 173.415 56.5274 171.168 57.5596C175.403 57.9319 179.626 56.7284 183.028 54.1797C182.988 54.0497 182.878 53.9397 182.848 53.7997Z" fill="#BD8242"/>
</g>
<g style="mix-blend-mode:multiply" opacity="0.3">
<path d="M208.818 63.7596C208.576 64.4921 208.292 65.21 207.968 65.9096C207.197 67.2925 206.148 68.5012 204.888 69.4596C201.297 72.4386 197.056 74.5315 192.508 75.5696C196.528 75.9104 200.576 75.6237 204.508 74.7196C206.098 74.4196 207.688 74.0296 209.258 73.5896C209.548 72.781 209.779 71.9521 209.948 71.1096C210.379 68.6019 209.982 66.022 208.818 63.7596Z" fill="#BD8242"/>
</g>
<g style="mix-blend-mode:multiply" opacity="0.3">
<path d="M206.098 60.5497C206.098 60.5497 206.038 60.4797 205.988 60.4597C205.62 60.9386 205.135 61.3151 204.58 61.5532C204.025 61.7913 203.418 61.8831 202.818 61.8197C203.342 60.2864 203.303 58.6167 202.708 57.1096C202.448 57.4196 202.188 57.7197 201.918 58.0097C200.78 59.3211 199.506 60.5078 198.118 61.5497C195.906 62.9572 193.456 63.9501 190.888 64.4796C195.032 64.6861 199.175 64.0534 203.068 62.6197C204.247 62.2176 205.294 61.502 206.098 60.5497Z" fill="#BD8242"/>
</g>
</g>
<g style="mix-blend-mode:multiply" opacity="0.3">
<path d="M200.637 83.72C200.637 83.72 192.287 97.1 158.067 85.17C136.527 77.66 134.767 89.77 132.317 98.6C131.768 100.708 131.334 102.845 131.018 105C131.178 104.31 131.328 103.62 131.478 103.08C133.928 94.25 135.688 82.14 157.228 89.65C191.448 101.58 199.797 88.2 199.797 88.2C208.387 98.2 210.267 121.14 208.007 136.8L208.847 132.32C211.107 116.66 209.227 93.69 200.637 83.72Z" fill="#BD8242"/>
</g>
<g style="mix-blend-mode:multiply" opacity="0.5">
<path d="M175.167 140.73C175.167 140.73 176.987 148.25 175.867 151.05C174.747 153.85 160.867 152.73 159.447 151.05C158.027 149.37 160.237 140.69 160.237 140.69C160.237 140.69 159.377 147.13 161.367 148.9C163.357 150.67 172.527 150.14 173.737 148.61C174.947 147.08 175.167 140.73 175.167 140.73Z" fill="#E6966E"/>
</g>
<path d="M145.148 123.9C141.694 124.391 138.545 126.144 136.307 128.82C136.307 128.82 135.858 129.59 146.568 130.49C155.308 130.29 157.678 129.7 157.668 129.05C157.628 127.36 152.598 122.77 145.148 123.9Z" fill="#F2F0F0"/>
<path d="M151.188 126.01C151.145 125.158 150.848 124.338 150.336 123.656C149.824 122.974 149.121 122.461 148.315 122.181C147.509 121.902 146.637 121.87 145.813 122.089C144.989 122.308 144.249 122.768 143.688 123.411C143.127 124.054 142.771 124.849 142.666 125.695C142.56 126.542 142.71 127.4 143.095 128.161C143.481 128.922 144.086 129.55 144.831 129.965C145.576 130.38 146.428 130.562 147.278 130.49C148.388 130.408 149.421 129.891 150.153 129.053C150.885 128.214 151.257 127.121 151.188 126.01Z" fill="#487CB8"/>
<path d="M149.948 126.11C149.867 125.322 149.478 124.598 148.865 124.096C148.253 123.594 147.466 123.354 146.678 123.43C145.892 123.489 145.162 123.854 144.643 124.447C144.125 125.04 143.861 125.813 143.908 126.6C143.973 127.395 144.351 128.133 144.96 128.649C145.568 129.166 146.357 129.42 147.153 129.355C147.948 129.29 148.686 128.911 149.203 128.303C149.719 127.694 149.973 126.905 149.908 126.11H149.948Z" fill="#18100E"/>
<path d="M151.168 124.8C151.135 124.474 150.974 124.175 150.721 123.967C150.468 123.759 150.143 123.659 149.817 123.69C149.655 123.699 149.497 123.74 149.351 123.811C149.205 123.882 149.074 123.981 148.967 124.103C148.86 124.225 148.779 124.367 148.727 124.521C148.676 124.675 148.655 124.838 148.668 125C148.703 125.325 148.864 125.623 149.116 125.83C149.369 126.038 149.692 126.138 150.018 126.11C150.179 126.1 150.337 126.058 150.482 125.986C150.628 125.915 150.757 125.816 150.864 125.694C150.971 125.572 151.053 125.431 151.105 125.277C151.157 125.124 151.178 124.962 151.168 124.8Z" fill="#EFECEC"/>
<path d="M146.046 120.34C158.436 119.99 157.676 129.05 157.676 129.05C157.676 129.05 154.116 123.05 145.486 123.57C140.206 123.9 136.316 128.82 136.316 128.82C136.316 128.82 136.696 120.55 146.046 120.34Z" fill="#E6966E"/>
<path d="M145.947 122.78C156.677 121.97 157.667 129.05 157.667 129.05C157.667 129.05 153.387 122.97 145.857 124.15C138.977 125.21 136.307 128.82 136.307 128.82C136.307 128.82 136.747 123.47 145.947 122.78Z" fill="#412118"/>
<path d="M191.427 124.44C194.906 124.86 198.079 126.635 200.257 129.38C200.257 129.38 199.977 130.76 190.067 131.26C180.557 131.2 178.867 130.19 178.887 129.55C179.107 127.15 185.507 123.69 191.427 124.44Z" fill="#F2F0F0"/>
<path d="M185.388 126.55C185.435 125.701 185.734 124.885 186.248 124.207C186.762 123.529 187.466 123.02 188.271 122.745C189.075 122.471 189.944 122.442 190.765 122.664C191.586 122.886 192.322 123.347 192.878 123.99C193.435 124.633 193.788 125.427 193.89 126.271C193.993 127.116 193.841 127.971 193.454 128.728C193.067 129.486 192.463 130.11 191.719 130.522C190.975 130.934 190.125 131.114 189.278 131.04C188.17 130.953 187.14 130.433 186.412 129.593C185.684 128.752 185.316 127.659 185.388 126.55Z" fill="#487CB8"/>
<path d="M186.627 126.64C186.665 126.046 186.878 125.476 187.24 125.004C187.602 124.532 188.097 124.178 188.661 123.987C189.225 123.796 189.832 123.778 190.407 123.934C190.981 124.09 191.497 124.413 191.887 124.863C192.277 125.312 192.525 125.868 192.598 126.458C192.672 127.049 192.568 127.648 192.3 128.18C192.032 128.711 191.612 129.151 191.093 129.443C190.574 129.735 189.98 129.866 189.387 129.82C188.601 129.758 187.872 129.391 187.356 128.796C186.839 128.201 186.577 127.426 186.627 126.64Z" fill="#18100E"/>
<path d="M191.717 125.69C191.742 125.363 191.896 125.059 192.146 124.845C192.395 124.631 192.719 124.525 193.047 124.55C193.208 124.56 193.366 124.602 193.511 124.674C193.655 124.745 193.784 124.845 193.89 124.967C193.996 125.089 194.077 125.23 194.128 125.384C194.179 125.537 194.199 125.699 194.187 125.86C194.151 126.187 193.989 126.486 193.734 126.694C193.48 126.902 193.153 127.001 192.826 126.97C192.512 126.942 192.22 126.793 192.013 126.554C191.806 126.315 191.7 126.006 191.717 125.69Z" fill="#EFECEC"/>
<path d="M190.467 120.99C178.797 120.24 178.887 129.55 178.887 129.55C178.887 129.55 182.457 123.55 191.087 124.12C196.367 124.46 200.247 129.38 200.247 129.38C200.247 129.38 200.597 121.62 190.467 120.99Z" fill="#E6966E"/>
<path d="M190.277 123.48C179.557 123.19 178.887 129.55 178.887 129.55C180.308 127.83 182.13 126.485 184.193 125.634C186.256 124.783 188.496 124.452 190.717 124.67C197.647 125.31 200.257 129.38 200.257 129.38C200.257 129.38 199.687 123.73 190.277 123.48Z" fill="#412118"/>
<path d="M138.197 109.44C142.447 108.9 161.197 109.62 162.117 110.72C163.037 111.82 162.258 116.31 160.458 116.2C152.458 115.71 143.318 113.83 137.458 113.89C135.188 113.89 131.357 115.84 131.357 115.84C131.357 115.84 133.947 109.97 138.197 109.44Z" fill="#8B5E3C"/>
<path d="M197.277 108.79C193.017 108.34 174.807 109.98 173.947 111.1C173.087 112.22 174.077 116.51 175.877 116.36C183.027 115.76 192.447 114.07 198.257 113.87C200.551 113.882 202.833 114.191 205.047 114.79C205.047 114.79 201.537 109.23 197.277 108.79Z" fill="#8B5E3C"/>
<g style="mix-blend-mode:multiply" opacity="0.5">
<path d="M182.497 164.97C167.547 172.45 150.687 163.97 153.497 165.25C151.757 164.45 183.817 164.31 182.497 164.97Z" fill="#E6966E"/>
</g>
<g style="mix-blend-mode:multiply" opacity="0.5">
<path d="M175.216 171.55C167.566 178 158.746 169.95 160.886 171.65C160.106 171.07 175.966 170.95 175.216 171.55Z" fill="#E6966E"/>
</g>
<g style="mix-blend-mode:screen" opacity="0.3">
<path d="M203.977 133.86C204.617 126.81 198.647 122.61 190.327 122.69C182.007 122.77 175.267 126.43 175.327 133.49C175.387 140.55 182.387 148.24 190.857 147.19C199.327 146.14 203.397 140.36 203.977 133.86Z" fill="#E6E7E8"/>
</g>
<g style="mix-blend-mode:screen" opacity="0.3">
<path d="M180.196 136.55C180.126 129.49 186.856 125.84 195.196 125.75C197.417 125.705 199.63 126.043 201.736 126.75C199.346 124.08 195.276 122.59 190.346 122.64C182.026 122.73 175.286 126.38 175.346 133.44C175.396 138.71 179.346 144.31 184.796 146.39C182.026 143.845 180.372 140.308 180.196 136.55Z" fill="#E6E7E8"/>
</g>
<g style="mix-blend-mode:screen" opacity="0.3">
<path d="M162.047 133.41C161.967 126.35 155.167 122.83 146.847 122.92C138.527 123.01 132.637 127.33 133.417 134.36C134.127 140.84 138.347 146.57 146.787 147.43C155.227 148.29 162.047 140.47 162.047 133.41Z" fill="#E6E7E8"/>
</g>
<g style="mix-blend-mode:screen" opacity="0.3">
<path d="M138.596 137.83C137.826 130.83 143.706 126.47 152.026 126.39C154.692 126.331 157.347 126.747 159.866 127.62C157.226 124.46 152.386 122.86 146.866 122.92C138.546 123 132.656 127.33 133.436 134.36C133.628 136.998 134.567 139.528 136.143 141.653C137.719 143.778 139.867 145.41 142.336 146.36C140.216 143.985 138.906 140.998 138.596 137.83Z" fill="#E6E7E8"/>
</g>
<path d="M200.757 123.97C192.957 120.32 184.917 120.3 176.347 125.11C175.915 125.347 175.441 125.495 174.951 125.545C174.462 125.594 173.967 125.545 173.497 125.4C170.422 124.345 167.082 124.345 164.007 125.4C163.512 125.592 162.982 125.678 162.451 125.652C161.921 125.627 161.401 125.489 160.927 125.25C152.297 120.68 144.197 120.82 136.517 124.61C133.931 126.485 130.822 127.502 127.627 127.52L127.777 130.92C130.327 131.38 131.637 132.92 131.687 136.16C132.052 136.353 132.459 136.455 132.872 136.455C133.285 136.455 133.692 136.353 134.057 136.16C133.767 128.75 137.637 124.35 146.817 123.77C155.427 123.38 160.477 126.52 161.687 133.47C162.457 134.3 163.687 134.57 164.377 133.58C164.586 133.359 164.738 133.09 164.818 132.797C164.899 132.504 164.906 132.195 164.838 131.898C164.771 131.602 164.632 131.326 164.433 131.096C164.233 130.866 163.981 130.689 163.697 130.58C163.639 130.222 163.654 129.857 163.741 129.505C163.828 129.154 163.985 128.823 164.202 128.534C164.42 128.244 164.693 128.002 165.007 127.821C165.32 127.64 165.667 127.524 166.027 127.48C167.758 127.03 169.575 127.03 171.307 127.48C172.877 127.85 173.867 128.79 173.707 130.53C173.428 130.645 173.181 130.827 172.988 131.06C172.795 131.293 172.662 131.57 172.601 131.866C172.54 132.162 172.553 132.468 172.637 132.758C172.722 133.048 172.876 133.313 173.087 133.53C173.797 134.53 175.017 134.21 175.777 133.36C176.837 126.36 181.777 123.15 190.437 123.36C199.637 123.75 203.597 128.08 203.437 135.48C203.802 135.674 204.209 135.776 204.622 135.776C205.035 135.776 205.442 135.674 205.807 135.48C205.807 132.28 207.067 130.67 209.607 130.16L209.687 126.76C206.492 126.787 203.369 125.811 200.757 123.97Z" fill="#3F2216"/>
<path d="M161.876 133.03C160.776 142.96 154.007 146.81 148.537 147.09C145.154 147.253 141.823 146.21 139.138 144.146C136.453 142.081 134.588 139.131 133.876 135.82L133.076 135.97C133.899 139.626 136.034 142.853 139.076 145.04C141.679 146.891 144.802 147.872 147.997 147.84H148.626C152.047 147.672 155.295 146.289 157.787 143.94C160.665 141.033 162.416 137.198 162.727 133.12L161.876 133.03Z" fill="#3F2216"/>
<path d="M203.687 135.29C203.043 138.617 201.239 141.607 198.597 143.728C195.954 145.849 192.644 146.962 189.256 146.87C183.786 146.7 176.936 142.98 175.636 133.09L174.826 133.17C175.223 137.238 177.052 141.034 179.986 143.88C182.523 146.184 185.801 147.504 189.227 147.6H189.846C193.046 147.562 196.151 146.512 198.716 144.6C201.697 142.344 203.75 139.075 204.486 135.41L203.687 135.29Z" fill="#3F2216"/>
<path d="M130.467 128.85H129.047C129.006 128.852 128.965 128.847 128.927 128.834C128.888 128.821 128.852 128.8 128.822 128.773C128.791 128.746 128.766 128.714 128.748 128.677C128.73 128.64 128.719 128.6 128.717 128.56C128.718 128.519 128.728 128.48 128.745 128.443C128.762 128.407 128.786 128.374 128.815 128.347C128.845 128.32 128.88 128.299 128.918 128.286C128.957 128.272 128.997 128.267 129.037 128.27H130.507C130.547 128.266 130.588 128.27 130.626 128.282C130.665 128.294 130.701 128.313 130.731 128.339C130.762 128.365 130.788 128.398 130.806 128.434C130.824 128.47 130.834 128.509 130.837 128.55C130.835 128.595 130.823 128.638 130.803 128.678C130.782 128.719 130.754 128.754 130.719 128.782C130.684 128.81 130.644 128.831 130.6 128.843C130.557 128.854 130.511 128.857 130.467 128.85Z" fill="#B3B3B3"/>
<path d="M208.467 127.98H207.047C207.006 127.982 206.965 127.977 206.927 127.964C206.888 127.951 206.852 127.93 206.822 127.903C206.791 127.876 206.766 127.843 206.748 127.807C206.73 127.77 206.719 127.73 206.717 127.69C206.718 127.649 206.728 127.61 206.745 127.573C206.762 127.537 206.786 127.504 206.815 127.477C206.845 127.45 206.88 127.429 206.918 127.416C206.957 127.402 206.997 127.397 207.037 127.4H208.507C208.548 127.397 208.588 127.402 208.627 127.415C208.666 127.428 208.701 127.449 208.732 127.476C208.763 127.503 208.788 127.536 208.806 127.572C208.824 127.609 208.834 127.649 208.837 127.69C208.835 127.734 208.823 127.778 208.803 127.817C208.782 127.857 208.753 127.892 208.718 127.92C208.683 127.947 208.643 127.967 208.599 127.977C208.556 127.987 208.511 127.988 208.467 127.98Z" fill="#B3B3B3"/>
<path d="M249.046 182.91L239.996 166.37C239.996 166.37 238.516 137.75 237.916 135.78C237.316 133.81 223.536 114.98 221.816 114.68C220.096 114.38 204.026 116.8 202.596 117.37C201.166 117.94 195.676 125.46 196.276 126.49C197.716 128.84 201.066 127.85 201.066 127.85C201.066 127.85 196.636 133.54 196.416 135.21C196.196 136.88 197.226 147.21 197.226 147.21C197.802 147.354 198.408 147.312 198.958 147.089C199.508 146.866 199.974 146.474 200.286 145.97C200.286 145.97 201.546 152.25 202.286 152.57C204.41 151.521 206.156 149.841 207.286 147.76C208.286 145.56 206.816 141.76 206.816 141.76C208.936 140.15 211.066 138.85 212.066 137.36C212.066 137.36 214.896 139.62 215.366 141.05C215.836 142.48 213.046 156.64 212.826 161.62C212.606 166.6 217.156 171.53 219.166 172.22C221.771 173.14 224.114 174.678 225.995 176.702C227.876 178.725 229.238 181.175 229.966 183.84L249.046 182.91Z" fill="#E6966E"/>
<g style="mix-blend-mode:multiply" opacity="0.5">
<path d="M211.466 127.08C208.396 127.36 199.646 138.65 199.646 138.65C199.646 138.65 210.516 128.95 211.846 128.65C213.176 128.35 219.776 131.82 222.346 132.65C222.346 132.61 214.546 126.8 211.466 127.08Z" fill="#E6966E"/>
</g>
<g style="mix-blend-mode:multiply" opacity="0.5">
<path d="M215.206 118.78C212.146 118.37 201.086 127.41 201.086 127.41C201.086 127.41 213.856 120.41 215.226 120.41C216.596 120.41 222.226 125.28 224.556 126.63C224.556 126.61 218.266 119.2 215.206 118.78Z" fill="#E6966E"/>
</g>
<path d="M248.388 160.01L240.908 153.84L222.348 176.11L230.988 184.74L248.388 160.01Z" fill="#F1F2F2"/>
<path d="M248.377 160.01C268.537 172.4 304.537 192.3 321.527 211.78C346.037 239.89 349.938 258.87 331.978 271.55C324.398 276.9 299.487 264.35 288.587 251.84C274.237 235.38 231.258 195.26 226.938 185.72C228.168 185.6 248.377 160.01 248.377 160.01Z" fill="#8C6048"/>
<path d="M326.968 218.35C314.628 229.25 317.288 245.84 334.198 269.8C348.218 258.21 345.528 241.69 326.968 218.35Z" fill="#664634"/>
<g style="mix-blend-mode:multiply" opacity="0.2">
<path d="M299.046 243.07C308.876 254.35 330.047 265.61 339.687 263.8C337.621 266.853 334.99 269.484 331.937 271.55C324.357 276.9 299.446 264.35 288.546 251.84C274.196 235.38 231.216 195.26 226.896 185.72C227.396 185.67 232.797 179.31 236.497 174.8C248.227 191.82 287.486 229.76 299.046 243.07Z" fill="#8C6048"/>
</g>
</g>
</svg>
