<svg width="384" height="426" viewBox="0 0 384 426" fill="none" xmlns="http://www.w3.org/2000/svg">
<path d="M260.199 460.689C258.699 454.529 251.539 428.549 248.589 423.689C227.929 389.689 182.149 406.449 182.149 406.449L120.939 418.449C108.329 443.119 95.1492 469.829 97.6392 494.389C100.129 518.949 97.0688 691.629 97.0688 704.189C97.0688 715.699 94.9991 857.119 95.8091 879.749C95.8791 881.749 95.6191 886.879 96.8091 888.489C101.179 894.629 140.229 894.179 142.009 885.089C153.169 827.839 162.279 713.619 163.899 704.779C167.239 686.549 181.709 549.929 181.709 549.929C187.099 549.929 277.419 854.339 282.389 882.099C282.672 883.892 283.463 885.566 284.668 886.924C285.874 888.281 287.442 889.265 289.189 889.759C302.189 893.619 333.339 894.929 332.379 884.319C332.029 880.859 263.159 472.899 260.199 460.689Z" fill="#36393D"/>
<g style="mix-blend-mode:screen" opacity="0.2">
<path d="M201.649 401.75C194.159 402.97 182.149 406.48 182.149 406.48L120.939 418.48C108.329 443.15 95.1492 469.86 97.6392 494.42C100.129 518.98 97.0688 691.66 97.0688 704.22C97.0688 715.73 94.9991 857.15 95.8091 879.78C95.8791 881.78 95.6191 886.91 96.8091 888.52C101.179 894.66 140.229 894.21 142.009 885.12C153.169 827.87 162.279 713.65 163.899 704.81C167.239 686.58 181.709 549.96 181.709 549.96L187.449 526.61L198.719 511.91L201.649 401.75Z" fill="#2E2B2D"/>
</g>
<path d="M116.128 414.099C139.248 417.389 192.348 418.269 213.898 414.349C235.448 410.429 244.998 408.279 244.998 408.279L248.588 423.719C248.588 423.719 254.378 429.719 211.818 432.299C169.258 434.879 123.648 432.529 116.128 429.409C112.728 427.989 116.128 414.099 116.128 414.099Z" fill="#1D1D1B"/>
<path d="M204.209 430.339C204.237 430.926 204.03 431.5 203.634 431.935C203.239 432.37 202.687 432.63 202.1 432.659L178.02 433.399C177.728 433.404 177.439 433.352 177.168 433.245C176.898 433.138 176.65 432.979 176.441 432.777C176.232 432.574 176.066 432.332 175.95 432.065C175.835 431.798 175.773 431.51 175.77 431.219L175.35 417.879C175.325 417.292 175.533 416.72 175.928 416.285C176.323 415.851 176.873 415.59 177.459 415.559L201.549 414.809C201.841 414.804 202.131 414.856 202.403 414.964C202.674 415.071 202.922 415.231 203.131 415.435C203.34 415.639 203.507 415.882 203.622 416.15C203.736 416.419 203.797 416.707 203.799 416.999L204.209 430.339Z" fill="#1D1D1B"/>
<path d="M177.95 434.689C177.072 434.688 176.228 434.352 175.59 433.749C175.246 433.425 174.971 433.037 174.779 432.606C174.586 432.175 174.482 431.711 174.47 431.239L174.06 417.909C174.047 417.436 174.129 416.964 174.301 416.523C174.473 416.082 174.731 415.679 175.06 415.339C175.367 415.008 175.738 414.741 176.15 414.556C176.562 414.37 177.008 414.269 177.46 414.259L201.54 413.509C202.002 413.497 202.462 413.577 202.893 413.744C203.324 413.91 203.718 414.161 204.052 414.481C204.386 414.801 204.653 415.183 204.838 415.607C205.023 416.031 205.122 416.487 205.13 416.949L205.54 430.289C205.551 430.762 205.469 431.233 205.297 431.674C205.126 432.115 204.868 432.518 204.54 432.859C204.232 433.19 203.861 433.457 203.449 433.642C203.037 433.828 202.592 433.929 202.14 433.939L178.05 434.689H177.95ZM201.62 416.099L177.53 416.839C177.306 416.853 177.097 416.95 176.94 417.109C176.851 417.206 176.783 417.32 176.738 417.443C176.693 417.567 176.674 417.698 176.68 417.829L177.1 431.169C177.1 431.298 177.126 431.427 177.178 431.545C177.229 431.664 177.305 431.771 177.4 431.859C177.48 431.938 177.575 432 177.68 432.042C177.785 432.083 177.897 432.102 178.01 432.099L202.1 431.349C202.21 431.348 202.319 431.323 202.419 431.276C202.519 431.23 202.608 431.162 202.68 431.079C202.773 430.985 202.845 430.872 202.892 430.748C202.938 430.624 202.958 430.491 202.95 430.359L202.53 417.029C202.526 416.765 202.418 416.514 202.23 416.329C202.062 416.18 201.844 416.101 201.62 416.109V416.099Z" fill="#C3B398"/>
<path d="M157.351 151.94C160.641 146.78 205.54 150.08 208.03 151.94C210.52 153.8 211.44 170.64 211.44 170.64V195.64L154.11 190.3L153.891 169.22C153.891 169.22 154.111 156.99 157.351 151.94Z" fill="#BCBEC0"/>
<path d="M103.93 188.87C127.63 180.16 142.93 175.57 150 172.41C155.88 169.88 159.45 160.97 158.93 154.41C158.04 143.24 155.72 111.34 155.72 111.34L205.56 108.64C205.56 108.64 203.69 148.29 207.39 160.97C209.28 167.48 214.81 169.22 219.39 170.64C234.96 175.45 238.599 183.25 254.169 198.23C267.089 210.67 250.719 306.74 243.169 345.48C239.799 362.79 242.76 402.82 242.76 402.82C197.52 416.02 139.839 412.11 120.629 394.35C120.629 394.35 121.399 358.49 120.439 342.17C118.269 304.41 105.99 227.32 103.93 188.87Z" fill="#E6966E"/>
<path d="M152.52 168.379C156.27 172.249 166.41 174.739 173.12 186.209C180.55 198.909 184.33 203.869 184.33 203.869C184.33 203.869 187.92 202.379 194.73 190.349C201.29 178.759 211.02 173.289 217.48 170.209C217.48 170.209 254.739 177.719 264.049 183.259C273.359 188.799 257.96 282.069 257.96 282.069C257.96 282.069 246.8 348.339 244.96 408.279C244.96 408.279 243.5 420.959 200.49 422.509C161.41 423.929 116.089 414.099 116.089 414.099C119.919 387.689 102.94 273.689 102.94 273.689C102.94 273.689 93.2994 183.779 105.069 180.809C117.949 177.589 152.52 168.379 152.52 168.379Z" fill="#E5E6E7"/>
<path d="M173.871 177.759C175.801 179.609 184.331 203.869 184.331 203.869C179.963 199.273 176.048 194.267 172.641 188.919L153.891 197.029L157.351 151.939C157.351 151.939 171.941 175.899 173.871 177.759Z" fill="#D1D3D4"/>
<path d="M173.87 177.759L153.87 197.029C153.87 197.029 144.98 176.809 146.41 168.179C146.91 165.179 157.33 151.939 157.33 151.939L173.87 177.759Z" fill="#F1F2F2"/>
<path d="M194.73 175.939C192.89 177.799 184.33 203.869 184.33 203.869C184.33 203.869 193.19 196.289 198.55 187.469L213 197.029L208 151.939C208 151.939 196.57 174.079 194.73 175.939Z" fill="#D1D3D4"/>
<path d="M194.73 175.939L213 197.029C213 197.029 220.781 179.269 219.411 170.639C218.931 167.639 208.03 151.939 208.03 151.939L194.73 175.939Z" fill="#F1F2F2"/>
<path d="M184.33 206.359L183.13 422.71L180.45 376.049L179.74 198.229L184.33 206.359Z" fill="#D1D3D4"/>
<path d="M105.069 180.849C105.069 180.849 91.4398 174.479 78.9498 195.639C60.4198 227.029 10.7296 289.009 1.30962 326.479C-4.16038 348.249 44.6298 341.399 51.4698 332.479C58.1798 323.699 102.41 268.479 102.41 268.479C119.2 239.419 95.8294 203.159 105.069 180.849Z" fill="#8C6048"/>
<g style="mix-blend-mode:multiply" opacity="0.2">
<path d="M105.539 239.429C105.539 239.429 51.5388 323.929 33.0288 331.319C24.1975 334.495 15.031 336.646 5.70898 337.729C17.329 344.729 46.3092 339.199 51.4692 332.439C58.1792 323.659 102.409 268.439 102.409 268.439C108.689 257.599 109.349 245.739 108.209 233.979C107.447 235.856 106.554 237.677 105.539 239.429Z" fill="#8C6048"/>
</g>
<path d="M118.349 397.89C118.349 397.89 108.159 488.48 107.699 495.72C107.239 502.96 59.6188 488.72 57.3688 481.81C55.1188 474.9 85.5385 393.33 89.1285 381.55C92.9085 369.16 103.199 267.45 99.2286 255.16C95.2586 242.87 91.3488 184.38 102.929 180.22C126.799 171.64 142.809 165.58 142.809 165.58L152.548 189.51L131.769 329.69L118.349 397.89Z" fill="#8C6048"/>
<g style="mix-blend-mode:multiply" opacity="0.5">
<g style="mix-blend-mode:multiply" opacity="0.5">
<path d="M242.68 304.08L242.99 304.02L242.68 304.08Z" fill="#F1F2F2"/>
</g>
</g>
<path d="M120.04 332.689C118.19 332.199 116.04 334.289 115.22 337.359C114.4 340.429 115.219 343.359 117.089 343.799C118.959 344.239 121.089 342.199 121.899 339.129C122.709 336.059 121.88 333.129 120.04 332.689Z" fill="#A67255"/>
<path d="M112.159 362.319C110.319 361.829 108.158 363.919 107.348 366.989C106.538 370.059 107.348 372.989 109.208 373.429C111.068 373.869 113.208 371.829 114.028 368.759C114.848 365.689 114.009 362.809 112.159 362.319Z" fill="#A67255"/>
<path d="M104.33 391.839C102.48 391.359 100.33 393.439 99.5204 396.509C98.7104 399.579 99.5202 402.459 101.38 402.949C103.24 403.439 105.381 401.349 106.201 398.289C107.021 395.229 106.17 392.329 104.33 391.839Z" fill="#A67255"/>
<g style="mix-blend-mode:multiply" opacity="0.2">
<path d="M93.7202 351.14C91.9802 366.08 90.2699 377.84 89.1299 381.55C87.1799 387.97 77.2502 415.12 68.9902 439.62C85.3002 445.28 107.55 456 110.04 472.94C112.44 450.69 116.04 418.57 117.59 404.71C110.73 395.21 100.04 377.21 93.7202 351.14Z" fill="#8C6048"/>
</g>
<path d="M127.8 403.149C124.68 401.979 106.45 400.379 106.45 400.379L81.8398 405.239C84.9141 414.322 90.5172 422.34 97.9902 428.349C103.66 432.749 107.33 434.349 114.05 442.169C117.59 446.319 120.44 448.519 123.21 447.169C124.6 446.509 123.96 444.829 123.96 444.829C123.96 444.829 127.22 448.919 129.96 447.509C131.66 446.619 131.72 445.399 131.72 445.399C131.72 445.399 134.26 447.669 136.17 446.729C138.08 445.789 137.25 442.089 137.25 442.089L133.65 426.829L127.35 414.509C127.35 414.509 133.35 418.619 135.74 419.639C138.13 420.659 143.64 428.889 143.64 428.889C143.64 428.889 146.17 430.689 147.8 429.269C149.43 427.849 146.1 420.829 146.1 420.829C144.573 418.11 142.697 415.602 140.52 413.369C137.58 410.669 130.93 404.299 127.82 403.119L127.8 403.149Z" fill="#E6966E"/>
<g style="mix-blend-mode:multiply" opacity="0.3">
<path d="M97.9893 428.349C99.8793 429.819 101.879 431.209 103.899 432.719C104.619 433.259 109.509 430.289 111.329 428.929C113.149 427.569 126.719 402.929 125.699 402.639C120.019 401.579 106.779 400.409 106.479 400.379L81.8691 405.239C83.5124 409.446 85.5201 413.501 87.8691 417.359C90.6411 421.534 94.0569 425.243 97.9893 428.349Z" fill="#E6966E"/>
</g>
<g style="mix-blend-mode:multiply" opacity="0.3">
<g style="mix-blend-mode:multiply" opacity="0.3">
<path d="M132.54 444.509L127.56 431.829L123.6 424.799L126.74 434.979L132.54 444.509Z" fill="#E6966E"/>
</g>
</g>
<path d="M102.63 393.859L109.24 400.479L90.8599 421.749L81.8398 414.299L102.63 393.859Z" fill="#E5E6E7"/>
<path d="M102.63 393.86C88.7396 375.47 73.5198 349.44 53.3698 329.98C27.7798 305.27 10.8798 306.98 1.30976 326.48C-2.69024 334.68 9.92958 355.24 21.1296 366.43C36.2296 381.5 70.2998 416.6 79.6398 419.65C84.5598 417.81 102.63 393.86 102.63 393.86Z" fill="#8C6048"/>
<path d="M13.4801 357.59L14.0699 357.5C17.57 356.79 21.5004 355.22 22.4904 351.78C22.96 349.727 22.6007 347.571 21.4904 345.78C20.4904 343.96 19.0903 342.38 17.9303 340.66C14.9465 336.158 13.6043 330.766 14.13 325.39C14.68 319.97 17.1301 314.52 15.7101 309.26C14.9181 306.517 13.1365 304.165 10.7101 302.66C6.47009 311.23 3.18001 319.29 1.38001 326.45C-1.80999 332.81 5.04011 346.52 13.4801 357.59Z" fill="#664634"/>
<g style="mix-blend-mode:multiply" opacity="0.2">
<path d="M19.0801 352.689C12.2901 345.909 4.99016 335.689 1.18016 326.869C-2.30984 335.309 10.0899 355.399 21.1299 366.419C36.2299 381.489 70.3001 416.589 79.6401 419.639C81.5201 418.939 85.3098 415.009 89.2798 410.429C69.2098 396.239 31.0301 364.629 19.0801 352.689Z" fill="#8C6048"/>
</g>
<path d="M259 180.849C259 180.849 272.63 174.479 285.12 195.639C303.66 227.029 344.521 265.469 353.931 302.929C359.401 324.709 319.45 341.399 312.61 332.439C305.9 323.659 261.661 268.439 261.661 268.439C244.871 239.419 268.27 203.159 259 180.849Z" fill="#8C6048"/>
<g style="mix-blend-mode:multiply" opacity="0.2">
<path d="M324.268 320.88C317.558 312.1 269.728 248.88 269.728 248.88C263.938 238.88 260.728 227.48 258.588 215.93C255.588 233.18 252.159 251.93 261.679 268.41C261.679 268.41 305.918 323.64 312.628 332.41C319.338 341.18 322.798 277.34 321.208 258.33C285.448 290.95 328.548 326.51 324.268 320.88Z" fill="#8C6048"/>
</g>
<path d="M246.57 397.889C246.57 397.889 256.77 488.479 257.27 495.689C257.77 502.899 305.36 488.689 307.6 481.779C309.84 474.869 279.43 393.299 275.84 381.519C272.06 369.129 261.78 267.419 265.75 255.129C269.72 242.839 273.62 184.349 262.04 180.189C238.17 171.609 222.17 165.549 222.17 165.549L212.42 189.479L233.15 329.689L246.57 397.889Z" fill="#8C6048"/>
<g style="mix-blend-mode:multiply" opacity="0.2">
<path d="M271.2 351.14C272.94 366.08 274.66 377.84 275.79 381.55C277.79 387.97 287.67 415.12 295.94 439.62C279.62 445.28 257.37 456 254.89 472.94C252.48 450.69 248.89 418.57 247.34 404.71C254.19 395.21 264.88 377.21 271.2 351.14Z" fill="#8C6048"/>
</g>
<path d="M227.589 167.919C227.289 165.779 222.589 165.709 212.049 157.819C214.11 165.127 214.221 172.846 212.37 180.209C204.76 210.499 229.589 310.469 229.589 310.469L233.149 329.729L229.899 213.389L220.439 198.289L230.14 194.289C230.14 194.289 228.269 172.759 227.589 167.919Z" fill="#A67255"/>
<path d="M215.49 76.0594L216.61 96.4494C217.144 97.0267 217.821 97.4541 218.572 97.6891C219.323 97.9242 220.122 97.9588 220.89 97.7894C223.89 97.3794 227.47 86.3694 227.47 86.3694C227.47 86.3694 230.19 74.5294 225.23 72.0094C219.78 69.2594 215.49 76.0594 215.49 76.0594Z" fill="#E6966E"/>
<path d="M145.511 88.5591L150.121 108.469C149.765 109.171 149.232 109.766 148.574 110.196C147.915 110.626 147.156 110.876 146.371 110.919C143.371 111.329 136.86 101.699 136.86 101.699C136.86 101.699 130.941 91.0291 135.011 87.2791C139.481 83.1791 145.511 88.5591 145.511 88.5591Z" fill="#F7A379"/>
<path d="M217.479 46.149C217.479 46.149 225.199 104.509 221.279 112.229C217.359 119.949 205.919 138.699 200.279 142.499C197.447 144.443 194.245 145.781 190.872 146.428C187.499 147.075 184.029 147.017 180.679 146.259C173.409 144.709 158.599 131.379 152.799 126.009C145.659 119.409 132.459 53.419 133.279 58.499C133.279 58.499 132.349 25.549 170.989 20.139C204.879 15.379 217.479 46.149 217.479 46.149Z" fill="#F7A379"/>
<path d="M140.73 89.1392C140.73 89.1392 148.281 124.759 154.891 134.139C165.701 149.499 174.32 154.539 182.23 157.729C186.08 159.289 200.691 156.729 203.931 154.079C211.801 147.739 217.75 139.979 222.48 121.569C225.76 108.819 220.78 69.6191 220.78 69.6191C220.78 69.6191 220.071 104.089 214.161 107.079C206.541 110.929 209.68 102.959 183.92 107.029C160.54 110.729 163.001 116.199 157.621 115.749C152.241 115.299 140.73 89.1392 140.73 89.1392ZM171.73 122.139C170.95 120.719 171.051 118.759 171.971 117.929C173.721 116.369 177.421 114.109 184.871 112.829C191.491 111.689 196.011 112.689 198.391 113.549C199.561 113.969 200.391 115.719 200.141 117.369C199.481 122.469 197.06 132.559 188.25 133.369C179.44 134.179 174.011 126.249 171.721 122.109L171.73 122.139Z" fill="#BD8242"/>
<g style="mix-blend-mode:multiply" opacity="0.3">
<path d="M220.639 73.6894C221.849 86.2894 223.219 105.769 221.089 114.079C218.389 124.569 215.269 131.539 211.659 136.819C211.409 135.039 210.659 133.279 210.509 131.469C210.033 135.156 208.984 138.746 207.399 142.109C205.876 143.708 204.249 145.205 202.529 146.589C201.654 147.178 200.702 147.642 199.699 147.969C199.803 145.608 199.267 143.262 198.149 141.179C198.175 143.411 197.564 145.603 196.389 147.499C195.867 147.337 195.404 147.024 195.059 146.599L193.909 148.599C193.233 147.969 192.786 147.132 192.639 146.219C192.489 147.429 192.449 148.659 192.369 149.889C190.093 150.311 187.791 150.578 185.479 150.689C183.436 149.842 181.511 148.736 179.749 147.399C174.749 143.649 170.849 137.259 170.849 137.259C170.849 137.259 174.019 144.529 178.659 149.259C176.346 148.236 174.119 147.028 171.999 145.649C170.939 144.499 169.899 143.319 168.889 142.129C167.879 140.939 166.659 139.519 165.549 138.219C164.646 137.378 164.069 136.245 163.919 135.019C163.849 135.669 163.779 136.329 163.719 137.019L159.809 132.079C159.549 132.95 159.549 133.878 159.809 134.749C157.554 132.157 155.435 129.45 153.459 126.639C148.979 120.279 144.059 101.839 141.359 90.6394C140.949 89.7394 140.699 89.1694 140.699 89.1694C140.699 89.1694 148.249 124.789 154.859 134.169C165.669 149.529 174.289 154.569 182.199 157.759C186.049 159.319 200.659 156.709 203.899 154.109C211.769 147.769 217.719 140.009 222.449 121.599C225.729 108.849 220.749 69.6494 220.749 69.6494C220.749 69.6494 220.749 71.2094 220.639 73.6894Z" fill="#BD8242"/>
</g>
<path d="M210.639 21.2292C210.808 20.3151 210.902 19.3887 210.919 18.4592C210.919 14.4592 208.969 10.1292 205.239 8.64923C204.959 9.18743 204.544 9.64469 204.037 9.97733C203.529 10.31 202.944 10.5069 202.339 10.5492C202.939 7.27922 200.719 4.01923 197.849 2.34923C194.979 0.679228 189.999 0.559219 186.699 0.199219C187.549 2.36922 184.699 6.91922 182.759 8.13922C182.13 7.55141 181.63 6.83983 181.289 6.04922C180.632 6.74136 179.869 7.32522 179.029 7.77922C178.503 5.99485 177.834 4.25586 177.029 2.57922C177.029 2.57922 175.859 8.57923 162.839 12.7592C162.157 11.5095 161.855 10.0881 161.969 8.66922C161.122 8.86743 160.356 9.32085 159.775 9.96822C159.194 10.6156 158.825 11.4257 158.719 12.2892C157.731 11.6193 156.581 11.2285 155.389 11.1581C154.198 11.0877 153.009 11.3403 151.949 11.8892C153.949 11.9892 155.439 11.8892 155.839 13.8892C155.839 13.8892 153.199 14.2592 151.839 14.5692C143.939 16.2992 143.419 19.7492 136.749 23.8492L138.619 23.9892C136.872 25.0292 135.126 26.0725 133.379 27.1192C133.721 26.9492 134.097 26.8608 134.479 26.8608C134.861 26.8608 135.237 26.9492 135.579 27.1192C133.249 28.8368 130.753 30.3174 128.129 31.5392H132.979C131.542 33.4005 129.883 35.0795 128.039 36.5392C128.575 36.3703 129.153 36.3987 129.669 36.6192C129.785 37.6483 129.604 38.6891 129.149 39.6192C129.263 39.3016 129.469 39.0245 129.739 38.8219C130.009 38.6193 130.332 38.5002 130.669 38.4792C130.482 39.7727 129.99 41.0033 129.234 42.0691C128.478 43.135 127.478 44.0057 126.319 44.6092C127.116 44.5801 127.898 44.3896 128.619 44.0492C127.639 47.2292 126.666 50.4026 125.699 53.5692C125.961 53.5178 126.211 53.4142 126.432 53.2648C126.654 53.1154 126.843 52.9231 126.989 52.6992C127.129 55.0292 130.199 63.6192 130.579 67.5992C130.689 67.4492 130.799 67.2592 130.919 67.0992C133.204 76.8837 136.875 86.292 141.819 95.0392C142.259 95.7892 143.359 95.4692 143.359 95.4692C139.129 84.5692 138.639 69.4692 139.219 63.4692C140.119 54.3492 139.769 42.1192 162.289 45.8192C198.049 51.6892 203.969 37.0692 203.969 37.0692C214.139 45.4092 219.969 67.7192 220.409 83.5292C220.409 83.5292 221.409 83.9092 221.499 83.1192C221.769 80.2892 221.389 62.2892 220.689 47.4592C220.109 36.8092 216.979 27.3392 210.639 21.2292Z" fill="#BD8242"/>
<g style="mix-blend-mode:multiply" opacity="0.3">
<g style="mix-blend-mode:multiply" opacity="0.3">
<path d="M181.269 6.05008C180.612 6.74221 179.849 7.32608 179.009 7.78008C178.484 5.9957 177.815 4.25671 177.009 2.58008C176.948 2.79093 176.875 2.99796 176.789 3.20007C176.895 4.43801 176.507 5.66764 175.709 6.62007C174.265 8.6241 172.486 10.3631 170.449 11.7601C174.683 11.4024 178.636 9.49362 181.549 6.40009C181.469 6.27009 181.339 6.18008 181.269 6.05008Z" fill="#BD8242"/>
</g>
<g style="mix-blend-mode:multiply" opacity="0.3">
<path d="M208.579 11.4004C208.473 12.1633 208.315 12.9183 208.109 13.6604C207.589 15.1473 206.765 16.5096 205.689 17.6604C202.667 21.2142 198.851 24.0063 194.549 25.8104C198.555 25.4566 202.482 24.4816 206.189 22.9204C207.699 22.3404 209.189 21.6904 210.659 20.9904C210.81 20.1448 210.897 19.2891 210.919 18.4304C210.918 15.8959 210.097 13.4297 208.579 11.4004Z" fill="#BD8242"/>
</g>
<g style="mix-blend-mode:multiply" opacity="0.3">
<path d="M205.359 8.68965C205.317 8.66532 205.278 8.6386 205.239 8.60965C204.959 9.14785 204.544 9.60511 204.037 9.93774C203.529 10.2704 202.944 10.4673 202.339 10.5097C202.598 8.91038 202.276 7.27115 201.429 5.88965C201.219 6.22965 201.019 6.56965 200.799 6.88965C199.906 8.38044 198.857 9.77167 197.669 11.0397C195.729 12.8036 193.486 14.2027 191.049 15.1696C195.167 14.6533 199.139 13.3133 202.729 11.2296C203.821 10.6394 204.731 9.76087 205.359 8.68965Z" fill="#BD8242"/>
</g>
</g>
<g style="mix-blend-mode:multiply" opacity="0.3">
<path d="M203.959 32.4688C203.959 32.4688 198.029 47.0887 162.269 41.2188C139.759 37.5188 140.109 49.7587 139.209 58.8687C139.028 61.0404 138.968 63.2204 139.029 65.3988C139.029 64.6888 139.099 63.9788 139.149 63.3988C140.049 54.2788 139.699 42.0487 162.219 45.7487C197.979 51.6187 203.899 36.9987 203.899 36.9987C214.069 45.3387 219.899 67.6487 220.339 83.4587L220.389 78.9088C219.929 63.1188 214.129 40.8188 203.959 32.4688Z" fill="#BD8242"/>
</g>
<g style="mix-blend-mode:multiply" opacity="0.5">
<path d="M188.659 93.0098C188.659 93.0098 191.759 100.11 191.129 103.06C190.499 106.01 176.599 107.29 174.959 105.91C173.319 104.53 173.959 95.5698 173.959 95.5698C173.959 95.5698 174.229 102.06 176.489 103.46C178.749 104.86 187.699 102.76 188.629 101.05C189.559 99.3397 188.659 93.0098 188.659 93.0098Z" fill="#E6966E"/>
</g>
<path d="M157.129 79.349C169.279 76.879 170.229 87.009 170.229 87.009C170.229 87.009 165.699 81.689 157.269 83.689C152.119 84.919 149.139 90.439 149.139 90.439C149.139 90.439 147.979 81.209 157.129 79.349Z" fill="#E6966E"/>
<path d="M157.64 81.9688C168.07 79.3288 170.23 86.9688 170.23 86.9688C170.23 86.9688 164.981 81.7088 157.761 84.1688C151.161 86.3988 149.16 90.4188 149.16 90.4188C149.16 90.4188 148.69 84.2388 157.64 81.9688Z" fill="#412118"/>
<path d="M201.019 72.3491C189.389 73.6291 191.229 83.8491 191.229 83.8491C191.229 83.8491 193.709 77.3291 202.309 76.4091C207.579 75.8391 212.24 80.0091 212.24 80.0091C212.24 80.0091 211.099 71.2391 201.019 72.3491Z" fill="#E6966E"/>
<path d="M201.429 75.0489C190.819 76.5989 191.229 83.8489 191.229 83.8489C192.332 81.9109 193.895 80.2742 195.78 79.0831C197.666 77.892 199.815 77.1831 202.039 77.0189C208.979 76.4489 212.249 80.0189 212.249 80.0189C212.249 80.0189 210.739 73.6889 201.429 75.0489Z" fill="#412118"/>
<path d="M146.86 68.5399C150.96 67.2799 169.06 62.3899 170.11 63.3199C171.16 64.2499 171.22 68.8099 169.42 69.0099C161.49 69.8999 152.67 72.0099 146.91 73.0099C144.68 73.4199 141.24 76.0099 141.24 76.0099C141.24 76.0099 142.77 69.7999 146.86 68.5399Z" fill="#8B5E3C"/>
<path d="M204.96 57.739C200.68 58.039 183.31 60.199 182.66 61.449C182.01 62.699 183.66 66.749 185.47 66.289C192.4 64.479 201.11 63.769 206.79 62.589C209.052 62.2012 211.355 62.1105 213.64 62.319C213.64 62.319 209.27 57.449 204.96 57.739Z" fill="#8B5E3C"/>
<g style="mix-blend-mode:screen" opacity="0.3">
<path d="M216.49 78.5188C215.9 71.4688 209.16 68.3488 200.8 69.8588C192.44 71.3688 186.32 76.1388 187.63 83.0788C188.94 90.0188 197.31 96.3888 205.63 93.9088C213.95 91.4288 217.05 85.0188 216.49 78.5188Z" fill="#E6E7E8"/>
</g>
<g style="mix-blend-mode:screen" opacity="0.3">
<path d="M193.05 85.2792C191.74 78.3392 197.88 73.5792 206.23 72.0592C208.457 71.6403 210.74 71.6031 212.98 71.9492C210.11 69.7392 205.76 68.9492 200.8 69.8592C192.45 71.3792 186.32 76.1392 187.63 83.0792C188.63 88.2592 193.52 93.0792 199.41 94.2092C197.814 93.213 196.43 91.9113 195.339 90.3788C194.247 88.8463 193.469 87.1132 193.05 85.2792Z" fill="#E6E7E8"/>
</g>
<g style="mix-blend-mode:screen" opacity="0.3">
<path d="M174.269 85.2894C172.959 78.3494 165.489 76.0494 157.139 77.5694C148.789 79.0894 143.629 84.3594 145.639 91.1494C147.499 97.4094 152.749 102.319 161.389 101.719C170.029 101.119 175.529 92.2394 174.269 85.2894Z" fill="#E6E7E8"/>
</g>
<g style="mix-blend-mode:screen" opacity="0.3">
<path d="M151.45 93.6899C149.45 86.8999 154.59 81.6199 162.95 80.1099C165.621 79.5917 168.362 79.5443 171.049 79.9699C167.829 77.3099 162.689 76.5699 157.049 77.5899C148.699 79.0999 143.539 84.3799 145.549 91.1699C146.236 93.7498 147.64 96.0824 149.597 97.8981C151.555 99.7138 153.985 100.938 156.61 101.43C154.107 99.4672 152.299 96.7548 151.45 93.6899Z" fill="#E6E7E8"/>
</g>
<path d="M211.52 69.3294C203.04 67.0794 194.949 68.4294 187.169 74.6494C186.774 74.959 186.322 75.1866 185.837 75.3188C185.353 75.451 184.847 75.4852 184.35 75.4194C181.08 74.904 177.732 75.4656 174.81 77.0194C174.342 77.2931 173.823 77.4689 173.285 77.5359C172.747 77.603 172.201 77.5599 171.68 77.4094C162.2 74.4094 154.089 75.9194 147.029 80.9694C144.741 83.2717 141.797 84.8088 138.6 85.3694L139.339 88.6994C141.989 88.6994 143.58 90.0394 144.2 93.1794C144.602 93.3025 145.028 93.3277 145.442 93.2529C145.856 93.1781 146.246 93.0055 146.58 92.7494C144.99 85.5094 148.11 80.4994 157.24 78.3594C165.83 76.4894 171.46 78.7094 173.89 85.3594C174.82 86.0494 176.1 86.0994 176.62 85.0094C176.784 84.7547 176.883 84.4635 176.908 84.1615C176.934 83.8595 176.884 83.556 176.765 83.2775C176.645 82.999 176.459 82.7541 176.223 82.5644C175.986 82.3746 175.707 82.2459 175.41 82.1894C174.91 80.5194 175.719 79.3994 177.209 78.7394C178.876 77.9973 180.701 77.6845 182.52 77.8294C184.16 77.9294 185.319 78.6794 185.459 80.4194C185.202 80.5791 184.988 80.7998 184.837 81.0621C184.685 81.3243 184.601 81.6199 184.591 81.9226C184.581 82.2253 184.646 82.5258 184.78 82.7973C184.914 83.0689 185.113 83.3032 185.359 83.4794C186.249 84.3094 187.42 83.8194 188.04 82.8394C187.89 75.8394 192.33 71.7494 201.04 70.4794C210.35 69.2794 215.1 72.8594 216.26 80.1794C216.66 80.3025 217.085 80.3277 217.497 80.2529C217.909 80.1781 218.298 80.0054 218.629 79.7494C218.059 76.5994 219.059 74.7494 221.529 73.8594L221.01 70.4894C217.803 71.0914 214.487 70.6862 211.52 69.3294Z" fill="#3F2216"/>
<path d="M174.011 84.9391C174.651 94.9391 168.511 99.8592 163.061 101.079C159.71 101.833 156.201 101.386 153.147 99.8156C150.093 98.2456 147.687 95.6524 146.351 92.4891L145.57 92.7791C147.045 96.2559 149.742 99.0729 153.15 100.699C156.102 102.073 159.407 102.499 162.61 101.919L163.241 101.789C166.636 101.05 169.659 99.1291 171.771 96.3691C174.146 93.031 175.236 88.9472 174.84 84.8691L174.011 84.9391Z" fill="#3F2216"/>
<path d="M216.449 79.9795C216.352 83.3981 215.044 86.6713 212.758 89.2152C210.473 91.7592 207.358 93.4087 203.969 93.8695C198.439 94.6395 190.898 92.1595 187.858 82.6295L187.059 82.8495C188.186 86.8131 190.694 90.2429 194.128 92.5195C197.098 94.3495 200.615 95.0819 204.068 94.5895L204.699 94.4895C207.892 93.9146 210.826 92.3551 213.088 90.0295C215.675 87.3298 217.168 83.7666 217.278 80.0295L216.449 79.9795Z" fill="#3F2216"/>
<path d="M141.7 86.2188L140.23 86.4788C140.149 86.5004 140.063 86.4895 139.99 86.4483C139.917 86.4072 139.863 86.3392 139.84 86.2588C139.831 86.1754 139.856 86.092 139.908 86.0266C139.961 85.9611 140.037 85.9188 140.12 85.9088L141.59 85.6388C141.67 85.6205 141.755 85.6342 141.826 85.6771C141.897 85.72 141.949 85.7887 141.97 85.8688C141.979 85.9506 141.955 86.0327 141.905 86.0979C141.855 86.1631 141.781 86.2063 141.7 86.2188Z" fill="#B3B3B3"/>
<path d="M219.98 71.9491L218.5 72.2191C218.419 72.2374 218.334 72.2237 218.264 72.1808C218.193 72.1379 218.141 72.0692 218.12 71.9891C218.114 71.9489 218.117 71.908 218.128 71.8688C218.139 71.8297 218.157 71.7931 218.182 71.7613C218.207 71.7295 218.239 71.7032 218.274 71.6839C218.31 71.6646 218.35 71.6528 218.39 71.6491L219.87 71.3791C219.91 71.3687 219.952 71.3664 219.993 71.3724C220.034 71.3784 220.073 71.3925 220.108 71.4139C220.144 71.4354 220.175 71.4637 220.199 71.4972C220.223 71.5307 220.241 71.5688 220.25 71.6091C220.258 71.6899 220.235 71.7707 220.184 71.8343C220.134 71.8978 220.06 71.9391 219.98 71.9491Z" fill="#B3B3B3"/>
<path d="M137.339 167.919C137.629 165.779 142.339 165.709 152.879 157.819C150.812 165.125 150.698 172.846 152.549 180.209C160.169 210.499 135.33 310.469 135.33 310.469L131.77 329.689L135.029 213.349L144.479 198.249L134.779 194.249C134.779 194.249 136.669 172.759 137.339 167.919Z" fill="#A67255"/>
<path d="M192.41 123.01C191.54 126.57 188.58 128.9 185.79 128.21C183 127.52 181.45 124.1 182.32 120.54C183.19 116.98 186.15 114.65 188.94 115.34C191.73 116.03 193.27 119.45 192.41 123.01Z" fill="#A63F42"/>
<g style="mix-blend-mode:screen" opacity="0.5">
<path d="M183.639 124.689C183.507 125.324 183.454 125.972 183.479 126.619C184.042 127.41 184.856 127.988 185.789 128.26C188.579 128.95 191.539 126.619 192.409 123.059C192.545 122.426 192.599 121.777 192.568 121.13C192.007 120.334 191.193 119.752 190.259 119.48C187.469 118.75 184.509 121.079 183.639 124.689Z" fill="#A63F42"/>
</g>
<path d="M367.27 240.69C367.77 228.81 369.51 217.02 372.76 213C376.48 208.38 383.909 190.46 383.399 185.93C383.139 183.69 384.139 181.62 381.819 179.27C380.819 178.27 377.72 178.52 377.72 178.52C377.72 178.52 378.79 175.29 377.24 172.92C376.59 171.92 374.939 171.41 373.399 170.81C373.399 170.81 374 165.93 370.12 163.81C368.82 163.1 365.96 163.47 364.49 164.51C364.98 161.44 368.389 144.51 367.839 141.35C367.289 137.96 365.839 135.72 363.549 137.68C361.259 139.64 357.769 157.37 356.939 160.21C356.039 163.3 354.82 166.59 353.7 169.35C351.57 174.6 346.3 184.79 346.01 185.78C343.09 195.83 344.5 203.6 347.08 208.46C348.95 211.99 342.93 230.57 342.93 230.57C342.93 230.57 367.05 245.99 367.27 240.69Z" fill="#E6966E"/>
<g style="mix-blend-mode:multiply" opacity="0.3">
<path d="M347.089 183.42C348.649 180.42 351.569 174.59 353.699 169.34C354.819 166.58 361.389 158.76 364.489 164.5C364.855 166.456 364.855 168.464 364.489 170.42C363.889 173.54 360.719 177.58 362.699 180.62C366.319 186.18 373.359 170.81 373.359 170.81C374.089 174.87 362.409 183.81 366.359 187.15C370.309 190.49 376.299 182.82 377.639 178.52C375.839 185.75 372.059 189.37 373.389 191.41C377.709 198.04 383.249 186.05 383.249 186.05C383.329 194.1 375.249 202.05 365.499 196.56C362.805 195.161 360.471 193.159 358.679 190.71C356.729 188.22 357.389 184.84 358.579 182.25C363.249 172.09 362.649 166.43 360.079 165.25C358.379 164.45 355.938 168.03 354.278 172.25C352.558 176.8 346.749 184.08 347.089 183.42Z" fill="#E6966E"/>
</g>
<path d="M340.869 216.609L344.569 208.449L375.899 216.329L372.189 230.559L340.869 216.609Z" fill="#D1D3D4"/>
<path d="M312.91 277.139C322.61 255.019 340.76 214.339 340.76 214.339C350.76 211.089 375.899 233.689 375.899 233.689C375.899 233.689 364.29 297.299 356.1 315.979C349.88 330.179 326.27 341.709 318.1 337.419C307.51 331.889 298.92 309.039 312.91 277.139Z" fill="#8C6048"/>
<path d="M356.101 315.979C358.129 310.971 359.833 305.837 361.201 300.609C355.201 294.069 344.2 293.939 332.9 307.749C323.13 319.679 318.031 329.259 316.391 336.349C316.924 336.745 317.485 337.103 318.07 337.419C326.27 341.689 349.881 330.179 356.101 315.979Z" fill="#664634"/>
<g style="mix-blend-mode:multiply" opacity="0.2">
<path d="M367.88 227.069C363.75 247.119 357.68 274.069 352.82 285.119C346.6 299.319 322.99 310.849 314.82 306.559C311.77 304.959 308.9 301.869 306.67 297.559C303.05 318.559 309.97 333.159 318.1 337.419C326.23 341.679 349.91 330.179 356.1 315.979C364.29 297.299 375.9 233.689 375.9 233.689C375.9 233.689 372.57 230.689 367.88 227.069Z" fill="#8C6048"/>
</g>
</svg>
