<svg width="350" height="470" viewBox="0 0 350 470" fill="none" xmlns="http://www.w3.org/2000/svg">
<mask id="mask0_1163_8519" style="mask-type:alpha" maskUnits="userSpaceOnUse" x="0" y="0" width="350" height="470">
<rect width="350" height="470" rx="32" fill="#C4C4C4"/>
</mask>
<g mask="url(#mask0_1163_8519)">
<path d="M55.7889 769.53C56.2989 758.61 76.3789 606.32 89.0889 521.29C94.0889 487.72 100.089 465.09 100.089 465.09L233.789 461.25C237.239 470.56 244.559 488.55 246.129 513.92C253.949 639.92 236.499 922.57 231.269 939.31C229.469 945.08 176.949 950.68 180.369 931.52C183.789 912.36 172.659 570.87 172.659 570.87C172.659 570.87 118.869 747.08 118.459 765.36C118.029 784.49 87.089 933.08 75.669 937.15C64.249 941.22 22.6689 946.15 23.7289 937.73C24.7889 929.31 55.0689 784.75 55.7889 769.53Z" fill="#36393D"/>
<g style="mix-blend-mode:screen" opacity="0.2">
<path d="M55.7887 769.53C56.4987 754.3 94.2687 467.69 94.2687 467.69L164.629 471.5L162.769 562.27L172.669 570.91C172.669 570.91 118.879 747.12 118.469 765.4C118.039 784.53 87.0987 933.12 75.6787 937.19C64.2587 941.26 22.6787 946.19 23.7387 937.77C24.7987 929.35 55.0687 784.75 55.7887 769.53Z" fill="#2E2B2D"/>
</g>
<path d="M101.27 451.63C124.38 454.93 177.49 455.8 199.04 451.89C220.59 447.98 230.14 445.81 230.14 445.81L233.73 461.25C233.73 461.25 239.52 467.25 196.96 469.84C154.4 472.43 108.79 470.07 101.27 466.95C97.8803 465.53 101.27 451.63 101.27 451.63Z" fill="#1D1D1B"/>
<path d="M189.369 467.87C189.385 468.161 189.343 468.453 189.245 468.728C189.148 469.003 188.996 469.256 188.8 469.472C188.603 469.688 188.366 469.862 188.101 469.986C187.837 470.109 187.55 470.178 187.259 470.19L163.179 470.94C162.886 470.945 162.596 470.893 162.324 470.785C162.052 470.678 161.804 470.518 161.594 470.314C161.384 470.111 161.216 469.868 161.1 469.6C160.984 469.331 160.923 469.042 160.919 468.75L160.509 455.42C160.494 455.129 160.537 454.838 160.635 454.563C160.733 454.289 160.885 454.036 161.081 453.821C161.277 453.605 161.514 453.43 161.778 453.307C162.042 453.183 162.328 453.113 162.619 453.1L186.709 452.35C187 452.346 187.29 452.399 187.561 452.507C187.832 452.615 188.078 452.775 188.287 452.979C188.496 453.182 188.663 453.425 188.778 453.693C188.893 453.96 188.955 454.248 188.959 454.54L189.369 467.87Z" fill="#1D1D1B"/>
<path d="M163.1 472.24C162.228 472.241 161.389 471.904 160.76 471.3C160.413 470.978 160.135 470.591 159.941 470.159C159.747 469.728 159.641 469.263 159.63 468.79L159.21 455.46C159.199 454.987 159.282 454.517 159.454 454.076C159.626 453.635 159.882 453.232 160.21 452.89C160.518 452.559 160.889 452.292 161.301 452.105C161.713 451.917 162.158 451.814 162.61 451.8L186.7 451.05C187.611 451.031 188.493 451.368 189.16 451.99C189.852 452.645 190.258 453.547 190.29 454.5L190.7 467.83C190.719 468.788 190.36 469.715 189.7 470.41C189.074 471.073 188.211 471.461 187.3 471.49L163.21 472.23L163.1 472.24ZM186.78 453.64L162.69 454.39C162.465 454.4 162.254 454.496 162.1 454.66C162.008 454.755 161.937 454.868 161.892 454.992C161.848 455.116 161.83 455.248 161.84 455.38L162.27 468.69C162.273 468.821 162.302 468.951 162.355 469.071C162.409 469.191 162.485 469.299 162.58 469.39C162.651 469.477 162.744 469.544 162.85 469.584C162.955 469.625 163.068 469.637 163.18 469.62L187.27 468.88C187.381 468.876 187.491 468.851 187.592 468.804C187.693 468.758 187.784 468.692 187.86 468.61C187.951 468.517 188.021 468.405 188.065 468.283C188.11 468.16 188.129 468.03 188.12 467.9L187.71 454.56C187.707 454.429 187.678 454.299 187.625 454.179C187.571 454.059 187.495 453.951 187.4 453.86C187.223 453.725 187.001 453.664 186.78 453.69V453.64Z" fill="#C3B398"/>
<path d="M142.499 189.47C145.799 184.32 190.689 187.62 193.189 189.47C195.689 191.32 196.589 208.18 196.589 208.18V233.18L139.269 227.83L139.039 206.76C139.039 206.76 139.269 194.53 142.499 189.47Z" fill="#BCBEC0"/>
<path d="M89.0898 226.4C112.79 217.69 128.09 213.11 135.16 209.94C141.04 207.41 144.61 198.51 144.09 191.94C143.2 180.77 140.88 148.87 140.88 148.87L190.72 146.17C190.72 146.17 188.85 185.82 192.54 198.5C194.44 205 199.97 206.75 204.54 208.17C220.11 212.98 223.75 220.78 239.32 235.76C252.24 248.2 235.87 344.27 228.32 383.01C224.95 400.32 227.91 440.35 227.91 440.35C182.67 453.54 124.99 449.64 105.78 431.88C105.78 431.88 106.55 396.01 105.59 379.7C103.42 341.95 91.1498 264.86 89.0898 226.4Z" fill="#E6966E"/>
<path d="M137.679 205.92C141.429 209.79 151.569 212.28 158.279 223.75L169.489 258.01C169.489 258.01 173.069 239.92 179.889 227.88C186.449 216.3 196.179 210.82 202.639 207.75C202.639 207.75 239.079 215.25 248.389 220.8C257.699 226.35 243.119 319.61 243.119 319.61C243.119 319.61 231.959 385.88 230.119 445.81C230.119 445.81 228.659 458.49 185.649 460.05C146.569 461.46 101.249 451.63 101.249 451.63C105.029 425.17 88.0593 311.27 88.0593 311.27C88.0593 311.27 81.9392 220.46 93.7092 217.48C106.629 214.23 137.679 205.92 137.679 205.92Z" fill="#E5E6E7"/>
<path d="M159.029 215.29C160.959 217.15 169.489 258.01 169.489 258.01C169.489 258.01 161.079 243.39 155.489 234.57H139.059L142.519 189.47C142.519 189.47 157.099 213.44 159.029 215.29Z" fill="#D1D3D4"/>
<path d="M159.03 215.29L139.03 234.57C139.03 234.57 130.15 214.35 131.58 205.71C132.08 202.71 142.49 189.47 142.49 189.47L159.03 215.29Z" fill="#F1F2F2"/>
<path d="M179.89 213.48C178.04 215.34 169.49 258.01 169.49 258.01C169.49 258.01 178.35 233.83 183.71 225.01L198.16 234.58L193.16 189.48C193.16 189.48 181.73 211.62 179.89 213.48Z" fill="#D1D3D4"/>
<path d="M179.891 213.48L198.16 234.57C198.16 234.57 205.931 216.81 204.571 208.18C204.091 205.18 193.19 189.47 193.19 189.47L179.891 213.48Z" fill="#F1F2F2"/>
<path d="M169.489 258.01L168.289 460.25L165.609 413.59L164.898 249.89L169.489 258.01Z" fill="#D1D3D4"/>
<path d="M203.12 345.17C203.12 345.17 213.33 524.36 213.78 531.6C214.23 538.84 258.87 527.38 261.11 520.47C263.35 513.56 244.11 427.09 244.11 414.78C244.11 402.47 245.53 287.78 249.5 275.53C253.47 263.28 255.69 222.68 244.11 218.53C220.24 209.95 208.32 204.53 208.32 204.53L198.57 228.46L203.12 345.17Z" fill="#8C6048"/>
<g style="mix-blend-mode:multiply" opacity="0.3">
<path d="M246.76 306.14C246.27 305.36 245.759 304.98 245.219 305.2C238.699 307.87 220.22 315.48 202.1 318.73L203.1 345.17C203.1 345.17 204.95 377.47 207.1 415.17C220.1 413.98 234.539 410.17 244.209 407.32C244.419 387.83 245.18 338.89 246.76 306.14Z" fill="#8C6048"/>
</g>
<path d="M213.839 206.9C213.539 204.76 208.839 204.69 198.299 196.8C200.36 204.107 200.471 211.827 198.619 219.19C190.999 249.48 203.119 345.19 203.119 345.19L204.209 364.44L216.149 252.44L206.689 237.34L216.389 233.34C216.389 233.34 214.509 211.74 213.839 206.9Z" fill="#A67255"/>
<path d="M149.689 353.34C149.689 353.34 148.499 525.25 148.049 532.49C147.599 539.73 76.2791 527.38 74.0491 520.49C71.8191 513.6 91.0491 427.11 91.0491 414.8C91.0491 402.49 89.6291 287.8 85.6591 275.55C81.6891 263.3 79.4691 222.7 91.0491 218.55C114.919 209.97 126.839 204.55 126.839 204.55L136.589 228.48L149.689 353.34Z" fill="#8C6048"/>
<path d="M139.039 382.69C137.901 382.69 136.789 383.027 135.844 383.66C134.898 384.292 134.161 385.191 133.726 386.242C133.291 387.293 133.178 388.45 133.4 389.565C133.623 390.681 134.172 391.706 134.977 392.509C135.782 393.313 136.807 393.86 137.923 394.081C139.04 394.301 140.196 394.186 141.246 393.749C142.297 393.313 143.194 392.574 143.825 391.627C144.456 390.68 144.791 389.568 144.789 388.43C144.789 387.675 144.64 386.928 144.351 386.231C144.062 385.534 143.638 384.901 143.104 384.368C142.57 383.834 141.936 383.412 141.239 383.124C140.541 382.836 139.794 382.689 139.039 382.69Z" fill="#A67255"/>
<path d="M139.039 413.42C137.901 413.42 136.789 413.757 135.844 414.39C134.898 415.022 134.161 415.921 133.726 416.972C133.291 418.023 133.178 419.18 133.4 420.295C133.623 421.411 134.172 422.436 134.977 423.239C135.782 424.043 136.807 424.59 137.923 424.811C139.04 425.031 140.196 424.916 141.246 424.479C142.297 424.043 143.194 423.304 143.825 422.357C144.456 421.41 144.791 420.298 144.789 419.16C144.789 418.405 144.64 417.658 144.351 416.961C144.062 416.264 143.638 415.631 143.104 415.098C142.57 414.564 141.936 414.142 141.239 413.854C140.541 413.566 139.794 413.419 139.039 413.42Z" fill="#A67255"/>
<path d="M139.039 443.96C137.902 443.96 136.79 444.297 135.845 444.929C134.899 445.561 134.162 446.459 133.727 447.51C133.292 448.56 133.178 449.716 133.4 450.832C133.621 451.947 134.169 452.972 134.973 453.776C135.777 454.58 136.802 455.128 137.917 455.349C139.033 455.571 140.189 455.457 141.24 455.022C142.29 454.587 143.188 453.85 143.82 452.904C144.452 451.959 144.789 450.847 144.789 449.71C144.79 448.954 144.643 448.206 144.354 447.508C144.066 446.81 143.642 446.175 143.108 445.641C142.574 445.107 141.939 444.683 141.241 444.395C140.543 444.106 139.795 443.959 139.039 443.96Z" fill="#A67255"/>
<g style="mix-blend-mode:multiply" opacity="0.3">
<path d="M103.949 305.2C103.949 305.2 94.0094 334.54 90.1094 358.97C90.3394 368.91 90.5194 378.44 90.6494 386.8C99.4394 403.46 139.109 413.09 149.229 415.31C149.499 381.39 149.689 353.31 149.689 353.31L148.189 339.05L145.769 333.05C145.769 333.05 126.749 324.25 103.949 305.2Z" fill="#8C6048"/>
</g>
<path d="M121.269 206.9C121.569 204.76 126.269 204.69 136.809 196.8C134.748 204.107 134.637 211.827 136.489 219.19C144.099 249.48 150.199 345.44 150.199 345.44L149.099 364.7L118.959 252.37L128.419 237.27L118.719 233.27C118.719 233.27 120.639 211.74 121.269 206.9Z" fill="#A67255"/>
<g style="mix-blend-mode:multiply" opacity="0.5">
<g style="mix-blend-mode:multiply" opacity="0.5">
<path d="M227.83 341.62L228.15 341.56L227.83 341.62Z" fill="#F1F2F2"/>
</g>
</g>
<path d="M93.7489 217.48C100.649 240.25 106.449 280.63 111.749 313.21C111.749 313.21 123.149 350.85 126.569 357.1C131.899 366.84 89.479 402.48 80.039 382.48C63.799 348.06 47.269 287.89 53.579 252.53C57.889 228.6 93.7489 217.48 93.7489 217.48Z" fill="#8C6048"/>
<g style="mix-blend-mode:multiply" opacity="0.2">
<path d="M126.61 357.1C123.19 350.85 111.79 313.21 111.79 313.21C108.79 294.8 105.61 273.91 102.18 255.1C100.9 281.27 99.3903 308.77 102.07 325.17C102.07 325.17 97.4203 340.61 89.6603 346.28C84.6603 349.93 81.3203 364.82 77.5703 376.91C78.4003 378.82 79.2403 380.7 80.0803 382.48C89.5203 402.48 131.94 366.84 126.61 357.1Z" fill="#8C6048"/>
</g>
<path d="M147.27 382.48C140.11 380.98 132.21 376.94 129.63 367.88C127.05 358.82 107.7 341.11 105.2 338.07C102.7 335.03 104.62 333.07 104.62 333.07C104.018 331.943 103.827 330.642 104.08 329.39C104.117 329.138 104.209 328.898 104.35 328.686C104.491 328.475 104.678 328.297 104.897 328.167C105.115 328.037 105.36 327.957 105.613 327.933C105.866 327.909 106.121 327.942 106.36 328.03C106.36 328.03 105.29 326.09 106.21 325.16C107.13 324.23 109.1 325.16 109.1 325.16C109.1 325.16 109.4 323.5 110.16 323.1C110.92 322.7 115.33 326.73 118.98 330.49C122.63 334.25 131.6 341.1 135.98 347.95C140.36 354.8 153.27 363.32 153.27 363.32L147.27 382.48Z" fill="#E6966E"/>
<g style="mix-blend-mode:multiply" opacity="0.5">
<g style="mix-blend-mode:multiply" opacity="0.5">
<path d="M120.679 339.56C120.679 339.56 110.109 329.78 105.949 326.73C106.04 327.183 106.188 327.624 106.389 328.04C105.976 327.91 105.533 327.91 105.119 328.04L120.679 339.56Z" fill="#E6966E"/>
</g>
<g style="mix-blend-mode:multiply" opacity="0.5">
<path d="M120.109 342.98C120.109 342.98 108.589 334.42 104.509 331.91C104.369 331.83 104.269 331.72 104.139 331.63C104.255 332.131 104.426 332.617 104.649 333.08C104.489 333.268 104.355 333.477 104.249 333.7C110.609 336.84 120.109 342.98 120.109 342.98Z" fill="#E6966E"/>
</g>
<g style="mix-blend-mode:multiply" opacity="0.5">
<path d="M109.329 324.42C109.25 324.666 109.183 324.917 109.129 325.17C108.67 324.986 108.19 324.862 107.699 324.8L123.529 338.07C119.121 333.193 114.376 328.632 109.329 324.42Z" fill="#E6966E"/>
</g>
</g>
<path d="M188.35 324.99C200.82 320.13 208.429 318.8 215.419 320.72C222.409 322.64 230.14 330.5 230.14 330.5L227.14 339.26C227.14 339.26 203.379 346.12 199.899 346.26C196.419 346.4 188.35 324.99 188.35 324.99Z" fill="#E6966E"/>
<path d="M244.16 218.52C237.37 241.29 239.161 282.71 233.881 315.29C233.881 315.29 221.981 352.5 218.621 358.75C213.381 368.49 259.491 390.99 268.781 370.99C284.781 336.57 288.67 287.89 282.47 252.53C278.27 228.6 244.16 218.52 244.16 218.52Z" fill="#8C6048"/>
<g style="mix-blend-mode:multiply" opacity="0.2">
<path d="M282.47 252.53C281.986 249.823 281.107 247.202 279.861 244.75C280.441 274.63 275.23 307.84 263.42 333.28C256.64 347.89 259.681 331 225.801 339.36C222.121 350.41 220.531 355.19 218.621 358.75C213.381 368.49 259.491 390.99 268.781 370.99C284.761 336.57 288.67 287.89 282.47 252.53Z" fill="#8C6048"/>
</g>
<path d="M154.359 353.21H145.779V384L157.469 385.39L154.359 353.21Z" fill="#D1D3D4"/>
<path d="M154.359 353.21L156.709 386.43C156.709 386.43 218.329 397.59 237.639 391.58C252.319 387.01 270.879 374.65 269.689 365.72C266.879 344.55 249.689 331.36 216.749 341.62C193.889 348.74 180.479 349.15 154.359 353.21Z" fill="#8C6048"/>
<path d="M273.97 354.07C272.38 354.57 270.6 355.16 269.65 356.53C264.86 363.46 259.56 370.32 243.03 375.75C241.665 376.246 240.47 377.121 239.584 378.272C238.699 379.423 238.16 380.803 238.03 382.25C237.87 384.61 239.52 386.8 241.57 387.99C242.432 388.46 243.349 388.82 244.3 389.06C252.02 385.72 259.82 380.83 264.71 375.8C266.447 374.567 267.841 372.911 268.76 370.99C271.264 365.443 273.428 359.749 275.24 353.94C274.814 353.943 274.389 353.987 273.97 354.07Z" fill="#664634"/>
<g style="mix-blend-mode:multiply" opacity="0.2">
<path d="M265.99 353.69C265.99 362.53 248.15 374.27 233.99 378.69C214.68 384.69 195.94 384.37 185.38 378.26C174.67 372.06 222.74 341.37 225.85 339.4C222.795 339.989 219.774 340.743 216.8 341.66C193.94 348.78 180.53 349.19 154.41 353.25L156.76 386.47C156.76 386.47 218.38 397.63 237.69 391.62C252.37 387.05 270.93 374.69 269.74 365.76C269.199 361.55 267.93 357.466 265.99 353.69Z" fill="#8C6048"/>
</g>
<path d="M183.75 325.17L192.74 323.11L199.9 346.28L190.45 351.29L183.75 325.17Z" fill="#F1F2F2"/>
<path d="M183.75 325.17C183.75 325.17 191.17 352.09 192.27 352.69C184.83 358.89 146.47 378.79 127.49 386.6C113.06 392.54 86.1498 392.6 81.4198 384.97C70.1998 366.8 80.8298 352.5 113.25 339.16C135.68 329.94 161.13 327.12 183.75 325.17Z" fill="#8C6048"/>
<path d="M109.009 390.62C108.981 390.278 108.907 389.942 108.789 389.62C108.039 387.62 105.919 386.68 104.099 385.62C99.299 382.9 95.5391 378.7 91.7891 374.62C88.0391 370.54 84.0691 366.52 79.0591 364.21C76.7711 363.18 74.2978 362.626 71.7891 362.58C73.8591 368.11 75.989 373.37 78.139 378.18C78.9408 380.571 80.0251 382.857 81.369 384.99C84.429 389.95 96.769 391.69 109.009 390.62Z" fill="#664634"/>
<g style="mix-blend-mode:multiply" opacity="0.2">
<path d="M121.389 374.85C108.389 380.21 85.2787 380.79 77.3887 375.24C78.1054 378.71 79.4619 382.016 81.3887 384.99C86.1187 392.65 113.029 392.56 127.459 386.62C146.459 378.81 184.799 358.91 192.239 352.71C191.819 352.46 190.349 347.88 188.749 342.54C171.899 351.94 136.739 368.54 121.389 374.85Z" fill="#8C6048"/>
</g>
<path d="M203.209 118.62L203.809 139.04C204.332 139.627 204.999 140.069 205.744 140.322C206.489 140.574 207.287 140.629 208.059 140.48C211.059 140.15 214.919 129.24 214.919 129.24C214.919 129.24 217.919 117.46 213.049 114.83C207.669 111.94 203.209 118.62 203.209 118.62Z" fill="#E6966E"/>
<path d="M132.929 129.34L137.029 149.34C136.659 150.023 136.118 150.599 135.459 151.011C134.8 151.423 134.045 151.657 133.269 151.69C130.269 152.01 123.999 142.22 123.999 142.22C123.999 142.22 118.349 131.41 122.519 127.76C127.039 123.81 132.929 129.34 132.929 129.34Z" fill="#F7A379"/>
<path d="M205.959 88.7699C205.959 88.7699 212.19 147.31 208.08 154.93C203.97 162.55 192.079 181 186.299 184.66C183.417 186.525 180.181 187.776 176.793 188.335C173.405 188.894 169.939 188.749 166.61 187.91C159.38 186.18 144.919 172.48 139.259 166.91C132.259 160.13 120.769 93.8299 121.459 98.9099C121.459 98.9099 121.37 65.9099 160.13 61.5199C194.15 57.6899 205.959 88.7699 205.959 88.7699Z" fill="#F7A379"/>
<path d="M128.139 129.8C128.139 129.8 134.779 165.59 141.139 175.14C151.559 190.77 160.049 196.03 167.869 199.42C171.679 201.08 186.349 198.85 189.649 196.32C197.649 190.18 203.829 182.58 209.029 164.32C212.629 151.67 208.649 112.32 208.649 112.32C208.649 112.32 207.059 146.76 201.079 149.6C193.359 153.25 196.709 145.37 170.849 148.78C147.379 151.88 149.699 157.42 144.339 156.83C138.979 156.24 128.139 129.8 128.139 129.8ZM154.589 164.69C154.386 164.417 154.242 164.104 154.167 163.772C154.092 163.441 154.087 163.097 154.151 162.763C154.216 162.429 154.35 162.112 154.544 161.833C154.738 161.553 154.988 161.317 155.279 161.14C157.629 159.75 162.489 157.7 171.949 156.32C180.369 155.08 185.949 155.73 188.839 156.32C189.174 156.391 189.491 156.531 189.769 156.731C190.047 156.931 190.28 157.187 190.453 157.483C190.626 157.779 190.736 158.107 190.775 158.448C190.813 158.788 190.781 159.133 190.679 159.46C189.359 163.77 185.369 172.35 174.239 173.36C170.488 173.793 166.69 173.219 163.236 171.694C159.782 170.17 156.797 167.752 154.589 164.69Z" fill="#BD8242"/>
<g style="mix-blend-mode:multiply" opacity="0.3">
<path d="M208.419 116.35C209.309 128.98 210.179 148.49 207.839 156.74C204.839 167.16 201.579 174.05 197.839 179.24C197.639 177.45 196.969 175.67 196.839 173.86C196.272 177.535 195.132 181.099 193.459 184.42C191.888 185.977 190.218 187.43 188.459 188.77C187.567 189.336 186.601 189.777 185.589 190.08C185.757 187.722 185.284 185.361 184.219 183.25C184.186 185.483 183.521 187.661 182.299 189.53C181.781 189.355 181.328 189.027 180.999 188.59C180.589 189.24 180.189 189.9 179.789 190.59C179.129 189.943 178.704 189.096 178.579 188.18C178.399 189.39 178.329 190.61 178.219 191.84C175.933 192.206 173.624 192.413 171.309 192.46C169.29 191.563 167.394 190.411 165.669 189.03C160.779 185.16 157.029 178.67 157.029 178.67C157.029 178.67 160.029 186.01 164.529 190.9C162.24 189.821 160.043 188.557 157.959 187.12C156.926 185.94 155.926 184.743 154.959 183.53L151.719 179.53C150.84 178.664 150.292 177.518 150.169 176.29L149.919 178.29L146.139 173.29C145.879 174.158 145.879 175.083 146.139 175.95C143.95 173.305 141.901 170.548 139.999 167.69C135.679 161.21 131.239 142.69 128.829 131.39L128.199 129.91C128.199 129.91 134.839 165.7 141.199 175.25C151.619 190.88 160.109 196.14 167.929 199.53C171.739 201.19 186.409 198.96 189.709 196.43C197.709 190.29 203.889 182.69 209.089 164.43C212.689 151.78 208.709 112.43 208.709 112.43C208.709 112.43 208.589 113.91 208.419 116.35Z" fill="#BD8242"/>
</g>
<path d="M199.76 63.69C199.947 62.7802 200.064 61.8576 200.111 60.93C200.241 56.93 198.37 52.54 194.67 50.93C194.377 51.4594 193.952 51.9047 193.438 52.2234C192.923 52.542 192.335 52.7233 191.73 52.75C192.41 49.49 190.28 46.18 187.45 44.44C184.62 42.7 179.651 42.44 176.361 42C177.151 44.2 174.24 48.67 172.21 49.84C171.601 49.2367 171.121 48.5153 170.801 47.72C170.127 48.395 169.351 48.9587 168.5 49.39C168.008 47.5891 167.372 45.8302 166.601 44.13C166.601 44.13 165.27 50.13 152.15 53.95C151.496 52.6887 151.229 51.2626 151.381 49.85C150.529 50.0251 149.752 50.4576 149.155 51.089C148.557 51.7204 148.168 52.5202 148.041 53.38C147.071 52.682 145.93 52.2604 144.739 52.16C143.549 52.0596 142.353 52.2843 141.281 52.81C143.281 52.96 144.771 52.81 145.111 54.93C145.111 54.93 142.471 55.24 141.111 55.51C133.111 57.04 132.551 60.51 125.791 64.41L127.641 64.59L122.331 67.59C122.673 67.4222 123.049 67.335 123.431 67.335C123.812 67.335 124.188 67.4222 124.531 67.59C122.161 69.2535 119.628 70.6709 116.97 71.82L121.821 71.92C120.335 73.7317 118.632 75.3538 116.75 76.75C117.291 76.5937 117.869 76.6363 118.38 76.87C118.472 77.9068 118.264 78.9482 117.781 79.87C117.904 79.5549 118.116 79.2824 118.391 79.0854C118.666 78.8884 118.993 78.7754 119.331 78.76C119.109 80.0451 118.586 81.2592 117.804 82.3024C117.021 83.3456 116.002 84.1879 114.831 84.76C115.625 84.749 116.41 84.5825 117.141 84.27L113.98 93.7C114.243 93.6558 114.494 93.5597 114.719 93.4171C114.944 93.2746 115.138 93.0886 115.291 92.87C115.381 95.2 118.22 103.87 118.5 107.87C118.62 107.72 118.73 107.53 118.85 107.37C120.871 117.246 124.292 126.782 129.01 135.69C129.43 136.45 130.541 136.15 130.541 136.15C126.541 125.15 126.48 110.01 127.22 104.05C128.35 94.96 128.31 82.73 150.72 87C186.32 93.77 192.621 79.31 192.621 79.31C202.621 87.91 207.801 110.31 207.871 126.18C207.871 126.18 208.87 126.58 208.97 125.79C209.31 122.97 209.391 104.96 209.061 90.13C208.831 79.51 205.94 69.96 199.76 63.69Z" fill="#BD8242"/>
<g style="mix-blend-mode:multiply" opacity="0.3">
<g style="mix-blend-mode:multiply" opacity="0.3">
<path d="M170.799 47.7702C170.125 48.4452 169.349 49.0088 168.499 49.4402C168.006 47.6392 167.371 45.8804 166.599 44.1802C166.599 44.1802 166.509 44.4402 166.349 44.8002C166.425 46.039 166.008 47.2577 165.189 48.1902C163.691 50.1527 161.868 51.8439 159.799 53.1902C164.043 52.9382 168.045 51.1294 171.039 48.1102C170.969 47.9902 170.849 47.9002 170.799 47.7702Z" fill="#BD8242"/>
</g>
<g style="mix-blend-mode:multiply" opacity="0.3">
<path d="M197.949 53.8102C197.818 54.5703 197.641 55.3217 197.419 56.0602C196.863 57.5529 196.005 58.9147 194.899 60.0602C191.784 63.5334 187.896 66.2258 183.549 67.9202C187.563 67.6626 191.513 66.7855 195.259 65.3202C196.789 64.7902 198.259 64.1702 199.789 63.5102C199.961 62.6696 200.068 61.8171 200.109 60.9602C200.184 58.4056 199.426 55.8958 197.949 53.8102Z" fill="#BD8242"/>
</g>
<g style="mix-blend-mode:multiply" opacity="0.3">
<path d="M194.788 51.0602C194.75 51.0312 194.71 51.0045 194.668 50.9802C194.375 51.5096 193.95 51.9549 193.436 52.2735C192.921 52.5922 192.333 52.7735 191.728 52.8002C192.026 51.2055 191.746 49.5569 190.938 48.1502C190.718 48.4902 190.508 48.8302 190.278 49.1502C189.346 50.6157 188.264 51.9798 187.048 53.2202C185.066 54.9507 182.786 56.3061 180.318 57.2202C184.449 56.8094 188.456 55.5715 192.098 53.5802C193.208 53.0017 194.139 52.1302 194.788 51.0602Z" fill="#BD8242"/>
</g>
</g>
<g style="mix-blend-mode:multiply" opacity="0.3">
<path d="M192.789 74.75C192.789 74.75 186.489 89.22 150.899 82.44C128.479 78.17 128.519 90.44 127.389 99.5C127.157 101.665 127.043 103.842 127.049 106.02C127.049 105.31 127.149 104.61 127.219 104.02C128.349 94.93 128.309 82.7 150.719 86.97C186.319 93.74 192.619 79.28 192.619 79.28C202.619 87.88 207.799 110.28 207.869 126.15L208.039 121.59C207.979 105.8 202.749 83.36 192.789 74.75Z" fill="#BD8242"/>
</g>
<g style="mix-blend-mode:multiply" opacity="0.5">
<path d="M175.96 134.89C175.96 134.89 178.87 142.06 178.17 145C177.47 147.94 163.54 148.86 161.93 147.43C160.32 146 161.19 137.07 161.19 137.07C161.19 137.07 161.29 143.57 163.51 145.02C165.73 146.47 174.74 144.61 175.71 142.92C176.68 141.23 175.96 134.89 175.96 134.89Z" fill="#E6966E"/>
</g>
<path d="M143.79 122.69C140.456 123.695 137.609 125.891 135.79 128.86C135.79 128.86 135.46 129.68 146.19 129.01C154.81 127.52 157.07 126.59 156.95 125.95C156.64 124.23 150.99 120.43 143.79 122.69Z" fill="#F2F0F0"/>
<path d="M150.079 123.84C149.913 123.003 149.5 122.235 148.894 121.635C148.288 121.035 147.516 120.629 146.678 120.47C145.84 120.312 144.973 120.407 144.189 120.744C143.406 121.082 142.741 121.645 142.28 122.363C141.819 123.081 141.583 123.92 141.603 124.773C141.622 125.626 141.896 126.454 142.389 127.15C142.883 127.846 143.573 128.379 144.371 128.68C145.169 128.981 146.039 129.037 146.869 128.84C147.953 128.593 148.896 127.931 149.496 126.996C150.097 126.061 150.306 124.928 150.079 123.84Z" fill="#487CB8"/>
<path d="M148.869 124.12C148.673 123.352 148.182 122.693 147.502 122.286C146.821 121.88 146.008 121.759 145.239 121.95C144.863 122.038 144.508 122.2 144.194 122.426C143.881 122.652 143.614 122.938 143.411 123.266C143.208 123.595 143.071 123.961 143.009 124.342C142.947 124.724 142.961 125.114 143.049 125.49C143.138 125.866 143.3 126.221 143.525 126.535C143.751 126.848 144.037 127.115 144.366 127.318C144.694 127.521 145.06 127.658 145.441 127.72C145.823 127.782 146.213 127.768 146.589 127.68C147.362 127.507 148.036 127.037 148.463 126.37C148.89 125.703 149.036 124.894 148.869 124.12Z" fill="#18100E"/>
<path d="M149.88 122.69C149.843 122.53 149.775 122.378 149.68 122.244C149.585 122.11 149.464 121.997 149.325 121.909C149.185 121.822 149.03 121.763 148.868 121.736C148.706 121.708 148.54 121.713 148.38 121.75C148.22 121.787 148.068 121.855 147.934 121.95C147.801 122.045 147.687 122.166 147.599 122.305C147.512 122.445 147.453 122.6 147.426 122.762C147.398 122.924 147.403 123.09 147.44 123.25C147.52 123.568 147.723 123.842 148.004 124.012C148.284 124.183 148.62 124.236 148.94 124.16C149.259 124.088 149.536 123.894 149.712 123.618C149.888 123.343 149.949 123.009 149.88 122.69Z" fill="#EFECEC"/>
<path d="M144.149 118.99C156.359 116.83 156.929 125.9 156.929 125.9C156.929 125.9 152.529 120.47 144.079 122.27C138.899 123.37 135.769 128.81 135.769 128.81C135.769 128.81 134.949 120.61 144.149 118.99Z" fill="#E6966E"/>
<path d="M144.429 121.42C154.909 119.04 156.929 125.9 156.929 125.9C156.929 125.9 151.809 120.51 144.529 122.78C137.879 124.85 135.769 128.78 135.769 128.78C135.769 128.78 135.419 123.46 144.429 121.42Z" fill="#412118"/>
<path d="M189.65 116.38C193.154 116.288 196.554 117.581 199.11 119.98C199.11 119.98 199.04 121.38 189.31 123.33C179.89 124.66 178.07 123.91 178 123.33C177.87 120.88 183.69 116.51 189.65 116.38Z" fill="#F2F0F0"/>
<path d="M183.979 119.34C183.93 118.226 184.322 117.138 185.071 116.312C185.821 115.486 186.865 114.99 187.979 114.93C188.794 114.902 189.599 115.115 190.294 115.542C190.989 115.97 191.542 116.592 191.885 117.332C192.229 118.072 192.346 118.897 192.223 119.703C192.1 120.509 191.742 121.262 191.194 121.866C190.646 122.47 189.933 122.899 189.142 123.1C188.351 123.301 187.519 123.264 186.749 122.995C185.98 122.725 185.306 122.235 184.813 121.585C184.321 120.935 184.03 120.154 183.979 119.34Z" fill="#487CB8"/>
<path d="M185.269 119.26C185.218 118.667 185.346 118.072 185.635 117.551C185.924 117.03 186.361 116.607 186.892 116.336C187.422 116.065 188.021 115.957 188.612 116.028C189.204 116.098 189.761 116.343 190.213 116.731C190.664 117.119 190.99 117.633 191.149 118.207C191.308 118.781 191.292 119.389 191.104 119.954C190.916 120.519 190.564 121.016 190.093 121.38C189.622 121.744 189.053 121.96 188.458 122C187.674 122.053 186.9 121.795 186.303 121.283C185.707 120.77 185.335 120.044 185.269 119.26Z" fill="#18100E"/>
<path d="M190.131 117.58C190.107 117.332 190.158 117.083 190.277 116.864C190.396 116.646 190.578 116.467 190.799 116.353C191.02 116.238 191.271 116.192 191.518 116.221C191.765 116.249 191.999 116.351 192.188 116.513C192.377 116.675 192.513 116.89 192.58 117.13C192.646 117.37 192.639 117.624 192.56 117.86C192.481 118.096 192.333 118.303 192.135 118.455C191.938 118.606 191.699 118.695 191.45 118.71C191.289 118.725 191.126 118.708 190.972 118.659C190.817 118.61 190.674 118.53 190.551 118.425C190.428 118.319 190.327 118.19 190.255 118.045C190.183 117.9 190.141 117.742 190.131 117.58Z" fill="#EFECEC"/>
<path d="M188.199 113.11C176.549 114.11 177.999 123.28 177.999 123.28C177.999 123.28 180.649 116.82 189.269 116.12C194.549 115.68 199.099 119.98 199.099 119.98C199.099 119.98 198.269 112.25 188.199 113.11Z" fill="#E6966E"/>
<path d="M188.369 115.6C177.729 116.89 177.999 123.28 177.999 123.28C179.152 121.367 180.76 119.768 182.678 118.624C184.597 117.48 186.767 116.826 188.999 116.72C195.999 116.33 199.119 119.98 199.119 119.98C199.119 119.98 197.719 114.47 188.369 115.6Z" fill="#412118"/>
<path d="M134.79 109.36C138.92 108.2 157.61 106.15 158.65 107.12C159.69 108.09 159.65 112.63 157.8 112.78C149.86 113.47 140.51 112.95 134.73 113.86C132.48 114.22 128.99 116.69 128.99 116.69C128.99 116.69 130.67 110.51 134.79 109.36Z" fill="#8B5E3C"/>
<path d="M193.15 100.04C188.86 100.23 171.09 104.52 170.41 105.76C169.73 107 171.33 111.09 173.09 110.67C180.09 109.04 189.09 105.97 194.86 104.93C197.13 104.601 199.433 104.571 201.71 104.84C201.71 104.84 197.42 99.8599 193.15 100.04Z" fill="#8B5E3C"/>
<g style="mix-blend-mode:multiply" opacity="0.5">
<path d="M186.77 157.78C173.08 167.38 155.16 161.45 158.09 162.33C156.27 161.79 187.98 156.94 186.77 157.78Z" fill="#E6966E"/>
</g>
<g style="mix-blend-mode:multiply" opacity="0.5">
<path d="M180.539 165.4C173.919 172.9 164.009 166.23 166.369 167.6C165.519 167.1 181.189 164.69 180.539 165.4Z" fill="#E6966E"/>
</g>
<g style="mix-blend-mode:screen" opacity="0.3">
<path d="M203.449 123.86C203.049 116.8 196.519 113.51 188.309 114.86C180.099 116.21 173.959 120.69 175.069 127.69C176.179 134.69 184.209 141.24 192.439 138.97C200.669 136.7 203.829 130.37 203.449 123.86Z" fill="#E6E7E8"/>
</g>
<g style="mix-blend-mode:screen" opacity="0.3">
<path d="M180.32 130.04C179.22 123.04 185.319 118.46 193.559 117.15C195.753 116.787 197.993 116.807 200.179 117.21C197.419 114.92 193.179 114.04 188.309 114.82C180.089 116.12 173.96 120.73 175.07 127.7C175.89 132.91 180.58 137.87 186.32 139.12C183.201 137.002 181.045 133.739 180.32 130.04Z" fill="#E6E7E8"/>
</g>
<g style="mix-blend-mode:screen" opacity="0.3">
<path d="M161.869 129.58C160.769 122.58 153.519 120.12 145.299 121.43C137.079 122.74 131.889 127.88 133.689 134.72C135.359 141.03 140.369 146.07 148.839 145.72C157.309 145.37 162.979 136.55 161.869 129.58Z" fill="#E6E7E8"/>
</g>
<g style="mix-blend-mode:screen" opacity="0.3">
<path d="M139.359 137.38C137.569 130.54 142.749 125.38 150.969 124.09C153.599 123.645 156.287 123.669 158.908 124.16C155.828 121.42 150.799 120.55 145.299 121.43C137.079 122.73 131.889 127.88 133.689 134.72C134.279 137.295 135.586 139.649 137.458 141.513C139.33 143.376 141.691 144.672 144.269 145.25C141.837 143.216 140.117 140.459 139.359 137.38Z" fill="#E6E7E8"/>
</g>
<path d="M198.811 114.55C190.571 112.09 182.601 113.24 174.811 119.27C174.418 119.566 173.969 119.78 173.491 119.899C173.013 120.018 172.516 120.038 172.031 119.96C168.839 119.367 165.542 119.845 162.65 121.32C162.189 121.584 161.678 121.75 161.149 121.805C160.621 121.86 160.086 121.804 159.581 121.64C150.371 118.38 142.38 119.71 135.34 124.58C133.06 126.815 130.136 128.281 126.98 128.77L127.62 132.11C130.21 132.19 131.73 133.56 132.26 136.71C132.649 136.846 133.064 136.885 133.471 136.822C133.877 136.759 134.262 136.597 134.59 136.35C133.22 129.07 136.4 124.14 145.41 122.22C153.87 120.57 159.321 122.93 161.531 129.63C162.421 130.34 163.68 130.42 164.21 129.35C164.381 129.101 164.489 128.815 164.523 128.515C164.558 128.216 164.519 127.912 164.409 127.631C164.3 127.35 164.123 127.1 163.895 126.903C163.667 126.706 163.394 126.568 163.101 126.5C162.651 124.81 163.47 123.72 164.95 123.09C166.598 122.398 168.393 122.13 170.17 122.31C171.78 122.45 172.9 123.24 172.99 124.98C172.743 125.137 172.536 125.352 172.387 125.605C172.239 125.858 172.153 126.143 172.136 126.436C172.12 126.729 172.173 127.022 172.292 127.291C172.411 127.559 172.592 127.795 172.821 127.98C173.661 128.84 174.82 128.37 175.45 127.42C175.45 120.42 179.94 116.42 188.45 115.42C197.6 114.42 202.161 118.15 203.111 125.49C203.499 125.625 203.915 125.662 204.322 125.597C204.728 125.533 205.113 125.369 205.44 125.12C204.97 121.96 205.99 120.18 208.44 119.31L208.021 115.93C204.882 116.437 201.663 115.954 198.811 114.55Z" fill="#3F2216"/>
<path d="M161.689 129.22C162.049 139.22 155.919 144 150.549 145.09C147.227 145.747 143.78 145.202 140.822 143.554C137.865 141.906 135.588 139.261 134.399 136.09L133.629 136.36C134.843 139.612 137.147 142.342 140.148 144.086C143.15 145.829 146.663 146.477 150.089 145.92L150.709 145.81C154.068 145.144 157.077 143.296 159.189 140.6C161.611 137.306 162.784 133.259 162.499 129.18L161.689 129.22Z" fill="#3F2216"/>
<path d="M203.37 125.32C203.221 128.704 201.876 131.926 199.574 134.411C197.272 136.896 194.163 138.483 190.8 138.89C185.36 139.52 178.04 136.89 175.31 127.25L174.52 127.46C175.508 131.426 177.872 134.912 181.189 137.3C184.041 139.2 187.478 140.019 190.88 139.61L191.49 139.53C194.92 138.998 198.06 137.293 200.374 134.706C202.688 132.118 204.033 128.808 204.179 125.34L203.37 125.32Z" fill="#3F2216"/>
<path d="M130.009 129.69L128.549 129.92C128.51 129.929 128.469 129.93 128.429 129.922C128.389 129.915 128.352 129.899 128.318 129.877C128.284 129.854 128.256 129.825 128.233 129.792C128.211 129.758 128.196 129.72 128.189 129.68C128.185 129.641 128.189 129.601 128.2 129.563C128.211 129.525 128.23 129.49 128.255 129.459C128.28 129.428 128.311 129.403 128.346 129.384C128.381 129.365 128.42 129.354 128.459 129.35L129.909 129.12C129.949 129.11 129.99 129.108 130.03 129.114C130.07 129.12 130.109 129.134 130.144 129.156C130.178 129.177 130.208 129.205 130.231 129.239C130.255 129.272 130.271 129.31 130.279 129.35C130.288 129.431 130.264 129.512 130.214 129.575C130.163 129.639 130.09 129.68 130.009 129.69Z" fill="#B3B3B3"/>
<path d="M207.029 117.38L205.579 117.61C205.539 117.619 205.497 117.62 205.457 117.612C205.417 117.605 205.378 117.59 205.344 117.567C205.309 117.545 205.279 117.516 205.256 117.482C205.233 117.448 205.217 117.41 205.209 117.37C205.205 117.331 205.208 117.291 205.22 117.253C205.231 117.215 205.25 117.179 205.275 117.149C205.3 117.118 205.331 117.093 205.366 117.074C205.401 117.055 205.439 117.044 205.479 117.04L206.939 116.81C207.018 116.795 207.1 116.81 207.169 116.852C207.238 116.895 207.288 116.962 207.309 117.04C207.315 117.122 207.289 117.203 207.236 117.266C207.184 117.329 207.11 117.37 207.029 117.38Z" fill="#B3B3B3"/>
</g>
</svg>
