<svg width="376" height="428" viewBox="0 0 376 428" fill="none" xmlns="http://www.w3.org/2000/svg">
<path d="M236.429 0.742773C236.429 0.742773 159.929 -10.7572 163.929 56.7428C167.929 124.243 150.759 190.573 152.339 238.573C152.339 238.573 209.239 258.573 280.589 238.573C280.589 238.573 278.179 145.513 286.719 81.2826C295.919 11.9926 271.759 -1.75723 236.429 0.742773Z" fill="url(#paint0_linear_1243_4797)"/>
<path d="M313.149 185.283C302.379 191.283 294.739 173.823 294.739 173.823C294.739 173.823 274.159 166.593 267.739 141.133C261.319 115.673 280.459 107.553 285.089 109.223C292.869 112.023 305.249 118.383 314.809 165.553C314.859 165.553 323.929 179.263 313.149 185.283Z" fill="#FAA284"/>
<path d="M303.529 146.603C303.765 147.097 303.897 147.635 303.917 148.182C303.937 148.729 303.844 149.275 303.644 149.785C303.445 150.295 303.142 150.759 302.756 151.147C302.37 151.536 301.908 151.84 301.399 152.043L278.329 163.393C276.329 164.393 273.149 164.323 272.049 162.093L249.049 115.303C247.949 113.073 249.599 110.103 251.639 109.103L274.699 97.7531C275.748 97.2679 276.946 97.2139 278.034 97.6029C279.123 97.9919 280.015 98.7926 280.519 99.8329L303.529 146.603Z" fill="#E5DCDC"/>
<path d="M280.12 103.364L251.008 117.676L270.738 157.808L299.85 143.496L280.12 103.364Z" fill="#7BCDDB"/>
<path d="M291.13 153.103C290.858 152.552 290.428 152.094 289.896 151.786C289.363 151.479 288.752 151.337 288.138 151.377C287.525 151.417 286.937 151.638 286.449 152.012C285.962 152.386 285.596 152.896 285.398 153.478C285.2 154.059 285.178 154.687 285.336 155.281C285.494 155.875 285.825 156.409 286.287 156.815C286.748 157.221 287.32 157.481 287.929 157.563C288.538 157.644 289.158 157.543 289.71 157.273C290.078 157.094 290.408 156.843 290.679 156.536C290.95 156.229 291.157 155.872 291.289 155.484C291.421 155.096 291.475 154.686 291.448 154.277C291.421 153.869 291.313 153.469 291.13 153.103Z" fill="#D3D3D3"/>
<path d="M266.26 104.593C266.221 104.515 266.167 104.445 266.102 104.387C266.036 104.329 265.96 104.285 265.877 104.257C265.794 104.229 265.707 104.218 265.62 104.224C265.533 104.23 265.447 104.254 265.369 104.293L259.479 107.183C259.4 107.223 259.33 107.277 259.272 107.344C259.214 107.41 259.171 107.487 259.143 107.571C259.115 107.655 259.104 107.743 259.11 107.831C259.116 107.919 259.14 108.004 259.179 108.083L259.36 108.453C259.439 108.612 259.578 108.734 259.746 108.792C259.915 108.85 260.099 108.84 260.26 108.763L266.139 105.863C266.218 105.825 266.288 105.771 266.346 105.706C266.404 105.64 266.447 105.564 266.475 105.481C266.503 105.398 266.515 105.311 266.509 105.224C266.502 105.136 266.479 105.051 266.439 104.973L266.26 104.593Z" fill="#D3D3D3"/>
<path d="M275.99 191.272C261.61 211.962 274.91 249.802 274.91 249.802C282.358 257.074 290.414 263.695 298.99 269.593L315.73 230.173C298.67 211.863 275.99 191.272 275.99 191.272Z" fill="#BA2F24"/>
<path d="M313.6 159.653C290.04 155.353 292.48 173.113 292.48 173.113C298.48 180.793 323.35 238.663 323.35 238.663C321.03 235.953 318.45 233.093 315.73 230.173L298.99 269.593C328.72 289.683 344.63 283.343 344.63 283.343C392.28 253.393 313.6 159.653 313.6 159.653Z" fill="#FAA284"/>
<path d="M284.591 257.903C284.591 257.903 281.241 260.162 286.401 264.032C291.561 267.902 299.49 275.033 302.02 271.383C302.02 271.383 312.261 248.443 322.361 237.513C322.361 237.513 322.841 235.992 320.421 233.562C317.511 230.632 312.08 219.322 308.56 223.812C308.56 223.812 290.251 247.133 284.591 257.903Z" fill="#D8453A"/>
<path d="M158.2 322.723C158.2 322.723 108.2 357.053 68.2598 524.973C68.2598 524.973 169.26 558.243 279.15 554.913L242.32 394.573C242.07 374.983 247.61 361.473 244.32 336.843L158.2 322.723Z" fill="#353B42"/>
<path d="M197.5 169.253C197.5 169.253 215.79 168.473 225.65 170.153C235.51 171.833 249.72 178.153 249.72 178.153C264.08 184.923 275.99 191.243 275.99 191.243L273.94 218.903C285.76 241.453 284.6 246.953 283.01 255.693C280.25 270.803 265.16 277.633 265.16 277.633L244.21 337.203C189.28 347.783 158.47 322.743 158.47 322.743C159.86 282.953 154.58 230.653 154.58 230.653L165.09 173.063C173.61 170.933 189.09 170.103 197.5 169.253Z" fill="#CE3B28"/>
<path opacity="0.2" d="M239.569 210.733L227.189 194.072L216.249 209.863C216.249 209.863 194.779 191.453 196.999 169.143C198.109 169.143 215.829 168.473 225.369 170.143C235.219 171.833 249.579 178.193 249.579 178.193L250.099 178.443C249.599 184.933 247.589 198.853 239.569 210.733Z" fill="black"/>
<path d="M239.959 164.623L235.61 188.993L205.8 183.673L211.45 151.973C219.19 159.381 229.273 163.855 239.959 164.623Z" fill="#FAA284"/>
<path d="M211.43 151.973L215.79 127.562L245.6 132.873L239.939 164.623C229.253 163.855 219.17 159.381 211.43 151.973Z" fill="#EF8D72"/>
<path d="M239.959 164.623C239.959 164.623 237.779 180.063 226.959 183.913C226.959 183.913 208.67 175.153 210.16 159.193L196.939 169.193C196.939 169.193 200.19 190.963 216.62 202.603L226.939 187.513L239.32 205.183C239.32 205.183 248.619 188.883 249.689 177.253L239.959 164.623Z" fill="#CE3B28"/>
<path opacity="0.1" d="M279.151 260.633C279.151 260.633 274.66 263.223 266.06 262.403C248.69 260.763 212.23 257.282 188.23 248.802C178.17 245.242 177.4 239.693 170.71 232.143C170.71 232.143 164.61 258.493 197.21 263.893C229.81 269.293 273.271 281.333 279.151 260.633Z" fill="black"/>
<path d="M155.24 231.112L8.39844 259.229L28.0044 361.619L174.846 333.501L155.24 231.112Z" fill="#4EBCCE"/>
<path d="M133.888 249.855L121.355 252.255L129.198 293.211L141.73 290.811L133.888 249.855Z" fill="#E2D5D5"/>
<path d="M168.983 303.386L22.1406 331.504L27.95 361.843L174.792 333.725L168.983 303.386Z" fill="#3AA2AD"/>
<path d="M163.012 309.35L80.6387 325.123L84.5599 345.601L166.933 329.828L163.012 309.35Z" fill="#E2D5D5"/>
<path d="M44.1299 334.013C50.0599 332.883 55.6497 336.013 56.6197 341.063C57.5897 346.113 53.5497 351.063 47.6197 352.223C41.6897 353.383 36.0997 350.223 35.1397 345.223C34.1797 340.223 38.1999 335.153 44.1299 334.013Z" fill="#26767A"/>
<path d="M155.049 313.196L153.261 313.538L156.601 330.981L158.389 330.639L155.049 313.196Z" fill="#BCACAC"/>
<path d="M146.195 314.484L144.407 314.826L147.75 332.269L149.538 331.926L146.195 314.484Z" fill="#BCACAC"/>
<path d="M141.682 315.486L139.895 315.828L143.235 333.271L145.022 332.929L141.682 315.486Z" fill="#BCACAC"/>
<path d="M137.271 316.043L135.483 316.386L138.823 333.829L140.611 333.487L137.271 316.043Z" fill="#BCACAC"/>
<path d="M131.893 317.155L130.105 317.497L133.446 334.94L135.233 334.598L131.893 317.155Z" fill="#BCACAC"/>
<path d="M126.379 318.737L124.592 319.079L127.932 336.522L129.719 336.18L126.379 318.737Z" fill="#BCACAC"/>
<path d="M121.003 319.789L119.215 320.131L122.552 337.575L124.34 337.233L121.003 319.789Z" fill="#BCACAC"/>
<path d="M167.738 294.951L20.8965 323.068L22.3484 330.651L169.19 302.533L167.738 294.951Z" fill="#59CCD8"/>
<path d="M110.65 331.493C111.469 331.811 112.354 331.922 113.226 331.816C114.098 331.709 114.931 331.389 115.65 330.883C98.1999 295.103 75.3096 311.153 75.3096 311.153C61.8996 320.993 72.6295 333.513 79.1895 345.093C87.2995 359.393 108.189 350.983 108.189 350.983C120.479 356.183 113.98 339.283 110.65 331.493Z" fill="#FAA284"/>
<path d="M155.929 223.272C161.658 207.146 164.751 190.203 165.089 173.092C165.089 173.092 153.369 171.783 84.6191 199.953L102.749 237.623L155.929 223.272Z" fill="#CE3B28"/>
<path d="M92.9497 308.043L79.4297 247.123L102.78 237.623L84.6499 199.953C72.6692 205.954 61.0187 212.594 49.7495 219.843C49.7495 219.843 21.7496 236.063 69.1396 319.933C69.1096 319.933 89.5297 317.683 92.9497 308.043Z" fill="#FAA284"/>
<path d="M74.7891 206.142C74.7891 206.142 71.9291 203.282 77.7291 200.472C83.5291 197.662 92.6493 192.102 94.4493 196.192C94.4493 196.192 101.129 222.252 108.989 234.892C108.989 234.892 110.279 237.002 106.389 238.362C102.499 239.722 92.8493 245.952 90.2393 240.872C90.2393 240.872 78.3191 217.782 74.7891 206.142Z" fill="#D8453A"/>
<path d="M194.429 76.0127C194.429 76.0127 180.429 77.5727 179.269 84.2427C178.109 90.9127 181.479 117.243 176.039 165.243C176.039 165.243 188.609 122.523 187.939 97.7126C187.919 97.7126 194.859 84.3927 194.429 76.0127Z" fill="#511E17"/>
<path d="M166.91 31.7527C170.565 21.2478 178.19 12.5927 188.15 7.64258C196.28 20.3926 216.05 32.2925 239.5 28.5725C260.31 25.2725 264.76 12.8027 265.26 4.22266C273.21 7.61266 279.51 13.5827 283.57 23.2227C246.22 53.6727 194.82 41.8227 166.91 31.7527Z" fill="#994A3D"/>
<path d="M287.59 73.813C287.59 73.813 285.519 131.533 284.249 160.573C282.919 190.993 284.44 225.573 293.68 238.243C293.68 238.243 263.25 244.243 259.92 222.913C256.59 201.583 263.06 99.5531 269.24 72.9131L287.59 73.813Z" fill="#7C3425"/>
<path d="M187.08 82.3223L187.88 82.6023C187.88 82.6023 193.45 86.2425 194.41 76.0125C221.48 63.3925 239.499 28.5723 239.499 28.5723C271.759 32.9123 279.7 56.5724 280.58 76.4524C279.1 83.8724 277.26 95.7625 277.84 106.012C279.27 131.572 257.71 148.222 238.55 148.192C201.76 148.142 192.42 115.492 192.42 115.492C192.42 115.492 175.31 118.412 173.1 95.4324C171.29 76.6424 187.08 82.3223 187.08 82.3223Z" fill="#FAA284"/>
<g opacity="0.9">
<path opacity="0.09" d="M260.75 94.052C257.723 94.6223 254.933 96.0777 252.733 98.2339C250.533 100.39 249.023 103.15 248.392 106.165C247.762 109.18 248.04 112.315 249.191 115.172C250.342 118.029 252.314 120.48 254.859 122.216C257.404 123.951 260.406 124.893 263.486 124.922C266.566 124.951 269.586 124.066 272.163 122.378C274.74 120.691 276.758 118.277 277.963 115.442C279.167 112.607 279.504 109.478 278.93 106.452C278.55 104.444 277.779 102.531 276.66 100.821C275.541 99.1109 274.097 97.6381 272.408 96.4866C270.72 95.3351 268.821 94.5276 266.821 94.1099C264.821 93.6922 262.758 93.6724 260.75 94.052Z" fill="#EA7460"/>
<path opacity="0.18" d="M261.019 95.5228C258.285 96.04 255.766 97.3567 253.78 99.3058C251.793 101.255 250.43 103.749 249.861 106.473C249.293 109.197 249.545 112.029 250.586 114.61C251.626 117.191 253.409 119.405 255.708 120.973C258.007 122.54 260.72 123.391 263.502 123.417C266.285 123.443 269.013 122.644 271.341 121.12C273.669 119.595 275.493 117.415 276.582 114.854C277.671 112.294 277.976 109.467 277.459 106.733C276.763 103.068 274.641 99.8283 271.559 97.7264C268.476 95.6246 264.686 94.832 261.019 95.5228Z" fill="#EA7460"/>
<path opacity="0.27" d="M261.3 97.003C258.861 97.4676 256.613 98.645 254.842 100.387C253.072 102.128 251.857 104.356 251.352 106.787C250.847 109.219 251.075 111.746 252.005 114.049C252.936 116.351 254.529 118.326 256.582 119.724C258.635 121.121 261.057 121.879 263.54 121.901C266.024 121.922 268.458 121.207 270.535 119.846C272.612 118.484 274.239 116.538 275.21 114.252C276.181 111.966 276.453 109.443 275.99 107.003C275.683 105.382 275.059 103.836 274.154 102.456C273.25 101.076 272.082 99.8873 270.718 98.9586C269.354 98.0299 267.82 97.3791 266.204 97.0436C264.588 96.708 262.922 96.6943 261.3 97.003Z" fill="#EA7460"/>
<path opacity="0.36" d="M261.58 98.4732C259.429 98.8811 257.447 99.9175 255.885 101.451C254.323 102.985 253.252 104.948 252.805 107.091C252.359 109.234 252.557 111.462 253.376 113.492C254.196 115.522 255.599 117.263 257.408 118.496C259.217 119.729 261.35 120.398 263.539 120.419C265.729 120.439 267.874 119.81 269.706 118.611C271.538 117.412 272.972 115.696 273.829 113.682C274.686 111.667 274.926 109.444 274.519 107.293C274.249 105.864 273.7 104.502 272.904 103.286C272.107 102.069 271.079 101.021 269.877 100.202C268.675 99.3829 267.324 98.8087 265.9 98.512C264.477 98.2154 263.008 98.2022 261.58 98.4732Z" fill="#EA7460"/>
<path opacity="0.45" d="M261.86 99.943C260 100.295 258.286 101.19 256.935 102.516C255.584 103.842 254.656 105.539 254.269 107.392C253.882 109.245 254.054 111.171 254.762 112.926C255.47 114.682 256.683 116.188 258.248 117.254C259.812 118.32 261.657 118.899 263.55 118.916C265.443 118.933 267.298 118.389 268.882 117.351C270.465 116.314 271.706 114.83 272.446 113.088C273.186 111.345 273.392 109.423 273.04 107.563C272.567 105.07 271.124 102.867 269.027 101.439C266.931 100.01 264.353 99.4717 261.86 99.943Z" fill="#EA7460"/>
<path opacity="0.55" d="M262.14 101.393C260.571 101.69 259.127 102.446 257.988 103.564C256.849 104.683 256.067 106.114 255.742 107.677C255.416 109.24 255.562 110.864 256.16 112.344C256.758 113.825 257.781 115.094 259.101 115.992C260.421 116.891 261.977 117.378 263.573 117.391C265.169 117.405 266.734 116.945 268.069 116.069C269.403 115.194 270.449 113.942 271.072 112.472C271.695 111.002 271.869 109.381 271.57 107.813C271.373 106.772 270.973 105.78 270.392 104.893C269.812 104.007 269.062 103.244 268.186 102.647C267.31 102.051 266.325 101.633 265.288 101.418C264.25 101.203 263.181 101.194 262.14 101.393Z" fill="#EA7460"/>
<path opacity="0.64" d="M262.43 102.893C261.153 103.135 259.977 103.75 259.05 104.661C258.124 105.572 257.487 106.737 257.223 108.009C256.958 109.281 257.076 110.603 257.563 111.808C258.05 113.013 258.883 114.046 259.957 114.778C261.031 115.509 262.298 115.906 263.597 115.917C264.897 115.928 266.17 115.554 267.257 114.842C268.344 114.13 269.194 113.111 269.702 111.915C270.21 110.719 270.352 109.399 270.11 108.123C269.949 107.275 269.623 106.467 269.15 105.746C268.677 105.024 268.066 104.403 267.353 103.917C266.64 103.431 265.838 103.091 264.993 102.915C264.149 102.739 263.277 102.732 262.43 102.893Z" fill="#EA7460"/>
<path opacity="0.73" d="M262.7 104.393C261.714 104.582 260.806 105.06 260.092 105.765C259.378 106.47 258.889 107.372 258.688 108.355C258.487 109.339 258.582 110.36 258.961 111.289C259.341 112.218 259.988 113.014 260.82 113.575C261.652 114.137 262.632 114.438 263.636 114.442C264.639 114.446 265.622 114.152 266.458 113.597C267.295 113.042 267.947 112.251 268.334 111.324C268.72 110.398 268.824 109.378 268.63 108.393C268.369 107.079 267.598 105.921 266.488 105.172C265.377 104.423 264.016 104.143 262.7 104.393Z" fill="#EA7460"/>
<path opacity="0.82" d="M262.979 105.832C262.285 105.963 261.646 106.297 261.141 106.791C260.637 107.285 260.291 107.917 260.146 108.608C260.001 109.299 260.065 110.017 260.328 110.672C260.591 111.327 261.043 111.89 261.626 112.288C262.209 112.686 262.896 112.903 263.602 112.91C264.308 112.918 265 112.716 265.592 112.33C266.183 111.944 266.646 111.391 266.924 110.742C267.201 110.093 267.279 109.376 267.149 108.682C267.063 108.221 266.886 107.782 266.63 107.389C266.373 106.996 266.042 106.658 265.655 106.393C265.267 106.128 264.832 105.943 264.373 105.846C263.914 105.75 263.44 105.745 262.979 105.832Z" fill="#EA7460"/>
<path opacity="0.91" d="M263.26 107.312C262.858 107.389 262.487 107.583 262.195 107.87C261.903 108.156 261.703 108.523 261.62 108.924C261.536 109.325 261.573 109.741 261.727 110.121C261.88 110.5 262.142 110.826 262.48 111.057C262.818 111.287 263.217 111.412 263.627 111.416C264.036 111.42 264.437 111.302 264.779 111.078C265.122 110.854 265.39 110.533 265.551 110.157C265.711 109.78 265.756 109.365 265.68 108.963C265.631 108.695 265.529 108.439 265.38 108.211C265.232 107.983 265.04 107.786 264.814 107.632C264.589 107.479 264.336 107.372 264.069 107.317C263.803 107.262 263.528 107.26 263.26 107.312Z" fill="#EA7460"/>
<path opacity="0.9" d="M263.079 109.452C263.093 109.526 263.12 109.597 263.162 109.66C263.203 109.723 263.256 109.778 263.319 109.82C263.381 109.862 263.452 109.891 263.526 109.905C263.6 109.919 263.676 109.918 263.749 109.902C263.823 109.888 263.893 109.859 263.955 109.817C264.018 109.776 264.071 109.723 264.113 109.661C264.155 109.598 264.184 109.528 264.199 109.455C264.214 109.381 264.214 109.306 264.2 109.232C264.185 109.159 264.156 109.089 264.115 109.026C264.073 108.964 264.02 108.91 263.958 108.869C263.896 108.827 263.826 108.798 263.752 108.783C263.679 108.768 263.603 108.768 263.53 108.782C263.382 108.813 263.253 108.901 263.169 109.026C263.085 109.151 263.053 109.304 263.079 109.452Z" fill="#EA7460"/>
</g>
<g opacity="0.9">
<path opacity="0.09" d="M211.37 92.9432C208.131 93.5565 205.146 95.1166 202.793 97.4262C200.44 99.7357 198.825 102.691 198.152 105.919C197.479 109.146 197.778 112.501 199.011 115.558C200.245 118.616 202.357 121.239 205.081 123.096C207.805 124.953 211.019 125.961 214.315 125.992C217.612 126.022 220.844 125.075 223.603 123.269C226.361 121.463 228.521 118.879 229.812 115.845C231.102 112.811 231.463 109.463 230.85 106.223C230.443 104.072 229.616 102.022 228.417 100.191C227.218 98.359 225.67 96.7816 223.861 95.5485C222.052 94.3153 220.018 93.4506 217.875 93.0035C215.731 92.5565 213.521 92.536 211.37 92.9432Z" fill="#EA7460"/>
<path opacity="0.18" d="M211.671 94.513C208.741 95.0658 206.041 96.4749 203.913 98.5623C201.784 100.65 200.323 103.321 199.713 106.24C199.103 109.158 199.373 112.191 200.487 114.956C201.602 117.721 203.512 120.093 205.975 121.773C208.438 123.452 211.344 124.363 214.325 124.391C217.306 124.419 220.229 123.561 222.722 121.928C225.216 120.294 227.169 117.958 228.335 115.214C229.5 112.47 229.826 109.442 229.27 106.513C228.903 104.569 228.156 102.717 227.073 101.062C225.99 99.4068 224.591 97.9814 222.956 96.867C221.322 95.7527 219.484 94.9711 217.548 94.5672C215.611 94.1633 213.614 94.145 211.671 94.513Z" fill="#EA7460"/>
<path opacity="0.27" d="M211.971 96.0929C209.355 96.5884 206.945 97.8484 205.045 99.7135C203.146 101.579 201.842 103.965 201.299 106.571C200.756 109.177 200.997 111.886 201.994 114.355C202.99 116.823 204.696 118.941 206.895 120.441C209.095 121.94 211.691 122.753 214.353 122.777C217.015 122.802 219.624 122.036 221.851 120.577C224.078 119.119 225.822 117.032 226.863 114.582C227.905 112.132 228.196 109.428 227.701 106.813C227.034 103.307 225.003 100.209 222.054 98.1986C219.104 96.1887 215.478 95.4313 211.971 96.0929Z" fill="#EA7460"/>
<path opacity="0.36" d="M212.26 97.6729C209.958 98.1111 207.838 99.2218 206.167 100.865C204.497 102.507 203.351 104.609 202.874 106.903C202.397 109.197 202.611 111.581 203.489 113.753C204.367 115.925 205.869 117.789 207.805 119.108C209.742 120.427 212.026 121.142 214.369 121.163C216.712 121.185 219.008 120.511 220.969 119.227C222.929 117.943 224.464 116.107 225.381 113.951C226.298 111.795 226.555 109.415 226.12 107.113C225.831 105.583 225.243 104.124 224.389 102.821C223.536 101.518 222.434 100.397 221.147 99.5199C219.86 98.6431 218.412 98.0287 216.887 97.7118C215.363 97.3949 213.79 97.3817 212.26 97.6729Z" fill="#EA7460"/>
<path opacity="0.45" d="M212.56 99.2533C210.573 99.636 208.744 100.599 207.304 102.02C205.864 103.442 204.877 105.258 204.468 107.239C204.059 109.221 204.247 111.28 205.007 113.155C205.767 115.03 207.066 116.638 208.739 117.776C210.412 118.914 212.385 119.53 214.408 119.548C216.432 119.565 218.415 118.983 220.108 117.874C221.8 116.766 223.127 115.18 223.919 113.318C224.712 111.457 224.934 109.402 224.56 107.413C224.31 106.088 223.802 104.826 223.063 103.698C222.324 102.57 221.37 101.599 220.255 100.841C219.14 100.083 217.886 99.5518 216.566 99.2794C215.245 99.007 213.884 98.9983 212.56 99.2533Z" fill="#EA7460"/>
<path opacity="0.55" d="M212.861 100.823C211.179 101.14 209.629 101.948 208.407 103.146C207.185 104.344 206.345 105.877 205.995 107.552C205.644 109.227 205.799 110.968 206.438 112.556C207.078 114.143 208.173 115.505 209.587 116.469C211.001 117.434 212.668 117.957 214.38 117.973C216.091 117.989 217.768 117.498 219.2 116.56C220.632 115.623 221.753 114.282 222.423 112.707C223.092 111.132 223.279 109.394 222.96 107.713C222.75 106.597 222.322 105.534 221.701 104.583C221.079 103.633 220.277 102.814 219.339 102.175C218.401 101.535 217.346 101.086 216.234 100.854C215.122 100.622 213.976 100.612 212.861 100.823Z" fill="#EA7460"/>
<path opacity="0.64" d="M213.16 102.393C211.805 102.658 210.558 103.318 209.577 104.29C208.596 105.262 207.925 106.502 207.647 107.855C207.369 109.207 207.498 110.612 208.016 111.892C208.535 113.171 209.42 114.269 210.561 115.047C211.702 115.825 213.048 116.248 214.428 116.262C215.809 116.277 217.163 115.883 218.321 115.131C219.478 114.378 220.388 113.299 220.934 112.031C221.48 110.763 221.638 109.361 221.39 108.003C221.223 107.092 220.877 106.222 220.372 105.446C219.866 104.669 219.212 104.001 218.447 103.479C217.681 102.957 216.82 102.592 215.912 102.406C215.005 102.219 214.069 102.215 213.16 102.393Z" fill="#EA7460"/>
<path opacity="0.73" d="M213.43 103.983C212.375 104.184 211.404 104.692 210.638 105.445C209.872 106.197 209.347 107.16 209.128 108.211C208.909 109.262 209.006 110.354 209.408 111.35C209.81 112.345 210.498 113.199 211.385 113.804C212.272 114.409 213.318 114.737 214.391 114.748C215.465 114.758 216.517 114.45 217.416 113.862C218.314 113.275 219.018 112.434 219.439 111.446C219.86 110.459 219.979 109.368 219.78 108.313C219.511 106.898 218.691 105.647 217.5 104.835C216.31 104.023 214.846 103.717 213.43 103.983Z" fill="#EA7460"/>
<path opacity="0.82" d="M213.76 105.563C213.017 105.707 212.333 106.068 211.795 106.601C211.258 107.133 210.891 107.813 210.74 108.555C210.59 109.296 210.663 110.066 210.951 110.766C211.238 111.466 211.727 112.064 212.356 112.486C212.984 112.908 213.723 113.133 214.48 113.134C215.236 113.135 215.976 112.911 216.606 112.491C217.235 112.071 217.725 111.473 218.014 110.774C218.303 110.075 218.378 109.305 218.23 108.563C218.031 107.575 217.45 106.704 216.613 106.142C215.775 105.58 214.75 105.372 213.76 105.563Z" fill="#EA7460"/>
<path opacity="0.91" d="M214.06 107.143C213.773 107.195 213.499 107.303 213.254 107.462C213.009 107.62 212.797 107.826 212.633 108.067C212.468 108.308 212.353 108.58 212.294 108.866C212.235 109.152 212.234 109.447 212.29 109.733C212.371 110.165 212.578 110.563 212.885 110.877C213.193 111.191 213.586 111.407 214.016 111.497C214.446 111.587 214.892 111.548 215.3 111.385C215.708 111.221 216.058 110.94 216.305 110.577C216.553 110.215 216.688 109.786 216.692 109.347C216.697 108.908 216.571 108.477 216.331 108.11C216.09 107.742 215.746 107.454 215.342 107.282C214.938 107.11 214.492 107.062 214.06 107.143Z" fill="#EA7460"/>
<path opacity="0.9" d="M213.87 109.393C213.893 109.511 213.951 109.619 214.036 109.704C214.121 109.789 214.229 109.847 214.347 109.871C214.464 109.895 214.586 109.883 214.698 109.838C214.809 109.793 214.904 109.716 214.972 109.616C215.04 109.517 215.076 109.4 215.078 109.28C215.079 109.16 215.045 109.042 214.979 108.941C214.914 108.84 214.82 108.761 214.71 108.713C214.6 108.666 214.478 108.651 214.36 108.673C214.2 108.704 214.058 108.798 213.967 108.932C213.875 109.067 213.84 109.232 213.87 109.393Z" fill="#EA7460"/>
</g>
<path d="M238.97 112.203C245.37 115.113 249.379 113.603 250.209 109.313C250.749 106.523 249.12 103.313 247.38 101.773C243.78 98.5929 242.18 89.2631 242.17 89.1631C241.89 91.1631 242.29 98.953 246.67 104.363C247.114 104.857 247.451 105.436 247.661 106.066C247.871 106.696 247.949 107.362 247.89 108.023C247.66 111.213 244.59 113.703 238.97 112.203Z" fill="#DB7C65"/>
<path d="M266.482 87.0516C272.482 87.0516 275.248 91.0518 275.248 93.9057C275.248 93.9057 276.186 96.5621 265.481 97.5517C256.735 97.4063 253.873 94.9383 253.893 94.2874C253.934 92.5402 255.482 87.5518 266.482 87.0516Z" fill="#F2F0F0"/>
<path d="M260.357 91.1449C260.392 90.2925 260.682 89.4702 261.189 88.7837C261.695 88.0971 262.395 87.5776 263.199 87.2917C264.003 87.0059 264.874 86.9668 265.7 87.1794C266.526 87.3921 267.27 87.8468 267.836 88.4852C268.402 89.1237 268.764 89.9166 268.876 90.7624C268.988 91.6081 268.845 92.4681 268.464 93.2318C268.084 93.9955 267.484 94.6282 266.742 95.0486C266 95.469 265.149 95.6579 264.298 95.5912C263.189 95.5144 262.155 95.0054 261.418 94.1739C260.681 93.3423 260.3 92.2546 260.357 91.1449Z" fill="#487CB8"/>
<path d="M261.596 91.2352C261.671 90.4464 262.055 89.7195 262.665 89.2131C263.274 88.7067 264.059 88.4619 264.848 88.5323C265.234 88.5619 265.609 88.6672 265.954 88.8421C266.299 89.017 266.606 89.2581 266.857 89.5516C267.109 89.8451 267.3 90.1853 267.42 90.5527C267.54 90.9201 267.587 91.3076 267.557 91.693C267.527 92.0784 267.422 92.4542 267.247 92.7989C267.072 93.1436 266.831 93.4505 266.538 93.702C266.244 93.9535 265.904 94.1448 265.537 94.2648C265.169 94.3849 264.782 94.4315 264.396 94.4018C263.606 94.3505 262.868 93.9888 262.344 93.3956C261.819 92.8024 261.55 92.0258 261.596 91.2352Z" fill="#18100E"/>
<path d="M260.377 89.9783C260.389 89.8143 260.433 89.6543 260.506 89.5072C260.58 89.3602 260.682 89.2292 260.806 89.1215C260.93 89.0138 261.074 88.9316 261.23 88.8796C261.386 88.8277 261.551 88.807 261.715 88.8186C261.879 88.8303 262.039 88.8742 262.186 88.9477C262.333 89.0212 262.464 89.123 262.571 89.2472C262.679 89.3713 262.761 89.5155 262.813 89.6715C262.865 89.8274 262.886 89.9921 262.874 90.156C262.844 90.4829 262.686 90.7846 262.435 90.9961C262.184 91.2075 261.86 91.3117 261.532 91.2861C261.206 91.2642 260.902 91.1146 260.686 90.8697C260.469 90.6249 260.359 90.3045 260.377 89.9783Z" fill="#EFECEC"/>
<path d="M265.47 83.4397C253.073 83.1848 253.906 92.2345 253.906 92.2345C253.906 92.2345 257.418 86.1919 266.044 86.6698C271.332 86.9594 275.262 91.8528 275.262 91.8528C275.262 91.8528 274.81 83.6243 265.47 83.4397Z" fill="#E6966E"/>
<path d="M265.567 85.8837C254.845 85.1452 253.905 92.2343 253.905 92.2343C253.905 92.2343 258.134 86.1205 265.677 87.2429C272.566 88.2646 275.256 91.823 275.256 91.823C275.256 91.823 274.783 86.5125 265.567 85.8837Z" fill="#412118"/>
<path d="M219.536 86.0525C212.036 86.5525 209.371 90.5525 209.372 93.8796C209.372 93.8796 210.122 97.1236 220.036 97.5527C229.548 97.4169 230.766 94.5242 230.746 93.9404C230.746 89.5527 226.536 87.0529 219.536 86.0525Z" fill="#F2F0F0"/>
<path d="M224.225 90.9181C224.102 89.8099 223.546 88.7952 222.679 88.0945C221.812 87.3938 220.703 87.0638 219.594 87.1763C218.784 87.2743 218.021 87.6087 217.4 88.1378C216.779 88.6668 216.328 89.3671 216.103 90.151C215.878 90.935 215.889 91.7679 216.135 92.5457C216.38 93.3235 216.85 94.0117 217.484 94.5243C218.119 95.0369 218.89 95.3512 219.702 95.4279C220.514 95.5046 221.331 95.3403 222.05 94.9556C222.769 94.5708 223.359 93.9826 223.746 93.2646C224.133 92.5465 224.299 91.7303 224.225 90.9181Z" fill="#487CB8"/>
<path d="M222.937 91.0375C222.896 90.4433 222.678 89.875 222.313 89.405C221.947 88.9349 221.449 88.5844 220.884 88.398C220.318 88.2116 219.71 88.1978 219.136 88.3584C218.562 88.5189 218.05 88.8466 217.663 89.2996C217.276 89.7526 217.033 90.3104 216.965 90.902C216.896 91.4936 217.005 92.0923 217.278 92.6217C217.551 93.1511 217.975 93.5873 218.497 93.8748C219.018 94.1622 219.614 94.2879 220.207 94.2358C220.991 94.167 221.716 93.7933 222.226 93.1951C222.737 92.5969 222.992 91.8221 222.937 91.0375Z" fill="#18100E"/>
<path d="M217.875 90.1267C217.86 89.8781 217.771 89.6397 217.62 89.4419C217.468 89.2442 217.261 89.0962 217.025 89.0169C216.789 88.9377 216.535 88.9307 216.295 88.997C216.055 89.0632 215.84 89.1996 215.678 89.3888C215.516 89.5779 215.414 89.8111 215.386 90.0585C215.357 90.3059 215.403 90.5562 215.518 90.7773C215.632 90.9983 215.81 91.1801 216.029 91.2994C216.247 91.4186 216.497 91.4698 216.745 91.4464C216.907 91.4364 217.065 91.394 217.21 91.3218C217.355 91.2495 217.484 91.1489 217.589 91.0258C217.695 90.9027 217.774 90.7597 217.823 90.6052C217.873 90.4508 217.89 90.2881 217.875 90.1267Z" fill="#EFECEC"/>
<path d="M219.096 83.4115C230.761 82.6063 230.739 91.8903 230.739 91.8903C230.739 91.8903 227.127 85.9151 218.502 86.5503C213.217 86.9283 209.383 91.8774 209.383 91.8774C209.383 91.8774 209.013 84.1117 219.096 83.4115Z" fill="#E6966E"/>
<path d="M219.312 85.8986C230.023 85.5355 230.74 91.8909 230.74 91.8909C229.306 90.1785 227.472 88.8459 225.4 88.0107C223.328 87.1755 221.083 86.8635 218.862 87.1022C211.885 87.7943 209.364 91.8811 209.364 91.8811C209.364 91.8811 209.899 86.2213 219.312 85.8986Z" fill="#412118"/>
<path d="M195.17 107.743C195.17 107.743 197.749 127.613 222.979 138.423C245.219 147.943 266.92 133.203 271.76 129.563C264.21 141.303 250.89 148.213 238.55 148.193C201.76 148.143 192.42 115.493 192.42 115.493C189.085 115.924 185.7 115.284 182.752 113.667C179.805 112.049 177.447 109.537 176.02 106.493C186.61 116.533 195.17 107.743 195.17 107.743Z" fill="#EF8D72"/>
<path d="M252.43 70.9225C252.43 70.9225 261.73 69.9924 273.29 75.5624C273.29 75.5624 273.52 74.6824 271.56 72.3424C269.71 70.1524 262.05 66.8226 254.7 68.4926C254.68 68.4926 250.79 69.8025 252.43 70.9225Z" fill="#7C3425"/>
<path d="M231.91 70.7833C231.91 70.7833 222.68 69.3335 210.81 74.2235C210.81 74.2235 210.64 73.3233 212.73 71.1033C214.82 68.8833 222.55 66.1535 229.78 68.2335C229.78 68.2335 233.59 69.7733 231.91 70.7833Z" fill="#7C3425"/>
<path d="M241.709 117.243H241.369C237.321 117.243 234.039 120.525 234.039 124.573V126.913C234.039 130.961 237.321 134.243 241.369 134.243H241.709C245.757 134.243 249.039 130.961 249.039 126.913V124.573C249.039 120.525 245.757 117.243 241.709 117.243Z" fill="#B22828"/>
<path d="M239.5 28.5723C271.76 32.9123 279.7 56.5724 280.58 76.4524C280.58 76.4524 277.36 38.8524 244.64 32.4524C244.64 32.4524 234.24 63.3122 194.41 76.0522C221.48 63.3922 239.5 28.5723 239.5 28.5723Z" fill="#EF8D72"/>
<g filter="url(#filter0_b_1243_4797)">
<path d="M272.172 106.968C280.964 103.326 285.138 93.2473 281.497 84.4558C277.855 75.6643 267.776 71.4894 258.985 75.131C250.193 78.7725 246.018 88.8515 249.66 97.643C253.302 106.435 263.381 110.609 272.172 106.968Z" fill="url(#paint1_linear_1243_4797)"/>
</g>
<g filter="url(#filter1_b_1243_4797)">
<path d="M226.174 106.962C234.966 103.32 239.14 93.2414 235.499 84.4499C231.857 75.6584 221.778 71.4836 212.987 75.1251C204.195 78.7667 200.02 88.8457 203.662 97.6372C207.304 106.429 217.383 110.604 226.174 106.962Z" fill="url(#paint2_linear_1243_4797)"/>
</g>
<path d="M247.43 91.0428C247.43 87.4511 248.495 83.9401 250.49 80.9537C252.486 77.9673 255.322 75.6397 258.64 74.2652C261.958 72.8907 265.61 72.531 269.132 73.2317C272.655 73.9325 275.891 75.662 278.431 78.2017C280.97 80.7414 282.7 83.9774 283.401 87.5001C284.102 91.0228 283.742 94.6742 282.367 97.9925C280.993 101.311 278.665 104.147 275.679 106.142C272.692 108.138 269.182 109.203 265.59 109.203C260.775 109.198 256.159 107.283 252.754 103.878C249.35 100.473 247.435 95.8575 247.43 91.0428ZM249.43 91.0428C249.43 94.2389 250.378 97.3633 252.153 100.021C253.929 102.678 256.453 104.75 259.406 105.973C262.359 107.196 265.607 107.516 268.742 106.892C271.877 106.269 274.757 104.73 277.017 102.47C279.277 100.21 280.815 97.3304 281.439 94.1956C282.063 91.0609 281.743 87.8116 280.52 84.8587C279.296 81.9058 277.225 79.3819 274.568 77.6063C271.91 75.8306 268.786 74.8829 265.59 74.8829C261.306 74.8882 257.198 76.5924 254.168 79.6219C251.139 82.6513 249.435 86.7585 249.43 91.0428Z" fill="#CE3B28"/>
<path d="M201.43 91.0428C201.43 87.4511 202.495 83.9401 204.49 80.9537C206.486 77.9673 209.322 75.6397 212.64 74.2652C215.958 72.8907 219.61 72.531 223.132 73.2317C226.655 73.9325 229.891 75.662 232.431 78.2017C234.97 80.7414 236.7 83.9774 237.401 87.5001C238.102 91.0228 237.742 94.6742 236.367 97.9925C234.993 101.311 232.665 104.147 229.679 106.142C226.692 108.138 223.182 109.203 219.59 109.203C214.775 109.198 210.159 107.283 206.754 103.878C203.35 100.473 201.435 95.8575 201.43 91.0428ZM203.43 91.0428C203.43 94.2389 204.378 97.3633 206.153 100.021C207.929 102.678 210.453 104.75 213.406 105.973C216.359 107.196 219.607 107.516 222.742 106.892C225.877 106.269 228.757 104.73 231.017 102.47C233.277 100.21 234.815 97.3304 235.439 94.1956C236.063 91.0609 235.743 87.8116 234.52 84.8587C233.296 81.9058 231.225 79.3819 228.568 77.6063C225.91 75.8306 222.786 74.8829 219.59 74.8829C215.306 74.8882 211.198 76.5924 208.168 79.6219C205.139 82.6513 203.435 86.7585 203.43 91.0428Z" fill="#CE3B28"/>
<path d="M237.14 90.1028C240.637 88.7496 244.513 88.7496 248.01 90.1028L248.9 88.3128C248.69 88.2028 243.6 85.733 236.47 88.263L237.14 90.1028Z" fill="#CE3B28"/>
<path d="M201.97 89.1923L203.14 87.5722C202.76 87.2922 190.67 77.7722 183.75 81.5722L185.85 81.9323C193.53 81.8323 201.88 89.1323 201.97 89.1923Z" fill="#CE3B28"/>
<defs>
<filter id="filter0_b_1243_4797" x="246.344" y="71.8145" width="38.4688" height="38.4697" filterUnits="userSpaceOnUse" color-interpolation-filters="sRGB">
<feFlood flood-opacity="0" result="BackgroundImageFix"/>
<feGaussianBlur in="BackgroundImage" stdDeviation="1"/>
<feComposite in2="SourceAlpha" operator="in" result="effect1_backgroundBlur_1243_4797"/>
<feBlend mode="normal" in="SourceGraphic" in2="effect1_backgroundBlur_1243_4797" result="shape"/>
</filter>
<filter id="filter1_b_1243_4797" x="200.346" y="71.8086" width="38.4688" height="38.4697" filterUnits="userSpaceOnUse" color-interpolation-filters="sRGB">
<feFlood flood-opacity="0" result="BackgroundImageFix"/>
<feGaussianBlur in="BackgroundImage" stdDeviation="1"/>
<feComposite in2="SourceAlpha" operator="in" result="effect1_backgroundBlur_1243_4797"/>
<feBlend mode="normal" in="SourceGraphic" in2="effect1_backgroundBlur_1243_4797" result="shape"/>
</filter>
<linearGradient id="paint0_linear_1243_4797" x1="-593100" y1="578919" x2="-603738" y2="597403" gradientUnits="userSpaceOnUse">
<stop stop-color="#7C3425"/>
<stop offset="1" stop-color="#60261D"/>
</linearGradient>
<linearGradient id="paint1_linear_1243_4797" x1="-349416" y1="172786" x2="-351864" y2="166877" gradientUnits="userSpaceOnUse">
<stop stop-color="white" stop-opacity="0.8"/>
<stop offset="1" stop-color="white" stop-opacity="0.3"/>
</linearGradient>
<linearGradient id="paint2_linear_1243_4797" x1="-349462" y1="172786" x2="-351910" y2="166877" gradientUnits="userSpaceOnUse">
<stop stop-color="white" stop-opacity="0.8"/>
<stop offset="1" stop-color="white" stop-opacity="0.3"/>
</linearGradient>
</defs>
</svg>
