<svg width="462" height="395" viewBox="0 0 462 395" fill="none" xmlns="http://www.w3.org/2000/svg">
<path d="M438.569 132.57C438.569 132.57 458.389 132.87 460.109 133.08C525.819 141.32 564.109 245.82 550.679 333.96C538.019 416.79 484.129 455.68 423.139 453.23H403.879L438.569 132.57Z" fill="#414042"/>
<path d="M509.99 226.02C513.049 205.347 513.486 184.372 511.29 163.59C515.505 168.638 519.348 173.986 522.79 179.59V179.65C528.256 188.596 532.923 198.006 536.74 207.77L536.92 208.22C539.51 214.81 541.82 221.68 543.82 228.74L544.13 229.86C545.063 233.193 545.927 236.573 546.72 240C546.72 240.15 546.8 240.3 546.83 240.45C547.657 244.05 548.407 247.693 549.08 251.38C549.15 251.74 549.21 252.11 549.27 252.47C549.84 255.66 550.34 258.87 550.8 262.09C550.89 262.78 550.99 263.46 551.08 264.09C552.02 271.21 552.66 278.39 553 285.63C553 286.51 553.08 287.38 553.11 288.26C553.217 291.213 553.277 294.167 553.29 297.12C553.29 297.81 553.29 298.51 553.29 299.21C553.29 302.75 553.193 306.283 553 309.81C553 310.56 552.91 311.32 552.86 312.07C552.7 314.91 552.49 317.73 552.22 320.55C552.13 321.55 552.05 322.49 551.94 323.46C551.57 326.95 551.15 330.46 550.63 333.87C537.97 416.7 484.08 455.59 423.09 453.14H403.83L415.83 342.2C462.25 331.59 499.72 293.31 509.99 226.02Z" fill="#313133"/>
<path d="M293.82 304.14C280.35 392.28 326.74 444.03 392.45 452.27C458.16 460.51 518.32 422.1 531.79 333.96C545.26 245.82 506.93 141.32 441.22 133.09C375.51 124.86 307.29 216.02 293.82 304.14Z" fill="#BCBEC0"/>
<g style="mix-blend-mode:multiply" opacity="0.3">
<path d="M351.768 344.36C355.598 344.84 359.408 345.13 363.198 345.29H363.568C365.168 345.35 366.748 345.29 368.348 345.29H382.448C443.448 347.74 497.338 308.86 509.988 226.03C513.048 205.357 513.484 184.381 511.288 163.6C544.168 202.73 560.088 272.309 550.678 333.929C538.018 416.759 484.128 455.649 423.138 453.199H408.988C407.398 453.199 405.818 453.259 404.208 453.199H403.838C400.048 453.029 396.238 452.75 392.398 452.27C330.808 444.55 286.198 398.6 291.928 320.27C308.448 333.37 328.928 341.5 351.768 344.36Z" fill="#BCBEC0"/>
</g>
<path d="M316.989 462.44C287.209 473.96 202.909 502.09 198.289 506.1C193.669 510.11 140.509 485.39 143.209 472.55C145.909 459.71 271.329 390.26 271.329 390.26L316.989 462.44Z" fill="#36393D"/>
<path d="M393.879 389.19C401.389 412.42 410.419 421.28 412.979 442.14C415.539 463 407.249 475.28 407.249 475.28H260.189C260.189 475.28 264.299 406.79 271.649 384.06C278.999 361.33 393.879 389.19 393.879 389.19Z" fill="#36393D"/>
<g style="mix-blend-mode:multiply" opacity="0.2">
<path d="M202.829 691.72C202.399 651.15 198.239 511.56 192.619 485.44C207.619 479.44 240.279 468.13 267.889 458.36L279.989 446.07C286.078 439.907 290.029 431.954 291.264 423.379C292.499 414.805 290.951 406.06 286.849 398.43L301.019 392.93L327.989 475.28H281.689C254.079 485.05 221.429 496.37 206.419 502.36C214.599 522.67 218.319 693.77 218.319 693.77C213.093 693.7 207.894 693.012 202.829 691.72Z" fill="#36393D"/>
</g>
<path d="M365.089 129.14C361.789 123.98 316.849 124.94 314.359 126.8C311.869 128.66 305.219 146.43 305.219 146.43V171.43L362.549 166.09L362.769 145.01C362.769 145.01 368.319 134.19 365.089 129.14Z" fill="#BCBEC0"/>
<path d="M187.99 294.47C189.99 284.85 230.99 216.36 239.41 196.83C251 169.93 260.6 156.97 277.04 163.16C288.72 167.56 308.04 195.37 300.92 215.77C290.39 246.03 250.62 296.87 230.44 323.38C218.75 338.79 185.99 304.28 187.99 294.47Z" fill="#8C6048"/>
<g style="mix-blend-mode:multiply" opacity="0.2">
<path d="M257.099 220.75C256.599 199.16 272.619 162.46 281.499 165.81C293.179 170.21 308.049 195.37 300.959 215.81C290.429 246.07 250.659 296.91 230.479 323.42C229.079 325.26 220.479 325.76 218.819 326.3C229.989 310.47 257.989 260.91 257.099 220.75Z" fill="#8C6048"/>
</g>
<path d="M232.859 317.83C232.859 327.7 200.409 343.74 182.649 348.38C158.729 354.63 124.469 356.47 112.939 354.38C113.619 353.24 104.139 323.38 104.139 323.38C128.489 313.38 174.649 297.49 189.139 291.12C218.139 278.42 223.759 290.59 230.039 303.81C232.009 308.216 232.972 313.005 232.859 317.83Z" fill="#8C6048"/>
<g style="mix-blend-mode:multiply" opacity="0.2">
<path d="M108.52 337.6C129.67 337.33 156.15 338 178.52 332.87C195.35 329.02 224.22 316.279 231.01 306.189C232.27 309.939 232.885 313.875 232.83 317.83C232.83 327.7 200.379 343.74 182.619 348.38C158.699 354.63 124.439 356.47 112.909 354.38C113.289 353.83 110.9 345.48 108.52 337.6Z" fill="#8C6048"/>
</g>
<path d="M115.61 353.7L102.12 355.98L93.6501 326.21L104.14 323.46L115.61 353.7Z" fill="#E5E6E7"/>
<path d="M417.3 170.85C393.87 161.44 378.73 152.36 371.75 148.99C365.94 146.29 353.4 78.3799 353.4 78.3799L317.87 85.0898C317.87 85.0898 318.8 123.28 314.73 135.85C312.64 142.29 305.67 148.7 301.03 149.98C285.32 154.32 267.03 280.26 273.43 319.2C276.28 336.61 394.76 335.84 396.2 319.56C399.53 281.89 414.1 209.23 417.3 170.85Z" fill="#E6966E"/>
<path d="M353.489 147.22C349.739 151.09 316.879 191.39 316.879 191.39L313.229 197.39C313.229 197.39 306.789 168.49 305.109 158.99C303.929 152.33 303.649 154.58 297.199 151.5L267.899 164.69C258.579 170.24 264.379 259.03 264.379 259.03C264.379 259.03 269.859 324.09 271.649 384.03C271.649 384.03 273.119 396.71 316.129 398.27C355.209 399.68 393.879 389.16 393.879 389.16C395.879 363.64 420.279 270.02 420.279 270.02C429.929 228.85 441.589 181.6 441.589 181.6C441.589 181.6 438.589 170.05 408.059 159.73L353.489 147.22Z" fill="#E5E6E7"/>
<path d="M342.459 154.551C340.459 156.341 316.879 191.391 316.879 191.391C316.879 191.391 332.079 173.22 339.069 167L346.499 177.42L365.089 129.141C365.089 129.141 344.439 152.751 342.459 154.551Z" fill="#D1D3D4"/>
<path d="M342.459 154.551L346.459 177.42C346.459 177.42 376.579 153.541 375.399 144.871C374.989 141.871 364.979 128.311 364.979 128.311L342.459 154.551Z" fill="#F1F2F2"/>
<path d="M307.939 159.9C306.229 166.47 313.229 197.42 313.229 197.42C313.229 197.42 305.81 176.95 306.08 170.51L295.369 174.88L304.979 145.08L307.939 159.9Z" fill="#D1D3D4"/>
<path d="M309.11 153.28L295.26 175.28C292.59 171.075 291.678 165.99 292.72 161.12C293.29 158.12 307.9 138.72 307.9 138.72L309.11 153.28Z" fill="#F1F2F2"/>
<path d="M313.229 197.419L301.069 392.929L305.149 346.37L318.069 189.439L313.229 197.419Z" fill="#D1D3D4"/>
<path d="M333.229 332.68C333.229 332.68 344.319 404.42 347.709 410.84C356.549 427.59 375.529 453.45 390.889 461.64C398.559 465.73 437.709 474.2 439.089 469.96C441.339 463.05 403.879 368.81 410.379 341.22C413.209 329.22 426.629 249.13 429.849 221.44C431.329 208.61 435.269 171.09 425.159 164.07C419.089 159.85 386.159 147.22 386.159 147.22L347.569 193.93L333.229 332.68Z" fill="#8C6048"/>
<g style="mix-blend-mode:multiply" opacity="0.2">
<path d="M372.469 446.02C362.886 435.298 354.577 423.503 347.709 410.87C344.319 404.45 333.229 332.71 333.229 332.71L333.539 329.76C351.659 325.88 386.319 316.17 418.809 294.26C415.109 316.43 411.659 335.83 410.379 341.26C407.029 355.49 415.379 387.46 423.929 416.03C410.609 421.79 387.529 432.9 372.469 446.02Z" fill="#8C6048"/>
</g>
<path d="M386.13 147.22C386.18 146.16 379.64 140.65 369.13 133.55C369.13 133.55 356.26 155.55 353.04 167.82C345.09 198.02 324.68 223.71 333.22 332.68C333.35 334.37 347.96 225.85 371.35 194.77L362.06 179.56L371.8 175.63C371.8 175.63 385.86 152.1 386.13 147.22Z" fill="#A67255"/>
<path d="M341.8 333.85C344.31 333.31 346.89 335.39 347.55 338.5C348.21 341.61 346.72 344.55 344.2 345.09C341.68 345.63 339.12 343.55 338.45 340.44C337.78 337.33 339.29 334.39 341.8 333.85Z" fill="#A67255"/>
<path d="M348.229 363.88C350.739 363.34 353.319 365.42 353.979 368.53C354.639 371.64 353.149 374.53 350.639 375.12C348.129 375.71 345.549 373.58 344.879 370.47C344.209 367.36 345.719 364.42 348.229 363.88Z" fill="#A67255"/>
<path d="M354.628 393.75C357.138 393.21 359.708 395.29 360.378 398.39C361.048 401.49 359.549 404.45 357.029 404.99C354.509 405.53 351.939 403.44 351.279 400.34C350.619 397.24 352.108 394.29 354.628 393.75Z" fill="#A67255"/>
<path d="M282.438 323.55C280.348 365.55 265.018 421.17 260.808 419.07C240.738 409.07 230.038 413.93 230.038 413.93C235.848 403.44 263.318 370.07 263.298 358.15C263.278 346.23 260.028 248.63 257.388 224.03C256.048 211.59 255.128 171.61 265.758 165.6C270.058 163.17 290.618 154.34 290.618 154.34L285.998 184.24C285.998 184.24 284.158 288.76 282.438 323.55Z" fill="#8C6048"/>
<path d="M289.07 154.5C289.31 153.83 294.779 150.61 300.729 146.05C300.729 146.05 291.249 164.74 290.129 176.95C286.539 215.95 283.53 304.95 283.53 304.95L282.439 323.6L272.6 209.13L282.06 194.51L272.36 190.6C272.36 190.6 287.48 159.02 289.07 154.5Z" fill="#A67255"/>
<g style="mix-blend-mode:multiply" opacity="0.5">
<g style="mix-blend-mode:multiply" opacity="0.5">
<path d="M273.989 279.871L273.679 279.811L273.989 279.871Z" fill="#F1F2F2"/>
</g>
</g>
<path d="M422.42 163.63C437.57 159.41 447.28 184.52 453.55 208.27C465.12 252.04 467.49 283.49 471.75 321.88C474.23 344.2 426.23 333.249 420.66 323.459C415.2 313.849 404.83 274.959 400.99 250.939C393.44 203.549 394.44 171.42 422.42 163.63Z" fill="#8C6048"/>
<g style="mix-blend-mode:multiply" opacity="0.2">
<path d="M397.658 197.42C397.758 207.811 398.691 218.178 400.448 228.42C404.278 252.42 416.958 291.73 422.448 301.34C422.448 301.34 450.448 290.96 471.448 318.46C471.578 319.61 471.688 320.72 471.818 321.89C474.298 344.2 426.298 333.26 420.728 323.47C415.268 313.86 404.898 274.97 401.058 250.95C397.618 229.78 395.988 211.69 397.658 197.42Z" fill="#8C6048"/>
</g>
<path d="M310.236 311.346C318.756 313.363 328.822 318.801 337.006 318.986C342.083 319.098 345.727 316.75 349.595 315.467C353.464 314.183 362.046 309.338 362.046 309.338L361.75 294.05C356.186 291.922 350.503 290.12 344.73 288.653C334.338 285.954 318.827 283.451 318.827 283.451C318.827 283.451 284.007 282.68 283.483 283.003C282.959 283.326 282.894 286.24 284.46 287.279C286.026 288.318 290.237 288.735 290.237 288.735L282.523 291.898C281.54 292.374 283.403 295.134 284.793 295.577C285.993 295.877 287.258 295.773 288.392 295.28C289.31 294.974 290.354 294.654 290.354 294.654C290.354 294.654 286.862 295.686 285.984 296.653C285.107 297.619 288.219 300.1 289.64 299.682C291.06 299.263 295.083 298.531 295.989 298.234C296.895 297.936 303.69 296.353 303.69 296.353C303.69 296.353 297.893 303.175 297.708 304.607C297.522 306.038 300.788 306.031 301.912 305.206C303.036 304.382 309.047 300.152 309.047 300.152C309.047 300.152 313.767 298.336 316.711 297.54C318.665 297.005 325.97 302.225 325.246 304.966C324.784 306.659 320.663 306.963 318.346 306.212C316.028 305.461 310.996 305.276 309.07 305.981C307.143 306.685 306.564 307.436 306.278 308.96C305.993 310.279 309.467 311.11 310.236 311.346Z" fill="#E6966E"/>
<g style="mix-blend-mode:multiply" opacity="0.5">
<path d="M309.031 305.922C310.958 305.217 316 305.404 318.307 306.153C320.615 306.902 324.745 306.599 325.208 304.907C325.951 302.17 318.646 296.949 316.673 297.481C326.997 294.373 344.461 311.018 352.59 310.815L354.897 313.042C353.172 313.93 351.394 314.711 349.572 315.38C345.708 316.644 342.068 318.972 336.983 318.9C328.799 318.715 318.733 313.276 310.213 311.259C309.468 311.109 306.009 310.2 306.248 308.861C306.51 307.455 306.94 306.685 309.031 305.922Z" fill="#E6966E"/>
</g>
<g style="mix-blend-mode:multiply" opacity="0.3">
<path d="M279.569 343.67L296.989 335.04L276.799 345.96L279.569 343.67Z" fill="#E6966E"/>
</g>
<g style="mix-blend-mode:multiply" opacity="0.3">
<path d="M281.439 349.31L295.339 339.32L306.569 335.04L295.869 340.5L281.439 349.31Z" fill="#E6966E"/>
</g>
<g style="mix-blend-mode:multiply" opacity="0.3">
<path d="M294.688 346.98L305.099 338.49L296.989 344.24L294.688 346.98Z" fill="#E6966E"/>
</g>
<path d="M349.59 327.51L340.36 329.08L343.02 357.07L354.7 356.21L349.59 327.51Z" fill="#F1F2F2"/>
<path d="M356.034 291.95C379.092 291.155 408.865 286.563 436.664 289.953C471.992 294.266 481.265 308.495 472.183 328.18C468.362 336.459 444.419 339.613 428.675 337.959C407.495 335.737 359.136 326.072 350.883 320.743C352.327 314.699 356.034 291.95 356.034 291.95Z" fill="#8C6048"/>
<path d="M446.719 329.707C456.746 326.167 466.898 322.028 474.419 322.046C473.849 324.147 473.102 326.196 472.184 328.171C468.51 336.148 446.352 339.341 430.653 338.126C430.744 335.972 434.692 333.946 446.719 329.707Z" fill="#664634"/>
<g style="mix-blend-mode:multiply" opacity="0.2">
<path d="M428.466 326.775C441.797 328.182 473.82 324.641 472.183 328.171C468.363 336.45 444.417 339.613 428.674 337.96C407.494 335.738 359.134 326.073 350.881 320.744C351.356 318.738 352.095 314.854 352.842 310.681C365.23 316.144 408.658 324.696 428.466 326.775Z" fill="#8C6048"/>
</g>
<path d="M81.739 350.42H292.079C292.435 350.398 292.791 350.449 293.126 350.57C293.461 350.691 293.768 350.879 294.028 351.123C294.288 351.367 294.495 351.662 294.636 351.989C294.777 352.316 294.851 352.669 294.851 353.025C294.851 353.381 294.777 353.734 294.636 354.061C294.495 354.388 294.288 354.683 294.028 354.927C293.768 355.171 293.461 355.359 293.126 355.48C292.791 355.601 292.435 355.652 292.079 355.63H81.739C81.3833 355.652 81.0269 355.601 80.6917 355.48C80.3564 355.359 80.0497 355.171 79.79 354.927C79.5304 354.683 79.3233 354.388 79.1819 354.061C79.0404 353.734 78.9675 353.381 78.9675 353.025C78.9675 352.669 79.0404 352.316 79.1819 351.989C79.3233 351.662 79.5304 351.367 79.79 351.123C80.0497 350.879 80.3564 350.691 80.6917 350.57C81.0269 350.449 81.3833 350.398 81.739 350.42Z" fill="#414042"/>
<path d="M19.8696 258.08C20.1997 257.871 20.5735 257.741 20.9619 257.699C21.3503 257.657 21.743 257.706 22.1099 257.84H122.78L181.72 354.2H80.5498C80.1154 354.21 79.6853 354.112 79.2991 353.912C78.9129 353.713 78.583 353.42 78.3398 353.06L19.1196 261.72C18.9275 261.432 18.7946 261.109 18.7283 260.77C18.662 260.431 18.6636 260.082 18.7334 259.743C18.8032 259.404 18.9397 259.083 19.1348 258.797C19.3298 258.512 19.5795 258.268 19.8696 258.08Z" fill="#58595B"/>
<path d="M121.39 261.69L180.62 353.02C180.806 353.307 181.047 353.554 181.329 353.747C181.611 353.94 181.928 354.076 182.262 354.147C182.597 354.217 182.941 354.221 183.277 354.158C183.613 354.096 183.934 353.967 184.22 353.78C184.508 353.596 184.757 353.356 184.952 353.074C185.147 352.793 185.284 352.476 185.356 352.141C185.427 351.806 185.432 351.461 185.369 351.124C185.306 350.788 185.177 350.467 184.99 350.18L125.77 258.841C125.583 258.553 125.342 258.305 125.06 258.111C124.777 257.916 124.46 257.779 124.124 257.708C123.789 257.636 123.443 257.632 123.106 257.694C122.769 257.756 122.447 257.884 122.16 258.071C121.578 258.449 121.171 259.043 121.026 259.721C120.882 260.4 121.013 261.108 121.39 261.69Z" fill="#414042"/>
<path d="M84.2394 305.43C85.5894 307.77 87.7793 309.03 89.1293 308.25C90.4793 307.47 90.4893 304.941 89.1293 302.611C87.7693 300.281 85.5894 299.01 84.2394 299.79C82.8894 300.57 82.8894 303.1 84.2394 305.43Z" fill="#BCBEC0"/>
<path d="M461.179 362.01H479.829V747.76H461.179V362.01Z" fill="#414042"/>
<path d="M350.73 362.01H369.38V747.76H350.73V362.01Z" fill="#414042"/>
<path d="M49.3491 362.01H67.999V747.76H49.3491V362.01Z" fill="#414042"/>
<path d="M258.401 85.3221C268.189 81.8276 279.039 78.8877 290.698 74.8523C294.851 73.4187 297.746 71.6454 302.316 71.8193C307.885 72.0252 313.029 78.3992 319.035 79.8729C320.96 81.1656 320.485 82.0997 317.077 82.6024C311.137 81.1033 307.852 73.1316 302.276 72.907C297.702 72.7239 294.803 74.4878 290.65 75.9215C278.98 79.9289 268.133 82.8465 258.31 86.2793L258.401 85.3221Z" fill="#7B3A25"/>
<path d="M-88.0002 355.22H506.72V368.8H-88.0002V355.22Z" fill="#58595B"/>
<path d="M265.918 57.6005C264.838 66.6005 269.558 87.9205 271.208 91.3505C273.018 95.1105 273.718 102.77 277.478 109.16C281.238 115.55 293.169 140.9 299.349 144.97C303.469 147.68 315.978 144.97 323.748 140.33C332.648 135.01 346.918 118.75 346.368 113.05C345.588 104.79 343.068 81.1804 338.628 68.7904C334.188 56.4004 332.629 45.0904 323.029 36.7904C313.429 28.4904 304.029 20.7903 289.359 31.1803C274.689 41.5703 267.058 48.1405 265.918 57.6005Z" fill="#F7A379"/>
<g style="mix-blend-mode:multiply" opacity="0.5">
<path d="M286.854 79.2197C286.854 79.2197 281.223 98.9897 282.016 100.238C285.046 104.942 296.039 103.008 296.039 103.008C296.039 103.008 285.87 101.996 285.583 99.3412C285.297 96.6859 286.854 79.2197 286.854 79.2197Z" fill="#E6966E"/>
</g>
<path d="M314.847 62.717C311.203 62.2493 296.324 63.3373 295.61 64.4284C294.895 65.5194 294.703 69.378 296.239 69.2454C302.572 68.684 309.291 67.7593 314.448 67.4275C316.942 67.2782 321.959 69.2735 321.959 69.2735C321.959 69.2735 318.487 63.1753 314.847 62.717Z" fill="#8B5E3C"/>
<path d="M269.019 68.7773C270.967 67.7136 281.534 65.2905 282.062 66.2976C282.591 67.3047 283.091 71.4537 282.197 71.499C277.69 71.8678 273.206 72.4808 268.766 73.3354C268.766 73.3354 267.378 69.6905 269.019 68.7773Z" fill="#8B5E3C"/>
<path d="M346.87 80.6886C339.929 100.922 350.081 114.538 347.791 120.623C341.423 137.43 329.335 144.987 319.102 151.547C313.844 154.92 302.082 156.83 298.491 155.141C289.737 151.02 276.964 111.047 278.775 109.907C281.508 108.186 285.749 105.26 300.692 104.008C323.229 102.125 322.191 107.758 327.077 106.116C329.926 105.165 330.7 86.393 332.519 78.5922C333.835 73.066 348.054 77.2612 346.87 80.6886ZM306.538 116.189C306.902 114.858 306.741 112.165 304.825 111.759C302.91 111.352 284.645 113.277 282.856 114.473C282.006 115.048 281.668 116.669 282.165 117.956C283.745 122.041 287.781 129.905 295.195 128.754C302.609 127.604 305.49 120.079 306.538 116.189Z" fill="#BD8242"/>
<g style="mix-blend-mode:multiply" opacity="0.3">
<path d="M293.905 149.462C294.262 149.595 294.63 149.693 295.005 149.755C294.178 147.339 293.853 144.78 294.049 142.234C294.539 145.351 296.209 148.16 298.712 150.081C302.576 149.919 306.397 149.2 310.056 147.947C309.71 145.716 309.499 143.467 309.424 141.211C309.534 142.221 309.928 143.179 310.56 143.975C311.192 144.77 312.036 145.371 312.995 145.706L313.28 141.951C313.953 143.104 314.712 144.205 315.55 145.244C317.406 144.055 319.304 142.806 321.227 141.484C322.55 137.694 322.386 133.542 320.768 129.868C322.031 132.886 324.141 135.822 326.994 137.239C334.334 131.456 339.951 123.775 343.238 115.028C345.472 109.104 335.977 96.0496 341.83 76.7187C344.911 77.6719 347.43 79.25 346.903 80.7722C339.962 101.006 350.114 114.621 347.824 120.706C341.456 137.513 329.367 145.07 319.135 151.631C313.877 155.004 302.114 156.913 298.524 155.224C296.721 154.388 294.745 151.968 292.791 148.714C293.139 148.996 293.512 149.247 293.905 149.462Z" fill="#BD8242"/>
</g>
<path d="M308.032 76.3187C309.93 76.7606 311.676 77.6986 313.092 79.0369C313.092 79.0369 312.657 81.3495 307.645 82.944C302.192 84.0654 298.61 82.4804 298.063 79.486C298.176 77.309 301.543 75.3425 308.032 76.3187Z" fill="#F2F0F0"/>
<path d="M300.136 80.7428C299.35 78.7095 299.953 76.5252 301.634 75.8001C303.316 75.0749 305.37 76.1462 306.225 78.1637C307.08 80.1811 306.39 82.3885 304.717 83.11C302.713 83.9707 300.982 82.9886 300.136 80.7428Z" fill="#487CB8"/>
<path d="M302.007 73.5757C298.47 74.5782 298.063 79.4854 298.063 79.4854C299.961 77.7475 302.431 76.766 305.005 76.7267C307.84 76.8598 310.606 77.6517 313.082 79.0398C313.082 79.0398 310.063 71.2868 302.007 73.5757Z" fill="#E6966E"/>
<path d="M300.499 80.6562C300.399 80.2143 300.428 79.7532 300.582 79.3271C300.736 78.9011 301.008 78.5278 301.366 78.2509C301.725 77.9741 302.155 77.8053 302.606 77.7644C303.057 77.7235 303.51 77.8122 303.913 78.02C304.315 78.2278 304.65 78.5461 304.878 78.9376C305.106 79.329 305.217 79.7773 305.199 80.2299C305.181 80.6825 305.034 81.1205 304.776 81.4925C304.517 81.8645 304.158 82.155 303.74 82.3299C303.088 82.5296 302.384 82.4663 301.778 82.1535C301.173 81.8408 300.713 81.3033 300.499 80.6562Z" fill="#18100E"/>
<path d="M303.611 78.8637C303.482 78.6142 303.455 78.3238 303.538 78.0551C303.621 77.7864 303.806 77.561 304.053 77.4277C304.323 77.3454 304.614 77.3719 304.865 77.5015C305.115 77.6311 305.305 77.8535 305.393 78.1211C305.519 78.3739 305.542 78.6654 305.459 78.9351C305.376 79.2048 305.192 79.4321 304.946 79.57C304.675 79.6527 304.383 79.6248 304.133 79.4924C303.882 79.36 303.695 79.1339 303.611 78.8637Z" fill="#EFECEC"/>
<path d="M303.853 75.9398C302.299 75.9606 300.794 76.4897 299.568 77.4462C298.967 78.0465 298.459 78.7343 298.063 79.4862C299.008 78.8528 302.006 77.3186 304.424 77.6383C309.427 78.3204 313.092 79.0371 313.092 79.0371C310.42 77.0485 307.184 75.9636 303.853 75.9398Z" fill="#412118"/>
<path d="M279.706 79.3138C281.531 79.8403 283.194 80.8204 284.538 82.163C284.538 82.163 284.224 84.4287 279.584 85.7936C274.56 86.6637 271.132 85.0082 270.505 82.0556C270.541 79.9835 273.606 78.1231 279.706 79.3138Z" fill="#F2F0F0"/>
<path d="M272.304 83.0436C271.7 80.9826 272.396 78.9554 274.061 78.4938C275.727 78.0322 277.602 79.3335 278.301 81.39C278.999 83.4465 278.199 85.4818 276.547 85.9492C274.575 86.5075 272.968 85.317 272.304 83.0436Z" fill="#487CB8"/>
<path d="M273.985 76.4113C270.714 77.2684 270.502 82.046 270.502 82.046C271.351 81.2327 272.353 80.5957 273.45 80.1718C274.546 79.7478 275.716 79.5454 276.891 79.5761C279.6 79.8313 282.213 80.7069 284.528 82.1349C284.528 82.1349 281.449 74.4479 273.985 76.4113Z" fill="#E6966E"/>
<path d="M272.631 83.0345C272.141 81.5728 272.682 80.1419 273.835 79.8247C274.988 79.5076 276.32 80.4293 276.782 81.9018C277.244 83.3742 276.732 84.7944 275.575 85.1022C274.916 85.1817 274.25 85.0146 273.707 84.6328C273.163 84.2511 272.78 83.6817 272.631 83.0345Z" fill="#18100E"/>
<path d="M275.644 81.5909C275.417 81.0032 275.673 80.3897 276.216 80.2976C276.49 80.2651 276.767 80.334 276.993 80.4913C277.22 80.6486 277.381 80.8832 277.447 81.1512C277.674 81.7388 277.415 82.3431 276.921 82.4265C276.642 82.4769 276.354 82.4185 276.116 82.2631C275.879 82.1076 275.71 81.8671 275.644 81.5909Z" fill="#EFECEC"/>
<path d="M275.795 78.788C274.364 78.7512 272.966 79.2195 271.846 80.1107C271.281 80.6855 270.813 81.348 270.46 82.0725C271.307 81.488 274.081 80.094 276.338 80.4972C281.05 81.345 284.493 82.1799 284.493 82.1799C284.493 82.1799 280.534 78.7892 275.795 78.788Z" fill="#412118"/>
<path d="M315.137 83.5751C323.333 80.7604 332.488 78.5399 342.242 75.3162C345.715 74.1773 348.092 72.6154 352.085 73.0444C356.872 73.5847 361.682 80.12 366.917 81.9024C368.65 83.2801 368.296 84.1673 365.4 84.44C360.195 82.6246 356.913 74.6624 352.11 74.1069C348.169 73.647 345.789 75.1996 342.316 76.3384C332.532 79.5414 323.389 81.736 315.185 84.532L315.137 83.5751Z" fill="#7B3A25"/>
<g style="mix-blend-mode:screen" opacity="0.3">
<path d="M262.41 90.4812C261.244 84.6921 264.88 81.0351 270.732 80.7243C276.584 80.4135 282.104 83.1575 283.049 89.1501C283.993 95.1428 279.833 102.187 273.388 101.462C267.135 100.791 263.537 95.9207 262.41 90.4812Z" fill="#E6E7E8"/>
</g>
<g style="mix-blend-mode:screen" opacity="0.3">
<path d="M279.874 91.9751C278.941 85.9027 273.589 83.1791 267.664 83.4649C266.12 83.5205 264.604 83.8983 263.214 84.5739C264.576 82.3 267.231 80.8768 270.732 80.7244C276.691 80.4148 282.105 83.1575 283.049 89.1502C283.746 93.7267 281.639 98.7329 277.813 100.705C279.579 98.1603 280.315 95.041 279.874 91.9751Z" fill="#E6E7E8"/>
</g>
<g style="mix-blend-mode:screen" opacity="0.3">
<path d="M293.162 88.5743C292.096 82.4893 296.751 79.1672 303.235 78.8266C309.718 78.486 315.464 81.9791 316.234 88.2966C316.95 94.2271 314.579 99.6575 307.744 100.67C300.909 101.682 294.25 94.8008 293.162 88.5743Z" fill="#E6E7E8"/>
</g>
<g style="mix-blend-mode:screen" opacity="0.3">
<path d="M312.563 91.6139C311.827 85.2727 306.278 81.7354 299.699 82.0488C297.66 82.1084 295.656 82.5911 293.814 83.4661C295.34 80.6462 298.807 79.0486 303.154 78.7834C309.773 78.4333 315.383 81.936 316.153 88.2535C316.725 93.0068 315.27 97.3967 311.153 99.503C312.456 97.0925 312.951 94.3268 312.563 91.6139Z" fill="#E6E7E8"/>
</g>
<path d="M263.565 82.2393C268.585 78.9159 274.283 78.5142 281.126 82.0981C281.458 82.2775 281.827 82.3788 282.205 82.3945C282.583 82.4101 282.959 82.3397 283.305 82.1884C285.53 81.1473 288.065 80.9826 290.406 81.727C290.784 81.8724 291.192 81.9245 291.594 81.879C291.996 81.8336 292.382 81.692 292.718 81.466C298.562 77.1698 304.939 76.8595 311.764 79.7319C314.113 81.2176 316.855 81.9618 319.633 81.868L320.224 84.9206C318.184 85.441 317.428 86.9235 318.029 89.8108C317.737 90.0005 317.4 90.1078 317.052 90.1214C316.705 90.135 316.36 90.0545 316.054 89.8881C314.809 83.229 310.811 79.5426 303.398 79.5028C296.625 79.5912 293.261 82.5104 293.445 88.561C293.36 88.7545 293.226 88.922 293.055 89.0463C292.884 89.1707 292.684 89.2474 292.474 89.2686C292.264 89.2898 292.052 89.2546 291.86 89.1669C291.668 89.0791 291.502 88.9418 291.381 88.7691C290.451 87.6385 290.715 86.4642 291.441 86.1514C291.425 85.5283 291.19 84.9306 290.778 84.4629C290.366 83.9951 289.803 83.6869 289.187 83.592C287.871 83.2863 286.495 83.3677 285.225 83.8264C284.952 83.8986 284.697 84.0277 284.478 84.2053C284.259 84.3829 284.079 84.6049 283.952 84.8567C283.824 85.1085 283.752 85.3844 283.738 85.6663C283.725 85.9482 283.772 86.2297 283.875 86.4923C284.656 86.7373 284.786 87.8233 284.253 88.9945C283.857 89.8553 283.446 89.6815 282.727 88.9842C280.965 83.125 276.897 80.645 270.751 81.2197C264.349 81.9364 262.074 85.6464 262.968 91.7332C262.725 91.8991 262.439 91.9923 262.145 92.0017C261.85 92.0111 261.559 91.9364 261.306 91.7863C260.975 89.1269 259.923 87.85 258.117 87.5299L257.72 84.7563C259.915 84.6779 262 83.7799 263.565 82.2393Z" fill="#3F2216"/>
<path d="M293.195 88.2507C295.666 96.9446 301.728 100.284 306.203 100.376C310.948 100.504 316.127 97.1509 316.091 89.5959L316.786 89.7024C316.861 91.2611 316.622 92.8189 316.083 94.2834C315.544 95.7478 314.716 97.0891 313.648 98.2272C311.825 100.021 309.375 101.034 306.817 101.05L306.301 101.046C303.309 100.899 300.458 99.7308 298.224 97.7357C295.467 95.2111 293.506 91.9385 292.578 88.3177L293.195 88.2507Z" fill="#3F2216"/>
<path d="M262.772 91.6701C264.955 98.5667 270.385 101.464 274.544 101.185C278.704 100.907 283.214 97.4587 282.768 88.8181L283.384 88.8587C283.592 92.7238 282.781 96.007 281.046 98.3398C280.308 99.3586 279.356 100.203 278.256 100.813C277.156 101.424 275.936 101.785 274.681 101.872L274.226 101.887C271.74 101.886 269.328 101.042 267.383 99.4938C264.928 97.5245 263.143 94.8442 262.272 91.8204L262.772 91.6701Z" fill="#3F2216"/>
<path d="M317.534 83.2592L318.757 83.2047C318.791 83.2055 318.824 83.1984 318.854 83.1839C318.884 83.1694 318.91 83.148 318.93 83.1213C318.95 83.0947 318.964 83.0636 318.969 83.0307C318.975 82.9979 318.973 82.964 318.963 82.9322C318.945 82.8603 318.904 82.7966 318.845 82.7511C318.787 82.7056 318.715 82.6812 318.641 82.6815L317.422 82.7453C317.389 82.7448 317.356 82.7518 317.326 82.7657C317.296 82.7797 317.269 82.8002 317.248 82.8259C317.227 82.8515 317.212 82.8816 317.204 82.9138C317.196 82.9461 317.196 82.9797 317.203 83.0121C317.224 83.084 317.267 83.1471 317.327 83.1918C317.387 83.2365 317.46 83.2602 317.534 83.2592Z" fill="#B3B3B3"/>
<path d="M258.677 85.8131L259.725 85.7509C259.755 85.749 259.785 85.7408 259.811 85.7269C259.838 85.713 259.862 85.6938 259.881 85.6703C259.9 85.6468 259.914 85.6196 259.923 85.5904C259.931 85.5613 259.933 85.5307 259.928 85.5007C259.921 85.438 259.891 85.3805 259.843 85.3393C259.796 85.2981 259.734 85.2764 259.671 85.2787L258.669 85.3227C258.639 85.3247 258.61 85.3329 258.583 85.3468C258.556 85.3607 258.532 85.38 258.513 85.4035C258.494 85.427 258.48 85.4542 258.472 85.4833C258.464 85.5125 258.462 85.543 258.466 85.5729C258.469 85.6307 258.492 85.6858 258.53 85.7293C258.568 85.7728 258.62 85.8022 258.677 85.8131Z" fill="#B3B3B3"/>
<path d="M304.467 113.162C304.467 113.162 303.395 127.418 292.297 126.444C284.267 125.752 282.552 116.573 282.552 116.573C285.089 116.714 287.632 116.676 290.164 116.461C299.949 115.648 304.467 113.162 304.467 113.162Z" fill="#A63F42"/>
<path d="M290.172 116.48C287.644 116.795 285.09 116.844 282.552 116.627C282.552 116.627 284.206 119.129 286.429 119.417C291.355 120.011 299.538 117.716 301.125 116.47C301.781 115.671 302.356 114.809 302.843 113.897C298.759 115.339 294.494 116.208 290.172 116.48Z" fill="#FFFCF7"/>
<path d="M253.99 40.4099C254.886 41.1796 255.942 41.7412 257.082 42.0542C258.221 42.3672 259.416 42.4237 260.58 42.22C256.1 37.01 255.58 28.2199 259.5 22.9299C259.774 24.8428 260.597 26.6352 261.869 28.0901C261.969 27.4101 262.059 26.7301 262.149 26.0901L265.24 28.6899C263.71 22.5499 266.5 15.6901 271.56 13.1201C270.877 14.1028 270.543 15.2861 270.612 16.4807C270.681 17.6753 271.148 18.8122 271.939 19.71L272.939 17.5601C273.223 18.1574 273.624 18.6912 274.119 19.1294C274.614 19.5676 275.192 19.9013 275.82 20.1101C276.68 13.1901 281.34 7.24012 287.36 5.37012C287.118 6.32908 287.082 7.32838 287.254 8.30225C287.426 9.27611 287.803 10.2023 288.36 11.02C288.968 8.83333 290.133 6.84221 291.743 5.2417C293.352 3.64119 295.35 2.48632 297.54 1.89014C298.71 4.62014 301.96 6.04014 304.36 4.89014L309.06 6.40991C310.736 3.37123 313.502 1.08086 316.8 0C317.23 2.87 321.659 5.35013 324.119 6.38013C325.719 6.91351 327.385 7.22304 329.07 7.30005C328.848 6.57 328.783 5.80168 328.876 5.04468C328.97 4.28767 329.222 3.55864 329.615 2.90479C330.008 2.25093 330.533 1.68686 331.157 1.24854C331.782 0.81021 332.491 0.507568 333.24 0.360107C333.145 0.491518 333.058 0.628337 332.979 0.77002C332.448 1.70878 332.205 2.78361 332.281 3.85986C332.358 4.93612 332.75 5.96597 333.409 6.82007C333.91 5.55695 334.864 4.52602 336.085 3.92871C337.305 3.33141 338.705 3.21067 340.01 3.59009L339.59 3.84009C338.34 4.65009 341.33 11.1199 341.35 12.9199C341.413 12.9768 341.473 13.037 341.53 13.1001H342.02C344.02 12.8901 346.669 12.3399 347.629 10.9399L346.82 12.1301C349.646 12.3765 352.394 13.1892 354.899 14.52L352.49 15C355.786 15.4762 358.779 17.1887 360.86 19.79L359.49 19.54C361.074 21.0082 363.091 21.9238 365.24 22.1499L364.389 23.1499C367.349 25.3248 369.544 28.381 370.659 31.8801L369.56 31.51C371.36 34.64 371.74 38.15 373.56 41.28L372.75 41.7C373.24 44.8899 372.3 49.7001 372.75 52.8501L372.659 52.77C372.709 54.13 372.82 55.4101 372.8 56.8601C372.33 96.6701 364.929 95.35 361.139 114.2C360.649 116.66 352.22 89.92 346.3 85C340.38 80.08 332.51 81.27 332.51 81.27C331.56 65.27 329.789 40.8001 310.369 41.3701C290.949 41.9401 272.959 58.3699 261.959 53.9299C256.569 51.7199 253.759 45.8299 253.99 40.4099Z" fill="#BD8242"/>
<g style="mix-blend-mode:multiply" opacity="0.3">
<g style="mix-blend-mode:multiply" opacity="0.3">
<path d="M343.99 83.4299C343.268 83.0198 342.516 82.6656 341.74 82.3701C343.26 81.6001 344.07 79.3701 345.84 79.1401C346.57 79.0701 347.28 79.4101 348 79.3801C348.72 79.3501 349.53 78.62 349.17 77.99L350.83 80.55C350.957 80.7934 351.151 80.995 351.39 81.1301C352.09 81.4401 352.71 80.5801 352.98 79.8701C355.625 72.8368 356.98 65.3843 356.98 57.8701C360.33 65.2101 357.93 73.7901 358.71 81.8701C359.785 80.4244 360.505 78.7456 360.81 76.97C360.764 77.2597 360.815 77.5566 360.957 77.8137C361.098 78.0709 361.321 78.2738 361.59 78.3901C362.327 77.1836 362.73 75.8034 362.76 74.3901C363.009 78.6356 362.411 82.8879 361 86.8999C364.81 83.026 368.387 78.929 371.71 74.6301C369.22 96.8001 364.15 98.74 361.04 114.21C361.04 114.32 360.91 114.3 360.84 114.28C359.56 113 351.71 89.59 346.2 85.01C345.516 84.4132 344.776 83.884 343.99 83.4299Z" fill="#BD8242"/>
</g>
<g style="mix-blend-mode:multiply" opacity="0.3">
<path d="M339.3 78.75L340.86 82.0801C339.698 81.6993 338.503 81.4281 337.29 81.27C337.855 80.3509 338.53 79.5045 339.3 78.75Z" fill="#BD8242"/>
</g>
</g>
<path d="M316.929 84.5098L318.129 84.2799C318.162 84.2747 318.193 84.2623 318.22 84.2435C318.248 84.2246 318.271 84.1998 318.287 84.171C318.303 84.1421 318.313 84.1098 318.315 84.0767C318.317 84.0436 318.312 84.0105 318.299 83.9798C318.269 83.9117 318.218 83.8553 318.153 83.8192C318.088 83.783 318.013 83.7692 317.939 83.7799L316.739 84.0098C316.707 84.0135 316.676 84.0248 316.648 84.0426C316.621 84.0603 316.598 84.0842 316.582 84.1124C316.565 84.1405 316.555 84.1721 316.553 84.2047C316.551 84.2372 316.557 84.2698 316.569 84.2999C316.598 84.3699 316.648 84.4284 316.713 84.4664C316.779 84.5044 316.854 84.5197 316.929 84.5098Z" fill="#B3B3B3"/>
<path d="M337.419 74.4398C336.819 79.3798 341.159 93.9798 341.159 93.9798C341.753 94.4673 342.464 94.7912 343.221 94.9193C343.979 95.0473 344.757 94.9751 345.479 94.7098C348.309 93.9298 350.329 82.8299 350.329 82.8299C350.329 82.8299 351.409 71.0298 346.329 69.2598C345.407 68.8802 344.41 68.7178 343.416 68.7855C342.422 68.8531 341.456 69.149 340.595 69.65C339.733 70.1509 338.998 70.8435 338.448 71.6741C337.897 72.5048 337.545 73.4511 337.419 74.4398Z" fill="#F7A379"/>
<g style="mix-blend-mode:multiply" opacity="0.3">
<g style="mix-blend-mode:multiply" opacity="0.3">
<path d="M273.05 20.5498C272.603 21.9509 271.821 23.2212 270.77 24.2498C269.891 20.8257 269.788 17.2485 270.47 13.7798C270.81 13.5256 271.168 13.2951 271.54 13.0898C270.857 14.0726 270.523 15.2558 270.592 16.4504C270.661 17.6451 271.128 18.782 271.92 19.6797L272.92 17.5298C273.203 18.1271 273.604 18.6609 274.099 19.0991C274.594 19.5374 275.173 19.871 275.8 20.0798C276.075 17.8401 276.752 15.6684 277.8 13.6697C277.967 16.6058 279.013 19.4242 280.8 21.7598C280.136 21.9912 279.426 22.0601 278.73 21.9609C278.035 21.8618 277.373 21.5973 276.8 21.1897C277.015 21.4729 277.181 21.791 277.29 22.1299C276.513 22.1658 275.737 22.0442 275.008 21.7727C274.28 21.5012 273.614 21.0853 273.05 20.5498Z" fill="#BD8242"/>
</g>
<g style="mix-blend-mode:multiply" opacity="0.3">
<path d="M304.25 4.85034L307.99 6.02026C308.199 6.21768 308.448 6.3677 308.72 6.46021C306.993 7.25438 305.056 7.47229 303.196 7.08154C301.336 6.69079 299.651 5.71217 298.39 4.29028L296.59 6.61035C296.258 5.87395 296.116 5.0661 296.177 4.26074C296.238 3.45538 296.501 2.67811 296.94 2.00024C297.1 2.00024 297.25 1.86031 297.41 1.82031C298.6 4.59031 301.85 6.02034 304.25 4.85034Z" fill="#BD8242"/>
</g>
<g style="mix-blend-mode:multiply" opacity="0.3">
<path d="M261.85 28.0901C261.95 27.4101 262.04 26.7301 262.13 26.0901L265.22 28.6899C264.651 26.3426 264.67 23.8909 265.278 21.553C265.885 19.2151 267.06 17.0636 268.7 15.29C267.827 17.0694 267.156 18.9412 266.7 20.8701C265.85 24.7601 266.28 29.13 268.78 32.23C267.584 32.2835 266.399 31.9778 265.378 31.3523C264.357 30.7268 263.546 29.81 263.05 28.72C262.92 29.38 262.78 30.04 262.64 30.72C259.94 30.11 259.58 26.8701 258.94 23.8801C259.12 23.5801 259.26 23.26 259.47 22.97C259.755 24.8698 260.582 26.6475 261.85 28.0901Z" fill="#BD8242"/>
</g>
<g style="mix-blend-mode:multiply" opacity="0.3">
<path d="M256.42 49.2402C257.39 49.6842 258.393 50.0521 259.42 50.3403C263.84 51.3403 268.42 50.6604 272.89 49.6304C285.82 46.6304 295.79 41.4304 309.06 41.3804C309.06 41.3804 310.56 41.3203 310.29 41.3203C290.86 41.9003 272.88 58.3204 261.88 53.8804C259.627 52.9292 257.722 51.3094 256.42 49.2402Z" fill="#BD8242"/>
</g>
<g style="mix-blend-mode:multiply" opacity="0.3">
<path d="M288.99 11.22L284.99 17.02C283.865 15.5515 283.278 13.7415 283.327 11.8923C283.377 10.0432 284.059 8.26685 285.26 6.86011C285.718 6.39386 286.213 5.96574 286.74 5.58008C286.92 5.52008 287.08 5.43012 287.25 5.37012C287.008 6.32908 286.972 7.32838 287.145 8.30225C287.317 9.27611 287.694 10.2023 288.25 11.02C288.459 10.4393 288.709 9.87455 289 9.33008C288.924 9.95759 288.921 10.5917 288.99 11.22Z" fill="#BD8242"/>
</g>
<g style="mix-blend-mode:multiply" opacity="0.3">
<path d="M316.301 3.33008C316.023 2.88799 315.843 2.39117 315.774 1.87354C315.705 1.3559 315.748 0.829556 315.9 0.330078C316.17 0.230078 316.42 0.08 316.69 0C317.12 2.87 321.55 5.35013 324.01 6.38013C325.452 6.86677 326.952 7.15593 328.47 7.23999C328.567 7.49707 328.681 7.7476 328.811 7.98999L319.9 5.37012C318.507 5.1104 317.24 4.39234 316.301 3.33008Z" fill="#BD8242"/>
</g>
<g style="mix-blend-mode:multiply" opacity="0.3">
<path d="M333.9 10.0203C331.05 9.02026 330.08 5.22038 331.13 2.39038C331.348 1.84484 331.619 1.32222 331.94 0.830322C332.314 0.611506 332.714 0.440174 333.13 0.320312C333.035 0.451724 332.948 0.588542 332.87 0.730225C332.338 1.66899 332.095 2.74381 332.172 3.82007C332.248 4.89633 332.641 5.92617 333.3 6.78027C333.801 5.51716 334.755 4.48622 335.975 3.88892C337.196 3.29161 338.595 3.17088 339.9 3.55029L339.48 3.80029C338.23 4.61029 341.22 11.0804 341.24 12.8804C341.303 12.9372 341.363 12.9972 341.42 13.0603C341.42 13.0603 342 13.0602 342.96 13.2102C342.486 13.3981 341.993 13.5324 341.49 13.6104C340.732 13.7115 339.961 13.58 339.279 13.2336C338.597 12.8873 338.036 12.3421 337.67 11.6702C336.72 9.51017 338.67 6.96022 337.94 4.73022C336.91 5.24888 336.012 5.99457 335.312 6.91089C334.612 7.82721 334.129 8.89032 333.9 10.0203Z" fill="#BD8242"/>
</g>
</g>
<g style="mix-blend-mode:multiply" opacity="0.3">
<path d="M310.85 37.23C304.188 37.1394 297.544 36.5209 290.98 35.3801C297.327 35.8231 303.703 35.232 309.86 33.6301C308.979 33.3119 308.126 32.9204 307.31 32.46C309.014 32.474 310.707 32.1864 312.31 31.6101C308.73 30.6801 304.92 29.6101 302.45 26.8501C306.748 28.9856 311.502 30.0425 316.3 29.9299C316.678 29.9404 317.055 29.8794 317.41 29.75C318.58 28.4 319.87 27.0299 321.26 25.6499L317.4 23.51C319.157 23.5401 320.913 23.46 322.66 23.27C321.664 22.9037 320.782 22.2831 320.1 21.47L322.18 21.2C321.699 21.0541 321.259 20.7972 320.896 20.4497C320.533 20.1022 320.257 19.674 320.09 19.2C321.689 19.3995 323.313 19.2703 324.86 18.8201L318.79 14.49C322.07 16.1114 325.682 16.9467 329.34 16.9299C329.011 16.5988 328.758 16.1995 328.6 15.76C329.769 15.9417 330.963 15.8492 332.09 15.49C330.783 15.1571 329.56 14.5541 328.5 13.72C330.939 14.7737 333.603 15.2033 336.25 14.97C337.91 14.1999 339.624 13.5549 341.38 13.04C341.38 13.04 328.44 19.4901 309.01 41.3601C309.01 41.3601 310.01 39.6601 311.7 37.1201C311.419 37.1749 311.135 37.2115 310.85 37.23Z" fill="#BD8242"/>
</g>
</svg>
