<svg width="293" height="430" viewBox="0 0 293 430" fill="none" xmlns="http://www.w3.org/2000/svg">
<path d="M188.809 458.69C187.309 452.53 180.149 426.55 177.199 421.69C156.539 387.69 110.759 404.45 110.759 404.45L49.5489 416.45C36.9389 441.12 23.7588 467.83 26.2488 492.39C28.7388 516.95 54.4788 855.12 55.2488 877.75C55.3188 879.75 55.0588 884.88 56.2488 886.49C60.6188 892.63 99.6687 892.18 101.439 883.09C112.609 825.84 111.739 537.43 111.739 537.43C117.129 537.43 181.139 853.55 186.109 881.31C186.391 883.103 187.181 884.778 188.387 886.136C189.592 887.494 191.161 888.477 192.909 888.97C205.909 892.84 237.059 894.15 236.109 883.54C235.789 880.03 191.759 470.85 188.809 458.69Z" fill="#36393D"/>
<g style="mix-blend-mode:screen" opacity="0.2">
<path d="M110.76 404.43L92.7603 407.97C90.2303 450.78 87.3904 498.6 87.1404 502.54C86.8204 507.73 49.1402 504.41 26.9102 499.54C29.9602 538.92 54.5203 855.09 55.3303 877.72C55.4003 879.72 55.1403 884.85 56.3303 886.46C60.7003 892.6 99.7503 892.15 101.52 883.06C112.69 825.81 111.82 537.4 111.82 537.4L123.42 515V401.38C119.123 402.042 114.888 403.062 110.76 404.43Z" fill="#2E2B2D"/>
</g>
<path d="M44.7402 412.05C67.8502 415.34 120.96 416.22 142.51 412.3C164.06 408.38 173.61 406.23 173.61 406.23L177.2 421.67C177.2 421.67 182.99 427.67 140.43 430.25C97.8701 432.83 52.2602 430.48 44.7402 427.36C41.3302 425.94 44.7402 412.05 44.7402 412.05Z" fill="#1D1D1B"/>
<path d="M132.82 428.29C132.847 428.877 132.64 429.451 132.244 429.886C131.849 430.321 131.297 430.581 130.709 430.61L106.62 431.35C106.032 431.358 105.466 431.133 105.044 430.725C104.623 430.316 104.38 429.757 104.37 429.17L103.959 415.83C103.932 415.243 104.139 414.669 104.535 414.234C104.93 413.799 105.482 413.538 106.07 413.51L130.159 412.76C130.451 412.756 130.741 412.81 131.011 412.917C131.282 413.025 131.529 413.186 131.738 413.389C131.947 413.592 132.114 413.835 132.229 414.103C132.344 414.371 132.405 414.658 132.409 414.95L132.82 428.29Z" fill="#1D1D1B"/>
<path d="M106.549 432.69C105.674 432.689 104.833 432.353 104.199 431.75C103.856 431.427 103.58 431.038 103.388 430.607C103.196 430.177 103.091 429.712 103.079 429.24L102.659 415.91C102.649 415.437 102.732 414.967 102.903 414.526C103.075 414.085 103.332 413.682 103.659 413.34C103.968 413.01 104.339 412.745 104.751 412.559C105.163 412.374 105.608 412.272 106.059 412.26L130.149 411.51C130.6 411.493 131.051 411.566 131.473 411.726C131.896 411.886 132.282 412.129 132.609 412.44C133.299 413.097 133.701 413.999 133.729 414.95L134.149 428.29C134.167 429.245 133.807 430.168 133.149 430.86C132.841 431.19 132.47 431.456 132.058 431.641C131.646 431.827 131.201 431.928 130.749 431.94L106.659 432.69H106.549ZM130.269 414.06L106.189 414.8C105.964 414.813 105.752 414.914 105.599 415.08C105.509 415.174 105.438 415.285 105.394 415.408C105.349 415.53 105.33 415.66 105.339 415.79L105.749 429.13C105.758 429.392 105.87 429.64 106.059 429.82C106.226 429.972 106.443 430.058 106.669 430.06L130.749 429.31C130.86 429.307 130.97 429.281 131.071 429.235C131.172 429.188 131.264 429.122 131.339 429.04C131.431 428.946 131.502 428.832 131.547 428.708C131.592 428.584 131.609 428.452 131.599 428.32L131.189 414.99C131.186 414.859 131.157 414.73 131.104 414.609C131.051 414.489 130.974 414.381 130.879 414.29C130.798 414.214 130.702 414.154 130.597 414.114C130.492 414.075 130.381 414.057 130.269 414.06Z" fill="#C3B398"/>
<path d="M85.9502 149.89C89.2502 144.73 134.14 148.03 136.64 149.89C139.14 151.75 140.04 168.59 140.04 168.59V193.59L82.7102 188.25L82.4902 167.17C82.4902 167.17 82.7202 154.94 85.9502 149.89Z" fill="#BCBEC0"/>
<path d="M32.5391 186.82C56.2391 178.11 71.5391 173.52 78.6091 170.36C84.4891 167.83 88.0591 158.92 87.5291 152.36C86.6491 141.19 84.3291 109.29 84.3291 109.29L134.169 106.59C134.169 106.59 132.299 146.24 135.989 158.92C137.889 165.43 143.419 167.17 147.989 168.59C163.559 173.4 167.199 181.2 182.769 196.18C195.689 208.62 179.319 304.69 171.769 343.43C168.399 360.74 171.359 400.77 171.359 400.77C126.119 413.97 68.439 410.06 49.229 392.3C49.229 392.3 49.9891 356.44 49.0391 340.12C46.8691 302.36 34.5991 225.27 32.5391 186.82Z" fill="#E6966E"/>
<path d="M81.1298 166.33C84.8798 170.2 95.0196 172.69 101.73 184.16C109.15 196.86 112.94 201.82 112.94 201.82C112.94 201.82 116.52 200.33 123.34 188.3C129.9 176.71 139.63 171.24 146.09 168.16C146.09 168.16 183.35 175.67 192.66 181.16C201.97 186.65 186.57 279.97 186.57 279.97C186.57 279.97 175.41 346.24 173.57 406.18C173.57 406.18 172.11 418.86 129.1 420.41C90.0198 421.83 44.6996 412 44.6996 412C48.4796 385.54 31.5097 271.63 31.5097 271.63C31.5097 271.63 21.8698 181.72 33.6398 178.75C46.5598 175.54 81.1298 166.33 81.1298 166.33Z" fill="#E5E6E7"/>
<path d="M102.47 175.691C104.4 177.541 112.94 201.801 112.94 201.801C108.58 197.21 104.672 192.21 101.27 186.871L82.5098 194.981L85.9697 149.891C85.9697 149.891 100.54 173.851 102.47 175.691Z" fill="#D1D3D4"/>
<path d="M102.469 175.69L82.4691 194.96C82.4691 194.96 73.5892 174.74 75.0192 166.11C75.5192 163.11 85.9291 149.87 85.9291 149.87L102.469 175.69Z" fill="#F1F2F2"/>
<path d="M123.34 173.891C121.49 175.751 112.939 201.821 112.939 201.821C112.939 201.821 121.799 194.241 127.159 185.421L141.61 194.981L136.61 149.891C136.61 149.891 125.18 172.031 123.34 173.891Z" fill="#D1D3D4"/>
<path d="M123.34 173.891L141.61 194.981C141.61 194.981 149.38 177.221 148.02 168.591C147.54 165.591 136.64 149.891 136.64 149.891L123.34 173.891Z" fill="#F1F2F2"/>
<path d="M112.939 204.31L111.74 420.66L109.05 374L108.35 196.18L112.939 204.31Z" fill="#D1D3D4"/>
<path d="M83.1788 493.36C82.7288 500.6 9.35896 491.26 7.10896 484.36C4.85896 477.46 19.9089 390.99 23.4989 379.22C27.2789 366.82 31.7989 265.41 27.8289 253.12C23.8589 240.83 19.9589 182.34 31.5389 178.18C55.4089 169.6 71.4088 163.54 71.4088 163.54L81.1588 187.47L92.849 330.53C92.849 330.53 83.6288 486.12 83.1788 493.36Z" fill="#8C6048"/>
<g style="mix-blend-mode:multiply" opacity="0.5">
<g style="mix-blend-mode:multiply" opacity="0.5">
<path d="M171.27 302.03L171.58 301.97L171.27 302.03Z" fill="#F1F2F2"/>
</g>
</g>
<path d="M187.609 178.8C187.609 178.8 201.239 172.43 213.729 193.59C232.259 224.98 281.949 286.96 291.369 324.43C296.839 346.2 248.049 339.35 241.209 330.43C234.499 321.65 190.269 266.43 190.269 266.43C173.479 237.37 196.849 201.11 187.609 178.8Z" fill="#8C6048"/>
<g style="mix-blend-mode:multiply" opacity="0.2">
<path d="M252.85 318.83C246.15 310.05 198.32 246.83 198.32 246.83C192.53 236.83 189.32 225.43 187.18 213.83C184.18 231.08 180.74 249.83 190.27 266.31C190.27 266.31 234.5 321.54 241.21 330.31C247.92 339.08 293.21 345.54 291.61 326.53C278.06 329.25 257.16 324.46 252.85 318.83Z" fill="#8C6048"/>
</g>
<path d="M175.18 395.839C175.18 395.839 185.381 486.429 185.831 493.669C186.281 500.909 233.92 486.669 236.16 479.759C238.4 472.849 207.99 391.279 204.4 379.499C200.62 367.109 190.341 265.399 194.301 253.109C198.261 240.819 202.181 182.329 190.601 178.169C166.731 169.589 150.72 163.529 150.72 163.529L140.98 187.459L161.76 327.689L175.18 395.839Z" fill="#8C6048"/>
<path d="M79.1092 341.08C77.9811 340.956 76.8415 341.17 75.8348 341.694C74.828 342.218 73.9992 343.028 73.4529 344.023C72.9067 345.018 72.6675 346.152 72.7657 347.283C72.8639 348.413 73.2951 349.489 74.0047 350.375C74.7143 351.261 75.6707 351.916 76.7527 352.258C77.8347 352.601 78.9939 352.615 80.0838 352.299C81.1737 351.982 82.1453 351.35 82.876 350.482C83.6067 349.613 84.0636 348.548 84.189 347.42C84.2724 346.67 84.2072 345.911 83.9969 345.186C83.7866 344.462 83.4355 343.786 82.9637 343.197C82.4918 342.608 81.9085 342.118 81.2471 341.755C80.5857 341.391 79.8593 341.162 79.1092 341.08Z" fill="#A67255"/>
<path d="M75.7305 371.6C74.6001 371.472 73.4573 371.683 72.4466 372.205C71.4359 372.727 70.6028 373.537 70.0528 374.533C69.5027 375.529 69.2604 376.666 69.3565 377.799C69.4525 378.933 69.8825 380.012 70.5923 380.901C71.3021 381.79 72.2599 382.449 73.344 382.793C74.4282 383.138 75.5901 383.153 76.6829 382.837C77.7757 382.521 78.7502 381.888 79.4832 381.018C80.2162 380.148 80.6747 379.08 80.8006 377.95C80.9692 376.436 80.53 374.916 79.5794 373.726C78.6288 372.535 77.2444 371.771 75.7305 371.6Z" fill="#A67255"/>
<path d="M72.3597 401.96C71.2292 401.833 70.0862 402.043 69.0755 402.565C68.0648 403.087 67.2317 403.898 66.6817 404.894C66.1316 405.889 65.8893 407.026 65.9854 408.159C66.0815 409.293 66.5117 410.372 67.2215 411.261C67.9313 412.15 68.8888 412.809 69.9729 413.154C71.0571 413.498 72.2192 413.514 73.312 413.198C74.4049 412.882 75.3794 412.249 76.1123 411.379C76.8453 410.509 77.3036 409.441 77.4295 408.31C77.5981 406.796 77.1589 405.277 76.2083 404.086C75.2577 402.896 73.8736 402.131 72.3597 401.96Z" fill="#A67255"/>
<g style="mix-blend-mode:multiply" opacity="0.2">
<path d="M199.81 349.09C201.55 364.03 203.269 375.79 204.399 379.5C206.399 385.92 216.28 413.07 224.54 437.57C208.23 443.23 185.98 453.95 183.49 470.89C181.09 448.64 177.489 416.52 175.939 402.66C182.799 393.16 193.49 375.16 199.81 349.09Z" fill="#8C6048"/>
</g>
<path d="M156.19 165.87C155.9 163.73 151.19 163.66 140.66 155.77C142.721 163.077 142.831 170.796 140.98 178.16C133.36 208.45 158.2 308.42 158.2 308.42L161.76 327.68L158.5 211.34L149.05 196.24L158.75 192.24C158.75 192.24 156.87 170.69 156.19 165.87Z" fill="#A67255"/>
<path d="M164.88 401.1C168 399.93 186.23 398.33 186.23 398.33L210.84 403.19C207.766 412.273 202.163 420.291 194.69 426.3C189.02 430.7 185.35 432.25 178.63 440.12C175.09 444.27 172.24 446.47 169.47 445.12C168.09 444.46 168.72 442.78 168.72 442.78C168.72 442.78 165.46 446.87 162.72 445.46C161.02 444.57 160.96 443.35 160.96 443.35C160.96 443.35 158.42 445.62 156.51 444.68C154.6 443.74 155.43 440.04 155.43 440.04L159.03 424.78L165.33 412.46C165.33 412.46 159.33 416.57 156.94 417.59C154.55 418.61 149.04 426.83 149.04 426.83C149.04 426.83 146.51 428.64 144.89 427.22C143.27 425.8 146.58 418.78 146.58 418.78C148.107 416.061 149.982 413.553 152.16 411.32C155.1 408.62 161.75 402.25 164.86 401.07L164.88 401.1Z" fill="#E6966E"/>
<g style="mix-blend-mode:multiply" opacity="0.3">
<path d="M194.69 426.3C192.8 427.77 190.801 429.16 188.791 430.67C188.061 431.21 183.171 428.24 181.351 426.88C179.531 425.52 165.96 400.83 166.98 400.59C172.66 399.53 185.9 398.36 186.2 398.33L210.811 403.19C209.167 407.397 207.16 411.452 204.811 415.31C202.039 419.485 198.623 423.194 194.69 426.3Z" fill="#E6966E"/>
</g>
<g style="mix-blend-mode:multiply" opacity="0.3">
<g style="mix-blend-mode:multiply" opacity="0.3">
<path d="M160.141 442.46L165.121 429.78L169.081 422.75L165.94 432.93L160.141 442.46Z" fill="#E6966E"/>
</g>
</g>
<g style="mix-blend-mode:multiply" opacity="0.3">
<g style="mix-blend-mode:multiply" opacity="0.3">
<path d="M168.67 442.969L173.22 432.469L176.93 426.699L174.13 435.149L168.67 442.969Z" fill="#E6966E"/>
</g>
</g>
<path d="M190.05 391.811L183.439 398.431L201.82 419.701L210.84 412.251L190.05 391.811Z" fill="#E5E6E7"/>
<path d="M291.369 324.43C281.799 304.97 264.899 303.22 239.309 327.93C219.159 347.39 203.939 373.42 190.059 391.81C190.059 391.81 204.269 412.81 212.059 417.6C221.889 412.76 256.459 379.45 271.559 364.38C282.759 353.19 295.399 332.63 291.369 324.43Z" fill="#8C6048"/>
<path d="M291.369 324.431C289.369 316.561 285.569 307.581 280.709 298.061C279.275 298.608 278.006 299.513 277.02 300.689C276.035 301.865 275.367 303.273 275.079 304.781C274.339 309.001 276.079 313.241 277.909 317.111C279.739 320.981 281.779 324.971 281.699 329.261C281.589 334.751 278.079 339.491 275.069 344.081C272.059 348.671 269.319 354.221 270.939 359.471C271.369 360.757 272.049 361.947 272.939 362.971C283.739 351.551 295.269 332.301 291.369 324.431Z" fill="#664634"/>
<g style="mix-blend-mode:multiply" opacity="0.2">
<path d="M291.37 324.43C290.765 323.184 290.097 321.969 289.37 320.79C285.37 331.79 269.62 349.42 260.71 358.31C246.71 372.23 216.23 401.68 203.91 409.91C206.84 413.25 209.74 416.15 212.07 417.6C221.9 412.76 256.47 379.45 271.57 364.38C282.76 353.19 295.4 332.63 291.37 324.43Z" fill="#8C6048"/>
</g>
<path d="M146.609 76.2001L147.999 96.5801C148.543 97.1493 149.225 97.5667 149.979 97.7912C150.733 98.0157 151.533 98.0395 152.299 97.8601C155.299 97.4101 158.729 86.3501 158.729 86.3501C158.729 86.3501 161.289 74.4701 156.299 72.0301C150.809 69.3501 146.609 76.2001 146.609 76.2001Z" fill="#E6966E"/>
<path d="M76.8 89.6899L81.6799 109.53C81.3336 110.237 80.808 110.841 80.1552 111.282C79.5024 111.722 78.7454 111.984 77.9599 112.04C74.9599 112.48 68.33 102.94 68.33 102.94C68.33 102.94 62.27 92.3498 66.33 88.5498C70.71 84.3398 76.8 89.6899 76.8 89.6899Z" fill="#F7A379"/>
<path d="M148.211 46.2703C148.211 46.2703 156.701 104.52 152.891 112.27C149.081 120.02 137.891 138.95 132.281 142.82C129.474 144.799 126.288 146.176 122.924 146.864C119.559 147.553 116.089 147.538 112.731 146.82C105.441 145.37 90.4607 132.24 84.5907 126.95C77.3607 120.44 63.2805 54.6403 64.1605 59.7103C64.1605 59.7103 62.7907 26.7603 101.351 20.8403C135.191 15.6903 148.211 46.2703 148.211 46.2703Z" fill="#F7A379"/>
<path d="M72.0391 90.2794C72.0391 90.2794 80.0391 125.789 86.7891 135.079C97.7891 150.299 106.499 155.219 114.449 158.309C118.319 159.819 132.889 157.019 136.089 154.369C143.879 147.919 149.719 140.089 154.209 121.609C157.319 108.819 151.819 69.6895 151.819 69.6895C151.819 69.6895 151.559 104.169 145.699 107.239C138.129 111.189 141.169 103.179 115.459 107.599C92.129 111.599 94.6591 117.039 89.2791 116.659C83.8991 116.279 72.0391 90.2794 72.0391 90.2794ZM99.8191 124.119C99.6066 123.854 99.4514 123.548 99.3635 123.22C99.2757 122.892 99.2571 122.549 99.3088 122.213C99.3606 121.878 99.4815 121.556 99.6641 121.27C99.8466 120.984 100.087 120.738 100.369 120.549C102.669 119.069 107.439 116.829 116.839 115.079C125.199 113.519 130.789 113.959 133.719 114.469C134.06 114.521 134.387 114.644 134.677 114.83C134.968 115.017 135.215 115.263 135.404 115.552C135.593 115.841 135.719 116.166 135.773 116.507C135.827 116.848 135.809 117.196 135.719 117.529C134.569 121.889 130.909 130.619 119.829 132.059C116.089 132.641 112.261 132.211 108.742 130.815C105.224 129.419 102.143 127.107 99.8191 124.119Z" fill="#BD8242"/>
<g style="mix-blend-mode:multiply" opacity="0.3">
<path d="M151.729 73.69C153.109 86.28 154.729 105.69 152.729 114.07C150.179 124.6 147.159 131.61 143.609 136.94C143.339 135.17 142.609 133.41 142.389 131.6C141.96 135.299 140.947 138.908 139.389 142.29C137.885 143.902 136.282 145.419 134.589 146.83C133.719 147.432 132.77 147.91 131.769 148.25C131.843 145.887 131.277 143.547 130.129 141.48C130.184 143.709 129.604 145.907 128.458 147.82C127.933 147.669 127.466 147.362 127.119 146.94C126.749 147.61 126.369 148.28 125.989 148.94C125.303 148.321 124.845 147.49 124.688 146.58C124.558 147.8 124.529 149.02 124.469 150.25C122.198 150.703 119.899 151.003 117.589 151.15C115.537 150.325 113.598 149.243 111.819 147.93C106.819 144.25 102.819 137.93 102.819 137.93C102.819 137.93 106.079 145.15 110.819 149.86C108.492 148.866 106.249 147.689 104.109 146.34C103.029 145.2 101.968 144.03 100.948 142.86L97.5586 138.99C96.6451 138.162 96.0507 137.041 95.8787 135.82C95.8187 136.47 95.7685 137.13 95.7085 137.82L91.7085 132.93C91.4634 133.806 91.4844 134.736 91.7686 135.6C89.4785 133.047 87.3223 130.376 85.3086 127.6C80.7386 121.3 75.5785 102.92 72.7385 91.76C72.3085 90.87 72.0586 90.2999 72.0586 90.2999C72.0586 90.2999 80.0586 125.81 86.8086 135.1C97.8086 150.32 106.519 155.24 114.469 158.33C118.339 159.84 132.909 157.04 136.109 154.39C143.899 147.94 149.739 140.11 154.229 121.63C157.339 108.84 151.839 69.71 151.839 69.71C151.839 69.71 151.799 71.28 151.729 73.69Z" fill="#BD8242"/>
</g>
<path d="M141.03 21.4398C141.189 20.5317 141.269 19.6116 141.27 18.6898C141.27 14.6898 139.21 10.3798 135.46 8.95976C135.187 9.50006 134.779 9.96122 134.277 10.2991C133.774 10.637 133.194 10.8404 132.59 10.8898C133.14 7.61976 130.88 4.37977 127.99 2.75977C125.1 1.13977 120.12 1.06977 116.81 0.759766C117.69 2.92977 114.95 7.50977 112.97 8.75977C112.337 8.18301 111.83 7.48168 111.48 6.69975C110.828 7.39774 110.072 7.99135 109.24 8.45976C108.679 6.67987 107.977 4.94768 107.14 3.27975C107.14 3.27975 106.05 9.33977 93.0801 13.6498C92.3837 12.4113 92.0606 10.9978 92.1499 9.57976C91.3067 9.78848 90.5483 10.2517 89.9775 10.9065C89.4068 11.5613 89.0516 12.376 88.96 13.2398C87.9607 12.5822 86.8027 12.2063 85.6077 12.1517C84.4127 12.0972 83.225 12.3659 82.1699 12.9298C84.1699 12.9998 85.6701 12.8398 86.0901 14.9298C86.0901 14.9298 83.4601 15.3398 82.0901 15.6698C74.2001 17.5098 73.7301 20.9598 67.0901 25.1498L68.96 25.2598L63.76 28.4598C64.1024 28.292 64.4788 28.2048 64.8601 28.2048C65.2414 28.2048 65.6175 28.292 65.96 28.4598C63.6535 30.2091 61.178 31.7233 58.5701 32.9798L63.4199 32.8898C62.0043 34.7468 60.3692 36.4257 58.55 37.8898C59.0823 37.709 59.6624 37.7304 60.1799 37.9498C60.3086 38.9751 60.1421 40.0158 59.7 40.9498C59.7975 40.6022 60.0014 40.2938 60.283 40.0679C60.5645 39.8419 60.9096 39.7097 61.27 39.6898C61.0973 40.9853 60.6203 42.2216 59.8782 43.2975C59.136 44.3733 58.1498 45.2582 57 45.8798C57.7952 45.8388 58.5741 45.6382 59.29 45.2898L56.5 54.8498C56.7603 54.7934 57.0068 54.6857 57.2249 54.5329C57.4429 54.38 57.6282 54.1852 57.77 53.9598C57.95 56.2898 61.1301 64.8398 61.5601 68.8098C61.6801 68.6598 61.7899 68.4598 61.8999 68.3098C64.3145 78.0623 68.1095 87.4201 73.1699 96.0998C73.6199 96.8398 74.72 96.5098 74.72 96.5098C70.34 85.6598 69.6499 70.5098 70.1499 64.5098C70.9299 55.3898 70.41 43.1598 92.98 46.5098C128.81 51.8998 134.54 37.1998 134.54 37.1998C144.83 45.4098 150.92 67.6398 151.6 83.4398C151.6 83.4398 152.6 83.8098 152.69 83.0098C152.91 80.1798 152.3 62.1798 151.39 47.3698C150.71 36.8997 147.45 27.4698 141.03 21.4398Z" fill="#BD8242"/>
<g style="mix-blend-mode:multiply" opacity="0.3">
<g style="mix-blend-mode:multiply" opacity="0.3">
<path d="M111.479 6.68953C110.827 7.38752 110.071 7.98111 109.239 8.44952C108.678 6.66963 107.976 4.93745 107.139 3.26953C107.139 3.26953 107.059 3.52954 106.919 3.89954C107.047 5.12964 106.688 6.36089 105.919 7.32953C104.499 9.35299 102.739 11.1156 100.719 12.5395C104.938 12.1164 108.853 10.155 111.719 7.02953C111.659 6.87953 111.529 6.78953 111.479 6.68953Z" fill="#BD8242"/>
</g>
<g style="mix-blend-mode:multiply" opacity="0.3">
<path d="M138.839 11.6895C138.738 12.4542 138.591 13.2122 138.399 13.9595C137.901 15.4612 137.098 16.8435 136.039 18.0195C133.071 21.6078 129.304 24.4505 125.039 26.3195C129.04 25.908 132.953 24.8791 136.639 23.2695C138.139 22.6695 139.639 22.0095 141.089 21.2695C141.22 20.4159 141.28 19.5529 141.269 18.6895C141.24 16.1543 140.387 13.6975 138.839 11.6895Z" fill="#BD8242"/>
</g>
<g style="mix-blend-mode:multiply" opacity="0.3">
<path d="M135.579 9.00977C135.579 9.00977 135.499 9.00976 135.459 8.93976C135.185 9.48006 134.778 9.94121 134.276 10.2791C133.773 10.617 133.192 10.8204 132.589 10.8698C132.814 9.26309 132.459 7.6289 131.589 6.25977C131.389 6.60977 131.189 6.95977 130.979 7.25977C130.101 8.75719 129.069 10.1582 127.899 11.4398C125.986 13.2323 123.763 14.6622 121.339 15.6598C125.452 15.0949 129.408 13.7037 132.969 11.5698C134.057 10.9715 134.96 10.086 135.579 9.00977Z" fill="#BD8242"/>
</g>
</g>
<g style="mix-blend-mode:multiply" opacity="0.3">
<path d="M134.5 32.7695C134.5 32.7695 128.77 47.4695 92.9301 42.0795C70.3701 38.6795 70.9303 50.9095 70.1103 60.0795C69.9563 62.2527 69.9262 64.4329 70.0202 66.6095C70.0202 65.9095 70.0703 65.1995 70.1103 64.6095C70.8903 55.4895 70.3701 43.2595 92.9401 46.6095C128.77 51.9995 134.5 37.2995 134.5 37.2995C144.79 45.5095 150.88 67.7395 151.56 83.5395V78.9795C150.88 63.2095 144.78 40.9795 134.5 32.7695Z" fill="#BD8242"/>
</g>
<g style="mix-blend-mode:multiply" opacity="0.5">
<path d="M120.009 93.5098C120.009 93.5098 123.199 100.57 122.609 103.51C122.019 106.45 108.139 107.93 106.479 106.57C104.819 105.21 105.339 96.2498 105.339 96.2498C105.339 96.2498 105.689 102.73 107.969 104.1C110.249 105.47 119.169 103.25 120.069 101.53C120.969 99.8098 120.009 93.5098 120.009 93.5098Z" fill="#E6966E"/>
</g>
<path d="M87.3998 82.5305C84.0957 83.6512 81.3242 85.9562 79.62 89.0005C79.62 89.0005 79.3199 89.8305 90.0199 88.7405C98.5699 86.9205 100.79 85.9105 100.65 85.2705C100.27 83.6205 94.5098 80.0405 87.3998 82.5305Z" fill="#F2F0F0"/>
<path d="M93.7199 83.4796C93.5174 82.6538 93.0729 81.9073 92.4435 81.3356C91.8141 80.764 91.0283 80.3933 90.1869 80.271C89.3455 80.1487 88.4867 80.2803 87.7206 80.6491C86.9545 81.0179 86.3161 81.607 85.8869 82.341C85.4576 83.075 85.2572 83.9204 85.3114 84.7689C85.3657 85.6174 85.6721 86.4304 86.1913 87.1038C86.7105 87.7772 87.4187 88.2802 88.2255 88.5484C89.0323 88.8167 89.9009 88.838 90.7199 88.6096C91.794 88.3207 92.7111 87.6203 93.2726 86.6602C93.8341 85.7 93.9947 84.5574 93.7199 83.4796Z" fill="#487CB8"/>
<path d="M92.5202 83.8093C92.2889 83.0574 91.7714 82.4264 91.0793 82.0523C90.3872 81.6782 89.576 81.5909 88.8203 81.8093C88.058 82.0116 87.4061 82.506 87.0056 83.1853C86.6051 83.8647 86.4881 84.6744 86.6801 85.4393C86.8923 86.2137 87.4036 86.8721 88.1013 87.2697C88.7989 87.6673 89.6257 87.7714 90.4001 87.5593C91.1745 87.3471 91.8331 86.836 92.2307 86.1383C92.6282 85.4407 92.7324 84.6137 92.5202 83.8393V83.8093Z" fill="#18100E"/>
<path d="M93.4798 82.2994C93.389 81.9841 93.1772 81.7177 92.8904 81.5584C92.6037 81.3991 92.2653 81.3599 91.9497 81.4494C91.7917 81.4889 91.6432 81.5596 91.513 81.6574C91.3827 81.7551 91.2732 81.878 91.1912 82.0188C91.1092 82.1595 91.0563 82.3152 91.0354 82.4768C91.0146 82.6383 91.0263 82.8024 91.0699 82.9594C91.1649 83.2713 91.378 83.5337 91.6639 83.6906C91.9497 83.8476 92.2857 83.8866 92.5999 83.7994C92.9155 83.7171 93.1854 83.5129 93.3504 83.2316C93.5154 82.9503 93.5619 82.615 93.4798 82.2994Z" fill="#EFECEC"/>
<path d="M87.6091 78.8606C99.7291 76.2306 100.609 85.2706 100.609 85.2706C100.609 85.2706 96.0091 80.0206 87.6091 82.1406C82.4691 83.4406 79.5591 89.0006 79.5591 89.0006C79.5591 89.0006 78.4791 80.8406 87.6091 78.8606Z" fill="#E6966E"/>
<path d="M87.9801 81.2802C98.3701 78.4902 100.65 85.2802 100.65 85.2802C100.65 85.2802 95.3303 80.1002 88.1403 82.6502C81.5803 84.9702 79.6203 89.0102 79.6203 89.0102C79.6203 89.0102 79.0601 83.6902 87.9801 81.2802Z" fill="#412118"/>
<path d="M132.979 74.4906C136.475 74.2567 139.922 75.414 142.569 77.7106C142.569 77.7106 142.569 79.1206 132.899 81.4506C123.539 83.1406 121.699 82.4506 121.609 81.8306C121.369 79.4406 127.029 74.8506 132.979 74.4906Z" fill="#F2F0F0"/>
<path d="M127.43 77.6899C127.321 76.8471 127.466 75.9909 127.846 75.2309C128.226 74.4708 128.824 73.8415 129.564 73.4235C130.304 73.0054 131.152 72.8177 131.999 72.8842C132.846 72.9507 133.654 73.2686 134.32 73.797C134.985 74.3255 135.478 75.0404 135.735 75.8505C135.992 76.6606 136.001 77.5289 135.762 78.3442C135.522 79.1596 135.045 79.885 134.391 80.4276C133.737 80.9701 132.936 81.3052 132.09 81.3899C130.982 81.5138 129.87 81.1942 128.997 80.5009C128.124 79.8077 127.56 78.7971 127.43 77.6899Z" fill="#487CB8"/>
<path d="M128.67 77.5405C128.596 76.9497 128.699 76.3502 128.967 75.8184C129.235 75.2866 129.655 74.8465 130.174 74.5542C130.693 74.2619 131.287 74.1307 131.88 74.1771C132.474 74.2235 133.041 74.4456 133.508 74.815C133.975 75.1843 134.321 75.6844 134.503 76.2513C134.685 76.8183 134.694 77.4266 134.529 77.9988C134.364 78.571 134.033 79.0811 133.577 79.4643C133.121 79.8475 132.562 80.0863 131.97 80.1505C131.187 80.2353 130.403 80.0092 129.786 79.521C129.168 79.0327 128.767 78.3215 128.67 77.5405Z" fill="#18100E"/>
<path d="M133.498 75.6897C133.465 75.3595 133.565 75.0297 133.775 74.7728C133.985 74.5158 134.288 74.3529 134.619 74.3197C134.949 74.2866 135.278 74.386 135.535 74.596C135.792 74.806 135.955 75.1095 135.988 75.4397C136.016 75.7672 135.913 76.0924 135.701 76.3436C135.489 76.5949 135.186 76.7517 134.859 76.7797C134.697 76.7992 134.534 76.7863 134.378 76.7417C134.222 76.6972 134.076 76.622 133.949 76.5205C133.823 76.419 133.718 76.2932 133.64 76.1506C133.563 76.0079 133.515 75.8512 133.498 75.6897Z" fill="#EFECEC"/>
<path d="M131.4 71.2702C119.79 72.7002 121.6 81.8303 121.6 81.8303C121.6 81.8303 124 75.2802 132.6 74.2402C137.85 73.6002 142.6 77.7102 142.6 77.7102C142.6 77.7102 141.47 70.0302 131.4 71.2702Z" fill="#E6966E"/>
<path d="M131.669 73.7602C121.089 75.4602 121.61 81.8302 121.61 81.8302C122.686 79.8742 124.226 78.2127 126.096 76.9921C127.965 75.7714 130.106 75.029 132.33 74.8302C139.26 74.1802 142.57 77.6902 142.57 77.6902C142.57 77.6902 140.959 72.2702 131.669 73.7602Z" fill="#412118"/>
<path d="M79.1685 65.6901C83.2485 64.3701 100.078 64.9001 101.168 65.8201C102.258 66.7401 103.039 71.0401 101.239 71.2701C93.3285 72.2701 85.0486 69.0601 79.3086 70.1901C77.0786 70.6301 72.3984 77.1901 72.3984 77.1901C72.3984 77.1901 75.0885 66.9501 79.1685 65.6901Z" fill="#8B5E3C"/>
<path d="M135.84 58.0299C131.56 58.3799 113.61 67.15 112.97 68.4C112.33 69.65 114.1 73.6999 115.84 73.2099C122.75 71.3099 132.06 64.1099 137.74 62.8499C139.994 62.4329 142.294 62.3118 144.58 62.4899C144.58 62.4899 140.1 57.6899 135.84 58.0299Z" fill="#8B5E3C"/>
<g style="mix-blend-mode:multiply" opacity="0.5">
<path d="M131.71 115.97C118.39 126.1 100.26 120.86 103.22 121.63C101.4 121.16 132.88 115.08 131.71 115.97Z" fill="#E6966E"/>
</g>
<g style="mix-blend-mode:multiply" opacity="0.5">
<path d="M125.769 123.82C119.449 131.58 109.289 125.29 111.709 126.57C110.829 126.11 126.399 123.06 125.769 123.82Z" fill="#E6966E"/>
</g>
<g style="mix-blend-mode:screen" opacity="0.3">
<path d="M147.06 81.4199C146.38 74.4199 139.73 71.3498 131.57 72.9798C123.41 74.6098 117.47 79.4398 118.84 86.3698C120.21 93.2998 128.5 99.5498 136.64 96.9598C144.78 94.3698 147.69 87.9199 147.06 81.4199Z" fill="#E6E7E8"/>
</g>
<g style="mix-blend-mode:screen" opacity="0.3">
<path d="M124.188 88.4896C122.808 81.5696 128.748 76.7296 136.908 75.1096C139.086 74.6558 141.326 74.5847 143.529 74.8996C140.679 72.7296 136.409 72.0196 131.529 72.9796C123.369 74.5996 117.429 79.4396 118.799 86.3696C119.799 91.5296 124.698 96.3196 130.488 97.3696C127.295 95.3609 125.029 92.1672 124.188 88.4896Z" fill="#E6E7E8"/>
</g>
<g style="mix-blend-mode:screen" opacity="0.3">
<path d="M105.729 88.7502C104.359 81.8302 97.0189 79.6302 88.8589 81.2502C80.6989 82.8702 75.7088 88.2501 77.7788 94.9901C79.6788 101.22 84.8789 106.06 93.3389 105.35C101.799 104.64 107.109 95.6902 105.729 88.7502Z" fill="#E6E7E8"/>
</g>
<g style="mix-blend-mode:screen" opacity="0.3">
<path d="M83.5394 97.4303C81.4794 90.6603 86.4595 85.3203 94.6295 83.7003C97.2367 83.1439 99.9224 83.0592 102.559 83.4503C99.3694 80.8403 94.3195 80.1703 88.8595 81.2503C80.6895 82.8803 75.7094 88.2503 77.7794 94.9903C78.4635 97.5461 79.8614 99.8543 81.8094 101.645C83.7575 103.435 86.175 104.634 88.7794 105.1C86.2652 103.162 84.4305 100.477 83.5394 97.4303Z" fill="#E6E7E8"/>
</g>
<path d="M142.059 72.3105C133.729 70.1605 125.819 71.6305 118.279 77.9505C117.898 78.2619 117.458 78.4932 116.985 78.6307C116.513 78.7681 116.017 78.8089 115.529 78.7505C112.313 78.2792 109.031 78.8876 106.198 80.4805C105.754 80.7531 105.259 80.9318 104.743 81.0058C104.227 81.0797 103.701 81.0473 103.198 80.9105C93.8685 78.0105 85.9486 79.6505 79.0986 84.7905C76.9026 87.1123 74.0353 88.6893 70.8984 89.3005L71.6685 92.6205C74.2585 92.6205 75.8385 93.9005 76.4885 97.0305C76.8831 97.1522 77.3016 97.1739 77.7065 97.0936C78.1115 97.0133 78.4903 96.8335 78.8086 96.5705C77.1486 89.3505 80.1386 84.3105 89.0586 82.0405C97.4486 80.0405 102.988 82.2105 105.458 88.8205C106.378 89.4905 107.639 89.5305 108.129 88.4305C108.289 88.1756 108.384 87.8856 108.406 87.5855C108.428 87.2855 108.378 86.9845 108.257 86.7086C108.137 86.4328 107.951 86.1905 107.716 86.0026C107.481 85.8147 107.204 85.687 106.908 85.6305C106.785 85.2895 106.732 84.9271 106.752 84.5651C106.773 84.2031 106.866 83.8489 107.027 83.5239C107.187 83.1988 107.412 82.9096 107.687 82.6736C107.963 82.4376 108.283 82.2597 108.629 82.1505C110.243 81.3839 112.025 81.0398 113.809 81.1505C115.419 81.2305 116.569 81.9705 116.739 83.7005C116.486 83.8652 116.277 84.0893 116.13 84.3532C115.984 84.6171 115.904 84.9129 115.898 85.2146C115.892 85.5164 115.96 85.815 116.096 86.0845C116.232 86.354 116.432 86.5861 116.678 86.7605C117.558 87.5905 118.679 87.0705 119.289 86.1005C119.049 79.0505 123.339 74.9405 131.849 73.5605C140.959 72.2405 145.649 75.7605 146.849 83.0605C147.243 83.1795 147.661 83.1998 148.066 83.1196C148.47 83.0394 148.849 82.8612 149.168 82.6005C148.568 79.4605 149.518 77.6005 151.928 76.6705L151.369 73.3105C148.237 73.9604 144.981 73.6106 142.059 72.3105Z" fill="#3F2216"/>
<path d="M105.529 88.4103C106.289 98.3603 100.339 103.41 95.0193 104.69C91.7246 105.476 88.258 105.065 85.2378 103.532C82.2176 101.999 79.8401 99.4434 78.5293 96.3203L77.7793 96.6203C79.2487 100.058 81.928 102.836 85.3093 104.43C88.2085 105.769 91.4575 106.154 94.5894 105.53L95.2092 105.4C98.5408 104.604 101.476 102.638 103.479 99.8603C105.772 96.4748 106.785 92.3845 106.339 88.3203L105.529 88.4103Z" fill="#3F2216"/>
<path d="M147.029 82.8906C147.011 86.273 145.797 89.54 143.6 92.1119C141.403 94.6839 138.367 96.3946 135.029 96.9406C129.619 97.7806 122.199 95.4006 119.099 85.9406L118.309 86.1806C119.456 90.105 121.958 93.4958 125.369 95.7506C128.286 97.5407 131.748 98.2288 135.129 97.6906L135.749 97.5806C139.156 96.9165 142.227 95.0913 144.439 92.4162C146.651 89.7411 147.866 86.3817 147.879 82.9106L147.029 82.8906Z" fill="#3F2216"/>
<path d="M73.8889 90.1L72.4487 90.39C72.3705 90.4084 72.2884 90.3957 72.2194 90.3547C72.1504 90.3137 72.1 90.2475 72.0788 90.17C72.0717 90.1298 72.0728 90.0886 72.0822 90.0489C72.0916 90.0091 72.1089 89.9718 72.1332 89.939C72.1576 89.9062 72.1885 89.8788 72.2238 89.8583C72.2591 89.8379 72.2983 89.8248 72.3388 89.82L73.7788 89.53C73.8582 89.5113 73.9418 89.5237 74.0124 89.5646C74.083 89.6054 74.1353 89.6718 74.1586 89.75C74.1642 89.7908 74.1619 89.8322 74.1513 89.872C74.1407 89.9117 74.1222 89.949 74.0971 89.9816C74.072 90.0142 74.0406 90.0414 74.0048 90.0617C73.9691 90.0821 73.9297 90.0951 73.8889 90.1Z" fill="#B3B3B3"/>
<path d="M150.38 74.8201L148.94 75.1001C148.9 75.1107 148.859 75.1134 148.819 75.108C148.778 75.1027 148.739 75.0894 148.704 75.069C148.669 75.0485 148.638 75.0213 148.613 74.9889C148.588 74.9565 148.57 74.9195 148.56 74.8801C148.548 74.7993 148.569 74.7172 148.618 74.6517C148.667 74.5861 148.739 74.5424 148.82 74.5301L150.27 74.2401C150.349 74.2221 150.433 74.2361 150.502 74.2791C150.571 74.3222 150.621 74.3908 150.64 74.4701C150.649 74.5505 150.627 74.6313 150.579 74.6962C150.53 74.7612 150.459 74.8054 150.38 74.8201Z" fill="#B3B3B3"/>
<path d="M65.9404 165.87C66.2404 163.73 70.9405 163.66 81.4805 155.77C79.4195 163.077 79.3091 170.796 81.1604 178.16C88.7804 208.45 94.1604 311.48 94.1604 311.48L92.8506 332.69L63.6406 211.38L73.0906 196.28L63.3906 192.28C63.3906 192.28 65.2704 170.69 65.9404 165.87Z" fill="#A67255"/>
<path d="M67.15 261.91C66.38 236.73 26.15 183.22 34.15 177.25C34.15 177.25 7.20022 177.9 1.58022 201.51C-4.21978 225.83 23.8202 295.98 39.5802 306.72C53.5802 316.28 70.5801 307.72 72.9601 300.3C78.5101 282.79 67.15 261.91 67.15 261.91Z" fill="#8C6048"/>
<path d="M72.9905 300.299C75.2905 293.009 74.6506 285.159 73.1306 278.449C72.1128 278.617 71.1098 278.865 70.1306 279.189C64.3606 281.189 59.2405 284.969 53.2605 286.189C47.9405 287.189 42.3505 286.119 37.0505 287.239C35.3114 287.607 33.6668 288.33 32.2197 289.362C30.7726 290.394 29.5543 291.714 28.6406 293.239C29.5106 294.669 30.3705 295.979 31.2205 297.239C31.4405 297.569 31.6706 297.889 31.8906 298.239C32.6006 299.239 33.3005 300.239 34.0005 301.099C34.4605 301.669 34.9006 302.189 35.3506 302.699C35.8006 303.209 36.3506 303.869 36.8306 304.359C37.6843 305.253 38.6183 306.066 39.6206 306.789C53.6306 316.279 70.6605 307.689 72.9905 300.299Z" fill="#664634"/>
<g style="mix-blend-mode:multiply" opacity="0.2">
<path d="M67.1484 261.91C66.8984 253.65 62.4086 242.36 56.7786 230.7C53.8886 224.7 43.7786 249.23 41.7786 267.95C41.7786 267.95 68.8586 277.72 63.3386 295.23C60.9986 302.65 48.8687 305.71 37.8787 293.47C29.3087 283.91 8.95859 245.59 1.30859 216.59C4.62859 247.11 26.3786 297.73 39.5586 306.72C53.5586 316.28 70.5585 307.72 72.9385 300.3C78.5085 282.79 67.1484 261.91 67.1484 261.91Z" fill="#8C6048"/>
</g>
<path d="M96.7695 182.94C99.4395 180.3 115.129 146.17 117.669 144.01C120.209 141.85 134.29 132.66 136.83 131.31C139.37 129.96 139.76 130.74 141.83 131.66C142.442 131.988 142.959 132.47 143.328 133.059C143.698 133.648 143.907 134.322 143.937 135.017C143.966 135.711 143.814 136.401 143.495 137.019C143.176 137.637 142.702 138.161 142.12 138.54C139.12 140.54 139.12 141.63 139.12 141.63C139.12 141.63 141.98 139.32 144.3 142.76C146.19 145.53 146.04 147.81 145.13 148.6C144.22 149.39 141.38 151.17 141.38 151.17C141.38 151.17 145.08 148.59 145.83 150.31C147.39 153.91 147.419 157.55 146.149 158.64C145.329 159.34 143.439 160.83 143.439 160.83C143.439 160.83 145.69 159.43 146.31 161.75C147.25 165.3 147.02 167.22 143.53 169.88C140.04 172.54 132.709 178.06 128.729 180.57C124.749 183.08 119.469 185.5 116.909 188.67C115.729 190.11 112.689 194.78 112.689 194.78L96.7695 182.94Z" fill="#F7A379"/>
<g style="mix-blend-mode:multiply" opacity="0.3">
<g style="mix-blend-mode:multiply" opacity="0.3">
<path d="M143.449 160.83C143.449 160.83 145.339 159.34 146.159 158.64C147.429 157.55 147.399 153.91 145.839 150.31C145.289 149.05 143.149 150.1 142.059 150.75C143.123 150.088 144.151 149.37 145.139 148.6C145.859 147.97 146.079 146.4 145.209 144.38C144.349 147.45 137.979 151.62 135.049 154.59C138.649 154.86 141.469 151.66 144.899 151.05C148.509 157.69 141.189 160.92 136.449 163.89C138.319 164.01 143.169 160.04 144.839 162.05C145.759 163.15 144.379 165.88 143.679 166.81C142.749 168.03 140.069 172.55 143.539 169.88C147.009 167.21 147.259 165.3 146.319 161.75C145.699 159.43 143.449 160.83 143.449 160.83Z" fill="#F7A379"/>
</g>
<g style="mix-blend-mode:multiply" opacity="0.3">
<path d="M143.859 134.29C142.939 137.02 141.409 137.35 139.159 139.36C137.059 141.25 134.069 142.89 132.469 145.2C134.909 145.89 139.789 141.68 142.799 141.28C142.216 140.986 141.563 140.864 140.913 140.926C140.264 140.987 139.645 141.232 139.129 141.63C139.129 141.63 139.129 140.55 142.129 138.54C142.833 138.109 143.38 137.464 143.692 136.699C144.003 135.934 144.062 135.09 143.859 134.29Z" fill="#F7A379"/>
</g>
</g>
<g style="mix-blend-mode:multiply" opacity="0.15">
<path d="M139.129 141.63C139.129 141.63 139.039 141.45 139.379 141.04C136.875 141.927 134.516 143.18 132.379 144.76C129.999 146.53 128.589 148.65 125.859 150.04C132.099 150.04 129.409 156.81 127.569 158.27C130.969 157.43 136.059 162.2 130.569 166.99C133.449 167.31 134.219 170.72 133.699 172.64C132.809 175.86 130.299 178.81 127.929 180.99V181.08C128.219 180.92 128.499 180.74 128.769 180.57C132.769 178.06 140.099 172.57 143.569 169.88C147.039 167.19 147.289 165.3 146.349 161.75C145.729 159.43 143.479 160.83 143.479 160.83C143.479 160.83 145.369 159.34 146.189 158.64C147.459 157.55 147.429 153.91 145.869 150.31C145.319 149.05 143.179 150.1 142.089 150.75C143.153 150.088 144.181 149.371 145.169 148.6C146.079 147.81 146.229 145.53 144.339 142.76C141.989 139.32 139.129 141.63 139.129 141.63Z" fill="#F7A379"/>
</g>
<path d="M117.6 146.94C111.48 139.4 118.43 130.16 118.26 126.79C118 121.65 114.9 119.11 113.93 122.15C112.96 125.19 106.82 135.82 106.66 138.31C106.5 140.8 101.8 153.68 103.44 159.8C105.08 165.92 95.1602 183.61 95.1602 183.61L104.98 175.19L117.6 146.94Z" fill="#F7A379"/>
<path d="M95.7988 180.19L100.159 171.92L125.919 183.19L121.459 194.01L95.7988 180.19Z" fill="#E5E6E7"/>
<path d="M95.1406 180.189C81.3906 200.909 60.5904 225.549 47.6904 253.249C31.3004 288.439 38.1004 305.759 59.9604 309.519C69.1804 311.109 85.4204 290.989 92.9604 275.459C103.11 254.539 127.08 206.969 127.23 196.079C123.94 191.479 95.1406 180.189 95.1406 180.189Z" fill="#8C6048"/>
<path d="M87.2686 285.429C87.098 284.624 86.8152 283.846 86.4285 283.119C83.4985 277.779 75.8486 277.199 70.0886 279.189C64.3286 281.179 59.1985 284.969 53.2185 286.189C48.4385 287.129 43.4584 286.399 38.6484 287.039C39.1184 300.039 46.7685 307.289 59.9285 309.559C67.2685 310.779 78.9986 298.369 87.2686 285.429Z" fill="#664634"/>
<g style="mix-blend-mode:multiply" opacity="0.2">
<path d="M122.649 192.689C119.449 207.449 98.2188 249.689 88.8188 269.039C81.2888 284.569 65.0488 304.689 55.8188 303.099C49.2188 301.969 44.0089 299.569 40.3789 295.839C43.3789 303.379 50.1387 307.839 59.9487 309.519C69.1687 311.109 85.4087 290.989 92.9487 275.459C103.099 254.539 127.069 206.969 127.219 196.079C125.903 194.693 124.357 193.546 122.649 192.689Z" fill="#8C6048"/>
</g>
</svg>
