<svg width="340" height="421" viewBox="0 0 340 421" fill="none" xmlns="http://www.w3.org/2000/svg">
<path d="M89.427 451.55C103.277 357.96 177.677 404.5 228.687 409.34C280.257 475.97 217.067 793.89 222.957 870.64C229.437 889.95 180.447 885.06 176.797 875.98C165.627 818.73 166.497 530.32 166.497 530.32C155.577 534.95 103.577 857.48 85.3371 881.87C72.3371 885.73 41.1769 887.04 42.1369 876.43C42.4469 872.89 86.477 463.71 89.427 451.55Z" fill="#36393D"/>
<g style="mix-blend-mode:screen" opacity="0.2">
<path d="M167.487 397.29L185.487 400.83C197.687 495.96 163.667 508.98 251.347 492.43C248.287 531.81 223.727 847.98 222.917 870.61C229.417 889.93 180.408 885.02 176.768 875.95C165.598 818.7 166.467 530.29 166.467 530.29L154.867 507.89V394.24C159.151 394.906 163.372 395.926 167.487 397.29Z" fill="#2E2B2D"/>
</g>
<path d="M233.497 404.91C202.497 410.53 128.327 407.28 104.627 399.09L101.047 414.55C101.047 414.55 95.267 420.55 137.817 423.13C180.367 425.71 225.997 423.36 233.507 420.24C236.907 418.8 233.497 404.91 233.497 404.91Z" fill="#1D1D1B"/>
<path d="M145.416 421.15C144.266 425.76 169.886 423.15 171.616 424.21C172.203 424.218 172.77 423.993 173.191 423.585C173.613 423.176 173.856 422.617 173.866 422.03C173.106 420.03 176.416 406.14 172.166 406.37L148.076 405.62C143.886 405.1 146.236 419.21 145.416 421.15Z" fill="#1D1D1B"/>
<path d="M171.687 425.55H171.577L170.957 425.37C170.427 425.23 167.117 425.28 164.197 425.37C153.987 425.52 146.537 425.44 144.617 423.02C144.383 422.729 144.22 422.388 144.14 422.024C144.06 421.659 144.066 421.281 144.157 420.92L144.217 420.74C144.327 419.385 144.327 418.024 144.217 416.67C144.047 411.18 144.067 406.84 145.947 405.13C146.243 404.849 146.6 404.639 146.99 404.518C147.38 404.397 147.793 404.366 148.197 404.43L172.197 405.17C172.587 405.154 172.976 405.222 173.339 405.368C173.701 405.515 174.027 405.737 174.297 406.02C176.047 407.84 175.797 412.1 175.297 417.48C175.106 418.871 175.036 420.276 175.087 421.68L175.167 422.15C175.11 423.062 174.71 423.92 174.047 424.55C173.42 425.176 172.574 425.535 171.687 425.55ZM167.977 422.69C169.263 422.617 170.553 422.704 171.817 422.95C171.984 422.92 172.138 422.84 172.257 422.72C172.415 422.579 172.521 422.388 172.557 422.18C172.398 420.513 172.451 418.833 172.717 417.18C172.997 414.27 173.507 408.87 172.447 407.76L148.047 406.95C146.587 408.03 146.757 413.56 146.847 416.53C147.004 418.159 146.958 419.802 146.707 421.42C148.147 422.96 159.367 422.79 164.157 422.72C165.707 422.67 166.967 422.65 167.977 422.65V422.69Z" fill="#C3B398"/>
<path d="M192.286 142.75C188.986 137.59 144.096 140.89 141.596 142.75C136.066 154.68 138.906 174.56 138.196 186.45L195.526 181.11C194.826 168.55 198.256 156.8 192.286 142.75Z" fill="#BCBEC0"/>
<path d="M245.696 179.68C177.236 160.11 190.566 155.16 193.906 102.15L144.046 99.4497C142.116 102.65 152.297 147.17 130.207 161.45C115.617 170.88 121.346 327.36 106.826 393.63C152.066 406.83 209.757 402.92 228.957 385.16C224.507 333.67 241.916 235.32 245.696 179.68Z" fill="#E6966E"/>
<path d="M197.107 159.19C187.707 161.13 167.277 189.44 165.297 194.68C161.997 191.97 140.507 159.91 132.157 161.02C132.157 161.02 100.217 183.5 90.8967 189.02C83.1867 281.15 102.147 276.29 104.627 399.02C104.627 399.02 106.096 411.7 149.096 413.25C188.176 414.67 233.497 404.84 233.497 404.84C228.667 317.47 264.847 242 244.567 171.59C231.677 168.4 197.107 159.19 197.107 159.19Z" fill="#E5E6E7"/>
<path d="M175.767 168.55C173.837 170.4 165.297 194.66 165.297 194.66C169.668 190.067 173.583 185.06 176.987 179.71L195.747 187.82L192.287 142.73C192.287 142.73 177.697 166.71 175.767 168.55Z" fill="#D1D3D4"/>
<path d="M175.768 168.55L195.768 187.82C201.698 174.11 209.207 158.38 192.307 142.73L175.768 168.55Z" fill="#F1F2F2"/>
<path d="M154.897 166.75C156.747 168.61 165.297 194.68 165.297 194.68C165.297 194.68 156.437 187.1 151.077 178.28L136.627 187.84L141.627 142.75C141.627 142.75 153.047 164.89 154.897 166.75Z" fill="#D1D3D4"/>
<path d="M154.896 166.75L136.626 187.84C129.096 171.84 126.786 159.59 141.626 142.75L154.896 166.75Z" fill="#F1F2F2"/>
<path d="M165.297 197.17L166.497 413.52C170.307 383.24 169.567 222.84 169.887 189.04L165.297 197.17Z" fill="#D1D3D4"/>
<path d="M195.047 486.22C195.497 493.46 268.877 484.12 271.117 477.22C273.357 470.32 258.328 383.85 254.728 372.08C250.948 359.68 246.427 258.27 250.397 245.98C254.367 233.69 258.277 175.2 246.688 171.04C222.817 162.46 206.817 156.4 206.817 156.4L197.047 180.32L185.367 323.38C185.367 323.38 194.607 478.98 195.047 486.22Z" fill="#8C6048"/>
<path d="M212.296 158.73C212.006 156.59 207.296 156.52 196.756 148.63C196.926 195.86 178.596 301.01 185.396 325.51L214.606 204.2L205.146 189.1L214.846 185.1C214.846 185.1 212.966 163.55 212.296 158.73Z" fill="#A67255"/>
<path d="M244.046 170.11C240.296 173.11 241.656 237.11 249.176 256.84C269.236 232.51 286.856 249.59 327.406 223.84C352.726 207.72 247.106 156.39 244.046 170.11Z" fill="#8C6048"/>
<g style="mix-blend-mode:multiply" opacity="0.2">
<path d="M320.216 201.73C320.616 204.58 319.496 207.09 316.396 209.07C275.836 234.84 258.226 217.77 238.166 242.07C237.256 261.32 244.656 303.27 250.856 333.28C249.296 306.9 248.356 274.14 249.166 256.81C269.236 232.5 286.846 249.56 327.396 223.81C335.236 218.84 330.526 210.49 320.216 201.73Z" fill="#8C6048"/>
</g>
<path d="M68.046 184.33C74.856 206.79 73.046 246.13 78.276 278.33C78.276 278.33 53.496 326.04 48.756 335.89C44.016 345.74 -2.52374 361.43 0.286256 342.64C3.06626 324.04 28.576 250.52 42.566 210.02C50.346 187.31 68.046 184.33 68.046 184.33Z" fill="#8C6048"/>
<g style="mix-blend-mode:multiply" opacity="0.2">
<path d="M70.5074 238.27C70.5074 238.27 48.6774 315.39 37.7574 315.89C19.0874 316.73 10.5975 326.36 0.607519 340.45C0.457519 341.22 0.337401 341.95 0.237401 342.59C-2.5726 361.38 43.9776 345.72 48.7076 335.84C53.4376 325.96 78.2276 278.28 78.2276 278.28C74.7976 257.34 74.3575 227.17 72.6075 209.97C70.2475 219.46 68.9874 229.03 70.5074 238.27Z" fill="#8C6048"/>
</g>
<g style="mix-blend-mode:multiply" opacity="0.2">
<path d="M89.4268 451.55C88.8568 453.93 86.7167 471.45 83.6367 498.07C106.167 504.15 143.537 509.62 143.857 504.49C143.947 502.99 144.687 495.88 145.787 485.49L194.157 417.59C162.797 413.8 97.2568 398.63 89.4268 451.55Z" fill="#36393D"/>
</g>
<path d="M150.857 354.39C150.857 354.39 135.277 494.21 134.857 501.45C134.437 508.69 60.2371 494.84 57.9871 487.93C55.7371 481.02 73.7874 397.39 73.7674 385.08C73.7474 372.77 71.9374 273.47 68.7674 245.78C67.2774 232.96 55.8572 185.85 68.0672 184.33C80.2772 182.81 113.217 173.15 113.217 173.15L131.417 212.92L150.857 354.39Z" fill="#8C6048"/>
<path d="M113.147 173.15C113.087 172.09 123.287 163.35 133.777 156.25C133.777 156.25 127.197 170.98 130.417 183.25C138.367 213.45 151.577 348.82 150.857 354.41C150.637 356.09 114.636 218.97 114.636 218.97L123.917 203.77L114.177 199.84C114.177 199.84 113.407 178.03 113.147 173.15Z" fill="#A67255"/>
<path d="M135.786 341.48C134.664 341.311 133.517 341.478 132.49 341.961C131.463 342.444 130.602 343.22 130.016 344.192C129.43 345.164 129.145 346.288 129.198 347.422C129.25 348.555 129.638 349.648 130.311 350.561C130.984 351.475 131.913 352.169 132.98 352.554C134.048 352.94 135.206 353.001 136.307 352.729C137.409 352.457 138.406 351.864 139.171 351.026C139.936 350.188 140.435 349.142 140.606 348.02C140.72 347.274 140.685 346.513 140.504 345.78C140.323 345.048 140 344.358 139.552 343.751C139.104 343.143 138.542 342.63 137.895 342.24C137.249 341.851 136.533 341.592 135.786 341.48Z" fill="#A67255"/>
<path d="M131.198 371.84C130.073 371.669 128.923 371.835 127.893 372.317C126.863 372.8 125.999 373.578 125.41 374.551C124.822 375.525 124.536 376.652 124.588 377.788C124.64 378.924 125.028 380.02 125.703 380.936C126.378 381.852 127.31 382.547 128.38 382.933C129.45 383.319 130.611 383.379 131.715 383.106C132.819 382.832 133.818 382.237 134.584 381.396C135.35 380.555 135.849 379.505 136.018 378.38C136.132 377.634 136.097 376.873 135.916 376.14C135.735 375.408 135.412 374.718 134.964 374.111C134.516 373.503 133.954 372.99 133.307 372.6C132.661 372.211 131.944 371.952 131.198 371.84Z" fill="#A67255"/>
<path d="M126.626 402.04C125.504 401.871 124.356 402.038 123.329 402.521C122.302 403.004 121.441 403.78 120.855 404.752C120.269 405.724 119.985 406.848 120.037 407.981C120.09 409.115 120.477 410.207 121.15 411.121C121.823 412.035 122.753 412.728 123.82 413.114C124.887 413.5 126.045 413.56 127.147 413.288C128.249 413.016 129.245 412.424 130.01 411.586C130.775 410.748 131.275 409.702 131.446 408.58C131.559 407.834 131.525 407.073 131.344 406.34C131.163 405.607 130.84 404.918 130.392 404.31C129.944 403.703 129.381 403.189 128.735 402.8C128.088 402.41 127.372 402.152 126.626 402.04Z" fill="#A67255"/>
<path d="M137.447 475.55L79.1572 423.76C78.3784 423.05 77.9112 422.062 77.8569 421.01C77.8026 419.957 78.1655 418.926 78.8671 418.14L160.867 325.8C161.564 325.011 162.544 324.529 163.594 324.458C164.644 324.387 165.68 324.732 166.477 325.42L224.777 377.22C225.553 377.929 226.018 378.916 226.073 379.965C226.127 381.015 225.766 382.044 225.067 382.83L143.067 475.17C142.727 475.57 142.311 475.898 141.842 476.134C141.373 476.371 140.861 476.511 140.337 476.546C139.813 476.582 139.288 476.512 138.791 476.341C138.295 476.17 137.838 475.901 137.447 475.55Z" fill="#F5C424"/>
<path d="M120.157 363.38C116.667 363.51 99.6069 369.38 99.6069 369.38L81.0469 384.24C81.0469 384.24 93.3069 395.92 110.047 400.16C117.857 402.16 122.047 402.16 133.047 407.06C138.817 409.66 142.737 410.64 144.327 408.22C145.127 407.01 143.487 405.62 143.487 405.62C143.487 405.62 148.977 408.28 150.487 405.79C150.761 405.385 150.924 404.914 150.957 404.426C150.99 403.937 150.894 403.449 150.677 403.01C150.677 403.01 154.367 404.18 155.447 402.48C156.527 400.78 153.447 397.48 153.447 397.48L140.447 384.08L127.047 374.68C127.047 374.68 134.947 376.23 137.717 376.25C140.487 376.27 150.597 382.02 150.597 382.02C150.597 382.02 153.977 382.75 154.497 380.7C155.017 378.65 147.587 373.16 147.587 373.16C144.549 371.151 141.303 369.475 137.907 368.16C133.587 366.73 123.657 363.23 120.157 363.36V363.38Z" fill="#E6966E"/>
<g style="mix-blend-mode:multiply" opacity="0.3">
<path d="M110.097 400.16C113.657 401.06 117.267 401.73 121.097 402.75C121.786 402.502 122.352 401.997 122.677 401.34C123.127 399.88 121.457 397.34 122.177 395.26C122.897 393.18 126.037 393.08 126.627 390.59C127.507 386.87 121.237 384.49 122.727 382C123.657 380.44 125.497 380 125.527 376.69C125.557 373.38 122.687 373.4 122.407 371.25C122.127 369.1 127.127 366.39 122.337 363.61C121.802 363.51 121.26 363.447 120.717 363.42C119.793 363.457 118.873 363.567 117.967 363.75C112.297 365.03 99.8967 369.32 99.6167 369.41L81.0469 384.24C85.1954 387.639 89.5724 390.75 94.147 393.55C99.1437 396.458 104.508 398.681 110.097 400.16Z" fill="#E6966E"/>
</g>
<g style="mix-blend-mode:multiply" opacity="0.3">
<g style="mix-blend-mode:multiply" opacity="0.3">
<path d="M150.858 401.77L138.338 391.45L130.348 386.21L139.638 394.85L150.858 401.77Z" fill="#E6966E"/>
</g>
</g>
<g style="mix-blend-mode:multiply" opacity="0.3">
<g style="mix-blend-mode:multiply" opacity="0.3">
<path d="M143.667 405.76L132.946 397.39L125.977 393.28L133.856 400.37L143.667 405.76Z" fill="#E6966E"/>
</g>
</g>
<path d="M104.986 367.61L89.1963 393.99L73.7363 385.08L94.2866 363.94L104.986 367.61Z" fill="#E5E6E7"/>
<path d="M105.806 366.55C105.806 366.55 65.2463 341.14 47.8063 330.85C22.6463 316 9.97659 322.13 0.896589 340.77C-2.93341 348.63 6.06671 362.32 17.2667 368.93C31.9967 377.61 70.4965 390.67 77.3165 393.93C77.3265 392.82 96.3763 379.55 105.806 366.55Z" fill="#8C6048"/>
<g style="mix-blend-mode:multiply" opacity="0.2">
<path d="M87.4462 385.19C69.4462 376.11 38.5965 364.72 27.2065 358C19.7365 353.59 9.75626 343.11 4.75626 334C3.34442 336.19 2.05589 338.457 0.896397 340.79C-2.8636 348.68 6.06651 362.34 17.2665 368.95C31.9965 377.63 70.4963 390.69 77.3163 393.95C77.3163 393.39 81.7862 390 87.4462 385.19Z" fill="#8C6048"/>
</g>
<path d="M23.2565 372.07C26.8065 368.58 21.2567 361.55 18.9967 357.7C13.8467 349.06 7.38632 342.32 1.36632 339.85C1.21632 340.15 1.04659 340.43 0.896589 340.75C-2.93341 348.61 6.06671 362.3 17.2667 368.9C18.9667 369.91 21.0465 370.97 23.2565 372.07Z" fill="#664634"/>
<path d="M200.507 79.6397L198.107 99.9197C198.535 100.583 199.13 101.121 199.833 101.481C200.535 101.841 201.319 102.01 202.107 101.97C205.107 102.09 210.547 91.8597 210.547 91.8597C210.547 91.8597 215.267 80.6597 210.807 77.3297C205.907 73.6797 200.507 79.6397 200.507 79.6397Z" fill="#E6966E"/>
<path d="M129.416 79.9296L130.537 100.33C130.066 100.961 129.437 101.457 128.714 101.77C127.991 102.082 127.199 102.199 126.416 102.11C123.416 101.99 118.636 91.3795 118.636 91.3795C118.636 91.3795 114.636 79.8596 119.296 76.8696C124.406 73.5496 129.416 79.9296 129.416 79.9296Z" fill="#F7A379"/>
<path d="M207.617 50.55C207.617 50.55 205.177 109.36 199.997 116.3C194.817 123.24 180.317 139.74 174.097 142.51C170.965 143.939 167.573 144.706 164.131 144.762C160.69 144.819 157.273 144.165 154.097 142.84C147.197 140.06 134.907 124.39 130.097 118.1C124.197 110.37 122.527 43.1 122.467 48.24C122.467 48.24 127.217 15.62 166.207 16.93C200.487 18.05 207.617 50.55 207.617 50.55Z" fill="#F7A379"/>
<path d="M124.617 79.68C124.617 79.68 125.927 116.06 130.827 126.44C138.827 143.44 146.468 149.88 153.708 154.38C157.228 156.58 172.068 156.52 175.708 154.51C184.548 149.62 191.707 143 199.577 125.67C204.997 113.67 206.827 74.21 206.827 74.21C206.827 74.21 200.197 108.04 193.827 109.97C185.657 112.46 190.128 105.15 164.038 104.73C140.368 104.35 141.857 110.16 136.637 108.79C131.417 107.42 124.617 79.68 124.617 79.68ZM145.617 118.08C145.455 117.78 145.358 117.45 145.331 117.111C145.304 116.772 145.349 116.43 145.462 116.109C145.575 115.788 145.754 115.494 145.987 115.246C146.221 114.998 146.504 114.802 146.817 114.67C149.347 113.67 154.458 112.32 164.018 112.34C172.518 112.34 177.937 113.82 180.717 114.86C181.038 114.98 181.331 115.166 181.576 115.405C181.821 115.645 182.013 115.933 182.141 116.251C182.269 116.569 182.33 116.91 182.319 117.252C182.308 117.594 182.225 117.931 182.077 118.24C180.137 122.31 174.927 130.24 163.777 129.57C160.009 129.436 156.344 128.3 153.16 126.281C149.975 124.262 147.386 121.431 145.657 118.08H145.617Z" fill="#BD8242"/>
<g style="mix-blend-mode:multiply" opacity="0.3">
<path d="M206.046 78.1599C205.046 90.7899 203.047 110.21 199.537 118.03C195.077 127.9 190.816 134.23 186.336 138.81C186.396 137.02 185.996 135.15 186.136 133.34C185.032 136.892 183.379 140.249 181.236 143.29C179.462 144.604 177.601 145.797 175.667 146.86C174.714 147.295 173.703 147.591 172.667 147.74C173.169 145.433 173.045 143.033 172.306 140.79C171.942 142.989 170.965 145.041 169.486 146.71C168.998 146.462 168.597 146.071 168.336 145.59L166.856 147.36C166.297 146.624 165.998 145.724 166.006 144.8C165.656 145.97 165.406 147.17 165.116 148.37C162.803 148.397 160.491 148.264 158.196 147.97C156.328 146.785 154.617 145.367 153.106 143.75C148.846 139.2 146.106 132.23 146.106 132.23C146.106 132.23 147.976 139.93 151.736 145.44C149.615 144.032 147.608 142.457 145.736 140.73C144.886 139.41 144.066 138.07 143.276 136.73L140.667 132.3C139.918 131.318 139.542 130.103 139.606 128.87L139.066 130.77L136.066 125.23C135.666 126.045 135.513 126.959 135.626 127.86C133.856 124.92 132.234 121.893 130.767 118.79C127.447 111.79 125.766 92.74 125.046 81.24C124.796 80.24 124.646 79.68 124.646 79.68C124.646 79.68 125.956 116.06 130.856 126.44C138.856 143.44 146.496 149.88 153.736 154.38C157.256 156.58 172.096 156.52 175.736 154.51C184.576 149.62 191.736 143 199.606 125.67C205.026 113.67 206.856 74.21 206.856 74.21C206.856 74.21 206.516 75.7699 206.046 78.1599Z" fill="#BD8242"/>
</g>
<path d="M205.156 24.8C205.476 23.9243 205.727 23.0248 205.906 22.11C206.626 18.16 205.416 13.57 201.986 11.48C201.618 11.9589 201.134 12.3355 200.579 12.5736C200.024 12.8117 199.417 12.9034 198.816 12.84C199.966 9.73 198.336 6.13 195.816 4C193.296 1.87 188.397 0.89 185.207 0C185.667 2.29 182.127 6.29 179.957 7.14C179.438 6.45727 179.066 5.67399 178.866 4.84C178.102 5.40874 177.251 5.85105 176.346 6.15001C176.12 4.30047 175.749 2.47153 175.236 0.680008C175.236 0.680008 173.036 6.43 159.506 8.27C159.045 6.92244 158.989 5.46892 159.346 4.09C158.478 4.13707 157.646 4.45029 156.963 4.98706C156.279 5.52383 155.778 6.25809 155.526 7.09C154.668 6.25721 153.6 5.67242 152.437 5.39775C151.273 5.12308 150.056 5.16878 148.917 5.53C150.837 5.96 152.366 6.08 152.396 8.19C152.396 8.19 149.746 8.11 148.316 8.19C140.236 8.54 139.126 11.85 131.856 14.75L133.676 15.2L127.977 17.38C128.343 17.2735 128.728 17.2514 129.104 17.3155C129.48 17.3796 129.836 17.5282 130.146 17.75C127.556 19.0443 124.842 20.0761 122.046 20.83L126.826 21.64C125.088 23.1988 123.167 24.5418 121.106 25.64C121.663 25.5618 122.228 25.6899 122.696 26C122.645 27.0328 122.298 28.0291 121.696 28.87C121.863 28.5768 122.112 28.339 122.412 28.1861C122.713 28.0332 123.051 27.972 123.386 28.01C122.98 29.251 122.286 30.3778 121.359 31.2975C120.432 32.2172 119.3 32.9036 118.056 33.3C118.842 33.4101 119.641 33.3591 120.406 33.15L115.896 42.02C116.434 42.0023 116.943 41.7764 117.316 41.39C117.056 43.71 118.596 52.7 118.316 56.69C118.456 56.56 118.596 56.38 118.736 56.25C119.307 66.2827 121.307 76.1826 124.676 85.65C124.976 86.46 126.116 86.34 126.116 86.34C123.826 74.87 125.936 59.88 127.546 54.1C129.996 45.27 131.756 33.16 153.296 40.67C187.516 52.6 195.866 39.22 195.866 39.22C204.456 49.22 206.336 72.16 204.076 87.82C204.076 87.82 205.017 88.37 205.227 87.6C205.967 84.85 208.696 67.05 210.546 52.33C211.806 41.78 210.346 31.91 205.156 24.8Z" fill="#BD8242"/>
<g style="mix-blend-mode:multiply" opacity="0.3">
<g style="mix-blend-mode:multiply" opacity="0.3">
<path d="M178.848 4.79965C178.083 5.3684 177.232 5.81069 176.328 6.10965C176.101 4.26011 175.73 2.43117 175.218 0.639648C175.218 0.639648 175.098 0.879656 174.888 1.20966C174.835 1.8221 174.663 2.41816 174.379 2.96379C174.096 3.50942 173.708 3.99393 173.238 4.38965C171.468 6.11686 169.415 7.52736 167.168 8.55965C171.403 8.93194 175.626 7.72839 179.028 5.17966C178.988 5.04966 178.878 4.93965 178.848 4.79965Z" fill="#BD8242"/>
</g>
<g style="mix-blend-mode:multiply" opacity="0.3">
<path d="M204.818 14.7596C204.576 15.4921 204.292 16.21 203.968 16.9096C203.197 18.2925 202.148 19.5012 200.888 20.4596C197.297 23.4386 193.056 25.5315 188.508 26.5696C192.528 26.9104 196.576 26.6237 200.508 25.7196C202.098 25.4196 203.688 25.0296 205.258 24.5896C205.548 23.781 205.779 22.9521 205.948 22.1096C206.379 19.6019 205.982 17.022 204.818 14.7596Z" fill="#BD8242"/>
</g>
<g style="mix-blend-mode:multiply" opacity="0.3">
<path d="M202.098 11.5496C202.098 11.5496 202.038 11.4796 201.988 11.4596C201.62 11.9386 201.135 12.3151 200.58 12.5532C200.025 12.7913 199.418 12.883 198.818 12.8196C199.342 11.2864 199.303 9.61671 198.708 8.10962C198.448 8.41962 198.188 8.71963 197.918 9.00963C196.78 10.3211 195.506 11.5078 194.118 12.5496C191.906 13.9572 189.456 14.9501 186.888 15.4796C191.032 15.686 195.175 15.0534 199.068 13.6196C200.247 13.2176 201.294 12.502 202.098 11.5496Z" fill="#BD8242"/>
</g>
</g>
<g style="mix-blend-mode:multiply" opacity="0.3">
<path d="M196.637 34.72C196.637 34.72 188.287 48.1 154.067 36.17C132.527 28.66 130.767 40.77 128.317 49.6C127.768 51.708 127.334 53.8446 127.018 56C127.178 55.31 127.328 54.62 127.478 54.08C129.928 45.25 131.688 33.14 153.228 40.65C187.448 52.58 195.797 39.2 195.797 39.2C204.387 49.2 206.267 72.14 204.007 87.8L204.847 83.32C207.107 67.66 205.227 44.69 196.637 34.72Z" fill="#BD8242"/>
</g>
<g style="mix-blend-mode:multiply" opacity="0.5">
<path d="M171.167 91.7299C171.167 91.7299 172.987 99.2499 171.867 102.05C170.747 104.85 156.867 103.73 155.447 102.05C154.027 100.37 156.237 91.6899 156.237 91.6899C156.237 91.6899 155.377 98.1299 157.367 99.8999C159.357 101.67 168.527 101.14 169.737 99.6099C170.947 98.0799 171.167 91.7299 171.167 91.7299Z" fill="#E6966E"/>
</g>
<path d="M141.148 74.9C137.694 75.3909 134.545 77.1436 132.307 79.82C132.307 79.82 131.858 80.59 142.568 81.49C151.308 81.29 153.678 80.7 153.668 80.05C153.628 78.36 148.598 73.77 141.148 74.9Z" fill="#F2F0F0"/>
<path d="M147.188 77.0097C147.145 76.158 146.848 75.3384 146.336 74.6563C145.824 73.9741 145.121 73.4605 144.315 73.1813C143.509 72.902 142.637 72.8699 141.813 73.089C140.989 73.3081 140.249 73.7684 139.688 74.411C139.127 75.0535 138.771 75.849 138.666 76.6953C138.56 77.5416 138.71 78.4002 139.095 79.1608C139.481 79.9215 140.086 80.5496 140.831 80.9645C141.576 81.3795 142.428 81.5624 143.278 81.4898C144.388 81.4077 145.421 80.8913 146.153 80.0527C146.885 79.2141 147.257 78.1207 147.188 77.0097Z" fill="#487CB8"/>
<path d="M145.948 77.1097C145.867 76.3217 145.478 75.5978 144.865 75.0957C144.253 74.5937 143.466 74.3542 142.678 74.4297C141.892 74.4886 141.162 74.8541 140.643 75.4472C140.125 76.0403 139.861 76.8134 139.908 77.5996C139.973 78.3953 140.351 79.1325 140.96 79.6492C141.568 80.1659 142.357 80.4196 143.153 80.3546C143.948 80.2897 144.686 79.9113 145.203 79.3027C145.719 78.6942 145.973 77.9053 145.908 77.1097H145.948Z" fill="#18100E"/>
<path d="M147.168 75.8C147.135 75.4742 146.974 75.1747 146.721 74.9667C146.468 74.7588 146.143 74.6593 145.817 74.69C145.655 74.6989 145.497 74.74 145.351 74.811C145.205 74.882 145.074 74.9813 144.967 75.1033C144.86 75.2253 144.779 75.3675 144.727 75.5215C144.676 75.6754 144.655 75.8382 144.668 76C144.703 76.3248 144.864 76.6227 145.116 76.8302C145.369 77.0376 145.692 77.1381 146.018 77.11C146.179 77.0999 146.337 77.0579 146.482 76.9865C146.628 76.915 146.757 76.8156 146.864 76.6939C146.971 76.5722 147.053 76.4306 147.105 76.2772C147.157 76.1238 147.178 75.9616 147.168 75.8Z" fill="#EFECEC"/>
<path d="M142.046 71.34C154.436 70.99 153.676 80.05 153.676 80.05C153.676 80.05 150.116 74.0499 141.486 74.5699C136.206 74.8999 132.316 79.8199 132.316 79.8199C132.316 79.8199 132.696 71.55 142.046 71.34Z" fill="#E6966E"/>
<path d="M141.947 73.7799C152.677 72.9699 153.667 80.0499 153.667 80.0499C153.667 80.0499 149.387 73.9699 141.857 75.1499C134.977 76.2099 132.307 79.8199 132.307 79.8199C132.307 79.8199 132.747 74.4699 141.947 73.7799Z" fill="#412118"/>
<path d="M187.427 75.4397C190.906 75.8599 194.079 77.6349 196.257 80.3797C196.257 80.3797 195.977 81.7597 186.067 82.2597C176.557 82.1997 174.867 81.1897 174.887 80.5497C175.107 78.1497 181.507 74.6897 187.427 75.4397Z" fill="#F2F0F0"/>
<path d="M181.388 77.5498C181.435 76.7007 181.734 75.885 182.248 75.2072C182.762 74.5295 183.466 74.0205 184.271 73.7455C185.075 73.4705 185.944 73.4421 186.765 73.6638C187.586 73.8856 188.322 74.3474 188.878 74.9901C189.435 75.6328 189.788 76.4272 189.89 77.2713C189.993 78.1155 189.841 78.9711 189.454 79.7284C189.067 80.4857 188.463 81.1103 187.719 81.5221C186.975 81.9339 186.125 82.1141 185.278 82.0398C184.17 81.9527 183.14 81.4328 182.412 80.5925C181.684 79.7523 181.316 78.6592 181.388 77.5498Z" fill="#487CB8"/>
<path d="M182.627 77.64C182.665 77.0459 182.878 76.4764 183.24 76.004C183.602 75.5315 184.097 75.1775 184.661 74.987C185.225 74.7964 185.832 74.7779 186.407 74.9339C186.981 75.0898 187.497 75.4131 187.887 75.8627C188.277 76.3122 188.525 76.8677 188.598 77.4584C188.672 78.0491 188.568 78.6483 188.3 79.1798C188.032 79.7114 187.612 80.1511 187.093 80.4432C186.574 80.7352 185.98 80.8664 185.387 80.82C184.601 80.7585 183.872 80.3905 183.356 79.7955C182.839 79.2005 182.577 78.4262 182.627 77.64Z" fill="#18100E"/>
<path d="M187.717 76.69C187.742 76.3625 187.896 76.0586 188.146 75.8449C188.395 75.6312 188.719 75.5251 189.047 75.5499C189.208 75.5601 189.366 75.6021 189.511 75.6737C189.655 75.7452 189.784 75.8448 189.89 75.9667C189.996 76.0885 190.077 76.2302 190.128 76.3836C190.179 76.5369 190.199 76.6988 190.187 76.8599C190.151 77.1866 189.989 77.4861 189.734 77.6939C189.48 77.9016 189.153 78.0008 188.826 77.97C188.512 77.9419 188.22 77.7928 188.013 77.554C187.806 77.3153 187.7 77.0055 187.717 76.69Z" fill="#EFECEC"/>
<path d="M186.467 71.9898C174.797 71.2398 174.887 80.5498 174.887 80.5498C174.887 80.5498 178.457 74.5498 187.087 75.1198C192.367 75.4598 196.247 80.3798 196.247 80.3798C196.247 80.3798 196.597 72.6198 186.467 71.9898Z" fill="#E6966E"/>
<path d="M186.277 74.4798C175.557 74.1898 174.887 80.5498 174.887 80.5498C176.308 78.8296 178.13 77.4849 180.193 76.634C182.256 75.783 184.496 75.4519 186.717 75.6698C193.647 76.3098 196.257 80.3798 196.257 80.3798C196.257 80.3798 195.687 74.7298 186.277 74.4798Z" fill="#412118"/>
<path d="M134.197 60.4397C138.447 59.8997 157.197 60.6197 158.117 61.7197C159.037 62.8197 158.258 67.3097 156.458 67.1997C148.458 66.7097 139.318 64.8297 133.458 64.8897C131.188 64.8897 127.357 66.8397 127.357 66.8397C127.357 66.8397 129.947 60.9697 134.197 60.4397Z" fill="#8B5E3C"/>
<path d="M193.277 59.7897C189.017 59.3397 170.807 60.9797 169.947 62.0997C169.087 63.2197 170.077 67.5097 171.877 67.3597C179.027 66.7597 188.447 65.0697 194.257 64.8697C196.551 64.8817 198.833 65.1909 201.047 65.7897C201.047 65.7897 197.537 60.2297 193.277 59.7897Z" fill="#8B5E3C"/>
<g style="mix-blend-mode:multiply" opacity="0.5">
<path d="M178.497 115.97C163.547 123.45 146.687 114.97 149.497 116.25C147.757 115.45 179.817 115.31 178.497 115.97Z" fill="#E6966E"/>
</g>
<g style="mix-blend-mode:multiply" opacity="0.5">
<path d="M171.216 122.55C163.566 129 154.746 120.95 156.886 122.65C156.106 122.07 171.966 121.95 171.216 122.55Z" fill="#E6966E"/>
</g>
<g style="mix-blend-mode:screen" opacity="0.3">
<path d="M199.977 84.8596C200.617 77.8096 194.647 73.6096 186.327 73.6896C178.007 73.7696 171.267 77.4296 171.327 84.4896C171.387 91.5496 178.387 99.2396 186.857 98.1896C195.327 97.1396 199.397 91.3596 199.977 84.8596Z" fill="#E6E7E8"/>
</g>
<g style="mix-blend-mode:screen" opacity="0.3">
<path d="M176.196 87.5499C176.126 80.4899 182.856 76.8399 191.196 76.7499C193.417 76.7045 195.63 77.0428 197.736 77.7499C195.346 75.0799 191.276 73.5899 186.346 73.6399C178.026 73.7299 171.286 77.3799 171.346 84.4399C171.396 89.7099 175.346 95.3099 180.796 97.3899C178.026 94.8445 176.372 91.308 176.196 87.5499Z" fill="#E6E7E8"/>
</g>
<g style="mix-blend-mode:screen" opacity="0.3">
<path d="M158.047 84.4096C157.967 77.3496 151.167 73.8297 142.847 73.9197C134.527 74.0097 128.637 78.3297 129.417 85.3597C130.127 91.8397 134.347 97.5697 142.787 98.4297C151.227 99.2897 158.047 91.4696 158.047 84.4096Z" fill="#E6E7E8"/>
</g>
<g style="mix-blend-mode:screen" opacity="0.3">
<path d="M134.596 88.8296C133.826 81.8296 139.706 77.4696 148.026 77.3896C150.692 77.3306 153.347 77.7471 155.866 78.6196C153.226 75.4596 148.386 73.8596 142.866 73.9196C134.546 73.9996 128.656 78.3296 129.436 85.3596C129.628 87.9982 130.567 90.5277 132.143 92.6526C133.719 94.7775 135.867 96.4101 138.336 97.3596C136.216 94.9851 134.906 91.9978 134.596 88.8296Z" fill="#E6E7E8"/>
</g>
<path d="M196.757 74.97C188.957 71.32 180.917 71.3 172.347 76.11C171.915 76.3469 171.441 76.4947 170.951 76.5445C170.462 76.5943 169.967 76.5452 169.497 76.4C166.422 75.3447 163.082 75.3447 160.007 76.4C159.512 76.5922 158.982 76.6782 158.451 76.6524C157.921 76.6265 157.401 76.4894 156.927 76.25C148.297 71.68 140.197 71.82 132.517 75.61C129.931 77.4848 126.822 78.5025 123.627 78.52L123.777 81.9199C126.327 82.3799 127.637 83.9199 127.687 87.1599C128.052 87.3534 128.459 87.4546 128.872 87.4546C129.285 87.4546 129.692 87.3534 130.057 87.1599C129.767 79.7499 133.637 75.35 142.817 74.77C151.427 74.38 156.477 77.52 157.687 84.47C158.457 85.3 159.687 85.57 160.377 84.58C160.586 84.3592 160.738 84.0902 160.818 83.7969C160.899 83.5036 160.906 83.1949 160.838 82.8983C160.771 82.6016 160.632 82.3261 160.433 82.0962C160.233 81.8662 159.981 81.6889 159.697 81.58C159.639 81.2225 159.654 80.857 159.741 80.5054C159.828 80.1539 159.985 79.8234 160.202 79.534C160.42 79.2445 160.693 79.0019 161.007 78.8208C161.32 78.6397 161.667 78.5238 162.027 78.4799C163.758 78.0298 165.575 78.0298 167.307 78.4799C168.877 78.8499 169.867 79.79 169.707 81.53C169.428 81.6453 169.181 81.8274 168.988 82.0602C168.795 82.293 168.662 82.5695 168.601 82.8655C168.54 83.1615 168.553 83.468 168.637 83.7581C168.722 84.0483 168.876 84.3133 169.087 84.53C169.797 85.53 171.017 85.21 171.777 84.36C172.837 77.36 177.777 74.15 186.437 74.36C195.637 74.75 199.597 79.0799 199.437 86.4799C199.802 86.6743 200.209 86.776 200.622 86.776C201.035 86.776 201.442 86.6743 201.807 86.4799C201.807 83.2799 203.067 81.6699 205.607 81.1599L205.687 77.7599C202.492 77.7865 199.369 76.8108 196.757 74.97Z" fill="#3F2216"/>
<path d="M157.876 84.0298C156.776 93.9598 150.007 97.8098 144.537 98.0898C141.154 98.2531 137.823 97.2097 135.138 95.1456C132.453 93.0815 130.588 90.1308 129.876 86.8198L129.076 86.9698C129.899 90.6255 132.034 93.8526 135.076 96.0398C137.679 97.8914 140.802 98.8715 143.997 98.8398H144.626C148.047 98.6719 151.295 97.289 153.787 94.9398C156.665 92.0334 158.416 88.1983 158.727 84.1198L157.876 84.0298Z" fill="#3F2216"/>
<path d="M199.687 86.2898C199.043 89.6168 197.239 92.6072 194.597 94.728C191.954 96.8488 188.644 97.9623 185.256 97.8698C179.786 97.6998 172.936 93.9798 171.636 84.0898L170.826 84.1698C171.223 88.2385 173.052 92.034 175.986 94.8798C178.523 97.1841 181.801 98.5037 185.227 98.5998H185.846C189.046 98.5622 192.151 97.512 194.716 95.5998C197.697 93.3437 199.75 90.0749 200.486 86.4098L199.687 86.2898Z" fill="#3F2216"/>
<path d="M126.467 79.8496H125.047C125.006 79.8523 124.965 79.847 124.927 79.8339C124.888 79.8207 124.852 79.8001 124.822 79.7732C124.791 79.7462 124.766 79.7135 124.748 79.6769C124.73 79.6402 124.719 79.6004 124.717 79.5596C124.718 79.5193 124.728 79.4797 124.745 79.4431C124.762 79.4065 124.786 79.3737 124.815 79.3467C124.845 79.3196 124.88 79.2988 124.918 79.2856C124.957 79.2724 124.997 79.2669 125.037 79.2696H126.507C126.547 79.2655 126.588 79.2696 126.626 79.2815C126.665 79.2935 126.701 79.3131 126.731 79.3393C126.762 79.3655 126.788 79.3976 126.806 79.4337C126.824 79.4699 126.834 79.5093 126.837 79.5496C126.835 79.5945 126.823 79.6384 126.803 79.6785C126.782 79.7185 126.754 79.7539 126.719 79.7822C126.684 79.8105 126.644 79.8311 126.6 79.8427C126.557 79.8544 126.511 79.8567 126.467 79.8496Z" fill="#B3B3B3"/>
<path d="M204.467 78.9796H203.047C203.006 78.9823 202.965 78.977 202.927 78.9639C202.888 78.9507 202.852 78.9301 202.822 78.9032C202.791 78.8762 202.766 78.8435 202.748 78.8068C202.73 78.7702 202.719 78.7304 202.717 78.6896C202.718 78.6493 202.728 78.6097 202.745 78.5731C202.762 78.5365 202.786 78.5037 202.815 78.4766C202.845 78.4496 202.88 78.4288 202.918 78.4156C202.957 78.4023 202.997 78.3969 203.037 78.3996H204.507C204.548 78.3969 204.588 78.4022 204.627 78.4154C204.666 78.4285 204.701 78.4491 204.732 78.4761C204.763 78.503 204.788 78.5357 204.806 78.5724C204.824 78.609 204.834 78.6489 204.837 78.6896C204.835 78.7342 204.823 78.7778 204.803 78.8175C204.782 78.8572 204.753 78.892 204.718 78.9195C204.683 78.947 204.643 78.9667 204.599 78.977C204.556 78.9874 204.511 78.9883 204.467 78.9796Z" fill="#B3B3B3"/>
<path d="M245.046 133.91L235.996 117.37C235.996 117.37 234.516 88.7499 233.916 86.7799C233.316 84.8099 219.536 65.9799 217.816 65.6799C216.096 65.3799 200.026 67.7999 198.596 68.3699C197.166 68.9399 191.676 76.4599 192.276 77.4899C193.716 79.8399 197.066 78.8499 197.066 78.8499C197.066 78.8499 192.636 84.5399 192.416 86.2099C192.196 87.8799 193.226 98.2099 193.226 98.2099C193.802 98.3542 194.408 98.3118 194.958 98.0889C195.508 97.8661 195.974 97.4742 196.286 96.9699C196.286 96.9699 197.546 103.25 198.286 103.57C200.41 102.521 202.156 100.841 203.286 98.7599C204.286 96.5599 202.816 92.7599 202.816 92.7599C204.936 91.1499 207.066 89.8499 208.066 88.3599C208.066 88.3599 210.896 90.6199 211.366 92.0499C211.836 93.4799 209.046 107.64 208.826 112.62C208.606 117.6 213.156 122.53 215.166 123.22C217.771 124.14 220.114 125.678 221.995 127.702C223.876 129.725 225.238 132.175 225.966 134.84L245.046 133.91Z" fill="#E6966E"/>
<g style="mix-blend-mode:multiply" opacity="0.5">
<path d="M207.466 78.0796C204.396 78.3596 195.646 89.6496 195.646 89.6496C195.646 89.6496 206.516 79.9496 207.846 79.6496C209.176 79.3496 215.776 82.8196 218.346 83.6496C218.346 83.6096 210.546 77.7996 207.466 78.0796Z" fill="#E6966E"/>
</g>
<g style="mix-blend-mode:multiply" opacity="0.5">
<path d="M211.206 69.7796C208.146 69.3696 197.086 78.4096 197.086 78.4096C197.086 78.4096 209.856 71.4096 211.226 71.4096C212.596 71.4096 218.226 76.2796 220.556 77.6296C220.556 77.6096 214.266 70.1996 211.206 69.7796Z" fill="#E6966E"/>
</g>
<path d="M244.388 111.01L236.908 104.84L218.348 127.11L226.988 135.74L244.388 111.01Z" fill="#F1F2F2"/>
<path d="M244.377 111.01C264.537 123.4 300.537 143.3 317.527 162.78C342.037 190.89 345.938 209.87 327.978 222.55C320.398 227.9 295.487 215.35 284.587 202.84C270.237 186.38 227.258 146.26 222.938 136.72C224.168 136.6 244.377 111.01 244.377 111.01Z" fill="#8C6048"/>
<path d="M322.968 169.35C310.628 180.25 313.288 196.84 330.198 220.8C344.218 209.21 341.528 192.69 322.968 169.35Z" fill="#664634"/>
<g style="mix-blend-mode:multiply" opacity="0.2">
<path d="M295.046 194.07C304.876 205.35 326.047 216.61 335.687 214.8C333.621 217.853 330.99 220.484 327.937 222.55C320.357 227.9 295.446 215.35 284.546 202.84C270.196 186.38 227.216 146.26 222.896 136.72C223.396 136.67 228.797 130.31 232.497 125.8C244.227 142.82 283.486 180.76 295.046 194.07Z" fill="#8C6048"/>
</g>
</svg>
