<svg width="366" height="449" viewBox="0 0 366 449" fill="none" xmlns="http://www.w3.org/2000/svg">
<path d="M129.58 177.783C139.71 182.213 142.58 230.983 124.15 278.363C111.641 276.747 99.3153 273.941 87.3398 269.983C103.87 186.863 129.58 177.783 129.58 177.783Z" fill="#BA2F24"/>
<path d="M81.8394 301.532C83.5994 289.982 85.4594 279.532 87.3794 269.982C99.3549 273.94 111.681 276.746 124.189 278.362C122.099 290.122 116.79 300.672 114.56 308.712C104.56 344.712 66.3198 407.132 66.3198 407.132C52.3198 409.952 46.1895 401.002 46.1895 401.002C60.1695 358.732 81.8394 301.532 81.8394 301.532Z" fill="#FAA284"/>
<path d="M85.2299 284.203C85.2299 284.203 81.2299 284.733 82.5199 278.413C83.8099 272.093 84.99 261.483 89.33 262.563C89.33 262.563 114.06 273.143 128.87 274.623C128.87 274.623 131.33 274.883 130.03 278.803C128.73 282.723 127.79 294.163 122.18 293.133C122.18 293.133 96.5799 288.513 85.2299 284.203Z" fill="#D8453A"/>
<path d="M66.2803 401.543C64.0703 395.953 56.1602 397.663 56.1602 397.663C56.1602 397.663 24.9299 389.243 17.6499 392.793C13.0899 395.023 9.17023 400.293 5.49023 404.463C3.62023 406.583 -4 415.163 -4 415.163C-4 415.163 -1.66988 421.903 13.3701 404.943C11.8301 410.153 7.37002 419.783 6.77002 421.443C6.77002 421.443 13.2999 425.123 18.8599 405.443C18.5099 409.993 16.1599 421.323 15.8599 423.353C15.8599 423.353 22.1902 425.753 23.7402 408.713C24.7402 411.773 24.8299 421.103 25.1499 422.313C25.1499 422.313 30.0803 422.123 29.2803 407.863L42.1401 416.063C42.1401 416.063 29.9702 427.493 36.7202 434.373C36.7202 434.373 46.3003 423.873 49.8203 421.723C54.5025 418.993 58.927 415.843 63.04 412.313C63.04 412.313 68.4903 407.123 66.2803 401.543Z" fill="#FAA284"/>
<path d="M179.79 0.742773C179.79 0.742773 256.29 -10.7572 252.29 56.7428C248.29 124.243 265.46 190.573 263.87 238.573C263.87 238.573 206.97 258.573 135.63 238.573C135.63 238.573 138.04 145.513 129.5 81.2828C120.29 11.9928 144.44 -1.75723 179.79 0.742773Z" fill="url(#paint0_linear_1252_8528)"/>
<path d="M221.879 328.233C221.879 328.233 257.04 369.543 266.18 541.913C266.18 541.913 191.04 564.913 83.5195 541.913C83.5195 541.913 102.18 364.633 134.58 326.663L221.879 328.233Z" fill="#353B42"/>
<path d="M210.87 170.212C210.87 170.212 192.96 166.152 182.97 166.042C172.98 165.932 157.81 169.612 157.81 169.612C142.48 173.702 129.61 177.782 129.61 177.782L126.66 205.352C110.98 225.422 111.13 231.042 111.13 239.922C111.13 255.292 124.74 264.712 124.74 264.712L134.66 327.072C186.8 347.342 221.71 328.232 221.71 328.232C227.5 288.842 242.19 238.342 242.19 238.342V179.802C234.19 176.142 219 172.552 210.87 170.212Z" fill="#CE3B28"/>
<path opacity="0.2" d="M161.931 203.462L177.101 189.292L185.031 206.792C185.031 206.792 209.461 192.532 211.271 170.192C210.181 169.952 192.871 166.192 183.191 166.042C173.191 165.932 157.931 169.612 157.931 169.612L157.371 169.762C156.691 176.282 156.171 190.392 161.931 203.462Z" fill="black"/>
<path d="M169.831 158.033L169.73 182.783L200.011 182.903L200.141 150.703C191.199 156.601 180.479 159.193 169.831 158.033Z" fill="#FAA284"/>
<path d="M200.14 150.703L200.24 125.903L169.95 125.783L169.83 158.033C180.479 159.193 191.198 156.601 200.14 150.703Z" fill="#EF8D72"/>
<path d="M169.83 158.033C169.83 158.033 169.19 173.613 179.15 179.343C179.15 179.343 198.71 174.003 200.15 158.033L211.37 170.213C211.37 170.213 204.27 191.043 186.02 199.543L178.57 182.843L163.22 198.013C163.22 198.013 157 180.303 158.03 168.673L169.83 158.033Z" fill="#CE3B28"/>
<path opacity="0.1" d="M114.03 245.443C114.03 245.443 118.03 248.803 126.6 249.543C143.98 251.043 180.48 254.163 205.6 250.133C216.14 248.433 217.89 243.133 225.83 236.893C225.83 236.893 227.09 263.893 194.07 263.363C161.05 262.833 116.1 266.873 114.03 245.443Z" fill="black"/>
<path d="M242.29 179.803C232 183.863 225.67 232.243 242.35 280.273C254.912 279.129 267.335 276.785 279.45 273.273C266.02 189.573 242.29 179.803 242.29 179.803Z" fill="#CE3B28"/>
<path d="M283.82 304.982C282.49 293.382 281.02 282.832 279.45 273.242C267.335 276.754 254.911 279.098 242.35 280.242C244.01 292.072 248.93 302.812 250.87 310.932C259.53 347.262 295.459 411.052 295.459 411.052C309.369 414.382 315.8 405.662 315.8 405.662C303.38 362.932 283.82 304.982 283.82 304.982Z" fill="#FAA284"/>
<path d="M281.071 287.543C281.071 287.543 285.071 288.213 283.991 281.853C282.911 275.493 282.141 264.853 277.771 265.763C277.771 265.763 252.671 275.433 237.821 276.363C237.821 276.363 235.351 276.533 236.501 280.503C237.651 284.473 238.171 295.933 243.821 295.113C243.821 295.113 269.581 291.393 281.071 287.543Z" fill="#D8453A"/>
<path d="M295.7 405.493C298.12 399.993 305.96 401.993 305.96 401.993C305.96 401.993 337.48 394.723 344.62 398.543C349.1 400.933 352.82 406.343 356.34 410.643L365.43 421.643C365.43 421.643 362.86 428.293 348.43 410.793C349.78 416.063 353.92 425.793 354.43 427.523C354.43 427.523 347.77 430.963 342.94 411.043C343.12 415.603 345.06 427.043 345.27 429.043C345.27 429.043 338.85 431.213 337.94 414.133C336.83 417.133 336.39 426.473 336.02 427.673C336.02 427.673 331.11 427.293 332.43 413.073L319.27 420.793C319.27 420.793 331.02 432.673 324.02 439.293C324.02 439.293 314.83 428.453 311.4 426.173C306.816 423.277 302.508 419.967 298.53 416.283C298.53 416.283 293.29 410.993 295.7 405.493Z" fill="#FAA284"/>
<path d="M221.79 76.0127C221.79 76.0127 235.79 77.5727 236.96 84.2427C238.13 90.9127 234.75 117.243 240.19 165.243C240.19 165.243 227.62 122.523 228.29 97.7126C228.29 97.7126 221.35 84.3927 221.79 76.0127Z" fill="#511E17"/>
<path d="M249.301 31.7527C245.646 21.2478 238.021 12.5928 228.061 7.6427C219.931 20.3927 200.15 32.2928 176.71 28.5728C155.9 25.2728 151.45 12.8027 150.94 4.22266C143 7.61266 136.691 13.5827 132.641 23.2227C169.991 53.6727 221.391 41.8227 249.301 31.7527Z" fill="#994A3D"/>
<path d="M128.58 73.8131C128.58 73.8131 130.65 131.533 131.93 160.573C133.26 190.993 131.74 225.573 122.5 238.243C122.5 238.243 152.92 244.243 156.26 222.913C159.6 201.583 153.11 99.5531 146.94 72.9131L128.58 73.8131Z" fill="#7C3425"/>
<path d="M229.13 82.3223L228.33 82.6022C228.33 82.6022 222.76 86.2422 221.79 76.0122C194.72 63.3922 176.71 28.5723 176.71 28.5723C144.44 32.9123 136.51 56.5723 135.63 76.4523C137.11 83.8723 138.94 95.7622 138.37 106.012C136.93 131.572 158.5 148.212 177.65 148.192C214.44 148.192 223.79 115.492 223.79 115.492C223.79 115.492 240.9 118.412 243.11 95.4323C244.91 76.6423 229.13 82.3223 229.13 82.3223Z" fill="#FAA284"/>
<g opacity="0.9">
<path opacity="0.09" d="M155.46 94.053C158.486 94.6251 161.275 96.0817 163.473 98.2388C165.672 100.396 167.181 103.156 167.81 106.171C168.439 109.186 168.16 112.32 167.008 115.176C165.856 118.032 163.883 120.482 161.338 122.217C158.793 123.952 155.791 124.893 152.712 124.921C149.632 124.95 146.613 124.064 144.037 122.377C141.461 120.689 139.443 118.276 138.238 115.441C137.034 112.607 136.697 109.479 137.27 106.453C137.65 104.444 138.421 102.529 139.541 100.819C140.661 99.1082 142.106 97.635 143.796 96.4834C145.485 95.3318 147.385 94.5244 149.386 94.1074C151.388 93.6904 153.452 93.6719 155.46 94.053Z" fill="#EA7460"/>
<path opacity="0.18" d="M155.179 95.5227C157.915 96.0381 160.435 97.3531 162.423 99.3014C164.411 101.25 165.776 103.744 166.346 106.468C166.916 109.192 166.665 112.024 165.625 114.606C164.585 117.188 162.803 119.403 160.504 120.972C158.205 122.54 155.492 123.392 152.709 123.419C149.926 123.445 147.197 122.646 144.868 121.122C142.54 119.598 140.715 117.417 139.626 114.855C138.537 112.294 138.232 109.467 138.749 106.733C139.443 103.068 141.563 99.8289 144.644 97.7269C147.725 95.6249 151.514 94.832 155.179 95.5227Z" fill="#EA7460"/>
<path opacity="0.27" d="M154.9 97.0022C157.34 97.465 159.589 98.6412 161.361 100.382C163.133 102.123 164.35 104.35 164.856 106.782C165.363 109.214 165.136 111.741 164.206 114.045C163.276 116.348 161.684 118.324 159.631 119.723C157.578 121.121 155.156 121.88 152.672 121.902C150.188 121.924 147.753 121.209 145.676 119.848C143.598 118.486 141.97 116.539 140.999 114.252C140.028 111.966 139.757 109.443 140.22 107.002C140.841 103.729 142.736 100.837 145.489 98.9619C148.242 97.0865 151.627 96.3816 154.9 97.0022Z" fill="#EA7460"/>
<path opacity="0.36" d="M154.58 98.4723C156.732 98.8784 158.714 99.9136 160.278 101.447C161.841 102.98 162.915 104.942 163.363 107.086C163.811 109.229 163.613 111.457 162.795 113.488C161.977 115.519 160.574 117.261 158.765 118.495C156.956 119.729 154.822 120.399 152.633 120.42C150.443 120.441 148.296 119.812 146.464 118.613C144.632 117.413 143.197 115.698 142.34 113.683C141.483 111.668 141.243 109.444 141.65 107.292C142.196 104.409 143.864 101.859 146.289 100.205C148.714 98.5514 151.696 97.928 154.58 98.4723Z" fill="#EA7460"/>
<path opacity="0.45" d="M154.35 99.9425C156.209 100.296 157.921 101.193 159.271 102.519C160.621 103.846 161.547 105.543 161.932 107.396C162.317 109.249 162.144 111.175 161.435 112.929C160.726 114.684 159.513 116.189 157.949 117.254C156.384 118.319 154.539 118.897 152.647 118.914C150.754 118.931 148.9 118.386 147.317 117.348C145.734 116.311 144.494 114.828 143.754 113.086C143.014 111.344 142.807 109.422 143.16 107.563C143.392 106.327 143.867 105.149 144.556 104.097C145.244 103.044 146.134 102.138 147.173 101.431C148.213 100.723 149.382 100.227 150.613 99.9716C151.845 99.7162 153.114 99.7064 154.35 99.9425Z" fill="#EA7460"/>
<path opacity="0.55" d="M154.071 101.393C155.639 101.69 157.084 102.446 158.223 103.565C159.362 104.683 160.143 106.114 160.469 107.677C160.794 109.24 160.648 110.864 160.051 112.345C159.453 113.825 158.429 115.094 157.11 115.993C155.79 116.891 154.233 117.378 152.637 117.392C151.041 117.405 149.476 116.945 148.141 116.07C146.807 115.194 145.762 113.942 145.138 112.473C144.515 111.003 144.342 109.381 144.64 107.813C145.04 105.712 146.258 103.855 148.027 102.651C149.795 101.447 151.969 100.995 154.071 101.393Z" fill="#EA7460"/>
<path opacity="0.64" d="M153.789 102.893C155.066 103.135 156.242 103.75 157.169 104.661C158.096 105.572 158.732 106.737 158.996 108.009C159.261 109.281 159.143 110.603 158.656 111.808C158.169 113.013 157.337 114.046 156.263 114.778C155.189 115.509 153.922 115.906 152.622 115.917C151.323 115.929 150.049 115.554 148.963 114.842C147.876 114.13 147.025 113.111 146.517 111.915C146.009 110.719 145.867 109.399 146.109 108.123C146.27 107.275 146.597 106.467 147.07 105.746C147.543 105.024 148.153 104.403 148.866 103.917C149.579 103.431 150.381 103.091 151.226 102.915C152.071 102.739 152.942 102.732 153.789 102.893Z" fill="#EA7460"/>
<path opacity="0.73" d="M153.51 104.393C154.496 104.582 155.403 105.06 156.117 105.765C156.832 106.47 157.32 107.372 157.521 108.355C157.723 109.339 157.628 110.36 157.248 111.289C156.869 112.218 156.222 113.014 155.389 113.575C154.557 114.137 153.577 114.438 152.574 114.442C151.57 114.446 150.588 114.152 149.751 113.597C148.915 113.042 148.262 112.251 147.875 111.324C147.489 110.398 147.386 109.378 147.58 108.393C147.841 107.079 148.611 105.921 149.721 105.172C150.832 104.423 152.194 104.143 153.51 104.393Z" fill="#EA7460"/>
<path opacity="0.82" d="M153.23 105.832C153.924 105.963 154.563 106.297 155.068 106.791C155.572 107.285 155.918 107.917 156.063 108.608C156.208 109.299 156.145 110.017 155.881 110.672C155.618 111.327 155.166 111.89 154.584 112.288C154.001 112.686 153.313 112.903 152.607 112.91C151.901 112.918 151.208 112.716 150.617 112.33C150.026 111.944 149.563 111.392 149.286 110.742C149.009 110.093 148.93 109.376 149.06 108.682C149.147 108.221 149.323 107.782 149.58 107.389C149.836 106.996 150.168 106.658 150.555 106.393C150.942 106.128 151.377 105.943 151.837 105.847C152.296 105.75 152.769 105.745 153.23 105.832Z" fill="#EA7460"/>
<path opacity="0.91" d="M152.95 107.312C153.352 107.389 153.722 107.582 154.014 107.869C154.306 108.156 154.507 108.523 154.591 108.924C154.674 109.324 154.637 109.741 154.484 110.121C154.331 110.5 154.068 110.826 153.73 111.056C153.392 111.287 152.993 111.412 152.584 111.416C152.174 111.42 151.773 111.302 151.43 111.078C151.088 110.854 150.82 110.534 150.659 110.157C150.499 109.78 150.454 109.365 150.53 108.962C150.579 108.694 150.681 108.439 150.829 108.211C150.978 107.982 151.17 107.786 151.395 107.632C151.62 107.479 151.874 107.372 152.14 107.317C152.407 107.262 152.683 107.26 152.95 107.312Z" fill="#EA7460"/>
<path opacity="0.9" d="M153.13 109.453C153.101 109.602 153.014 109.734 152.889 109.82C152.764 109.906 152.61 109.939 152.46 109.913C152.311 109.884 152.179 109.797 152.093 109.672C152.007 109.547 151.974 109.393 152 109.243C152.013 109.168 152.041 109.097 152.082 109.034C152.123 108.97 152.176 108.915 152.239 108.873C152.301 108.83 152.371 108.8 152.445 108.784C152.519 108.769 152.596 108.768 152.67 108.783C152.819 108.812 152.951 108.899 153.037 109.024C153.123 109.149 153.156 109.303 153.13 109.453Z" fill="#EA7460"/>
</g>
<g opacity="0.9">
<path opacity="0.09" d="M204.841 92.9423C208.08 93.5555 211.065 95.1155 213.418 97.4251C215.771 99.7346 217.386 102.69 218.059 105.917C218.732 109.145 218.434 112.5 217.2 115.557C215.967 118.615 213.855 121.238 211.13 123.095C208.406 124.952 205.193 125.96 201.896 125.991C198.599 126.021 195.367 125.074 192.609 123.268C189.851 121.462 187.69 118.878 186.4 115.844C185.109 112.81 184.748 109.462 185.361 106.222C185.768 104.071 186.595 102.021 187.794 100.19C188.993 98.3581 190.542 96.7807 192.351 95.5475C194.16 94.3143 196.193 93.4496 198.337 93.0026C200.48 92.5555 202.69 92.5351 204.841 92.9423Z" fill="#EA7460"/>
<path opacity="0.18" d="M204.581 94.5122C207.509 95.0667 210.208 96.4773 212.335 98.5655C214.461 100.654 215.922 103.326 216.53 106.244C217.138 109.162 216.867 112.195 215.752 114.959C214.637 117.723 212.726 120.094 210.263 121.773C207.8 123.451 204.894 124.361 201.914 124.388C198.933 124.415 196.011 123.558 193.518 121.925C191.025 120.291 189.072 117.955 187.907 115.212C186.741 112.468 186.416 109.441 186.971 106.512C187.715 102.586 189.988 99.1159 193.291 96.8656C196.593 94.6152 200.654 93.7687 204.581 94.5122Z" fill="#EA7460"/>
<path opacity="0.27" d="M204.241 96.0919C206.856 96.5874 209.266 97.8474 211.165 99.7126C213.065 101.578 214.369 103.964 214.912 106.57C215.455 109.176 215.213 111.885 214.217 114.354C213.221 116.822 211.515 118.94 209.315 120.439C207.115 121.939 204.521 122.752 201.859 122.776C199.197 122.801 196.587 122.035 194.36 120.576C192.133 119.118 190.389 117.031 189.347 114.581C188.306 112.131 188.015 109.428 188.511 106.812C189.177 103.306 191.208 100.207 194.158 98.1975C197.107 96.1876 200.733 95.4303 204.241 96.0919Z" fill="#EA7460"/>
<path opacity="0.36" d="M203.94 97.6721C206.243 98.1085 208.364 99.2177 210.037 100.86C211.709 102.502 212.857 104.603 213.335 106.897C213.813 109.191 213.6 111.576 212.723 113.749C211.846 115.922 210.345 117.787 208.408 119.107C206.472 120.427 204.187 121.143 201.844 121.164C199.5 121.186 197.203 120.512 195.242 119.229C193.281 117.945 191.746 116.108 190.829 113.952C189.912 111.795 189.655 109.415 190.09 107.112C190.38 105.583 190.968 104.125 191.82 102.823C192.673 101.521 193.774 100.4 195.06 99.5229C196.346 98.6463 197.793 98.0317 199.316 97.7141C200.84 97.3965 202.411 97.3823 203.94 97.6721Z" fill="#EA7460"/>
<path opacity="0.45" d="M203.641 99.2525C205.628 99.6352 207.456 100.598 208.897 102.019C210.337 103.441 211.324 105.257 211.733 107.239C212.141 109.221 211.954 111.279 211.194 113.154C210.434 115.029 209.135 116.638 207.462 117.775C205.789 118.913 203.815 119.53 201.792 119.547C199.769 119.565 197.786 118.982 196.093 117.874C194.4 116.765 193.074 115.18 192.282 113.318C191.489 111.456 191.266 109.401 191.641 107.412C191.892 106.088 192.401 104.826 193.14 103.699C193.879 102.572 194.833 101.601 195.948 100.843C197.063 100.085 198.316 99.5547 199.636 99.2818C200.956 99.0088 202.317 98.9988 203.641 99.2525Z" fill="#EA7460"/>
<path opacity="0.55" d="M203.341 100.823C205.024 101.137 206.575 101.945 207.799 103.141C209.022 104.338 209.863 105.871 210.215 107.547C210.567 109.222 210.414 110.964 209.775 112.552C209.137 114.14 208.041 115.503 206.628 116.468C205.214 117.433 203.546 117.958 201.834 117.974C200.123 117.991 198.445 117.5 197.012 116.562C195.58 115.625 194.458 114.283 193.789 112.708C193.119 111.133 192.932 109.394 193.251 107.712C193.678 105.462 194.98 103.473 196.872 102.181C198.763 100.89 201.09 100.401 203.341 100.823Z" fill="#EA7460"/>
<path opacity="0.64" d="M203.051 102.392C204.406 102.657 205.652 103.317 206.633 104.289C207.614 105.261 208.286 106.501 208.564 107.854C208.841 109.206 208.713 110.611 208.194 111.891C207.676 113.17 206.79 114.268 205.65 115.046C204.509 115.823 203.163 116.246 201.782 116.261C200.402 116.276 199.047 115.882 197.89 115.13C196.732 114.377 195.823 113.298 195.277 112.03C194.731 110.762 194.573 109.36 194.821 108.002C194.988 107.091 195.334 106.221 195.839 105.445C196.344 104.668 196.999 104 197.764 103.478C198.53 102.956 199.391 102.591 200.299 102.405C201.206 102.218 202.142 102.214 203.051 102.392Z" fill="#EA7460"/>
<path opacity="0.73" d="M202.75 103.982C203.805 104.183 204.777 104.691 205.542 105.444C206.308 106.196 206.834 107.159 207.053 108.21C207.272 109.261 207.174 110.353 206.772 111.348C206.371 112.344 205.683 113.198 204.796 113.803C203.909 114.408 202.863 114.736 201.789 114.746C200.716 114.757 199.663 114.449 198.765 113.861C197.866 113.273 197.162 112.433 196.741 111.445C196.32 110.457 196.202 109.367 196.4 108.312C196.532 107.611 196.802 106.942 197.192 106.345C197.583 105.747 198.088 105.233 198.678 104.83C199.267 104.428 199.931 104.146 200.63 104.001C201.329 103.855 202.049 103.849 202.75 103.982Z" fill="#EA7460"/>
<path opacity="0.82" d="M202.451 105.562C203.194 105.705 203.877 106.066 204.415 106.599C204.952 107.131 205.32 107.811 205.47 108.553C205.62 109.295 205.548 110.064 205.26 110.764C204.973 111.464 204.484 112.063 203.855 112.484C203.227 112.906 202.487 113.132 201.731 113.132C200.974 113.133 200.235 112.909 199.605 112.489C198.976 112.069 198.485 111.471 198.196 110.772C197.907 110.073 197.832 109.304 197.981 108.562C198.181 107.574 198.763 106.706 199.6 106.144C200.437 105.582 201.461 105.373 202.451 105.562Z" fill="#EA7460"/>
<path opacity="0.91" d="M202.15 107.143C202.437 107.195 202.71 107.304 202.955 107.463C203.199 107.622 203.41 107.828 203.574 108.069C203.739 108.31 203.854 108.581 203.914 108.866C203.973 109.152 203.975 109.446 203.92 109.732C203.873 110.025 203.767 110.306 203.61 110.557C203.452 110.809 203.246 111.026 203.003 111.196C202.76 111.366 202.485 111.486 202.195 111.548C201.905 111.611 201.605 111.614 201.314 111.559C201.022 111.503 200.745 111.39 200.498 111.225C200.251 111.061 200.04 110.849 199.876 110.601C199.713 110.353 199.6 110.075 199.546 109.784C199.492 109.492 199.497 109.192 199.56 108.903C199.614 108.617 199.724 108.344 199.884 108.101C200.043 107.858 200.249 107.648 200.49 107.485C200.731 107.321 201.001 107.207 201.286 107.148C201.571 107.089 201.864 107.087 202.15 107.143Z" fill="#EA7460"/>
<path opacity="0.9" d="M202.34 109.392C202.309 109.552 202.216 109.693 202.081 109.785C201.946 109.877 201.781 109.912 201.621 109.882C201.5 109.86 201.388 109.802 201.3 109.717C201.212 109.631 201.151 109.521 201.126 109.401C201.1 109.28 201.111 109.155 201.157 109.041C201.203 108.927 201.282 108.829 201.383 108.76C201.485 108.691 201.605 108.653 201.728 108.652C201.851 108.652 201.972 108.687 202.074 108.755C202.177 108.823 202.257 108.92 202.304 109.033C202.352 109.147 202.364 109.272 202.34 109.392Z" fill="#EA7460"/>
</g>
<path d="M177.23 112.203C170.84 115.113 166.83 113.603 166 109.313C165.46 106.523 167.09 103.313 168.83 101.773C172.43 98.5931 174.03 89.2631 174.04 89.1631C174.32 91.1631 173.92 98.953 169.54 104.363C169.096 104.857 168.758 105.436 168.549 106.066C168.339 106.696 168.261 107.362 168.32 108.023C168.55 111.213 171.62 113.703 177.23 112.203Z" fill="#DB7C65"/>
<path d="M221.04 107.742C221.04 107.742 218.46 127.612 193.22 138.422C170.98 147.942 149.289 133.202 144.439 129.562C151.989 141.302 165.319 148.212 177.649 148.192C214.439 148.192 223.79 115.492 223.79 115.492C227.124 115.923 230.509 115.283 233.457 113.666C236.404 112.048 238.762 109.536 240.189 106.492C229.579 116.532 221.04 107.742 221.04 107.742Z" fill="#EF8D72"/>
<path d="M163.68 72.6633C163.68 72.6633 154.68 70.2233 142.33 73.8133C142.33 73.8133 142.26 72.9033 144.58 70.9133C146.9 68.9233 154.87 67.0433 161.84 69.9133C161.84 69.9033 165.46 71.8333 163.68 72.6633Z" fill="#7C3425"/>
<path d="M184.3 72.1427C184.3 72.1427 193.3 69.5327 205.66 72.9027C205.66 72.9027 205.72 71.9828 203.36 70.0428C201.15 68.2228 193 66.3627 186.09 69.3427C186.09 69.3927 182.5 71.3927 184.3 72.1427Z" fill="#7C3425"/>
<path d="M190.58 118.113C190.58 118.113 176.3 121.263 162.93 118.543C162.93 118.543 165.48 130.763 176.93 130.543C187.7 130.393 190.44 120.483 190.58 118.113Z" fill="#B22828"/>
<path d="M176.491 124.183C167.681 124.323 165.031 120.703 163.891 118.733C174.271 120.613 182.581 119.263 189.831 118.253C189.081 120.473 184.801 124.053 176.491 124.183Z" fill="white"/>
<path d="M159.359 94.2229C157.359 91.5029 155.21 90.023 152.91 89.813C150.646 89.7474 148.446 90.5691 146.78 92.1029L144.93 89.883C145.07 89.743 148.509 86.413 153.129 86.823C156.229 87.103 159.06 88.973 161.53 92.363L159.359 94.2229Z" fill="#502F26"/>
<path d="M189.65 93.2229L187.48 91.363C189.96 87.973 192.78 86.103 195.88 85.823C200.51 85.413 203.94 88.743 204.09 88.883L202.23 91.1029L203.161 89.993L202.23 91.113C200.559 89.5742 198.351 88.7521 196.081 88.823C193.791 89.033 191.58 90.5129 189.65 93.2229Z" fill="#502F26"/>
<path d="M176.71 28.5723C144.44 32.9123 136.51 56.5723 135.63 76.4523C135.63 76.4523 138.85 38.8523 171.56 32.4523C171.56 32.4523 181.97 63.3122 221.79 76.0522C194.72 63.3922 176.71 28.5723 176.71 28.5723Z" fill="#EF8D72"/>
<g filter="url(#filter0_b_1252_8528)">
<path d="M167.86 91.0427C167.862 87.6345 166.853 84.3023 164.961 81.4675C163.069 78.6328 160.379 76.4228 157.231 75.1172C154.083 73.8116 150.618 73.4689 147.275 74.1326C143.932 74.7963 140.861 76.4365 138.451 78.8457C136.04 81.255 134.398 84.3251 133.732 87.6676C133.067 91.0102 133.407 94.4751 134.711 97.624C136.015 100.773 138.223 103.465 141.057 105.358C143.891 107.252 147.222 108.263 150.63 108.263C155.198 108.263 159.579 106.449 162.81 103.22C166.041 99.9907 167.858 95.6107 167.86 91.0427Z" fill="url(#paint1_linear_1252_8528)"/>
</g>
<g filter="url(#filter1_b_1252_8528)">
<path d="M213.86 91.0427C213.862 87.6345 212.853 84.3023 210.961 81.4675C209.069 78.6328 206.379 76.4228 203.231 75.1172C200.083 73.8116 196.618 73.4689 193.275 74.1326C189.932 74.7963 186.861 76.4365 184.451 78.8457C182.04 81.255 180.398 84.3251 179.732 87.6676C179.067 91.0102 179.407 94.4751 180.711 97.624C182.015 100.773 184.223 103.465 187.057 105.358C189.891 107.252 193.222 108.263 196.63 108.263C201.198 108.263 205.579 106.449 208.81 103.22C212.041 99.9907 213.858 95.6107 213.86 91.0427Z" fill="url(#paint2_linear_1252_8528)"/>
</g>
<path d="M150.631 109.203C147.039 109.203 143.528 108.138 140.542 106.142C137.555 104.147 135.228 101.311 133.853 97.9923C132.479 94.674 132.119 91.0227 132.82 87.5C133.52 83.9773 135.25 80.7415 137.79 78.2018C140.33 75.662 143.565 73.9325 147.088 73.2318C150.611 72.5311 154.262 72.8906 157.58 74.2651C160.899 75.6396 163.735 77.9672 165.73 80.9536C167.726 83.94 168.791 87.4511 168.791 91.0428C168.783 95.8567 166.867 100.471 163.463 103.875C160.059 107.279 155.445 109.195 150.631 109.203ZM150.631 74.8828C147.434 74.8828 144.31 75.8306 141.653 77.6063C138.995 79.382 136.924 81.9058 135.701 84.8586C134.478 87.8115 134.158 91.0607 134.781 94.1954C135.405 97.3301 136.944 100.21 139.204 102.47C141.464 104.73 144.344 106.269 147.478 106.892C150.613 107.516 153.862 107.196 156.815 105.973C159.768 104.75 162.291 102.678 164.067 100.021C165.843 97.3633 166.791 94.239 166.791 91.0428C166.785 86.7585 165.081 82.6512 162.052 79.6218C159.023 76.5924 154.915 74.8881 150.631 74.8828Z" fill="#CE3B28"/>
<path d="M196.631 109.203C193.039 109.203 189.528 108.138 186.542 106.142C183.555 104.147 181.228 101.311 179.853 97.9923C178.479 94.674 178.119 91.0227 178.82 87.5C179.52 83.9773 181.25 80.7415 183.79 78.2018C186.33 75.662 189.565 73.9325 193.088 73.2318C196.611 72.5311 200.262 72.8906 203.58 74.2651C206.899 75.6396 209.735 77.9672 211.73 80.9536C213.726 83.94 214.791 87.4511 214.791 91.0428C214.783 95.8567 212.867 100.471 209.463 103.875C206.059 107.279 201.445 109.195 196.631 109.203ZM196.631 74.8828C193.434 74.8828 190.31 75.8306 187.653 77.6063C184.995 79.382 182.924 81.9058 181.701 84.8586C180.478 87.8115 180.158 91.0607 180.781 94.1954C181.405 97.3301 182.944 100.21 185.204 102.47C187.464 104.73 190.344 106.269 193.478 106.892C196.613 107.516 199.862 107.196 202.815 105.973C205.768 104.75 208.291 102.678 210.067 100.021C211.843 97.3633 212.791 94.239 212.791 91.0428C212.785 86.7585 211.081 82.6512 208.052 79.6218C205.023 76.5924 200.915 74.8881 196.631 74.8828Z" fill="#CE3B28"/>
<path d="M179.071 90.1029C172.781 87.8829 168.241 90.0429 168.201 90.1029L167.311 88.313C167.521 88.203 172.61 85.7329 179.73 88.2629L179.071 90.1029Z" fill="#CE3B28"/>
<path d="M214.241 89.1932L213.061 87.5732C213.451 87.2932 225.54 77.7732 232.46 81.5732L230.36 81.9332C222.67 81.8332 214.331 89.1332 214.241 89.1932Z" fill="#CE3B28"/>
<defs>
<filter id="filter0_b_1252_8528" x="131.4" y="71.8027" width="38.46" height="38.46" filterUnits="userSpaceOnUse" color-interpolation-filters="sRGB">
<feFlood flood-opacity="0" result="BackgroundImageFix"/>
<feGaussianBlur in="BackgroundImage" stdDeviation="1"/>
<feComposite in2="SourceAlpha" operator="in" result="effect1_backgroundBlur_1252_8528"/>
<feBlend mode="normal" in="SourceGraphic" in2="effect1_backgroundBlur_1252_8528" result="shape"/>
</filter>
<filter id="filter1_b_1252_8528" x="177.4" y="71.8027" width="38.46" height="38.46" filterUnits="userSpaceOnUse" color-interpolation-filters="sRGB">
<feFlood flood-opacity="0" result="BackgroundImageFix"/>
<feGaussianBlur in="BackgroundImage" stdDeviation="1"/>
<feComposite in2="SourceAlpha" operator="in" result="effect1_backgroundBlur_1252_8528"/>
<feBlend mode="normal" in="SourceGraphic" in2="effect1_backgroundBlur_1252_8528" result="shape"/>
</filter>
<linearGradient id="paint0_linear_1252_8528" x1="783041" y1="336407" x2="793680" y2="354891" gradientUnits="userSpaceOnUse">
<stop stop-color="#7C3425"/>
<stop offset="1" stop-color="#60261D"/>
</linearGradient>
<linearGradient id="paint1_linear_1252_8528" x1="-388999" y1="25823.3" x2="-388999" y2="19426.5" gradientUnits="userSpaceOnUse">
<stop stop-color="white" stop-opacity="0.8"/>
<stop offset="1" stop-color="white" stop-opacity="0.3"/>
</linearGradient>
<linearGradient id="paint2_linear_1252_8528" x1="-388953" y1="25823.3" x2="-388953" y2="19426.5" gradientUnits="userSpaceOnUse">
<stop stop-color="white" stop-opacity="0.8"/>
<stop offset="1" stop-color="white" stop-opacity="0.3"/>
</linearGradient>
</defs>
</svg>
