<svg width="241" height="423" viewBox="0 0 241 423" fill="none" xmlns="http://www.w3.org/2000/svg">
<path d="M101.96 176.783C112.25 180.843 109.56 235.183 103.79 276.273C91.7196 275.373 78.7895 272.023 69.6895 269.273C82.5895 190.393 101.96 176.783 101.96 176.783Z" fill="#BA2F24"/>
<path d="M65.3198 300.982C66.6498 289.382 68.1199 278.832 69.6899 269.242C78.7599 272.022 91.69 275.372 103.79 276.242C102.13 288.072 100.21 298.812 98.27 306.932C89.61 343.262 53.6802 407.052 53.6802 407.052C39.7702 410.382 33.3398 401.662 33.3398 401.662C45.7598 358.932 65.3198 300.982 65.3198 300.982Z" fill="url(#paint0_linear_1253_9557)"/>
<path d="M68.0698 283.542C68.0698 283.542 64.0699 284.212 65.1499 277.852C66.2299 271.492 67.0001 260.852 71.3701 261.762C71.3701 261.762 96.4698 271.432 111.32 272.362C111.32 272.362 113.79 272.532 112.64 276.502C111.49 280.472 110.97 291.932 105.32 291.112C105.32 291.112 79.5898 287.392 68.0698 283.542Z" fill="#D8453A"/>
<path d="M46.1704 394.032C38.0204 392.242 33.3403 401.692 33.3403 401.692C33.3403 401.692 26.7106 418.172 25.8506 424.422C24.9906 430.672 30.1007 444.232 33.4507 446.872C33.4507 446.872 40.0706 451.402 42.1606 453.222C42.1606 453.222 45.0103 454.522 46.0503 450.142C46.0503 450.142 49.9803 450.772 51.0503 447.502C53.5506 444.559 55.0836 440.917 55.4404 437.072C55.4404 437.072 53.7806 429.072 51.6406 425.812C51.6406 425.812 55.9606 414.212 53.6406 407.082C53.6806 407.082 54.3204 395.822 46.1704 394.032Z" fill="#FAA284"/>
<path d="M45.6803 407.683C45.6803 407.683 44.0299 419.112 42.0499 425.522C42.0499 425.522 47.77 433.993 44.42 437.673C40.6114 434.762 37.1338 431.442 34.0499 427.772C34.0499 427.772 37.8398 438.773 38.4898 440.473C39.1398 442.173 44.58 445.583 45.13 448.473C45.13 448.473 49.4303 446.953 49.7003 444.603C49.7003 444.603 53.5202 440.403 53.3902 437.463C52.6978 433.713 51.7418 430.017 50.5299 426.403C50.5299 426.403 56.2699 414.993 53.2599 407.203C53.0699 406.693 46.0303 408.013 45.6803 407.683Z" fill="#EF8D72"/>
<path d="M149.46 0.742773C149.46 0.742773 225.96 -10.7572 221.96 56.7428C217.96 124.243 235.13 190.573 233.54 238.573C233.54 238.573 176.64 258.573 105.3 238.573C105.3 238.573 107.71 145.513 99.1701 81.2826C89.9201 11.9926 114.08 -1.75723 149.46 0.742773Z" fill="url(#paint1_linear_1253_9557)"/>
<path d="M194.21 327.234C194.21 327.234 229.371 368.544 238.521 540.914C238.521 540.914 163.371 563.914 55.8506 540.914C55.8506 540.914 74.5206 363.634 106.911 325.664L194.21 327.234Z" fill="#353B42"/>
<path d="M183.37 169.212C183.37 169.212 165.37 165.151 155.37 165.041C145.37 164.931 130.18 168.612 130.18 168.612C114.84 172.702 101.95 176.781 101.95 176.781L98.9502 204.352C83.2702 224.422 83.4102 230.042 83.4102 238.922C83.4102 254.292 97.0298 263.712 97.0298 263.712L106.94 326.072C159.08 346.342 194.16 327.232 194.16 327.232C199.94 287.842 214.8 237.342 214.8 237.342V178.801C206.85 175.141 191.46 171.552 183.37 169.212Z" fill="#CE3B28"/>
<path opacity="0.2" d="M134.27 202.462L149.459 188.291L157.39 205.791C157.39 205.791 181.82 191.532 183.64 169.192C182.54 168.952 165.24 165.141 155.56 165.041C145.56 164.931 130.29 168.612 130.29 168.612L129.729 168.762C129.019 175.282 128.46 189.392 134.27 202.462Z" fill="black"/>
<path d="M142.16 157.033L142.06 181.783L172.34 181.903L172.47 149.703C163.528 155.601 152.809 158.193 142.16 157.033Z" fill="#FAA284"/>
<path d="M172.459 149.703L172.56 124.903L142.279 124.783L142.149 157.033C152.798 158.193 163.518 155.601 172.459 149.703Z" fill="#EF8D72"/>
<path d="M142.16 157.033C142.16 157.033 141.53 172.613 151.49 178.343C151.49 178.343 171.04 173.003 172.44 157.033L183.66 169.213C183.66 169.213 176.56 190.043 158.31 198.543L150.86 181.843L135.51 197.013C135.51 197.013 129.29 179.303 130.33 167.673L142.16 157.033Z" fill="#CE3B28"/>
<path opacity="0.1" d="M86.3705 244.443C86.3705 244.443 90.3205 247.802 98.9305 248.542C116.311 250.042 152.811 253.163 177.931 249.133C188.471 247.433 190.221 242.133 198.161 235.893C198.161 235.893 199.43 262.893 166.4 262.363C133.37 261.833 88.4605 265.873 86.3705 244.443Z" fill="black"/>
<path d="M191.46 76.0117C191.46 76.0117 205.46 77.5717 206.63 84.2417C207.8 90.9117 204.42 117.242 209.86 165.242C209.86 165.242 197.29 122.522 197.96 97.7117C197.92 97.7117 190.98 84.3917 191.46 76.0117Z" fill="#511E17"/>
<path d="M218.931 31.7527C215.276 21.2478 207.651 12.5927 197.69 7.64258C189.56 20.3926 169.78 32.2925 146.34 28.5725C125.53 25.2725 121.081 12.8027 120.581 4.22266C112.631 7.61266 106.331 13.5827 102.271 23.2227C139.621 53.6727 191.021 41.8227 218.931 31.7527Z" fill="#994A3D"/>
<path d="M98.2391 73.814C98.2391 73.814 100.309 131.534 101.589 160.574C102.919 190.994 101.4 225.574 92.1595 238.244C92.1595 238.244 122.579 244.244 125.919 222.914C129.259 201.584 122.779 99.5541 116.599 72.9141L98.2391 73.814Z" fill="#7C3425"/>
<path d="M198.76 82.3223L197.96 82.6023C197.96 82.6023 192.39 86.2425 191.42 76.0125C164.35 63.3925 146.34 28.5723 146.34 28.5723C114.08 32.9123 106.14 56.5724 105.26 76.4524C106.74 83.8724 108.57 95.7625 108 106.012C106.57 131.572 128.13 148.222 147.28 148.192C184.07 148.142 193.42 115.492 193.42 115.492C193.42 115.492 210.53 118.412 212.74 95.4324C214.54 76.6424 198.76 82.3223 198.76 82.3223Z" fill="#FAA284"/>
<g opacity="0.9">
<path opacity="0.09" d="M125.09 94.052C128.116 94.6241 130.905 96.0807 133.103 98.2378C135.301 100.395 136.81 103.155 137.439 106.17C138.068 109.185 137.789 112.319 136.637 115.175C135.485 118.031 133.512 120.482 130.967 122.216C128.423 123.951 125.421 124.892 122.341 124.92C119.261 124.949 116.243 124.063 113.666 122.376C111.09 120.689 109.072 118.275 107.867 115.44C106.663 112.606 106.326 109.478 106.9 106.452C107.279 104.443 108.05 102.528 109.17 100.818C110.29 99.1072 111.736 97.6342 113.425 96.4827C115.114 95.3311 117.014 94.5235 119.015 94.1064C121.017 93.6894 123.081 93.6709 125.09 94.052Z" fill="#EA7460"/>
<path opacity="0.18" d="M124.81 95.523C127.545 96.0384 130.066 97.3535 132.054 99.3018C134.041 101.25 135.406 103.744 135.976 106.469C136.546 109.193 136.295 112.025 135.255 114.606C134.215 117.188 132.433 119.404 130.134 120.972C127.835 122.541 125.122 123.393 122.339 123.419C119.556 123.446 116.828 122.646 114.499 121.122C112.17 119.598 110.346 117.417 109.257 114.856C108.167 112.295 107.862 109.468 108.38 106.733C109.076 103.07 111.196 99.8323 114.277 97.7307C117.357 95.6292 121.145 94.8351 124.81 95.523Z" fill="#EA7460"/>
<path opacity="0.27" d="M124.54 97.003C126.98 97.4676 129.227 98.645 130.997 100.387C132.768 102.128 133.983 104.356 134.488 106.787C134.993 109.219 134.766 111.746 133.835 114.049C132.904 116.351 131.311 118.326 129.258 119.724C127.205 121.121 124.784 121.879 122.3 121.901C119.816 121.922 117.382 121.207 115.305 119.846C113.228 118.484 111.601 116.538 110.63 114.252C109.659 111.966 109.387 109.443 109.85 107.003C110.157 105.382 110.781 103.836 111.685 102.456C112.59 101.076 113.758 99.8873 115.122 98.9586C116.487 98.0299 118.021 97.3791 119.636 97.0436C121.252 96.708 122.919 96.6943 124.54 97.003Z" fill="#EA7460"/>
<path opacity="0.36" d="M124.26 98.4732C126.411 98.8811 128.392 99.9175 129.954 101.451C131.516 102.985 132.588 104.948 133.035 107.091C133.481 109.234 133.282 111.462 132.463 113.492C131.644 115.522 130.241 117.263 128.432 118.496C126.623 119.729 124.49 120.398 122.301 120.419C120.111 120.439 117.966 119.81 116.134 118.611C114.302 117.412 112.867 115.696 112.01 113.682C111.154 111.667 110.913 109.444 111.32 107.293C111.59 105.864 112.139 104.502 112.936 103.286C113.732 102.069 114.761 101.021 115.963 100.202C117.164 99.3829 118.516 98.8087 119.94 98.512C121.363 98.2154 122.831 98.2022 124.26 98.4732Z" fill="#EA7460"/>
<path opacity="0.45" d="M123.98 99.9418C125.839 100.295 127.552 101.192 128.901 102.519C130.251 103.845 131.177 105.543 131.562 107.395C131.948 109.248 131.775 111.174 131.066 112.928C130.357 114.683 129.143 116.188 127.579 117.254C126.015 118.319 124.17 118.896 122.277 118.913C120.385 118.93 118.53 118.385 116.947 117.348C115.364 116.311 114.124 114.827 113.384 113.085C112.644 111.343 112.438 109.421 112.79 107.562C113.024 106.326 113.499 105.149 114.188 104.098C114.877 103.046 115.767 102.141 116.806 101.433C117.845 100.726 119.014 100.23 120.244 99.9738C121.475 99.7179 122.745 99.707 123.98 99.9418Z" fill="#EA7460"/>
<path opacity="0.55" d="M123.7 101.393C125.269 101.69 126.714 102.446 127.853 103.564C128.991 104.683 129.773 106.114 130.098 107.677C130.424 109.24 130.278 110.865 129.68 112.345C129.082 113.825 128.059 115.094 126.739 115.993C125.42 116.891 123.863 117.378 122.267 117.392C120.67 117.405 119.106 116.945 117.771 116.07C116.436 115.194 115.391 113.942 114.768 112.472C114.145 111.003 113.972 109.381 114.27 107.813C114.67 105.712 115.888 103.855 117.656 102.651C119.425 101.447 121.598 100.995 123.7 101.393Z" fill="#EA7460"/>
<path opacity="0.64" d="M123.46 102.893C124.736 103.135 125.912 103.75 126.839 104.661C127.766 105.572 128.402 106.737 128.667 108.009C128.932 109.281 128.813 110.603 128.327 111.808C127.84 113.013 127.007 114.046 125.933 114.778C124.858 115.509 123.592 115.906 122.292 115.917C120.993 115.928 119.719 115.554 118.633 114.842C117.546 114.13 116.695 113.111 116.187 111.915C115.68 110.719 115.537 109.399 115.78 108.123C115.941 107.275 116.267 106.467 116.74 105.746C117.213 105.024 117.823 104.403 118.537 103.917C119.25 103.431 120.052 103.091 120.896 102.915C121.741 102.739 122.612 102.732 123.46 102.893Z" fill="#EA7460"/>
<path opacity="0.73" d="M123.14 104.392C124.125 104.581 125.033 105.059 125.747 105.764C126.461 106.469 126.949 107.371 127.151 108.354C127.352 109.338 127.257 110.359 126.878 111.288C126.498 112.217 125.851 113.013 125.019 113.574C124.187 114.136 123.207 114.437 122.203 114.441C121.199 114.445 120.217 114.151 119.381 113.596C118.544 113.041 117.891 112.25 117.505 111.323C117.118 110.397 117.016 109.377 117.209 108.392C117.471 107.078 118.24 105.92 119.351 105.171C120.462 104.422 121.823 104.142 123.14 104.392Z" fill="#EA7460"/>
<path opacity="0.82" d="M122.861 105.833C123.554 105.964 124.194 106.298 124.698 106.792C125.202 107.286 125.549 107.918 125.694 108.609C125.838 109.3 125.775 110.018 125.512 110.673C125.249 111.328 124.797 111.89 124.214 112.289C123.631 112.687 122.943 112.904 122.237 112.911C121.531 112.919 120.839 112.717 120.248 112.331C119.657 111.945 119.193 111.392 118.916 110.743C118.639 110.094 118.56 109.377 118.691 108.683C118.777 108.222 118.954 107.783 119.21 107.39C119.467 106.997 119.798 106.659 120.185 106.394C120.573 106.129 121.008 105.944 121.467 105.847C121.926 105.751 122.4 105.746 122.861 105.833Z" fill="#EA7460"/>
<path opacity="0.91" d="M122.58 107.313C122.982 107.39 123.352 107.584 123.644 107.87C123.936 108.157 124.137 108.524 124.22 108.925C124.304 109.326 124.266 109.742 124.113 110.122C123.96 110.501 123.698 110.827 123.36 111.057C123.022 111.288 122.623 111.413 122.213 111.417C121.804 111.421 121.403 111.303 121.06 111.079C120.718 110.855 120.449 110.534 120.289 110.158C120.129 109.781 120.084 109.366 120.16 108.963C120.209 108.696 120.31 108.44 120.459 108.212C120.608 107.983 120.8 107.787 121.025 107.633C121.25 107.48 121.503 107.373 121.77 107.318C122.037 107.263 122.312 107.261 122.58 107.313Z" fill="#EA7460"/>
<path opacity="0.9" d="M122.76 109.452C122.732 109.602 122.646 109.734 122.52 109.821C122.394 109.907 122.24 109.94 122.09 109.912C121.94 109.884 121.807 109.798 121.721 109.672C121.635 109.547 121.602 109.392 121.63 109.242C121.643 109.168 121.671 109.097 121.712 109.033C121.753 108.969 121.806 108.915 121.869 108.872C121.931 108.829 122.001 108.799 122.075 108.783C122.149 108.768 122.225 108.768 122.3 108.782C122.449 108.811 122.581 108.898 122.667 109.023C122.753 109.148 122.786 109.302 122.76 109.452Z" fill="#EA7460"/>
</g>
<g opacity="0.9">
<path opacity="0.09" d="M174.46 92.9413C177.699 93.5545 180.684 95.1146 183.037 97.4242C185.39 99.7338 187.005 102.689 187.678 105.917C188.351 109.144 188.052 112.499 186.819 115.556C185.585 118.614 183.474 121.237 180.749 123.094C178.025 124.951 174.811 125.959 171.515 125.99C168.218 126.02 164.986 125.073 162.227 123.267C159.469 121.461 157.309 118.877 156.018 115.843C154.728 112.809 154.367 109.461 154.98 106.221C155.387 104.07 156.214 102.02 157.413 100.189C158.612 98.357 160.16 96.7797 161.969 95.5465C163.778 94.3133 165.812 93.4486 167.956 93.0016C170.099 92.5546 172.309 92.5341 174.46 92.9413Z" fill="#EA7460"/>
<path opacity="0.18" d="M174.171 94.5129C177.1 95.0674 179.798 96.4779 181.925 98.5661C184.052 100.654 185.512 103.326 186.12 106.244C186.729 109.162 186.458 112.195 185.343 114.959C184.227 117.724 182.317 120.095 179.854 121.773C177.391 123.452 174.485 124.362 171.504 124.389C168.524 124.416 165.602 123.559 163.109 121.925C160.615 120.292 158.663 117.955 157.497 115.212C156.332 112.469 156.006 109.441 156.561 106.513C156.929 104.568 157.675 102.715 158.76 101.059C159.844 99.4032 161.244 97.9772 162.879 96.8627C164.515 95.7482 166.354 94.9671 168.291 94.5639C170.229 94.1607 172.227 94.1434 174.171 94.5129Z" fill="#EA7460"/>
<path opacity="0.27" d="M173.871 96.0923C176.486 96.5878 178.896 97.8478 180.795 99.7129C182.695 101.578 183.999 103.964 184.542 106.571C185.085 109.177 184.843 111.885 183.847 114.354C182.851 116.823 181.145 118.941 178.945 120.44C176.745 121.939 174.151 122.752 171.489 122.777C168.827 122.801 166.217 122.035 163.99 120.577C161.763 119.118 160.019 117.032 158.978 114.582C157.936 112.132 157.645 109.428 158.141 106.812C158.468 105.075 159.135 103.419 160.104 101.94C161.072 100.461 162.322 99.1868 163.783 98.1912C165.244 97.1955 166.887 96.4976 168.618 96.1375C170.349 95.7774 172.134 95.762 173.871 96.0923Z" fill="#EA7460"/>
<path opacity="0.36" d="M173.57 97.6724C175.873 98.1088 177.994 99.2182 179.666 100.86C181.338 102.502 182.486 104.603 182.965 106.897C183.443 109.192 183.23 111.576 182.353 113.749C181.476 115.923 179.974 117.787 178.038 119.107C176.101 120.427 173.817 121.143 171.473 121.165C169.13 121.186 166.832 120.513 164.872 119.229C162.911 117.945 161.376 116.109 160.459 113.952C159.542 111.795 159.284 109.415 159.72 107.112C160.307 104.025 162.095 101.297 164.692 99.5267C167.289 97.7567 170.482 97.0898 173.57 97.6724Z" fill="#EA7460"/>
<path opacity="0.45" d="M173.271 99.2514C175.258 99.6341 177.087 100.597 178.527 102.018C179.967 103.44 180.954 105.256 181.363 107.237C181.772 109.219 181.585 111.278 180.824 113.153C180.064 115.028 178.766 116.636 177.092 117.774C175.419 118.912 173.446 119.529 171.423 119.546C169.399 119.564 167.416 118.981 165.723 117.872C164.031 116.764 162.705 115.178 161.912 113.317C161.12 111.455 160.897 109.4 161.271 107.411C161.521 106.086 162.029 104.824 162.768 103.696C163.507 102.568 164.461 101.597 165.576 100.839C166.691 100.081 167.945 99.5499 169.265 99.2775C170.586 99.0051 171.947 98.9963 173.271 99.2514Z" fill="#EA7460"/>
<path opacity="0.55" d="M172.981 100.823C174.662 101.14 176.212 101.948 177.434 103.146C178.656 104.344 179.495 105.877 179.846 107.552C180.196 109.227 180.042 110.968 179.403 112.556C178.764 114.143 177.668 115.505 176.254 116.469C174.84 117.434 173.173 117.957 171.462 117.973C169.75 117.989 168.073 117.498 166.641 116.56C165.21 115.623 164.088 114.282 163.419 112.707C162.749 111.132 162.562 109.394 162.881 107.713C163.091 106.597 163.519 105.534 164.14 104.583C164.762 103.633 165.565 102.814 166.503 102.175C167.441 101.535 168.496 101.086 169.607 100.854C170.719 100.622 171.865 100.612 172.981 100.823Z" fill="#EA7460"/>
<path opacity="0.64" d="M172.681 102.392C174.036 102.657 175.282 103.317 176.263 104.289C177.244 105.261 177.915 106.501 178.193 107.854C178.471 109.206 178.342 110.611 177.824 111.891C177.305 113.17 176.42 114.268 175.279 115.046C174.138 115.824 172.792 116.247 171.412 116.261C170.031 116.276 168.676 115.883 167.519 115.13C166.362 114.377 165.453 113.298 164.907 112.03C164.361 110.762 164.202 109.36 164.451 108.002C164.617 107.091 164.963 106.221 165.468 105.445C165.973 104.668 166.628 104 167.394 103.478C168.159 102.956 169.021 102.591 169.928 102.405C170.836 102.218 171.771 102.214 172.681 102.392Z" fill="#EA7460"/>
<path opacity="0.73" d="M172.381 103.982C173.435 104.183 174.407 104.691 175.173 105.444C175.938 106.196 176.464 107.159 176.683 108.21C176.902 109.261 176.804 110.353 176.403 111.348C176.001 112.344 175.313 113.198 174.426 113.803C173.539 114.408 172.493 114.736 171.419 114.746C170.346 114.757 169.293 114.449 168.395 113.861C167.496 113.274 166.792 112.433 166.371 111.445C165.95 110.457 165.832 109.367 166.03 108.312C166.162 107.61 166.432 106.942 166.822 106.345C167.213 105.747 167.718 105.233 168.308 104.83C168.898 104.428 169.561 104.146 170.26 104.001C170.959 103.855 171.679 103.849 172.381 103.982Z" fill="#EA7460"/>
<path opacity="0.82" d="M172.08 105.562C172.823 105.705 173.507 106.066 174.044 106.599C174.582 107.131 174.949 107.811 175.099 108.553C175.25 109.294 175.177 110.064 174.889 110.764C174.602 111.464 174.113 112.062 173.485 112.484C172.856 112.906 172.117 113.131 171.36 113.132C170.604 113.133 169.864 112.909 169.235 112.489C168.605 112.069 168.115 111.471 167.826 110.772C167.536 110.073 167.461 109.303 167.61 108.562C167.808 107.573 168.389 106.702 169.227 106.14C170.064 105.578 171.09 105.37 172.08 105.562Z" fill="#EA7460"/>
<path opacity="0.91" d="M171.78 107.142C172.068 107.194 172.342 107.302 172.587 107.461C172.833 107.619 173.043 107.825 173.208 108.066C173.373 108.307 173.488 108.579 173.547 108.865C173.606 109.151 173.607 109.446 173.55 109.732C173.469 110.164 173.263 110.562 172.956 110.876C172.648 111.19 172.255 111.406 171.825 111.496C171.395 111.586 170.948 111.547 170.541 111.384C170.133 111.22 169.783 110.939 169.536 110.576C169.288 110.214 169.153 109.785 169.148 109.346C169.144 108.907 169.27 108.476 169.51 108.109C169.751 107.741 170.094 107.453 170.499 107.281C170.903 107.109 171.349 107.061 171.78 107.142Z" fill="#EA7460"/>
<path opacity="0.9" d="M171.97 109.391C171.939 109.551 171.846 109.693 171.711 109.784C171.576 109.876 171.411 109.911 171.251 109.881C171.106 109.836 170.982 109.739 170.904 109.609C170.826 109.478 170.798 109.324 170.827 109.174C170.855 109.025 170.938 108.891 171.058 108.798C171.179 108.706 171.329 108.661 171.481 108.672C171.56 108.686 171.637 108.716 171.705 108.76C171.773 108.804 171.831 108.862 171.877 108.929C171.922 108.996 171.954 109.071 171.97 109.151C171.987 109.23 171.986 109.312 171.97 109.391Z" fill="#EA7460"/>
</g>
<path d="M146.86 112.204C140.47 115.114 136.46 113.604 135.63 109.314C135.09 106.524 136.72 103.314 138.46 101.774C142.06 98.5939 143.66 89.2641 143.67 89.1641C143.95 91.1641 143.55 98.954 139.17 104.364C138.726 104.858 138.389 105.437 138.179 106.067C137.969 106.697 137.892 107.363 137.951 108.024C138.181 111.214 141.25 113.704 146.86 112.204Z" fill="#DB7C65"/>
<path d="M119.45 87.0604C113.45 87.0604 110.683 91.0606 110.683 93.9145C110.683 93.9145 109.745 96.5709 120.45 97.5605C129.197 97.415 132.059 94.9471 132.039 94.2962C131.997 92.549 130.45 87.5605 119.45 87.0604Z" fill="#F2F0F0"/>
<path d="M125.575 91.1537C125.539 90.3013 125.249 89.479 124.743 88.7925C124.237 88.1059 123.537 87.5864 122.733 87.3005C121.929 87.0147 121.058 86.9755 120.232 87.1882C119.406 87.4009 118.662 87.8556 118.096 88.494C117.53 89.1325 117.168 89.9254 117.056 90.7712C116.944 91.6169 117.087 92.4769 117.467 93.2406C117.847 94.0043 118.447 94.637 119.19 95.0574C119.932 95.4778 120.783 95.6667 121.634 95.6C122.742 95.5232 123.776 95.0142 124.513 94.1827C125.25 93.3511 125.632 92.2634 125.575 91.1537Z" fill="#487CB8"/>
<path d="M124.336 91.243C124.261 90.4542 123.876 89.7273 123.267 89.2209C122.658 88.7145 121.872 88.4697 121.083 88.5401C120.698 88.5698 120.322 88.6751 119.977 88.85C119.633 89.0249 119.326 89.2659 119.074 89.5594C118.823 89.8529 118.631 90.1931 118.511 90.5605C118.391 90.9279 118.345 91.3154 118.375 91.7008C118.404 92.0862 118.509 92.462 118.684 92.8067C118.859 93.1514 119.1 93.4583 119.394 93.7098C119.687 93.9613 120.027 94.1526 120.395 94.2726C120.762 94.3927 121.15 94.4393 121.535 94.4096C122.326 94.3583 123.063 93.9967 123.588 93.4034C124.113 92.8102 124.382 92.0336 124.336 91.243Z" fill="#18100E"/>
<path d="M125.555 89.9851C125.543 89.8212 125.499 89.6611 125.425 89.5141C125.352 89.3671 125.25 89.236 125.126 89.1283C125.002 89.0206 124.857 88.9384 124.702 88.8865C124.546 88.8345 124.381 88.8138 124.217 88.8255C124.053 88.8371 123.893 88.881 123.746 88.9545C123.599 89.028 123.468 89.1298 123.36 89.254C123.252 89.3782 123.17 89.5224 123.118 89.6783C123.066 89.8343 123.046 89.9989 123.057 90.1629C123.088 90.4897 123.246 90.7915 123.497 91.0029C123.748 91.2144 124.072 91.3185 124.399 91.2929C124.725 91.2711 125.03 91.1215 125.246 90.8766C125.462 90.6317 125.573 90.3113 125.555 89.9851Z" fill="#EFECEC"/>
<path d="M120.461 83.4475C132.858 83.1926 132.025 92.2423 132.025 92.2423C132.025 92.2423 128.514 86.1997 119.887 86.6776C114.6 86.9672 110.67 91.8606 110.67 91.8606C110.67 91.8606 111.122 83.6321 120.461 83.4475Z" fill="#E6966E"/>
<path d="M120.365 85.8915C131.087 85.153 132.027 92.2422 132.027 92.2422C132.027 92.2422 127.797 86.1283 120.255 87.2507C113.365 88.2724 110.675 91.8308 110.675 91.8308C110.675 91.8308 111.148 86.5203 120.365 85.8915Z" fill="#412118"/>
<path d="M166.451 86.0623C173.95 86.5622 176.615 90.5623 176.615 93.8894C176.615 93.8894 175.865 97.1333 165.951 97.5624C156.438 97.4266 155.221 94.534 155.241 93.9502C155.24 89.5625 159.451 87.0626 166.451 86.0623Z" fill="#F2F0F0"/>
<path d="M161.761 90.9269C161.884 89.8187 162.44 88.804 163.307 88.1033C164.174 87.4026 165.283 87.0726 166.393 87.1851C167.202 87.2831 167.965 87.6175 168.586 88.1466C169.207 88.6756 169.658 89.3759 169.883 90.1598C170.108 90.9438 170.097 91.7767 169.852 92.5545C169.606 93.3323 169.137 94.0205 168.502 94.5331C167.868 95.0457 167.096 95.36 166.284 95.4367C165.472 95.5134 164.656 95.3491 163.937 94.9643C163.217 94.5796 162.627 93.9914 162.241 93.2734C161.854 92.5553 161.687 91.7391 161.761 90.9269Z" fill="#487CB8"/>
<path d="M163.049 91.0463C163.091 90.4521 163.308 89.8838 163.674 89.4138C164.04 88.9437 164.537 88.5932 165.103 88.4068C165.668 88.2204 166.277 88.2066 166.85 88.3672C167.424 88.5277 167.937 88.8554 168.323 89.3084C168.71 89.7614 168.953 90.3192 169.022 90.9108C169.09 91.5024 168.981 92.1011 168.708 92.6305C168.435 93.1599 168.011 93.5961 167.49 93.8836C166.968 94.171 166.372 94.2967 165.779 94.2446C164.996 94.1758 164.271 93.8021 163.76 93.2039C163.249 92.6057 162.994 91.8308 163.049 91.0463Z" fill="#18100E"/>
<path d="M168.111 90.1355C168.126 89.8869 168.215 89.6484 168.367 89.4507C168.518 89.253 168.725 89.105 168.961 89.0257C169.197 88.9465 169.452 88.9395 169.692 89.0057C169.932 89.072 170.146 89.2084 170.308 89.3975C170.47 89.5867 170.572 89.8199 170.601 90.0673C170.629 90.3147 170.583 90.565 170.469 90.786C170.354 91.0071 170.176 91.1889 169.958 91.3082C169.739 91.4274 169.489 91.4786 169.242 91.4552C169.08 91.4452 168.922 91.4028 168.777 91.3306C168.632 91.2583 168.502 91.1577 168.397 91.0346C168.292 90.9115 168.212 90.7685 168.163 90.614C168.114 90.4596 168.096 90.2968 168.111 90.1355Z" fill="#EFECEC"/>
<path d="M166.891 83.4203C155.226 82.6151 155.247 91.899 155.247 91.899C155.247 91.899 158.86 85.9239 167.485 86.5591C172.769 86.937 176.603 91.8862 176.603 91.8862C176.603 91.8862 176.973 84.1205 166.891 83.4203Z" fill="#E6966E"/>
<path d="M166.675 85.9074C155.963 85.5443 155.246 91.8997 155.246 91.8997C156.681 90.1873 158.515 88.8547 160.586 88.0195C162.658 87.1843 164.904 86.8723 167.125 87.111C174.101 87.8031 176.623 91.8899 176.623 91.8899C176.623 91.8899 176.087 86.23 166.675 85.9074Z" fill="#412118"/>
<path d="M190.669 107.742C190.669 107.742 188.089 127.612 162.859 138.422C140.609 147.942 118.92 133.202 114.08 129.562C121.62 141.302 134.949 148.212 147.279 148.192C184.069 148.142 193.419 115.492 193.419 115.492C196.754 115.923 200.139 115.283 203.086 113.666C206.034 112.048 208.392 109.536 209.819 106.492C199.229 116.532 190.669 107.742 190.669 107.742Z" fill="#EF8D72"/>
<path d="M133.31 72.6627C133.31 72.6627 124.31 70.2226 111.96 73.8126C111.96 73.8126 111.89 72.8927 114.21 70.9127C116.53 68.9327 124.5 67.0427 131.47 69.9127C131.46 69.9027 135.09 71.8327 133.31 72.6627Z" fill="#7C3425"/>
<path d="M153.93 72.1418C153.93 72.1418 162.93 69.5318 175.29 72.9018C175.29 72.9018 175.35 71.9817 172.99 70.0417C170.78 68.2217 162.63 66.3618 155.72 69.3418C155.72 69.3918 152.13 71.3918 153.93 72.1418Z" fill="#7C3425"/>
<path d="M160.16 118.113C160.16 118.113 145.88 121.263 132.51 118.543C132.51 118.543 135.06 130.763 146.51 130.543C157.34 130.393 160.07 120.483 160.16 118.113Z" fill="#B22828"/>
<path d="M146.12 124.184C137.31 124.324 134.66 120.704 133.52 118.734C143.9 120.614 152.21 119.264 159.46 118.254C158.71 120.474 154.46 124.054 146.12 124.184Z" fill="white"/>
<path d="M146.34 28.5723C114.08 32.9123 106.14 56.5724 105.26 76.4524C105.26 76.4524 108.48 38.8524 141.19 32.4524C141.19 32.4524 151.6 63.3122 191.42 76.0522C164.35 63.3922 146.34 28.5723 146.34 28.5723Z" fill="#EF8D72"/>
<g filter="url(#filter0_b_1253_9557)">
<path d="M113.665 106.962C104.873 103.32 100.698 93.2414 104.34 84.4499C107.982 75.6584 118.061 71.4836 126.852 75.1251C135.644 78.7667 139.818 88.8457 136.177 97.6372C132.535 106.429 122.456 110.604 113.665 106.962Z" fill="url(#paint2_linear_1253_9557)"/>
</g>
<g filter="url(#filter1_b_1253_9557)">
<path d="M159.664 106.966C150.872 103.324 146.697 93.2453 150.339 84.4538C153.981 75.6623 164.06 71.4875 172.851 75.129C181.643 78.7706 185.817 88.8496 182.176 97.6411C178.534 106.433 168.455 110.607 159.664 106.966Z" fill="url(#paint3_linear_1253_9557)"/>
</g>
<path d="M138.46 91.0428C138.46 87.4511 137.395 83.9401 135.399 80.9537C133.404 77.9673 130.568 75.6397 127.25 74.2652C123.931 72.8907 120.28 72.531 116.757 73.2317C113.235 73.9325 109.999 75.662 107.459 78.2017C104.919 80.7414 103.189 83.9774 102.489 87.5001C101.788 91.0228 102.148 94.6742 103.522 97.9925C104.897 101.311 107.225 104.147 110.211 106.142C113.197 108.138 116.708 109.203 120.3 109.203C125.115 109.198 129.731 107.283 133.135 103.878C136.54 100.473 138.455 95.8575 138.46 91.0428ZM136.46 91.0428C136.46 94.2389 135.512 97.3633 133.736 100.021C131.961 102.678 129.437 104.75 126.484 105.973C123.531 107.196 120.282 107.516 117.147 106.892C114.013 106.269 111.133 104.73 108.873 102.47C106.613 100.21 105.074 97.3304 104.451 94.1956C103.827 91.0609 104.147 87.8116 105.37 84.8587C106.593 81.9058 108.664 79.3819 111.322 77.6063C113.979 75.8306 117.104 74.8829 120.3 74.8829C124.584 74.8882 128.692 76.5924 131.721 79.6219C134.751 82.6513 136.455 86.7585 136.46 91.0428Z" fill="#CE3B28"/>
<path d="M184.46 91.0428C184.46 87.4511 183.395 83.9401 181.399 80.9537C179.404 77.9673 176.568 75.6397 173.25 74.2652C169.931 72.8907 166.28 72.531 162.757 73.2317C159.235 73.9325 155.999 75.662 153.459 78.2017C150.919 80.7414 149.189 83.9774 148.489 87.5001C147.788 91.0228 148.148 94.6742 149.522 97.9925C150.897 101.311 153.225 104.147 156.211 106.142C159.197 108.138 162.708 109.203 166.3 109.203C171.115 109.198 175.731 107.283 179.135 103.878C182.54 100.473 184.455 95.8575 184.46 91.0428ZM182.46 91.0428C182.46 94.2389 181.512 97.3633 179.736 100.021C177.961 102.678 175.437 104.75 172.484 105.973C169.531 107.196 166.282 107.516 163.147 106.892C160.013 106.269 157.133 104.73 154.873 102.47C152.613 100.21 151.074 97.3304 150.451 94.1956C149.827 91.0609 150.147 87.8116 151.37 84.8587C152.593 81.9058 154.664 79.3819 157.322 77.6063C159.979 75.8306 163.104 74.8829 166.3 74.8829C170.584 74.8882 174.692 76.5924 177.721 79.6219C180.751 82.6513 182.455 86.7585 182.46 91.0428Z" fill="#CE3B28"/>
<path d="M148.701 90.1028C142.411 87.8828 137.871 90.0428 137.831 90.1028L136.94 88.3128C137.15 88.2028 142.24 85.733 149.36 88.263L148.701 90.1028Z" fill="#CE3B28"/>
<path d="M183.87 89.1923L182.69 87.5722C183.08 87.2922 195.17 77.7722 202.09 81.5722L199.99 81.9323C192.31 81.8323 183.96 89.1323 183.87 89.1923Z" fill="#CE3B28"/>
<path opacity="0.1" d="M135.22 344.793C135.22 344.793 167.86 359.963 207.15 352.743C204.24 345.643 200.72 336.183 194.21 327.233C199.99 287.843 214.83 237.413 214.83 237.413V235.293L197.35 238.123L190.11 286.853L136.11 295.123C136.11 295.123 117.79 283.123 100.02 282.603L106.85 325.663C103.25 330.259 100.186 335.251 97.7197 340.543C108.41 340.603 126.71 344.983 135.22 344.793Z" fill="black"/>
<path d="M82.6899 332.962H87.9199C98.7799 332.962 107.62 322.622 107.62 309.912C107.62 297.202 98.7799 286.852 87.9199 286.852H82.6899V293.222H87.9199C95.2799 293.222 101.26 300.702 101.26 309.912C101.26 319.122 95.2599 326.592 87.9199 326.592H82.6899V332.962Z" fill="#841819"/>
<path d="M48.3701 284.473H88.2598V335.792H48.3701V284.473Z" fill="#B42525"/>
<path d="M104.08 295.852C101.92 293.852 102.7 290.732 102.7 290.732C144.51 293.542 137.95 322.232 137.95 322.232C133.68 339.232 116.81 335.702 103.32 331.922C89.8296 328.142 95.4895 307.332 95.4895 307.332C85.5395 297.392 95.1699 295.702 104.08 295.852Z" fill="#FAA284"/>
<path d="M197.279 279.183L197.6 231.033C197.6 231.033 195.22 195.623 214.85 178.803C214.85 178.803 245.25 192.143 235.52 281.453C222.733 282.742 209.823 281.976 197.279 279.183Z" fill="#CE3B28"/>
<path d="M135.23 306.063L197.161 296.734L197.28 279.184C209.824 281.977 222.734 282.743 235.521 281.454C234.311 292.574 232.521 304.864 229.891 318.454C229.891 318.454 221.13 349.774 132.42 331.604C132.46 331.614 127.63 320.313 135.23 306.063Z" fill="#FAA284"/>
<path d="M235.26 292.494C235.26 292.494 238.94 294.174 239.53 287.744C240.12 281.314 242.09 270.824 237.63 270.594C237.63 270.594 210.89 273.594 196.29 270.654C196.29 270.654 193.86 270.184 193.96 274.314C194.06 278.444 191.64 289.664 197.31 290.314C197.31 290.304 223.13 293.314 235.26 292.494Z" fill="#D8453A"/>
<defs>
<filter id="filter0_b_1253_9557" x="101.024" y="71.8086" width="38.4688" height="38.4688" filterUnits="userSpaceOnUse" color-interpolation-filters="sRGB">
<feFlood flood-opacity="0" result="BackgroundImageFix"/>
<feGaussianBlur in="BackgroundImage" stdDeviation="1"/>
<feComposite in2="SourceAlpha" operator="in" result="effect1_backgroundBlur_1253_9557"/>
<feBlend mode="normal" in="SourceGraphic" in2="effect1_backgroundBlur_1253_9557" result="shape"/>
</filter>
<filter id="filter1_b_1253_9557" x="147.023" y="71.8125" width="38.4688" height="38.4688" filterUnits="userSpaceOnUse" color-interpolation-filters="sRGB">
<feFlood flood-opacity="0" result="BackgroundImageFix"/>
<feGaussianBlur in="BackgroundImage" stdDeviation="1"/>
<feComposite in2="SourceAlpha" operator="in" result="effect1_backgroundBlur_1253_9557"/>
<feBlend mode="normal" in="SourceGraphic" in2="effect1_backgroundBlur_1253_9557" result="shape"/>
</filter>
<linearGradient id="paint0_linear_1253_9557" x1="-307134" y1="362150" x2="-304873" y2="359667" gradientUnits="userSpaceOnUse">
<stop stop-color="#FAA284"/>
<stop offset="1" stop-color="#EF8D72"/>
</linearGradient>
<linearGradient id="paint1_linear_1253_9557" x1="243362" y1="576692" x2="254000" y2="595176" gradientUnits="userSpaceOnUse">
<stop stop-color="#7C3425"/>
<stop offset="1" stop-color="#60261D"/>
</linearGradient>
<linearGradient id="paint2_linear_1253_9557" x1="349802" y1="172786" x2="352250" y2="166877" gradientUnits="userSpaceOnUse">
<stop stop-color="white" stop-opacity="0.8"/>
<stop offset="1" stop-color="white" stop-opacity="0.3"/>
</linearGradient>
<linearGradient id="paint3_linear_1253_9557" x1="349848" y1="172786" x2="352296" y2="166877" gradientUnits="userSpaceOnUse">
<stop stop-color="white" stop-opacity="0.8"/>
<stop offset="1" stop-color="white" stop-opacity="0.3"/>
</linearGradient>
</defs>
</svg>
