<svg width="301" height="429" viewBox="0 0 301 429" fill="none" xmlns="http://www.w3.org/2000/svg">
<path d="M5.60997 25.3C7.60997 25.3 9.60997 27.39 9.60997 29.97V22.5C9.60997 19.92 10.78 17.83 13.11 17.83C15.44 17.83 16.61 19.92 16.61 22.5V16C16.61 14.8065 17.0844 13.6619 17.9283 12.818C18.7722 11.9741 19.9165 11.5 21.11 11.5C22.3034 11.5 23.4482 11.9741 24.2921 12.818C25.136 13.6619 25.61 14.8065 25.61 16V21.6C25.61 20.4065 26.0844 19.2619 26.9283 18.418C27.7722 17.5741 28.9165 17.1 30.11 17.1C31.3034 17.1 32.4482 17.5741 33.2921 18.418C34.136 19.2619 34.61 20.4065 34.61 21.6V56.43L42.6901 48.33C44.8201 46.33 47.69 46.24 49.38 48.09V48.21C51.11 50.06 50.7102 53.21 48.5802 55.16L34.3102 72.96C30.8102 78.45 26.0199 84.17 17.5699 84.17C13.3538 84.1727 9.30933 82.5017 6.32433 79.5242C3.33932 76.5467 1.65796 72.5061 1.65001 68.29V30C1.61001 27.39 3.57997 25.3 5.60997 25.3Z" fill="#FAA284"/>
<path d="M38.8299 165.45C38.8299 165.45 30.7499 94.3303 29.8299 78.3303C29.8299 78.3303 23.4298 71.7303 6.22979 77.3303C6.22979 77.3303 -11.68 170.33 14.43 192.74C14.43 192.74 20.58 198.02 46.49 207.83C47.63 189.26 52.23 177.72 54.68 168.91C49.32 167.93 43.9399 166.77 38.8299 165.45Z" fill="#FAA284"/>
<path d="M113.83 175.39C113.83 175.39 80.9997 173.88 54.7197 168.94C52.2697 177.75 47.6693 189.29 46.5293 207.86C59.8893 212.92 84.5293 219.19 110.259 226.57C110.259 226.57 121.39 205.1 113.83 175.39Z" fill="#BA2F24"/>
<path d="M43.8797 166.8C43.8797 166.8 43.1798 162.8 49.5398 163.85C55.8998 164.9 66.54 165.59 65.68 169.97C65.68 169.97 56.1596 195.13 55.3196 209.97C55.3196 209.97 55.1597 212.43 51.1897 211.31C47.2197 210.19 35.7498 209.73 36.5398 204.08C36.5398 204.1 40.0697 178.34 43.8797 166.8Z" fill="#D8453A"/>
<path d="M164.11 1.3502C164.11 1.3502 240.61 -10.1498 236.61 57.3502C232.61 124.85 249.78 191.18 248.2 239.18C248.2 239.18 191.29 259.18 119.95 239.18C119.95 239.18 122.36 146.12 113.82 81.8902C104.61 12.6002 128.77 -1.1498 164.11 1.3502Z" fill="url(#paint0_linear_1237_3360)"/>
<path d="M208 329.84C208 329.84 243.16 371.15 252.3 543.52C252.3 543.52 177.151 566.52 69.6406 543.52C69.6406 543.52 88.3007 366.24 120.701 328.27L208 329.84Z" fill="#353B42"/>
<path d="M197.16 171.82C197.16 171.82 179.16 167.76 169.16 167.65C159.16 167.54 143.97 171.22 143.97 171.22C134.103 173.744 123.981 175.143 113.799 175.39L112.799 206.96C97.1294 227.03 97.2696 232.65 97.2696 241.53C97.2696 256.9 110.879 266.32 110.879 266.32L120.799 328.68C172.999 349 208 329.84 208 329.84C213.79 290.45 228.609 239.95 228.609 239.95V181.41C220.609 177.75 205.29 174.16 197.16 171.82Z" fill="#CE3B28"/>
<path opacity="0.2" d="M148.09 205.07L163.26 190.9L171.19 208.4C171.19 208.4 195.61 194.14 197.43 171.8C196.34 171.56 179.03 167.75 169.35 167.65C159.35 167.54 144.08 171.22 144.08 171.22L143.53 171.37C142.85 177.89 142.33 192 148.09 205.07Z" fill="black"/>
<path d="M156 159.64L155.91 184.39L186.19 184.51L186.32 152.31C177.375 158.21 166.652 160.803 156 159.64Z" fill="#FAA284"/>
<path d="M186.3 152.31L186.391 127.51L156.11 127.39L155.98 159.64C166.632 160.803 177.356 158.21 186.3 152.31Z" fill="#EF8D72"/>
<path d="M156 159.64C156 159.64 155.37 175.22 165.33 180.95C165.33 180.95 184.89 175.61 186.33 159.64L197.55 171.82C197.55 171.82 190.44 192.65 172.19 201.15L164.75 184.45L149.4 199.62C149.4 199.62 143.18 181.91 144.21 170.28L156 159.64Z" fill="#CE3B28"/>
<path opacity="0.1" d="M100.189 247.05C100.189 247.05 104.189 250.41 112.759 251.15C130.129 252.65 166.629 255.77 191.759 251.74C202.299 250.04 204.05 244.74 211.99 238.5C211.99 238.5 213.25 265.5 180.22 264.97C147.19 264.44 102.259 268.48 100.189 247.05Z" fill="black"/>
<path d="M230.52 336.18C228.178 333.405 224.844 331.654 221.23 331.3L216.759 335.3C211.159 334.89 208.05 332.03 205.35 332.3C202.65 332.57 197.95 330.8 197.95 330.8C196.44 335 202.05 337.75 202.05 337.75H200.91L198.11 337.86C196.92 337.86 195.73 337.94 194.54 338C193.35 338.06 192.23 338.06 191.08 338.13C190.188 338.165 189.3 338.255 188.42 338.4C187.525 338.626 186.662 338.962 185.85 339.4C184.8 339.89 179.49 343.4 178.56 343.82L177.24 344.47C177.128 345.051 177.147 345.648 177.294 346.221C177.441 346.793 177.712 347.326 178.09 347.78C179.53 349.35 182.15 348.68 183.43 348.12C184.499 347.599 185.528 347.001 186.509 346.33C186.771 346.067 187.083 345.858 187.426 345.717C187.77 345.576 188.138 345.506 188.509 345.51C189.385 345.455 190.264 345.455 191.14 345.51C193.04 345.51 194.95 345.45 196.85 345.44H198.16C198.16 345.44 189.799 349.15 187.259 350.58C185.369 351.65 180.97 358.58 180.97 358.58C177.78 363.58 184.64 363.49 184.64 363.49C184.316 364.013 184.178 364.63 184.25 365.24C184.397 365.672 184.705 366.03 185.11 366.24C185.725 366.569 186.412 366.74 187.11 366.74C188.353 366.868 189.608 366.642 190.73 366.09C191.041 365.916 191.342 365.722 191.63 365.51C191.923 365.297 192.203 365.077 192.47 364.85C192.82 364.57 193.15 364.26 193.47 363.96C194.534 363.027 195.536 362.025 196.47 360.96C196.58 360.83 196.81 360.41 196.97 360.36L203.66 358.36C201.66 360.16 200.32 364.88 197.66 367.53C197.237 367.926 196.873 368.381 196.58 368.88C196.405 369.133 196.286 369.419 196.231 369.721C196.176 370.023 196.186 370.333 196.259 370.63C196.479 371.21 197.069 371.25 197.509 371.31C198.949 371.471 200.402 371.181 201.67 370.48C202.352 370.125 202.987 369.685 203.56 369.17C203.994 368.78 204.392 368.352 204.75 367.89C204.924 367.69 205.081 367.476 205.22 367.25C208.22 361.67 212.27 358.25 218.89 359.87C228.43 362.2 232.02 347.95 232.02 347.95C232.02 347.95 234.55 340.88 230.52 336.18Z" fill="#FAA284"/>
<path d="M280.57 240C292.3 256.05 301.19 271.77 300.42 281.83C300.42 281.83 296.71 299.65 231.34 348.65C231.34 348.65 220.49 347.82 216.76 335.24L260.59 276.54L250.11 266.03C263.66 257.39 275.1 245.92 280.57 240Z" fill="#FAA284"/>
<path d="M229.259 181.41C229.259 181.41 259.499 211.24 280.569 240.03C275.099 245.92 263.659 257.39 250.109 266.03L224.309 240.19C224.309 240.19 214.069 202.37 229.259 181.41Z" fill="#CE3B28"/>
<path d="M287.539 250.07C287.539 250.07 291.399 248.85 287.539 243.68C283.679 238.51 278.119 229.4 274.649 232.21C274.649 232.21 256.739 252.29 243.959 259.9C243.959 259.9 241.84 261.18 244.68 264.18C247.52 267.18 253.209 277.18 257.859 273.83C257.859 273.83 279.059 258.79 287.539 250.07Z" fill="#D8453A"/>
<path d="M206.121 76.6201C206.121 76.6201 220.12 78.1801 221.28 84.8501C222.44 91.5201 219.07 117.85 224.51 165.85C224.51 165.85 211.94 123.13 212.61 98.3201C212.61 98.3201 205.671 85.0001 206.121 76.6201Z" fill="#511E17"/>
<path d="M233.62 32.3601C229.965 21.8552 222.34 13.2002 212.38 8.25008C204.25 21.0001 184.47 32.9001 161.03 29.1801C140.22 25.8801 135.77 13.4101 135.27 4.83008C127.27 8.22008 121.02 14.1901 116.96 23.8301C154.31 54.2801 205.71 42.4301 233.62 32.3601Z" fill="#994A3D"/>
<path d="M112.93 74.42C112.93 74.42 114.999 132.14 116.279 161.18C117.609 191.6 116.09 226.18 106.85 238.85C106.85 238.85 137.279 244.85 140.609 223.52C143.939 202.19 137.47 100.16 131.29 73.52L112.93 74.42Z" fill="#7C3425"/>
<path d="M213.45 82.9302L212.65 83.2102C212.65 83.2102 207.08 86.8502 206.12 76.6202C179 64.0002 161 29.1802 161 29.1802C128.74 33.5202 120.8 57.1802 119.92 77.0602C121.4 84.4802 123.23 96.3702 122.66 106.62C121.23 132.18 142.79 148.82 161.94 148.8C198.73 148.75 208.08 116.1 208.08 116.1C208.08 116.1 225.19 119.02 227.4 96.0402C229.24 77.2502 213.45 82.9302 213.45 82.9302Z" fill="#FAA284"/>
<g opacity="0.9">
<path opacity="0.09" d="M139.78 94.6599C142.806 95.232 145.594 96.6886 147.793 98.8457C149.991 101.003 151.5 103.763 152.129 106.778C152.758 109.793 152.479 112.926 151.327 115.783C150.175 118.639 148.202 121.089 145.657 122.824C143.113 124.559 140.111 125.5 137.031 125.528C133.951 125.557 130.932 124.671 128.356 122.984C125.78 121.296 123.762 118.883 122.558 116.048C121.353 113.214 121.016 110.086 121.59 107.06C121.969 105.051 122.74 103.136 123.86 101.426C124.98 99.7152 126.426 98.2419 128.115 97.0904C129.804 95.9388 131.704 95.1314 133.706 94.7144C135.707 94.2973 137.771 94.2788 139.78 94.6599Z" fill="#EA7460"/>
<path opacity="0.18" d="M139.5 96.1299C142.235 96.6453 144.756 97.9603 146.743 99.9086C148.731 101.857 150.096 104.351 150.666 107.075C151.236 109.8 150.985 112.632 149.946 115.213C148.906 117.795 147.123 120.01 144.824 121.579C142.525 123.148 139.812 123.999 137.029 124.026C134.246 124.053 131.518 123.253 129.189 121.729C126.86 120.205 125.036 118.024 123.947 115.463C122.857 112.901 122.552 110.075 123.07 107.34C123.766 103.677 125.886 100.439 128.967 98.3375C132.047 96.2359 135.835 95.442 139.5 96.1299Z" fill="#EA7460"/>
<path opacity="0.27" d="M139.23 97.6099C141.67 98.0745 143.917 99.252 145.688 100.994C147.458 102.735 148.673 104.963 149.178 107.394C149.683 109.826 149.456 112.353 148.525 114.656C147.594 116.958 146.001 118.933 143.948 120.331C141.895 121.728 139.474 122.486 136.99 122.508C134.507 122.529 132.072 121.814 129.995 120.453C127.918 119.091 126.291 117.145 125.32 114.859C124.349 112.573 124.077 110.05 124.54 107.61C124.847 105.988 125.471 104.443 126.376 103.063C127.28 101.683 128.448 100.494 129.812 99.5656C131.177 98.6369 132.711 97.9861 134.326 97.6505C135.942 97.315 137.609 97.3012 139.23 97.6099Z" fill="#EA7460"/>
<path opacity="0.36" d="M138.999 99.08C141.145 99.4988 143.118 100.544 144.671 102.082C146.224 103.621 147.286 105.586 147.724 107.727C148.162 109.869 147.956 112.093 147.132 114.118C146.308 116.143 144.903 117.878 143.094 119.106C141.285 120.333 139.152 120.997 136.966 121.015C134.78 121.032 132.638 120.402 130.81 119.203C128.981 118.005 127.549 116.292 126.693 114.28C125.837 112.269 125.595 110.049 125.999 107.9C126.269 106.465 126.82 105.097 127.62 103.876C128.421 102.655 129.455 101.604 130.664 100.784C131.872 99.9646 133.231 99.3919 134.661 99.0994C136.092 98.8069 137.566 98.8003 138.999 99.08Z" fill="#EA7460"/>
<path opacity="0.45" d="M138.67 100.55C140.53 100.902 142.244 101.797 143.595 103.123C144.946 104.449 145.874 106.145 146.26 107.999C146.647 109.852 146.475 111.778 145.767 113.533C145.059 115.289 143.846 116.795 142.282 117.861C140.718 118.927 138.872 119.506 136.979 119.523C135.086 119.54 133.231 118.996 131.648 117.958C130.064 116.921 128.824 115.437 128.084 113.695C127.344 111.952 127.137 110.03 127.49 108.17C127.963 105.677 129.406 103.474 131.502 102.045C133.599 100.617 136.177 100.079 138.67 100.55Z" fill="#EA7460"/>
<path opacity="0.55" d="M138.39 102C139.958 102.297 141.403 103.053 142.542 104.171C143.681 105.29 144.463 106.721 144.788 108.284C145.113 109.847 144.968 111.471 144.37 112.952C143.772 114.432 142.749 115.701 141.429 116.6C140.109 117.498 138.553 117.985 136.957 117.999C135.36 118.012 133.796 117.552 132.461 116.677C131.126 115.801 130.081 114.549 129.458 113.079C128.835 111.61 128.661 109.988 128.96 108.42C129.36 106.319 130.578 104.462 132.346 103.258C134.114 102.054 136.288 101.602 138.39 102Z" fill="#EA7460"/>
<path opacity="0.64" d="M138.109 103.5C139.386 103.742 140.562 104.358 141.489 105.268C142.416 106.179 143.052 107.344 143.316 108.616C143.581 109.889 143.463 111.211 142.976 112.416C142.489 113.62 141.657 114.654 140.582 115.385C139.508 116.117 138.242 116.513 136.942 116.525C135.643 116.536 134.369 116.162 133.283 115.449C132.196 114.737 131.345 113.719 130.837 112.522C130.329 111.326 130.187 110.007 130.43 108.73C130.591 107.882 130.917 107.075 131.39 106.353C131.863 105.631 132.473 105.01 133.186 104.524C133.9 104.039 134.701 103.698 135.546 103.523C136.391 103.347 137.262 103.339 138.109 103.5Z" fill="#EA7460"/>
<path opacity="0.73" d="M137.829 105C138.815 105.189 139.723 105.667 140.437 106.372C141.151 107.077 141.639 107.979 141.841 108.962C142.042 109.946 141.947 110.967 141.568 111.896C141.188 112.825 140.541 113.621 139.709 114.182C138.877 114.743 137.897 115.045 136.893 115.049C135.889 115.053 134.907 114.759 134.071 114.203C133.234 113.648 132.581 112.858 132.195 111.931C131.808 111.005 131.705 109.985 131.899 109C132.16 107.686 132.93 106.528 134.041 105.779C135.151 105.03 136.513 104.75 137.829 105Z" fill="#EA7460"/>
<path opacity="0.82" d="M137.549 106.44C138.243 106.571 138.883 106.904 139.387 107.399C139.891 107.893 140.238 108.525 140.382 109.216C140.527 109.907 140.464 110.625 140.201 111.28C139.937 111.935 139.486 112.497 138.903 112.896C138.32 113.294 137.632 113.511 136.926 113.518C136.221 113.526 135.528 113.324 134.937 112.938C134.346 112.552 133.882 111.999 133.605 111.35C133.328 110.701 133.249 109.984 133.38 109.29C133.466 108.829 133.643 108.39 133.899 107.997C134.155 107.604 134.487 107.266 134.874 107.001C135.261 106.736 135.697 106.551 136.156 106.454C136.615 106.358 137.089 106.353 137.549 106.44Z" fill="#EA7460"/>
<path opacity="0.91" d="M137.269 107.92C137.671 107.996 138.042 108.19 138.334 108.477C138.626 108.764 138.826 109.131 138.91 109.531C138.993 109.932 138.956 110.348 138.803 110.728C138.65 111.108 138.388 111.433 138.05 111.664C137.711 111.894 137.312 112.02 136.903 112.023C136.494 112.027 136.092 111.91 135.75 111.686C135.407 111.462 135.139 111.141 134.979 110.764C134.818 110.388 134.774 109.972 134.849 109.57C134.899 109.302 135 109.046 135.149 108.818C135.297 108.59 135.49 108.393 135.715 108.24C135.94 108.086 136.193 107.979 136.46 107.924C136.727 107.869 137.002 107.868 137.269 107.92Z" fill="#EA7460"/>
<path opacity="0.9" d="M137.45 110.06C137.421 110.209 137.334 110.341 137.208 110.427C137.083 110.513 136.929 110.546 136.779 110.52C136.63 110.491 136.499 110.404 136.413 110.279C136.327 110.154 136.293 110 136.319 109.85C136.333 109.775 136.36 109.704 136.401 109.641C136.442 109.577 136.496 109.522 136.558 109.479C136.62 109.437 136.691 109.407 136.765 109.391C136.839 109.376 136.915 109.375 136.99 109.39C137.139 109.419 137.27 109.506 137.356 109.631C137.442 109.756 137.476 109.91 137.45 110.06Z" fill="#EA7460"/>
</g>
<g opacity="0.9">
<path opacity="0.09" d="M189.159 93.5502C192.399 94.1634 195.383 95.7234 197.736 98.033C200.089 100.343 201.704 103.298 202.378 106.525C203.051 109.753 202.751 113.108 201.518 116.165C200.285 119.223 198.172 121.846 195.448 123.703C192.724 125.56 189.511 126.568 186.214 126.599C182.917 126.629 179.685 125.682 176.927 123.876C174.169 122.07 172.008 119.486 170.718 116.452C169.428 113.418 169.066 110.07 169.679 106.83C170.086 104.679 170.913 102.629 172.112 100.798C173.311 98.9661 174.86 97.3887 176.669 96.1555C178.477 94.9223 180.512 94.0575 182.655 93.6105C184.798 93.1635 187.008 93.143 189.159 93.5502Z" fill="#EA7460"/>
<path opacity="0.18" d="M188.86 95.1203C191.789 95.6748 194.487 97.0854 196.614 99.1736C198.741 101.262 200.201 103.934 200.809 106.852C201.417 109.77 201.147 112.803 200.031 115.567C198.916 118.331 197.006 120.702 194.543 122.381C192.079 124.059 189.173 124.969 186.193 124.997C183.212 125.024 180.291 124.166 177.798 122.533C175.305 120.899 173.352 118.563 172.186 115.82C171.021 113.076 170.695 110.049 171.25 107.12C171.617 105.176 172.364 103.322 173.448 101.666C174.532 100.011 175.932 98.5847 177.568 97.4702C179.203 96.3558 181.042 95.5746 182.98 95.1714C184.918 94.7681 186.916 94.7508 188.86 95.1203Z" fill="#EA7460"/>
<path opacity="0.27" d="M188.559 96.7002C191.175 97.1957 193.584 98.4556 195.484 100.321C197.383 102.186 198.687 104.572 199.23 107.178C199.774 109.785 199.532 112.493 198.536 114.962C197.54 117.431 195.833 119.549 193.634 121.048C191.434 122.547 188.839 123.36 186.177 123.384C183.515 123.409 180.905 122.643 178.679 121.185C176.452 119.726 174.707 117.64 173.666 115.19C172.625 112.74 172.334 110.036 172.829 107.42C173.157 105.683 173.824 104.027 174.792 102.548C175.76 101.069 177.011 99.7946 178.472 98.799C179.932 97.8033 181.575 97.1055 183.306 96.7454C185.037 96.3852 186.822 96.3699 188.559 96.7002Z" fill="#EA7460"/>
<path opacity="0.36" d="M188.259 98.2803C190.562 98.7167 192.683 99.826 194.355 101.468C196.028 103.11 197.176 105.211 197.654 107.505C198.132 109.799 197.919 112.184 197.042 114.357C196.165 116.531 194.664 118.395 192.727 119.715C190.791 121.035 188.506 121.751 186.163 121.773C183.819 121.794 181.522 121.121 179.562 119.837C177.601 118.553 176.065 116.717 175.148 114.56C174.231 112.403 173.974 110.023 174.41 107.72C174.996 104.633 176.785 101.905 179.381 100.135C181.978 98.3647 185.171 97.6977 188.259 98.2803Z" fill="#EA7460"/>
<path opacity="0.45" d="M187.999 99.8601C189.986 100.243 191.815 101.206 193.255 102.627C194.696 104.048 195.682 105.865 196.091 107.846C196.5 109.828 196.312 111.887 195.552 113.762C194.792 115.637 193.494 117.245 191.82 118.383C190.147 119.521 188.174 120.137 186.151 120.155C184.128 120.172 182.144 119.59 180.451 118.481C178.759 117.373 177.433 115.787 176.64 113.925C175.848 112.064 175.625 110.009 175.999 108.02C176.249 106.695 176.757 105.432 177.496 104.305C178.235 103.177 179.189 102.206 180.304 101.448C181.419 100.689 182.673 100.159 183.993 99.8865C185.314 99.6141 186.675 99.6051 187.999 99.8601Z" fill="#EA7460"/>
<path opacity="0.55" d="M187.669 101.43C189.351 101.747 190.901 102.555 192.123 103.753C193.345 104.951 194.185 106.484 194.535 108.159C194.885 109.834 194.731 111.575 194.092 113.163C193.452 114.75 192.356 116.112 190.943 117.076C189.529 118.04 187.861 118.564 186.15 118.58C184.439 118.596 182.762 118.105 181.33 117.167C179.898 116.23 178.777 114.889 178.107 113.314C177.438 111.739 177.251 110.001 177.569 108.32C177.779 107.204 178.208 106.141 178.829 105.19C179.45 104.24 180.253 103.421 181.191 102.781C182.129 102.141 183.184 101.693 184.296 101.461C185.407 101.229 186.554 101.218 187.669 101.43Z" fill="#EA7460"/>
<path opacity="0.64" d="M187.37 103C188.725 103.266 189.971 103.926 190.952 104.897C191.933 105.869 192.605 107.109 192.882 108.462C193.16 109.815 193.031 111.219 192.513 112.499C191.994 113.779 191.109 114.876 189.968 115.654C188.827 116.432 187.481 116.855 186.101 116.87C184.72 116.885 183.366 116.491 182.209 115.738C181.051 114.985 180.142 113.907 179.596 112.638C179.05 111.37 178.891 109.969 179.14 108.61C179.306 107.699 179.652 106.83 180.157 106.053C180.663 105.277 181.317 104.608 182.083 104.086C182.848 103.564 183.71 103.2 184.617 103.013C185.525 102.827 186.46 102.822 187.37 103Z" fill="#EA7460"/>
<path opacity="0.73" d="M187.069 104.59C188.124 104.791 189.096 105.299 189.861 106.052C190.627 106.804 191.153 107.766 191.372 108.817C191.591 109.868 191.493 110.961 191.091 111.956C190.69 112.952 190.002 113.806 189.115 114.411C188.228 115.016 187.181 115.344 186.108 115.354C185.034 115.365 183.982 115.057 183.084 114.469C182.185 113.881 181.481 113.041 181.06 112.053C180.639 111.065 180.521 109.975 180.72 108.92C180.852 108.219 181.121 107.55 181.511 106.952C181.902 106.355 182.407 105.841 182.997 105.438C183.586 105.036 184.25 104.754 184.949 104.609C185.648 104.463 186.368 104.457 187.069 104.59Z" fill="#EA7460"/>
<path opacity="0.82" d="M186.769 106.17C187.512 106.314 188.196 106.675 188.733 107.207C189.271 107.74 189.638 108.42 189.788 109.162C189.939 109.903 189.866 110.673 189.578 111.373C189.291 112.073 188.802 112.671 188.174 113.093C187.545 113.515 186.806 113.74 186.049 113.741C185.292 113.742 184.553 113.518 183.924 113.098C183.294 112.678 182.804 112.08 182.515 111.381C182.226 110.682 182.15 109.912 182.299 109.17C182.497 108.182 183.078 107.311 183.916 106.749C184.753 106.187 185.779 105.979 186.769 106.17Z" fill="#EA7460"/>
<path opacity="0.91" d="M186.47 107.75C186.758 107.802 187.032 107.91 187.277 108.069C187.522 108.227 187.733 108.433 187.898 108.674C188.063 108.915 188.178 109.187 188.236 109.473C188.295 109.759 188.297 110.054 188.24 110.34C188.16 110.772 187.952 111.17 187.645 111.484C187.338 111.798 186.945 112.014 186.515 112.104C186.085 112.194 185.638 112.155 185.231 111.991C184.823 111.828 184.473 111.547 184.225 111.184C183.977 110.821 183.843 110.393 183.838 109.954C183.834 109.515 183.959 109.084 184.2 108.717C184.44 108.349 184.784 108.061 185.188 107.889C185.592 107.717 186.039 107.668 186.47 107.75Z" fill="#EA7460"/>
<path opacity="0.9" d="M186.66 110C186.636 110.118 186.578 110.226 186.493 110.311C186.408 110.396 186.3 110.454 186.183 110.478C186.065 110.502 185.943 110.491 185.832 110.445C185.72 110.4 185.625 110.323 185.557 110.224C185.49 110.124 185.453 110.007 185.451 109.887C185.45 109.767 185.484 109.649 185.55 109.548C185.615 109.448 185.709 109.368 185.819 109.321C185.93 109.273 186.051 109.259 186.169 109.28C186.329 109.312 186.47 109.405 186.562 109.54C186.654 109.674 186.689 109.84 186.66 110Z" fill="#EA7460"/>
</g>
<path d="M161.55 112.81C155.16 115.72 151.15 114.21 150.32 109.92C149.78 107.13 151.41 103.92 153.15 102.38C156.75 99.2 158.35 89.87 158.36 89.77C158.64 91.77 158.24 99.56 153.86 104.97C153.416 105.464 153.079 106.043 152.869 106.673C152.659 107.303 152.581 107.969 152.64 108.63C152.87 111.82 155.94 114.31 161.55 112.81Z" fill="#DB7C65"/>
<path d="M205.359 108.35C205.359 108.35 202.779 128.22 177.549 139.03C155.299 148.55 133.61 133.81 128.77 130.17C136.31 141.91 149.64 148.82 161.97 148.8C198.76 148.75 208.109 116.1 208.109 116.1C211.444 116.531 214.829 115.891 217.776 114.273C220.724 112.656 223.081 110.144 224.509 107.1C213.919 117.14 205.359 108.35 205.359 108.35Z" fill="#EF8D72"/>
<path d="M148.001 73.2702C148.001 73.2702 139.001 70.8302 126.651 74.4202C126.651 74.4202 126.581 73.5102 128.901 71.5202C131.221 69.5302 139.191 67.6502 146.161 70.5202C146.161 70.5102 149.781 72.4402 148.001 73.2702Z" fill="#7C3425"/>
<path d="M168.62 72.7502C168.62 72.7502 177.62 70.1402 189.98 73.5102C189.98 73.5102 190.04 72.5901 187.68 70.6501C185.32 68.7101 177.32 66.9702 170.41 69.9502C170.41 70.0002 166.82 72.0002 168.62 72.7502Z" fill="#7C3425"/>
<path d="M174.85 118.72C174.85 118.72 160.57 121.87 147.2 119.15C147.2 119.15 149.75 131.37 161.2 131.15C172 131 174.76 121.09 174.85 118.72Z" fill="#B22828"/>
<path d="M160.81 124.79C152 124.93 149.35 121.31 148.21 119.34C158.59 121.22 166.91 119.87 174.15 118.86C173.4 121.08 169.12 124.66 160.81 124.79Z" fill="white"/>
<path d="M143.68 94.83C141.68 92.11 139.54 90.63 137.23 90.42C134.966 90.3565 132.768 91.178 131.1 92.71L129.25 90.49C129.39 90.35 132.83 87.02 137.46 87.43C140.56 87.71 143.38 89.58 145.85 92.97L143.68 94.83Z" fill="#502F26"/>
<path d="M174 93.8302L171.8 92.0002C174.28 88.6102 177.1 86.7402 180.2 86.4602C184.83 86.0502 188.27 89.3802 188.41 89.5202L186.55 91.7402L187.48 90.6303L186.55 91.7502C184.878 90.2115 182.671 89.3893 180.4 89.4602C178.11 89.6402 176 91.1202 174 93.8302Z" fill="#502F26"/>
<path d="M161 29.1802C128.74 33.5202 120.8 57.1802 119.92 77.0602C119.92 77.0602 123.14 39.4602 155.85 33.0602C155.85 33.0602 166.26 63.9202 206.09 76.6602C179 64.0002 161 29.1802 161 29.1802Z" fill="#EF8D72"/>
<g filter="url(#filter0_b_1237_3360)">
<path d="M134.951 108.88C144.467 108.88 152.181 101.166 152.181 91.6504C152.181 82.1345 144.467 74.4204 134.951 74.4204C125.435 74.4204 117.721 82.1345 117.721 91.6504C117.721 101.166 125.435 108.88 134.951 108.88Z" fill="url(#paint1_linear_1237_3360)"/>
</g>
<g filter="url(#filter1_b_1237_3360)">
<path d="M180.951 108.88C190.467 108.88 198.181 101.166 198.181 91.6504C198.181 82.1345 190.467 74.4204 180.951 74.4204C171.435 74.4204 163.721 82.1345 163.721 91.6504C163.721 101.166 171.435 108.88 180.951 108.88Z" fill="url(#paint2_linear_1237_3360)"/>
</g>
<path d="M135 109.81C131.408 109.81 127.897 108.745 124.911 106.75C121.924 104.754 119.597 101.918 118.222 98.5998C116.848 95.2815 116.488 91.6301 117.189 88.1074C117.89 84.5847 119.619 81.3489 122.159 78.8092C124.699 76.2695 127.934 74.5399 131.457 73.8392C134.98 73.1385 138.631 73.4981 141.95 74.8726C145.268 76.2471 148.104 78.5747 150.099 81.5611C152.095 84.5475 153.16 88.0585 153.16 91.6502C153.152 96.4641 151.236 101.079 147.832 104.483C144.428 107.886 139.814 109.802 135 109.81ZM135 75.4902C131.804 75.4902 128.679 76.438 126.022 78.2137C123.364 79.9894 121.293 82.5132 120.07 85.4661C118.847 88.419 118.527 91.6682 119.15 94.8029C119.774 97.9377 121.313 100.817 123.573 103.077C125.833 105.337 128.712 106.876 131.847 107.5C134.982 108.123 138.231 107.803 141.184 106.58C144.137 105.357 146.661 103.286 148.436 100.628C150.212 97.9708 151.16 94.8464 151.16 91.6502C151.155 87.366 149.45 83.2587 146.421 80.2293C143.391 77.1998 139.284 75.4955 135 75.4902Z" fill="#CE3B28"/>
<path d="M181 109.81C177.408 109.81 173.897 108.745 170.911 106.75C167.924 104.754 165.597 101.918 164.222 98.5998C162.848 95.2815 162.488 91.6301 163.189 88.1074C163.89 84.5847 165.619 81.3489 168.159 78.8092C170.699 76.2695 173.934 74.5399 177.457 73.8392C180.98 73.1385 184.631 73.4981 187.95 74.8726C191.268 76.2471 194.104 78.5747 196.099 81.5611C198.095 84.5475 199.16 88.0585 199.16 91.6502C199.152 96.4641 197.236 101.079 193.832 104.483C190.428 107.886 185.814 109.802 181 109.81ZM181 75.4902C177.804 75.4902 174.679 76.438 172.022 78.2137C169.364 79.9894 167.293 82.5132 166.07 85.4661C164.847 88.419 164.527 91.6682 165.15 94.8029C165.774 97.9377 167.313 100.817 169.573 103.077C171.833 105.337 174.712 106.876 177.847 107.5C180.982 108.123 184.231 107.803 187.184 106.58C190.137 105.357 192.661 103.286 194.436 100.628C196.212 97.9708 197.16 94.8464 197.16 91.6502C197.155 87.366 195.45 83.2587 192.421 80.2293C189.391 77.1998 185.284 75.4955 181 75.4902Z" fill="#CE3B28"/>
<path d="M163.39 90.7104C157.1 88.4904 152.56 90.6504 152.52 90.7104L151.63 88.9204C151.84 88.8104 156.93 86.3404 164.05 88.8704L163.39 90.7104Z" fill="#CE3B28"/>
<path d="M198.56 89.8001L197.38 88.1801C197.77 87.9001 209.86 78.3801 216.78 82.1801L214.68 82.5401C207 82.4401 198.65 89.7401 198.56 89.8001Z" fill="#CE3B28"/>
<defs>
<filter id="filter0_b_1237_3360" x="115.721" y="72.4204" width="38.46" height="38.46" filterUnits="userSpaceOnUse" color-interpolation-filters="sRGB">
<feFlood flood-opacity="0" result="BackgroundImageFix"/>
<feGaussianBlur in="BackgroundImage" stdDeviation="1"/>
<feComposite in2="SourceAlpha" operator="in" result="effect1_backgroundBlur_1237_3360"/>
<feBlend mode="normal" in="SourceGraphic" in2="effect1_backgroundBlur_1237_3360" result="shape"/>
</filter>
<filter id="filter1_b_1237_3360" x="161.721" y="72.4204" width="38.46" height="38.46" filterUnits="userSpaceOnUse" color-interpolation-filters="sRGB">
<feFlood flood-opacity="0" result="BackgroundImageFix"/>
<feGaussianBlur in="BackgroundImage" stdDeviation="1"/>
<feComposite in2="SourceAlpha" operator="in" result="effect1_backgroundBlur_1237_3360"/>
<feBlend mode="normal" in="SourceGraphic" in2="effect1_backgroundBlur_1237_3360" result="shape"/>
</filter>
<linearGradient id="paint0_linear_1237_3360" x1="642514" y1="75830.3" x2="653153" y2="94314.7" gradientUnits="userSpaceOnUse">
<stop stop-color="#7C3425"/>
<stop offset="1" stop-color="#60261D"/>
</linearGradient>
<linearGradient id="paint1_linear_1237_3360" x1="-389017" y1="25824" x2="-389017" y2="19427.2" gradientUnits="userSpaceOnUse">
<stop stop-color="white" stop-opacity="0.8"/>
<stop offset="1" stop-color="white" stop-opacity="0.3"/>
</linearGradient>
<linearGradient id="paint2_linear_1237_3360" x1="-388971" y1="25824" x2="-388971" y2="19427.2" gradientUnits="userSpaceOnUse">
<stop stop-color="white" stop-opacity="0.8"/>
<stop offset="1" stop-color="white" stop-opacity="0.3"/>
</linearGradient>
</defs>
</svg>
