<svg width="40" height="40" viewBox="0 0 40 40" fill="none" xmlns="http://www.w3.org/2000/svg">
<path fill-rule="evenodd" clip-rule="evenodd" d="M38.3333 0H1.66667C1.22464 0 0.800716 0.175595 0.488155 0.488155C0.175595 0.800716 0 1.22464 0 1.66667L0 38.3333C0 38.7754 0.175595 39.1993 0.488155 39.5118C0.800716 39.8244 1.22464 40 1.66667 40H21.25V25H16.25V18.75H21.25V13.75C21.25 8.58333 24.5217 6.04167 29.13 6.04167C31.3367 6.04167 33.235 6.20667 33.7867 6.27833V11.6783L30.5917 11.68C28.085 11.68 27.5 12.8717 27.5 14.6183V18.75H33.75L32.5 25H27.5L27.6 40H38.3333C38.7754 40 39.1993 39.8244 39.5118 39.5118C39.8244 39.1993 40 38.7754 40 38.3333V1.66667C40 1.22464 39.8244 0.800716 39.5118 0.488155C39.1993 0.175595 38.7754 0 38.3333 0" fill="black"/>
</svg>
