<svg width="316" height="160" viewBox="0 0 316 160" fill="none" xmlns="http://www.w3.org/2000/svg">
<path d="M377.256 159.792C377.256 159.904 292.795 160 188.636 160C84.4776 160 0 159.904 0 159.792C0 159.679 84.4375 159.575 188.636 159.575C292.835 159.575 377.256 159.671 377.256 159.792Z" fill="#263238"/>
<path d="M148.714 52.3235H217.036V88.1756H148.714C144.962 88.1756 141.365 86.6855 138.712 84.033C136.06 81.3806 134.57 77.783 134.57 74.0319V66.4592C134.57 62.708 136.06 59.1105 138.712 56.4581C141.365 53.8056 144.962 52.3155 148.714 52.3155V52.3235Z" fill="#D92C2A"/>
<path d="M199.174 52.3235H343.271C343.894 52.3235 344.491 52.5709 344.932 53.0112C345.372 53.4515 345.619 54.0487 345.619 54.6714V55.8975C345.619 56.5202 345.372 57.1174 344.932 57.5577C344.491 57.998 343.894 58.2454 343.271 58.2454H199.174V52.2914V52.3235Z" fill="#D92C2A"/>
<path d="M199.174 82.2216H343.271C343.894 82.2216 344.491 82.469 344.932 82.9093C345.372 83.3496 345.619 83.9468 345.619 84.5695V85.8277C345.619 86.4504 345.372 87.0476 344.932 87.4879C344.491 87.9282 343.894 88.1756 343.271 88.1756H199.174V82.2216Z" fill="#D92C2A"/>
<path d="M341.252 82.2297H215.513C213.94 82.2297 212.383 81.9197 210.93 81.3176C209.477 80.7154 208.157 79.8329 207.045 78.7203C205.933 77.6078 205.051 76.287 204.45 74.8336C203.849 73.3801 203.54 71.8225 203.541 70.2496C203.541 67.0744 204.802 64.0293 207.048 61.7841C209.293 59.5389 212.338 58.2775 215.513 58.2775H341.252C339.586 62.0504 338.726 66.1293 338.726 70.2536C338.726 74.3779 339.586 78.4568 341.252 82.2297Z" fill="#F5F5F5"/>
<path opacity="0.3" d="M203.541 88.1837H148.985C145.16 88.1837 141.491 86.664 138.786 83.9589C136.081 81.2538 134.561 77.585 134.561 73.7595V66.6355C134.561 62.8397 136.069 59.1995 138.753 56.5154C141.437 53.8314 145.077 52.3235 148.873 52.3235H204.895C191.921 60.1927 192.891 79.0243 203.541 88.1837Z" fill="black"/>
<path d="M325.978 71.3634C325.978 71.4836 300.167 71.5798 268.338 71.5798C236.509 71.5798 210.697 71.4836 210.697 71.3634C210.697 71.2432 236.501 71.147 268.338 71.147C300.175 71.147 325.978 71.2432 325.978 71.3634Z" fill="#263238"/>
<path d="M337.839 76.6844C337.839 76.8046 312.028 76.9008 280.198 76.9008C248.369 76.9008 222.558 76.8046 222.558 76.6844C222.558 76.5642 248.361 76.4761 280.198 76.4761C312.036 76.4761 337.839 76.5722 337.839 76.6844Z" fill="#263238"/>
<path d="M334.345 63.8148C334.345 63.935 308.534 64.0311 276.704 64.0311C244.875 64.0311 219.056 63.935 219.056 63.8148C219.056 63.6946 244.859 63.5984 276.704 63.5984C308.55 63.5984 334.345 63.7106 334.345 63.8148Z" fill="#263238"/>
<path d="M197.226 85.6673C197.226 85.7875 185.142 85.8837 170.245 85.8837C155.348 85.8837 143.264 85.7875 143.264 85.6673C143.264 85.5471 155.34 85.451 170.245 85.451C185.15 85.451 197.226 85.5471 197.226 85.6673Z" fill="#263238"/>
<path d="M197.226 55.3045C197.226 55.4247 185.142 55.5209 170.245 55.5209C155.348 55.5209 143.264 55.4247 143.264 55.3045C143.264 55.1843 155.34 55.0881 170.245 55.0881C185.15 55.0881 197.226 55.1843 197.226 55.3045Z" fill="#263238"/>
<path d="M118.543 113.346H210.609V159.519H118.543C114.791 159.519 111.194 158.029 108.542 155.377C105.889 152.724 104.399 149.127 104.399 145.376V127.482C104.399 123.73 105.889 120.133 108.542 117.48C111.194 114.828 114.791 113.338 118.543 113.338V113.346Z" fill="#D92C2A"/>
<path d="M187.602 113.346H373.866C374.489 113.346 375.086 113.593 375.527 114.034C375.967 114.474 376.214 115.071 376.214 115.694V118.667C376.214 119.29 375.967 119.887 375.527 120.327C375.086 120.767 374.489 121.015 373.866 121.015H187.602V113.346Z" fill="#D92C2A"/>
<path d="M187.602 151.85H373.866C374.489 151.85 375.086 152.098 375.527 152.538C375.967 152.978 376.214 153.576 376.214 154.198V157.171C376.214 157.794 375.967 158.391 375.527 158.832C375.086 159.272 374.489 159.519 373.866 159.519H187.602V151.85Z" fill="#D92C2A"/>
<path d="M370.581 151.858H208.662C204.572 151.856 200.651 150.23 197.759 147.337C194.868 144.445 193.244 140.522 193.244 136.432C193.244 134.408 193.643 132.403 194.418 130.532C195.193 128.662 196.328 126.962 197.76 125.53C199.192 124.099 200.891 122.963 202.762 122.188C204.632 121.413 206.637 121.015 208.662 121.015H370.581C368.434 125.872 367.324 131.125 367.324 136.436C367.324 141.748 368.434 147.001 370.581 151.858Z" fill="#F5F5F5"/>
<path opacity="0.3" d="M193.228 159.519H118.358C116.525 159.519 114.71 159.158 113.017 158.456C111.324 157.755 109.786 156.726 108.49 155.43C107.195 154.134 106.167 152.595 105.466 150.901C104.766 149.208 104.406 147.393 104.407 145.56V127.818C104.407 123.993 105.926 120.324 108.631 117.619C111.337 114.914 115.005 113.394 118.831 113.394H194.959C178.267 123.475 179.517 147.731 193.228 159.519Z" fill="black"/>
<path d="M350.908 137.867C350.908 137.987 317.669 138.083 276.68 138.083C235.691 138.083 202.443 137.987 202.443 137.867C202.443 137.747 235.675 137.651 276.68 137.651C317.685 137.651 350.908 137.747 350.908 137.867Z" fill="#263238"/>
<path d="M366.19 144.718C366.19 144.839 332.95 144.935 291.953 144.935C250.957 144.935 217.717 144.839 217.717 144.718C217.717 144.598 250.949 144.51 291.953 144.51C332.958 144.51 366.19 144.646 366.19 144.718Z" fill="#263238"/>
<path d="M361.718 131.504C361.718 131.624 328.487 131.721 287.49 131.721C246.493 131.721 213.253 131.624 213.253 131.504C213.253 131.384 246.485 131.288 287.49 131.288C328.495 131.288 361.718 131.384 361.718 131.504Z" fill="#263238"/>
<path d="M185.094 156.282C185.094 156.402 169.54 156.498 150.348 156.498C131.156 156.498 115.602 156.402 115.602 156.282C115.602 156.162 131.156 156.073 150.348 156.073C169.54 156.073 185.094 156.17 185.094 156.282Z" fill="#263238"/>
<path d="M185.094 117.184C185.094 117.296 169.54 117.393 150.348 117.393C131.156 117.393 115.602 117.296 115.602 117.184C115.602 117.072 131.156 116.968 150.348 116.968C169.54 116.968 185.094 117.064 185.094 117.184Z" fill="#263238"/>
<path d="M162.328 87.0778H238.183V113.522H162.328C159.565 113.522 156.915 112.425 154.962 110.471C153.008 108.517 151.911 105.868 151.911 103.105V97.4953C151.911 94.7324 153.008 92.0827 154.962 90.129C156.915 88.1754 159.565 87.0778 162.328 87.0778Z" fill="#455A64"/>
<path d="M219.496 87.0778H370.277C370.929 87.0778 371.555 87.337 372.016 87.7984C372.478 88.2597 372.737 88.8855 372.737 89.5379V90.8521C372.737 91.5046 372.478 92.1304 372.016 92.5917C371.555 93.0531 370.929 93.3123 370.277 93.3123H219.496V87.0858V87.0778Z" fill="#455A64"/>
<path d="M219.496 107.288H370.277C370.929 107.288 371.555 107.547 372.016 108.008C372.478 108.47 372.737 109.095 372.737 109.748V111.062C372.737 111.714 372.478 112.34 372.016 112.802C371.555 113.263 370.929 113.522 370.277 113.522H219.496V107.296V107.288Z" fill="#455A64"/>
<path d="M368.129 107.288H231.099C229.245 107.288 227.467 106.552 226.155 105.242C224.844 103.931 224.106 102.154 224.104 100.3C224.104 98.4446 224.841 96.6652 226.153 95.3533C227.464 94.0413 229.244 93.3043 231.099 93.3043H368.129C364.624 97.9681 364.624 102.629 368.129 107.288Z" fill="#F5F5F5"/>
<path opacity="0.3" d="M224.064 113.514H162.36C160.982 113.514 159.617 113.243 158.344 112.715C157.071 112.187 155.914 111.414 154.94 110.439C153.966 109.464 153.193 108.307 152.667 107.033C152.14 105.76 151.87 104.395 151.871 103.017V97.7918C151.87 96.3852 152.146 94.9922 152.683 93.6923C153.221 92.3925 154.009 91.2113 155.003 90.2164C155.998 89.2214 157.178 88.432 158.478 87.8935C159.777 87.355 161.17 87.0778 162.577 87.0778H225.49C211.907 92.8795 212.925 106.767 224.064 113.514Z" fill="black"/>
<path d="M352.174 99.1941C352.174 99.3143 325.169 99.4105 291.865 99.4105C258.561 99.4105 231.556 99.3143 231.556 99.1941C231.556 99.0739 258.553 98.9858 291.865 98.9858C325.177 98.9858 352.174 99.0819 352.174 99.1941Z" fill="#263238"/>
<path d="M364.588 102.976C364.588 103.097 337.583 103.193 304.279 103.193C270.975 103.193 243.97 103.097 243.97 102.976C243.97 102.856 270.967 102.76 304.279 102.76C337.591 102.76 364.588 102.84 364.588 102.976Z" fill="#263238"/>
<path d="M217.477 110.886C217.477 111.006 204.84 111.102 189.245 111.102C173.651 111.102 161.014 111.006 161.014 110.886C161.014 110.765 173.651 110.669 189.245 110.669C204.84 110.669 217.477 110.765 217.477 110.886Z" fill="#263238"/>
<path d="M217.477 90.1951C217.477 90.3153 204.84 90.4034 189.245 90.4034C173.651 90.4034 161.014 90.3153 161.014 90.1951C161.014 90.0749 173.651 89.9787 189.245 89.9787C204.84 89.9787 217.477 90.0749 217.477 90.1951Z" fill="#263238"/>
<path d="M370.934 87.0777C370.934 87.1979 324.56 87.2941 267.376 87.2941C210.192 87.2941 163.787 87.1979 163.787 87.0777C163.787 86.9575 210.144 86.8614 267.352 86.8614C324.56 86.8614 370.934 86.9495 370.934 87.0777Z" fill="#263238"/>
<path d="M287.778 63.4221V77.7822L292.755 74.5848L298.3 77.7822V63.4221H287.778Z" fill="#D92C2A"/>
<path d="M325.553 9.19525H201.986V53.7419H325.553V9.19525Z" fill="#263238"/>
<path d="M368.954 1.52637H157.6V9.19523H368.954V1.52637Z" fill="#263238"/>
<path opacity="0.3" d="M201.986 41.1047C201.986 41.1047 239.521 27.6421 263.77 22.6738C288.019 17.7055 325.553 19.3562 325.553 19.3562V9.21924H201.986V41.1047Z" fill="black"/>
<path opacity="0.3" d="M234.048 1.52637H157.6V9.19523H234.048V1.52637Z" fill="black"/>
<path d="M367.424 9.21928C367.424 9.33948 320.425 9.43564 262.448 9.43564C204.471 9.43564 157.472 9.33948 157.472 9.21928C157.472 9.09908 204.455 9.01093 262.448 9.01093C320.441 9.01093 367.424 9.08305 367.424 9.21928Z" fill="#455A64"/>
<path d="M233.928 9.25927C233.64 6.67093 233.64 4.05856 233.928 1.47021C234.206 4.05914 234.206 6.67035 233.928 9.25927Z" fill="#455A64"/>
<path d="M251.549 53.7499C251.437 53.7499 251.341 45.0553 251.341 34.3333C251.341 23.6114 251.437 14.9248 251.549 14.9248C251.661 14.9248 251.766 23.6114 251.766 34.3333C251.766 45.0553 251.669 53.7499 251.549 53.7499Z" fill="#455A64"/>
<path d="M72.7946 108.458L87.0024 102.72L97.8526 74.3765L112.317 81.829C112.317 81.829 110.923 84.6257 107.934 91.5573C106.772 94.2258 102.949 101.686 101.395 105.316C99.9558 108.673 97.5861 111.547 94.5656 113.599C91.5451 115.651 88.0002 116.795 84.35 116.896L71.0156 117.24L72.7946 108.458Z" fill="#FFBF9D"/>
<path d="M65.735 102.976L63.6194 100.717C63.2083 100.447 62.7245 100.31 62.2331 100.324L55.4377 100.532C54.8033 100.594 54.1908 100.797 53.6457 101.127C53.1005 101.457 52.6366 101.906 52.2884 102.44L49.8123 106.647C49.8123 106.647 48.1535 109.523 48.3619 110.229C48.4546 110.521 48.6526 110.769 48.9175 110.925C49.1824 111.08 49.4954 111.132 49.7963 111.07C49.7963 111.07 50.0367 112.4 50.4774 112.673C50.7325 112.801 51.011 112.877 51.2961 112.895C51.5812 112.912 51.867 112.872 52.1362 112.777C52.2531 113.029 52.4432 113.241 52.6819 113.384C52.9206 113.527 53.1967 113.594 53.4744 113.578C53.5936 113.567 53.7116 113.546 53.827 113.514C54.6284 113.266 54.997 111.703 54.997 111.703L58.4428 111.07C58.4428 111.07 63.3951 114.38 65.142 116.543C66.8889 118.707 71.4566 117.056 71.4566 117.056L73.1634 108.882L65.735 102.976Z" fill="#FFBF9D"/>
<path d="M60.7261 103.946C60.2428 104.096 59.7414 104.179 59.2356 104.194C58.2981 104.299 56.9758 104.339 55.4773 104.531L55.6376 104.411C55.38 104.964 55.0855 105.5 54.7561 106.014C53.8512 107.449 52.7508 108.752 51.4866 109.884C50.99 110.383 50.413 110.795 49.7798 111.102C49.7798 111.046 50.3808 110.565 51.2783 109.66C52.4568 108.488 53.5022 107.19 54.3955 105.789C54.7241 105.252 55.0206 104.723 55.269 104.186L55.3171 104.082H55.4293C56.9598 103.914 58.282 103.93 59.2196 103.898C59.7221 103.862 60.227 103.878 60.7261 103.946Z" fill="#FF9A6C"/>
<path d="M60.8782 107.191C60.4772 107.387 60.0414 107.502 59.596 107.528C58.4893 107.681 57.3644 107.643 56.2705 107.416L56.5189 107.28C56.3747 107.699 56.2089 108.111 56.022 108.514C55.4024 109.792 54.5333 110.934 53.4658 111.871C53.049 112.284 52.5529 112.609 52.0073 112.825C52.4028 112.41 52.8201 112.017 53.2574 111.647C54.2453 110.686 55.0587 109.561 55.6614 108.321C55.8468 107.938 56.01 107.545 56.1503 107.143L56.2144 106.967H56.3907C57.8696 107.244 59.3791 107.319 60.8782 107.191Z" fill="#FF9A6C"/>
<path d="M69.5165 108.866L63.4503 106.045C62.6363 105.592 61.7345 105.319 60.8059 105.244C59.8127 105.331 58.8542 105.653 58.0092 106.182L54.7397 107.865C54.5634 107.961 54.3711 108.073 54.315 108.257C54.2589 108.442 54.4112 108.762 54.5955 108.946C55.4394 109.745 56.5439 110.211 57.7047 110.258C58.8656 110.305 60.0042 109.93 60.9101 109.203C61.3528 110.647 62.0443 112.003 62.9535 113.209C63.4184 113.814 64.0314 114.289 64.7332 114.588C65.435 114.887 66.202 115 66.9602 114.916" fill="#FFBF9D"/>
<path d="M66.9448 114.997C66.8944 115.021 66.8402 115.038 66.7845 115.045C66.6218 115.085 66.4552 115.106 66.2877 115.109C65.6511 115.111 65.0237 114.957 64.4606 114.66C63.5885 114.204 62.8488 113.53 62.313 112.705C61.648 111.644 61.11 110.509 60.7103 109.323L61.0148 109.395C60.5281 109.804 59.9652 110.112 59.3586 110.302C58.752 110.492 58.1138 110.559 57.4809 110.501C56.7928 110.454 56.1218 110.266 55.5096 109.948C55.1961 109.782 54.903 109.581 54.6361 109.347C54.4915 109.228 54.3599 109.093 54.2435 108.946C54.1679 108.855 54.1136 108.748 54.0845 108.633C54.0554 108.518 54.0522 108.398 54.0752 108.281C54.1012 108.186 54.1467 108.097 54.2088 108.019C54.2708 107.942 54.3481 107.879 54.4358 107.833C54.58 107.744 54.7002 107.688 54.8284 107.616L55.5817 107.232L57.0642 106.43C57.9851 105.891 58.967 105.463 59.9891 105.156C60.9704 104.979 61.9826 105.134 62.8659 105.597C63.6673 105.965 64.4686 106.334 65.1097 106.663L68.315 108.265C68.7178 108.447 69.1062 108.658 69.477 108.898C69.053 108.773 68.6402 108.612 68.2429 108.418L64.9574 106.967L62.6976 105.957C61.883 105.54 60.952 105.407 60.0532 105.581C59.0672 105.889 58.1206 106.311 57.2325 106.839L55.758 107.64L55.0047 108.033C54.7483 108.161 54.4758 108.289 54.4598 108.418C54.4438 108.546 54.6441 108.858 54.8925 109.059C55.1372 109.271 55.4062 109.454 55.6939 109.604C56.2543 109.894 56.8675 110.068 57.4969 110.116C58.6677 110.23 59.8363 109.879 60.7504 109.139L60.9587 108.962L61.0469 109.219C61.4204 110.385 61.923 111.506 62.5454 112.561C63.0359 113.36 63.7192 114.024 64.5327 114.492C65.2721 114.887 66.109 115.062 66.9448 114.997Z" fill="#FF9A6C"/>
<path d="M148.401 29.4692C148.457 24.9176 149.203 20.382 148.994 15.8464C148.786 11.3108 147.624 6.5588 144.451 3.29733C141.277 0.0358633 135.74 -1.19819 132.054 1.40617L131.252 5.28467C132.711 22.8341 132.519 40.664 133.977 58.2134C134.169 60.5213 136.036 62.6128 137.086 64.6722C138.136 66.7317 140.244 68.4385 142.551 68.2943C145.572 68.11 147.552 65.0489 148.489 62.164C151.935 51.7385 148.265 40.4716 148.401 29.4692Z" fill="#263238"/>
<path d="M137.455 5.86958C136.847 4.71328 136.066 3.65667 135.139 2.73633C134.672 2.27863 134.106 1.93274 133.486 1.72457C132.866 1.5164 132.206 1.45135 131.557 1.53431C131.252 1.57231 130.961 1.688 130.712 1.87037C130.464 2.05274 130.267 2.29569 130.139 2.57605C129.939 3.15301 130.371 3.93031 130.98 3.87422L131.109 3.98642C132.471 5.19378 133.857 6.37175 135.267 7.52035C135.604 7.83428 135.999 8.07928 136.429 8.24155C136.646 8.32047 136.88 8.33677 137.106 8.28858C137.331 8.24039 137.538 8.12967 137.704 7.9691C138.208 7.40816 137.84 6.51867 137.455 5.86958Z" fill="#D92C2A"/>
<path d="M140.027 10.3412C135.492 4.79588 129.402 1.59852 122.238 1.5264C118.231 1.45428 116.524 2.32775 113.615 3.08101C110.702 3.78423 108.128 5.48539 106.339 7.88907C104.279 10.814 102.549 14.0915 102.156 17.6574C101.642 21.3009 101.468 24.9842 101.635 28.6599C101.803 32.3535 102.99 35.9286 105.065 38.9892L114.392 40.5919C119.545 40.7682 124.77 40.9365 129.794 39.7905C134.819 38.6446 139.691 35.912 142.375 31.5127C146.11 25.3584 144.555 15.8785 140.027 10.3412Z" fill="#263238"/>
<path d="M131.733 10.2771L119.296 5.33276L116.043 5.7094C108.735 5.7094 103.686 13.803 103.638 19.7169C103.59 26.3039 103.782 34.3334 104.824 39.1815C106.932 48.9339 115.241 49.7432 115.241 49.7432C115.241 49.7432 115.073 54.9439 115.009 58.2134L134.057 56.8431L135.011 13.6187C134.982 12.7525 134.629 11.9287 134.022 11.31C133.415 10.6913 132.599 10.3227 131.733 10.2771Z" fill="#FFBF9D"/>
<path d="M115.226 49.7352C119.862 49.5517 124.356 48.0842 128.208 45.4961C128.208 45.4961 125.074 52.5078 115.178 52.1312L115.226 49.7352Z" fill="#FF9A6C"/>
<path d="M119.449 36.8977C119.372 36.3992 119.116 35.9461 118.728 35.6235C118.375 35.3197 117.932 35.1402 117.468 35.1127C117.003 35.0851 116.542 35.2112 116.156 35.4713C115.755 35.7802 115.444 36.1901 115.253 36.659C115.063 37.1279 115.001 37.639 115.074 38.1398C115.288 38.4404 115.564 38.6917 115.883 38.8769C116.203 39.0621 116.558 39.1769 116.925 39.2136C117.04 39.2216 117.155 39.2216 117.27 39.2136C117.864 39.2259 118.44 39.0044 118.872 38.5965C119.09 38.3749 119.255 38.107 119.355 37.8129C119.455 37.5188 119.487 37.206 119.449 36.8977Z" fill="#FF9A6C"/>
<path d="M106.932 28.0428C106.944 28.3723 107.086 28.6837 107.325 28.91C107.565 29.1363 107.884 29.2594 108.214 29.2529C108.375 29.2561 108.535 29.2272 108.685 29.1679C108.835 29.1086 108.972 29.0201 109.088 28.9075C109.203 28.795 109.295 28.6606 109.359 28.5121C109.422 28.3637 109.455 28.2042 109.456 28.0428C109.439 27.7134 109.296 27.4031 109.055 27.1775C108.814 26.9518 108.496 26.8283 108.166 26.8328C108.005 26.8296 107.845 26.8585 107.695 26.9179C107.546 26.9773 107.409 27.0659 107.295 27.1786C107.18 27.2913 107.088 27.4258 107.026 27.5741C106.964 27.7225 106.932 27.8819 106.932 28.0428Z" fill="#263238"/>
<path d="M105.866 23.0103C106.026 23.1626 106.948 22.4093 108.27 22.3372C109.592 22.2651 110.674 22.8901 110.802 22.7138C110.931 22.5375 110.69 22.3452 110.241 22.0567C109.631 21.682 108.92 21.5057 108.206 21.5519C107.5 21.5868 106.824 21.8449 106.275 22.2891C105.906 22.6337 105.778 22.9382 105.866 23.0103Z" fill="#263238"/>
<path d="M114.585 33.6603C113.858 33.4693 113.109 33.3749 112.357 33.3798C112.012 33.3798 111.676 33.3157 111.604 33.0753C111.56 32.7209 111.621 32.3615 111.78 32.0416C112.06 31.1841 112.357 30.2866 112.661 29.341C113.88 25.5106 114.745 22.3613 114.585 22.3132C114.424 22.2652 113.319 25.3343 112.101 29.1727L111.299 31.8813C111.102 32.3109 111.065 32.797 111.195 33.2516C111.25 33.3709 111.333 33.4758 111.436 33.5578C111.539 33.6399 111.659 33.6969 111.788 33.7244C111.983 33.7661 112.182 33.7823 112.381 33.7725C113.117 33.8219 113.857 33.7843 114.585 33.6603Z" fill="#263238"/>
<path d="M118.631 34.3735C118.415 34.3735 118.487 35.8479 117.285 36.9618C116.083 38.0757 114.504 38.0036 114.504 38.2119C114.504 38.4203 114.873 38.4763 115.53 38.4603C116.397 38.426 117.223 38.0853 117.862 37.4987C118.474 36.9384 118.844 36.1629 118.896 35.3351C118.912 34.718 118.735 34.3655 118.631 34.3735Z" fill="#263238"/>
<path d="M106.322 18.2584C106.571 18.5709 107.597 18.2985 108.815 18.3305C110.033 18.3626 111.058 18.627 111.315 18.3305C111.427 18.1783 111.275 17.8657 110.834 17.5292C110.238 17.1418 109.541 16.9384 108.831 16.9442C108.12 16.9251 107.419 17.1115 106.811 17.4811C106.371 17.7856 106.218 18.0981 106.322 18.2584Z" fill="#263238"/>
<path d="M121.749 27.7063C121.755 28.0354 121.634 28.3542 121.409 28.595C121.185 28.8359 120.875 28.9798 120.547 28.9964C120.386 29.0118 120.225 28.9951 120.071 28.9471C119.917 28.8992 119.775 28.8211 119.651 28.7174C119.528 28.6136 119.427 28.4864 119.354 28.343C119.28 28.1997 119.236 28.0431 119.224 27.8826C119.218 27.554 119.338 27.2354 119.56 26.9935C119.783 26.7516 120.09 26.605 120.418 26.5844C120.58 26.569 120.742 26.586 120.897 26.6343C121.052 26.6827 121.195 26.7614 121.319 26.8658C121.443 26.9703 121.545 27.0985 121.619 27.2428C121.692 27.3871 121.737 27.5447 121.749 27.7063Z" fill="#263238"/>
<path d="M124.233 22.4814C124.08 22.6497 123.111 21.9606 121.748 21.9846C120.386 22.0086 119.408 22.7138 119.256 22.5456C119.104 22.3773 119.336 22.1769 119.769 21.8484C120.348 21.431 121.043 21.2041 121.756 21.1993C122.463 21.1836 123.157 21.3942 123.736 21.8003C124.16 22.1128 124.313 22.4093 124.233 22.4814Z" fill="#263238"/>
<path d="M123.415 18.1382C123.159 18.4507 122.101 18.1382 120.843 18.1382C119.585 18.1382 118.511 18.3866 118.263 18.0661C118.15 17.9138 118.319 17.6013 118.775 17.2648C119.409 16.8938 120.133 16.7078 120.867 16.7278C121.596 16.7195 122.311 16.9227 122.926 17.3128C123.383 17.6654 123.535 17.986 123.415 18.1382Z" fill="#263238"/>
<path d="M133.336 30.1424C133.336 29.4131 134.049 27.6422 134.77 27.4899C136.686 27.0812 140.171 27.0412 140.476 31.9454C140.893 38.6526 134.065 37.683 134.065 37.4907C134.065 37.2984 133.456 32.6746 133.336 30.1424Z" fill="#FFBF9D"/>
<path d="M135.74 34.9264C135.74 34.9264 135.86 35.0066 136.061 35.0787C136.343 35.1936 136.66 35.1936 136.942 35.0787C137.631 34.7742 138.16 33.6122 138.12 32.4022C138.101 31.8266 137.953 31.2626 137.687 30.7514C137.612 30.545 137.487 30.3603 137.324 30.2135C137.16 30.0668 136.963 29.9625 136.75 29.91C136.614 29.8833 136.474 29.9046 136.352 29.9705C136.231 30.0363 136.136 30.1425 136.085 30.2706C136.005 30.4629 136.085 30.5992 136.021 30.6072C135.957 30.6152 135.868 30.503 135.909 30.2225C135.935 30.0545 136.02 29.9012 136.149 29.7898C136.235 29.7138 136.335 29.6561 136.444 29.6203C136.553 29.5845 136.668 29.5713 136.782 29.5815C137.061 29.6151 137.327 29.7217 137.552 29.8905C137.777 30.0593 137.954 30.2844 138.064 30.5431C138.384 31.1063 138.563 31.7387 138.585 32.3862C138.625 33.7404 138.008 35.0466 137.062 35.3832C136.886 35.4472 136.697 35.4711 136.51 35.4531C136.323 35.4351 136.142 35.3756 135.981 35.279C135.74 35.0947 135.74 34.9424 135.74 34.9264Z" fill="#FF9A6C"/>
<path d="M135.027 27.5059L133.336 29.2528C125.98 22.209 111.604 4.57944 112.413 5.6292C115.766 4.38292 119.379 3.9999 122.919 4.51534C128.392 5.4449 138.761 8.1855 138.601 14.6363C138.441 21.0871 135.027 27.5059 135.027 27.5059Z" fill="#263238"/>
<path d="M144.771 26.0474C144.749 25.9161 144.714 25.7872 144.667 25.6628C144.545 25.2979 144.392 24.9441 144.21 24.605C143.516 23.3636 142.558 22.2888 141.405 21.4557C139.705 20.2348 137.808 19.3159 135.796 18.7392C133.552 18.01 131.028 17.441 128.544 16.3352C126.201 15.3591 123.98 14.114 121.925 12.6249C120.244 11.4076 118.677 10.0397 117.245 8.53808C116.284 7.5224 115.382 6.45216 114.544 5.33271L113.871 4.40315C113.796 4.29085 113.71 4.18618 113.615 4.09064C113.671 4.21388 113.738 4.33187 113.815 4.44323C113.951 4.66761 114.152 4.99614 114.432 5.40483C115.234 6.56437 116.115 7.66747 117.069 8.70636C120.232 12.1454 124.103 14.8576 128.416 16.6557C130.803 17.5604 133.234 18.344 135.7 19.0036C137.703 19.5496 139.599 20.4301 141.309 21.608C142.45 22.4096 143.413 23.4381 144.138 24.6291C144.555 25.5025 144.731 26.0474 144.771 26.0474Z" fill="#455A64"/>
<path d="M142.816 27.0812C142.838 26.5796 142.75 26.0792 142.559 25.6147C142.053 24.3332 141.174 23.2332 140.035 22.4575C138.331 21.3596 136.423 20.6156 134.426 20.2698C132.036 19.7908 129.706 19.049 127.478 18.0581C125.26 17.0461 123.177 15.7621 121.276 14.2357C119.729 12.9836 118.307 11.5855 117.029 10.0607C116.158 9.02647 115.355 7.93706 114.625 6.79923L114.056 5.86164C113.997 5.74884 113.924 5.64386 113.839 5.54913C113.884 5.66787 113.938 5.78305 114 5.89371L114.512 6.87134C115.195 8.03922 115.96 9.15601 116.804 10.2129C118.067 11.778 119.488 13.2092 121.043 14.4841C122.956 16.0409 125.059 17.347 127.302 18.3706C129.549 19.3733 131.905 20.1128 134.322 20.5743C136.283 20.9011 138.162 21.6089 139.851 22.6578C140.968 23.3932 141.848 24.4371 142.383 25.6628C142.571 26.1213 142.716 26.5961 142.816 27.0812Z" fill="#455A64"/>
<path d="M134.803 38.869C134.803 38.8209 135.372 38.7488 136.365 38.4843C137.759 38.0821 139.041 37.3667 140.116 36.3928C141.69 34.9198 142.885 33.0891 143.601 31.0559C144.517 28.5779 145.01 25.964 145.06 23.3229C145.09 21.9583 144.98 20.5942 144.731 19.2521C144.059 15.8765 142.474 12.75 140.148 10.2129C138.78 8.76069 137.272 7.44805 135.644 6.29437C135.644 6.29437 135.78 6.34245 136.021 6.48669C136.261 6.63093 136.606 6.82327 137.03 7.12778C138.248 7.96282 139.371 8.92739 140.38 10.0046C141.892 11.6008 143.114 13.4472 143.994 15.4617C144.504 16.6566 144.893 17.8996 145.156 19.172C145.414 20.5427 145.529 21.9364 145.501 23.3309C145.453 26.0216 144.94 28.6838 143.986 31.2001C143.228 33.2809 141.97 35.1437 140.324 36.6252C139.2 37.6025 137.86 38.2975 136.413 38.6526C136.02 38.7419 135.621 38.8062 135.219 38.8449C135.081 38.8638 134.942 38.8718 134.803 38.869Z" fill="#455A64"/>
<path d="M143.337 121.335L103.686 127.097C88.7891 131.312 73.0988 132.546 56.6953 131.104L116.371 158.942L140.331 159.311C140.331 159.311 147.624 159.311 148.898 152.948C150.172 146.586 151.59 127.209 151.59 127.209C151.59 127.209 146.854 123.106 143.337 121.335Z" fill="#263238"/>
<g opacity="0.3">
<path opacity="0.3" d="M143.216 138.027C143.872 141.998 144.108 146.027 143.921 150.047C145.139 148.71 146.036 147.113 146.544 145.378C147.053 143.642 147.159 141.813 146.854 140.031C146.51 138.075 145.692 135.92 146.718 134.213C147.407 133.067 149.226 131.753 148.962 130.447C148.962 130.447 147.359 130.447 145.925 130.39C144.763 130.342 142.351 130.27 142.351 130.27C143.388 132.763 143.613 135.52 142.992 138.147" fill="black"/>
</g>
<path d="M115.073 56.5706L134.337 54.4951L137.863 57.7005L124.112 65.786L118.046 68.9273L112.052 67.1083L110.153 63.5343L115.073 56.5706Z" fill="#FFBF9D"/>
<path d="M89.1016 80.0339C89.1016 80.0339 95.1437 68.4465 96.6342 65.9143C99.1825 61.595 103.942 59.1509 103.942 59.1509L115.073 56.5786C115.073 56.5786 113.919 62.188 120.843 62.5406C129.658 63.0294 135.131 54.5833 135.131 54.5833C135.131 54.5833 145.18 55.617 147.952 56.7789C150.725 57.9409 158.578 61.2344 159.732 71.6679L162.424 88.7125L141.189 90.3152L141.477 113.009L132.454 120.39C132.454 120.39 106.547 129.309 104.888 129.894C104.087 130.174 104.295 119.164 102.444 109.724L98.9501 101.237C97.5358 97.8479 96.6988 94.2455 96.4739 90.5796C96.3377 88.1756 96.4018 86.3325 96.4018 86.3325C96.4018 86.3325 90.9527 84.4654 89.1016 80.0339Z" fill="#455A64"/>
<path d="M105.834 120.999L141.437 110.317L141.189 90.3312L159.315 88.9529C159.315 88.9529 157.873 99.3062 157.657 104.611C157.352 112.248 153.65 122.922 151.246 125.182C148.842 127.441 104.912 129.91 104.912 129.91L105.834 120.999Z" fill="#FFBF9D"/>
<path d="M85.6399 127.281C85.8116 127.575 86.0843 127.796 86.4072 127.904C86.7301 128.012 87.0811 127.998 87.3948 127.866C88.1962 127.546 87.9798 125.927 87.9798 125.927L91.7702 124.997C91.7702 124.997 97.0029 127.834 98.9823 129.805C100.962 131.777 105.313 129.717 105.313 129.717L106.218 121.407L98.6617 115.565C98.6617 115.565 99.1265 115.918 98.5415 114.764C97.9565 113.61 95.7769 114.235 95.7769 114.235C95.3922 113.666 93.9258 113.57 93.9258 113.57L87.7795 114.764C87.1558 114.885 86.5672 115.145 86.0569 115.524C85.5466 115.902 85.1276 116.39 84.8305 116.952L82.5307 121.303C82.5307 121.303 81.3768 124.396 81.6572 125.077C81.7781 125.359 81.9984 125.587 82.2762 125.717C82.554 125.847 82.8699 125.87 83.1637 125.783C83.1637 125.783 83.6205 127.722 84.1414 127.746C84.6677 127.681 85.1764 127.515 85.6399 127.257V127.281Z" fill="#FFBF9D"/>
<path d="M98.3733 120.39C98.3733 120.454 97.5719 120.438 96.2257 120.598C94.5113 120.816 92.8346 121.267 91.2413 121.936C90.3665 122.31 89.5225 122.752 88.7171 123.258C88.0039 123.731 87.2506 124.14 87.0503 124.709C87.0071 124.831 86.9962 124.962 87.0186 125.09C87.0411 125.218 87.0962 125.338 87.1785 125.438C87.3052 125.604 87.4779 125.73 87.6753 125.799C88.0119 125.903 88.2122 125.799 88.2283 125.799C88.2443 125.799 88.044 125.983 87.6353 125.911C87.3933 125.857 87.1746 125.728 87.0102 125.542C86.8923 125.415 86.8095 125.26 86.7701 125.091C86.7308 124.923 86.7362 124.746 86.7859 124.581C86.9226 124.207 87.1683 123.883 87.491 123.651C87.8116 123.403 88.1481 123.154 88.5248 122.906C90.8204 121.402 93.4578 120.501 96.1936 120.285C96.921 120.202 97.6571 120.237 98.3733 120.39Z" fill="#FF9A6C"/>
<path d="M99.1187 124.308C99.1187 124.42 96.5865 124.517 93.5093 124.933C90.4321 125.35 87.964 125.927 87.8999 125.815C88.4084 125.57 88.9474 125.395 89.5026 125.294C90.8012 124.967 92.1176 124.716 93.4452 124.541C94.7737 124.36 96.1115 124.256 97.4519 124.228C98.0086 124.179 98.5694 124.206 99.1187 124.308Z" fill="#FF9A6C"/>
<path d="M85.6642 127.121C85.5992 126.91 85.5562 126.692 85.536 126.472C85.4534 125.869 85.4052 125.261 85.3917 124.653C85.3847 124.229 85.4115 123.806 85.4719 123.387C85.5461 122.893 85.7177 122.419 85.9767 121.992C86.5098 121.004 87.2344 120.133 88.1083 119.428C88.9727 118.721 89.9332 118.141 90.9611 117.705C91.813 117.389 92.7015 117.182 93.6055 117.088C94.4068 117 94.9838 116.976 95.4165 116.952C95.637 116.919 95.8611 116.919 96.0816 116.952C95.289 117.133 94.4862 117.267 93.6776 117.353C92.8056 117.481 91.9508 117.706 91.1293 118.026C90.1434 118.466 89.2215 119.037 88.3887 119.725C87.5582 120.393 86.8574 121.207 86.3213 122.129C85.8935 122.888 85.6802 123.749 85.7042 124.621C85.6401 126.167 85.7523 127.121 85.6642 127.121Z" fill="#FF9A6C"/>
<path d="M93.7496 115.189C93.7496 115.253 92.8281 115.349 91.3456 115.63C89.8631 115.91 87.6594 116.239 86.5375 118.306C85.3925 119.874 84.4677 121.592 83.7889 123.411C83.5774 124.184 83.4405 124.975 83.3803 125.775C83.3054 125.564 83.2754 125.34 83.2921 125.118C83.2776 124.514 83.3532 123.912 83.5165 123.331C84.1264 121.448 85.0355 119.675 86.209 118.082C86.5208 117.599 86.8954 117.16 87.3229 116.776C87.7352 116.422 88.2111 116.15 88.7252 115.974C89.5678 115.682 90.4376 115.475 91.3216 115.357C92.1207 115.2 92.9364 115.143 93.7496 115.189Z" fill="#FF9A6C"/>
<path d="M97.4924 128.619C97.3537 128.547 97.2222 128.461 97.0997 128.363L96.0019 127.618C94.6185 126.706 93.1844 125.874 91.7067 125.126H91.7948L88.0125 126.079L88.1327 125.903C88.1688 126.217 88.1688 126.534 88.1327 126.848C88.109 127.195 87.9836 127.527 87.7721 127.802C87.6407 127.94 87.4701 128.036 87.2833 128.074C87.111 128.135 86.9284 128.159 86.7464 128.147C86.3701 128.12 86.0154 127.961 85.7447 127.698C85.679 127.629 85.6175 127.557 85.5604 127.481V127.425L85.7848 127.489L85.6646 127.546C85.5088 127.627 85.3482 127.7 85.1838 127.762C85.0161 127.828 84.8449 127.884 84.6709 127.93C84.5793 127.957 84.4854 127.976 84.3904 127.986C84.2688 128.006 84.1441 127.992 84.0298 127.946C83.8468 127.83 83.7019 127.663 83.6131 127.465C83.5243 127.3 83.4466 127.129 83.3807 126.953C83.246 126.606 83.1362 126.249 83.0522 125.887L83.2846 126.023C83.0292 126.101 82.7571 126.108 82.4983 126.041C82.2395 125.975 82.0041 125.838 81.8181 125.646C81.6246 125.442 81.5109 125.174 81.4976 124.893C81.4969 124.64 81.5211 124.388 81.5697 124.14C81.7841 123.175 82.068 122.227 82.4191 121.303L83.6452 118.979L84.4465 117.513C84.6841 117.006 84.9742 116.525 85.312 116.078C85.6793 115.649 86.1288 115.297 86.6342 115.045C87.127 114.818 87.6511 114.667 88.1888 114.596L93.9745 113.482H94.0226C94.3783 113.509 94.7302 113.573 95.0723 113.674C95.4356 113.755 95.7639 113.948 96.0099 114.227L95.7855 114.179C96.0908 114.01 96.4325 113.918 96.7813 113.909C97.1301 113.901 97.4758 113.977 97.7889 114.131C98.3301 114.473 98.7244 115.004 98.8947 115.622L98.8386 115.549L104.047 119.556L105.45 120.662C105.619 120.785 105.777 120.921 105.923 121.071C105.738 120.976 105.564 120.863 105.402 120.734L103.951 119.684L98.6623 115.79H98.6223V115.734C98.4731 115.197 98.1268 114.736 97.6527 114.444C97.3884 114.317 97.0974 114.255 96.8044 114.265C96.5113 114.275 96.225 114.355 95.9698 114.5L95.8336 114.564L95.7455 114.452C95.5417 114.241 95.2793 114.095 94.9922 114.035C94.6727 113.947 94.3452 113.89 94.0145 113.867H94.0626L88.2769 115.005C87.7718 115.07 87.2799 115.213 86.8185 115.429C86.3636 115.655 85.9599 115.971 85.6325 116.359C85.3169 116.785 85.0482 117.245 84.8312 117.729L84.0298 119.196C83.6051 119.997 83.2285 120.798 82.8038 121.519C82.4732 122.424 82.2055 123.351 82.0024 124.292C81.9564 124.511 81.9322 124.734 81.9303 124.957C81.941 125.15 82.0207 125.332 82.1547 125.47C82.2925 125.608 82.465 125.706 82.654 125.754C82.8431 125.802 83.0416 125.798 83.2285 125.743L83.4208 125.694V125.879C83.5089 126.223 83.6131 126.576 83.7333 126.904C83.8212 127.205 83.9807 127.48 84.1981 127.706C84.2504 127.721 84.3061 127.721 84.3584 127.706L84.5908 127.658C84.7527 127.622 84.911 127.571 85.0636 127.506C85.2158 127.449 85.3681 127.377 85.5203 127.305L85.6325 127.257L85.8649 127.321V127.361C85.9086 127.424 85.9568 127.482 86.0091 127.538C86.1585 127.697 86.3502 127.81 86.5617 127.864C86.7732 127.918 86.9958 127.91 87.2031 127.842C87.3311 127.82 87.4488 127.758 87.5397 127.666C87.8221 127.182 87.927 126.616 87.8362 126.063V125.919H87.9644L91.7628 125.021H91.8109C93.2877 125.79 94.7094 126.66 96.066 127.626C96.5388 127.97 96.8673 128.243 97.1318 128.427C97.2564 128.482 97.3769 128.547 97.4924 128.619Z" fill="#FF9A6C"/>
<path d="M78.9809 133.764C78.9809 133.764 53.8588 125.871 45.9736 123.347C32.3508 118.939 23.4879 123.395 20.6832 128.251C17.0451 134.557 25.7718 146.858 29.1374 149.687C39.0981 158.061 56.1747 159.191 56.1747 159.191L117.574 159.078L99.6796 134.734L78.9809 133.764Z" fill="#263238"/>
<path d="M82.7472 145.159C72.5159 146.35 62.1494 144.939 52.6087 141.056C50.981 140.32 49.305 139.697 47.5923 139.189C45.8992 138.762 44.1441 138.637 42.4076 138.821C41.7185 138.838 41.0399 138.994 40.4121 139.279C39.7844 139.564 39.2204 139.972 38.7535 140.479C37.5274 142.082 38.1525 144.39 38.8336 146.297C39.635 148.541 40.4363 150.833 42.039 152.628C43.858 154.719 46.5025 155.921 49.1549 156.755C54.3396 158.357 59.8128 158.862 65.2459 159.07L83.9012 158.053L82.7472 145.159Z" fill="#E0E0E0"/>
<path d="M46.7189 139.197C46.8414 139.348 46.9364 139.519 46.9993 139.702C47.216 140.18 47.3825 140.68 47.4961 141.193C47.8989 142.898 47.8282 144.681 47.2915 146.349C46.7548 148.016 45.7727 149.506 44.451 150.656C44.0576 151.001 43.6339 151.31 43.1849 151.578C42.8564 151.762 42.6721 151.842 42.656 151.818C42.64 151.794 43.3292 151.354 44.2587 150.448C45.4783 149.282 46.3875 147.83 46.9039 146.223C47.4202 144.617 47.5274 142.907 47.2157 141.249C46.9913 139.966 46.6547 139.221 46.7189 139.197Z" fill="#263238"/>
<path d="M143.104 132.225C141.646 128.091 141.405 122.016 132.406 119.099C123.407 116.183 116.612 121.776 111.988 123.715C107.364 125.654 82.0979 139.518 82.0979 139.518C82.0979 139.518 77.3379 148.004 78.6922 151.754C80.0465 155.504 86.2008 159.207 86.2008 159.207H114.464C121.756 159.207 135.299 158.958 135.299 158.958C137.112 155.986 138.737 152.903 140.163 149.727L140.404 148.509C140.428 147.539 144.555 136.36 143.104 132.225Z" fill="#263238"/>
<path d="M127.446 153.693C127.409 153.837 127.338 153.969 127.238 154.078C126.964 154.396 126.651 154.678 126.308 154.92C125.046 155.79 123.705 156.538 122.301 157.155C121.343 157.602 120.358 157.99 119.352 158.317C118.188 158.684 116.995 158.952 115.786 159.119C113.028 159.393 110.256 159.5 107.485 159.439C101.611 159.535 96.2658 159.76 92.4193 159.712C90.4881 159.712 88.9255 159.623 87.8517 159.511C87.4374 159.475 87.0254 159.416 86.6176 159.335C86.4731 159.318 86.3308 159.285 86.1929 159.239C86.1929 159.199 86.7859 159.303 87.8597 159.359C88.9335 159.415 90.4961 159.455 92.4193 159.439C96.2738 159.439 101.595 159.143 107.485 159.046C110.242 159.106 113 159.01 115.746 158.758C116.934 158.612 118.108 158.371 119.256 158.037C120.256 157.728 121.235 157.359 122.189 156.931C123.583 156.345 124.923 155.64 126.196 154.823C126.542 154.592 126.862 154.323 127.15 154.022C127.374 153.83 127.422 153.685 127.446 153.693Z" fill="#263238"/>
<path d="M86.2012 159.207L85.8246 159.006C85.5842 158.87 85.2316 158.646 84.7748 158.349C83.4458 157.482 82.201 156.492 81.0566 155.392C80.2276 154.597 79.5202 153.685 78.9571 152.684C78.3816 151.43 78.2351 150.022 78.5404 148.677C79.2275 145.455 80.3802 142.351 81.9621 139.462V139.422C86.5939 136.873 91.9068 133.98 97.7085 130.863C100.609 129.309 103.63 127.698 106.772 126.055C108.374 125.254 109.977 124.452 111.58 123.651C113.182 122.85 114.825 122.048 116.484 121.183C118.776 119.927 121.233 119.002 123.784 118.434C125.037 118.184 126.313 118.069 127.591 118.09C128.841 118.128 130.082 118.305 131.293 118.619C133.64 119.197 135.843 120.249 137.768 121.712C138.662 122.453 139.455 123.31 140.124 124.26C140.739 125.197 141.247 126.199 141.638 127.249C142.039 128.275 142.319 129.309 142.608 130.318C142.938 131.299 143.206 132.3 143.409 133.315C143.535 135.254 143.373 137.201 142.928 139.093C142.568 140.896 142.127 142.579 141.67 144.141C141.446 144.943 141.221 145.688 141.013 146.417C140.805 147.147 140.564 147.868 140.452 148.509C140.356 148.966 140.284 149.31 140.204 149.719C139.432 152.195 138.341 154.56 136.958 156.755C136.468 157.539 135.89 158.265 135.235 158.918L135.34 158.774C135.428 158.67 135.54 158.542 135.676 158.365C136.101 157.831 136.497 157.275 136.862 156.699C138.197 154.491 139.25 152.124 139.995 149.655C140.452 149.27 140.364 148.893 140.228 148.437C140.368 147.706 140.55 146.983 140.773 146.273L141.422 144.005C141.854 142.403 142.287 140.752 142.64 138.965C143.067 137.103 143.218 135.189 143.089 133.283C142.878 132.288 142.61 131.307 142.287 130.342C141.991 129.333 141.702 128.307 141.31 127.305C140.927 126.28 140.43 125.302 139.827 124.388C139.177 123.469 138.406 122.642 137.535 121.928C134.653 119.768 131.181 118.538 127.583 118.402C126.334 118.382 125.088 118.497 123.864 118.747C121.344 119.306 118.915 120.221 116.652 121.463C115.05 122.265 113.447 123.226 111.724 123.94C110.001 124.653 108.519 125.502 106.916 126.344C103.783 127.946 100.754 129.549 97.8527 131.152L82.0823 139.654L82.1384 139.59C80.5611 142.446 79.4033 145.515 78.7006 148.701C78.3845 150.001 78.5114 151.369 79.0612 152.588C79.6007 153.58 80.2869 154.485 81.0966 155.272C82.2204 156.38 83.4406 157.386 84.7428 158.277L85.7685 158.966C86.057 159.119 86.2012 159.207 86.2012 159.207Z" fill="#263238"/>
<path d="M132.198 148.717C132.198 148.717 140.62 149.727 139.875 153.846C139.13 157.965 136.373 159.351 136.373 159.351L113.487 159.399C113.487 159.399 127.15 158.453 132.198 148.717Z" fill="#E0E0E0"/>
<path d="M133.015 146.722C133.014 147.123 132.926 147.519 132.759 147.884C132.449 148.805 131.989 149.669 131.397 150.44C130.599 151.564 129.482 152.424 128.191 152.908C129.254 152.111 130.229 151.203 131.1 150.2C131.835 149.096 132.476 147.933 133.015 146.722Z" fill="#263238"/>
<path d="M130.131 148.332C130.144 149.366 129.866 150.382 129.329 151.265C128.918 152.202 128.289 153.026 127.494 153.669C127.406 153.597 128.232 152.532 128.977 151.065C129.722 149.599 129.986 148.316 130.131 148.332Z" fill="#263238"/>
<path d="M140.837 158.205C140.773 158.205 141.317 157.131 141.975 155.36C143.7 150.735 144.269 145.759 143.633 140.864C143.385 138.997 143.096 137.851 143.161 137.835C143.287 138.088 143.379 138.358 143.433 138.636C143.631 139.362 143.789 140.097 143.906 140.84C144.708 145.778 144.131 150.841 142.239 155.472C141.953 156.155 141.63 156.821 141.269 157.468C141.155 157.73 141.01 157.977 140.837 158.205Z" fill="#455A64"/>
<g opacity="0.3">
<path opacity="0.3" d="M136.076 146.497C136.012 145.944 135.796 145.287 135.275 145.175C134.602 145.039 134.145 145.808 133.881 146.433C130.932 153.141 121.404 158.373 114.104 159.07C117.644 159.063 121.179 158.773 124.673 158.205C127.654 157.759 130.448 156.481 132.735 154.519C133.872 153.53 134.765 152.291 135.345 150.899C135.925 149.508 136.175 148.002 136.076 146.497Z" fill="black"/>
</g>
<path d="M80.319 137.37C78.9234 136.978 77.5662 136.461 76.2642 135.823C74.9107 135.311 73.6071 134.675 72.3696 133.924C73.7634 134.318 75.1201 134.833 76.4244 135.463C77.7782 135.978 79.0819 136.617 80.319 137.37Z" fill="#263238"/>
<g opacity="0.2">
<path opacity="0.2" d="M88.4604 133.828C77.5621 131.745 66.6238 129.893 55.6454 128.275L47.4717 130.855C49.7635 135.118 54.2911 137.835 58.995 138.957C63.6989 140.079 68.6111 139.814 73.4192 139.373C78.7241 138.885 84.1732 138.139 88.7889 135.479C89.1415 135.279 89.5422 134.974 89.4941 134.565C89.446 134.157 88.9332 133.916 88.4604 133.828Z" fill="black"/>
</g>
<path d="M34.8188 101.374L48.5538 131.745C48.8316 132.364 49.2814 132.89 49.8497 133.261C50.4179 133.631 51.0807 133.831 51.7592 133.836L91.8263 134.357L96.8748 131.64L88.9655 131.063L76.6569 101.526C76.4653 101.066 76.1429 100.673 75.7297 100.396C75.3166 100.118 74.8309 99.9674 74.333 99.9633L35.9567 99.6749C35.752 99.6674 35.5488 99.7124 35.3663 99.8056C35.1839 99.8987 35.0283 100.037 34.9143 100.207C34.8003 100.377 34.7317 100.574 34.7149 100.778C34.6982 100.982 34.734 101.187 34.8188 101.374Z" fill="#E0E0E0"/>
<path d="M34.8186 101.374C34.7531 101.261 34.7121 101.135 34.6984 101.005C34.6731 100.813 34.694 100.617 34.7595 100.435C34.8251 100.252 34.9332 100.088 35.0751 99.9554C35.2941 99.7522 35.578 99.633 35.8764 99.6188H39.3943L55.4612 99.6749L66.632 99.731L72.8744 99.7711H74.4771C75.0706 99.8139 75.6337 100.05 76.0798 100.444C76.5097 100.847 76.8272 101.356 77.0013 101.919L77.6584 103.521C81.1603 111.911 85.0308 121.191 89.1337 130.999L88.9414 130.863L96.5782 131.424H96.8506L97.652 131.48L96.9708 131.849L91.9224 134.565H91.8663H91.8102L61.4393 134.149L54.6599 134.053C53.554 134.053 52.4963 134.053 51.3984 133.988C50.8501 133.924 50.3226 133.739 49.8533 133.449C49.3839 133.158 48.984 132.768 48.6819 132.306C46.8949 128.547 45.4044 125.094 43.9539 121.888L37.2387 106.871C36.4374 105.116 35.8604 103.746 35.4437 102.792C35.2433 102.343 35.0991 101.991 34.9869 101.734C34.8747 101.478 34.8427 101.366 34.8427 101.366C34.9111 101.479 34.9727 101.597 35.027 101.718L35.5238 102.76C35.9565 103.698 36.5816 105.06 37.3909 106.767L44.2344 121.736C45.6848 124.885 47.2395 128.427 48.9864 132.081C49.2583 132.498 49.6193 132.849 50.0433 133.11C50.4673 133.37 50.9438 133.534 51.4385 133.588C52.4642 133.636 53.5781 133.628 54.6439 133.644L61.4232 133.724L91.7941 134.093H91.682L96.7304 131.368L96.8266 131.793H96.5541L88.9173 131.24H88.7811L88.725 131.12C84.6462 121.295 80.7837 112.016 77.2898 103.618L76.6407 102.055C76.4979 101.545 76.2212 101.083 75.8394 100.717C75.4584 100.373 74.9731 100.167 74.4611 100.132H72.8584L66.6159 100.076L55.4532 99.9634L39.3703 99.7711H36.854H35.8604C35.7017 99.777 35.5458 99.8151 35.4023 99.8832C35.2588 99.9513 35.1306 100.048 35.0257 100.167C34.9207 100.286 34.8411 100.426 34.7917 100.577C34.7424 100.728 34.7242 100.887 34.7385 101.045C34.7591 101.156 34.7859 101.266 34.8186 101.374Z" fill="#263238"/>
<path d="M87.7555 134.301C87.6808 134.197 87.6189 134.084 87.5712 133.964L87.1144 132.987C86.7137 132.073 86.1688 130.839 85.5117 129.349C84.1735 126.263 82.3544 122 80.3991 117.256C78.4439 112.512 76.713 108.209 75.519 105.076C74.9179 103.473 74.4452 102.231 74.1406 101.342C73.9964 100.933 73.8842 100.596 73.7881 100.316C73.7432 100.197 73.711 100.073 73.6919 99.9473C73.7652 100.051 73.8245 100.164 73.8682 100.284L74.2849 101.286C74.6615 102.215 75.1664 103.457 75.7754 104.972C77.0736 108.129 78.8285 112.392 80.7597 117.112C82.691 121.832 84.47 126.079 85.7681 129.236L87.2667 132.923C87.4189 133.331 87.5471 133.66 87.6513 133.932C87.7069 134.048 87.7421 134.173 87.7555 134.301Z" fill="#263238"/>
<path d="M62.9138 116.094C62.9154 116.485 62.8009 116.867 62.5849 117.193C62.3689 117.518 62.0611 117.772 61.7006 117.922C61.34 118.072 60.943 118.112 60.5599 118.036C60.1767 117.96 59.8247 117.773 59.5486 117.496C59.2724 117.22 59.0845 116.868 59.0087 116.485C58.9329 116.102 58.9726 115.705 59.1228 115.344C59.273 114.984 59.5269 114.676 59.8523 114.46C60.1777 114.244 60.5599 114.13 60.9505 114.131C61.4712 114.131 61.9706 114.338 62.3388 114.706C62.7069 115.074 62.9138 115.574 62.9138 116.094Z" fill="white"/>
<path d="M101.899 67.2365C101.963 67.2365 101.386 68.3504 100.577 70.1454C98.4582 74.831 97.0743 79.8151 96.4738 84.9222C96.2334 86.8855 96.1692 88.1275 96.0971 88.1275C96.0542 87.8406 96.0542 87.549 96.0971 87.2621C96.0971 86.7092 96.0971 85.9078 96.2093 84.9141C96.6622 79.7426 98.0697 74.6998 100.36 70.0412C100.801 69.1517 101.162 68.4385 101.474 67.9738C101.585 67.7118 101.728 67.4642 101.899 67.2365Z" fill="#263238"/>
<path d="M162.425 88.7125C162.282 88.7562 162.133 88.7805 161.984 88.7846L160.71 88.9048L155.95 89.3055L139.674 90.5316H139.466V90.3232C139.33 88.1596 139.186 85.8757 139.041 83.5358C138.809 79.449 138.609 75.5224 138.545 72.0045C138.337 68.8354 139.059 65.6747 140.62 62.9092C141.692 61.0441 143.274 59.5235 145.18 58.5259C145.694 58.268 146.231 58.0561 146.782 57.8928C146.974 57.8328 147.17 57.7847 147.367 57.7486C147.367 57.8127 146.566 57.981 145.244 58.6701C143.406 59.7023 141.889 61.222 140.86 63.0615C139.375 65.7992 138.711 68.9068 138.945 72.0125C139.025 75.5464 139.234 79.441 139.466 83.5278C139.61 85.8677 139.747 88.1516 139.883 90.3072L139.658 90.1149L155.95 89.041L160.758 88.7606L162.032 88.7125H162.425Z" fill="#263238"/>
<path d="M122.493 102.592C122.246 102.544 122.008 102.457 121.788 102.335C121.513 102.22 121.245 102.086 120.987 101.935C120.641 101.749 120.307 101.543 119.985 101.318C119.133 100.742 118.345 100.076 117.637 99.3303C116.781 98.406 116.028 97.3902 115.394 96.3013C114.781 95.1999 114.295 94.0333 113.943 92.8234C113.664 91.835 113.492 90.8195 113.43 89.7943C113.407 89.402 113.407 89.0087 113.43 88.6164C113.431 88.3187 113.453 88.0216 113.494 87.7269C113.502 87.4723 113.55 87.2206 113.639 86.9816C113.719 86.9816 113.582 88.0634 113.751 89.7703C113.851 90.767 114.047 91.7518 114.336 92.7112C114.704 93.8844 115.19 95.0173 115.786 96.0929C116.4 97.1534 117.122 98.1471 117.942 99.0579C118.623 99.7958 119.372 100.469 120.178 101.069C121.54 102.087 122.533 102.52 122.493 102.592Z" fill="#263238"/>
</svg>
