<svg width="428" height="220" viewBox="0 0 428 220" fill="none" xmlns="http://www.w3.org/2000/svg">
<path d="M141.163 123.181H284.485C290.048 123.181 295.383 125.391 299.316 129.324C303.25 133.257 305.459 138.591 305.459 144.154V155.998C305.459 161.687 303.199 167.143 299.176 171.165C295.153 175.188 289.697 177.447 284.008 177.447H141.163V123.189V123.181Z" fill="#E9E9E9"/>
<path d="M427.999 145.508V153.674C428.015 157.85 426.979 161.963 424.986 165.634C421.138 172.699 413.979 177.447 405.782 177.447H136.772C134.99 177.447 133.551 175.908 133.551 173.984V172.76C133.551 170.859 134.99 169.297 136.772 169.297H300.764C301.651 168.14 302.424 166.9 303.073 165.595C304.667 162.364 305.49 158.808 305.479 155.205V144.815C305.48 142.953 305.257 141.098 304.813 139.289C304.101 136.375 302.808 133.634 301.01 131.231H136.764C134.982 131.231 133.543 129.692 133.543 127.768V126.548C133.543 124.624 134.982 123.085 136.764 123.085H407.137C416.665 123.085 424.701 129.919 427.195 139.247C427.742 141.289 428.013 143.395 427.999 145.508Z" fill="#D92C2A"/>
<path d="M427.183 139.74H304.801C304.089 136.825 302.796 134.084 300.999 131.682H136.764C134.982 131.682 133.543 130.142 133.543 128.218V126.999C133.543 125.074 134.982 123.535 136.764 123.535H407.137C416.665 123.566 424.701 130.385 427.183 139.74Z" fill="#AC2625"/>
<path d="M141.163 150.314L161.083 151.226L141.163 151.777V150.314Z" fill="#C8AF34"/>
<path d="M141.163 158.83L188.554 159.742L141.163 160.289V158.83Z" fill="#C8AF34"/>
<path d="M260.513 219.55L120.285 219.55C117.625 219.55 114.99 219.026 112.532 218.008C110.074 216.99 107.841 215.498 105.96 213.617C104.079 211.736 102.587 209.503 101.568 207.045C100.55 204.587 100.026 201.953 100.026 199.293V196.361C100.026 193.863 100.519 191.39 101.475 189.082C102.431 186.774 103.832 184.677 105.598 182.911C107.365 181.145 109.462 179.743 111.77 178.788C114.078 177.832 116.551 177.34 119.05 177.34H260.513V219.55Z" fill="#E0C021"/>
<path d="M413.572 219.55L253.755 219.55C248.509 219.55 243.477 217.466 239.768 213.756C236.058 210.047 233.974 205.016 233.974 199.77V196.692C233.974 191.562 236.012 186.643 239.639 183.016C243.267 179.389 248.186 177.351 253.316 177.351L413.572 177.351V219.55Z" fill="#E9E9E9"/>
<path d="M223.421 219.542L418.975 219.542C420.596 219.542 421.911 218.227 421.911 216.606V216.163C421.911 214.542 420.596 213.227 418.975 213.227L223.421 213.227C221.799 213.227 220.484 214.542 220.484 216.163V216.606C220.484 218.227 221.799 219.542 223.421 219.542Z" fill="#E0C021"/>
<path d="M223.421 183.647L418.975 183.647C420.596 183.647 421.911 182.332 421.911 180.711V180.268C421.911 178.646 420.596 177.332 418.975 177.332L223.421 177.332C221.799 177.332 220.484 178.646 220.484 180.268V180.711C220.484 182.332 221.799 183.647 223.421 183.647Z" fill="#E0C021"/>
<path d="M413.579 198.439L391.804 199.147L413.579 199.578V198.439Z" fill="#C8AF34"/>
<path d="M413.579 188.726L361.778 189.434L413.579 189.861V188.726Z" fill="#C8AF34"/>
<path d="M362.31 189.296C363.743 190.57 364.771 192.237 365.265 194.091C365.403 194.636 365.481 195.195 365.496 195.757C365.619 199.717 365.496 208.683 365.496 208.683L372.039 204.2L378.581 208.683V196.534C378.581 194.225 378.019 192.001 376.976 190.539C376.472 189.827 375.86 189.296 375.167 189.296H362.31Z" fill="#D92C2A"/>
<path d="M362.31 189.296C363.743 190.57 364.771 192.237 365.265 194.091L378.4 194.268C378.4 194.268 377.885 190 375.175 189.296H362.31Z" fill="#AC2625"/>
<path d="M105.117 61.2765H243.636C249.517 61.2765 255.158 63.6125 259.316 67.7708C263.475 71.929 265.811 77.5687 265.811 83.4493V100.616C265.811 106.627 263.424 112.393 259.174 116.645C254.924 120.898 249.16 123.289 243.147 123.293H105.117V61.2765Z" fill="#E9E9E9"/>
<path d="M265.893 85.3619V98.7072C265.858 104.406 263.199 109.355 259.351 111.999C257.449 113.315 255.194 114.026 252.881 114.038H100.892C99.1106 114.038 97.6675 115.762 97.6675 117.886V119.46C97.6675 121.588 99.1106 123.308 100.892 123.308H363.43C370.965 123.308 377.619 118.837 381.641 111.991C384.313 107.359 385.702 102.099 385.666 96.7523V86.2239C385.678 82.5095 384.974 78.8277 383.592 75.3799C380.217 67.041 373.066 61.2919 364.788 61.2919H100.892C99.1106 61.2919 97.6675 63.012 97.6675 65.14V66.7139C97.6675 68.8419 99.1106 70.562 100.892 70.562H253.332C256.972 70.562 260.259 72.413 262.568 75.3761C264.744 78.2488 265.913 81.7583 265.893 85.3619Z" fill="#C8AF34"/>
<path d="M97.6675 117.871V119.445C97.6675 121.573 99.1106 123.293 100.892 123.293H363.429C370.965 123.293 377.619 118.821 381.64 111.976H259.335C257.434 113.292 255.179 114.003 252.866 114.015H100.892C99.1106 114.019 97.6675 115.762 97.6675 117.871Z" fill="#E0C021"/>
<path d="M105.117 92.2847L124.602 93.3275L105.117 93.9547V92.2847Z" fill="#C8AF34"/>
<path d="M105.117 78.0119L151.469 79.0548L105.117 79.682V78.0119Z" fill="#C8AF34"/>
<path d="M150.992 78.8509C150.992 78.8509 147.913 80.8173 146.92 84.0497C146.734 84.6356 146.628 85.244 146.605 85.8583C146.435 90.1528 146.605 99.8731 146.605 99.8731L137.572 95.013L128.563 99.8731V86.6972C128.563 84.2075 129.333 81.7831 130.772 80.1977C131.469 79.4281 132.311 78.8509 133.266 78.8509H150.992Z" fill="#D92C2A"/>
<path d="M150.992 79.2357C150.992 79.2357 147.913 81.2021 146.92 84.4345L128.833 84.6269C128.833 84.6269 129.545 80.0092 133.278 79.2395L150.992 79.2357Z" fill="#AC2625"/>
<path d="M260.929 112.414C265.466 120.434 271.216 123.574 271.216 123.574L295.235 123.743C295.235 123.743 257.465 106.296 260.929 112.414Z" fill="#151F2C"/>
<path d="M278.931 174.35C279.218 174.667 279.407 175.06 279.475 175.482C279.543 175.904 279.488 176.337 279.316 176.728C278.731 178.306 276.83 180.06 274.617 181.807C274.336 182.034 274.082 182.238 273.847 182.427L273.682 182.577L273.551 182.692C271.488 184.566 272.254 185.001 268.548 188.815C264.315 193.155 261.428 193.213 260.608 192.809C259.912 192.463 261.344 190.158 262.918 187.564C262.995 187.437 263.068 187.31 263.149 187.179L263.78 186.136C265.635 183.016 265.177 181.542 264.773 176.874C264.445 173.08 259.023 155.656 259.023 155.656L267.082 154.324C267.082 154.324 269.391 168.177 272.062 170.34C273.482 171.494 275.083 171.494 276.449 172.364C276.545 172.422 276.638 172.483 276.73 172.545C277.542 173.044 278.283 173.651 278.931 174.35Z" fill="#EE805F"/>
<path d="M278.931 174.35C279.218 174.667 279.407 175.06 279.475 175.482C279.543 175.904 279.488 176.337 279.316 176.728C278.604 178.302 276.745 180.049 274.609 181.792C274.332 182.023 274.082 182.231 273.863 182.427L273.697 182.577L273.566 182.692C271.504 184.566 272.269 185.001 268.563 188.815C264.33 193.155 261.443 193.213 260.624 192.809C259.927 192.463 261.359 190.158 262.933 187.564C265.879 186.438 268.475 184.553 270.457 182.1C273.008 178.894 274.725 174.758 276.464 172.372C276.56 172.429 276.653 172.491 276.745 172.553C277.552 173.05 278.287 173.655 278.931 174.35Z" fill="#151F2C"/>
<path d="M214.077 168.866C213.565 171.344 210.024 170.906 206.076 169.913C202.127 168.92 203.058 170.074 197.432 169.409C191.805 168.743 190.12 166.638 189.95 165.799C189.804 165.053 192.587 164.81 195.573 164.491L196.704 164.364C200.076 163.979 202.558 161.809 205.629 160.042C208.542 158.372 212.914 151.515 212.914 151.515L220.631 152.181C220.631 152.181 216.536 158.303 214.95 160.97C214.019 162.536 214.053 164.618 214.157 166.226C214.248 167.106 214.221 167.994 214.077 168.866Z" fill="#EE805F"/>
<path d="M206.076 169.913C202.127 168.916 203.058 170.074 197.432 169.409C191.805 168.743 190.12 166.638 189.95 165.799C189.804 165.053 192.587 164.81 195.573 164.491L195.6 164.549C198.002 166.113 200.783 166.999 203.647 167.111C207.465 167.231 211.517 166.165 214.157 166.226C214.248 167.106 214.221 167.994 214.077 168.866C213.565 171.344 210.024 170.906 206.076 169.913Z" fill="#151F2C"/>
<path d="M244.017 119.706L251.098 139.178L260.335 164.602C262.014 164.74 263.705 164.598 265.338 164.183C267.597 163.544 270.198 161.874 270.198 161.874C270.198 161.874 267.774 134.629 263.002 118.964C261.778 114.942 260.4 111.687 258.865 109.851C251.375 100.839 244.017 119.706 244.017 119.706Z" fill="#151F2C"/>
<path d="M251.572 88.9176C256.313 87.4245 269.787 89.4755 283.314 92.2231L286.185 87.5669L315.465 85.4889C315.465 85.4889 324.971 106.969 319.586 120.576C318.798 122.573 316.866 123.408 314.233 123.431C314.233 123.431 296.769 123.735 291.115 123.693C276.56 123.593 260.385 113.472 258.288 113.038C254.851 112.326 253.427 119.195 249.936 126.394C246.446 133.594 217.374 158.157 217.374 158.157C217.374 158.157 212.933 158.157 211.101 157.468C209.135 156.698 208.407 155.748 208.407 155.748C208.407 155.748 240.885 92.2885 251.572 88.9176Z" fill="#384152"/>
<path d="M286.641 47.2655C297.032 53.0762 318.08 65.1208 318.199 65.0438C318.199 65.0438 325.946 68.0262 330.376 65.1324C337.757 60.303 341.79 47.2001 328.451 35.8058C321.79 30.1221 317.041 28.7176 316.379 19.713C316.021 14.8297 309.451 -1.32854 298.364 0.0875674C297.437 0.21816 296.501 0.27221 295.566 0.249182C293.59 0.174087 291.635 0.664002 289.928 1.66144C283.601 5.35563 271.036 44.9566 286.641 47.2655Z" fill="#151F2C"/>
<path d="M295.411 42.4476C295.365 42.4784 300.526 44.2794 303.993 42.7747C307.26 41.3586 309.766 36.0213 309.712 36.0174C308.234 35.9405 306.633 34.636 305.425 26.1355L304.794 26.3586L294.168 30.0952C294.168 30.0952 294.915 33.5008 295.388 36.7409C295.784 39.4615 295.992 42.0705 295.411 42.4476Z" fill="#EE805F"/>
<path d="M294.168 30.0952C294.168 30.0952 294.622 32.481 295.249 35.8943C301.345 34.8399 303.912 29.6411 304.794 26.3586L294.168 30.0952Z" fill="#DE6B4D"/>
<path d="M292.568 33.4584C292.568 33.4584 307.08 31.6152 305.795 22.5952C304.51 13.5752 305.514 7.26042 296.193 8.05698C286.872 8.85354 285.563 12.5516 285.263 15.6686C284.963 18.7856 288.758 33.7047 292.568 33.4584Z" fill="#EE805F"/>
<path d="M299.315 28.4714C299.252 28.0668 299.044 27.699 298.729 27.4373C298.443 27.1906 298.084 27.0449 297.706 27.0226C297.329 27.0003 296.955 27.1026 296.642 27.3137C296.316 27.5644 296.064 27.8971 295.909 28.2777C295.755 28.6583 295.705 29.073 295.764 29.4795C295.937 29.7234 296.161 29.9274 296.421 30.0778C296.68 30.2281 296.968 30.3212 297.266 30.351C297.359 30.3575 297.453 30.3575 297.546 30.351C298.028 30.361 298.495 30.1812 298.846 29.8502C299.023 29.6703 299.157 29.4529 299.238 29.2142C299.319 28.9755 299.345 28.7216 299.315 28.4714Z" fill="#FF9A6C"/>
<path d="M289.153 21.2846C289.163 21.552 289.278 21.8047 289.473 21.9884C289.667 22.1721 289.926 22.272 290.194 22.2667C290.325 22.2693 290.455 22.2458 290.577 22.1977C290.699 22.1496 290.81 22.0778 290.903 21.9864C290.997 21.8951 291.072 21.786 291.123 21.6655C291.174 21.545 291.201 21.4156 291.202 21.2846C291.189 21.0172 291.072 20.7654 290.877 20.5823C290.681 20.3991 290.423 20.2988 290.155 20.3026C290.024 20.3 289.895 20.3234 289.773 20.3716C289.652 20.4198 289.541 20.4918 289.448 20.5832C289.355 20.6747 289.28 20.7838 289.23 20.9042C289.179 21.0247 289.153 21.154 289.153 21.2846Z" fill="#263238"/>
<path d="M288.289 17.2002C288.419 17.3237 289.167 16.7124 290.24 16.6538C291.313 16.5953 292.191 17.1026 292.295 16.9595C292.399 16.8164 292.204 16.6603 291.84 16.4262C291.345 16.1221 290.768 15.979 290.188 16.0165C289.615 16.0448 289.066 16.2543 288.62 16.6148C288.321 16.8945 288.217 17.1416 288.289 17.2002Z" fill="#263238"/>
<path d="M295.366 25.8438C294.776 25.6888 294.168 25.6123 293.558 25.6162C293.278 25.6162 293.005 25.5642 292.946 25.369C292.911 25.0814 292.961 24.7897 293.089 24.5301C293.317 23.8341 293.558 23.1057 293.805 22.3382C294.793 19.2294 295.496 16.6734 295.366 16.6344C295.236 16.5954 294.338 19.0863 293.35 22.2017L292.699 24.4C292.539 24.7487 292.509 25.1432 292.615 25.5121C292.66 25.609 292.727 25.6941 292.81 25.7607C292.894 25.8273 292.992 25.8735 293.096 25.8958C293.254 25.9297 293.416 25.9428 293.577 25.9349C294.175 25.975 294.775 25.9445 295.366 25.8438Z" fill="#263238"/>
<path d="M298.651 26.4227C298.476 26.4227 298.534 27.6194 297.559 28.5234C296.583 29.4275 295.302 29.3689 295.302 29.538C295.302 29.7071 295.601 29.7526 296.134 29.7396C296.838 29.7118 297.508 29.4352 298.027 28.9592C298.523 28.5044 298.824 27.875 298.866 27.2031C298.879 26.7023 298.736 26.4162 298.651 26.4227Z" fill="#263238"/>
<path d="M288.659 13.3434C288.86 13.5971 289.693 13.3759 290.682 13.4019C291.67 13.428 292.503 13.6426 292.711 13.4019C292.802 13.2784 292.678 13.0247 292.321 12.7516C291.837 12.4372 291.271 12.2721 290.695 12.2768C290.118 12.2613 289.549 12.4126 289.056 12.7125C288.698 12.9597 288.574 13.2133 288.659 13.3434Z" fill="#263238"/>
<path d="M301.182 21.0115C301.187 21.2786 301.088 21.5373 300.906 21.7328C300.724 21.9283 300.473 22.0451 300.206 22.0586C300.076 22.0711 299.945 22.0575 299.82 22.0186C299.695 21.9797 299.58 21.9163 299.48 21.8321C299.38 21.7479 299.298 21.6446 299.238 21.5283C299.179 21.4119 299.143 21.2849 299.133 21.1546C299.127 20.8879 299.225 20.6293 299.406 20.433C299.586 20.2366 299.836 20.1177 300.102 20.1009C300.233 20.0885 300.365 20.1022 300.491 20.1415C300.616 20.1807 300.733 20.2446 300.833 20.3294C300.934 20.4142 301.016 20.5182 301.076 20.6353C301.136 20.7524 301.172 20.8803 301.182 21.0115Z" fill="#263238"/>
<path d="M303.197 16.7709C303.074 16.9075 302.287 16.3482 301.181 16.3677C300.076 16.3872 299.282 16.9595 299.159 16.8229C299.035 16.6864 299.224 16.5238 299.575 16.2571C300.045 15.9183 300.608 15.7342 301.188 15.7303C301.762 15.7175 302.324 15.8884 302.794 16.2181C303.139 16.4717 303.262 16.7124 303.197 16.7709Z" fill="#263238"/>
<path d="M302.534 13.2459C302.326 13.4995 301.468 13.2459 300.447 13.2459C299.426 13.2459 298.554 13.4475 298.352 13.1873C298.261 13.0638 298.398 12.8101 298.769 12.5369C299.283 12.2359 299.871 12.0849 300.466 12.1012C301.058 12.0944 301.638 12.2594 302.138 12.576C302.508 12.8621 302.632 13.1223 302.534 13.2459Z" fill="#263238"/>
<path d="M285.824 10.7314C285.824 10.7314 295.06 18.8125 301.36 19.4859C307.66 20.1593 310.073 18.166 310.073 18.166C307.57 15.8925 305.56 13.1288 304.17 10.0465C303.853 9.32156 303.349 8.69428 302.709 8.22951C302.069 7.76475 301.316 7.47933 300.529 7.40279C296.022 6.98335 287.482 6.74477 285.824 10.7314Z" fill="#151F2C"/>
<path d="M291.631 10.058C291.631 10.058 288.506 13.0365 287.513 15.2568C286.551 17.4002 286.231 22.5375 286.97 24.5847C286.97 24.5847 282.197 15.1414 284.969 10.589C287.909 5.7635 291.631 10.058 291.631 10.058Z" fill="#151F2C"/>
<path d="M283.05 63.7201C283.281 93.0735 283.007 86.9396 286.198 89.7488C286.967 90.4222 289.138 90.8378 292.001 91.0456C300.995 91.7075 316.828 90.3375 317.44 88.679C319.557 82.9376 318.106 81.1405 319.899 72.3399C320.088 71.4048 320.319 70.3927 320.588 69.2922C322.073 63.2506 323.493 61.2111 318.44 51.4407C313.857 42.59 309.077 35.421 308.642 35.6634C296.327 42.8517 295.388 36.7294 295.388 36.7294C295.388 36.7294 282.934 49.4051 283.05 63.7201Z" fill="#D92C2A"/>
<path d="M251.1 139.178L260.336 164.602C262.015 164.74 263.706 164.598 265.339 164.183C267.598 163.544 270.2 161.874 270.2 161.874C270.2 161.874 267.775 134.629 263.003 118.964L251.1 139.178Z" fill="#384152"/>
<path d="M295.388 36.7409C295.388 36.7409 282.757 38.7919 281.237 44.2101C279.717 49.6283 270.777 81.4945 270.777 81.4945C270.777 81.4945 277.181 82.6913 280.163 79.7514C283.146 76.8114 290.666 52.3412 290.666 52.3412L295.388 36.7409Z" fill="#D92C2A"/>
<path d="M292 91.4304C300.994 92.0923 316.827 90.7223 317.439 89.0638C319.556 83.3224 318.105 81.5254 319.898 72.7247L315.642 60.4722C315.642 60.4722 316.265 74.0869 312.224 77.6388C308.183 81.1906 295.741 84.4345 293.752 87.413C292.903 88.6203 292.307 89.9869 292 91.4304Z" fill="#AC2625"/>
<path d="M302.353 85.3965C302.353 85.3965 293.502 83.3571 292.047 84.1344C290.593 84.9117 287.087 87.7555 286.659 88.7521C286.232 89.7488 289.854 88.0171 291.035 87.7093C291.805 87.5092 293.806 88.2211 294.803 88.5597C298.982 89.9874 301.557 89.287 301.557 89.287L302.353 85.3965Z" fill="#EE805F"/>
<path d="M308.65 35.6711C308.65 35.6711 320.58 36.4908 324.656 42.2745C330.409 50.4171 341.689 85.031 335.047 89.6064C327.573 94.7398 301.18 90.7224 301.18 90.7224C301.18 90.7224 300.329 86.6087 301.565 84.6308C302.8 82.6528 322.701 79.582 323.624 78.67C324.548 77.758 312.287 60.7032 312.306 57.9517C312.325 55.2003 308.65 35.6711 308.65 35.6711Z" fill="#D92C2A"/>
<path d="M291.6 86.601C291.6 86.601 289.723 88.9868 289.111 89.2716C288.803 89.4351 288.454 89.5072 288.106 89.4794L289.376 87.2321L291.6 86.601Z" fill="#EE805F"/>
<path d="M292.049 84.1344L286.622 86.7203C286.726 86.8527 286.864 86.9551 287.02 87.0172C287.177 87.0794 287.348 87.0991 287.515 87.0743C288.316 86.9389 289.104 86.7289 289.866 86.4471L292.049 84.1344Z" fill="#EE805F"/>
<path d="M290.27 93.1428L247.478 92.8388L234.832 60.7455L277.554 61.0457L290.27 93.1428Z" fill="#151F2C"/>
<path d="M246.985 91.5882L303.489 91.9884L303.481 93.2351L247.478 92.8388L246.985 91.5882Z" fill="#151F2C"/>
<path d="M258.392 76.9153C258.08 75.7878 258.735 74.8796 259.862 74.8873C260.454 74.9246 261.02 75.1411 261.485 75.5082C261.951 75.8753 262.293 76.3756 262.467 76.9422C262.783 78.0697 262.125 78.9779 261.001 78.9702C260.409 78.9332 259.842 78.7167 259.376 78.3497C258.91 77.9826 258.567 77.4823 258.392 76.9153Z" fill="white"/>
<path d="M30.2032 194.128L30.1987 219.972L160.209 219.995L160.213 194.151L30.2032 194.128Z" fill="#D92C2A"/>
<path d="M30.2184 219.985L11.1107 211.811L0 207.059L11.3762 202.195L30.2338 194.141C30.2338 194.141 32.7469 200.432 32.7853 206.351C32.8354 215.636 30.2184 219.985 30.2184 219.985Z" fill="#E9E9E9"/>
<path d="M175.345 202.73V210.899C175.345 212.094 175.11 213.278 174.653 214.382C174.195 215.486 173.525 216.489 172.68 217.334C171.834 218.18 170.831 218.85 169.727 219.307C168.623 219.765 167.439 220 166.244 220H160.229V194.16H166.771C169.044 194.16 171.225 195.063 172.833 196.67C174.441 198.277 175.344 200.456 175.345 202.73Z" fill="#E9E9E9"/>
<path d="M11.3723 202.195C11.8457 204.808 12.2575 208.81 11.1107 211.815L0 207.059L11.3723 202.195Z" fill="#151F2C"/>
</svg>
