<svg width="267" height="200" viewBox="0 0 267 200" fill="none" xmlns="http://www.w3.org/2000/svg">
<path d="M40.0773 149.353L0.154785 156.832L6.12794 188.782L46.0505 181.303L40.0773 149.353Z" fill="#F5F5F5"/>
<path d="M40.0876 149.363L39.8939 149.41L39.3072 149.521L37.142 149.944L28.9684 151.513L0.187764 156.975L0.299249 156.811C2.05953 166.32 4.12494 177.222 6.29009 188.758L6.10819 188.629L46.008 181.181L45.9083 181.333C44.148 171.712 42.6693 163.742 41.6425 158.156C41.1379 155.366 40.7389 153.175 40.469 151.695C40.334 150.949 40.2343 150.379 40.1639 149.979C40.0934 149.58 40.0641 149.392 40.0641 149.392C40.0641 149.392 40.111 149.58 40.1815 149.979L40.5159 151.665C40.8034 153.163 41.22 155.342 41.754 158.126C42.816 163.724 44.3299 171.718 46.1606 181.363L46.1899 181.486L46.0608 181.515L6.13753 188.975L5.98497 189.004L5.95563 188.846C3.80809 177.31 1.77202 166.408 0 156.893V156.758L0.140823 156.728L29.033 151.383L37.1831 149.891L39.3365 149.504L39.8822 149.41L40.0876 149.363Z" fill="#E0E0E0"/>
<path d="M39.0234 151.63L1.90381 158.584L7.12465 186.51L44.2442 179.556L39.0234 151.63Z" fill="#EBEBEB"/>
<path d="M7.11279 186.52L16.8354 166.731L26.8925 176.088L31.258 169.263L44.2313 179.565L7.11279 186.52Z" fill="#E0E0E0"/>
<path d="M27.8775 162.467C27.9857 163.046 27.9201 163.644 27.6889 164.185C27.4577 164.727 27.0713 165.187 26.5785 165.509C26.0858 165.831 25.5088 165.999 24.9206 165.993C24.3323 165.986 23.7592 165.805 23.2737 165.473C22.7881 165.14 22.412 164.671 22.1928 164.125C21.9736 163.578 21.9211 162.979 22.0421 162.403C22.1631 161.826 22.452 161.299 22.8724 160.887C23.2928 160.475 23.8257 160.197 24.4039 160.088C24.788 160.016 25.1826 160.02 25.5651 160.101C25.9476 160.181 26.3105 160.336 26.6331 160.557C26.9557 160.778 27.2317 161.06 27.4452 161.388C27.6587 161.716 27.8056 162.082 27.8775 162.467Z" fill="#E0E0E0"/>
<path d="M99.8914 15.4874L79.4521 128.523L163.057 143.672L183.496 30.6364L99.8914 15.4874Z" fill="#FAFAFA"/>
<path d="M163.055 143.683C163.055 143.683 163.084 143.495 163.143 143.143L163.424 141.551C163.671 140.153 164.04 138.085 164.516 135.401C165.484 130.021 166.892 122.162 168.676 112.212L183.345 30.6257L183.462 30.7901L99.878 15.6535L100.06 15.5243C92.432 57.6917 85.3498 96.7519 79.5878 128.552L79.488 128.405L140.236 139.483L157.093 142.573L161.529 143.395C162.532 143.577 163.055 143.683 163.055 143.683L161.553 143.424L157.134 142.637L140.277 139.636L79.4294 128.676H79.3062V128.552C85.0506 96.7402 92.1093 57.68 99.7255 15.5126V15.3599H99.8839L183.521 30.5082L183.662 30.5375V30.6726C177.577 64.1528 172.437 92.423 168.823 112.317L164.598 135.46C164.105 138.132 163.729 140.159 163.471 141.58C163.342 142.267 163.248 142.79 163.184 143.148L163.055 143.683Z" fill="#E0E0E0"/>
<path d="M142.452 33.8707L106.955 27.4387L101.357 58.3953L136.855 64.8273L142.452 33.8707Z" fill="#E0E0E0"/>
<path d="M170.765 39.0008L148.039 34.8829L147.309 38.923L170.034 43.0408L170.765 39.0008Z" fill="#E0E0E0"/>
<path d="M165.53 76.5319L100.667 64.7789L99.9369 68.819L164.8 80.572L165.53 76.5319Z" fill="#E0E0E0"/>
<path d="M164.244 83.6487L99.3813 71.8957L98.6508 75.9358L163.514 87.6888L164.244 83.6487Z" fill="#E0E0E0"/>
<path d="M162.959 90.7537L98.0962 79.0007L97.3657 83.0408L162.228 94.7938L162.959 90.7537Z" fill="#E0E0E0"/>
<path d="M161.666 97.8695L96.8032 86.1165L96.0727 90.1565L160.935 101.91L161.666 97.8695Z" fill="#E0E0E0"/>
<path d="M160.38 104.975L95.5176 93.2216L94.787 97.2616L159.65 109.015L160.38 104.975Z" fill="#E0E0E0"/>
<path d="M155.973 129.35L91.1104 117.597L90.3798 121.637L155.243 133.39L155.973 129.35Z" fill="#E0E0E0"/>
<path d="M129.845 106.782L94.2378 100.33L93.5073 104.37L129.114 110.822L129.845 106.782Z" fill="#E0E0E0"/>
<path d="M169.583 45.5348L146.857 41.4169L146.127 45.457L168.853 49.5748L169.583 45.5348Z" fill="#E0E0E0"/>
<path d="M167.54 52.157L144.907 47.9955L144.169 52.0192L166.802 56.1806L167.54 52.157Z" fill="#E0E0E0"/>
<path d="M158.506 57.0304L144.493 54.4913L143.763 58.5313L157.776 61.0705L158.506 57.0304Z" fill="#E0E0E0"/>
<path d="M200.859 14.9721L193.648 15.2658L192.867 17.2863C192.645 17.8127 192.525 18.377 192.515 18.9486C192.508 19.2013 192.571 19.4511 192.698 19.67C192.824 19.8888 193.009 20.0682 193.231 20.188C193.883 20.396 194.566 20.4894 195.25 20.464V21.0514L188.537 21.2981V20.7107C189.219 20.5925 189.84 20.2443 190.297 19.7239C190.992 18.7608 191.54 17.6998 191.923 16.5756L198.512 0H198.8L206.832 16.4464C207.615 18.0127 208.233 18.9917 208.687 19.3833C209.106 19.7069 209.623 19.8787 210.153 19.8708V20.4229L200.278 20.8223V20.2643H200.689C201.267 20.2913 201.841 20.1528 202.344 19.8649C202.45 19.7833 202.534 19.6757 202.588 19.5523C202.641 19.4289 202.662 19.2939 202.649 19.1601C202.639 18.9715 202.602 18.7853 202.537 18.6079C202.537 18.5198 202.344 18.1439 202.039 17.4978L200.859 14.9721ZM200.302 13.8796L196.981 6.96035L194.129 14.1263L200.302 13.8796Z" fill="#E0E0E0"/>
<path d="M214.516 57.6511L181.536 68.6785L190.343 95.0746L223.324 84.0473L214.516 57.6511Z" fill="#F5F5F5"/>
<path d="M213.887 59.7073L183.228 69.9587L190.925 93.0288L221.585 82.7775L213.887 59.7073Z" fill="#EBEBEB"/>
<path d="M190.921 93.0338L196.848 75.119L206.471 81.8679L209.375 75.5712L221.586 82.7842L190.921 93.0338Z" fill="#E0E0E0"/>
<path d="M205.707 70.2027C205.867 70.6809 205.881 71.1958 205.749 71.6823C205.616 72.1687 205.343 72.6049 204.962 72.9357C204.582 73.2664 204.112 73.4768 203.613 73.5403C203.113 73.6037 202.606 73.5174 202.155 73.2922C201.704 73.0671 201.33 72.7131 201.081 72.2752C200.831 71.8373 200.716 71.3351 200.752 70.8321C200.787 70.3291 200.971 69.8479 201.28 69.4494C201.588 69.0509 202.008 68.753 202.486 68.5933C202.803 68.4865 203.138 68.4435 203.472 68.4667C203.805 68.4898 204.131 68.5787 204.43 68.7283C204.73 68.8778 204.997 69.085 205.216 69.338C205.435 69.5911 205.602 69.8849 205.707 70.2027Z" fill="#E0E0E0"/>
<path d="M215.431 26.9478L207.358 68.2139L258.917 78.3213L266.99 37.0551L215.431 26.9478Z" fill="#F5F5F5"/>
<path d="M267 37.0631L266.748 37.022L266.02 36.8928L263.215 36.3582L252.654 34.3259L215.412 27.0954L215.576 26.9838C213.176 39.2657 210.43 53.345 207.52 68.2467L207.397 68.0587L258.95 78.2026L258.797 78.3024C261.256 65.8854 263.292 55.5888 264.718 48.3935C265.439 44.7929 266.003 41.9676 266.39 40.0352C266.583 39.0719 266.73 38.3377 266.836 37.8267C266.941 37.3157 267 37.0631 267 37.0631C267 37.0631 266.959 37.3157 266.865 37.8091C266.771 38.3024 266.636 39.0425 266.454 39.9941C266.085 41.9207 265.545 44.74 264.858 48.3348C263.462 55.5594 261.461 65.8913 259.055 78.3553L259.026 78.4845H258.903L207.315 68.3759L207.162 68.3465L207.191 68.1938C210.125 53.298 212.877 39.2187 215.283 26.9368L215.312 26.7958L215.447 26.8252L252.771 34.2026L263.286 36.3054L266.061 36.8928L266.765 37.0396L267 37.0631Z" fill="#E0E0E0"/>
<path d="M216.705 29.9012L209.649 65.968L257.587 75.3653L264.642 39.2985L216.705 29.9012Z" fill="#EBEBEB"/>
<path d="M209.649 65.9677L230.779 46.8311L238.407 62.8899L246.909 56.7753L257.588 75.3656L209.649 65.9677Z" fill="#E0E0E0"/>
<path d="M246.094 46.9838C245.949 47.7321 245.585 48.4204 245.049 48.9616C244.513 49.5029 243.828 49.8728 243.082 50.0245C242.336 50.1762 241.561 50.1029 240.857 49.814C240.152 49.525 239.549 49.0333 239.124 48.4011C238.698 47.7689 238.47 47.0245 238.467 46.2623C238.464 45.5 238.687 44.7541 239.108 44.1188C239.529 43.4835 240.129 42.9875 240.831 42.6935C241.534 42.3994 242.308 42.3206 243.055 42.4669C243.551 42.5633 244.023 42.7566 244.445 43.0359C244.866 43.3152 245.228 43.6749 245.51 44.0944C245.793 44.5139 245.99 44.9851 246.09 45.4809C246.19 45.9767 246.192 46.4874 246.094 46.9838Z" fill="#E0E0E0"/>
<path d="M17.0508 4.07633L19.7205 35.1953L31.7785 38.4669L55.161 35.7415L51.8692 0.710693L17.0508 4.07633Z" fill="#F5F5F5"/>
<path d="M23.3938 32.3995L19.7207 35.1954C21.1169 36.4072 22.7493 37.3152 24.5145 37.8621C26.8744 38.5193 29.3381 38.7187 31.7728 38.4495C31.7728 38.4495 26.2044 37.5038 23.3938 32.3995Z" fill="#EBEBEB"/>
<path d="M49.0533 12.1762C49.0533 12.2349 43.1388 12.8517 35.8336 13.5624C28.5284 14.2731 22.5903 14.8017 22.5845 14.7371C22.5786 14.6725 28.499 14.044 35.8101 13.3509C43.1211 12.6578 49.0474 12.0998 49.0533 12.1762Z" fill="#E0E0E0"/>
<path d="M49.3985 16.9457C49.3985 17.0044 43.484 17.6271 36.1788 18.3378C28.8736 19.0485 22.9356 19.5713 22.9297 19.5125C22.9238 19.4538 28.8443 18.8312 36.1553 18.1204C43.4664 17.4097 49.3927 16.8752 49.3985 16.9457Z" fill="#E0E0E0"/>
<path d="M49.9566 21.1689C49.9566 21.2277 44.0421 21.8503 36.7369 22.5551C29.4317 23.26 23.4995 23.7945 23.4937 23.7299C23.4878 23.6653 29.4023 23.0544 36.7134 22.3437C44.0245 21.633 49.9507 21.1102 49.9566 21.1689Z" fill="#E0E0E0"/>
<path d="M50.3277 25.2511C50.3277 25.304 44.4132 25.9266 37.1021 26.6373C29.7911 27.348 23.8648 27.8767 23.8589 27.812C23.853 27.7474 29.7735 27.1307 37.0845 26.4258C44.3956 25.721 50.3219 25.1924 50.3277 25.2511Z" fill="#E0E0E0"/>
<path d="M9.54102 58.1968L34.2789 200L138.593 183.601L143.428 171.912L115.205 40.7871L17.4271 46.6315L9.54102 58.1968Z" fill="#E0E0E0"/>
<path opacity="0.3" d="M34.2789 200L41.6897 188.628L16.9518 46.8252L9.54102 58.1967L34.2789 200Z" fill="black"/>
<path d="M16.9512 46.8251L41.6891 188.628L143.428 171.912L117.728 32.4345L16.9512 46.8251Z" fill="#FAFAFA"/>
<path d="M16.9512 46.8311L117.704 32.3231H117.827V32.4405C125.039 71.3891 133.969 119.665 143.58 171.883L143.61 172.041L143.451 172.071L141.773 172.347L41.7125 188.793H41.5717V188.652C27.02 104.899 17.1683 48.0764 16.9512 46.8311C17.1683 48.0822 27.1374 104.881 41.8299 188.611L41.6656 188.499L141.72 172.053L143.398 171.777L143.269 171.959C133.658 119.736 124.775 71.4596 117.598 32.4816L117.739 32.5815L16.9512 46.8311Z" fill="#263238"/>
<path d="M98.1699 113.85C99.4147 104.36 92.7387 95.6561 83.2585 94.41C73.7783 93.1638 65.0839 99.8468 63.839 109.337C62.5941 118.827 69.2702 127.53 78.7504 128.776C88.2306 130.023 96.925 123.34 98.1699 113.85Z" fill="#D92C2A"/>
<path d="M73.3815 116.247L72.5952 111.248L89.8871 108.505L90.6264 113.204C90.6264 113.204 89.5702 117.245 82.576 118.35C75.5818 119.454 73.3815 116.247 73.3815 116.247Z" fill="white"/>
<path d="M69.8662 111.278L82.2058 113.468L92.9084 107.442L80.5511 105.492L69.8662 111.278Z" fill="white"/>
<path d="M104.396 62.7858L43.0832 72.4849C42.331 72.6039 41.8176 73.3108 41.9364 74.0638L42.1434 75.375C42.2623 76.128 42.9684 76.6419 43.7206 76.5229L105.033 66.8238C105.786 66.7048 106.299 65.9979 106.18 65.245L105.973 63.9338C105.854 63.1808 105.148 62.6668 104.396 62.7858Z" fill="#E0E0E0"/>
<path d="M94.6955 73.0011L55.8122 79.1521C55.06 79.2711 54.5466 79.978 54.6654 80.731L54.8724 82.0421C54.9913 82.7951 55.6974 83.3091 56.4496 83.1901L95.333 77.0391C96.0852 76.9201 96.5986 76.2132 96.4797 75.4603L96.2727 74.1491C96.1539 73.3961 95.4477 72.8821 94.6955 73.0011Z" fill="#E0E0E0"/>
<path d="M108.695 160.008L69.8117 166.159C69.0595 166.278 68.5461 166.985 68.6649 167.738L68.8719 169.049C68.9908 169.802 69.6969 170.316 70.4491 170.197L109.332 164.046C110.085 163.927 110.598 163.221 110.479 162.468L110.272 161.156C110.153 160.403 109.447 159.889 108.695 160.008Z" fill="#E0E0E0"/>
<path d="M138.189 175.853L137.697 175.947L136.241 176.2L130.614 177.139L109.72 180.57L39.1323 192.053L38.9798 192.082V191.929C37.994 186.32 36.9555 180.446 35.8993 174.461C30.2194 142.302 25.1029 113.204 21.4004 92.1233C19.5638 81.5858 18.0793 73.0631 17.0466 67.1659C16.542 64.229 16.1489 61.9324 15.8731 60.3759C15.744 59.6005 15.6443 59.0132 15.5739 58.6137C15.5034 58.2143 15.4858 58.0264 15.4858 58.0264C15.4858 58.0264 15.5328 58.2319 15.6091 58.6137C15.6853 58.9955 15.791 59.6064 15.9318 60.3759C16.2134 61.9324 16.6242 64.2173 17.1581 67.1541C18.2084 73.0278 19.7281 81.5682 21.6058 92.0939C25.3317 113.169 30.4835 142.267 36.1692 174.42C37.2254 180.399 38.2581 186.279 39.2497 191.888L39.0678 191.759L109.679 180.376L130.585 177.04L136.218 176.153L137.679 175.929L138.189 175.853Z" fill="#263238"/>
<path d="M130.448 181.186L129.985 181.28L128.612 181.521L123.296 182.426L103.534 185.727L36.4668 196.84H36.3143V196.693L32.4593 175.742C26.7149 144.023 21.5161 115.33 17.7491 94.5492C15.8832 84.1644 14.3694 75.7533 13.325 69.9383C12.8145 67.0367 12.4096 64.7812 12.1514 63.2422C12.0223 62.4845 11.9167 61.903 11.8522 61.4801C11.7876 61.0572 11.7583 60.8928 11.7583 60.8928C11.7583 60.8928 11.8052 61.0866 11.8815 61.4801L12.216 63.2422C12.4976 64.7753 12.9201 67.0249 13.4599 69.9207L17.978 94.5139C21.7685 115.295 27.0024 143.988 32.782 175.689C34.0846 182.872 35.3637 189.903 36.5901 196.664L36.414 196.54L103.487 185.533L123.261 182.32L128.583 181.468L129.961 181.257L130.448 181.186Z" fill="#263238"/>
<path d="M19.4109 106.872L17.1226 110.12L22.6851 143.53L26.0003 144.658L19.4109 106.872Z" fill="#263238"/>
<path d="M35.2996 104.095L19.416 106.873L26.0102 144.656L41.8938 141.879L35.2996 104.095Z" fill="#263238"/>
<path d="M35.8066 102.624L34.772 102.805C34.1814 102.908 33.7862 103.471 33.8893 104.062L40.5616 142.333C40.6646 142.924 41.227 143.319 41.8175 143.216L42.8522 143.036C43.4428 142.932 43.838 142.369 43.7349 141.778L37.0626 103.508C36.9595 102.917 36.3972 102.521 35.8066 102.624Z" fill="#263238"/>
<path d="M31.8736 116.493L21.5642 122.367C20.8263 121.573 19.9065 120.971 18.8842 120.613C17.8619 120.255 16.7678 120.151 15.6966 120.311C14.5382 120.479 13.4441 120.948 12.5234 121.672C11.6026 122.395 10.8873 123.347 10.4489 124.433C10.0105 125.52 9.86418 126.702 10.0246 127.863C10.1851 129.023 10.6467 130.122 11.3634 131.048C12.0801 131.974 13.0268 132.696 14.1092 133.142C15.1916 133.588 16.3718 133.742 17.5322 133.588C18.6925 133.435 19.7925 132.98 20.7223 132.268C21.6522 131.557 22.3794 130.614 22.8316 129.533L34.4671 131.389C34.5885 131.408 34.7125 131.397 34.829 131.358C34.9455 131.319 35.0511 131.253 35.1371 131.165C35.2231 131.078 35.287 130.971 35.3235 130.853C35.36 130.736 35.3682 130.612 35.3472 130.49L33.0002 117.046C32.9804 116.924 32.932 116.809 32.8588 116.71C32.7856 116.612 32.6898 116.532 32.5795 116.478C32.4691 116.424 32.3475 116.397 32.2246 116.4C32.1018 116.402 31.9814 116.435 31.8736 116.493V116.493Z" stroke="#455A64" stroke-width="2" stroke-miterlimit="10"/>
<path d="M40.4855 141.838C40.4465 141.716 40.419 141.59 40.4034 141.463C40.3506 141.181 40.286 140.822 40.198 140.382C40.022 139.401 39.7755 138.032 39.4704 136.388C38.8836 132.987 38.0387 128.347 37.1234 123.219C36.208 118.091 35.4276 113.439 34.8409 110.026C34.5651 108.37 34.3421 107.013 34.1837 106.026C34.1133 105.58 34.0605 105.216 34.0194 104.934C33.9919 104.809 33.9801 104.68 33.9842 104.552C34.0241 104.673 34.0555 104.797 34.0781 104.922C34.1367 105.204 34.213 105.562 34.301 106.003C34.4888 106.984 34.747 108.352 35.058 109.991C35.6858 113.357 36.5249 118.015 37.405 123.16C38.2852 128.305 39.1066 132.975 39.6582 136.352C39.9398 138.044 40.1511 139.413 40.2919 140.358C40.3564 140.834 40.4151 141.198 40.4386 141.457C40.4699 141.582 40.4856 141.71 40.4855 141.838Z" fill="#455A64"/>
<path d="M25.6828 144.793C25.648 144.667 25.6206 144.54 25.6006 144.411C25.5478 144.135 25.4833 143.777 25.4012 143.33C25.2193 142.349 24.9728 140.981 24.6677 139.342C24.0809 135.935 23.236 131.295 22.3207 126.167C21.4053 121.04 20.6308 116.388 20.0381 112.981C19.7624 111.319 19.5394 109.962 19.381 108.981C19.3106 108.529 19.2578 108.17 19.2167 107.888C19.1891 107.761 19.1773 107.631 19.1815 107.501C19.2259 107.623 19.2593 107.749 19.2812 107.877C19.334 108.159 19.4103 108.517 19.4983 108.957C19.6861 109.938 19.9443 111.307 20.2552 112.94C20.8831 116.311 21.7222 120.963 22.6023 126.115C23.4824 131.266 24.3039 135.924 24.8613 139.301C25.1371 140.993 25.3542 142.361 25.4892 143.313C25.5537 143.789 25.6124 144.153 25.6359 144.405C25.6672 144.532 25.6829 144.662 25.6828 144.793Z" fill="#455A64"/>
<path d="M92.8952 107.448C92.6396 107.643 92.3689 107.818 92.0854 107.971L89.8205 109.304C87.896 110.42 85.2262 111.941 82.2689 113.609L82.2161 113.639H82.1633H82.0401C78.6662 113.051 75.5857 112.464 73.4147 112.059L70.8036 111.548C70.4804 111.498 70.1622 111.419 69.853 111.313C70.1799 111.327 70.5053 111.365 70.8271 111.424L73.4499 111.841C75.6678 112.206 78.7307 112.734 82.0988 113.333H82.2161H82.1105C85.0736 111.671 87.761 110.179 89.7384 109.11L92.0561 107.865C92.3223 107.7 92.6032 107.561 92.8952 107.448Z" fill="#263238"/>
<path d="M239.94 90.5022C239.913 90.5311 239.884 90.5567 239.852 90.5785C239.793 90.6197 239.705 90.6843 239.582 90.7606C239.439 90.8618 239.277 90.9337 239.106 90.9721C238.876 91.0131 238.638 90.999 238.414 90.931C237.915 90.8194 237.358 90.5668 236.73 90.3436C236.049 90.1122 235.351 89.9374 234.641 89.8208C233.341 89.632 232.029 89.5437 230.716 89.5565H229.542C229.396 89.5714 229.248 89.5714 229.102 89.5565L229.542 89.5213L230.716 89.4802C232.034 89.4385 233.354 89.5152 234.659 89.7092C235.378 89.8231 236.085 90.004 236.771 90.2496C237.405 90.4728 237.945 90.7313 238.437 90.837C238.621 90.9035 238.818 90.927 239.012 90.9056C239.206 90.8842 239.393 90.8185 239.558 90.7136C239.682 90.6369 239.809 90.5663 239.94 90.5022Z" fill="white"/>
</svg>
