<svg width="257" height="240" viewBox="0 0 257 240" fill="none" xmlns="http://www.w3.org/2000/svg">
<path d="M220.898 20.0419H42.3087C37.9179 20.0419 34.3584 23.6218 34.3584 28.0378V178.792C34.3584 183.208 37.9179 186.788 42.3087 186.788H220.898C225.289 186.788 228.848 183.208 228.848 178.792V28.0378C228.848 23.6218 225.289 20.0419 220.898 20.0419Z" fill="#F7F7F7"/>
<path d="M40.2952 20.0419H222.916C223.696 20.0419 224.467 20.1963 225.187 20.4962C225.907 20.7962 226.561 21.2358 227.113 21.79C227.664 22.3442 228.101 23.0021 228.399 23.7262C228.697 24.4504 228.851 25.2265 228.851 26.0102V38.5429H34.3584V26.0102C34.3584 25.2262 34.512 24.4499 34.8104 23.7256C35.1087 23.0014 35.5461 22.3433 36.0974 21.7891C36.6487 21.2348 37.3032 20.7953 38.0235 20.4955C38.7438 20.1957 39.5157 20.0416 40.2952 20.0419Z" fill="#D92C2A"/>
<path d="M42.2266 29.1831C42.2266 28.7455 42.3556 28.3178 42.5973 27.954C42.839 27.5901 43.1826 27.3065 43.5845 27.1391C43.9865 26.9716 44.4288 26.9278 44.8555 27.0132C45.2822 27.0986 45.6742 27.3093 45.9818 27.6187C46.2895 27.9281 46.499 28.3223 46.5839 28.7515C46.6687 29.1807 46.6252 29.6255 46.4587 30.0298C46.2922 30.434 46.0102 30.7795 45.6485 31.0227C45.2867 31.2658 44.8614 31.3955 44.4264 31.3955C44.1374 31.3959 43.8512 31.3389 43.5841 31.2278C43.3171 31.1167 43.0745 30.9538 42.8701 30.7483C42.6658 30.5428 42.5037 30.2987 42.3933 30.0302C42.2829 29.7616 42.2262 29.4737 42.2266 29.1831Z" fill="#F7F7F7"/>
<path d="M51.458 29.1831C51.458 28.7455 51.587 28.3178 51.8287 27.954C52.0705 27.5901 52.414 27.3065 52.816 27.1391C53.2179 26.9716 53.6602 26.9278 54.0869 27.0132C54.5137 27.0986 54.9056 27.3093 55.2133 27.6187C55.5209 27.9281 55.7304 28.3223 55.8153 28.7515C55.9002 29.1807 55.8566 29.6255 55.6901 30.0298C55.5236 30.434 55.2417 30.7795 54.8799 31.0227C54.5182 31.2658 54.0929 31.3955 53.6578 31.3955C53.3688 31.3959 53.0826 31.3389 52.8156 31.2278C52.5485 31.1167 52.3059 30.9538 52.1015 30.7483C51.8972 30.5428 51.7352 30.2987 51.6247 30.0302C51.5143 29.7616 51.4577 29.4737 51.458 29.1831Z" fill="#F7F7F7"/>
<path d="M60.6885 29.1831C60.6885 28.7455 60.8175 28.3178 61.0592 27.954C61.3009 27.5901 61.6445 27.3065 62.0464 27.1391C62.4484 26.9716 62.8907 26.9278 63.3174 27.0132C63.7442 27.0986 64.1361 27.3093 64.4437 27.6187C64.7514 27.9281 64.9609 28.3223 65.0458 28.7515C65.1307 29.1807 65.0871 29.6255 64.9206 30.0298C64.7541 30.434 64.4722 30.7795 64.1104 31.0227C63.7487 31.2658 63.3233 31.3955 62.8883 31.3955C62.5993 31.3959 62.3131 31.3389 62.046 31.2278C61.779 31.1167 61.5364 30.9538 61.332 30.7483C61.1277 30.5428 60.9657 30.2987 60.8553 30.0302C60.7448 29.7616 60.6881 29.4737 60.6885 29.1831Z" fill="#F7F7F7"/>
<path d="M104.905 53.2256H49.7729V108.674H104.905V53.2256Z" fill="#D4D5D9"/>
<path d="M163.747 57.3589H119.894C119.344 57.3555 118.817 57.1332 118.429 56.7406C118.041 56.348 117.824 55.817 117.824 55.2636C117.828 54.7126 118.047 54.1853 118.435 53.7957C118.822 53.4061 119.346 53.1854 119.894 53.1813H163.747C164.296 53.1847 164.82 53.4052 165.208 53.795C165.595 54.1847 165.814 54.7124 165.818 55.2636C165.82 55.5381 165.767 55.8103 165.664 56.0644C165.561 56.3186 165.408 56.5497 165.216 56.7444C165.024 56.9391 164.795 57.0937 164.543 57.1992C164.291 57.3046 164.02 57.3589 163.747 57.3589Z" fill="#B8C0C7"/>
<path d="M216.188 57.0569H172.335C171.787 57.0529 171.262 56.8322 170.875 56.4426C170.488 56.0529 170.268 55.5257 170.264 54.9747C170.268 54.4235 170.487 53.8958 170.874 53.5061C171.262 53.1163 171.786 52.8958 172.335 52.8924H216.188C216.737 52.8924 217.264 53.1118 217.652 53.5023C218.04 53.8928 218.258 54.4224 218.258 54.9747C218.255 55.5259 218.036 56.0535 217.648 56.4433C217.261 56.8331 216.736 57.0535 216.188 57.0569Z" fill="#B8C0C7"/>
<g opacity="0.3">
<path opacity="0.3" d="M172.426 73.4913H119.16C118.802 73.4913 118.459 73.3482 118.205 73.0934C117.952 72.8386 117.81 72.493 117.81 72.1326C117.81 71.7723 117.952 71.4267 118.205 71.1719C118.459 70.9171 118.802 70.7739 119.16 70.7739H172.426C172.785 70.7739 173.128 70.9171 173.382 71.1719C173.635 71.4267 173.777 71.7723 173.777 72.1326C173.777 72.493 173.635 72.8386 173.382 73.0934C173.128 73.3482 172.785 73.4913 172.426 73.4913Z" fill="#B8C0C7"/>
<path opacity="0.3" d="M192.678 73.4913H178.618C178.259 73.4913 177.916 73.3482 177.662 73.0934C177.409 72.8386 177.267 72.493 177.267 72.1326C177.267 71.7723 177.409 71.4267 177.662 71.1719C177.916 70.9171 178.259 70.7739 178.618 70.7739H192.678C193.036 70.7746 193.379 70.9181 193.632 71.1728C193.884 71.4275 194.026 71.7727 194.026 72.1326C194.026 72.4925 193.884 72.8377 193.632 73.0924C193.379 73.3472 193.036 73.4906 192.678 73.4913Z" fill="#B8C0C7"/>
<path opacity="0.3" d="M139.259 81.9141H119.16C118.802 81.9141 118.459 81.771 118.205 81.5162C117.952 81.2614 117.81 80.9158 117.81 80.5554C117.81 80.1955 117.953 79.8506 118.206 79.5964C118.459 79.3421 118.803 79.1993 119.16 79.1993H139.259C139.617 79.1993 139.96 79.3421 140.213 79.5964C140.466 79.8506 140.609 80.1955 140.61 80.5554C140.61 80.9158 140.467 81.2614 140.214 81.5162C139.961 81.771 139.617 81.9141 139.259 81.9141Z" fill="#B8C0C7"/>
<path opacity="0.3" d="M171.811 81.9141H144.272C144.095 81.9141 143.919 81.879 143.755 81.8107C143.591 81.7424 143.443 81.6423 143.317 81.5162C143.192 81.39 143.092 81.2402 143.024 81.0754C142.956 80.9105 142.921 80.7339 142.921 80.5554C142.922 80.1955 143.065 79.8506 143.318 79.5964C143.571 79.3421 143.914 79.1993 144.272 79.1993H171.811C171.988 79.199 172.164 79.2338 172.328 79.3018C172.492 79.3698 172.641 79.4697 172.766 79.5956C172.892 79.7216 172.991 79.8712 173.059 80.0359C173.127 80.2006 173.162 80.3771 173.162 80.5554C173.162 80.734 173.128 80.9108 173.06 81.0758C172.992 81.2408 172.893 81.3907 172.767 81.5169C172.642 81.6432 172.492 81.7432 172.328 81.8114C172.164 81.8795 171.989 81.9145 171.811 81.9141Z" fill="#B8C0C7"/>
<path opacity="0.3" d="M192.678 81.9141H178.618C178.44 81.9145 178.264 81.8795 178.1 81.8114C177.936 81.7432 177.787 81.6432 177.662 81.5169C177.536 81.3907 177.437 81.2408 177.369 81.0758C177.301 80.9108 177.266 80.734 177.267 80.5554C177.267 80.3771 177.302 80.2006 177.37 80.0359C177.437 79.8712 177.537 79.7216 177.662 79.5956C177.788 79.4697 177.937 79.3698 178.101 79.3018C178.265 79.2338 178.44 79.199 178.618 79.1993H192.678C193.036 79.1993 193.379 79.3422 193.631 79.5965C193.884 79.8509 194.026 80.1958 194.026 80.5554C194.027 80.7337 193.992 80.9104 193.925 81.0752C193.857 81.24 193.758 81.3898 193.632 81.516C193.507 81.6422 193.358 81.7423 193.195 81.8106C193.031 81.879 192.855 81.9141 192.678 81.9141Z" fill="#B8C0C7"/>
<path opacity="0.3" d="M146.433 89.1969H119.16C118.803 89.1969 118.459 89.0541 118.206 88.7998C117.953 88.5456 117.81 88.2007 117.81 87.8408C117.81 87.4804 117.952 87.1349 118.205 86.8801C118.459 86.6253 118.802 86.4821 119.16 86.4821H146.433C146.791 86.4828 147.133 86.6263 147.386 86.881C147.639 87.1357 147.781 87.4809 147.781 87.8408C147.781 88.2005 147.639 88.5454 147.386 88.7997C147.133 89.054 146.79 89.1969 146.433 89.1969Z" fill="#B8C0C7"/>
<path opacity="0.3" d="M198.505 89.1969H153.906C153.729 89.1972 153.553 89.1624 153.389 89.0944C153.225 89.0264 153.076 88.9266 152.951 88.8006C152.826 88.6747 152.726 88.525 152.658 88.3603C152.59 88.1956 152.555 88.0191 152.555 87.8408C152.555 87.4804 152.698 87.1349 152.951 86.8801C153.204 86.6253 153.548 86.4821 153.906 86.4821H198.505C198.682 86.4821 198.858 86.5172 199.022 86.5855C199.186 86.6538 199.335 86.7539 199.46 86.8801C199.586 87.0062 199.685 87.156 199.753 87.3208C199.821 87.4857 199.856 87.6624 199.856 87.8408C199.855 88.2007 199.712 88.5456 199.459 88.7998C199.206 89.0541 198.863 89.1969 198.505 89.1969Z" fill="#B8C0C7"/>
</g>
<g opacity="0.3">
<path opacity="0.3" d="M172.426 100.251H119.16C118.802 100.251 118.459 100.108 118.205 99.8532C117.952 99.5984 117.81 99.2528 117.81 98.8925C117.81 98.5322 117.952 98.1866 118.205 97.9318C118.459 97.677 118.802 97.5338 119.16 97.5338H172.426C172.785 97.5338 173.128 97.677 173.382 97.9318C173.635 98.1866 173.777 98.5322 173.777 98.8925C173.777 99.2528 173.635 99.5984 173.382 99.8532C173.128 100.108 172.785 100.251 172.426 100.251Z" fill="#B8C0C7"/>
<path opacity="0.3" d="M192.678 100.251H178.618C178.259 100.251 177.916 100.108 177.662 99.8532C177.409 99.5984 177.267 99.2529 177.267 98.8925C177.267 98.5322 177.409 98.1866 177.662 97.9318C177.916 97.677 178.259 97.5338 178.618 97.5338H192.678C193.036 97.5345 193.379 97.678 193.632 97.9327C193.884 98.1874 194.026 98.5326 194.026 98.8925C194.026 99.2524 193.884 99.5976 193.632 99.8523C193.379 100.107 193.036 100.251 192.678 100.251Z" fill="#B8C0C7"/>
<path opacity="0.3" d="M139.259 108.674H119.16C118.802 108.674 118.459 108.531 118.205 108.276C117.952 108.021 117.81 107.676 117.81 107.315C117.81 106.955 117.953 106.611 118.206 106.356C118.459 106.102 118.803 105.959 119.16 105.959H139.259C139.617 105.959 139.96 106.102 140.213 106.356C140.466 106.611 140.609 106.955 140.61 107.315C140.61 107.676 140.467 108.021 140.214 108.276C139.961 108.531 139.617 108.674 139.259 108.674Z" fill="#B8C0C7"/>
<path opacity="0.3" d="M171.811 108.674H144.272C143.914 108.674 143.57 108.531 143.317 108.276C143.064 108.021 142.921 107.676 142.921 107.315C142.922 106.955 143.065 106.611 143.318 106.356C143.571 106.102 143.914 105.959 144.272 105.959H171.811C171.988 105.959 172.164 105.994 172.328 106.062C172.492 106.13 172.641 106.23 172.766 106.356C172.892 106.481 172.991 106.631 173.059 106.796C173.127 106.96 173.162 107.137 173.162 107.315C173.162 107.494 173.128 107.671 173.06 107.836C172.992 108.001 172.893 108.151 172.767 108.277C172.642 108.403 172.492 108.503 172.328 108.571C172.164 108.639 171.989 108.674 171.811 108.674Z" fill="#B8C0C7"/>
</g>
<path d="M74.4929 61.4922H80.1864L95.5694 96.8909H89.0761L85.5306 88.403H68.9985L65.4013 96.8909H59.1099L74.4929 61.4922ZM83.292 82.9397L77.249 68.8843L71.2553 82.9397H83.292Z" fill="#E9E9E9"/>
<path d="M80.57 119.843H49.7729V125.821H80.57V119.843Z" fill="#B8C0C7"/>
<path d="M80.57 125.822H49.7729V131.8H80.57V125.822Z" fill="#F1F2F3"/>
<path d="M80.57 131.803H49.7729V137.782H80.57V131.803Z" fill="#F1F2F3"/>
<path d="M103.269 123.229H86.3174C85.9742 123.229 85.6451 123.092 85.4024 122.848C85.1597 122.604 85.0234 122.273 85.0234 121.928C85.0234 121.582 85.1597 121.251 85.4024 121.007C85.6451 120.763 85.9742 120.626 86.3174 120.626H103.269C103.612 120.626 103.941 120.763 104.184 121.007C104.426 121.251 104.563 121.582 104.563 121.928C104.563 122.273 104.426 122.604 104.184 122.848C103.941 123.092 103.612 123.229 103.269 123.229Z" fill="#B8C0C7"/>
<path d="M97.5518 127.781H86.3174C85.9742 127.781 85.6451 127.644 85.4024 127.4C85.1597 127.156 85.0234 126.825 85.0234 126.48C85.0234 126.135 85.1597 125.804 85.4024 125.56C85.6451 125.316 85.9742 125.179 86.3174 125.179H97.5518C97.895 125.179 98.2242 125.316 98.4669 125.56C98.7095 125.804 98.8458 126.135 98.8458 126.48C98.8458 126.825 98.7095 127.156 98.4669 127.4C98.2242 127.644 97.895 127.781 97.5518 127.781Z" fill="#B8C0C7"/>
<path d="M80.57 150.759H49.7729V162.977H80.57V150.759Z" fill="#D92C2A"/>
<path d="M80.57 159.96H49.7729V168.698H80.57V159.96Z" fill="#384152"/>
<path d="M49.7729 150.759L60.8211 160.093L49.7729 168.698V150.759Z" fill="#B8C0C7"/>
<path d="M103.269 154.146H86.3174C85.9742 154.146 85.6451 154.009 85.4024 153.765C85.1597 153.52 85.0234 153.189 85.0234 152.844C85.0234 152.499 85.1597 152.168 85.4024 151.924C85.6451 151.68 85.9742 151.543 86.3174 151.543H103.269C103.612 151.543 103.941 151.68 104.184 151.924C104.426 152.168 104.563 152.499 104.563 152.844C104.563 153.189 104.426 153.52 104.184 153.765C103.941 154.009 103.612 154.146 103.269 154.146Z" fill="#B8C0C7"/>
<path d="M97.5518 158.698H86.3174C85.9742 158.698 85.6451 158.561 85.4024 158.317C85.1597 158.073 85.0234 157.742 85.0234 157.397C85.0234 157.051 85.1597 156.72 85.4024 156.476C85.6451 156.232 85.9742 156.095 86.3174 156.095H97.5518C97.895 156.095 98.2242 156.232 98.4669 156.476C98.7095 156.72 98.8458 157.051 98.8458 157.397C98.8458 157.742 98.7095 158.073 98.4669 158.317C98.2242 158.561 97.895 158.698 97.5518 158.698Z" fill="#B8C0C7"/>
<path d="M230.812 35.1462C230.812 35.1462 231.614 44.7611 229.438 44.6154C227.261 44.4696 222.968 40.2374 214.28 40.9245C205.592 41.6117 194.987 43.5274 188.568 32.1009C182.15 20.6744 196.775 17.3896 196.775 17.3896L230.812 35.1462Z" fill="#151F2C"/>
<path d="M212.365 34.4382L256.092 38.0536L257 36.0989L215.08 4.97664L172.733 0L171.92 1.75171L212.365 34.4382Z" fill="#384152"/>
<path d="M242.124 67.5594C242.032 67.2353 241.846 66.9459 241.591 66.7279C241.335 66.5099 241.021 66.373 240.688 66.3346C240.355 66.2961 240.018 66.3579 239.72 66.512C239.421 66.6661 239.175 66.9056 239.013 67.2004C238.85 67.4951 238.778 67.8317 238.805 68.1677C238.832 68.5037 238.958 68.824 239.167 69.0881C239.375 69.3522 239.657 69.5482 239.976 69.6514C240.295 69.7546 240.637 69.7603 240.96 69.6677C241.392 69.543 241.757 69.251 241.975 68.8557C242.194 68.4605 242.247 67.9943 242.124 67.5594Z" fill="#D92C2A"/>
<path d="M240.664 68.0305C242.419 67.8952 242.83 83.9443 242.83 83.9443C242.83 83.9443 241.686 84.4857 241.125 84.3582C240.563 84.2306 240.273 82.0625 240.273 82.0625L240.219 84.3348C240.219 84.3348 238.296 84.4024 237.631 83.9313C237.631 83.9313 237.89 68.2492 240.664 68.0305Z" fill="#D92C2A"/>
<path d="M241.237 68.3923L240.921 33.3268L240.694 33.1576L217.855 16.1637L217.034 17.2829L239.645 34.1051L240.158 68.3325L241.237 68.3923Z" fill="#D92C2A"/>
<path d="M55.7685 124.726C55.7685 124.726 87.6798 138.658 93.4708 138.418C99.2618 138.179 134.959 127.534 134.959 127.534L134.051 133.695C134.051 133.695 106.503 149.581 96.8742 150.482C87.3933 151.353 54.9698 141.949 51.8398 139.959C48.7099 137.97 46.6696 126.764 55.7685 124.726Z" fill="#DE6B4D"/>
<path d="M50.9716 73.4326C50.9716 73.4326 39.1986 71.1905 33.3382 75.4831C22.7155 83.2629 22.1469 110.081 18.1444 114.073C14.1419 118.065 4.56547 116.363 3.71462 137.034C2.86377 157.705 7.53477 159.433 1.97819 168.662C-3.5784 177.892 4.33542 187.122 4.33542 187.122C4.33542 187.122 1.08828 182.028 2.48177 178.354C2.48177 178.354 3.83182 186.469 8.97167 188.367C14.1115 190.265 14.8712 191.667 15.6917 194.462C15.6917 194.462 59.5366 171.928 59.5887 155.946C59.6408 139.964 68.2188 124.13 64.0036 117.199C64.0036 117.199 65.8789 120.159 66.109 123.455C66.109 123.455 68.6398 118.596 64.2553 114.073C59.8708 109.55 69.3996 100.194 67.9887 89.3535C67.0293 81.922 61.82 73.7591 50.9716 73.4326Z" fill="#151F2C"/>
<path d="M59.6463 139.955C56.3948 142.154 52.7537 143.709 48.9195 144.535C32.38 148.366 26.042 134.348 23.6631 124.726C25.3896 123.76 27.2986 123.167 29.2674 122.985C30.4612 122.841 31.7201 122.75 32.7403 122.698C34.5982 121.27 37.3679 115.431 37.98 106.367L38.757 106.576L51.7802 110.155C51.7802 110.155 51.1812 114.308 50.912 118.235C50.6863 121.309 50.6516 124.247 51.229 124.966C52.2491 125.188 52.8569 125.331 52.8569 125.331C55.5812 129.977 57.8547 134.874 59.6463 139.955Z" fill="#EE805F"/>
<path d="M51.805 110.177C51.805 110.177 51.2059 114.326 50.9368 118.257C43.5569 117.517 40.1275 110.464 38.7817 106.598L51.805 110.177Z" fill="#DE6B4D"/>
<path d="M54.0101 114.073C54.0101 114.073 36.4852 113.107 37.2536 102.17C38.0219 91.2343 36.2811 83.7418 47.5028 83.8855C58.7245 84.0292 60.6042 88.3697 61.2337 92.0832C61.8631 95.7968 58.59 114.047 54.0101 114.073Z" fill="#EE805F"/>
<path d="M46.6466 108.669C46.7146 108.227 46.9412 107.825 47.2838 107.54C47.5955 107.27 47.9867 107.111 48.3973 107.087C48.8079 107.063 49.2152 107.174 49.5563 107.405C49.9104 107.678 50.1855 108.042 50.3535 108.457C50.5214 108.873 50.5761 109.325 50.5121 109.769C50.3229 110.035 50.0791 110.258 49.797 110.422C49.5149 110.586 49.2012 110.688 48.8767 110.72C48.7753 110.728 48.6736 110.728 48.5723 110.72C48.0471 110.731 47.5386 110.535 47.1564 110.174C46.9641 109.977 46.8185 109.74 46.7302 109.48C46.642 109.219 46.6134 108.942 46.6466 108.669Z" fill="#FF9A6C"/>
<path d="M57.7046 100.823C57.6935 101.115 57.5686 101.391 57.3568 101.592C57.1449 101.792 56.8631 101.901 56.5719 101.895C56.4294 101.898 56.2877 101.873 56.1552 101.82C56.0226 101.767 55.9018 101.689 55.7997 101.589C55.6976 101.49 55.6163 101.371 55.5605 101.239C55.5047 101.107 55.4755 100.966 55.4745 100.823C55.4892 100.531 55.6161 100.256 55.8287 100.057C56.0413 99.8566 56.3229 99.7471 56.6144 99.7512C56.7565 99.7483 56.8978 99.7739 57.03 99.8266C57.1621 99.8792 57.2825 99.9577 57.384 100.058C57.4855 100.157 57.5662 100.276 57.6212 100.408C57.6763 100.539 57.7046 100.681 57.7046 100.823Z" fill="#263238"/>
<path d="M58.6468 96.3645C58.5052 96.4994 57.6911 95.832 56.5229 95.7681C55.3548 95.7042 54.3991 96.258 54.2858 96.1018C54.1725 95.9456 54.3849 95.7752 54.7814 95.5196C55.3203 95.1876 55.9485 95.0314 56.5796 95.0723C57.2029 95.1032 57.8004 95.3319 58.2857 95.7255C58.6114 96.0308 58.7247 96.3006 58.6468 96.3645Z" fill="#263238"/>
<path d="M50.9433 105.8C51.5856 105.631 52.2473 105.547 52.9114 105.552C53.2158 105.552 53.5131 105.495 53.5769 105.282C53.6153 104.968 53.5611 104.65 53.4211 104.366C53.1733 103.606 52.9114 102.811 52.6424 101.973C51.5663 98.5797 50.8017 95.7894 50.9433 95.7468C51.0849 95.7042 52.0618 98.4235 53.1379 101.824L53.8459 104.224C54.0202 104.605 54.0528 105.035 53.9379 105.438C53.8889 105.544 53.8161 105.637 53.7252 105.709C53.6343 105.782 53.5277 105.833 53.414 105.857C53.242 105.894 53.0659 105.908 52.8901 105.9C52.2395 105.944 51.5861 105.91 50.9433 105.8Z" fill="#263238"/>
<path d="M47.3697 106.432C47.5608 106.432 47.4971 107.739 48.559 108.725C49.621 109.712 51.0156 109.648 51.0156 109.833C51.0156 110.018 50.69 110.067 50.1094 110.053C49.3438 110.023 48.6138 109.721 48.0493 109.201C47.5091 108.705 47.1817 108.018 47.1361 107.284C47.1219 106.737 47.2776 106.425 47.3697 106.432Z" fill="#263238"/>
<path d="M58.2427 92.1543C58.0232 92.4312 57.1171 92.1898 56.041 92.2182C54.9649 92.2466 54.0587 92.4809 53.8322 92.2182C53.733 92.0833 53.8676 91.8064 54.2569 91.5082C54.7834 91.165 55.3989 90.9848 56.0268 90.9899C56.6547 90.973 57.2742 91.1381 57.8108 91.4656C58.2002 91.7354 58.3347 92.0123 58.2427 92.1543Z" fill="#263238"/>
<path d="M44.6144 100.525C44.6085 100.817 44.7161 101.099 44.9144 101.312C45.1126 101.526 45.3859 101.653 45.6764 101.668C45.818 101.682 45.9608 101.667 46.0966 101.624C46.2324 101.582 46.3584 101.513 46.4672 101.421C46.576 101.329 46.6654 101.216 46.7302 101.089C46.795 100.962 46.8338 100.824 46.8445 100.681C46.8505 100.39 46.7442 100.108 46.5476 99.8935C46.351 99.6792 46.0794 99.5493 45.7896 99.5311C45.6471 99.5175 45.5033 99.5325 45.3666 99.5753C45.23 99.6181 45.1032 99.6879 44.9938 99.7804C44.8843 99.873 44.7944 99.9865 44.7293 100.114C44.6641 100.242 44.6251 100.382 44.6144 100.525Z" fill="#263238"/>
<path d="M42.4212 95.8959C42.5557 96.0449 43.4123 95.4344 44.6159 95.4557C45.8194 95.477 46.6831 96.1018 46.8176 95.9527C46.9521 95.8036 46.7468 95.6261 46.3645 95.335C45.853 94.9651 45.2394 94.7641 44.6088 94.7599C43.9842 94.746 43.3715 94.9325 42.8601 95.2924C42.4849 95.5693 42.3504 95.832 42.4212 95.8959Z" fill="#263238"/>
<path d="M43.1423 92.0478C43.3689 92.3247 44.3034 92.0478 45.4148 92.0478C46.5263 92.0478 47.475 92.2679 47.6944 91.9839C47.7936 91.849 47.6449 91.5721 47.2414 91.2739C46.6819 90.9453 46.0417 90.7805 45.3936 90.7982C44.7499 90.7908 44.1179 90.9709 43.5742 91.3165C43.1706 91.6289 43.0361 91.9129 43.1423 92.0478Z" fill="#263238"/>
<path d="M61.1464 85.9752C58.6764 82.4924 56.5796 83.067 55.3641 83.9726C46.1697 78.0125 39.4497 85.3657 39.4497 85.3657C38.3324 90.0916 35.6115 94.2809 31.7529 97.2161C31.7529 97.2161 34.7917 99.4234 42.2931 98.0564C44.5808 97.621 46.7036 96.1799 48.5443 94.3602C46.3773 97.3985 43.8068 100.126 40.904 102.466C49.9812 99.0228 54.3613 87.0244 54.8301 85.7532C55.8286 86.7937 57.7864 89.0358 58.303 91.1298C58.9759 93.9771 61.88 98.4264 63.56 98.3524C63.5383 98.3524 64.8494 91.2039 61.1464 85.9752Z" fill="#151F2C"/>
<path d="M18.6696 175.689C17.0895 167.578 11.9279 135.157 17.0895 124.726C18.9431 120.978 26.2057 120.643 34.1933 120.969C36.6764 122.576 46.1357 128.653 50.0209 127.896L50.238 127.843C52.0699 127.382 52.7601 126.102 51.232 124.983C54.1965 124.783 57.1742 124.966 60.0922 125.527C62.8662 126.05 70.3415 129.929 70.3415 129.929C70.3415 129.929 66.5778 136.751 61.0256 139.106C61.9676 147.574 60.5654 151.296 51.8051 170.887C44.4253 187.431 52.8036 202.307 52.8036 202.307C52.8036 202.307 9.22345 237.444 8.95864 219.556C8.79802 206.073 20.6926 186.059 18.6696 175.689Z" fill="#384152"/>
<path d="M130.796 240H103.638C103.638 240 102.627 235.646 104.407 232.699C105.987 230.087 105.383 228.594 104.211 226.43C105.653 227.058 107.216 227.355 108.787 227.301C110.223 227.137 111.603 226.649 112.824 225.873C113.992 227.209 118.997 232.899 120.56 234.027C122.335 235.303 130.249 234.845 130.796 240Z" fill="#151F2C"/>
<path d="M95.2678 150.708C96.9043 163.003 103.29 201.806 114.555 220.74C118.184 226.835 105.404 230.265 105.335 230.248C103.598 229.813 100.764 227.057 99.4482 225.864C90.3059 217.592 71.7391 194.196 71.7391 175.432C71.7391 166.29 71.5785 148.81 78.2116 144.37C82.2966 141.64 94.6209 145.832 95.2678 150.708Z" fill="#AC2625"/>
<path d="M54.948 239.416C56.1188 239.284 57.2467 238.901 58.2529 238.293C59.2591 237.685 60.1194 236.866 60.7737 235.894C60.9879 235.584 61.2136 235.249 61.4509 234.887C66.4084 227.444 68.3402 204.636 79.4968 180.339C82.2143 174.424 91.9687 173.361 94.6298 166.675C94.6298 166.675 101.176 145.004 82.0971 144.363C63.018 143.721 31.0026 204.666 30.4947 211.055C30.0258 217.25 17.9012 243.561 54.948 239.416Z" fill="#AC2625"/>
<path d="M38.7682 238.916C38.7682 238.916 39.7753 237.526 41.5334 234.887C43.6215 231.753 45.9309 225.58 48.7353 217.667C51.6785 209.359 55.1731 199.156 59.5402 188.506C60.8903 185.225 62.3185 181.902 63.8423 178.604C66.5598 172.694 74.0351 173.507 76.6962 166.822C76.6962 166.822 87.0757 143.64 68.014 143.003C48.9523 142.365 12.6783 204.994 10.5945 211.076C8.2981 217.697 -2.82808 245.279 38.7682 238.916Z" fill="#D92C2A"/>
<path d="M110.862 240H83.708C83.708 240 82.6922 235.646 84.4721 232.699C86.0522 230.087 85.4488 228.594 84.2768 226.43C85.7184 227.058 87.2815 227.355 88.8522 227.301C90.2884 227.137 91.6688 226.649 92.8894 225.873C94.0572 227.209 99.0624 232.899 100.625 234.027C102.401 235.303 110.315 234.845 110.862 240Z" fill="#384152"/>
<path d="M48.736 218.511C51.6793 210.108 55.1739 199.79 59.541 189.02C58.3993 180.874 55.9423 173.747 51.8052 170.874C51.8052 170.874 41.7686 202.05 48.736 218.511Z" fill="#AC2625"/>
<path d="M79.4187 149.838C81.0509 162.132 83.3561 201.806 94.6125 220.74C98.2416 226.835 85.4615 230.265 85.392 230.248C83.6556 229.813 80.8208 227.057 79.5055 225.864C70.3632 217.592 51.7964 194.196 51.7964 175.432C51.7964 166.29 62.5015 149.546 69.1607 145.101C73.2327 142.371 78.7675 144.962 79.4187 149.838Z" fill="#D92C2A"/>
<path d="M138.362 114.63L132.732 104.443L120.555 138.527L127.74 146.263L138.362 114.63Z" fill="#151F2C"/>
<path d="M108.963 120.595L97.6416 153.033L127.738 146.263L138.361 114.63L108.963 120.595Z" fill="#151F2C"/>
<path d="M98.2464 151.396L97.7168 150.469L108.431 119.776L108.965 120.595L98.2464 151.396Z" fill="#EFDECE"/>
<path d="M108.429 119.776L136.959 114.208L138.361 114.63L108.963 120.595L108.429 119.776Z" fill="#E9E9E9"/>
<path d="M138.363 114.63L132.276 104.939L128.396 115.88L136.96 114.208L138.363 114.63Z" fill="#EFDECE"/>
<path d="M117.657 125.292C116.68 125.105 114.579 124.313 112.447 123.725C113.081 123.233 113.784 122.624 113.984 121.984C114.362 120.782 114.614 120.394 113.35 120.778C112.087 121.161 107.664 123.189 107.664 123.189C105.15 123.925 102.832 127.486 102.832 127.486C102.832 127.486 71.7194 138.457 67.9774 138.645C62.1864 138.936 23.6419 124.713 23.6419 124.713C14.5256 126.729 16.5876 137.935 19.7349 139.925C22.8822 141.914 50.6 152.032 67.0527 152.223C75.3789 152.319 105.662 132.798 105.662 132.798C105.662 132.798 109.2 131.178 111.983 131.683C114.766 132.188 121.212 131.683 122.601 129.402C123.99 127.121 119.302 125.61 117.657 125.292Z" fill="#EE805F"/>
<path d="M43.5183 131.749C43.5183 131.749 40.0715 142.689 28.2333 145.179C28.2333 145.179 8.69848 139.141 18.4182 125.784C18.4182 125.784 28.0337 118.609 43.5183 131.749Z" fill="#384152"/>
<path d="M137.863 126.119C137.873 125.826 137.838 125.532 137.759 125.249C137.759 125.249 134.972 120.825 134.061 120.643C131.278 120.094 131.278 123.764 131.89 126.137C132.307 127.67 133.098 129.075 134.191 130.225L134.082 133.686C138.732 131.082 137.863 126.119 137.863 126.119Z" fill="#EE805F"/>
</svg>
