<svg width="103" height="44" viewBox="0 0 103 44" fill="none" xmlns="http://www.w3.org/2000/svg">
<path d="M4.216 42.1423L1.6209 36.4851H3.18863L4.91648 40.5746L6.35746 36.4851H7.79178L5.84378 41.7287C5.64232 42.4104 5.26499 43.027 4.7497 43.5166C4.3958 43.8068 3.95314 43.9669 3.49551 43.9702C3.10394 43.9538 2.72099 43.85 2.3747 43.6665C2.02842 43.483 1.72755 43.2243 1.49414 42.9095L2.35473 41.9889C2.47412 42.1733 2.63304 42.3288 2.81996 42.4442C3.00688 42.5596 3.21713 42.6319 3.43547 42.656C3.57305 42.659 3.70821 42.6194 3.8224 42.5426C3.96096 42.4351 4.08438 42.3095 4.18932 42.169L4.216 42.1423Z" fill="white"/>
<path d="M8.71899 36.4851H10.1266V39.0135L12.1013 36.4851H13.7825L11.2274 39.754L14.0293 43.7968H12.3815L10.1266 40.5412V43.7968H8.71899V36.4851Z" fill="white"/>
<path d="M15.03 36.4849H16.5044C17.0889 36.454 17.6741 36.5286 18.2322 36.7051C18.5663 36.858 18.8456 37.1094 19.0328 37.4256C19.2441 37.7849 19.3504 38.1963 19.3396 38.6131C19.3526 39.0696 19.209 39.5169 18.9327 39.8806C18.6558 40.2272 18.2744 40.4752 17.8453 40.5877C17.3603 40.6853 16.8652 40.7234 16.3709 40.7012V43.7966H15.03V36.4583V36.4849ZM16.411 39.3469H16.8579C17.1049 39.3612 17.3526 39.3365 17.5918 39.2735C17.7239 39.2276 17.8383 39.1412 17.9187 39.0267C17.9966 38.9006 18.036 38.7545 18.0321 38.6064C18.0399 38.4822 18.0128 38.3582 17.9539 38.2486C17.8949 38.1389 17.8065 38.048 17.6985 37.986C17.4189 37.8663 17.1145 37.8159 16.8112 37.8392H16.411V39.3469Z" fill="white"/>
<path d="M22.9626 36.4851H24.3703L27.1855 43.8234H25.7045L25.1375 42.3158H22.1354L21.555 43.8234H20.134L22.9626 36.4851ZM23.7031 38.4331L22.7091 40.9482H24.7105L23.7031 38.4331Z" fill="white"/>
<path d="M28.1592 36.4849H29.5468V43.8232H28.1592V36.4849ZM27.7522 34.4835C27.9415 34.4835 28.1231 34.5587 28.257 34.6926C28.3908 34.8265 28.4661 35.008 28.4661 35.1974C28.4661 35.3867 28.3908 35.5682 28.257 35.7021C28.1231 35.836 27.9415 35.9112 27.7522 35.9112C27.6583 35.9118 27.5651 35.8938 27.4781 35.8583C27.3911 35.8228 27.312 35.7705 27.2452 35.7044C27.1132 35.5686 27.0393 35.3867 27.0393 35.1974C27.0393 35.008 27.1132 34.8261 27.2452 34.6903C27.312 34.6242 27.3911 34.5719 27.4781 34.5364C27.5651 34.5009 27.6583 34.4829 27.7522 34.4835ZM29.9471 34.4835C30.041 34.4829 30.1342 34.5009 30.2212 34.5364C30.3082 34.5719 30.3873 34.6242 30.4541 34.6903C30.5861 34.8261 30.66 35.008 30.66 35.1974C30.66 35.3867 30.5861 35.5686 30.4541 35.7044C30.3203 35.8376 30.1392 35.9124 29.9504 35.9124C29.7616 35.9124 29.5805 35.8376 29.4467 35.7044C29.3147 35.5686 29.2408 35.3867 29.2408 35.1974C29.2408 35.008 29.3147 34.8261 29.4467 34.6903C29.5124 34.6247 29.5905 34.5726 29.6763 34.5372C29.7622 34.5017 29.8542 34.4835 29.9471 34.4835Z" fill="white"/>
<path d="M31.1013 36.4851H32.5156V39.247H34.9573V36.4851H36.3649V43.7968H34.9573V40.5946H32.5156V43.7968H31.1013V36.4851Z" fill="white"/>
<path d="M44.7571 37.7724L43.7831 38.6997C43.5049 38.3759 43.1613 38.1147 42.775 37.933C42.3887 37.7514 41.9684 37.6534 41.5416 37.6456C41.2133 37.6385 40.8871 37.6987 40.583 37.8227C40.2789 37.9466 40.0035 38.1316 39.7737 38.3661C39.5387 38.5942 39.3534 38.8683 39.2294 39.1714C39.1054 39.4745 39.0454 39.8 39.0532 40.1273C39.0442 40.5794 39.1546 41.0258 39.3734 41.4215C39.5828 41.7989 39.8951 42.109 40.2741 42.3155C40.6714 42.53 41.1167 42.6402 41.5683 42.6357C41.9488 42.6407 42.3261 42.5657 42.6757 42.4156C43.0909 42.2075 43.4659 41.9275 43.7831 41.5883L44.7304 42.5757C44.2893 43.0319 43.7696 43.4047 43.1961 43.6764C42.6736 43.8905 42.1128 43.9949 41.5483 43.9833C41.0335 44.0015 40.5203 43.9151 40.0399 43.7294C39.5594 43.5436 39.1217 43.2623 38.753 42.9026C38.176 42.2756 37.8092 41.4839 37.7039 40.6383C37.5987 39.7927 37.7602 38.9353 38.166 38.186C38.5065 37.6202 38.9956 37.1587 39.5803 36.8517C40.1903 36.506 40.8804 36.3266 41.5816 36.3314C42.1877 36.3308 42.7866 36.4618 43.3372 36.7151C43.8877 36.9685 44.3767 37.3383 44.7705 37.7991L44.7571 37.7724Z" fill="white"/>
<path d="M45.9644 43.7966V36.4583H47.352V39.2201H47.6588C48.1513 39.2072 48.6425 39.2748 49.1132 39.4203C49.5168 39.5687 49.8658 39.8362 50.1138 40.1875C50.3999 40.5727 50.5501 41.042 50.5408 41.5217C50.5564 41.9725 50.4278 42.4165 50.1739 42.7892C49.9682 43.1096 49.6771 43.3661 49.3333 43.5298C48.9085 43.694 48.4539 43.7668 47.9991 43.7432L45.9644 43.7966ZM47.352 40.461V42.4624H47.7189C48.1202 42.4991 48.524 42.4252 48.8863 42.2489C48.9908 42.1593 49.072 42.0457 49.1231 41.918C49.1742 41.7902 49.1937 41.652 49.1799 41.515C49.1799 40.8212 48.6729 40.4743 47.6588 40.4743L47.352 40.461Z" fill="white"/>
<path d="M51.769 36.4851H53.1767V39.0135L55.158 36.4851H56.8325L54.2774 39.754L57.0793 43.7968H55.4315L53.1767 40.5412V43.7968H51.769V36.4851Z" fill="white"/>
<path d="M61.5215 36.3048C62.0193 36.2993 62.5129 36.396 62.9718 36.5887C63.4308 36.7815 63.8454 37.0663 64.19 37.4255C64.8995 38.1553 65.2964 39.1329 65.2964 40.1507C65.2964 41.1685 64.8995 42.1462 64.19 42.8759C63.836 43.2321 63.415 43.5148 62.9513 43.7077C62.4876 43.9006 61.9904 44 61.4881 44C60.9859 44 60.4887 43.9006 60.025 43.7077C59.5613 43.5148 59.1403 43.2321 58.7863 42.8759C58.2009 42.2714 57.8277 41.493 57.723 40.6579C57.6184 39.8229 57.7878 38.9765 58.2059 38.2461C58.5345 37.6649 59.0139 37.1832 59.5935 36.8518C60.175 36.514 60.8357 36.3367 61.5081 36.3381L61.5215 36.3048ZM61.5215 37.639C61.2045 37.6334 60.8898 37.6933 60.5971 37.815C60.3043 37.9366 60.0399 38.1175 59.8203 38.3462C59.5949 38.5856 59.4197 38.8677 59.3052 39.1759C59.1906 39.4842 59.1389 39.8122 59.1532 40.1407C59.138 40.5064 59.2086 40.8706 59.3591 41.2042C59.5097 41.5378 59.7362 41.8315 60.0205 42.062C60.4555 42.4215 61.0038 42.6153 61.5682 42.6091C61.8827 42.6139 62.1947 42.5529 62.4843 42.43C62.7738 42.3071 63.0344 42.1249 63.2493 41.8953C63.6972 41.4169 63.9465 40.7861 63.9465 40.1307C63.9465 39.4754 63.6972 38.8446 63.2493 38.3662C63.032 38.1332 62.7685 37.9482 62.4755 37.823C62.1826 37.6978 61.8667 37.6351 61.5482 37.639H61.5215Z" fill="white"/>
<path d="M66.5258 36.4849H67.9134V43.8232H66.5258V36.4849ZM66.1189 34.4835C66.2128 34.4829 66.306 34.5009 66.393 34.5364C66.48 34.5719 66.5591 34.6242 66.6259 34.6903C66.7579 34.8261 66.8318 35.008 66.8318 35.1974C66.8318 35.3867 66.7579 35.5686 66.6259 35.7044C66.5591 35.7705 66.48 35.8228 66.393 35.8583C66.306 35.8938 66.2128 35.9118 66.1189 35.9112C65.9295 35.9112 65.748 35.836 65.6141 35.7021C65.4802 35.5682 65.405 35.3867 65.405 35.1974C65.405 35.008 65.4802 34.8265 65.6141 34.6926C65.748 34.5587 65.9295 34.4835 66.1189 34.4835ZM68.3204 34.4835C68.5097 34.4835 68.6912 34.5587 68.8251 34.6926C68.959 34.8265 69.0342 35.008 69.0342 35.1974C69.0342 35.3867 68.959 35.5682 68.8251 35.7021C68.6912 35.836 68.5097 35.9112 68.3204 35.9112C68.2264 35.9118 68.1332 35.8938 68.0462 35.8583C67.9592 35.8228 67.8801 35.7705 67.8133 35.7044C67.6813 35.5686 67.6074 35.3867 67.6074 35.1974C67.6074 35.008 67.6813 34.8261 67.8133 34.6903C67.8801 34.6242 67.9592 34.5719 68.0462 34.5364C68.1332 34.5009 68.2264 34.4829 68.3204 34.4835Z" fill="white"/>
<path d="M72.3362 36.4851H73.7438V39.0135L75.7185 36.4851H77.3996L74.8446 39.754L77.6465 43.7968H75.9987L73.7438 40.5412V43.7968H72.3362V36.4851Z" fill="white"/>
<path d="M78.6338 36.4851H80.0481V39.247H82.4898V36.4851H83.8974V43.7968H82.4898V40.5946H80.0481V43.7968H78.6338V36.4851Z" fill="white"/>
<path d="M90.8953 36.4851V43.7968H89.5077V39.2203L86.7525 43.7968H85.5583V36.4851H86.946V41.215L89.7412 36.4851H90.8953Z" fill="white"/>
<path d="M92.5566 36.4851H96.1925V37.8527H93.9376V43.7968H92.5566V36.4851Z" fill="white"/>
<path d="M102.603 36.4851V43.7968H101.216V39.2203L98.4672 43.7968H97.2664V36.4851H98.654V41.215L101.449 36.4851H102.603Z" fill="white"/>
<path d="M4.74323 6.14429H8.95944L14.2831 22.0818L19.6267 6.14429H23.8296L27.6589 28.9932H23.4627L21.0277 14.5634L16.191 28.9932H12.3484L7.5318 14.5634L5.04343 28.9932H0.800537L4.74323 6.14429Z" fill="white"/>
<path d="M37.5592 23.8164L29.4337 6.14429H34.337L39.714 18.913L44.1437 6.14429H48.6201L42.5293 22.5155C41.4886 25.304 40.3523 27.172 39.1203 28.1193C38.0087 29.0225 36.6232 29.5212 35.191 29.5336C32.9227 29.5336 30.8369 28.4217 28.9333 26.198L31.7953 23.3294C32.9294 24.6636 34.0568 25.3307 35.1309 25.3307C35.5685 25.3482 35.9997 25.2216 36.3584 24.9705C36.7852 24.6299 37.1703 24.2403 37.5059 23.8097L37.5592 23.8164Z" fill="white"/>
<path d="M52.689 23.0558C53.8365 24.6635 55.1907 25.4641 56.7385 25.4641C57.6516 25.5043 58.545 25.1913 59.2335 24.5901C59.5504 24.2934 59.7997 23.9318 59.9643 23.53C60.1289 23.1283 60.2051 22.6957 60.1875 22.2619C60.2014 21.8269 60.1264 21.3937 59.9669 20.9887C59.8075 20.5838 59.567 20.2157 59.2602 19.907C58.6398 19.2799 57.3522 18.973 55.4042 18.973H54.4702V15.0903H55.4042C56.3439 15.1564 57.275 14.8737 58.0193 14.2965C58.3163 14.0298 58.5504 13.7006 58.705 13.3327C58.8596 12.9647 58.9307 12.5671 58.9133 12.1683C58.9322 11.8114 58.8754 11.4545 58.7466 11.1211C58.6178 10.7877 58.42 10.4853 58.1661 10.2337C57.897 9.98722 57.5813 9.79709 57.2376 9.67449C56.8939 9.5519 56.5291 9.49932 56.1647 9.51987C55.0185 9.59862 53.9463 10.1144 53.1694 10.9609L50.6343 8.07221C51.6025 7.08207 52.7814 6.32277 54.0833 5.8507C54.9132 5.61806 55.7699 5.49471 56.6317 5.48378C58.335 5.43747 59.9962 6.01652 61.3016 7.11156C61.9309 7.65277 62.4295 8.32945 62.7599 9.09085C63.0903 9.85225 63.2441 10.6786 63.2096 11.5079C63.2086 12.3235 63.0617 13.1323 62.7759 13.8962C62.4868 14.6745 61.6907 15.4973 60.3876 16.3645C61.6137 16.8313 62.6609 17.6736 63.3798 18.771C64.0986 19.8684 64.4523 21.1649 64.3904 22.4754C64.4286 23.4342 64.2574 24.3899 63.8887 25.2759C63.5201 26.1619 62.9627 26.9569 62.2556 27.6055C60.7347 28.9285 58.7659 29.6206 56.7518 29.5402C55.4459 29.5623 54.1507 29.3006 52.9559 28.773C51.4952 27.9595 50.2437 26.8175 49.3 25.4374L52.6357 23.0157L52.689 23.0558Z" fill="white"/>
<path d="M68.627 6.14429H81.1021V10.4072H72.9499V14.5167H81.1021V18.7129H72.9499V24.7303H81.1021V28.9932H68.627V6.14429Z" fill="white"/>
<path d="M101.79 6.1442V28.9931H97.4602V14.69L88.8477 28.9931H85.1118V6.1442H89.4414V20.9143L98.1807 6.1442H101.79ZM87.2132 0H90.6489C90.9142 0.426863 91.3059 0.760355 91.7697 0.95399C92.328 1.18225 92.9279 1.29132 93.5309 1.27421C94.1832 1.28471 94.8306 1.15977 95.4322 0.907286C95.8448 0.71058 96.1887 0.394497 96.4195 0H99.8619C99.7788 0.628708 99.5686 1.23392 99.244 1.77872C98.9194 2.32352 98.4873 2.79651 97.9739 3.16883C96.6587 4.03732 95.0975 4.45629 93.5242 4.36298C92.428 4.39421 91.3361 4.21297 90.3087 3.82928C89.4923 3.50571 88.7715 2.98004 88.2139 2.30158C87.6895 1.63374 87.3491 0.840228 87.2266 0H87.2132Z" fill="white"/>
</svg>
