<svg width="54" height="54" viewBox="0 0 54 54" fill="none" xmlns="http://www.w3.org/2000/svg">
<g clip-path="url(#clip0)">
<path fill-rule="evenodd" clip-rule="evenodd" d="M1.25537 0.10791H52.4169V53.6295H1.25537V0.10791Z" fill="#04000C"/>
<path d="M28.2086 26.892L33.5405 7.84219L31.7498 7.35113L26.4137 26.401C25.7787 28.6404 24.9532 29.3071 23.3488 28.8563C21.2787 28.2763 21.357 27.4149 21.7359 26.0644C21.7782 25.9184 21.8206 25.7766 21.865 25.6411C21.9095 25.5056 21.9497 25.3511 21.9878 25.2178L27.3366 6.12982L25.5501 5.62817L20.2077 24.7034C20.1717 24.8304 20.1357 24.9617 20.0934 25.095C20.051 25.2284 20.0045 25.3998 19.9621 25.5543C19.6573 26.6338 18.853 29.5103 22.8556 30.6343C25.5035 31.3772 27.3006 30.1157 28.2086 26.8942V26.892Z" fill="#D92C2A"/>
<path d="M22.9188 26.6127L28.5301 6.5849L27.9395 6.4198L22.3262 26.4454L22.9188 26.6127Z" fill="#D92C2A"/>
<path d="M24.1555 26.9577L29.7688 6.93207L29.1783 6.76697L23.5649 26.7926L24.1555 26.9577Z" fill="#D92C2A"/>
<path d="M25.4742 27.3281L31.0875 7.30035L30.4928 7.13525L24.8794 27.1609L25.4742 27.3281Z" fill="#D92C2A"/>
<path d="M37.2741 30.8185V10.0203H36.6582V30.8185H37.2741Z" fill="#E0C021"/>
<path d="M38.5591 30.8185V10.0203H37.9453V30.8185H38.5591Z" fill="#E0C021"/>
<path d="M39.9281 30.8185V10.0203H39.3101V30.8185H39.9281Z" fill="#E0C021"/>
<path d="M42.4112 10.4604C42.4112 10.3038 42.4112 10.1451 42.4112 9.98208C42.4112 8.85603 42.4112 5.85461 38.233 5.85461C35.4686 5.85461 34.0674 7.56064 34.0674 10.9346V30.8057H35.9322V10.9282C35.9322 8.58933 36.5544 7.71515 38.233 7.71515C40.3941 7.71515 40.5486 8.56181 40.5486 9.98208C40.5486 10.1345 40.5486 10.2848 40.5486 10.4329C40.5486 10.5811 40.5486 10.7314 40.5486 10.8732V30.7993H42.4112V10.8732C42.4112 10.742 42.4112 10.6023 42.4112 10.4604Z" fill="#E0C021"/>
<path d="M13.2037 10.1007V30.8587H12.5898V10.1007H13.2037Z" fill="#3AA8BF"/>
<path d="M14.4888 10.1007V30.8587H13.875V10.1007H14.4888Z" fill="#3AA8BF"/>
<path d="M15.8578 10.1007V30.8587H15.2397V10.1007H15.8578Z" fill="#3AA8BF"/>
<path d="M10.1958 31.1974V11.2373C10.1958 11.104 10.1958 10.9685 10.1958 10.814C10.1958 10.6595 10.1958 10.4986 10.1958 10.3378C10.1958 9.20747 10.1958 6.19971 14.3804 6.19971C17.1511 6.19971 18.5545 7.90996 18.5545 11.2797V31.1762H16.677V11.2797C16.677 8.93442 16.042 8.06236 14.3698 8.06236C12.2066 8.06236 12.0415 8.92172 12.0415 10.3356C12.0415 10.488 12.0415 10.6362 12.0415 10.7823C12.0415 10.9283 12.0415 11.0828 12.0415 11.2246V31.1847L10.1958 31.1974Z" fill="#3AA8BF"/>
<path d="M11.3856 45.7345L10.5622 43.9396H11.0596L11.6078 45.2371L12.065 43.9396H12.5201L11.902 45.6033C11.8381 45.8195 11.7184 46.0152 11.5549 46.1705C11.4426 46.2626 11.3022 46.3134 11.157 46.3145C11.0327 46.3093 10.9112 46.2763 10.8014 46.2181C10.6915 46.1599 10.596 46.0778 10.522 45.9779L10.795 45.6858C10.8329 45.7443 10.8833 45.7937 10.9426 45.8303C11.0019 45.8669 11.0686 45.8898 11.1379 45.8975C11.1816 45.8984 11.2245 45.8859 11.2607 45.8615C11.3046 45.8274 11.3438 45.7875 11.3771 45.743L11.3856 45.7345Z" fill="white"/>
<path d="M12.814 43.9396H13.2606V44.7418L13.8871 43.9396H14.4205L13.6098 44.9767L14.4988 46.2594H13.976L13.2606 45.2265V46.2594H12.814V43.9396Z" fill="white"/>
<path d="M14.8164 43.9395H15.2842C15.4696 43.9297 15.6553 43.9534 15.8324 44.0093C15.9384 44.0579 16.027 44.1376 16.0864 44.2379C16.1535 44.352 16.1872 44.4825 16.1838 44.6147C16.1879 44.7596 16.1423 44.9015 16.0546 45.0169C15.9668 45.1268 15.8458 45.2055 15.7096 45.2412C15.5557 45.2722 15.3987 45.2843 15.2419 45.2772V46.2593H14.8164V43.931V43.9395ZM15.2546 44.8475H15.3964C15.4747 44.8521 15.5533 44.8442 15.6292 44.8243C15.6711 44.8097 15.7074 44.7823 15.7329 44.7459C15.7576 44.7059 15.7702 44.6596 15.7689 44.6126C15.7714 44.5732 15.7628 44.5338 15.7441 44.4991C15.7254 44.4643 15.6973 44.4354 15.6631 44.4157C15.5743 44.3778 15.4778 44.3618 15.3816 44.3692H15.2546V44.8475Z" fill="white"/>
<path d="M17.333 43.9396H17.7796L18.6728 46.2679H18.203L18.023 45.7895H17.0705L16.8864 46.2679H16.4355L17.333 43.9396ZM17.568 44.5576L17.2526 45.3556H17.8876L17.568 44.5576Z" fill="white"/>
<path d="M18.9823 43.9396H19.4225V46.2679H18.9823V43.9396ZM18.8532 43.3046C18.9132 43.3046 18.9708 43.3284 19.0133 43.3709C19.0558 43.4134 19.0796 43.471 19.0796 43.5311C19.0796 43.5911 19.0558 43.6487 19.0133 43.6912C18.9708 43.7337 18.9132 43.7575 18.8532 43.7575C18.8233 43.7577 18.7938 43.752 18.7662 43.7408C18.7386 43.7295 18.7135 43.7129 18.6923 43.6919C18.6504 43.6488 18.627 43.5911 18.627 43.5311C18.627 43.471 18.6504 43.4133 18.6923 43.3702C18.7135 43.3492 18.7386 43.3326 18.7662 43.3213C18.7938 43.3101 18.8233 43.3044 18.8532 43.3046ZM19.5495 43.3046C19.5793 43.3044 19.6089 43.3101 19.6365 43.3213C19.6641 43.3326 19.6892 43.3492 19.7104 43.3702C19.7523 43.4133 19.7757 43.471 19.7757 43.5311C19.7757 43.5911 19.7523 43.6488 19.7104 43.6919C19.6679 43.7342 19.6105 43.7579 19.5506 43.7579C19.4907 43.7579 19.4332 43.7342 19.3908 43.6919C19.3489 43.6488 19.3254 43.5911 19.3254 43.5311C19.3254 43.471 19.3489 43.4133 19.3908 43.3702C19.4116 43.3494 19.4364 43.3328 19.4636 43.3216C19.4909 43.3103 19.5201 43.3045 19.5495 43.3046Z" fill="white"/>
<path d="M19.9155 43.9396H20.3643V44.8159H21.139V43.9396H21.5856V46.2594H21.139V45.2434H20.3643V46.2594H19.9155V43.9396Z" fill="white"/>
<path d="M24.2483 44.3481L23.9392 44.6423C23.851 44.5396 23.742 44.4567 23.6194 44.3991C23.4968 44.3414 23.3635 44.3104 23.228 44.3079C23.1239 44.3056 23.0204 44.3247 22.9239 44.3641C22.8274 44.4034 22.74 44.4621 22.6671 44.5365C22.5926 44.6088 22.5338 44.6958 22.4944 44.792C22.4551 44.8881 22.4361 44.9914 22.4385 45.0953C22.4357 45.2387 22.4707 45.3804 22.5401 45.5059C22.6065 45.6256 22.7057 45.724 22.8259 45.7895C22.952 45.8576 23.0932 45.8926 23.2365 45.8911C23.3572 45.8927 23.4769 45.8689 23.5879 45.8213C23.7196 45.7553 23.8386 45.6664 23.9392 45.5588L24.2398 45.8721C24.0998 46.0168 23.9349 46.1351 23.753 46.2213C23.5872 46.2893 23.4093 46.3224 23.2302 46.3187C23.0668 46.3245 22.904 46.2971 22.7516 46.2381C22.5991 46.1792 22.4602 46.09 22.3433 45.9758C22.1602 45.7769 22.0438 45.5257 22.0104 45.2574C21.977 44.9891 22.0283 44.7171 22.157 44.4793C22.2651 44.2998 22.4203 44.1534 22.6057 44.056C22.7993 43.9463 23.0183 43.8894 23.2407 43.8909C23.433 43.8907 23.6231 43.9323 23.7977 44.0127C23.9724 44.0931 24.1276 44.2104 24.2525 44.3566L24.2483 44.3481Z" fill="white"/>
<path d="M24.6313 46.2593V43.931H25.0716V44.8073H25.169C25.3252 44.8032 25.4811 44.8247 25.6304 44.8708C25.7585 44.9179 25.8692 45.0028 25.9479 45.1142C26.0387 45.2365 26.0863 45.3854 26.0834 45.5376C26.0883 45.6806 26.0475 45.8215 25.967 45.9397C25.9017 46.0414 25.8093 46.1228 25.7003 46.1747C25.5655 46.2268 25.4212 46.2499 25.2769 46.2424L24.6313 46.2593ZM25.0716 45.201V45.836H25.188C25.3154 45.8477 25.4435 45.8242 25.5584 45.7683C25.5916 45.7399 25.6173 45.7038 25.6336 45.6633C25.6498 45.6228 25.656 45.5789 25.6516 45.5355C25.6516 45.3153 25.4907 45.2053 25.169 45.2053L25.0716 45.201Z" fill="white"/>
<path d="M26.4731 43.9396H26.9198V44.7418L27.5484 43.9396H28.0797L27.269 44.9767L28.158 46.2594H27.6352L26.9198 45.2265V46.2594H26.4731V43.9396Z" fill="white"/>
<path d="M29.5673 43.8824C29.7252 43.8807 29.8818 43.9113 30.0275 43.9725C30.1731 44.0336 30.3046 44.124 30.4139 44.238C30.6391 44.4695 30.765 44.7797 30.765 45.1026C30.765 45.4256 30.6391 45.7358 30.4139 45.9673C30.3016 46.0803 30.1681 46.17 30.0209 46.2312C29.8738 46.2924 29.716 46.3239 29.5567 46.3239C29.3974 46.3239 29.2396 46.2924 29.0925 46.2312C28.9453 46.17 28.8118 46.0803 28.6995 45.9673C28.5137 45.7755 28.3953 45.5285 28.3621 45.2636C28.3289 44.9986 28.3827 44.7301 28.5153 44.4983C28.6196 44.3139 28.7717 44.1611 28.9556 44.056C29.1401 43.9488 29.3497 43.8925 29.5631 43.893L29.5673 43.8824ZM29.5673 44.3057C29.4667 44.3039 29.3669 44.3229 29.274 44.3615C29.1811 44.4002 29.0972 44.4575 29.0275 44.5301C28.956 44.606 28.9004 44.6956 28.8641 44.7934C28.8277 44.8911 28.8113 44.9952 28.8159 45.0995C28.8111 45.2155 28.8334 45.331 28.8812 45.4369C28.929 45.5427 29.0008 45.6359 29.091 45.7091C29.2291 45.8231 29.403 45.8846 29.5821 45.8826C29.6819 45.8842 29.7809 45.8648 29.8728 45.8258C29.9646 45.7868 30.0473 45.729 30.1155 45.6561C30.2576 45.5044 30.3367 45.3042 30.3367 45.0963C30.3367 44.8884 30.2576 44.6882 30.1155 44.5364C30.0465 44.4625 29.9629 44.4038 29.87 44.3641C29.777 44.3244 29.6768 44.3045 29.5758 44.3057H29.5673Z" fill="white"/>
<path d="M31.1549 43.9396H31.5952V46.2679H31.1549V43.9396ZM31.0258 43.3046C31.0556 43.3044 31.0852 43.3101 31.1128 43.3213C31.1404 43.3326 31.1655 43.3492 31.1867 43.3702C31.2286 43.4133 31.252 43.471 31.252 43.5311C31.252 43.5911 31.2286 43.6488 31.1867 43.6919C31.1655 43.7129 31.1404 43.7295 31.1128 43.7408C31.0852 43.752 31.0556 43.7577 31.0258 43.7575C30.9657 43.7575 30.9081 43.7337 30.8657 43.6912C30.8232 43.6487 30.7993 43.5911 30.7993 43.5311C30.7993 43.471 30.8232 43.4134 30.8657 43.3709C30.9081 43.3284 30.9657 43.3046 31.0258 43.3046ZM31.7243 43.3046C31.7844 43.3046 31.842 43.3284 31.8844 43.3709C31.9269 43.4134 31.9508 43.471 31.9508 43.5311C31.9508 43.5911 31.9269 43.6487 31.8844 43.6912C31.842 43.7337 31.7844 43.7575 31.7243 43.7575C31.6945 43.7577 31.6649 43.752 31.6373 43.7408C31.6097 43.7295 31.5846 43.7129 31.5634 43.6919C31.5215 43.6488 31.4981 43.5911 31.4981 43.5311C31.4981 43.471 31.5215 43.4133 31.5634 43.3702C31.5846 43.3492 31.6097 43.3326 31.6373 43.3213C31.6649 43.3101 31.6945 43.3044 31.7243 43.3046Z" fill="white"/>
<path d="M32.9985 43.9396H33.4451V44.7418L34.0717 43.9396H34.6051L33.7944 44.9767L34.6834 46.2594H34.1606L33.4451 45.2265V46.2594H32.9985V43.9396Z" fill="white"/>
<path d="M34.9966 43.9396H35.4453V44.8159H36.22V43.9396H36.6666V46.2594H36.22V45.2434H35.4453V46.2594H34.9966V43.9396Z" fill="white"/>
<path d="M38.8872 43.9396V46.2594H38.4469V44.8074L37.5727 46.2594H37.1938V43.9396H37.6341V45.4403L38.521 43.9396H38.8872Z" fill="white"/>
<path d="M39.4146 43.9396H40.5681V44.3735H39.8527V46.2594H39.4146V43.9396Z" fill="white"/>
<path d="M42.602 43.9396V46.2594H42.1618V44.8074L41.2897 46.2594H40.9087V43.9396H41.349V45.4403L42.2358 43.9396H42.602Z" fill="white"/>
<path d="M11.5527 34.313H12.8904L14.5795 39.3697L16.2749 34.313H17.6084L18.8234 41.5625H17.492L16.7194 36.9842L15.1849 41.5625H13.9657L12.4375 36.9842L11.6479 41.5625H10.3018L11.5527 34.313Z" fill="white"/>
<path d="M21.9644 39.92L19.3863 34.313H20.942L22.648 38.3643L24.0535 34.313H25.4738L23.5413 39.5072C23.2111 40.392 22.8505 40.9847 22.4597 41.2852C22.107 41.5718 21.6674 41.73 21.213 41.734C20.4933 41.734 19.8315 41.3812 19.2275 40.6756L20.1356 39.7655C20.4954 40.1888 20.8531 40.4005 21.1939 40.4005C21.3327 40.406 21.4696 40.3659 21.5834 40.2862C21.7188 40.1781 21.841 40.0545 21.9474 39.9179L21.9644 39.92Z" fill="white"/>
<path d="M26.7652 39.6787C27.1293 40.1888 27.5589 40.4428 28.05 40.4428C28.3397 40.4556 28.6232 40.3563 28.8416 40.1656C28.9422 40.0714 29.0213 39.9567 29.0735 39.8292C29.1257 39.7017 29.1499 39.5645 29.1443 39.4269C29.1487 39.2888 29.1249 39.1514 29.0743 39.0229C29.0237 38.8944 28.9474 38.7776 28.8501 38.6797C28.6533 38.4807 28.2447 38.3833 27.6267 38.3833H27.3303V37.1515H27.6267C27.9248 37.1724 28.2202 37.0827 28.4564 36.8996C28.5506 36.815 28.6249 36.7105 28.674 36.5938C28.723 36.477 28.7456 36.3509 28.74 36.2244C28.746 36.1111 28.728 35.9979 28.6871 35.8921C28.6463 35.7863 28.5835 35.6904 28.503 35.6105C28.4176 35.5323 28.3174 35.472 28.2084 35.4331C28.0993 35.3942 27.9836 35.3775 27.868 35.3841C27.5043 35.409 27.1641 35.5727 26.9176 35.8412L26.1133 34.9247C26.4205 34.6106 26.7945 34.3697 27.2076 34.2199C27.4709 34.1461 27.7427 34.1069 28.0161 34.1035C28.5565 34.0888 29.0836 34.2725 29.4978 34.6199C29.6975 34.7917 29.8557 35.0064 29.9605 35.2479C30.0653 35.4895 30.1141 35.7517 30.1032 36.0148C30.1029 36.2736 30.0563 36.5302 29.9656 36.7726C29.8739 37.0195 29.6213 37.2806 29.2078 37.5557C29.5968 37.7038 29.9291 37.9711 30.1572 38.3193C30.3852 38.6675 30.4975 39.0788 30.4778 39.4946C30.4899 39.7988 30.4356 40.102 30.3187 40.3831C30.2017 40.6642 30.0249 40.9165 29.8005 41.1223C29.3179 41.542 28.6933 41.7616 28.0542 41.7361C27.6399 41.7431 27.229 41.6601 26.8499 41.4927C26.3864 41.2346 25.9893 40.8723 25.6899 40.4344L26.7483 39.666L26.7652 39.6787Z" fill="white"/>
<path d="M31.8218 34.313H35.7799V35.6655H33.1934V36.9694H35.7799V38.3008H33.1934V40.21H35.7799V41.5625H31.8218V34.313Z" fill="white"/>
<path d="M42.3439 34.313V41.5625H40.9702V37.0244L38.2376 41.5625H37.0522V34.313H38.426V38.9992L41.1988 34.313H42.3439ZM37.719 32.3635H38.8091C38.8932 32.499 39.0175 32.6048 39.1647 32.6662C39.3418 32.7386 39.5321 32.7732 39.7235 32.7678C39.9304 32.7711 40.1358 32.7315 40.3267 32.6514C40.4576 32.589 40.5667 32.4887 40.64 32.3635H41.7322C41.7058 32.563 41.6391 32.755 41.5361 32.9279C41.4331 33.1007 41.296 33.2508 41.1331 33.3689C40.7159 33.6445 40.2205 33.7774 39.7213 33.7478C39.3735 33.7577 39.0271 33.7002 38.7011 33.5785C38.4421 33.4758 38.2134 33.309 38.0365 33.0938C37.8701 32.8819 37.7621 32.6301 37.7232 32.3635H37.719Z" fill="white"/>
<path d="M1.24023 0.0550537H52.4463V1.98121H1.24023V0.0550537Z" fill="#3AA8BF"/>
<path d="M3.16248 1.9812V53.7164H1.23633V1.9812H3.16248Z" fill="white"/>
<path d="M52.4483 1.9812V53.8138H50.52V1.9812H52.4483Z" fill="#E0C021"/>
<path d="M1.23633 52.1267H52.4551V54.055H1.23633V52.1267Z" fill="#D92C2A"/>
</g>
<defs>
<clipPath id="clip0">
<rect width="54" height="54" fill="white"/>
</clipPath>
</defs>
</svg>
