<svg width="92" height="100" viewBox="0 0 92 100" fill="none" xmlns="http://www.w3.org/2000/svg">
<path d="M20.0762 74.586L0.078125 78.3389L3.07021 94.3711L23.0683 90.6182L20.0762 74.586Z" fill="#F5F5F5"/>
<path d="M20.0808 74.5911L19.9838 74.6146L19.6898 74.6706L18.6053 74.8828L14.5109 75.6698L0.094055 78.4108L0.1499 78.3283C1.03167 83.1 2.06627 88.5703 3.15084 94.3588L3.05973 94.294L23.0464 90.5568L22.9965 90.6334C22.1147 85.8057 21.374 81.8061 20.8596 79.0032C20.6069 77.6032 20.407 76.5039 20.2718 75.7612C20.2042 75.3868 20.1542 75.1009 20.119 74.9005C20.0837 74.7001 20.069 74.6058 20.069 74.6058C20.069 74.6058 20.0925 74.7001 20.1278 74.9005L20.2953 75.7464C20.4393 76.498 20.648 77.5915 20.9155 78.9885C21.4475 81.7973 22.2058 85.8086 23.1228 90.6481L23.1375 90.71L23.0729 90.7247L3.07442 94.4679L2.99801 94.4826L2.98331 94.403C1.90755 88.6145 0.887645 83.1442 0 78.3695V78.3018L0.0705412 78.287L14.5433 75.6049L18.6258 74.8563L19.7045 74.6618L19.9779 74.6146L20.0808 74.5911Z" fill="#E0E0E0"/>
<path d="M19.5471 75.7286L0.953125 79.218L3.56836 93.231L22.1624 89.7416L19.5471 75.7286Z" fill="#EBEBEB"/>
<path d="M3.5625 93.2358L8.43279 83.3063L13.4706 88.0014L15.6574 84.5766L22.156 89.7462L3.5625 93.2358Z" fill="#E0E0E0"/>
<path d="M13.9647 81.1665C14.0189 81.457 13.986 81.757 13.8702 82.0287C13.7544 82.3005 13.5608 82.5316 13.314 82.6931C13.0672 82.8545 12.7782 82.9389 12.4835 82.9356C12.1888 82.9324 11.9018 82.8416 11.6585 82.6747C11.4153 82.5079 11.2269 82.2725 11.1171 81.9983C11.0073 81.7241 10.981 81.4234 11.0416 81.1342C11.1022 80.845 11.2469 80.5803 11.4575 80.3736C11.6681 80.1669 11.9351 80.0274 12.2247 79.9729C12.4171 79.9366 12.6148 79.9387 12.8064 79.9791C12.998 80.0194 13.1798 80.0973 13.3414 80.2081C13.503 80.319 13.6412 80.4607 13.7481 80.6251C13.8551 80.7896 13.9287 80.9735 13.9647 81.1665Z" fill="#E0E0E0"/>
<path d="M50.0383 7.41472L39.7998 64.134L81.6792 71.7355L91.9176 15.0162L50.0383 7.41472Z" fill="#FAFAFA"/>
<path d="M81.6771 71.741C81.6771 71.741 81.6918 71.6467 81.7212 71.4699L81.8623 70.6712C81.9857 69.9697 82.1709 68.9322 82.4089 67.5853C82.8939 64.8855 83.5993 60.942 84.4928 55.9492L91.8409 15.0108L91.8997 15.0933L50.0305 7.49807L50.1216 7.43323C46.3006 28.5921 42.753 48.1919 39.8667 64.1487L39.8167 64.075L70.2464 69.6337L78.6908 71.184L80.9129 71.5966C81.4155 71.688 81.6771 71.741 81.6771 71.741L80.9246 71.6114L78.7114 71.2164L70.267 69.7103L39.7873 64.2106H39.7256V64.1487C42.6031 48.186 46.139 28.5862 49.9541 7.42734V7.35071H50.0334L91.9291 14.9519L91.9996 14.9666V15.0344C88.9516 31.8342 86.3769 46.0197 84.5663 56.0023L82.4501 67.6148C82.2032 68.9558 82.0151 69.9726 81.8858 70.6859C81.8211 71.0307 81.7741 71.293 81.7417 71.4728L81.6771 71.741Z" fill="#E0E0E0"/>
<path d="M71.3575 16.6392L53.5762 13.4117L50.7722 28.9452L68.5536 32.1726L71.3575 16.6392Z" fill="#E0E0E0"/>
<path d="M85.54 19.2133L74.1562 17.147L73.7903 19.1743L85.1741 21.2405L85.54 19.2133Z" fill="#E0E0E0"/>
<path d="M82.918 38.0458L50.4268 32.1484L50.0608 34.1756L82.552 40.0731L82.918 38.0458Z" fill="#E0E0E0"/>
<path d="M82.2725 41.6169L49.7812 35.7194L49.4153 37.7467L81.9065 43.6441L82.2725 41.6169Z" fill="#E0E0E0"/>
<path d="M81.6299 45.1821L49.1387 39.2846L48.7727 41.3118L81.2639 47.2093L81.6299 45.1821Z" fill="#E0E0E0"/>
<path d="M80.9824 48.7526L48.4912 42.8552L48.1253 44.8824L80.6165 50.7799L80.9824 48.7526Z" fill="#E0E0E0"/>
<path d="M80.3379 52.3179L47.8467 46.4204L47.4807 48.4476L79.972 54.3451L80.3379 52.3179Z" fill="#E0E0E0"/>
<path d="M78.1309 64.5489L45.6396 58.6514L45.2737 60.6787L77.7649 66.5761L78.1309 64.5489Z" fill="#E0E0E0"/>
<path d="M65.0424 53.2246L47.2061 49.9871L46.8401 52.0144L64.6764 55.2518L65.0424 53.2246Z" fill="#E0E0E0"/>
<path d="M84.9482 22.492L73.5645 20.4257L73.1985 22.453L84.5823 24.5192L84.9482 22.492Z" fill="#E0E0E0"/>
<path d="M83.9243 25.8149L72.5869 23.7267L72.2171 25.7457L83.5545 27.8339L83.9243 25.8149Z" fill="#E0E0E0"/>
<path d="M79.3993 28.2603L72.3799 26.9862L72.0139 29.0134L79.0334 30.2875L79.3993 28.2603Z" fill="#E0E0E0"/>
<path d="M8.54102 1.68882L9.87836 17.3038L15.9185 18.9454L27.6313 17.5779L25.9824 0L8.54102 1.68882Z" fill="#F5F5F5"/>
<path d="M11.7189 15.9009L9.87891 17.3039C10.5783 17.9119 11.396 18.3676 12.2802 18.642C13.4624 18.9717 14.6965 19.0718 15.9161 18.9367C15.9161 18.9367 13.1267 18.4622 11.7189 15.9009Z" fill="#EBEBEB"/>
<path d="M24.5723 5.75321C24.5723 5.78268 21.6096 6.09215 17.9502 6.44878C14.2909 6.80541 11.3164 7.07067 11.3135 7.03825C11.3105 7.00583 14.2762 6.69046 17.9385 6.34268C21.6008 5.99489 24.5694 5.7149 24.5723 5.75321Z" fill="#E0E0E0"/>
<path d="M24.7452 8.14644C24.7452 8.17592 21.7824 8.48834 18.1231 8.84496C14.4638 9.20159 11.4893 9.4639 11.4863 9.43443C11.4834 9.40496 14.4491 9.09254 18.1113 8.73591C21.7736 8.37928 24.7422 8.11108 24.7452 8.14644Z" fill="#E0E0E0"/>
<path d="M25.0235 10.2656C25.0235 10.295 22.0607 10.6075 18.4014 10.9611C14.7421 11.3148 11.7705 11.583 11.7676 11.5506C11.7646 11.5182 14.7274 11.2117 18.3896 10.855C22.0519 10.4984 25.0205 10.2361 25.0235 10.2656Z" fill="#E0E0E0"/>
<path d="M25.21 12.3139C25.21 12.3405 22.2473 12.6529 18.585 13.0095C14.9227 13.3661 11.9541 13.6314 11.9512 13.599C11.9482 13.5666 14.9139 13.2571 18.5762 12.9034C22.2384 12.5497 25.2071 12.2845 25.21 12.3139Z" fill="#E0E0E0"/>
<path d="M4.7793 28.8456L17.1711 100L69.4245 91.7711L71.8464 85.9059L57.7088 20.1097L8.72961 23.0423L4.7793 28.8456Z" fill="#E0E0E0"/>
<path opacity="0.3" d="M17.171 99.9999L20.8833 94.2939L8.49153 23.1395L4.7793 28.8455L17.171 99.9999Z" fill="black"/>
<path d="M8.49121 23.1394L20.883 94.2939L71.8461 85.9058L58.9723 15.9185L8.49121 23.1394Z" fill="#FAFAFA"/>
<path d="M8.49121 23.1425L58.9606 15.8625H59.0223V15.9215C62.6346 35.4652 67.1081 59.6894 71.9225 85.8911L71.9372 85.9707L71.8579 85.9854L71.0172 86.124L20.8947 94.3765H20.8242V94.3058C13.5349 52.2798 8.59996 23.7673 8.49121 23.1425C8.59996 23.7702 13.5937 52.2709 20.9535 94.2851L20.8712 94.2291L70.9908 85.9766L71.8314 85.8381L71.7667 85.9294C66.9523 59.7247 62.5023 35.5006 58.9077 15.9421L58.9782 15.9922L8.49121 23.1425Z" fill="#263238"/>
<path d="M49.1758 56.7712C49.7994 52.0093 46.4552 47.642 41.7064 47.0167C36.9575 46.3914 32.6023 49.7448 31.9787 54.5068C31.3551 59.2687 34.6993 63.6359 39.4482 64.2612C44.197 64.8866 48.5522 61.5331 49.1758 56.7712Z" fill="#D92C2A"/>
<path d="M36.7581 57.974L36.3643 55.4658L45.0261 54.0894L45.3965 56.4473C45.3965 56.4473 44.8674 58.475 41.3639 59.0291C37.8603 59.5832 36.7581 57.974 36.7581 57.974Z" fill="white"/>
<path d="M34.9971 55.4806L41.1783 56.5799L46.5394 53.556L40.3494 52.5775L34.9971 55.4806Z" fill="white"/>
<path d="M52.2946 31.1482L21.5817 36.0151C21.2049 36.0748 20.9477 36.4295 21.0072 36.8073L21.1109 37.4652C21.1705 37.8431 21.5242 38.101 21.901 38.0413L52.6139 33.1744C52.9907 33.1147 53.2479 32.76 53.1883 32.3822L53.0846 31.7242C53.0251 31.3464 52.6714 31.0885 52.2946 31.1482Z" fill="#E0E0E0"/>
<path d="M47.4352 36.2741L27.9576 39.3606C27.5808 39.4203 27.3237 39.775 27.3832 40.1528L27.4869 40.8108C27.5464 41.1886 27.9002 41.4465 28.277 41.3868L47.7545 38.3003C48.1313 38.2406 48.3885 37.8859 48.3289 37.5081L48.2252 36.8501C48.1657 36.4723 47.812 36.2144 47.4352 36.2741Z" fill="#E0E0E0"/>
<path d="M54.4479 79.9329L34.9703 83.0193C34.5935 83.079 34.3364 83.4337 34.3959 83.8116L34.4996 84.4695C34.5591 84.8473 34.9129 85.1052 35.2897 85.0455L54.7672 81.9591C55.144 81.8994 55.4012 81.5447 55.3416 81.1668L55.2379 80.5089C55.1784 80.131 54.8247 79.8732 54.4479 79.9329Z" fill="#E0E0E0"/>
<path d="M69.2218 87.8835L68.9749 87.9306L68.246 88.0573L65.4273 88.5289L54.9607 90.2502L19.6019 96.0122L19.5255 96.0269V95.9503C19.0317 93.1356 18.5114 90.1883 17.9824 87.1849C15.1372 71.0483 12.5742 56.4472 10.7196 45.8693C9.79959 40.5818 9.05597 36.3052 8.53867 33.3461C8.2859 31.8724 8.08897 30.72 7.95082 29.9389C7.88616 29.5499 7.8362 29.2552 7.80092 29.0547C7.76565 28.8543 7.75684 28.76 7.75684 28.76C7.75684 28.76 7.78035 28.8632 7.81856 29.0547C7.85677 29.2463 7.90968 29.5528 7.98022 29.9389C8.1213 30.72 8.32704 31.8665 8.59451 33.3402C9.12063 36.2875 9.88189 40.5729 10.8224 45.8545C12.6888 56.4295 15.2695 71.0306 18.1176 87.1643C18.6466 90.1647 19.1639 93.115 19.6607 95.9297L19.5696 95.8648L54.9401 90.1529L65.4126 88.4788L68.2342 88.0338L68.9661 87.9218L69.2218 87.8835Z" fill="#263238"/>
<path d="M65.3442 90.5597L65.112 90.6068L64.4242 90.7277L61.7613 91.1816L51.862 92.838L18.2667 98.4143H18.1903V98.3406L16.2592 87.8275C13.3817 71.9119 10.7776 57.5142 8.89059 47.0866C7.95592 41.8757 7.1976 37.6551 6.67442 34.7373C6.41871 33.2813 6.2159 32.1495 6.08658 31.3773C6.02191 30.9971 5.96901 30.7053 5.93668 30.4931C5.90434 30.2809 5.88965 30.1984 5.88965 30.1984C5.88965 30.1984 5.91316 30.2956 5.95137 30.4931L6.11891 31.3773C6.25999 32.1465 6.47161 33.2754 6.74202 34.7284L9.00522 47.0689C10.904 57.4965 13.5257 71.8942 16.4209 87.801C17.0734 91.4056 17.7141 94.9335 18.3284 98.3259L18.2403 98.264L51.8385 92.7407L61.7436 91.1285L64.4095 90.7012L65.1002 90.5951L65.3442 90.5597Z" fill="#263238"/>
<path d="M9.72344 53.2701L8.57715 54.9L11.3635 71.6644L13.0242 72.2303L9.72344 53.2701Z" fill="#263238"/>
<path d="M17.6821 51.8767L9.72559 53.2706L13.0287 72.2295L20.9852 70.8356L17.6821 51.8767Z" fill="#263238"/>
<path d="M17.9358 51.1385L17.4175 51.2293C17.1217 51.281 16.9237 51.5635 16.9753 51.8601L20.3176 71.0635C20.3693 71.3602 20.6509 71.5587 20.9468 71.5069L21.4651 71.4162C21.7609 71.3644 21.9589 71.082 21.9072 70.7853L18.5649 51.5819C18.5133 51.2853 18.2316 51.0868 17.9358 51.1385Z" fill="#263238"/>
<path d="M15.9655 58.0978L10.8013 61.0451C10.4317 60.6469 9.97096 60.3448 9.45887 60.1651C8.94677 59.9854 8.39874 59.9334 7.86211 60.0136C7.28188 60.0979 6.73382 60.3332 6.27259 60.6961C5.81136 61.0591 5.45307 61.5369 5.23345 62.082C5.01383 62.6271 4.94055 63.2204 5.02092 63.8028C5.1013 64.3851 5.33252 64.9362 5.69152 65.401C6.05053 65.8658 6.52477 66.2281 7.06697 66.4517C7.60916 66.6754 8.20036 66.7527 8.78161 66.6757C9.36286 66.5988 9.91385 66.3705 10.3796 66.0134C10.8454 65.6564 11.2097 65.1831 11.4362 64.6409L17.2647 65.5722C17.3255 65.5816 17.3876 65.5762 17.446 65.5567C17.5044 65.5372 17.5572 65.5041 17.6003 65.46C17.6434 65.416 17.6754 65.3623 17.6937 65.3034C17.712 65.2445 17.7161 65.1821 17.7056 65.1213L16.5299 58.3749C16.52 58.314 16.4957 58.2563 16.459 58.2068C16.4224 58.1572 16.3744 58.1172 16.3191 58.09C16.2639 58.0629 16.2029 58.0495 16.1414 58.0508C16.0799 58.0522 16.0196 58.0683 15.9655 58.0978V58.0978Z" stroke="#455A64" stroke-width="2" stroke-miterlimit="10"/>
<path d="M20.2805 70.8155C20.261 70.754 20.2472 70.6909 20.2393 70.6269C20.2129 70.4854 20.1806 70.3056 20.1365 70.0845C20.0483 69.5923 19.9248 68.9056 19.772 68.0804C19.4781 66.3739 19.0548 64.0455 18.5963 61.4725C18.1378 58.8994 17.7469 56.5651 17.453 54.8527C17.3148 54.0216 17.2031 53.3408 17.1238 52.8456C17.0885 52.6216 17.062 52.4389 17.0415 52.2974C17.0277 52.2345 17.0218 52.1702 17.0238 52.1058C17.0438 52.1665 17.0595 52.2286 17.0709 52.2915C17.1003 52.433 17.1385 52.6128 17.1826 52.8338C17.2766 53.326 17.4059 54.0128 17.5617 54.8351C17.8762 56.5239 18.2965 58.8611 18.7374 61.443C19.1783 64.0248 19.5898 66.368 19.8661 68.0627C20.0071 68.9115 20.113 69.5982 20.1835 70.0728C20.2158 70.3115 20.2452 70.4942 20.257 70.6239C20.2727 70.6866 20.2806 70.7509 20.2805 70.8155Z" fill="#455A64"/>
<path d="M12.8655 72.298C12.848 72.235 12.8343 72.171 12.8243 72.1064C12.7979 71.9679 12.7655 71.7881 12.7244 71.5641C12.6333 71.0719 12.5098 70.3852 12.357 69.5629C12.0631 67.8534 11.6398 65.525 11.1813 62.952C10.7228 60.379 10.3348 58.0447 10.0379 56.3352C9.89979 55.5012 9.7881 54.8203 9.70874 54.3281C9.67347 54.1012 9.64701 53.9214 9.62644 53.7799C9.61265 53.716 9.60672 53.6507 9.6088 53.5854C9.63108 53.6466 9.6478 53.7098 9.65877 53.774C9.68522 53.9155 9.72343 54.0953 9.76752 54.3163C9.86158 54.8085 9.9909 55.4953 10.1467 56.3146C10.4612 58.0064 10.8815 60.3407 11.3224 62.9255C11.7633 65.5103 12.1747 67.8475 12.454 69.5422C12.5921 70.3911 12.7009 71.0778 12.7685 71.5553C12.8008 71.794 12.8302 71.9767 12.8419 72.1035C12.8576 72.1671 12.8655 72.2324 12.8655 72.298Z" fill="#455A64"/>
<path d="M46.5335 53.5589C46.4055 53.6571 46.2699 53.7448 46.1279 53.8212L44.9934 54.4903C44.0293 55.0502 42.692 55.8136 41.2106 56.6507L41.1842 56.6654H41.1577H41.096C39.4059 56.3707 37.8628 56.0759 36.7753 55.8726L35.4674 55.6161C35.3055 55.5912 35.1461 55.5517 34.9912 55.4982C35.1549 55.5056 35.318 55.5243 35.4791 55.5542L36.793 55.7635C37.904 55.9462 39.4383 56.2115 41.1254 56.5121H41.1842H41.1312C42.6155 55.678 43.9617 54.9294 44.9522 54.393L46.1132 53.7682C46.2466 53.6855 46.3873 53.6155 46.5335 53.5589Z" fill="#263238"/>
</svg>
