<svg width="58" height="60" viewBox="0 0 58 60" fill="none" xmlns="http://www.w3.org/2000/svg">
<path d="M6.96772 4.6462L0.835938 38.5568L25.9173 43.1015L32.0491 9.19089L6.96772 4.6462Z" fill="#FAFAFA"/>
<path d="M25.9156 43.1049C25.9156 43.1049 25.9244 43.0485 25.942 42.9428L26.0265 42.4652C26.1004 42.0459 26.2113 41.4256 26.3539 40.6203C26.6443 39.0062 27.0668 36.6485 27.6019 33.6635L32.0026 9.18771L32.0378 9.23705L6.96258 4.69608L7.01715 4.65731C4.72878 17.3075 2.60411 29.0256 0.875511 38.5657L0.845584 38.5216L19.0698 41.845L24.1271 42.7718L25.4579 43.0185C25.7589 43.0732 25.9156 43.1049 25.9156 43.1049L25.4649 43.0274L24.1394 42.7912L19.0821 41.8908L0.827983 38.6027H0.791016V38.5657C2.51433 29.0221 4.63196 17.304 6.91681 4.65379V4.60797H6.96434L32.0554 9.15246L32.0977 9.16128V9.2018C30.2723 19.2459 28.7303 27.7269 27.6459 33.6952L26.3785 40.6379C26.2307 41.4397 26.118 42.0476 26.0405 42.474C26.0018 42.6802 25.9737 42.837 25.9543 42.9445L25.9156 43.1049Z" fill="#E0E0E0"/>
<path d="M19.7351 10.1612L9.08594 8.23163L7.40665 17.5186L18.0558 19.4482L19.7351 10.1612Z" fill="#E0E0E0"/>
<path d="M28.2298 11.7003L21.4121 10.4649L21.1929 11.6769L28.0106 12.9123L28.2298 11.7003Z" fill="#E0E0E0"/>
<path d="M26.66 22.9596L7.20117 19.4337L6.98201 20.6457L26.4408 24.1716L26.66 22.9596Z" fill="#E0E0E0"/>
<path d="M26.2733 25.0946L6.81445 21.5687L6.59529 22.7807L26.0541 26.3066L26.2733 25.0946Z" fill="#E0E0E0"/>
<path d="M25.8885 27.2261L6.42969 23.7002L6.21053 24.9122L25.6694 28.4381L25.8885 27.2261Z" fill="#E0E0E0"/>
<path d="M25.4999 29.3609L6.04102 25.835L5.82186 27.047L25.2807 30.5729L25.4999 29.3609Z" fill="#E0E0E0"/>
<path d="M25.1131 31.4924L5.6543 27.9665L5.43514 29.1785L24.894 32.7044L25.1131 31.4924Z" fill="#E0E0E0"/>
<path d="M23.7928 38.8049L4.33398 35.279L4.11482 36.491L23.5737 40.0169L23.7928 38.8049Z" fill="#E0E0E0"/>
<path d="M15.9536 32.0345L5.27148 30.0989L5.05232 31.311L15.7344 33.2465L15.9536 32.0345Z" fill="#E0E0E0"/>
<path d="M27.8743 13.6604L21.0566 12.425L20.8375 13.6371L27.6552 14.8724L27.8743 13.6604Z" fill="#E0E0E0"/>
<path d="M27.2626 15.6471L20.4727 14.3987L20.2512 15.6058L27.0411 16.8542L27.2626 15.6471Z" fill="#E0E0E0"/>
<path d="M24.5516 17.1091L20.3477 16.3474L20.1285 17.5594L24.3324 18.3211L24.5516 17.1091Z" fill="#E0E0E0"/>
<path d="M37.2571 4.49163L35.0938 4.57974L34.8596 5.1859C34.7928 5.34381 34.757 5.51311 34.754 5.68458C34.7518 5.7604 34.7708 5.83533 34.8087 5.90099C34.8466 5.96665 34.902 6.02046 34.9688 6.05639C35.1643 6.11881 35.3692 6.14683 35.5743 6.13921V6.31542L33.5605 6.38943V6.21322C33.7652 6.17774 33.9515 6.07328 34.0886 5.91718C34.297 5.62824 34.4613 5.30994 34.5762 4.97269L36.553 0H36.6393L39.0491 4.93392C39.2838 5.40382 39.4692 5.6975 39.6054 5.81498C39.7314 5.91207 39.8865 5.96362 40.0454 5.96123V6.12687L37.0829 6.2467V6.0793H37.2061C37.3796 6.0874 37.5518 6.04583 37.7025 5.95947C37.7345 5.93499 37.7598 5.9027 37.7758 5.86568C37.7918 5.82867 37.7981 5.78816 37.794 5.74802C37.7912 5.69144 37.78 5.6356 37.7606 5.58238C37.7606 5.55595 37.7025 5.44317 37.611 5.24934L37.2571 4.49163ZM37.0899 4.16388L36.0936 2.08811L35.2381 4.23789L37.0899 4.16388Z" fill="#E0E0E0"/>
<path d="M41.3551 17.2953L31.4609 20.6035L34.1032 28.5224L43.9973 25.2142L41.3551 17.2953Z" fill="#F5F5F5"/>
<path d="M41.1667 17.9122L31.9688 20.9876L34.2781 27.9087L43.476 24.8332L41.1667 17.9122Z" fill="#EBEBEB"/>
<path d="M34.2773 27.9102L36.0552 22.5357L38.9421 24.5604L39.8134 22.6714L43.4766 24.8353L34.2773 27.9102Z" fill="#E0E0E0"/>
<path d="M38.7131 21.0608C38.761 21.2042 38.7654 21.3587 38.7256 21.5047C38.6858 21.6506 38.6037 21.7815 38.4896 21.8807C38.3756 21.9799 38.2347 22.043 38.0847 22.0621C37.9348 22.0811 37.7826 22.0552 37.6474 21.9876C37.5122 21.9201 37.4 21.8139 37.3251 21.6825C37.2502 21.5512 37.2159 21.4005 37.2265 21.2496C37.2371 21.0987 37.2922 20.9543 37.3848 20.8348C37.4774 20.7152 37.6033 20.6259 37.7467 20.578C37.8418 20.5459 37.9423 20.533 38.0424 20.54C38.1425 20.5469 38.2403 20.5736 38.3301 20.6185C38.4198 20.6633 38.4999 20.7255 38.5656 20.8014C38.6314 20.8773 38.6815 20.9654 38.7131 21.0608Z" fill="#E0E0E0"/>
<path d="M41.6289 8.08434L39.207 20.4642L54.6748 23.4964L57.0967 11.1165L41.6289 8.08434Z" fill="#F5F5F5"/>
<path d="M57.0998 11.1189L57.0241 11.1066L56.8059 11.0678L55.9644 10.9075L52.7959 10.2978L41.6234 8.12863L41.6727 8.09514C40.9527 11.7797 40.1289 16.0035 39.2558 20.474L39.2189 20.4176L54.6847 23.4608L54.639 23.4907C55.3765 19.7656 55.9873 16.6766 56.4151 14.5181C56.6316 13.4379 56.8006 12.5903 56.9168 12.0106C56.9749 11.7216 57.0189 11.5013 57.0505 11.348C57.0822 11.1947 57.0998 11.1189 57.0998 11.1189C57.0998 11.1189 57.0875 11.1947 57.0593 11.3427C57.0312 11.4907 56.9907 11.7128 56.9361 11.9982C56.8252 12.5762 56.6633 13.422 56.4573 14.5004C56.0384 16.6678 55.4381 19.7674 54.7164 23.5066L54.7076 23.5454H54.6706L39.1942 20.5128L39.1484 20.504L39.1572 20.4581C40.0374 15.9894 40.863 11.7656 41.5847 8.08105L41.5935 8.03876L41.634 8.04757L52.8311 10.2608L55.9856 10.8916L56.8182 11.0678L57.0294 11.1119L57.0998 11.1189Z" fill="#E0E0E0"/>
<path d="M42.0112 8.97037L39.8945 19.7904L54.2757 22.6096L56.3924 11.7896L42.0112 8.97037Z" fill="#EBEBEB"/>
<path d="M39.8945 19.7903L46.2333 14.0493L48.5217 18.8669L51.0723 17.0326L54.2761 22.6097L39.8945 19.7903Z" fill="#E0E0E0"/>
<path d="M50.8273 14.0951C50.7837 14.3196 50.6746 14.5261 50.5137 14.6885C50.3529 14.8509 50.1475 14.9618 49.9236 15.0073C49.6998 15.0528 49.4674 15.0309 49.256 14.9442C49.0447 14.8575 48.8637 14.71 48.7361 14.5203C48.6084 14.3307 48.5399 14.1074 48.5391 13.8787C48.5382 13.65 48.6052 13.4262 48.7315 13.2356C48.8577 13.045 49.0376 12.8962 49.2484 12.808C49.4591 12.7198 49.6913 12.6962 49.9155 12.7401C50.0643 12.769 50.206 12.827 50.3324 12.9108C50.4588 12.9945 50.5674 13.1024 50.6521 13.2283C50.7368 13.3542 50.7959 13.4955 50.826 13.6443C50.856 13.793 50.8565 13.9462 50.8273 14.0951Z" fill="#E0E0E0"/>
<path d="M-20.1387 17.4591L-12.7173 60L18.577 55.0802L20.0275 51.5736L11.5605 12.2361L-17.7728 13.9894L-20.1387 17.4591Z" fill="#E0E0E0"/>
<path d="M-17.9141 14.0475L-10.4927 56.5885L20.0289 51.5735L12.3188 9.73035L-17.9141 14.0475Z" fill="#FAFAFA"/>
<path d="M-17.9141 14.0493L12.3118 9.6969H12.3488V9.73214C14.5122 21.4167 17.1913 35.8995 20.0747 51.5647L20.0835 51.6123L20.0359 51.6211L19.5325 51.7039L-10.4857 56.6379H-10.5279V56.5956C-14.8934 31.4696 -17.8489 14.4229 -17.9141 14.0493C-17.8489 14.4247 -14.8582 31.4643 -10.4505 56.5832L-10.4997 56.5498L19.5166 51.6158L20.0201 51.533L19.9814 51.5877C17.098 35.9207 14.4329 21.4379 12.2801 9.74448L12.3224 9.77443L-17.9141 14.0493Z" fill="#263238"/>
<path d="M6.45008 34.1549C6.82354 31.3078 4.82072 28.6968 1.97666 28.323C-0.867397 27.9491 -3.47571 29.954 -3.84918 32.801C-4.22264 35.648 -2.21982 38.2591 0.624237 38.6329C3.4683 39.0068 6.07661 37.0019 6.45008 34.1549Z" fill="#D92C2A"/>
<path d="M-0.984823 34.874L-1.2207 33.3744L3.96686 32.5515L4.18866 33.9612C4.18866 33.9612 3.8718 35.1735 1.77354 35.5048C-0.324716 35.8361 -0.984823 34.874 -0.984823 34.874Z" fill="white"/>
<path d="M-2.04102 33.3833L1.66086 34.0405L4.87163 32.2326L1.16447 31.6476L-2.04102 33.3833Z" fill="white"/>
<path d="M8.31803 18.8358L-10.0758 21.7455C-10.3014 21.7812 -10.4555 21.9932 -10.4198 22.2191L-10.3577 22.6125C-10.322 22.8384 -10.1102 22.9926 -9.88454 22.9569L8.50926 20.0472C8.73492 20.0115 8.88895 19.7994 8.85329 19.5735L8.7912 19.1801C8.75554 18.9542 8.54369 18.8001 8.31803 18.8358Z" fill="#E0E0E0"/>
<path d="M5.40953 21.9003L-6.25547 23.7456C-6.48113 23.7813 -6.63515 23.9934 -6.59949 24.2193L-6.5374 24.6126C-6.50174 24.8385 -6.28989 24.9927 -6.06423 24.957L5.60077 23.1117C5.82643 23.076 5.98046 22.8639 5.9448 22.6381L5.8827 22.2447C5.84704 22.0188 5.6352 21.8646 5.40953 21.9003Z" fill="#E0E0E0"/>
<path d="M9.60875 48.0025L-2.05625 49.8478C-2.28191 49.8835 -2.43594 50.0956 -2.40028 50.3215L-2.33818 50.7149C-2.30252 50.9407 -2.09067 51.0949 -1.86501 51.0592L9.79999 49.2139C10.0256 49.1782 10.1797 48.9662 10.144 48.7403L10.0819 48.3469C10.0463 48.121 9.83441 47.9668 9.60875 48.0025Z" fill="#E0E0E0"/>
<path d="M18.4576 52.7559L18.3097 52.7841L17.8732 52.8599L16.185 53.1418L9.91667 54.1709L-11.2596 57.6158L-11.3053 57.6246V57.5788C-11.6011 55.896 -11.9126 54.1339 -12.2295 52.3383C-13.9334 42.6907 -15.4684 33.9612 -16.5791 27.637C-17.1301 24.4757 -17.5755 21.9189 -17.8853 20.1497C-18.0367 19.2687 -18.1546 18.5797 -18.2373 18.1127C-18.2761 17.8801 -18.306 17.7039 -18.3271 17.5841C-18.3482 17.4643 -18.3535 17.4079 -18.3535 17.4079C-18.3535 17.4079 -18.3394 17.4696 -18.3165 17.5841C-18.2937 17.6986 -18.262 17.8819 -18.2197 18.1127C-18.1352 18.5797 -18.012 19.2652 -17.8518 20.1462C-17.5367 21.9083 -17.0808 24.4705 -16.5175 27.6282C-15.3998 33.9506 -13.8542 42.6801 -12.1485 52.326C-11.8317 54.1198 -11.5218 55.8837 -11.2244 57.5665L-11.2789 57.5277L9.90435 54.1127L16.1762 53.1119L17.8661 52.8458L18.3044 52.7788L18.4576 52.7559Z" fill="#263238"/>
<path d="M16.1344 54.3559L15.9953 54.3841L15.5834 54.4564L13.9886 54.7277L8.05997 55.718L-12.0601 59.052H-12.1059V59.0079L-13.2624 52.7224C-14.9857 43.207 -16.5453 34.5991 -17.6754 28.3647C-18.2352 25.2493 -18.6893 22.726 -19.0027 20.9815C-19.1558 20.111 -19.2773 19.4343 -19.3547 18.9727C-19.3934 18.7454 -19.4251 18.5709 -19.4445 18.444C-19.4639 18.3172 -19.4727 18.2678 -19.4727 18.2678C-19.4727 18.2678 -19.4586 18.326 -19.4357 18.444L-19.3354 18.9727C-19.2509 19.4326 -19.1241 20.1075 -18.9622 20.9762L-17.6068 28.3542C-16.4696 34.5885 -14.8994 43.1965 -13.1656 52.7066C-12.7748 54.8617 -12.391 56.9709 -12.0231 58.9991L-12.0759 58.9621L8.04589 55.6599L13.978 54.696L15.5746 54.4405L15.9883 54.3771L16.1344 54.3559Z" fill="#263238"/>
<path d="M4.86772 32.2343C4.79106 32.293 4.70983 32.3454 4.6248 32.3911L3.94533 32.7911C3.36796 33.1259 2.56703 33.5823 1.67984 34.0828L1.664 34.0916H1.64816H1.61119C0.599028 33.9154 -0.325122 33.7392 -0.976427 33.6176L-1.75975 33.4643C-1.85672 33.4493 -1.95216 33.4258 -2.04492 33.3938C-1.94687 33.3982 -1.84923 33.4094 -1.75271 33.4273L-0.965866 33.5524C-0.300478 33.6616 0.618392 33.8202 1.6288 34H1.664H1.63231C2.52126 33.5013 3.32747 33.0537 3.92069 32.733L4.616 32.3594C4.69587 32.31 4.78013 32.2681 4.86772 32.2343Z" fill="#263238"/>
<path d="M48.9817 27.1507C48.9739 27.1593 48.965 27.167 48.9553 27.1736C48.9377 27.1859 48.9113 27.2053 48.8743 27.2282C48.8315 27.2586 48.783 27.2801 48.7318 27.2916C48.6625 27.3039 48.5913 27.2997 48.524 27.2793C48.3744 27.2458 48.2072 27.17 48.0188 27.1031C47.8146 27.0337 47.605 26.9812 47.3922 26.9463C47.0022 26.8896 46.6085 26.8631 46.2145 26.867H45.8625C45.8186 26.8714 45.7744 26.8714 45.7305 26.867L45.8625 26.8564L46.2145 26.8441C46.6101 26.8316 47.006 26.8546 47.3975 26.9128C47.6133 26.9469 47.8254 27.0012 48.0312 27.0749C48.2213 27.1419 48.3832 27.2194 48.5311 27.2511C48.5862 27.2711 48.6452 27.2781 48.7035 27.2717C48.7618 27.2653 48.8178 27.2456 48.8673 27.2141C48.9044 27.1911 48.9426 27.1699 48.9817 27.1507Z" fill="white"/>
</svg>
