<svg width="181" height="100" viewBox="0 0 181 100" fill="none" xmlns="http://www.w3.org/2000/svg">
<path d="M151.804 16.2601H6.46986C2.89666 16.2601 0 18.058 0 20.2757V95.9844C0 98.2021 2.89666 100 6.46986 100H151.804C155.377 100 158.274 98.2021 158.274 95.9844V20.2757C158.274 18.058 155.377 16.2601 151.804 16.2601Z" fill="#F7F7F7"/>
<path d="M5.10971 16.2942H153.336C153.968 16.2942 154.595 16.4197 155.179 16.6635C155.764 16.9074 156.295 17.2648 156.742 17.7154C157.189 18.166 157.544 18.7009 157.786 19.2896C158.028 19.8783 158.153 20.5093 158.153 21.1465V31.3357H0.291016V21.1465C0.291016 20.5091 0.41567 19.8779 0.657858 19.2891C0.900045 18.7003 1.25502 18.1653 1.7025 17.7146C2.14999 17.264 2.68122 16.9067 3.26584 16.6629C3.85046 16.4192 4.47701 16.2939 5.10971 16.2942V16.2942Z" fill="#D92C2A"/>
<path d="M6.67774 23.7261C6.67774 23.3703 6.78245 23.0226 6.97864 22.7268C7.17483 22.431 7.45369 22.2004 7.77994 22.0643C8.1062 21.9281 8.46518 21.8925 8.81153 21.9619C9.15788 22.0313 9.47603 22.2027 9.72573 22.4542C9.97544 22.7058 10.1455 23.0263 10.2144 23.3752C10.2833 23.7241 10.2479 24.0858 10.1128 24.4144C9.97765 24.7431 9.74878 25.024 9.45516 25.2217C9.16154 25.4193 8.81635 25.5248 8.46321 25.5248C8.22866 25.5251 7.99636 25.4788 7.77961 25.3885C7.56286 25.2982 7.36593 25.1657 7.20008 24.9986C7.03423 24.8315 6.9027 24.6331 6.81307 24.4148C6.72344 24.1964 6.67746 23.9624 6.67774 23.7261V23.7261Z" fill="#F7F7F7"/>
<path d="M14.1699 23.7261C14.1699 23.3703 14.2746 23.0226 14.4708 22.7268C14.667 22.431 14.9459 22.2004 15.2721 22.0643C15.5984 21.9281 15.9574 21.8925 16.3037 21.9619C16.6501 22.0313 16.9682 22.2027 17.2179 22.4542C17.4676 22.7058 17.6377 23.0263 17.7066 23.3752C17.7755 23.7241 17.7401 24.0858 17.605 24.4144C17.4698 24.7431 17.241 25.024 16.9473 25.2217C16.6537 25.4193 16.3085 25.5248 15.9554 25.5248C15.7209 25.5251 15.4885 25.4788 15.2718 25.3885C15.055 25.2982 14.8581 25.1657 14.6922 24.9986C14.5264 24.8315 14.3949 24.6331 14.3053 24.4148C14.2156 24.1964 14.1696 23.9624 14.1699 23.7261V23.7261Z" fill="#F7F7F7"/>
<path d="M21.6621 23.7261C21.6621 23.3703 21.7668 23.0226 21.963 22.7268C22.1592 22.431 22.4381 22.2004 22.7643 22.0643C23.0906 21.9281 23.4496 21.8925 23.7959 21.9619C24.1423 22.0313 24.4604 22.2027 24.7101 22.4542C24.9598 22.7058 25.1299 23.0263 25.1988 23.3752C25.2677 23.7241 25.2323 24.0858 25.0972 24.4144C24.962 24.7431 24.7332 25.024 24.4396 25.2217C24.1459 25.4193 23.8007 25.5248 23.4476 25.5248C23.213 25.5251 22.9807 25.4788 22.764 25.3885C22.5472 25.2982 22.3503 25.1657 22.1845 24.9986C22.0186 24.8315 21.8871 24.6331 21.7975 24.4148C21.7078 24.1964 21.6618 23.9624 21.6621 23.7261V23.7261Z" fill="#F7F7F7"/>
<path d="M57.55 43.2728H12.8018V88.3528H57.55V43.2728Z" fill="#D4D5D9"/>
<path d="M105.311 46.6332H69.7166C69.2699 46.6304 68.8425 46.4497 68.5277 46.1305C68.2128 45.8114 68.0361 45.3797 68.0361 44.9297V44.9297C68.0394 44.4818 68.2176 44.0531 68.532 43.7363C68.8464 43.4196 69.2719 43.2401 69.7166 43.2368H105.311C105.755 43.2396 106.181 43.4188 106.496 43.7357C106.81 44.0526 106.988 44.4816 106.991 44.9297V44.9297C106.992 45.1529 106.95 45.3742 106.866 45.5808C106.782 45.7874 106.659 45.9753 106.503 46.1336C106.346 46.292 106.161 46.4176 105.956 46.5034C105.752 46.5891 105.532 46.6332 105.311 46.6332Z" fill="#B8C0C7"/>
<path d="M147.874 46.3878H112.28C111.835 46.3844 111.41 46.205 111.095 45.8883C110.781 45.5715 110.603 45.1428 110.6 44.6949V44.6949C110.602 44.2467 110.78 43.8177 111.095 43.5009C111.409 43.184 111.835 43.0047 112.28 43.002H147.874C148.32 43.002 148.747 43.1803 149.062 43.4978C149.377 43.8153 149.555 44.2459 149.555 44.6949C149.552 45.143 149.374 45.572 149.059 45.8889C148.745 46.2057 148.319 46.385 147.874 46.3878V46.3878Z" fill="#B8C0C7"/>
<g opacity="0.3">
<path opacity="0.3" d="M112.356 59.749H69.1219C68.8311 59.749 68.5522 59.6327 68.3466 59.4255C68.1409 59.2183 68.0254 58.9374 68.0254 58.6444V58.6444C68.0254 58.3514 68.1409 58.0705 68.3466 57.8633C68.5522 57.6562 68.8311 57.5398 69.1219 57.5398H112.356C112.646 57.5398 112.925 57.6562 113.131 57.8633C113.337 58.0705 113.452 58.3514 113.452 58.6444V58.6444C113.452 58.9374 113.337 59.2183 113.131 59.4255C112.925 59.6327 112.646 59.749 112.356 59.749V59.749Z" fill="#B8C0C7"/>
<path opacity="0.3" d="M128.793 59.749H117.381C117.09 59.749 116.811 59.6327 116.605 59.4255C116.4 59.2183 116.284 58.9374 116.284 58.6444V58.6444C116.284 58.3514 116.4 58.0705 116.605 57.8633C116.811 57.6562 117.09 57.5398 117.381 57.5398H128.793C129.083 57.5404 129.362 57.657 129.567 57.8641C129.772 58.0712 129.887 58.3518 129.887 58.6444V58.6444C129.887 58.937 129.772 59.2177 129.567 59.4247C129.362 59.6318 129.083 59.7485 128.793 59.749V59.749Z" fill="#B8C0C7"/>
<path opacity="0.3" d="M85.4349 66.5969H69.1219C68.8311 66.5969 68.5522 66.4805 68.3466 66.2734C68.1409 66.0662 68.0254 65.7852 68.0254 65.4923C68.0259 65.1997 68.1417 64.9193 68.3473 64.7126C68.5529 64.5059 68.8314 64.3898 69.1219 64.3898H85.4349C85.7253 64.3898 86.0039 64.5059 86.2095 64.7126C86.415 64.9193 86.5308 65.1997 86.5314 65.4923V65.4923C86.5314 65.7852 86.4158 66.0662 86.2102 66.2734C86.0046 66.4805 85.7257 66.5969 85.4349 66.5969V66.5969Z" fill="#B8C0C7"/>
<path opacity="0.3" d="M111.857 66.5969H89.5047C89.3607 66.5969 89.2181 66.5683 89.0851 66.5128C88.9521 66.4573 88.8312 66.3759 88.7294 66.2734C88.6276 66.1708 88.5468 66.049 88.4917 65.915C88.4366 65.781 88.4082 65.6373 88.4082 65.4923V65.4923C88.4088 65.1997 88.5245 64.9193 88.7301 64.7126C88.9357 64.5059 89.2142 64.3898 89.5047 64.3898H111.857C112.001 64.3895 112.143 64.4178 112.276 64.4731C112.409 64.5284 112.53 64.6095 112.632 64.7119C112.734 64.8144 112.815 64.936 112.87 65.0699C112.925 65.2038 112.953 65.3473 112.953 65.4923C112.954 65.6374 112.925 65.7812 112.87 65.9153C112.815 66.0495 112.735 66.1714 112.633 66.274C112.531 66.3766 112.41 66.458 112.277 66.5134C112.144 66.5688 112.001 66.5972 111.857 66.5969Z" fill="#B8C0C7"/>
<path opacity="0.3" d="M128.793 66.5969H117.381C117.237 66.5972 117.094 66.5688 116.961 66.5134C116.828 66.458 116.707 66.3766 116.605 66.274C116.503 66.1714 116.422 66.0495 116.367 65.9153C116.312 65.7812 116.284 65.6374 116.284 65.4923V65.4923C116.284 65.3473 116.313 65.2038 116.368 65.0699C116.423 64.936 116.504 64.8144 116.605 64.7119C116.707 64.6095 116.828 64.5284 116.961 64.4731C117.094 64.4178 117.237 64.3895 117.381 64.3898H128.793C129.083 64.3898 129.362 64.5059 129.567 64.7127C129.772 64.9195 129.887 65.1999 129.887 65.4923C129.888 65.6372 129.86 65.7808 129.805 65.9148C129.75 66.0488 129.669 66.1706 129.568 66.2732C129.466 66.3758 129.345 66.4572 129.212 66.5128C129.079 66.5683 128.937 66.5969 128.793 66.5969V66.5969Z" fill="#B8C0C7"/>
<path opacity="0.3" d="M91.2576 72.5178H69.1219C68.8314 72.5178 68.5529 72.4017 68.3473 72.195C68.1417 71.9883 68.0259 71.7079 68.0254 71.4153V71.4153C68.0254 71.1223 68.1409 70.8414 68.3466 70.6342C68.5522 70.4271 68.8311 70.3107 69.1219 70.3107H91.2576C91.5481 70.3112 91.8264 70.4279 92.0316 70.635C92.2368 70.8421 92.352 71.1227 92.352 71.4153V71.4153C92.352 71.7077 92.2367 71.9881 92.0315 72.1949C91.8263 72.4016 91.5479 72.5178 91.2576 72.5178Z" fill="#B8C0C7"/>
<path opacity="0.3" d="M133.523 72.5178H97.324C97.1801 72.5181 97.0376 72.4898 96.9046 72.4345C96.7716 72.3792 96.6507 72.298 96.5488 72.1956C96.447 72.0932 96.3662 71.9716 96.3111 71.8377C96.2559 71.7038 96.2275 71.5603 96.2275 71.4153C96.2275 71.1223 96.3431 70.8414 96.5487 70.6342C96.7544 70.4271 97.0332 70.3107 97.324 70.3107H133.523C133.667 70.3107 133.81 70.3392 133.943 70.3948C134.076 70.4503 134.197 70.5316 134.298 70.6342C134.4 70.7368 134.481 70.8586 134.536 70.9926C134.591 71.1266 134.62 71.2702 134.62 71.4153V71.4153C134.619 71.7079 134.503 71.9883 134.298 72.195C134.092 72.4017 133.813 72.5178 133.523 72.5178Z" fill="#B8C0C7"/>
</g>
<g opacity="0.3">
<path opacity="0.3" d="M112.356 81.505H69.1219C68.8311 81.505 68.5522 81.3886 68.3466 81.1815C68.1409 80.9743 68.0254 80.6934 68.0254 80.4004V80.4004C68.0254 80.1074 68.1409 79.8265 68.3466 79.6193C68.5522 79.4122 68.8311 79.2958 69.1219 79.2958H112.356C112.646 79.2958 112.925 79.4122 113.131 79.6193C113.337 79.8265 113.452 80.1074 113.452 80.4004V80.4004C113.452 80.6934 113.337 80.9743 113.131 81.1815C112.925 81.3886 112.646 81.505 112.356 81.505Z" fill="#B8C0C7"/>
<path opacity="0.3" d="M128.793 81.505H117.381C117.09 81.505 116.811 81.3886 116.605 81.1815C116.4 80.9743 116.284 80.6934 116.284 80.4004V80.4004C116.284 80.1074 116.4 79.8265 116.605 79.6193C116.811 79.4122 117.09 79.2958 117.381 79.2958H128.793C129.083 79.2963 129.362 79.413 129.567 79.6201C129.772 79.8272 129.887 80.1078 129.887 80.4004C129.887 80.693 129.772 80.9736 129.567 81.1807C129.362 81.3878 129.083 81.5045 128.793 81.505Z" fill="#B8C0C7"/>
<path opacity="0.3" d="M85.4349 88.3529H69.1219C68.8311 88.3529 68.5522 88.2365 68.3466 88.0293C68.1409 87.8222 68.0254 87.5412 68.0254 87.2483C68.0259 86.9557 68.1417 86.6752 68.3473 86.4685C68.5529 86.2618 68.8314 86.1458 69.1219 86.1458H85.4349C85.7253 86.1458 86.0039 86.2618 86.2095 86.4685C86.415 86.6752 86.5308 86.9557 86.5314 87.2483V87.2483C86.5314 87.5412 86.4158 87.8222 86.2102 88.0293C86.0046 88.2365 85.7257 88.3529 85.4349 88.3529V88.3529Z" fill="#B8C0C7"/>
<path opacity="0.3" d="M111.857 88.3529H89.5047C89.2139 88.3529 88.935 88.2365 88.7294 88.0294C88.5238 87.8222 88.4082 87.5412 88.4082 87.2483V87.2483C88.4088 86.9557 88.5245 86.6752 88.7301 86.4685C88.9357 86.2618 89.2142 86.1458 89.5047 86.1458H111.857C112.001 86.1455 112.143 86.1738 112.276 86.2291C112.409 86.2844 112.53 86.3655 112.632 86.4679C112.734 86.5703 112.815 86.692 112.87 86.8259C112.925 86.9598 112.953 87.1033 112.953 87.2483C112.954 87.3934 112.925 87.5372 112.87 87.6713C112.815 87.8055 112.735 87.9273 112.633 88.03C112.531 88.1326 112.41 88.214 112.277 88.2694C112.144 88.3248 112.001 88.3532 111.857 88.3529V88.3529Z" fill="#B8C0C7"/>
</g>
<path d="M32.8666 49.9937H37.4879L49.9736 78.7731H44.7033L41.8255 71.8724H28.4071L25.4873 78.7731H20.3809L32.8666 49.9937ZM40.0085 67.4306L35.1037 56.0035L30.2388 67.4306H40.0085Z" fill="#E9E9E9"/>
<path d="M159.745 28.5742C159.745 28.5742 160.396 36.3912 158.63 36.2727C156.863 36.1542 153.378 32.7134 146.327 33.272C139.275 33.8307 130.667 35.3882 125.458 26.0983C120.248 16.8085 132.118 14.1379 132.118 14.1379L159.745 28.5742Z" fill="#151F2C"/>
<path d="M144.772 27.9986L180.263 30.9379L181 29.3487L146.975 4.04605L112.604 0L111.944 1.42416L144.772 27.9986Z" fill="#384152"/>
<path d="M168.926 54.9264C168.851 54.6628 168.701 54.4276 168.493 54.2503C168.286 54.0731 168.031 53.9618 167.76 53.9305C167.49 53.8993 167.216 53.9495 166.974 54.0748C166.732 54.2001 166.533 54.3948 166.401 54.6344C166.269 54.874 166.21 55.1477 166.232 55.4209C166.254 55.6941 166.357 55.9545 166.526 56.1692C166.695 56.3839 166.923 56.5433 167.182 56.6272C167.441 56.711 167.719 56.7157 167.981 56.6404C168.332 56.539 168.628 56.3016 168.805 55.9803C168.983 55.6589 169.026 55.2799 168.926 54.9264V54.9264Z" fill="#D92C2A"/>
<path d="M167.741 55.3094C169.165 55.1994 169.499 68.2474 169.499 68.2474C169.499 68.2474 168.571 68.6876 168.115 68.5839C167.659 68.4802 167.424 66.7175 167.424 66.7175L167.38 68.5649C167.38 68.5649 165.819 68.6199 165.279 68.2369C165.279 68.2369 165.489 55.4872 167.741 55.3094V55.3094Z" fill="#D92C2A"/>
<path d="M168.206 55.6035L167.95 27.0949L167.765 26.9574L149.227 13.1411L148.562 14.0511L166.914 27.7276L167.33 55.5548L168.206 55.6035Z" fill="#D92C2A"/>
</svg>
