<svg width="136" height="20" viewBox="0 0 136 20" fill="none" xmlns="http://www.w3.org/2000/svg">
<path d="M23.3482 -1.90735e-06L23.3447 19.9783L123.847 19.9959L123.851 0.0175374L23.3482 -1.90735e-06Z" fill="#D92C2A"/>
<path d="M23.36 19.988L8.58896 13.6697L0 9.99589L8.79422 6.23582L23.3719 0.00970459C23.3719 0.00970459 25.3146 4.8734 25.3443 9.44855C25.383 16.6266 23.36 19.988 23.36 19.988Z" fill="#E9E9E9"/>
<path d="M135.548 6.64935V12.9647C135.548 13.8886 135.366 14.8035 135.013 15.657C134.659 16.5106 134.141 17.2861 133.487 17.9394C132.834 18.5927 132.058 19.1109 131.205 19.4645C130.351 19.818 129.436 20 128.512 20H123.862V0.0245972H128.92C130.677 0.024597 132.363 0.722456 133.606 1.96475C134.849 3.20705 135.547 4.89209 135.548 6.64935Z" fill="#E9E9E9"/>
<path d="M8.79124 6.23584C9.15717 8.25569 9.47552 11.3494 8.58896 13.6727L0 9.99592L8.79124 6.23584Z" fill="#151F2C"/>
</svg>
