<svg width="206" height="120" viewBox="0 0 206 120" fill="none" xmlns="http://www.w3.org/2000/svg">
<path d="M33.5843 38.6108H85.3637V65.8318H33.5843C30.7414 65.8318 28.015 64.7004 26.0048 62.6865C23.9946 60.6726 22.8652 57.9412 22.8652 55.0931V49.3435C22.8652 46.4954 23.9946 43.7639 26.0048 41.75C28.015 39.7361 30.7414 38.6047 33.5843 38.6047V38.6108Z" fill="#D92C2A"/>
<path d="M71.8262 38.6108H181.033C181.505 38.6108 181.958 38.7986 182.291 39.1329C182.625 39.4672 182.812 39.9207 182.812 40.3935V41.3243C182.812 41.7971 182.625 42.2506 182.291 42.5849C181.958 42.9192 181.505 43.107 181.033 43.107H71.8262V38.5864V38.6108Z" fill="#D92C2A"/>
<path d="M71.8262 61.3112H181.033C181.505 61.3112 181.958 61.499 182.291 61.8333C182.625 62.1676 182.812 62.621 182.812 63.0938V64.0491C182.812 64.5219 182.625 64.9753 182.291 65.3096C181.958 65.6439 181.505 65.8318 181.033 65.8318H71.8262V61.3112Z" fill="#D92C2A"/>
<path d="M179.503 61.3172H84.21C83.0179 61.3172 81.8376 61.0819 80.7364 60.6247C79.6352 60.1675 78.6347 59.4974 77.7921 58.6527C76.9495 57.808 76.2813 56.8052 75.8256 55.7017C75.37 54.5981 75.1359 53.4155 75.1367 52.2212V52.2212C75.1367 49.8105 76.0927 47.4984 77.7942 45.7937C79.4958 44.089 81.8036 43.1313 84.21 43.1313H179.503C178.241 45.9959 177.589 49.0929 177.589 52.2243C177.589 55.3557 178.241 58.4526 179.503 61.3172V61.3172Z" fill="#F5F5F5"/>
<path opacity="0.3" d="M75.1358 65.8379H33.79C30.8908 65.8379 28.1103 64.6841 26.0602 62.6302C24.0101 60.5764 22.8584 57.7908 22.8584 54.8862V49.4773C22.8584 46.5954 24.0012 43.8314 26.0353 41.7936C28.0694 39.7557 30.8283 38.6108 33.705 38.6108H76.1622C66.3298 44.5856 67.0646 58.8836 75.1358 65.8379Z" fill="black"/>
<path d="M167.927 53.067C167.927 53.1582 148.366 53.2313 124.244 53.2313C100.121 53.2313 80.5596 53.1582 80.5596 53.067C80.5596 52.9757 100.115 52.9027 124.244 52.9027C148.372 52.9027 167.927 52.9757 167.927 53.067Z" fill="#263238"/>
<path d="M176.917 57.107C176.917 57.1983 157.355 57.2713 133.233 57.2713C109.11 57.2713 89.5488 57.1983 89.5488 57.107C89.5488 57.0158 109.104 56.9489 133.233 56.9489C157.361 56.9489 176.917 57.0219 176.917 57.107Z" fill="#263238"/>
<path d="M174.269 47.3357C174.269 47.4269 154.707 47.4999 130.585 47.4999C106.462 47.4999 86.8945 47.4269 86.8945 47.3357C86.8945 47.2444 106.45 47.1714 130.585 47.1714C154.719 47.1714 174.269 47.2566 174.269 47.3357Z" fill="#263238"/>
<path d="M70.3505 63.9273C70.3505 64.0186 61.1922 64.0916 49.9023 64.0916C38.6124 64.0916 29.4541 64.0186 29.4541 63.9273C29.4541 63.8361 38.6063 63.7631 49.9023 63.7631C61.1983 63.7631 70.3505 63.8361 70.3505 63.9273Z" fill="#263238"/>
<path d="M70.3505 40.8741C70.3505 40.9654 61.1922 41.0384 49.9023 41.0384C38.6124 41.0384 29.4541 40.9654 29.4541 40.8741C29.4541 40.7829 38.6063 40.7098 49.9023 40.7098C61.1983 40.7098 70.3505 40.7829 70.3505 40.8741Z" fill="#263238"/>
<path d="M10.7191 84.9425H80.4931V120H10.7191C7.87618 120 5.14976 118.869 3.13954 116.855C1.12933 114.841 0 112.109 0 109.261V95.6751C0 92.827 1.12933 90.0956 3.13954 88.0817C5.14976 86.0678 7.87618 84.9364 10.7191 84.9364V84.9425Z" fill="#D92C2A"/>
<path d="M63.0576 84.9425H204.221C204.693 84.9425 205.146 85.1303 205.479 85.4646C205.813 85.799 206.001 86.2524 206.001 86.7252V88.9824C206.001 89.4552 205.813 89.9087 205.479 90.243C205.146 90.5773 204.693 90.7651 204.221 90.7651H63.0576V84.9425Z" fill="#D92C2A"/>
<path d="M63.0576 114.177H204.221C204.693 114.177 205.146 114.365 205.479 114.7C205.813 115.034 206.001 115.487 206.001 115.96V118.217C206.001 118.69 205.813 119.144 205.479 119.478C205.146 119.812 204.693 120 204.221 120H63.0576V114.177Z" fill="#D92C2A"/>
<path d="M201.73 114.183H79.0167C75.9172 114.182 72.9452 112.947 70.754 110.751C68.5629 108.555 67.332 105.576 67.332 102.471V102.471C67.332 100.934 67.6343 99.4118 68.2215 97.9915C68.8087 96.5713 69.6694 95.2808 70.7544 94.1938C71.8394 93.1068 73.1275 92.2445 74.5452 91.6562C75.9628 91.0679 77.4823 90.7651 79.0167 90.7651H201.73C200.102 94.4534 199.262 98.4416 199.262 102.474C199.262 106.507 200.102 110.495 201.73 114.183Z" fill="#F5F5F5"/>
<path opacity="0.3" d="M67.3203 120H10.5792C9.19015 120 7.81474 119.726 6.53154 119.193C5.24833 118.66 4.08246 117.88 3.10056 116.895C2.11866 115.911 1.33996 114.743 0.808963 113.457C0.277962 112.171 0.00506329 110.793 0.00586112 109.401V95.9307C0.00586112 93.0261 1.15758 90.2405 3.20766 88.1867C5.25773 86.1328 8.03823 84.979 10.9375 84.979H68.6321C55.9818 92.633 56.9292 111.05 67.3203 120Z" fill="black"/>
<path d="M186.82 103.56C186.82 103.652 161.629 103.725 130.565 103.725C99.5011 103.725 74.3037 103.652 74.3037 103.56C74.3037 103.469 99.4889 103.396 130.565 103.396C161.641 103.396 186.82 103.469 186.82 103.56Z" fill="#263238"/>
<path d="M198.403 108.762C198.403 108.854 173.211 108.927 142.141 108.927C111.071 108.927 85.8799 108.854 85.8799 108.762C85.8799 108.671 111.065 108.604 142.141 108.604C173.217 108.604 198.403 108.708 198.403 108.762Z" fill="#263238"/>
<path d="M195.014 98.7294C195.014 98.8206 169.829 98.8936 138.758 98.8936C107.688 98.8936 82.4971 98.8206 82.4971 98.7294C82.4971 98.6381 107.682 98.5651 138.758 98.5651C169.835 98.5651 195.014 98.6381 195.014 98.7294Z" fill="#263238"/>
<path d="M61.1554 117.542C61.1554 117.633 49.3674 117.706 34.8223 117.706C20.2772 117.706 8.48926 117.633 8.48926 117.542C8.48926 117.451 20.2772 117.384 34.8223 117.384C49.3674 117.384 61.1554 117.457 61.1554 117.542Z" fill="#263238"/>
<path d="M61.1554 87.8568C61.1554 87.942 49.3674 88.015 34.8223 88.015C20.2772 88.015 8.48926 87.942 8.48926 87.8568C8.48926 87.7716 20.2772 87.6925 34.8223 87.6925C49.3674 87.6925 61.1554 87.7655 61.1554 87.8568Z" fill="#263238"/>
<path d="M43.9019 64.9983H101.39V85.0764H43.9019C41.808 85.0764 39.7998 84.243 38.3192 82.7597C36.8386 81.2764 36.0068 79.2646 36.0068 77.1668V72.9078C36.0068 70.8101 36.8386 68.7983 38.3192 67.3149C39.7998 65.8316 41.808 64.9983 43.9019 64.9983V64.9983Z" fill="#455A64"/>
<path d="M87.2275 64.9983H201.499C201.994 64.9983 202.468 65.1951 202.818 65.5454C203.167 65.8957 203.364 66.3708 203.364 66.8662V67.864C203.364 68.3594 203.167 68.8345 202.818 69.1848C202.468 69.5351 201.994 69.7318 201.499 69.7318H87.2275V65.0044V64.9983Z" fill="#455A64"/>
<path d="M87.2275 80.3428H201.499C201.994 80.3428 202.468 80.5396 202.818 80.8899C203.167 81.2401 203.364 81.7153 203.364 82.2106V83.2085C203.364 83.7038 203.167 84.1789 202.818 84.5292C202.468 84.8795 201.994 85.0763 201.499 85.0763H87.2275V80.3489V80.3428Z" fill="#455A64"/>
<path d="M199.873 80.3429H96.0225C94.6175 80.3429 93.2698 79.7841 92.2757 78.7893C91.2816 77.7945 90.7223 76.4451 90.7207 75.0374V75.0374C90.7207 73.6287 91.2793 72.2777 92.2736 71.2816C93.2679 70.2855 94.6164 69.7258 96.0225 69.7258H199.873C197.217 73.2669 197.217 76.8059 199.873 80.3429Z" fill="#F5F5F5"/>
<path opacity="0.3" d="M90.6893 85.0703H43.9263C42.8818 85.0703 41.8475 84.8641 40.8826 84.4634C39.9177 84.0628 39.0411 83.4756 38.3028 82.7354C37.5646 81.9952 36.9791 81.1165 36.58 80.1496C36.1808 79.1826 35.9758 78.1463 35.9766 77.0999V73.1329C35.9758 72.065 36.185 71.0073 36.5924 70.0204C36.9998 69.0335 37.5974 68.1367 38.3509 67.3813C39.1044 66.6258 39.9991 66.0265 40.9839 65.6176C41.9687 65.2087 43.0242 64.9983 44.0903 64.9983H91.7703C81.4764 69.4033 82.2477 79.9473 90.6893 85.0703Z" fill="black"/>
<path d="M187.781 74.1976C187.781 74.2889 167.314 74.3619 142.074 74.3619C116.835 74.3619 96.3682 74.2889 96.3682 74.1976C96.3682 74.1064 116.828 74.0394 142.074 74.0394C167.32 74.0394 187.781 74.1124 187.781 74.1976Z" fill="#263238"/>
<path d="M197.188 77.0694C197.188 77.1607 176.722 77.2337 151.482 77.2337C126.242 77.2337 105.775 77.1607 105.775 77.0694C105.775 76.9782 126.236 76.9052 151.482 76.9052C176.728 76.9052 197.188 76.966 197.188 77.0694Z" fill="#263238"/>
<path d="M85.6975 83.0745C85.6975 83.1658 76.1201 83.2388 64.3019 83.2388C52.4836 83.2388 42.9062 83.1658 42.9062 83.0745C42.9062 82.9833 52.4836 82.9103 64.3019 82.9103C76.1201 82.9103 85.6975 82.9833 85.6975 83.0745Z" fill="#263238"/>
<path d="M85.6975 67.3651C85.6975 67.4563 76.1201 67.5233 64.3019 67.5233C52.4836 67.5233 42.9062 67.4563 42.9062 67.3651C42.9062 67.2738 52.4836 67.2008 64.3019 67.2008C76.1201 67.2008 85.6975 67.2738 85.6975 67.3651Z" fill="#263238"/>
<path d="M201.998 64.9983C201.998 65.0895 166.853 65.1625 123.515 65.1625C80.1772 65.1625 45.0078 65.0895 45.0078 64.9983C45.0078 64.907 80.1408 64.834 123.497 64.834C166.853 64.834 201.998 64.9009 201.998 64.9983Z" fill="#263238"/>
<path d="M138.978 47.0375V57.9405L142.749 55.5129L146.952 57.9405V47.0375H138.978Z" fill="#D92C2A"/>
<path d="M196.678 1.78877V51.625C196.69 51.7206 196.736 51.8087 196.808 51.8725C196.88 51.9363 196.973 51.9715 197.069 51.9715C197.166 51.9715 197.259 51.9363 197.331 51.8725C197.403 51.8087 197.449 51.7206 197.461 51.625V1.78877C197.449 1.6931 197.403 1.60509 197.331 1.54128C197.259 1.47747 197.166 1.44226 197.069 1.44226C196.973 1.44226 196.88 1.47747 196.808 1.54128C196.736 1.60509 196.69 1.6931 196.678 1.78877V1.78877Z" fill="#D92C2A"/>
<path d="M199.872 40.643C199.872 41.1989 199.708 41.7424 199.399 42.2046C199.091 42.6669 198.653 43.0272 198.14 43.2399C197.628 43.4527 197.063 43.5083 196.519 43.3999C195.975 43.2914 195.475 43.0237 195.083 42.6306C194.69 42.2375 194.423 41.7366 194.315 41.1913C194.206 40.6461 194.262 40.0809 194.474 39.5673C194.687 39.0536 195.046 38.6146 195.508 38.3057C195.969 37.9969 196.512 37.832 197.067 37.832C197.811 37.832 198.524 38.1282 199.05 38.6553C199.577 39.1825 199.872 39.8975 199.872 40.643V40.643Z" fill="#D92C2A"/>
<path d="M196.29 42.097C196.29 42.097 194.243 44.1474 193.63 50.1526C193.016 56.1577 192.883 59.1573 192.883 59.1573L198.397 59.498V55.2025C198.397 55.4033 199.49 58.4089 199.49 58.4089L203.851 56.973C203.851 56.973 202.302 41.0079 196.29 42.097Z" fill="#D92C2A"/>
<path d="M167.606 5.86523H73.958V39.6877H167.606V5.86523Z" fill="#263238"/>
<path d="M200.498 0.0426025H40.3193V5.86525H200.498V0.0426025Z" fill="#263238"/>
<path opacity="0.3" d="M73.958 30.0928C73.958 30.0928 102.404 19.8713 120.782 16.099C139.159 12.3268 167.606 13.5801 167.606 13.5801V5.88354H73.958V30.0928Z" fill="black"/>
<path opacity="0.3" d="M98.2569 0.0426025H40.3193V5.86525H98.2569V0.0426025Z" fill="black"/>
<path d="M199.337 5.88354C199.337 5.9748 163.719 6.04781 119.78 6.04781C75.8405 6.04781 40.2217 5.9748 40.2217 5.88354C40.2217 5.79227 75.8284 5.72534 119.78 5.72534C163.731 5.72534 199.337 5.78011 199.337 5.88354Z" fill="#455A64"/>
<path d="M98.1662 5.91391C97.9472 3.94869 97.9472 1.96522 98.1662 0C98.3771 1.96566 98.3771 3.94825 98.1662 5.91391Z" fill="#455A64"/>
<path d="M111.521 39.6937C111.436 39.6937 111.363 33.0923 111.363 24.9515C111.363 16.8108 111.436 10.2155 111.521 10.2155C111.607 10.2155 111.686 16.8108 111.686 24.9515C111.686 33.0923 111.613 39.6937 111.521 39.6937Z" fill="#455A64"/>
</svg>
