<svg width="350" height="470" viewBox="0 0 350 470" fill="none" xmlns="http://www.w3.org/2000/svg">
<path d="M175 470C271.65 470 350 364.787 350 235C350 105.213 271.65 0 175 0C78.3502 0 0 105.213 0 235C0 364.787 78.3502 470 175 470Z" fill="#EDEDED"/>
<path d="M114.138 450.578C114.011 451.1 113.801 452.434 113.515 454.494C132.652 464.504 153.365 470 175 470C202.413 470 228.352 461.205 251.449 445.538C248.571 431.652 244.379 420.476 238.526 412.919C192.967 408.598 126.507 367.07 114.138 450.578Z" fill="#36393D"/>
<g style="mix-blend-mode:screen" opacity="0.2">
<path d="M199.967 405.352L183.859 402.193C183.859 402.193 179.31 400.557 172.62 399.464V469.952C173.413 469.967 174.204 469.992 175 469.992C184.302 469.99 193.577 468.971 202.658 466.955C202.671 453.216 203.548 433.237 199.967 405.352Z" fill="#2E2B2D"/>
</g>
<path d="M127.72 403.79L124.512 417.569C124.512 417.569 119.342 422.956 157.355 425.232C195.368 427.508 236.11 425.437 242.823 422.65C245.864 421.384 242.823 408.98 242.823 408.98C215.169 414.007 148.884 411.099 127.72 403.79Z" fill="#1D1D1B"/>
<path d="M188.042 410.291L166.53 409.623C162.783 409.16 164.886 421.751 164.151 423.478C163.12 427.592 186.007 425.303 187.548 426.215C187.808 426.218 188.067 426.171 188.309 426.074C188.551 425.978 188.772 425.835 188.959 425.654C189.146 425.472 189.295 425.256 189.398 425.017C189.501 424.778 189.556 424.52 189.56 424.26C188.891 422.46 191.84 410.086 188.042 410.291Z" fill="#1D1D1B"/>
<path d="M187.609 426.544H187.538L187.381 426.501C186.962 426.247 183.881 426.298 180.904 426.341C172.567 426.463 165.555 426.409 164.08 424.551C163.95 424.393 163.858 424.206 163.814 424.006C163.77 423.806 163.775 423.598 163.827 423.399C164.047 422.875 163.994 421.177 163.938 419.377C163.824 415.696 163.685 411.111 165.205 409.719C165.385 409.552 165.6 409.428 165.834 409.355C166.068 409.283 166.316 409.263 166.558 409.299L188.027 409.965C188.271 409.946 188.515 409.982 188.744 410.07C188.972 410.157 189.178 410.294 189.347 410.471C190.766 411.947 190.343 416.433 190.003 420.038C189.828 421.886 189.664 423.63 189.854 424.136L189.877 424.197V424.263C189.869 424.574 189.8 424.881 189.673 425.166C189.546 425.451 189.364 425.707 189.137 425.921C188.725 426.315 188.179 426.538 187.609 426.544ZM184.281 425.647C186.091 425.647 187.178 425.703 187.624 425.901C188.024 425.894 188.408 425.738 188.698 425.463C189.015 425.164 189.205 424.755 189.228 424.321C189.028 423.67 189.144 422.296 189.362 419.997C189.671 416.706 190.097 412.205 188.886 410.944C188.781 410.833 188.652 410.747 188.509 410.693C188.366 410.638 188.212 410.617 188.06 410.63H188.042L166.518 409.962C166.365 409.936 166.208 409.945 166.059 409.989C165.91 410.033 165.773 410.11 165.659 410.215C164.354 411.403 164.496 416.007 164.6 419.369C164.673 421.693 164.701 423.037 164.453 423.617C164.434 423.712 164.437 423.809 164.462 423.902C164.486 423.995 164.532 424.081 164.595 424.154C165.988 425.908 174.959 425.782 180.893 425.693C182.221 425.663 183.349 425.647 184.281 425.647Z" fill="#C3B398"/>
<path d="M206.012 175.055C203.068 170.456 162.967 173.402 160.739 175.055C155.798 185.706 158.335 203.447 157.699 214.041L208.909 209.284C208.28 198.113 211.341 187.599 206.012 175.055Z" fill="#BCBEC0"/>
<path d="M207.463 138.831L162.945 136.421C161.222 139.274 170.314 179.002 150.579 191.746C137.552 200.158 142.668 339.785 129.704 398.922C170.109 410.701 221.631 407.213 238.789 391.365C234.788 345.418 250.347 257.659 253.722 208.011C192.573 190.551 204.473 186.136 207.463 138.831Z" fill="#E6966E"/>
<path d="M252.709 200.852C241.2 197.951 210.322 189.731 210.322 189.731C201.927 191.457 183.68 216.719 181.908 221.4C178.961 218.978 159.763 190.369 152.303 191.364C152.303 191.364 123.775 211.418 115.456 216.368C108.563 298.572 125.506 294.233 127.716 403.79C127.716 403.79 129.026 415.106 167.442 416.496C202.348 417.762 242.824 408.985 242.824 408.985C238.508 331.019 270.825 263.68 252.709 200.852Z" fill="#E5E6E7"/>
<path d="M191.256 198.095C189.533 199.753 181.908 221.4 181.908 221.4C185.811 217.298 189.309 212.83 192.353 208.057L209.103 215.292L206.014 175.055C206.014 175.055 192.979 196.439 191.256 198.095Z" fill="#D1D3D4"/>
<path d="M206.014 175.055L191.256 198.092L209.103 215.289C214.402 203.059 221.107 189.027 206.014 175.055Z" fill="#F1F2F2"/>
<path d="M160.741 175.055L156.299 215.292L169.207 206.76C173.994 214.633 181.908 221.4 181.908 221.4C181.908 221.4 174.268 198.133 172.62 196.477C170.973 194.822 160.741 175.055 160.741 175.055Z" fill="#D1D3D4"/>
<path d="M156.299 215.292L172.621 196.477L160.741 175.055C147.511 190.088 149.574 201.029 156.299 215.292Z" fill="#F1F2F2"/>
<path d="M182.983 416.673C186.383 389.656 185.724 246.528 186.023 216.367L181.921 223.615L182.983 416.673Z" fill="#D1D3D4"/>
<path d="M175.116 239.845C170.274 239.774 170.274 247.374 175.116 247.303C179.959 247.376 179.959 239.774 175.116 239.845Z" fill="#F1F2F2"/>
<path d="M175.116 263.426C170.274 263.353 170.274 270.955 175.116 270.884C179.959 270.965 179.959 263.363 175.116 263.426Z" fill="#F1F2F2"/>
<path d="M175.116 285.704C170.274 285.63 170.274 293.233 175.116 293.162C179.959 293.24 179.959 285.638 175.116 285.704Z" fill="#F1F2F2"/>
<path d="M261.799 379.682C258.421 368.62 254.38 278.127 257.925 267.165C261.47 256.204 264.962 204.006 254.618 200.292C233.294 192.642 219 187.229 219 187.229L210.295 208.586L199.857 336.233C199.857 336.233 205.293 427.944 207.543 465.765C230.742 459.689 252.325 447.216 271.317 429.723C267.759 407.886 263.441 385.057 261.799 379.682Z" fill="#8C6048"/>
<path d="M223.883 189.315C223.63 187.412 219.406 187.343 210.005 180.303C210.157 222.446 193.787 316.277 199.856 338.137L225.956 229.894L217.513 216.418L226.174 212.813C226.174 212.813 224.484 193.634 223.883 189.315Z" fill="#A67255"/>
<path d="M252.242 199.472C248.887 202.186 250.106 259.216 256.821 276.861C274.742 255.156 290.473 270.391 326.699 247.397C349.318 233.048 254.981 187.227 252.242 199.472Z" fill="#8C6048"/>
<g style="mix-blend-mode:multiply" opacity="0.2">
<path d="M320.275 227.691C320.638 230.235 319.639 232.476 316.865 234.238C280.628 257.229 264.917 241.999 246.989 263.7C246.178 280.874 252.792 318.313 258.326 345.091C256.932 321.548 256.094 292.321 256.821 276.859C274.741 255.158 290.473 270.388 326.697 247.397C333.696 242.954 329.489 235.501 320.275 227.691Z" fill="#8C6048"/>
</g>
<path d="M72.2432 235.04C59.7454 271.175 36.9645 336.785 34.4862 353.377C31.975 370.149 73.5508 356.162 77.7775 347.355C82.0043 338.547 104.131 295.992 104.131 295.992C99.4283 267.31 101.091 232.197 94.9937 212.158C94.9988 212.158 79.2371 214.821 72.2432 235.04Z" fill="#8C6048"/>
<g style="mix-blend-mode:multiply" opacity="0.2">
<path d="M97.2387 260.292C97.2387 260.292 77.7393 329.11 67.9884 329.55C51.3119 330.31 43.7276 338.899 34.8078 351.473C34.6786 352.159 34.5544 352.805 34.4784 353.377C31.9672 370.149 73.543 356.162 77.7697 347.355C81.9965 338.547 104.124 295.992 104.124 295.992C101.06 277.309 100.667 250.386 99.1012 235.04C97.0131 243.508 95.8931 252.05 97.2387 260.292Z" fill="#8C6048"/>
</g>
<g style="mix-blend-mode:multiply" opacity="0.2">
<path d="M114.138 450.578C114.011 451.084 113.801 452.436 113.515 454.494C131.843 464.086 151.629 469.509 172.284 469.937L207.679 420.301C179.678 416.919 121.132 403.383 114.138 450.578Z" fill="#36393D"/>
</g>
<path d="M151.586 237.678L135.322 202.186C135.322 202.186 105.905 210.793 94.9984 212.158C84.092 213.522 94.2965 255.551 95.6269 266.993C98.4954 291.706 100.102 380.313 100.125 391.292C100.125 396.947 95.8676 419.476 91.9982 440.844C111.822 455.763 133.944 465.504 157.434 468.77C161.595 430.349 169.005 363.901 169.005 363.901L151.586 237.678Z" fill="#8C6048"/>
<path d="M153.752 187.103C144.377 193.432 135.272 201.242 135.322 202.186C135.558 206.54 136.247 225.982 136.247 225.982L144.947 229.504L136.653 243.07C136.653 243.07 168.812 365.417 169.005 363.918C169.648 358.931 157.855 238.141 150.76 211.193C147.876 200.254 153.752 187.103 153.752 187.103Z" fill="#A67255"/>
<path d="M155.551 352.385C154.548 352.233 153.522 352.383 152.604 352.814C151.685 353.245 150.915 353.938 150.391 354.806C149.867 355.674 149.613 356.678 149.66 357.691C149.707 358.704 150.053 359.68 150.655 360.496C151.257 361.312 152.088 361.931 153.043 362.275C153.997 362.62 155.032 362.673 156.017 362.43C157.002 362.187 157.893 361.657 158.577 360.908C159.261 360.159 159.707 359.225 159.859 358.222C160.063 356.878 159.723 355.507 158.915 354.412C158.107 353.318 156.897 352.588 155.551 352.385Z" fill="#A67255"/>
<path d="M151.449 379.48C150.445 379.328 149.419 379.477 148.499 379.908C147.58 380.339 146.81 381.033 146.285 381.901C145.76 382.77 145.505 383.774 145.552 384.788C145.599 385.801 145.946 386.778 146.548 387.594C147.151 388.411 147.982 389.031 148.938 389.375C149.893 389.72 150.929 389.773 151.914 389.53C152.9 389.286 153.791 388.756 154.475 388.006C155.159 387.256 155.605 386.321 155.757 385.318C155.961 383.973 155.621 382.602 154.813 381.507C154.005 380.413 152.795 379.683 151.449 379.48Z" fill="#A67255"/>
<path d="M147.366 406.428C146.362 406.276 145.336 406.425 144.416 406.856C143.497 407.287 142.727 407.981 142.202 408.85C141.677 409.718 141.422 410.723 141.469 411.736C141.516 412.749 141.863 413.726 142.465 414.543C143.068 415.359 143.899 415.979 144.854 416.323C145.81 416.668 146.845 416.721 147.831 416.478C148.817 416.234 149.708 415.704 150.392 414.954C151.076 414.204 151.522 413.269 151.674 412.266C151.775 411.6 151.744 410.921 151.582 410.267C151.42 409.613 151.131 408.997 150.731 408.455C150.331 407.913 149.828 407.455 149.251 407.107C148.673 406.759 148.033 406.529 147.366 406.428Z" fill="#A67255"/>
<path d="M235.012 384.259L182.953 338.041C182.602 337.734 182.193 337.499 181.751 337.35C181.309 337.201 180.841 337.141 180.376 337.173C179.91 337.205 179.455 337.328 179.038 337.535C178.62 337.743 178.247 338.031 177.941 338.383L104.707 420.774C104.394 421.12 104.151 421.524 103.994 421.963C103.837 422.402 103.768 422.868 103.792 423.334C103.815 423.8 103.931 424.257 104.131 424.678C104.332 425.1 104.614 425.477 104.961 425.789L152.504 467.995C156.282 468.671 160.106 469.162 163.95 469.496L235.273 389.272C235.899 388.57 236.223 387.651 236.174 386.712C236.126 385.773 235.708 384.892 235.012 384.259Z" fill="#F5C424"/>
<path d="M159.749 390.434L147.743 382.011C147.743 382.011 154.8 383.401 157.279 383.414C159.757 383.426 168.778 388.565 168.778 388.565C168.778 388.565 171.796 389.216 172.26 387.386C172.724 385.555 166.084 380.662 166.084 380.662C166.084 380.662 161.293 377.487 157.433 376.212C153.574 374.936 144.705 371.817 141.583 371.933C138.461 372.05 123.229 377.323 123.229 377.323L106.677 390.54C106.677 390.54 117.624 400.967 132.597 404.75C139.571 406.522 143.339 406.522 153.123 410.909C158.277 413.223 161.777 414.098 163.198 411.937C163.91 410.858 162.438 409.625 162.438 409.625C162.438 409.625 167.336 411.995 168.669 409.77C169.5 408.38 168.841 407.296 168.841 407.296C168.841 407.296 172.136 408.337 173.104 406.823C174.072 405.309 171.289 402.395 171.289 402.395L159.749 390.434Z" fill="#E6966E"/>
<g style="mix-blend-mode:multiply" opacity="0.3">
<path d="M143.9 388.543C144.731 387.153 146.376 386.755 146.401 383.809C146.427 380.862 143.867 380.875 143.614 378.956C143.361 377.037 147.833 374.614 143.551 372.121C143.074 372.038 142.592 371.984 142.109 371.958C141.284 371.991 140.463 372.088 139.653 372.247C134.585 373.394 123.514 377.217 123.263 377.31H123.238L106.686 390.527C110.379 393.578 114.28 396.369 118.36 398.881C122.379 401.16 127.229 403.383 132.606 404.742C135.781 405.544 139.01 406.142 142.441 407.056C143.145 406.714 143.708 406.296 143.86 405.79C144.263 404.481 142.765 402.215 143.414 400.365C144.062 398.514 146.863 398.418 147.385 396.198C148.168 392.889 142.567 390.763 143.9 388.543Z" fill="#E6966E"/>
</g>
<g style="mix-blend-mode:multiply" opacity="0.3">
<g style="mix-blend-mode:multiply" opacity="0.3">
<path d="M150.689 392.307L158.983 400.008L169.003 406.188L157.825 396.973L150.689 392.307Z" fill="#E6966E"/>
</g>
</g>
<g style="mix-blend-mode:multiply" opacity="0.3">
<g style="mix-blend-mode:multiply" opacity="0.3">
<path d="M146.787 398.608L153.829 404.94L162.589 409.747L153.008 402.274L146.787 398.608Z" fill="#E6966E"/>
</g>
</g>
<path d="M100.124 391.297L113.929 399.246L128.039 375.708L118.483 372.429L100.124 391.297Z" fill="#E5E6E7"/>
<path d="M35.0774 351.734C31.659 358.749 39.6944 370.974 49.6962 376.86C62.8554 384.614 97.2422 396.266 103.334 399.183C103.334 398.203 120.363 386.361 128.781 374.746C128.781 374.746 92.5441 352.066 76.9801 342.881C54.4956 329.636 43.1863 335.107 35.0774 351.734Z" fill="#8C6048"/>
<g style="mix-blend-mode:multiply" opacity="0.2">
<path d="M38.5132 345.679C37.2507 347.63 36.1001 349.652 35.0669 351.734C31.7144 358.777 39.6839 370.974 49.6857 376.86C62.8449 384.614 97.2316 396.266 103.323 399.183C103.323 398.709 107.315 395.687 112.372 391.391C96.2814 383.29 68.7416 373.123 58.5624 367.128C51.8903 363.199 42.9781 353.843 38.5132 345.679Z" fill="#8C6048"/>
</g>
<path d="M35.4863 350.932C35.3469 351.205 35.2025 351.456 35.0657 351.734C31.6473 358.749 39.6827 370.974 49.6845 376.86C51.2049 377.756 53.0269 378.705 55.0338 379.685C58.2064 376.568 53.2879 370.293 51.2328 366.86C46.631 359.151 40.8585 353.142 35.4863 350.932Z" fill="#664634"/>
<path d="M222.545 116.683C218.174 113.43 213.357 118.744 213.357 118.744L211.208 136.844C211.208 136.844 212.09 138.578 214.773 138.675C217.457 138.771 222.312 129.65 222.312 129.65C222.312 129.65 226.526 119.653 222.545 116.683Z" fill="#E6966E"/>
<path d="M140.819 116.27C136.658 118.939 140.234 129.224 140.234 129.224C140.234 129.224 144.496 138.69 147.184 138.794C149.873 138.897 150.859 137.209 150.859 137.209L149.868 119.004C149.868 119.004 145.383 113.352 140.819 116.27Z" fill="#F7A379"/>
<path d="M143.702 90.7042C143.702 90.7042 143.702 90.6384 143.727 90.5474C143.715 90.3956 143.705 90.4335 143.702 90.7042Z" fill="#F7A379"/>
<path d="M182.772 62.7637C149.361 61.6372 144.1 88.3703 143.728 90.5474C143.951 92.9827 145.557 146.543 150.516 153.041C154.799 158.651 165.779 172.635 171.936 175.111C178.094 177.587 184.214 177.283 189.763 174.82C195.313 172.357 208.262 157.605 212.899 151.428C217.536 145.251 219.703 92.7574 219.703 92.7574C219.703 92.7574 213.335 63.7839 182.772 62.7637Z" fill="#F7A379"/>
<path d="M207.423 145.808C200.125 148.026 204.129 141.505 180.815 141.133C159.677 140.796 160.999 145.983 156.339 144.758C151.679 143.533 145.56 118.782 145.56 118.782C145.56 118.782 146.735 151.246 151.107 160.501C158.268 175.665 165.079 181.417 171.546 185.442C174.696 187.402 187.949 187.351 191.197 185.556C199.096 181.189 205.52 175.283 212.516 159.823C217.356 149.122 218.993 113.896 218.993 113.896C218.993 113.896 213.079 144.09 207.423 145.808ZM196.927 153.185C195.201 156.818 190.544 163.868 180.585 163.311C170.717 162.752 166.103 156.362 164.367 153.054C164.224 152.786 164.139 152.492 164.116 152.189C164.093 151.887 164.134 151.583 164.235 151.298C164.336 151.012 164.496 150.75 164.704 150.529C164.913 150.309 165.164 150.134 165.444 150.016C167.702 149.094 172.261 147.92 180.803 147.937C188.405 147.953 193.235 149.256 195.723 150.188C196.008 150.294 196.268 150.459 196.486 150.671C196.703 150.884 196.874 151.139 196.988 151.421C197.101 151.703 197.154 152.006 197.143 152.31C197.133 152.613 197.059 152.912 196.927 153.185Z" fill="#BD8242"/>
<g style="mix-blend-mode:multiply" opacity="0.3">
<path d="M212.458 152.998C208.472 161.808 204.663 167.458 200.67 171.544C200.723 169.944 200.366 168.281 200.482 166.663C199.499 169.833 198.023 172.829 196.109 175.541C194.523 176.711 192.863 177.777 191.139 178.731C190.551 179.055 189.561 179.301 188.436 179.511C188.888 177.45 188.774 175.305 188.106 173.303C187.785 175.267 186.915 177.1 185.597 178.592C185.16 178.371 184.8 178.022 184.566 177.592L183.243 179.174C182.743 178.52 182.476 177.719 182.483 176.896C182.169 177.944 181.941 179.015 181.682 180.08C179.616 180.105 177.55 179.988 175.499 179.731C173.833 178.671 172.308 177.403 170.961 175.959C167.16 171.909 164.687 165.684 164.687 165.684C164.687 165.684 166.359 172.557 169.712 177.465C167.835 176.207 166.06 174.804 164.403 173.268C163.643 172.091 162.913 170.893 162.203 169.696L159.869 165.744C159.312 164.805 158.737 163.76 158.924 162.686L158.445 164.377C157.553 162.73 156.661 161.082 155.767 159.433C155.411 160.162 155.277 160.979 155.382 161.782C153.796 159.159 152.347 156.455 151.041 153.682C148.071 147.398 146.578 130.437 145.925 120.179C145.702 119.323 145.567 118.787 145.567 118.787C145.567 118.787 146.743 151.251 151.114 160.507C158.276 175.67 165.087 181.422 171.554 185.447C174.704 187.407 187.957 187.356 191.205 185.561C199.104 181.192 205.528 175.288 212.524 159.828C217.364 149.127 219.001 113.901 219.001 113.901C219.001 113.901 218.725 115.293 218.256 117.43C217.389 128.693 215.6 146.026 212.458 152.998Z" fill="#BD8242"/>
</g>
<path d="M218.177 67.4141C218.821 63.8877 217.744 59.7891 214.683 57.9208C214.354 58.3505 213.921 58.6884 213.424 58.9021C212.927 59.1159 212.383 59.1981 211.845 59.141C212.874 56.3563 211.422 53.154 209.149 51.2502C206.876 49.3465 202.52 48.4655 199.671 47.6453C200.084 49.6908 196.922 53.2527 194.981 54.0197C194.518 53.4077 194.187 52.7071 194.008 51.9616C193.326 52.4712 192.566 52.867 191.758 53.1337C191.773 51.9059 190.764 48.2478 190.764 48.2478C190.764 48.2478 188.805 53.3818 176.713 55.0248C176.305 53.8227 176.255 52.5279 176.571 51.2983C175.066 51.3211 173.632 52.4502 173.16 53.9818C172.394 53.2389 171.441 52.7172 170.402 52.4721C169.363 52.2269 168.276 52.2675 167.259 52.5894C168.977 52.9767 170.34 53.0831 170.37 54.964C170.37 54.964 167.999 54.8906 166.726 54.9463C159.502 55.2602 158.516 58.212 152.029 60.7967L153.648 61.1992L148.555 63.1485C148.882 63.0508 149.228 63.03 149.564 63.0875C149.901 63.145 150.22 63.2794 150.496 63.4801C148.18 64.6327 145.755 65.5503 143.256 66.2192L147.529 66.9432C145.977 68.3429 144.262 69.55 142.42 70.538C142.918 70.471 143.423 70.5851 143.844 70.8595C143.789 71.7854 143.47 72.6761 142.924 73.4265C143.075 73.1639 143.299 72.951 143.569 72.8138C143.839 72.6766 144.144 72.6212 144.445 72.6544C143.684 74.9328 141.85 76.7428 139.681 77.3757C140.383 77.4744 141.098 77.4287 141.781 77.2416L137.755 85.1577C137.993 85.1512 138.228 85.0977 138.445 85.0004C138.662 84.9031 138.858 84.7638 139.022 84.5906C138.789 86.6614 140.17 94.6864 139.891 98.2407C140.015 98.1268 140.144 97.9875 140.269 97.8534C140.884 108.276 143.185 117.655 145.572 124.088C145.841 124.814 146.86 124.703 146.86 124.703C144.812 114.468 146.7 101.096 148.127 95.9344C150.316 88.0588 151.885 77.2517 171.131 83.9552C201.693 94.5877 209.141 82.6565 209.141 82.6565C216.809 91.5523 218.489 112.053 216.469 126.022C216.469 126.022 217.316 126.528 217.498 125.827C218.162 123.379 220.595 107.493 222.252 94.3573C223.438 84.9552 222.135 76.1505 217.498 69.8014C217.79 69.0257 218.017 68.2272 218.177 67.4141Z" fill="#BD8242"/>
<g style="mix-blend-mode:multiply" opacity="0.3">
<g style="mix-blend-mode:multiply" opacity="0.3">
<path d="M191.757 53.1337C191.772 51.9059 190.763 48.2479 190.763 48.2479C190.763 48.2479 190.657 48.4656 190.469 48.7542C190.495 49.7921 189.783 50.825 188.995 51.592C187.414 53.1358 185.579 54.3956 183.569 55.3159C187.32 55.7159 191.123 54.521 194.167 52.3059C194.129 52.1844 194.032 52.0857 194.002 51.9616C193.322 52.4708 192.564 52.8666 191.757 53.1337Z" fill="#BD8242"/>
</g>
<g style="mix-blend-mode:multiply" opacity="0.3">
<path d="M216.443 62.7662C215.809 64.032 214.78 65.0446 213.696 65.9382C210.488 68.5978 206.699 70.4658 202.635 71.3912C206.182 71.8215 209.801 71.3127 213.323 70.6317C214.742 70.3583 216.159 70.0166 217.558 69.6191C217.821 68.8996 218.028 68.1607 218.176 67.4091C218.572 65.1734 218.23 62.8698 217.203 60.8448C216.989 61.5004 216.736 62.1421 216.443 62.7662Z" fill="#BD8242"/>
</g>
<g style="mix-blend-mode:multiply" opacity="0.3">
<path d="M211.844 59.1309C212.314 57.7633 212.28 56.2733 211.748 54.9286C211.518 55.202 211.279 55.4729 211.044 55.726C209.984 56.8576 208.918 58.0044 207.648 58.8904C205.735 60.2296 203.457 60.9334 201.191 61.5055C204.894 61.6853 208.594 61.1179 212.073 59.8372C213.125 59.4827 214.061 58.8461 214.776 57.9968C214.738 57.974 214.718 57.9335 214.683 57.9107C214.354 58.3404 213.92 58.6783 213.423 58.892C212.926 59.1057 212.383 59.188 211.844 59.1309Z" fill="#BD8242"/>
</g>
</g>
<g style="mix-blend-mode:multiply" opacity="0.3">
<path d="M171.878 79.9605C152.619 73.257 151.066 84.0641 148.876 91.9372C148.387 93.8178 147.999 95.7234 147.716 97.6458C147.855 97.0332 147.995 96.4155 148.126 95.937C150.316 88.0614 151.884 77.2543 171.13 83.9578C201.693 94.5903 209.141 82.6591 209.141 82.6591C216.809 91.5549 218.489 112.055 216.469 126.024L217.229 122.027C219.256 108.058 217.569 87.5577 209.901 78.6618C209.901 78.6618 202.441 90.6031 171.878 79.9605Z" fill="#BD8242"/>
</g>
<g style="mix-blend-mode:multiply" opacity="0.5">
<path d="M185.874 136.596C184.797 137.958 176.597 138.419 174.826 136.849C173.055 135.28 173.812 129.528 173.812 129.528C173.812 129.528 171.861 137.295 173.105 138.773C174.349 140.252 186.769 141.262 187.775 138.748C188.781 136.234 187.146 129.536 187.146 129.536C187.146 129.536 186.951 135.239 185.874 136.596Z" fill="#E6966E"/>
</g>
<path d="M160.333 114.516C155.07 115.321 152.44 118.908 152.44 118.908C152.44 118.908 152.035 119.592 161.606 120.399C169.413 120.217 171.531 119.696 171.519 119.108C171.481 117.61 166.988 113.506 160.333 114.516Z" fill="#F2F0F0"/>
<path d="M161.614 113.015C160.89 113.097 160.206 113.391 159.648 113.859C159.09 114.327 158.683 114.949 158.476 115.647C158.27 116.345 158.274 117.088 158.487 117.784C158.701 118.48 159.115 119.098 159.678 119.56C160.241 120.022 160.927 120.309 161.652 120.384C162.377 120.459 163.108 120.319 163.753 119.981C164.399 119.644 164.931 119.124 165.283 118.487C165.635 117.849 165.791 117.122 165.732 116.397C165.685 115.904 165.541 115.425 165.309 114.988C165.076 114.551 164.76 114.165 164.377 113.85C163.994 113.536 163.553 113.3 163.079 113.157C162.605 113.013 162.107 112.965 161.614 113.015Z" fill="#487CB8"/>
<path d="M161.704 114.093C161.19 114.151 160.705 114.359 160.309 114.691C159.913 115.023 159.624 115.464 159.477 115.959C159.33 116.455 159.333 116.982 159.485 117.476C159.637 117.97 159.931 118.408 160.33 118.735C160.73 119.063 161.217 119.266 161.732 119.318C162.246 119.371 162.764 119.271 163.222 119.031C163.68 118.791 164.056 118.422 164.305 117.969C164.554 117.516 164.664 117 164.621 116.486C164.546 115.784 164.199 115.14 163.653 114.692C163.107 114.245 162.407 114.03 161.704 114.093Z" fill="#18100E"/>
<path d="M164.506 114.319C164.362 114.329 164.222 114.367 164.093 114.432C163.964 114.496 163.85 114.585 163.756 114.694C163.661 114.803 163.59 114.929 163.544 115.066C163.499 115.202 163.482 115.346 163.492 115.49C163.523 115.779 163.666 116.045 163.891 116.23C164.116 116.415 164.405 116.504 164.696 116.479C164.843 116.474 164.987 116.439 165.121 116.377C165.254 116.314 165.373 116.226 165.471 116.116C165.569 116.006 165.644 115.877 165.69 115.738C165.737 115.598 165.755 115.451 165.742 115.304C165.73 115.158 165.688 115.015 165.619 114.885C165.55 114.756 165.455 114.641 165.341 114.549C165.226 114.457 165.094 114.389 164.952 114.349C164.81 114.31 164.662 114.299 164.516 114.319H164.506Z" fill="#EFECEC"/>
<path d="M161.129 111.334C152.787 111.564 152.439 118.908 152.439 118.908C152.439 118.908 155.911 114.516 160.635 114.225C168.341 113.744 171.531 119.108 171.531 119.108C171.531 119.108 172.197 111.028 161.129 111.334Z" fill="#E6966E"/>
<path d="M161.053 113.516C152.83 114.134 152.438 118.908 152.438 118.908C152.438 118.908 154.822 115.686 160.967 114.736C167.697 113.686 171.516 119.108 171.516 119.108C171.516 119.108 170.632 112.8 161.053 113.516Z" fill="#412118"/>
<path d="M201.673 114.997C196.389 114.329 190.667 117.417 190.475 119.554C190.455 120.123 191.96 121.022 200.454 121.073C209.323 120.625 209.556 119.394 209.556 119.394C207.61 116.949 204.777 115.369 201.673 114.997Z" fill="#F2F0F0"/>
<path d="M200.398 113.491C199.67 113.449 198.945 113.623 198.315 113.99C197.685 114.358 197.177 114.903 196.855 115.557C196.534 116.211 196.412 116.946 196.507 117.669C196.601 118.392 196.906 119.071 197.385 119.621C197.863 120.172 198.493 120.569 199.197 120.763C199.9 120.957 200.645 120.94 201.339 120.713C202.032 120.487 202.643 120.061 203.096 119.489C203.548 118.917 203.822 118.225 203.882 117.498C203.945 116.507 203.614 115.531 202.962 114.781C202.31 114.031 201.389 113.568 200.398 113.491Z" fill="#487CB8"/>
<path d="M200.307 114.572C199.792 114.542 199.279 114.664 198.833 114.924C198.387 115.183 198.028 115.568 197.8 116.031C197.572 116.493 197.485 117.012 197.551 117.524C197.616 118.035 197.831 118.516 198.169 118.906C198.506 119.295 198.951 119.577 199.448 119.716C199.945 119.855 200.472 119.844 200.963 119.685C201.454 119.526 201.887 119.227 202.209 118.823C202.53 118.42 202.725 117.931 202.77 117.417C202.817 116.715 202.584 116.022 202.123 115.489C201.662 114.956 201.01 114.627 200.307 114.572Z" fill="#18100E"/>
<path d="M203.144 115.134C202.858 115.108 202.574 115.197 202.354 115.381C202.134 115.565 201.996 115.829 201.97 116.114C201.945 116.399 202.034 116.683 202.218 116.903C202.402 117.123 202.666 117.261 202.952 117.286C203.243 117.315 203.534 117.227 203.761 117.043C203.988 116.859 204.133 116.593 204.165 116.302C204.176 116.159 204.157 116.014 204.111 115.878C204.066 115.741 203.993 115.615 203.898 115.506C203.803 115.397 203.688 115.308 203.559 115.245C203.429 115.181 203.288 115.143 203.144 115.134Z" fill="#EFECEC"/>
<path d="M200.819 111.914C190.394 111.25 190.475 119.556 190.475 119.556C190.475 119.556 193.66 114.207 201.371 114.713C206.089 115.017 209.551 119.404 209.551 119.404C209.551 119.404 209.86 112.481 200.819 111.914Z" fill="#E6966E"/>
<path d="M200.641 114.139C191.073 113.886 190.475 119.556 190.475 119.556C191.743 118.021 193.37 116.821 195.213 116.063C197.055 115.304 199.056 115.01 201.039 115.207C207.23 115.774 209.556 119.404 209.556 119.404C209.556 119.404 209.049 114.367 200.641 114.139Z" fill="#412118"/>
<path d="M154.125 101.61C150.324 102.089 148.043 107.319 148.043 107.319C148.043 107.319 151.456 105.597 153.486 105.58C158.716 105.534 166.916 107.213 174.012 107.643C175.626 107.744 176.292 103.749 175.497 102.755C174.701 101.76 157.921 101.129 154.125 101.61Z" fill="#8B5E3C"/>
<path d="M206.901 101.031C203.1 100.633 186.826 102.094 186.063 103.094C185.301 104.094 186.175 107.921 187.786 107.785C194.167 107.256 202.585 105.742 207.772 105.57C210.595 105.476 213.834 106.382 213.834 106.382C213.834 106.382 210.704 101.425 206.901 101.031Z" fill="#8B5E3C"/>
<g style="mix-blend-mode:multiply" opacity="0.5">
<path d="M167.765 151.416C167.75 151.416 167.765 151.416 167.748 151.398C167.423 151.279 167.403 151.249 167.765 151.416Z" fill="#E6966E"/>
</g>
<g style="mix-blend-mode:multiply" opacity="0.5">
<path d="M167.748 151.398C169.648 152.157 182.288 156.866 193.699 151.16C194.869 150.575 166.747 150.702 167.748 151.398Z" fill="#E6966E"/>
</g>
<g style="mix-blend-mode:multiply" opacity="0.5">
<path d="M174.391 157.155L174.346 157.124L174.391 157.155Z" fill="#E6966E"/>
</g>
<g style="mix-blend-mode:multiply" opacity="0.5">
<path d="M174.346 157.119C174.03 156.866 174.05 156.914 174.346 157.119V157.119Z" fill="#E6966E"/>
</g>
<g style="mix-blend-mode:multiply" opacity="0.5">
<path d="M174.392 157.15C175.735 158.074 181.784 161.623 187.194 157.066C187.878 156.499 173.771 156.595 174.392 157.15Z" fill="#E6966E"/>
</g>
<g style="mix-blend-mode:screen" opacity="0.3">
<path d="M200.688 113.438C193.256 113.514 187.24 116.774 187.303 123.075C187.367 129.376 193.603 136.239 201.175 135.303C208.698 134.379 212.362 129.199 212.884 123.404C213.454 117.116 208.12 113.362 200.688 113.438Z" fill="#E6E7E8"/>
</g>
<g style="mix-blend-mode:screen" opacity="0.3">
<path d="M187.303 123.075C187.351 127.776 190.836 132.776 195.744 134.632C193.24 132.247 191.672 128.969 191.639 125.824C191.576 119.523 197.594 116.263 205.026 116.187C207.007 116.153 208.979 116.462 210.855 117.101C208.718 114.721 205.085 113.392 200.678 113.438C193.256 113.514 187.24 116.774 187.303 123.075Z" fill="#E6E7E8"/>
</g>
<g style="mix-blend-mode:screen" opacity="0.3">
<path d="M161.825 113.64C154.393 113.716 149.135 117.579 149.829 123.852C150.47 129.634 154.238 134.738 161.777 135.51C169.364 136.27 175.461 129.305 175.4 123.002C175.339 116.698 169.255 113.559 161.825 113.64Z" fill="#E6E7E8"/>
</g>
<g style="mix-blend-mode:screen" opacity="0.3">
<path d="M161.825 113.64C154.393 113.716 149.135 117.579 149.829 123.852C150.336 128.49 152.91 132.652 157.778 134.53C155.883 132.452 154.803 129.784 154.484 126.936C153.79 120.663 159.045 116.81 166.48 116.724C168.861 116.674 171.231 117.046 173.482 117.822C171.125 115.015 166.802 113.589 161.825 113.64Z" fill="#E6E7E8"/>
</g>
<path d="M188.2 115.6C187.816 115.808 187.394 115.937 186.959 115.981C186.524 116.024 186.084 115.981 185.666 115.853C182.676 114.941 179.838 114.858 177.195 115.822C176.752 115.995 176.279 116.073 175.804 116.051C175.33 116.029 174.865 115.908 174.44 115.696C166.734 111.612 159.505 111.744 152.648 115.121C150.661 116.579 148.183 117.597 144.706 117.718L144.833 120.756C147.113 121.161 148.282 122.576 148.33 125.427C148.902 125.746 149.597 125.786 150.443 125.407C150.19 118.802 153.644 114.87 161.846 114.357C169.537 114.007 174.048 116.807 175.125 123.007C175.816 123.751 176.916 123.989 177.529 123.111C178.368 121.916 177.813 120.728 176.919 120.45C176.744 118.903 177.615 118.042 179.004 117.683C180.55 117.284 182.172 117.284 183.717 117.683C185.116 118.017 185.998 118.855 185.861 120.402C184.974 120.703 184.44 121.901 185.304 123.078C185.94 123.943 187.029 123.685 187.709 122.923C188.659 116.706 193.109 113.81 200.807 114.002C209.017 114.349 212.555 118.21 212.433 124.819C213.297 125.181 213.981 125.126 214.546 124.797C214.546 121.944 215.677 120.493 217.947 120.053L218.016 117.015C214.534 116.967 212.04 116.002 210.021 114.582C203.042 111.321 195.858 111.298 188.2 115.6Z" fill="#3F2216"/>
<path d="M163.364 135.209C158.281 135.462 152.012 132.437 150.271 125.149L149.559 125.285C150.367 128.672 152.207 131.472 154.88 133.386C157.207 135.036 159.996 135.909 162.85 135.88C163.035 135.88 163.222 135.88 163.41 135.865C166.466 135.716 169.368 134.481 171.592 132.381C174.037 130.052 175.563 126.716 176.006 122.733L175.282 122.67C174.296 131.518 168.247 134.956 163.364 135.209Z" fill="#3F2216"/>
<path d="M199.733 135.011C194.85 134.857 188.733 131.543 187.569 122.713L186.845 122.792C187.367 126.764 188.961 130.067 191.454 132.346C193.719 134.401 196.646 135.577 199.705 135.659C199.89 135.659 200.08 135.659 200.262 135.659C203.116 135.63 205.888 134.699 208.179 132.999C210.812 131.039 212.596 128.189 213.336 124.799L212.618 124.675C211.03 132.004 204.826 135.168 199.733 135.011Z" fill="#3F2216"/>
<path d="M147.222 118.412L145.913 118.425C145.845 118.425 145.781 118.451 145.733 118.499C145.686 118.546 145.659 118.611 145.659 118.678C145.659 118.745 145.686 118.809 145.733 118.857C145.781 118.904 145.845 118.931 145.913 118.931H147.225C147.294 118.931 147.36 118.903 147.408 118.855C147.457 118.806 147.484 118.74 147.484 118.671C147.484 118.603 147.457 118.537 147.408 118.488C147.36 118.439 147.294 118.412 147.225 118.412H147.222Z" fill="#B3B3B3"/>
<path d="M216.887 117.632L215.575 117.648C215.507 117.648 215.443 117.674 215.395 117.722C215.348 117.769 215.321 117.833 215.321 117.901C215.321 117.968 215.348 118.032 215.395 118.079C215.443 118.127 215.507 118.153 215.575 118.153H216.887C216.956 118.153 217.022 118.126 217.071 118.077C217.12 118.028 217.148 117.962 217.148 117.893C217.148 117.824 217.12 117.758 217.071 117.709C217.022 117.66 216.956 117.632 216.887 117.632Z" fill="#B3B3B3"/>
<path d="M243.171 125.118C242.628 123.359 230.326 106.554 228.788 106.286C227.249 106.018 212.902 108.18 211.619 108.691C210.337 109.202 205.442 115.911 205.976 116.822C207.269 118.923 210.261 118.04 210.261 118.04C210.261 118.04 206.301 123.103 206.1 124.609C205.9 126.116 206.825 135.282 206.825 135.282C207.768 135.535 208.685 135.249 209.562 134.176C209.562 134.176 210.689 139.778 211.336 140.062C212.727 139.409 214.919 137.735 215.828 135.758C216.738 133.781 215.41 130.442 215.41 130.442C217.296 128.999 219.211 127.842 220.091 126.51C220.091 126.51 222.625 128.536 223.048 129.801C223.471 131.067 220.97 143.725 220.767 148.158C220.565 152.59 224.637 157.003 226.428 157.616C234.375 160.332 236.073 167.995 236.073 167.995L253.089 167.17L245.003 152.413C245.003 152.413 243.71 126.878 243.171 125.118Z" fill="#E6966E"/>
<g style="mix-blend-mode:multiply" opacity="0.5">
<path d="M209.013 127.68C209.013 127.68 218.723 119.022 219.909 118.744C221.095 118.465 226.992 121.574 229.285 122.288C229.285 122.288 222.316 117.101 219.569 117.351C216.823 117.602 209.013 127.68 209.013 127.68Z" fill="#E6966E"/>
</g>
<g style="mix-blend-mode:multiply" opacity="0.5">
<path d="M222.911 109.949C220.176 109.58 210.299 117.65 210.299 117.65C210.299 117.65 221.702 111.385 222.928 111.382C224.155 111.379 229.195 115.726 231.268 116.951C231.268 116.939 225.635 110.321 222.911 109.949Z" fill="#E6966E"/>
</g>
<path d="M229.29 161.104L237.006 168.802L252.545 146.74L245.868 141.231L229.29 161.104Z" fill="#F1F2F2"/>
<path d="M317.874 192.936C302.698 175.549 270.548 157.793 252.544 146.74C252.544 146.74 234.489 169.572 233.395 169.681C237.246 178.189 275.637 213.983 288.451 228.681C298.19 239.845 320.438 251.037 327.207 246.265C343.257 234.954 339.765 218.021 317.874 192.936Z" fill="#8C6048"/>
<path d="M322.739 198.791C311.716 208.517 314.093 223.324 329.191 244.706C341.714 234.362 339.312 219.631 322.739 198.791Z" fill="#664634"/>
<g style="mix-blend-mode:multiply" opacity="0.2">
<path d="M297.832 220.853C287.471 208.975 252.407 175.126 241.967 159.932C238.658 163.96 233.838 169.638 233.395 169.681C237.246 178.189 275.637 213.983 288.454 228.681C298.19 239.845 320.438 251.037 327.207 246.265C330.192 244.162 332.501 241.858 334.135 239.354C325.534 240.969 306.615 230.919 297.832 220.853Z" fill="#8C6048"/>
</g>
</svg>
