<svg width="350" height="470" viewBox="0 0 350 470" fill="none" xmlns="http://www.w3.org/2000/svg">
<mask id="mask0_1210_1702" style="mask-type:alpha" maskUnits="userSpaceOnUse" x="0" y="0" width="350" height="470">
<path d="M175 470C271.65 470 350 364.787 350 235C350 105.213 271.65 0 175 0C78.3502 0 0 105.213 0 235C0 364.787 78.3502 470 175 470Z" fill="#EDEDED"/>
</mask>
<g mask="url(#mask0_1210_1702)">
<path d="M175 470C271.65 470 350 364.787 350 235C350 105.213 271.65 0 175 0C78.3502 0 0 105.213 0 235C0 364.787 78.3502 470 175 470Z" fill="#EDEDED"/>
<path d="M231.006 499.93C229.506 493.77 222.346 467.79 219.396 462.93C198.736 428.93 152.956 445.69 152.956 445.69L91.7461 457.69C79.1361 482.36 65.9561 509.07 68.4461 533.63C70.9361 558.19 96.6761 896.36 97.4461 918.99C97.5161 920.99 97.2561 926.12 98.4461 927.73C102.816 933.87 141.866 933.42 143.636 924.33C154.806 867.08 153.936 578.67 153.936 578.67C159.326 578.67 223.336 894.79 228.306 922.55C228.588 924.344 229.379 926.019 230.584 927.376C231.789 928.734 233.359 929.718 235.106 930.21C248.106 934.08 279.256 935.39 278.306 924.78C277.986 921.27 233.956 512.09 231.006 499.93Z" fill="#36393D"/>
<g style="mix-blend-mode:screen" opacity="0.2">
<path d="M152.958 445.67L134.958 449.21C132.428 492.02 129.588 539.84 129.338 543.78C129.018 548.97 91.3374 545.65 69.1074 540.78C72.1574 580.16 96.7176 896.33 97.5276 918.96C97.5976 920.96 97.3376 926.09 98.5276 927.7C102.898 933.84 141.948 933.39 143.718 924.3C154.888 867.05 154.018 578.64 154.018 578.64L165.617 556.24V442.62C161.32 443.282 157.085 444.303 152.958 445.67Z" fill="#2E2B2D"/>
</g>
<path d="M86.9374 453.29C110.047 456.58 163.157 457.46 184.707 453.54C206.257 449.62 215.808 447.47 215.808 447.47L219.397 462.91C219.397 462.91 225.187 468.91 182.627 471.49C140.067 474.07 94.4574 471.72 86.9374 468.6C83.5274 467.18 86.9374 453.29 86.9374 453.29Z" fill="#1D1D1B"/>
<path d="M175.017 469.53C175.044 470.117 174.837 470.692 174.441 471.126C174.046 471.561 173.494 471.822 172.907 471.85L148.817 472.59C148.23 472.598 147.663 472.373 147.242 471.965C146.82 471.556 146.577 470.997 146.567 470.41L146.157 457.07C146.129 456.483 146.337 455.909 146.732 455.474C147.128 455.039 147.68 454.779 148.267 454.75L172.357 454C172.648 453.996 172.938 454.05 173.209 454.158C173.48 454.266 173.726 454.426 173.935 454.629C174.144 454.833 174.311 455.075 174.426 455.343C174.541 455.611 174.603 455.899 174.607 456.19L175.017 469.53Z" fill="#1D1D1B"/>
<path d="M148.746 473.93C147.872 473.929 147.031 473.592 146.396 472.99C146.053 472.666 145.777 472.278 145.585 471.847C145.393 471.416 145.288 470.952 145.277 470.48L144.856 457.15C144.846 456.677 144.929 456.206 145.101 455.765C145.272 455.324 145.529 454.922 145.856 454.58C146.165 454.25 146.536 453.985 146.948 453.799C147.36 453.614 147.805 453.512 148.256 453.5L172.346 452.75C172.798 452.733 173.248 452.806 173.671 452.966C174.093 453.126 174.479 453.368 174.807 453.68C175.496 454.336 175.899 455.238 175.926 456.19L176.346 469.53C176.364 470.485 176.005 471.408 175.346 472.1C175.038 472.43 174.667 472.695 174.255 472.881C173.843 473.066 173.398 473.168 172.946 473.18L148.856 473.93H148.746ZM172.466 455.3L148.386 456.04C148.161 456.053 147.949 456.154 147.797 456.32C147.706 456.414 147.636 456.525 147.591 456.647C147.546 456.77 147.528 456.9 147.537 457.03L147.946 470.37C147.955 470.632 148.067 470.879 148.256 471.06C148.423 471.212 148.64 471.298 148.866 471.3L172.946 470.55C173.058 470.546 173.167 470.521 173.268 470.474C173.37 470.428 173.461 470.362 173.537 470.28C173.628 470.185 173.699 470.072 173.744 469.948C173.789 469.824 173.807 469.692 173.797 469.56L173.386 456.23C173.383 456.099 173.354 455.969 173.301 455.849C173.248 455.729 173.172 455.621 173.077 455.53C172.995 455.453 172.899 455.394 172.794 455.354C172.69 455.315 172.578 455.296 172.466 455.3Z" fill="#C3B398"/>
<path d="M128.147 191.13C131.447 185.97 176.338 189.27 178.838 191.13C181.338 192.99 182.238 209.83 182.238 209.83V234.83L124.907 229.49L124.688 208.41C124.688 208.41 124.917 196.18 128.147 191.13Z" fill="#BCBEC0"/>
<path d="M74.7363 228.06C98.4363 219.35 113.736 214.76 120.806 211.6C126.686 209.07 130.256 200.16 129.726 193.6C128.846 182.43 126.526 150.53 126.526 150.53L176.366 147.83C176.366 147.83 174.496 187.48 178.186 200.16C180.086 206.67 185.616 208.41 190.186 209.83C205.756 214.64 209.396 222.44 224.966 237.42C237.886 249.86 221.516 345.93 213.966 384.67C210.596 401.98 213.556 442.01 213.556 442.01C168.316 455.21 110.636 451.3 91.4263 433.54C91.4263 433.54 92.1863 397.68 91.2363 381.36C89.0663 343.6 76.7963 266.51 74.7363 228.06Z" fill="#E6966E"/>
<path d="M123.327 207.57C127.077 211.44 137.217 213.93 143.927 225.4C151.347 238.1 155.137 243.06 155.137 243.06C155.137 243.06 158.717 241.57 165.537 229.54C172.097 217.95 181.827 212.48 188.287 209.4C188.287 209.4 225.547 216.91 234.857 222.4C244.167 227.89 228.767 321.21 228.767 321.21C228.767 321.21 217.607 387.48 215.767 447.42C215.767 447.42 214.307 460.1 171.297 461.65C132.217 463.07 86.8969 453.24 86.8969 453.24C90.6769 426.78 73.7069 312.87 73.7069 312.87C73.7069 312.87 64.0671 222.96 75.8371 219.99C88.7571 216.78 123.327 207.57 123.327 207.57Z" fill="#E5E6E7"/>
<path d="M144.667 216.93C146.597 218.78 155.137 243.04 155.137 243.04C150.777 238.45 146.869 233.45 143.467 228.11L124.707 236.22L128.167 191.13C128.167 191.13 142.737 215.09 144.667 216.93Z" fill="#D1D3D4"/>
<path d="M144.666 216.93L124.666 236.2C124.666 236.2 115.786 215.98 117.216 207.35C117.716 204.35 128.126 191.11 128.126 191.11L144.666 216.93Z" fill="#F1F2F2"/>
<path d="M165.537 215.13C163.687 216.99 155.137 243.06 155.137 243.06C155.137 243.06 163.997 235.48 169.357 226.66L183.807 236.22L178.807 191.13C178.807 191.13 167.377 213.27 165.537 215.13Z" fill="#D1D3D4"/>
<path d="M165.537 215.13L183.807 236.22C183.807 236.22 191.577 218.46 190.217 209.83C189.737 206.83 178.837 191.13 178.837 191.13L165.537 215.13Z" fill="#F1F2F2"/>
<path d="M155.137 245.55L153.937 461.9L151.247 415.24L150.547 237.42L155.137 245.55Z" fill="#D1D3D4"/>
<path d="M125.376 534.6C124.926 541.84 51.5562 532.5 49.3062 525.6C47.0562 518.7 62.1061 432.23 65.6961 420.46C69.4761 408.06 73.9962 306.65 70.0262 294.36C66.0562 282.07 62.1562 223.58 73.7362 219.42C97.6062 210.84 113.606 204.78 113.606 204.78L123.356 228.71L135.046 371.77C135.046 371.77 125.826 527.36 125.376 534.6Z" fill="#8C6048"/>
<g style="mix-blend-mode:multiply" opacity="0.5">
<g style="mix-blend-mode:multiply" opacity="0.5">
<path d="M213.467 343.27L213.777 343.21L213.467 343.27Z" fill="#F1F2F2"/>
</g>
</g>
<path d="M229.806 220.04C229.806 220.04 243.436 213.67 255.926 234.83C274.456 266.22 324.146 328.2 333.566 365.67C339.036 387.44 290.246 380.59 283.406 371.67C276.696 362.89 232.466 307.67 232.466 307.67C215.676 278.61 239.046 242.35 229.806 220.04Z" fill="#8C6048"/>
<g style="mix-blend-mode:multiply" opacity="0.2">
<path d="M295.047 360.07C288.347 351.29 240.517 288.07 240.517 288.07C234.727 278.07 231.517 266.67 229.377 255.07C226.377 272.32 222.937 291.07 232.467 307.55C232.467 307.55 276.697 362.78 283.407 371.55C290.117 380.32 335.407 386.78 333.807 367.77C320.257 370.49 299.357 365.7 295.047 360.07Z" fill="#8C6048"/>
</g>
<path d="M217.378 437.08C217.378 437.08 227.578 527.67 228.028 534.91C228.478 542.15 276.118 527.91 278.358 521C280.598 514.09 250.188 432.52 246.598 420.74C242.818 408.35 232.538 306.64 236.498 294.35C240.458 282.06 244.378 223.57 232.798 219.41C208.928 210.83 192.918 204.77 192.918 204.77L183.178 228.7L203.958 368.93L217.378 437.08Z" fill="#8C6048"/>
<path d="M121.306 382.32C120.178 382.197 119.039 382.41 118.032 382.934C117.025 383.458 116.196 384.268 115.65 385.263C115.104 386.258 114.865 387.392 114.963 388.523C115.061 389.654 115.492 390.73 116.202 391.615C116.912 392.501 117.868 393.156 118.95 393.499C120.032 393.841 121.191 393.855 122.281 393.539C123.371 393.223 124.343 392.59 125.073 391.722C125.804 390.854 126.261 389.788 126.386 388.66C126.47 387.91 126.404 387.151 126.194 386.427C125.984 385.702 125.633 385.026 125.161 384.437C124.689 383.848 124.106 383.358 123.444 382.995C122.783 382.632 122.057 382.402 121.306 382.32Z" fill="#A67255"/>
<path d="M117.928 412.84C116.797 412.712 115.655 412.923 114.644 413.445C113.633 413.967 112.8 414.778 112.25 415.773C111.7 416.769 111.458 417.906 111.554 419.039C111.65 420.173 112.08 421.252 112.79 422.141C113.499 423.03 114.457 423.689 115.541 424.034C116.625 424.378 117.787 424.393 118.88 424.078C119.973 423.762 120.947 423.128 121.68 422.258C122.413 421.388 122.872 420.321 122.998 419.19C123.166 417.676 122.727 416.157 121.777 414.966C120.826 413.775 119.442 413.011 117.928 412.84Z" fill="#A67255"/>
<path d="M114.557 443.2C113.426 443.073 112.283 443.283 111.273 443.806C110.262 444.328 109.429 445.138 108.879 446.134C108.329 447.13 108.087 448.266 108.183 449.4C108.279 450.533 108.709 451.613 109.419 452.502C110.129 453.391 111.086 454.049 112.17 454.394C113.254 454.739 114.416 454.754 115.509 454.438C116.602 454.122 117.577 453.489 118.31 452.619C119.043 451.749 119.501 450.681 119.627 449.55C119.795 448.036 119.356 446.517 118.406 445.326C117.455 444.136 116.071 443.371 114.557 443.2Z" fill="#A67255"/>
<g style="mix-blend-mode:multiply" opacity="0.2">
<path d="M242.007 390.33C243.747 405.27 245.467 417.03 246.597 420.74C248.597 427.16 258.477 454.31 266.737 478.81C250.427 484.47 228.177 495.19 225.687 512.13C223.287 489.88 219.687 457.76 218.137 443.9C224.997 434.4 235.687 416.4 242.007 390.33Z" fill="#8C6048"/>
</g>
<path d="M198.387 207.11C198.097 204.97 193.387 204.9 182.857 197.01C184.918 204.317 185.029 212.037 183.177 219.4C175.557 249.69 200.397 349.66 200.397 349.66L203.957 368.92L200.697 252.58L191.247 237.48L200.947 233.48C200.947 233.48 199.067 211.93 198.387 207.11Z" fill="#A67255"/>
<path d="M207.077 442.34C210.197 441.17 228.427 439.57 228.427 439.57L253.037 444.43C249.963 453.514 244.36 461.531 236.887 467.54C231.217 471.94 227.547 473.49 220.827 481.36C217.287 485.51 214.437 487.71 211.667 486.36C210.287 485.7 210.917 484.02 210.917 484.02C210.917 484.02 207.657 488.11 204.917 486.7C203.217 485.81 203.157 484.59 203.157 484.59C203.157 484.59 200.617 486.86 198.707 485.92C196.797 484.98 197.627 481.28 197.627 481.28L201.227 466.02L207.527 453.7C207.527 453.7 201.527 457.81 199.137 458.83C196.747 459.85 191.237 468.07 191.237 468.07C191.237 468.07 188.707 469.88 187.087 468.46C185.467 467.04 188.777 460.02 188.777 460.02C190.304 457.301 192.18 454.793 194.357 452.56C197.297 449.86 203.947 443.49 207.057 442.31L207.077 442.34Z" fill="#E6966E"/>
<g style="mix-blend-mode:multiply" opacity="0.3">
<path d="M236.888 467.54C234.998 469.01 232.998 470.4 230.988 471.91C230.258 472.45 225.368 469.48 223.548 468.12C221.728 466.76 208.158 442.07 209.178 441.83C214.858 440.77 228.098 439.6 228.398 439.57L253.008 444.43C251.364 448.637 249.357 452.693 247.008 456.55C244.236 460.725 240.82 464.434 236.888 467.54Z" fill="#E6966E"/>
</g>
<g style="mix-blend-mode:multiply" opacity="0.3">
<g style="mix-blend-mode:multiply" opacity="0.3">
<path d="M202.338 483.7L207.318 471.02L211.278 463.99L208.138 474.17L202.338 483.7Z" fill="#E6966E"/>
</g>
</g>
<g style="mix-blend-mode:multiply" opacity="0.3">
<g style="mix-blend-mode:multiply" opacity="0.3">
<path d="M210.867 484.21L215.417 473.71L219.127 467.94L216.327 476.39L210.867 484.21Z" fill="#E6966E"/>
</g>
</g>
<path d="M232.247 433.05L225.637 439.67L244.017 460.94L253.037 453.49L232.247 433.05Z" fill="#E5E6E7"/>
<path d="M333.566 365.67C323.996 346.21 307.096 344.46 281.506 369.17C261.356 388.63 246.136 414.66 232.256 433.05C232.256 433.05 246.466 454.05 254.256 458.84C264.086 454 298.656 420.69 313.756 405.62C324.956 394.43 337.596 373.87 333.566 365.67Z" fill="#8C6048"/>
<path d="M333.566 365.67C331.566 357.8 327.766 348.82 322.906 339.3C321.473 339.848 320.203 340.752 319.218 341.928C318.232 343.105 317.564 344.513 317.276 346.02C316.536 350.24 318.276 354.48 320.106 358.35C321.936 362.22 323.976 366.21 323.896 370.5C323.786 375.99 320.276 380.73 317.266 385.32C314.256 389.91 311.516 395.46 313.136 400.71C313.566 401.997 314.246 403.186 315.136 404.21C325.936 392.79 337.466 373.54 333.566 365.67Z" fill="#664634"/>
<g style="mix-blend-mode:multiply" opacity="0.2">
<path d="M333.568 365.67C332.962 364.424 332.294 363.21 331.568 362.03C327.568 373.03 311.817 390.66 302.907 399.55C288.907 413.47 258.427 442.92 246.107 451.15C249.037 454.49 251.938 457.39 254.268 458.84C264.098 454 298.668 420.69 313.768 405.62C324.958 394.43 337.598 373.87 333.568 365.67Z" fill="#8C6048"/>
</g>
<path d="M188.807 117.44L190.197 137.82C190.74 138.389 191.422 138.807 192.177 139.031C192.931 139.256 193.73 139.28 194.497 139.1C197.497 138.65 200.927 127.59 200.927 127.59C200.927 127.59 203.487 115.71 198.497 113.27C193.007 110.59 188.807 117.44 188.807 117.44Z" fill="#E6966E"/>
<path d="M118.997 130.93L123.877 150.77C123.531 151.477 123.005 152.081 122.352 152.522C121.7 152.962 120.943 153.224 120.157 153.28C117.157 153.72 110.527 144.18 110.527 144.18C110.527 144.18 104.467 133.59 108.527 129.79C112.907 125.58 118.997 130.93 118.997 130.93Z" fill="#F7A379"/>
<path d="M190.408 87.51C190.408 87.51 198.898 145.76 195.088 153.51C191.278 161.26 180.088 180.19 174.478 184.06C171.671 186.039 168.486 187.416 165.121 188.104C161.757 188.792 158.286 188.777 154.928 188.06C147.638 186.61 132.658 173.48 126.788 168.19C119.558 161.68 105.478 95.8801 106.358 100.95C106.358 100.95 104.988 68 143.548 62.08C177.388 56.93 190.408 87.51 190.408 87.51Z" fill="#F7A379"/>
<path d="M114.236 131.52C114.236 131.52 122.236 167.03 128.986 176.32C139.986 191.54 148.696 196.46 156.646 199.55C160.516 201.06 175.086 198.26 178.286 195.61C186.076 189.16 191.916 181.33 196.406 162.85C199.516 150.06 194.016 110.93 194.016 110.93C194.016 110.93 193.756 145.41 187.896 148.48C180.326 152.43 183.366 144.42 157.656 148.84C134.326 152.84 136.856 158.28 131.476 157.9C126.096 157.52 114.236 131.52 114.236 131.52ZM142.016 165.36C141.804 165.095 141.649 164.789 141.561 164.461C141.473 164.133 141.454 163.79 141.506 163.454C141.558 163.118 141.679 162.797 141.861 162.511C142.044 162.224 142.284 161.979 142.566 161.79C144.866 160.31 149.636 158.07 159.036 156.32C167.396 154.76 172.986 155.2 175.916 155.71C176.258 155.762 176.584 155.885 176.875 156.071C177.165 156.258 177.413 156.503 177.602 156.792C177.79 157.081 177.916 157.407 177.97 157.748C178.024 158.088 178.006 158.437 177.916 158.77C176.766 163.13 173.106 171.86 162.026 173.3C158.286 173.882 154.458 173.452 150.94 172.056C147.421 170.66 144.34 168.348 142.016 165.36Z" fill="#BD8242"/>
<g style="mix-blend-mode:multiply" opacity="0.3">
<path d="M193.926 114.93C195.306 127.52 196.926 146.93 194.926 155.31C192.376 165.84 189.356 172.85 185.806 178.18C185.536 176.41 184.806 174.65 184.586 172.84C184.157 176.54 183.145 180.148 181.586 183.53C180.083 185.143 178.479 186.659 176.786 188.07C175.916 188.672 174.967 189.15 173.966 189.49C174.041 187.127 173.474 184.787 172.326 182.72C172.381 184.949 171.802 187.148 170.656 189.06C170.13 188.909 169.663 188.602 169.316 188.18C168.946 188.85 168.566 189.52 168.186 190.18C167.5 189.561 167.042 188.73 166.886 187.82C166.756 189.04 166.726 190.26 166.666 191.49C164.395 191.943 162.097 192.243 159.786 192.39C157.734 191.565 155.795 190.483 154.016 189.17C149.016 185.49 145.016 179.17 145.016 179.17C145.016 179.17 148.276 186.39 153.016 191.1C150.69 190.106 148.446 188.929 146.306 187.58C145.226 186.44 144.166 185.27 143.146 184.1L139.756 180.23C138.842 179.403 138.248 178.281 138.076 177.06C138.016 177.71 137.966 178.37 137.906 179.06L133.906 174.17C133.661 175.046 133.682 175.976 133.966 176.84C131.676 174.287 129.52 171.617 127.506 168.84C122.936 162.54 117.776 144.16 114.936 133C114.506 132.11 114.256 131.54 114.256 131.54C114.256 131.54 122.256 167.05 129.006 176.34C140.006 191.56 148.716 196.48 156.666 199.57C160.536 201.08 175.106 198.28 178.306 195.63C186.096 189.18 191.936 181.35 196.426 162.87C199.536 150.08 194.036 110.95 194.036 110.95C194.036 110.95 193.996 112.52 193.926 114.93Z" fill="#BD8242"/>
</g>
<path d="M183.227 62.68C183.386 61.772 183.467 60.8519 183.467 59.93C183.467 55.93 181.407 51.62 177.657 50.2C177.384 50.7403 176.977 51.2014 176.474 51.5394C175.972 51.8773 175.391 52.0806 174.787 52.13C175.337 48.86 173.077 45.62 170.187 44C167.297 42.38 162.317 42.31 159.007 42C159.887 44.17 157.147 48.75 155.167 50C154.534 49.4232 154.027 48.7219 153.677 47.94C153.025 48.638 152.27 49.2316 151.437 49.7C150.876 47.9201 150.174 46.1879 149.337 44.52C149.337 44.52 148.247 50.58 135.277 54.89C134.581 53.6515 134.258 52.238 134.347 50.82C133.504 51.0287 132.746 51.4919 132.175 52.1468C131.604 52.8016 131.249 53.6162 131.157 54.48C130.158 53.8224 129 53.4465 127.805 53.392C126.61 53.3374 125.422 53.6062 124.367 54.17C126.367 54.24 127.867 54.08 128.287 56.17C128.287 56.17 125.657 56.58 124.287 56.91C116.397 58.75 115.927 62.2 109.287 66.39L111.157 66.5L105.957 69.7C106.3 69.5322 106.676 69.445 107.057 69.445C107.439 69.445 107.815 69.5322 108.157 69.7C105.851 71.4494 103.375 72.9635 100.767 74.22L105.617 74.13C104.202 75.987 102.566 77.6659 100.747 79.13C101.28 78.9493 101.86 78.9706 102.377 79.19C102.506 80.2153 102.339 81.256 101.897 82.19C101.995 81.8424 102.199 81.5341 102.48 81.3081C102.762 81.0822 103.107 80.95 103.467 80.93C103.295 82.2256 102.818 83.4618 102.075 84.5377C101.333 85.6136 100.347 86.4985 99.1973 87.12C99.9925 87.0791 100.771 86.8784 101.487 86.53L98.6973 96.09C98.9575 96.0337 99.204 95.9259 99.4221 95.7731C99.6402 95.6203 99.8255 95.4254 99.9673 95.2C100.147 97.53 103.327 106.08 103.757 110.05C103.877 109.9 103.987 109.7 104.097 109.55C106.512 119.303 110.307 128.66 115.367 137.34C115.817 138.08 116.917 137.75 116.917 137.75C112.537 126.9 111.847 111.75 112.347 105.75C113.127 96.63 112.607 84.4 135.177 87.75C171.007 93.14 176.737 78.44 176.737 78.44C187.027 86.65 193.117 108.88 193.797 124.68C193.797 124.68 194.797 125.05 194.887 124.25C195.107 121.42 194.497 103.42 193.587 88.61C192.907 78.14 189.647 68.71 183.227 62.68Z" fill="#BD8242"/>
<g style="mix-blend-mode:multiply" opacity="0.3">
<g style="mix-blend-mode:multiply" opacity="0.3">
<path d="M153.676 47.9303C153.024 48.6282 152.268 49.2218 151.436 49.6902C150.875 47.9104 150.173 46.1782 149.336 44.5103C149.336 44.5103 149.256 44.7703 149.116 45.1403C149.244 46.3704 148.885 47.6016 148.116 48.5703C146.696 50.5937 144.937 52.3564 142.916 53.7803C147.135 53.3571 151.051 51.3957 153.916 48.2702C153.856 48.1202 153.726 48.0303 153.676 47.9303Z" fill="#BD8242"/>
</g>
<g style="mix-blend-mode:multiply" opacity="0.3">
<path d="M181.036 52.9302C180.935 53.695 180.788 54.453 180.596 55.2002C180.098 56.702 179.295 58.0843 178.236 59.2602C175.269 62.8486 171.501 65.6913 167.236 67.5602C171.237 67.1488 175.15 66.1199 178.836 64.5102C180.336 63.9102 181.836 63.2502 183.286 62.5102C183.417 61.6566 183.477 60.7937 183.466 59.9302C183.437 57.3951 182.584 54.9383 181.036 52.9302Z" fill="#BD8242"/>
</g>
<g style="mix-blend-mode:multiply" opacity="0.3">
<path d="M177.776 50.2502C177.776 50.2502 177.696 50.2502 177.656 50.1802C177.383 50.7205 176.975 51.1817 176.473 51.5196C175.97 51.8575 175.39 52.0608 174.786 52.1102C175.011 50.5036 174.656 48.8694 173.786 47.5002C173.586 47.8502 173.386 48.2002 173.176 48.5002C172.299 49.9977 171.266 51.3987 170.096 52.6802C168.183 54.4728 165.96 55.9027 163.536 56.9002C167.649 56.3354 171.605 54.9442 175.166 52.8102C176.254 52.212 177.157 51.3265 177.776 50.2502Z" fill="#BD8242"/>
</g>
</g>
<g style="mix-blend-mode:multiply" opacity="0.3">
<path d="M176.697 74.0103C176.697 74.0103 170.967 88.7103 135.127 83.3203C112.567 79.9203 113.128 92.1503 112.308 101.32C112.154 103.493 112.123 105.674 112.217 107.85C112.217 107.15 112.268 106.44 112.308 105.85C113.088 96.7303 112.567 84.5002 135.137 87.8503C170.967 93.2402 176.697 78.5403 176.697 78.5403C186.987 86.7503 193.078 108.98 193.758 124.78V120.22C193.078 104.45 186.977 82.2203 176.697 74.0103Z" fill="#BD8242"/>
</g>
<g style="mix-blend-mode:multiply" opacity="0.5">
<path d="M162.206 134.75C162.206 134.75 165.396 141.81 164.806 144.75C164.216 147.69 150.336 149.17 148.676 147.81C147.016 146.45 147.536 137.49 147.536 137.49C147.536 137.49 147.886 143.97 150.166 145.34C152.446 146.71 161.366 144.49 162.266 142.77C163.166 141.05 162.206 134.75 162.206 134.75Z" fill="#E6966E"/>
</g>
<path d="M129.597 123.77C126.293 124.891 123.521 127.196 121.817 130.24C121.817 130.24 121.517 131.07 132.217 129.98C140.767 128.16 142.987 127.15 142.847 126.51C142.467 124.86 136.707 121.28 129.597 123.77Z" fill="#F2F0F0"/>
<path d="M135.917 124.72C135.715 123.895 135.27 123.148 134.641 122.576C134.011 122.005 133.226 121.634 132.384 121.512C131.543 121.389 130.684 121.521 129.918 121.89C129.152 122.259 128.513 122.848 128.084 123.582C127.655 124.316 127.454 125.161 127.509 126.01C127.563 126.858 127.869 127.671 128.389 128.345C128.908 129.018 129.616 129.521 130.423 129.789C131.23 130.057 132.098 130.079 132.917 129.85C133.991 129.561 134.908 128.861 135.47 127.901C136.031 126.941 136.192 125.798 135.917 124.72Z" fill="#487CB8"/>
<path d="M134.717 125.05C134.486 124.298 133.969 123.667 133.277 123.293C132.584 122.919 131.773 122.832 131.018 123.05C130.255 123.252 129.603 123.747 129.203 124.426C128.802 125.105 128.685 125.915 128.877 126.68C129.09 127.454 129.601 128.113 130.299 128.51C130.996 128.908 131.823 129.012 132.597 128.8C133.372 128.588 134.03 128.077 134.428 127.379C134.825 126.681 134.93 125.854 134.717 125.08V125.05Z" fill="#18100E"/>
<path d="M135.677 123.54C135.586 123.225 135.374 122.958 135.088 122.799C134.801 122.64 134.463 122.601 134.147 122.69C133.989 122.73 133.841 122.8 133.71 122.898C133.58 122.996 133.47 123.119 133.388 123.259C133.306 123.4 133.254 123.556 133.233 123.718C133.212 123.879 133.224 124.043 133.267 124.2C133.362 124.512 133.575 124.774 133.861 124.931C134.147 125.088 134.483 125.127 134.797 125.04C135.113 124.958 135.383 124.754 135.548 124.472C135.713 124.191 135.759 123.856 135.677 123.54Z" fill="#EFECEC"/>
<path d="M129.806 120.1C141.926 117.47 142.806 126.51 142.806 126.51C142.806 126.51 138.206 121.26 129.806 123.38C124.666 124.68 121.756 130.24 121.756 130.24C121.756 130.24 120.676 122.08 129.806 120.1Z" fill="#E6966E"/>
<path d="M130.177 122.52C140.567 119.73 142.847 126.52 142.847 126.52C142.847 126.52 137.528 121.34 130.338 123.89C123.778 126.21 121.818 130.25 121.818 130.25C121.818 130.25 121.257 124.93 130.177 122.52Z" fill="#412118"/>
<path d="M175.176 115.73C178.672 115.496 182.12 116.654 184.766 118.95C184.766 118.95 184.766 120.36 175.096 122.69C165.736 124.38 163.896 123.69 163.806 123.07C163.566 120.68 169.226 116.09 175.176 115.73Z" fill="#F2F0F0"/>
<path d="M169.627 118.93C169.518 118.087 169.663 117.231 170.043 116.471C170.423 115.711 171.022 115.082 171.761 114.664C172.501 114.246 173.349 114.058 174.196 114.124C175.043 114.191 175.852 114.509 176.517 115.037C177.183 115.566 177.675 116.281 177.932 117.091C178.189 117.901 178.198 118.769 177.959 119.584C177.72 120.4 177.242 121.125 176.588 121.668C175.934 122.21 175.133 122.545 174.287 122.63C173.179 122.754 172.067 122.434 171.194 121.741C170.321 121.048 169.758 120.037 169.627 118.93Z" fill="#487CB8"/>
<path d="M170.867 118.78C170.793 118.189 170.897 117.59 171.165 117.058C171.432 116.526 171.853 116.086 172.371 115.794C172.89 115.502 173.484 115.37 174.078 115.417C174.671 115.463 175.238 115.685 175.705 116.055C176.172 116.424 176.519 116.924 176.7 117.491C176.882 118.058 176.891 118.666 176.727 119.239C176.562 119.811 176.23 120.321 175.774 120.704C175.319 121.087 174.759 121.326 174.167 121.39C173.385 121.475 172.6 121.249 171.983 120.761C171.366 120.272 170.965 119.561 170.867 118.78Z" fill="#18100E"/>
<path d="M175.696 116.93C175.663 116.6 175.762 116.27 175.972 116.013C176.182 115.756 176.486 115.593 176.816 115.56C177.146 115.527 177.476 115.626 177.733 115.836C177.99 116.046 178.153 116.35 178.186 116.68C178.213 117.007 178.11 117.333 177.898 117.584C177.686 117.835 177.383 117.992 177.056 118.02C176.895 118.039 176.731 118.026 176.575 117.982C176.419 117.937 176.273 117.862 176.147 117.761C176.02 117.659 175.915 117.533 175.838 117.391C175.76 117.248 175.712 117.091 175.696 116.93Z" fill="#EFECEC"/>
<path d="M173.597 112.51C161.987 113.94 163.798 123.07 163.798 123.07C163.798 123.07 166.198 116.52 174.798 115.48C180.048 114.84 184.798 118.95 184.798 118.95C184.798 118.95 183.667 111.27 173.597 112.51Z" fill="#E6966E"/>
<path d="M173.867 115C163.287 116.7 163.807 123.07 163.807 123.07C164.883 121.114 166.424 119.453 168.293 118.232C170.162 117.012 172.303 116.269 174.527 116.07C181.457 115.42 184.767 118.93 184.767 118.93C184.767 118.93 183.157 113.51 173.867 115Z" fill="#412118"/>
<path d="M121.366 106.93C125.446 105.61 142.276 106.14 143.366 107.06C144.456 107.98 145.236 112.28 143.436 112.51C135.526 113.51 127.246 110.3 121.506 111.43C119.276 111.87 114.596 118.43 114.596 118.43C114.596 118.43 117.286 108.19 121.366 106.93Z" fill="#8B5E3C"/>
<path d="M178.037 99.2702C173.757 99.6202 155.807 108.39 155.167 109.64C154.527 110.89 156.297 114.94 158.037 114.45C164.947 112.55 174.257 105.35 179.937 104.09C182.192 103.673 184.491 103.552 186.777 103.73C186.777 103.73 182.297 98.9302 178.037 99.2702Z" fill="#8B5E3C"/>
<g style="mix-blend-mode:multiply" opacity="0.5">
<path d="M173.907 157.21C160.587 167.34 142.457 162.1 145.417 162.87C143.597 162.4 175.077 156.32 173.907 157.21Z" fill="#E6966E"/>
</g>
<g style="mix-blend-mode:multiply" opacity="0.5">
<path d="M167.966 165.06C161.646 172.82 151.486 166.53 153.906 167.81C153.026 167.35 168.596 164.3 167.966 165.06Z" fill="#E6966E"/>
</g>
<g style="mix-blend-mode:screen" opacity="0.3">
<path d="M189.257 122.66C188.577 115.66 181.927 112.59 173.767 114.22C165.607 115.85 159.667 120.68 161.037 127.61C162.407 134.54 170.697 140.79 178.837 138.2C186.977 135.61 189.887 129.16 189.257 122.66Z" fill="#E6E7E8"/>
</g>
<g style="mix-blend-mode:screen" opacity="0.3">
<path d="M166.386 129.73C165.006 122.81 170.946 117.97 179.106 116.35C181.283 115.897 183.524 115.825 185.726 116.14C182.876 113.97 178.606 113.26 173.726 114.22C165.566 115.84 159.626 120.68 160.996 127.61C161.996 132.77 166.896 137.56 172.686 138.61C169.492 136.602 167.227 133.408 166.386 129.73Z" fill="#E6E7E8"/>
</g>
<g style="mix-blend-mode:screen" opacity="0.3">
<path d="M147.926 129.99C146.556 123.07 139.216 120.87 131.056 122.49C122.896 124.11 117.906 129.49 119.976 136.23C121.876 142.46 127.076 147.3 135.536 146.59C143.996 145.88 149.306 136.93 147.926 129.99Z" fill="#E6E7E8"/>
</g>
<g style="mix-blend-mode:screen" opacity="0.3">
<path d="M125.737 138.67C123.677 131.9 128.657 126.56 136.827 124.94C139.434 124.384 142.12 124.299 144.757 124.69C141.567 122.08 136.517 121.41 131.057 122.49C122.887 124.12 117.907 129.49 119.977 136.23C120.661 138.786 122.059 141.094 124.007 142.884C125.955 144.675 128.372 145.874 130.977 146.34C128.462 144.402 126.628 141.717 125.737 138.67Z" fill="#E6E7E8"/>
</g>
<path d="M184.256 113.55C175.926 111.4 168.016 112.87 160.476 119.19C160.095 119.502 159.655 119.733 159.182 119.87C158.71 120.008 158.214 120.049 157.726 119.99C154.51 119.519 151.229 120.127 148.396 121.72C147.951 121.993 147.456 122.172 146.94 122.246C146.424 122.319 145.899 122.287 145.396 122.15C136.066 119.25 128.146 120.89 121.296 126.03C119.1 128.352 116.233 129.929 113.096 130.54L113.866 133.86C116.456 133.86 118.036 135.14 118.686 138.27C119.08 138.392 119.499 138.414 119.904 138.333C120.309 138.253 120.688 138.073 121.006 137.81C119.346 130.59 122.336 125.55 131.256 123.28C139.646 121.28 145.186 123.45 147.656 130.06C148.576 130.73 149.836 130.77 150.326 129.67C150.486 129.415 150.581 129.125 150.603 128.825C150.626 128.525 150.575 128.224 150.455 127.948C150.334 127.673 150.149 127.43 149.914 127.242C149.679 127.054 149.401 126.927 149.106 126.87C148.982 126.529 148.929 126.167 148.95 125.805C148.97 125.443 149.063 125.089 149.224 124.764C149.385 124.439 149.609 124.149 149.885 123.913C150.16 123.677 150.48 123.499 150.826 123.39C152.44 122.624 154.222 122.28 156.006 122.39C157.616 122.47 158.766 123.21 158.936 124.94C158.683 125.105 158.474 125.329 158.328 125.593C158.181 125.857 158.101 126.153 158.095 126.454C158.09 126.756 158.158 127.055 158.294 127.324C158.43 127.594 158.629 127.826 158.876 128C159.756 128.83 160.876 128.31 161.486 127.34C161.246 120.29 165.536 116.18 174.046 114.8C183.156 113.48 187.846 117 189.046 124.3C189.441 124.419 189.859 124.44 190.263 124.359C190.668 124.279 191.046 124.101 191.366 123.84C190.766 120.7 191.716 118.84 194.126 117.91L193.566 114.55C190.434 115.2 187.178 114.85 184.256 113.55Z" fill="#3F2216"/>
<path d="M147.727 129.65C148.487 139.6 142.537 144.65 137.217 145.93C133.922 146.715 130.455 146.305 127.435 144.772C124.415 143.239 122.037 140.683 120.727 137.56L119.977 137.86C121.446 141.297 124.125 144.076 127.507 145.67C130.406 147.009 133.655 147.394 136.787 146.77L137.406 146.64C140.738 145.844 143.673 143.878 145.677 141.1C147.969 137.715 148.983 133.624 148.537 129.56L147.727 129.65Z" fill="#3F2216"/>
<path d="M189.226 124.13C189.209 127.513 187.994 130.78 185.797 133.352C183.601 135.924 180.564 137.634 177.226 138.18C171.816 139.02 164.396 136.64 161.296 127.18L160.506 127.42C161.654 131.345 164.155 134.735 167.566 136.99C170.484 138.78 173.945 139.469 177.326 138.93L177.946 138.82C181.353 138.156 184.424 136.331 186.636 133.656C188.848 130.981 190.064 127.621 190.076 124.15L189.226 124.13Z" fill="#3F2216"/>
<path d="M116.086 131.34L114.646 131.63C114.568 131.649 114.486 131.636 114.417 131.595C114.348 131.554 114.297 131.488 114.276 131.41C114.269 131.37 114.27 131.329 114.279 131.289C114.289 131.249 114.306 131.212 114.331 131.179C114.355 131.146 114.386 131.119 114.421 131.099C114.456 131.078 114.496 131.065 114.536 131.06L115.976 130.77C116.055 130.752 116.139 130.764 116.21 130.805C116.28 130.846 116.333 130.912 116.356 130.99C116.362 131.031 116.359 131.072 116.349 131.112C116.338 131.152 116.32 131.189 116.294 131.222C116.269 131.254 116.238 131.282 116.202 131.302C116.166 131.322 116.127 131.335 116.086 131.34Z" fill="#B3B3B3"/>
<path d="M192.577 116.06L191.137 116.34C191.097 116.351 191.056 116.354 191.016 116.348C190.976 116.343 190.937 116.33 190.901 116.309C190.866 116.289 190.835 116.262 190.81 116.229C190.785 116.197 190.767 116.16 190.757 116.12C190.746 116.04 190.766 115.957 190.815 115.892C190.864 115.826 190.936 115.783 191.017 115.77L192.467 115.48C192.546 115.462 192.63 115.476 192.699 115.519C192.768 115.562 192.818 115.631 192.837 115.71C192.846 115.791 192.824 115.872 192.776 115.936C192.728 116.001 192.657 116.046 192.577 116.06Z" fill="#B3B3B3"/>
<path d="M108.138 207.11C108.438 204.97 113.138 204.9 123.678 197.01C121.617 204.317 121.506 212.037 123.358 219.4C130.978 249.69 136.358 352.72 136.358 352.72L135.048 373.93L105.838 252.62L115.288 237.52L105.588 233.52C105.588 233.52 107.468 211.93 108.138 207.11Z" fill="#A67255"/>
<path d="M109.347 303.15C108.577 277.97 68.3473 224.46 76.3473 218.49C76.3473 218.49 49.3975 219.14 43.7775 242.75C37.9775 267.07 66.0175 337.22 81.7775 347.96C95.7775 357.52 112.777 348.96 115.157 341.54C120.707 324.03 109.347 303.15 109.347 303.15Z" fill="#8C6048"/>
<path d="M115.188 341.54C117.488 334.25 116.848 326.4 115.328 319.69C114.31 319.858 113.307 320.105 112.328 320.43C106.558 322.43 101.438 326.21 95.4578 327.43C90.1378 328.43 84.5478 327.36 79.2478 328.48C77.5086 328.848 75.8641 329.57 74.417 330.603C72.9699 331.635 71.7515 332.955 70.8379 334.48C71.7079 335.91 72.5677 337.22 73.4177 338.48C73.6377 338.81 73.8679 339.13 74.0879 339.48C74.7979 340.48 75.4978 341.48 76.1978 342.34C76.6578 342.91 77.0979 343.43 77.5479 343.94C77.9979 344.45 78.5478 345.11 79.0278 345.6C79.8816 346.494 80.8155 347.307 81.8179 348.03C95.8279 357.52 112.858 348.93 115.188 341.54Z" fill="#664634"/>
<g style="mix-blend-mode:multiply" opacity="0.2">
<path d="M109.346 303.15C109.096 294.89 104.606 283.6 98.9758 271.94C96.0858 265.94 85.9758 290.47 83.9758 309.19C83.9758 309.19 111.056 318.96 105.536 336.47C103.196 343.89 91.0659 346.95 80.0759 334.71C71.5059 325.15 51.1559 286.83 43.5059 257.83C46.8259 288.35 68.5759 338.97 81.7559 347.96C95.7559 357.52 112.756 348.96 115.136 341.54C120.706 324.03 109.346 303.15 109.346 303.15Z" fill="#8C6048"/>
</g>
<path d="M138.967 224.18C141.637 221.54 157.327 187.41 159.867 185.25C162.407 183.09 176.487 173.9 179.027 172.55C181.567 171.2 181.957 171.98 184.027 172.9C184.64 173.229 185.156 173.711 185.526 174.3C185.895 174.888 186.105 175.563 186.134 176.258C186.163 176.952 186.011 177.642 185.692 178.26C185.374 178.878 184.9 179.402 184.317 179.78C181.317 181.78 181.317 182.87 181.317 182.87C181.317 182.87 184.177 180.56 186.497 184C188.387 186.77 188.237 189.05 187.327 189.84C186.417 190.63 183.577 192.41 183.577 192.41C183.577 192.41 187.277 189.83 188.027 191.55C189.587 195.15 189.617 198.79 188.347 199.88C187.527 200.58 185.637 202.07 185.637 202.07C185.637 202.07 187.887 200.67 188.507 202.99C189.447 206.54 189.217 208.46 185.727 211.12C182.237 213.78 174.907 219.3 170.927 221.81C166.947 224.32 161.667 226.74 159.107 229.91C157.927 231.35 154.887 236.02 154.887 236.02L138.967 224.18Z" fill="#F7A379"/>
<g style="mix-blend-mode:multiply" opacity="0.3">
<g style="mix-blend-mode:multiply" opacity="0.3">
<path d="M185.646 202.07C185.646 202.07 187.536 200.58 188.356 199.88C189.626 198.79 189.596 195.15 188.036 191.55C187.486 190.29 185.346 191.34 184.256 191.99C185.32 191.328 186.348 190.611 187.336 189.84C188.056 189.21 188.276 187.64 187.406 185.62C186.546 188.69 180.176 192.86 177.246 195.83C180.846 196.1 183.666 192.9 187.096 192.29C190.706 198.93 183.386 202.16 178.646 205.13C180.516 205.25 185.366 201.28 187.036 203.29C187.956 204.39 186.576 207.12 185.876 208.05C184.946 209.27 182.266 213.79 185.736 211.12C189.206 208.45 189.456 206.54 188.516 202.99C187.896 200.67 185.646 202.07 185.646 202.07Z" fill="#F7A379"/>
</g>
<g style="mix-blend-mode:multiply" opacity="0.3">
<path d="M186.056 175.53C185.136 178.26 183.606 178.59 181.356 180.6C179.256 182.49 176.266 184.13 174.666 186.44C177.106 187.13 181.986 182.92 184.996 182.52C184.414 182.227 183.76 182.104 183.111 182.166C182.461 182.228 181.843 182.472 181.326 182.87C181.326 182.87 181.326 181.79 184.326 179.78C185.03 179.349 185.578 178.704 185.889 177.939C186.2 177.175 186.259 176.331 186.056 175.53Z" fill="#F7A379"/>
</g>
</g>
<g style="mix-blend-mode:multiply" opacity="0.15">
<path d="M181.327 182.87C181.327 182.87 181.237 182.69 181.577 182.28C179.072 183.167 176.713 184.421 174.577 186C172.197 187.77 170.787 189.89 168.057 191.28C174.297 191.28 171.607 198.05 169.767 199.51C173.167 198.67 178.257 203.44 172.767 208.23C175.647 208.55 176.416 211.96 175.896 213.88C175.006 217.1 172.496 220.05 170.126 222.23V222.32C170.416 222.16 170.697 221.98 170.967 221.81C174.967 219.3 182.297 213.81 185.767 211.12C189.237 208.43 189.487 206.54 188.547 202.99C187.927 200.67 185.677 202.07 185.677 202.07C185.677 202.07 187.566 200.58 188.386 199.88C189.656 198.79 189.627 195.15 188.067 191.55C187.517 190.29 185.377 191.34 184.287 191.99C185.351 191.329 186.378 190.611 187.366 189.84C188.276 189.05 188.427 186.77 186.537 184C184.187 180.56 181.327 182.87 181.327 182.87Z" fill="#F7A379"/>
</g>
<path d="M159.798 188.18C153.678 180.64 160.628 171.4 160.458 168.03C160.198 162.89 157.097 160.35 156.127 163.39C155.157 166.43 149.017 177.06 148.857 179.55C148.697 182.04 143.997 194.92 145.637 201.04C147.277 207.16 137.357 224.85 137.357 224.85L147.177 216.43L159.798 188.18Z" fill="#F7A379"/>
<path d="M137.996 221.43L142.356 213.16L168.116 224.43L163.656 235.25L137.996 221.43Z" fill="#E5E6E7"/>
<path d="M137.338 221.43C123.588 242.15 102.788 266.79 89.8877 294.49C73.4977 329.68 80.2977 347 102.158 350.76C111.378 352.35 127.618 332.23 135.158 316.7C145.308 295.78 169.278 248.21 169.428 237.32C166.138 232.72 137.338 221.43 137.338 221.43Z" fill="#8C6048"/>
<path d="M129.466 326.67C129.295 325.864 129.012 325.087 128.626 324.36C125.696 319.02 118.046 318.44 112.286 320.43C106.526 322.42 101.396 326.21 95.4158 327.43C90.6358 328.37 85.6557 327.64 80.8457 328.28C81.3157 341.28 88.9657 348.53 102.126 350.8C109.466 352.02 121.196 339.61 129.466 326.67Z" fill="#664634"/>
<g style="mix-blend-mode:multiply" opacity="0.2">
<path d="M164.846 233.93C161.646 248.69 140.416 290.93 131.016 310.28C123.486 325.81 107.246 345.93 98.0161 344.34C91.4161 343.21 86.2062 340.81 82.5762 337.08C85.5762 344.62 92.336 349.08 102.146 350.76C111.366 352.35 127.606 332.23 135.146 316.7C145.296 295.78 169.266 248.21 169.416 237.32C168.101 235.934 166.554 234.787 164.846 233.93Z" fill="#8C6048"/>
</g>
</g>
</svg>
