<svg width="360" height="549" viewBox="0 0 360 549" fill="none" xmlns="http://www.w3.org/2000/svg">
<path d="M175 549C271.65 549 350 443.787 350 314C350 184.213 271.65 79 175 79C78.3502 79 0 184.213 0 314C0 443.787 78.3502 549 175 549Z" fill="#EDEDED"/>
<mask id="mask0_1211_1922" style="mask-type:alpha" maskUnits="userSpaceOnUse" x="0" y="79" width="350" height="470">
<path d="M175 549C271.65 549 350 443.787 350 314C350 184.213 271.65 79 175 79C78.3502 79 0 184.213 0 314C0 443.787 78.3502 549 175 549Z" fill="#EDEDED"/>
</mask>
<g mask="url(#mask0_1211_1922)">
<path d="M290.25 552.07C246.01 537.43 64.6895 546.33 64.6895 546.33L132.529 471.06L253.379 484.95L290.25 552.07Z" fill="#BD8242"/>
<path d="M336.1 733.27C332.64 726.27 254.28 565.42 249.1 554.8C248.257 546.362 246.403 538.056 243.58 530.06C226.91 481.61 109.5 471.32 95.6597 564.91C87.4597 621.81 152.56 976.09 152.24 979.59C151.29 990.21 202.989 994.97 204.399 981.49C206.819 958.49 204.4 885.97 200.99 812.43C241.37 800.82 318.58 778.55 321.08 777.32C327.99 773.96 342.14 745.46 336.1 733.27ZM198.25 756.37C195.35 700.6 192.419 655.37 191.339 637.65L255.25 734.5C248.15 734.5 219.55 746.77 198.25 756.37Z" fill="#36393D"/>
<g style="mix-blend-mode:screen" opacity="0.2">
<path d="M204.41 981.49C209.35 934.57 194.09 680.28 191.31 634.28V611.43L202.77 593.54L205.109 528.4L137.58 502.97C117 513.37 100.36 533.14 95.6597 564.91C87.4597 621.81 152.56 976.09 152.24 979.59C151.3 990.21 203 994.97 204.41 981.49Z" fill="#2E2B2D"/>
</g>
<path d="M212.63 257.88C207.58 253.76 164.85 251.65 161.94 257.88C159.03 264.11 161.08 273.11 161.08 273.11L211.16 273.22L212.63 257.88Z" fill="#D1D3D4"/>
<path d="M108.529 294.76C132.229 286.05 147.53 281.46 154.6 278.3C160.48 275.77 164.04 266.86 163.52 260.3C162.63 249.13 160.319 217.23 160.319 217.23L210.16 214.53C210.16 214.53 208.289 254.18 211.979 266.86C213.869 273.36 219.399 275.11 223.979 276.53C239.559 281.34 243.199 289.14 258.759 304.12C271.689 316.56 255.309 412.63 247.759 451.37C244.389 468.68 233.569 507.75 233.569 507.75C188.329 520.95 144.42 518 125.22 500.24C125.22 500.24 125.979 464.38 125.029 448.06C122.859 410.3 110.579 333.21 108.529 294.76Z" fill="#E6966E"/>
<path d="M157.121 274.27C160.871 278.14 171.011 280.63 177.711 292.1C185.141 304.8 188.931 309.76 188.931 309.76C188.931 309.76 192.931 305.93 199.321 296.24C204.92 287.573 212.789 280.607 222.071 276.1C222.071 276.1 259.331 283.61 268.651 289.1C277.971 294.59 262.551 387.91 262.551 387.91C262.551 387.91 243.551 454.34 241.711 514.27C241.711 514.27 237.971 527.03 205.121 528.35C166.051 529.92 120.731 519.94 120.731 519.94C124.511 493.48 107.541 379.57 107.541 379.57C107.541 379.57 97.901 289.66 109.671 286.69C124.521 282.98 122.771 283.42 157.121 274.27Z" fill="#E5E6E7"/>
<path d="M102.489 272.25C110.039 296.25 105.909 343.11 113.199 375.61C113.199 375.61 70.0287 444.8 61.2787 451.87C52.2787 459.12 21.6889 444.21 23.4989 424.26C25.2789 404.52 59.7492 341.92 71.9892 298.46C73.8102 291.864 77.2927 285.846 82.1039 280.98C86.9151 276.115 92.8942 272.565 99.4691 270.67C99.7712 270.576 100.088 270.541 100.404 270.57C100.719 270.598 101.026 270.688 101.306 270.835C101.586 270.981 101.836 271.182 102.038 271.425C102.241 271.668 102.395 271.948 102.489 272.25V272.25Z" fill="#8C6048"/>
<g style="mix-blend-mode:multiply" opacity="0.2">
<path d="M91.8994 364.99C91.8994 364.99 48.7297 434.18 39.9697 441.25C38.0297 442.83 35.0296 443.3 31.5996 442.96C40.8896 452.03 55.5193 456.52 61.2793 451.87C70.0293 444.8 113.2 375.61 113.2 375.61C109.9 360.89 108.94 343.23 108.2 326.07C103.09 339.31 97.4294 352.61 91.8994 364.99Z" fill="#8C6048"/>
</g>
<path d="M-11.1592 553.22C3.38082 535.34 40.5508 495.44 61.2808 451.87C76.5608 419.74 36.2809 388.2 27.9009 408.19C21.7209 422.93 10.9508 439.75 2.78076 453.31C-8.21924 471.57 -34.0192 531.47 -41.6992 537.07C-38.7492 541.4 -11.1592 553.22 -11.1592 553.22Z" fill="#8C6048"/>
<g style="mix-blend-mode:multiply" opacity="0.2">
<path d="M58.1694 416.44C38.7394 457.27 -3.8307 528.13 -19.7207 549.44C-14.8807 551.67 -11.1606 553.27 -11.1606 553.27C3.37936 535.39 40.5493 495.49 61.2793 451.92C67.4993 438.8 64.4594 425.88 58.1694 416.44Z" fill="#8C6048"/>
</g>
<path d="M178.46 283.65C180.39 285.5 188.931 309.76 188.931 309.76C184.555 305.15 180.637 300.126 177.23 294.76L158.48 302.87L161.94 257.78C161.94 257.78 176.53 281.79 178.46 283.65Z" fill="#D1D3D4"/>
<path d="M178.459 283.65L158.459 302.92C158.459 302.92 149.569 282.7 150.999 274.07C151.509 271.07 161.919 257.83 161.919 257.83L178.459 283.65Z" fill="#F1F2F2"/>
<path d="M199.319 281.88C197.479 283.74 188.93 309.81 188.93 309.81C188.93 309.81 197.789 302.23 203.149 293.41L217.6 302.97L212.6 257.88C212.6 257.88 201.169 279.97 199.319 281.88Z" fill="#D1D3D4"/>
<path d="M199.32 281.88L217.601 302.97C217.601 302.97 225.37 285.21 224 276.58C223.53 273.58 212.63 257.88 212.63 257.88L199.32 281.88Z" fill="#F1F2F2"/>
<path d="M188.93 309.76L187.73 528.6L185.04 481.94L184.34 304.12L188.93 309.76Z" fill="#D1D3D4"/>
<path d="M112.98 506.01C143.14 515.01 217.26 519.87 241.71 514.32L243.589 530.06C243.589 530.06 244.06 536.2 206.1 534.58C163.5 532.76 118.429 525.16 111.299 521.23C108.069 519.44 112.98 506.01 112.98 506.01Z" fill="#1D1D1B"/>
<path d="M211.3 530.88C211.184 531.61 210.85 532.287 210.341 532.823C209.832 533.359 209.173 533.727 208.45 533.88C203.37 534.88 189.82 533.96 184.45 532.44C183.798 532.251 183.229 531.846 182.837 531.293C182.444 530.739 182.252 530.068 182.29 529.39C182.53 524.98 182.63 514.39 186.11 514.92L210.11 516.81C213.72 516.88 212.03 526.51 211.3 530.88Z" fill="#1D1D1B"/>
<path d="M202.25 535.69C196 535.69 188.02 534.86 184.1 533.76C183.16 533.497 182.339 532.919 181.773 532.124C181.208 531.329 180.931 530.364 180.99 529.39L181.06 527.99C181.34 521.84 181.78 516.18 184.06 514.32C184.371 514.062 184.734 513.875 185.124 513.769C185.513 513.664 185.921 513.644 186.32 513.71L210.23 515.59C210.643 515.593 211.052 515.684 211.427 515.857C211.803 516.029 212.138 516.279 212.41 516.59C214.41 518.96 213.65 524.92 212.66 530.83L211.34 530.89L212.62 531.1C212.47 532.094 212.02 533.018 211.331 533.749C210.641 534.48 209.743 534.983 208.76 535.19C206.61 535.56 204.431 535.727 202.25 535.69V535.69ZM186.01 516.28C184.12 517.61 183.79 524.96 183.64 528.11L183.58 529.53C183.552 529.915 183.658 530.298 183.881 530.613C184.103 530.928 184.428 531.157 184.8 531.26C189.87 532.68 203.32 533.7 208.23 532.68C208.704 532.575 209.134 532.327 209.461 531.969C209.788 531.611 209.998 531.161 210.06 530.68V530.41C210.53 527.54 211.81 519.93 210.39 518.28L209.98 518.15L186.01 516.28Z" fill="#C3B398"/>
<path d="M255.43 592.73C253.03 599.58 292.129 560.86 314.819 558.43C319.739 557.91 279.09 480.79 275.5 469.01C271.72 456.62 264.63 370.46 268.6 358.18C272.57 345.9 275.77 268.12 263.6 269.89C252.6 271.5 225.02 268.6 225.02 268.6L217.6 286.82C217.6 286.82 229.39 399.13 233.04 434.82C237.35 476.88 263.6 569.38 255.43 592.73Z" fill="#8C6048"/>
<path d="M230.949 269.15C230.659 267.02 225.479 268.73 214.949 260.84C215.119 308.07 226.799 415.74 233.599 440.24L232.799 316.41L223.339 301.31L233.039 297.31C233.039 297.31 231.619 273.99 230.949 269.15Z" fill="#A67255"/>
<path d="M157.171 459.75C141.231 493.98 107.921 554.35 103.821 601.05C103.191 608.28 40.5508 571.58 40.5508 552.05C40.5508 546.83 93.6708 481.29 97.3008 459.73C102.231 430.53 96.9008 379.52 93.8608 351.11C92.4808 338.27 90.2112 271.51 102.491 272.23C118.201 273.15 137.491 272.23 137.491 272.23L156.551 318.23C156.551 318.23 178.601 413.71 157.171 459.75Z" fill="#8C6048"/>
<path d="M137.449 272.27C137.389 271.21 148.449 268.7 158.929 261.59C158.929 261.59 152.349 276.33 155.579 288.59C163.529 318.79 176.989 422.73 161.279 448.59C160.399 450.04 169.949 401.4 139.789 324.29L149.079 309.09L139.329 305.15C139.329 305.15 137.709 277.14 137.449 272.27Z" fill="#A67255"/>
<path d="M216.42 186.34L219.87 206.47C220.47 206.979 221.191 207.324 221.964 207.472C222.737 207.619 223.535 207.563 224.28 207.31C227.2 206.56 229.51 195.21 229.51 195.21C229.51 195.21 230.85 183.13 225.63 181.21C219.91 179.1 216.42 186.34 216.42 186.34Z" fill="#E6966E"/>
<path d="M148.33 206.78L155.2 226.03C154.926 226.768 154.464 227.422 153.858 227.926C153.253 228.429 152.526 228.765 151.75 228.9C148.84 229.64 141.25 220.82 141.25 220.82C141.25 220.82 134.14 210.91 137.76 206.72C141.73 202.13 148.33 206.78 148.33 206.78Z" fill="#F7A379"/>
<path d="M214.97 156.4C214.97 156.4 229.33 213.49 226.32 221.61C223.31 229.73 214.1 249.67 208.92 254.09C206.336 256.342 203.315 258.037 200.046 259.07C196.777 260.102 193.329 260.449 189.92 260.09C182.52 259.38 166.28 247.84 159.92 243.17C152.07 237.43 131.39 173.39 132.79 178.35C132.79 178.35 128.09 145.71 165.85 135.91C198.93 127.28 214.97 156.4 214.97 156.4Z" fill="#F7A379"/>
<path d="M143.66 207.88C143.66 207.88 155.24 242.39 162.88 250.95C175.38 264.95 184.53 268.95 192.75 271.26C196.75 272.37 210.97 268.1 213.88 265.14C220.97 257.94 225.99 249.55 228.59 230.72C230.38 217.72 220.94 179.3 220.94 179.3C220.94 179.3 224.18 213.63 218.66 217.3C211.53 222 213.74 213.72 188.61 220.72C165.81 227.07 168.88 232.23 163.49 232.39C158.1 232.55 143.66 207.88 143.66 207.88ZM174.59 238.24C174.066 237.662 173.775 236.91 173.775 236.13C173.775 235.35 174.066 234.598 174.59 234.02C176.66 232.13 181.44 231.12 190.59 228.43C198.75 226.04 204.1 224.22 207.13 224.62C207.895 224.786 208.57 225.234 209.021 225.875C209.471 226.516 209.663 227.303 209.56 228.08C209.08 233.26 206.74 243.73 195.83 246.17C184.92 248.61 177.7 241.94 174.59 238.27V238.24Z" fill="#BD8242"/>
<g style="mix-blend-mode:multiply" opacity="0.3">
<path d="M221.25 183.36C223.9 195.75 227.49 214.94 226.32 223.44C224.84 234.17 222.551 241.44 219.561 247.11C219.111 245.38 218.191 243.7 217.811 241.93C217.761 245.65 217.127 249.338 215.931 252.86C214.604 254.622 213.161 256.292 211.61 257.86C210.813 258.551 209.921 259.124 208.96 259.56C208.789 257.202 207.988 254.933 206.641 252.99C206.924 255.201 206.578 257.447 205.641 259.47C205.099 259.371 204.6 259.109 204.21 258.72C203.91 259.43 203.6 260.14 203.3 260.84C202.554 260.293 202.012 259.511 201.76 258.62C201.76 259.85 201.85 261.07 201.92 262.3C199.708 262.979 197.453 263.51 195.17 263.89C193.042 263.279 190.999 262.402 189.09 261.28C183.72 258.12 179.09 252.23 179.09 252.23C179.09 252.23 183.09 259.08 188.23 263.29C185.828 262.532 183.488 261.589 181.23 260.47C180.044 259.443 178.877 258.397 177.73 257.33L173.971 253.82C172.969 253.089 172.26 252.026 171.971 250.82V252.82C170.484 251.34 169.001 249.853 167.521 248.36C167.37 249.257 167.484 250.178 167.851 251.01C165.318 248.695 162.905 246.252 160.621 243.69C155.431 237.88 148.44 220.12 144.48 209.31C143.96 208.46 143.65 207.93 143.65 207.93C143.65 207.93 155.231 242.44 162.871 251C175.371 265 184.521 269 192.741 271.31C196.741 272.42 210.961 268.15 213.871 265.19C220.961 257.99 225.981 249.6 228.581 230.77C230.371 217.77 220.931 179.35 220.931 179.35C220.931 179.35 221.09 180.88 221.25 183.36Z" fill="#BD8242"/>
</g>
<path d="M205.32 132.43C205.4 131.502 205.4 130.568 205.32 129.64C204.89 125.64 202.43 121.64 198.55 120.55C198.334 121.117 197.976 121.619 197.51 122.008C197.044 122.396 196.487 122.659 195.89 122.77C196.11 119.45 193.53 116.47 190.49 115.14C187.45 113.81 182.49 114.26 179.17 114.28C180.26 116.34 178 121.18 176.17 122.62C175.477 122.108 174.899 121.457 174.47 120.71C173.917 121.481 173.241 122.157 172.47 122.71C171.727 120.997 170.851 119.346 169.85 117.77C169.85 117.77 169.38 123.91 156.92 129.52C156.089 128.348 155.623 126.956 155.58 125.52C154.755 125.814 154.042 126.357 153.539 127.073C153.035 127.789 152.767 128.644 152.77 129.52C151.711 128.966 150.522 128.708 149.329 128.773C148.136 128.838 146.982 129.224 145.99 129.89C147.99 129.77 149.46 129.45 150.09 131.46C150.09 131.46 147.52 132.13 146.17 132.6C138.51 135.23 138.39 138.71 132.25 143.6L134.11 143.52L129.26 147.23C129.582 147.024 129.946 146.894 130.325 146.849C130.704 146.804 131.089 146.845 131.45 146.97C129.333 148.944 127.025 150.703 124.56 152.22L129.37 151.64C128.15 153.639 126.693 155.482 125.03 157.13C125.542 156.9 126.121 156.861 126.66 157.02C126.901 158.032 126.842 159.091 126.49 160.07C126.569 159.742 126.741 159.444 126.986 159.211C127.231 158.979 127.538 158.822 127.87 158.76C127.836 160.065 127.49 161.343 126.862 162.487C126.234 163.632 125.342 164.61 124.26 165.34C125.045 165.226 125.798 164.95 126.47 164.53C125.87 167.797 125.267 171.06 124.66 174.32C124.913 174.24 125.148 174.11 125.351 173.939C125.553 173.767 125.719 173.557 125.84 173.32C126.25 175.62 130.29 183.8 131.12 187.71C131.21 187.55 131.3 187.34 131.4 187.18C134.778 196.636 139.493 205.56 145.4 213.68C145.92 214.38 146.98 213.93 146.98 213.93C141.53 203.59 139.3 188.62 139.2 182.61C139.05 173.46 137.3 161.34 160.09 162.44C196.29 164.17 200.5 148.96 200.5 148.96C211.56 156.09 219.88 177.59 222.15 193.24C222.15 193.24 223.22 193.5 223.15 192.7C223.09 189.86 220.65 172.02 218.25 157.37C216.52 146.82 212.32 137.77 205.32 132.43Z" fill="#BD8242"/>
<g style="mix-blend-mode:multiply" opacity="0.3">
<g style="mix-blend-mode:multiply" opacity="0.3">
<path d="M174.42 120.71C173.867 121.481 173.191 122.157 172.42 122.71C171.677 120.997 170.801 119.346 169.8 117.77C169.8 117.77 169.75 118.04 169.64 118.42C169.765 119.022 169.77 119.643 169.655 120.247C169.54 120.851 169.308 121.426 168.97 121.94C167.757 124.092 166.188 126.022 164.33 127.65C168.495 126.808 172.202 124.458 174.74 121.05C174.63 120.88 174.49 120.88 174.42 120.71Z" fill="#BD8242"/>
</g>
<g style="mix-blend-mode:multiply" opacity="0.3">
<path d="M202.149 122.88C202.13 123.65 202.059 124.419 201.939 125.18C201.594 126.725 200.933 128.182 200 129.46C197.399 133.336 193.926 136.548 189.859 138.84C193.799 138.028 197.587 136.608 201.089 134.63C202.529 133.88 203.939 133.06 205.319 132.2C205.384 131.341 205.384 130.479 205.319 129.62C205.022 127.089 203.91 124.723 202.149 122.88V122.88Z" fill="#BD8242"/>
</g>
<g style="mix-blend-mode:multiply" opacity="0.3">
<path d="M198.641 120.62L198.51 120.55C198.294 121.117 197.937 121.619 197.471 122.008C197.005 122.396 196.447 122.659 195.851 122.77C195.922 121.149 195.412 119.557 194.411 118.28C194.251 118.65 194.081 119.01 193.911 119.36C193.182 120.954 192.29 122.469 191.25 123.88C189.53 125.858 187.463 127.505 185.15 128.74C189.183 127.759 192.975 125.973 196.3 123.49C197.332 122.77 198.143 121.776 198.641 120.62V120.62Z" fill="#BD8242"/>
</g>
</g>
<g style="mix-blend-mode:multiply" opacity="0.3">
<path d="M199.97 144.36C199.97 144.36 195.76 159.56 159.56 157.83C136.77 156.74 138.56 168.83 138.68 178.01C138.749 180.185 138.939 182.356 139.25 184.51C139.2 183.81 139.15 183.1 139.14 182.51C138.99 173.36 137.24 161.24 160.03 162.34C196.23 164.07 200.44 148.86 200.44 148.86C211.5 155.99 219.82 177.49 222.09 193.14L221.63 188.61C219.35 172.98 211.03 151.49 199.97 144.36Z" fill="#BD8242"/>
</g>
<g style="mix-blend-mode:multiply" opacity="0.5">
<path d="M191.31 204.93C191.31 204.93 195.19 211.63 194.91 214.63C194.63 217.63 180.96 220.5 179.17 219.32C177.38 218.14 176.99 209.16 176.99 209.16C176.99 209.16 177.99 215.58 180.4 216.71C182.81 217.84 191.46 214.71 192.18 212.92C192.9 211.13 191.31 204.93 191.31 204.93Z" fill="#E6966E"/>
</g>
<path d="M157.599 194.65C169.389 190.8 171.819 200.65 171.819 200.65C171.819 200.65 166.699 195.89 158.579 198.86C153.579 200.67 151.269 206.49 151.269 206.49C151.269 206.49 148.719 197.54 157.599 194.65Z" fill="#E6966E"/>
<path d="M158.809 197.97C168.809 194.15 171.809 200.66 171.809 200.66C169.885 199.557 167.723 198.935 165.507 198.846C163.291 198.758 161.086 199.205 159.079 200.15C152.779 203.15 151.259 206.5 151.259 206.5C151.259 206.5 150.169 201.25 158.809 197.97Z" fill="#412118"/>
<path d="M200.64 182.15C189.24 184.75 192.31 195.15 192.31 195.15C192.31 195.15 194.03 188.39 202.47 186.48C207.63 185.31 212.75 188.93 212.75 188.93C212.75 188.93 210.53 179.88 200.64 182.15Z" fill="#E6966E"/>
<path d="M201.511 186.07C191.151 188.83 192.321 195.07 192.321 195.07C193.363 193.16 194.826 191.512 196.598 190.249C198.37 188.986 200.405 188.142 202.551 187.78C209.371 186.42 212.751 188.84 212.751 188.84C212.751 188.84 210.601 183.64 201.511 186.07Z" fill="#412118"/>
<path d="M147.39 186.74C151.71 184.04 168.81 178.02 169.97 178.83C171.13 179.64 171.69 184.15 169.97 184.56C162.2 186.35 154.66 188.27 147.97 191.21C146.085 192.221 144.312 193.428 142.68 194.81C142.68 194.81 143.75 189 147.39 186.74Z" fill="#8B5E3C"/>
<path d="M203.861 169.35C198.411 169.5 181.861 173.81 181.331 175.12C180.801 176.43 182.851 180.79 184.531 180.12C191.589 177.474 198.85 175.404 206.241 173.93C209.351 173.34 213.011 172.93 213.011 172.93C213.011 172.93 208.141 169.23 203.861 169.35Z" fill="#8B5E3C"/>
<path d="M176.98 234.56C176.98 234.56 185.661 248.37 197.741 242.35C206.481 237.99 205.46 226.2 205.46 226.2C203.06 227.33 197.77 229.84 194.46 230.94C183.11 234.73 176.98 234.56 176.98 234.56Z" fill="#A63F42"/>
<path d="M181.54 236.88C183.49 237.75 187.739 237.06 195.279 234.52C197.949 233.62 202.33 231.2 203.08 230.38C203.841 229.358 204.198 228.089 204.08 226.82C201.39 228.08 197.239 229.99 194.419 230.93C193.419 231.26 192.53 231.53 191.62 231.8L190.52 232.14C186.61 233.326 182.589 234.11 178.52 234.48C179.33 235.5 180.363 236.321 181.54 236.88V236.88Z" fill="#FFFCF7"/>
<g style="mix-blend-mode:multiply" opacity="0.2">
<path d="M98.25 399.22C99.66 421.07 100.05 443.69 97.3398 459.74C96.3398 465.55 91.7398 474.58 85.5898 484.74L85.6499 484.67C106.94 461.15 128.26 455.76 128.26 455.76C128.26 455.76 103.25 427.09 98.25 399.22Z" fill="#8C6048"/>
</g>
<path d="M151 447.88C155.64 449.37 151.79 460.44 147.23 458.74C142.59 457.24 146.43 446.18 151 447.88Z" fill="#A67255"/>
<path d="M137.25 475.53C141.89 477.02 138.04 488.09 133.48 486.38C128.88 484.88 132.72 473.82 137.25 475.53Z" fill="#A67255"/>
<path d="M125.58 502.47C130.22 503.96 126.37 515.03 121.81 513.32C117.17 511.88 121.01 500.76 125.58 502.47Z" fill="#A67255"/>
</g>
<g style="mix-blend-mode:screen" opacity="0.3">
<path d="M264.839 42.1097C268.759 36.2297 265.53 29.6798 258.18 25.7798C250.83 21.8798 243.179 21.8597 239.859 28.0997C236.539 34.3397 238.999 44.4198 246.939 47.5598C254.879 50.6998 261.249 47.5397 264.839 42.1097Z" fill="#E6E7E8"/>
</g>
<g style="mix-blend-mode:screen" opacity="0.3">
<path d="M242.649 33.12C245.959 26.89 253.65 26.9 260.97 30.8C262.941 31.8186 264.721 33.1721 266.229 34.8C265.399 31.32 262.539 28.06 258.229 25.8C250.889 21.89 243.23 21.88 239.91 28.12C237.43 32.77 238.179 39.56 242.009 44.01C240.776 40.4379 241.006 36.5231 242.649 33.12V33.12Z" fill="#E6E7E8"/>
</g>
<g style="mix-blend-mode:screen" opacity="0.3">
<path d="M228.19 21.6498C231.51 15.4198 227.19 9.06985 219.86 5.16985C212.53 1.26985 205.27 2.24986 202.59 8.79986C200.13 14.7999 201.09 21.8699 208.09 26.6699C215.09 31.4699 224.88 27.8798 228.19 21.6498Z" fill="#E6E7E8"/>
</g>
<g style="mix-blend-mode:screen" opacity="0.3">
<path d="M205.519 14.3397C208.199 7.78974 215.439 6.79973 222.789 10.7097C225.155 11.9357 227.284 13.571 229.079 15.5398C228.269 11.5398 224.779 7.77982 219.859 5.16982C212.509 1.25982 205.269 2.24982 202.589 8.79982C201.506 11.2065 201.129 13.8713 201.5 16.4841C201.872 19.097 202.978 21.5507 204.689 23.5598C203.982 20.4762 204.273 17.2475 205.519 14.3397V14.3397Z" fill="#E6E7E8"/>
</g>
<path d="M266.731 31.88C261.631 24.95 254.581 21.08 244.731 21.21C244.238 21.2095 243.751 21.1101 243.297 20.9177C242.844 20.7253 242.434 20.4438 242.091 20.09C239.896 17.6946 236.971 16.0915 233.771 15.53C233.243 15.4629 232.736 15.2857 232.281 15.0101C231.826 14.7345 231.434 14.3666 231.131 13.9301C225.741 5.79005 218.561 2.04006 210.011 1.69006C206.843 2.103 203.625 1.51186 200.811 0L199.301 3.06006C201.301 4.67006 201.721 6.69003 200.241 9.53003C200.472 9.87202 200.783 10.152 201.147 10.3456C201.512 10.5391 201.918 10.6402 202.331 10.64C205.621 4.00001 211.121 1.98 219.461 5.87C227.211 9.64 230.151 14.81 227.881 21.49C228.171 22.59 229.121 23.42 230.191 22.88C230.485 22.7859 230.751 22.62 230.965 22.3973C231.179 22.1746 231.335 21.9021 231.417 21.6044C231.499 21.3067 231.506 20.9932 231.437 20.6921C231.368 20.3911 231.225 20.1119 231.021 19.88C231.671 18.27 233.021 17.88 234.551 18.28C236.315 18.7271 237.935 19.6227 239.251 20.88C240.441 21.96 240.871 23.25 239.901 24.7C239.6 24.6688 239.295 24.7112 239.014 24.8236C238.733 24.936 238.483 25.1149 238.287 25.3451C238.09 25.5753 237.952 25.8498 237.885 26.145C237.818 26.4403 237.823 26.7474 237.901 27.04C238.071 28.23 239.281 28.56 240.351 28.17C244.621 22.56 250.551 22.1 258.011 26.41C265.901 31.14 267.311 36.84 263.651 43.28C263.884 43.6202 264.196 43.8988 264.56 44.0922C264.924 44.2855 265.329 44.3877 265.741 44.39C267.261 41.57 269.151 40.77 271.621 41.54L273.321 38.54C270.481 37.0643 268.177 34.7349 266.731 31.88V31.88Z" fill="#3F2216"/>
<path d="M228.25 21.2596C222.54 29.4396 214.749 29.5896 209.819 27.2596C206.771 25.7845 204.344 23.2752 202.973 20.1785C201.601 17.0818 201.373 13.5987 202.33 10.3496L201.56 10.0996C200.572 13.4268 200.769 16.9935 202.116 20.1919C203.464 23.3903 205.879 26.0223 208.95 27.6396L209.509 27.9197C212.586 29.429 216.103 29.7838 219.419 28.9197C223.336 27.7421 226.706 25.2117 228.93 21.7797L228.25 21.2596Z" fill="#3F2216"/>
<path d="M263.891 43.2299C261.735 45.844 258.721 47.6077 255.386 48.2065C252.051 48.8054 248.612 48.2006 245.681 46.4999C240.961 43.7299 236.681 37.1999 240.321 27.8799L239.561 27.5698C237.961 31.3309 237.752 35.5387 238.971 39.4399C240.096 42.6769 242.345 45.4022 245.311 47.1199L245.851 47.4299C248.91 49.0721 252.445 49.6018 255.851 48.9288C259.258 48.2559 262.325 46.422 264.53 43.7399L263.891 43.2299Z" fill="#3F2216"/>
<path d="M271.591 39.1001L270.291 38.4001C270.253 38.384 270.22 38.3603 270.191 38.3306C270.163 38.301 270.141 38.2659 270.127 38.2275C270.113 38.1891 270.108 38.1482 270.11 38.1074C270.112 38.0666 270.123 38.0266 270.141 37.9901V37.9901C270.162 37.9554 270.189 37.9252 270.221 37.9013C270.254 37.8774 270.29 37.8602 270.33 37.8509C270.369 37.8416 270.409 37.8403 270.449 37.847C270.489 37.8537 270.527 37.8684 270.561 37.8901L271.861 38.58C271.935 38.6149 271.993 38.677 272.022 38.7533C272.052 38.8295 272.052 38.9142 272.021 38.9901V38.9901C271.976 39.0586 271.907 39.1078 271.827 39.1281C271.748 39.1485 271.663 39.1385 271.591 39.1001V39.1001Z" fill="#B3B3B3"/>
<path d="M302.051 81.9598L301.051 68.5599C301.051 68.5599 296.581 37.9698 295.721 36.0898C294.861 34.2098 277.791 25.0298 276.041 24.9598C274.291 24.8898 258.691 29.3898 257.341 30.1398C255.991 30.8898 249.441 36.9799 250.171 37.9099C251.911 40.0599 255.111 38.6398 255.111 38.6398L247.031 43.5098C245.711 44.2998 246.481 45.5098 247.391 45.9798C248.316 46.4439 249.313 46.745 250.341 46.8698C249.431 50.0098 248.531 53.4498 248.531 53.4498C249.021 53.7805 249.604 53.9497 250.195 53.9335C250.787 53.9174 251.359 53.7168 251.831 53.3598C251.831 53.3598 249.051 57.2399 249.631 57.7999C251.471 59.5599 254.281 58.0698 256.001 56.3598C257.31 54.9474 258.463 53.3985 259.441 51.7398C261.991 50.9598 264.441 50.4899 265.891 49.4399C265.891 49.4399 270.541 53.2798 271.201 54.6298C272.943 57.9676 274.067 61.5924 274.521 65.3298C274.961 70.3298 280.111 74.5898 282.191 75.0098C284.895 75.5806 287.42 76.7986 289.55 78.5594C291.68 80.3202 293.352 82.5714 294.421 85.1198L302.051 81.9598Z" fill="#E6966E"/>
<g style="mix-blend-mode:multiply" opacity="0.5">
<g style="mix-blend-mode:multiply" opacity="0.5">
<path d="M269.56 32.1297C300.64 44.2697 269.94 30.3096 269.03 30.7096C235.47 45.4796 272.77 32.0497 269.56 32.1297Z" fill="#E6966E"/>
</g>
</g>
<g style="mix-blend-mode:multiply" opacity="0.5">
<g style="mix-blend-mode:multiply" opacity="0.5">
<path d="M277.569 46.3899C268.769 42.6299 265.169 37.7699 251.789 53.2999C252.599 54.0099 249.049 53.0399 268.349 43.4999C266.859 43.5199 277.249 47.1199 277.569 46.3899Z" fill="#E6966E"/>
</g>
</g>
<g style="mix-blend-mode:multiply" opacity="0.5">
<g style="mix-blend-mode:multiply" opacity="0.5">
<path d="M279.099 40.9398C266.159 35.4098 272.889 35.7097 255.769 40.8697C245.619 52.7197 249.179 44.8697 269.719 38.0997C268.769 38.0497 278.759 41.7298 279.099 40.9398Z" fill="#E6966E"/>
</g>
</g>
<path d="M256.35 270.37C252.59 273.37 258.899 362.37 266.419 382.17C276.529 350.54 345.79 269.17 357.83 190.27C360.45 173.16 316.91 161.27 310.83 175.83C297.6 207.51 282.2 244.64 273.64 255.69C270.48 259.79 256.35 259.64 256.35 270.37Z" fill="#8C6048"/>
<path d="M308.58 72.5897L304.5 62.8397C294.41 59.9797 278.16 74.9997 278.16 74.9997L282.33 84.8297L308.58 72.5897Z" fill="#F1F2F2"/>
<path d="M356.77 153.58C348.98 128.93 320.92 84.7498 307.77 65.0498C307.77 65.0498 283.399 70.6998 277.529 79.4098C277.449 89.8698 304.69 154.87 310.81 175.83C315.47 191.75 346.71 223.34 349.61 214.53C353.99 201.35 365.37 180.8 356.77 153.58Z" fill="#8C6048"/>
<g style="mix-blend-mode:multiply" opacity="0.2">
<path d="M356.77 153.58C356.05 151.31 355.11 148.82 354.07 146.25C356.07 157.39 356.2 168.92 354.38 176.54C326.69 239.54 286.38 306.54 268.44 344.88C263.18 355.875 262.207 368.436 265.71 380.11C265.95 380.86 266.18 381.55 266.42 382.17C276.53 350.54 345.79 269.17 357.83 190.27C357.83 190.27 357.83 190.27 357.83 190.22C360.909 178.148 360.542 165.454 356.77 153.58Z" fill="#8C6048"/>
</g>
<path d="M352.039 181.78C350.039 186.37 343.609 209.45 350.089 222.11C353.515 211.721 356.104 201.073 357.829 190.27C357.829 190.27 357.829 190.27 357.829 190.22C360.907 178.148 360.54 165.454 356.769 153.58C346.719 154.08 354.379 176.54 352.039 181.78Z" fill="#664634"/>
</svg>
