<svg width="350" height="470" viewBox="0 0 350 470" fill="none" xmlns="http://www.w3.org/2000/svg">
<mask id="mask0_1254_12335" style="mask-type:alpha" maskUnits="userSpaceOnUse" x="0" y="0" width="350" height="470">
<path d="M175 470C271.65 470 350 364.787 350 235C350 105.213 271.65 0 175 0C78.3502 0 0 105.213 0 235C0 364.787 78.3502 470 175 470Z" fill="#EDEDED"/>
</mask>
<g mask="url(#mask0_1254_12335)">
<path d="M175 470C271.65 470 350 364.787 350 235C350 105.213 271.65 0 175 0C78.3502 0 0 105.213 0 235C0 364.787 78.3502 470 175 470Z" fill="#EDEDED"/>
<path d="M168.121 202.229C168.36 202.227 168.596 202.172 168.812 202.068C169.028 201.964 169.219 201.815 169.371 201.629C176.041 193.379 191.491 184.289 227.281 187.799L228.551 187.929C233.741 188.369 239.411 193.799 240.451 199.309C240.486 199.518 240.564 199.718 240.679 199.896C240.793 200.075 240.943 200.229 241.119 200.348C241.294 200.467 241.492 200.55 241.7 200.592C241.908 200.633 242.123 200.632 242.33 200.589C242.749 200.509 243.119 200.266 243.359 199.913C243.599 199.561 243.69 199.128 243.611 198.709C242.311 191.819 235.4 185.289 228.83 184.709L227.591 184.589C190.381 180.939 174.041 190.729 166.871 199.589C166.68 199.825 166.561 200.11 166.525 200.412C166.49 200.713 166.541 201.018 166.671 201.292C166.802 201.566 167.007 201.797 167.264 201.959C167.52 202.122 167.817 202.208 168.121 202.209V202.229Z" fill="#58595B"/>
<path d="M71.9904 283.971C71.9904 283.971 108.73 238.141 130.27 216.171C149.48 196.591 177.81 199.931 180.6 233.811C183.08 263.921 99.4002 312.181 81.5002 320.991C70.8502 326.241 71.9904 283.971 71.9904 283.971Z" fill="#8C6048"/>
<path d="M53.0005 227.709C63.0005 237.629 97.7207 275.789 97.7207 275.789C97.7207 275.789 91.4607 319.579 79.7207 321.309C67.9807 323.039 34.2006 269.559 24.6006 236.309C23.1706 231.419 45.3805 220.169 53.0005 227.709Z" fill="#8C6048"/>
<path d="M61.061 304.259C65.111 305.169 68.891 307.379 73.061 307.449C77.731 307.519 81.9412 304.889 86.2812 303.139C94.8111 299.773 104.292 299.716 112.861 302.98C99.0913 311.65 87.101 318.24 81.521 320.98C80.7437 321.384 79.8386 321.466 79.001 321.209C74.561 321.099 67.481 314.209 59.811 304.049C60.221 304.109 60.651 304.169 61.061 304.259Z" fill="#664634"/>
<g style="mix-blend-mode:multiply" opacity="0.2">
<path d="M30.3503 229.82C43.5903 260.82 68.1604 297.42 78.4904 297.67C79.3301 297.931 80.2381 297.852 81.0202 297.45C96.8902 289.62 164.51 250.76 177.83 221.07C179.341 225.168 180.273 229.456 180.6 233.81C183.08 263.92 99.4002 312.18 81.5002 320.99C80.7229 321.395 79.8178 321.477 78.9802 321.22C66.6602 320.92 33.9805 268.94 24.5905 236.31C24.0805 234.57 26.5903 232.03 30.3503 229.82Z" fill="#8C6048"/>
</g>
<g style="mix-blend-mode:multiply" opacity="0.5">
<path d="M53.0007 227.709C54.0007 228.709 55.2208 229.939 56.5808 231.359C56.5808 231.449 58.9008 244.119 42.2908 243.069C36.0797 242.775 30.0685 240.782 24.9109 237.309C24.8109 236.989 24.6811 236.629 24.5911 236.309C23.1711 231.419 45.3807 220.169 53.0007 227.709Z" fill="#8C6048"/>
</g>
<path d="M57.9707 745.359C58.1807 741.839 130.061 513.519 131.151 509.009C132.651 502.849 139.221 459.759 139.221 459.759C159.881 425.759 202.601 443.319 202.601 443.319L263.801 455.319C276.411 479.999 277.91 495.499 279.96 520.099C283.84 566.629 268.331 737.469 271.261 749.689C278.261 778.979 313.181 888.949 311.391 927.979C311.359 928.925 311.023 929.837 310.432 930.577C309.841 931.318 309.027 931.848 308.111 932.089C299.251 934.449 267.74 942.089 264.98 933.259C244.61 868.129 209.791 779.309 208.221 765.869C206.071 747.459 192.71 619.869 192.71 619.869L123.891 762.029C127.891 805.639 112.411 896.739 105.891 921.859C104.891 925.549 103.531 932.639 103.531 932.639C84.5307 938.379 53.3907 933.359 54.5307 926.909C54.8107 925.189 55.9607 779.199 57.9707 745.359Z" fill="#36393D"/>
<path d="M268.611 450.929C245.501 454.229 192.401 455.099 170.851 451.189C149.301 447.279 139.741 445.109 139.741 445.109L139.221 459.759C139.221 459.759 136.641 465.529 172.921 469.139C215.351 473.359 261.101 469.369 268.611 466.249C272.021 464.819 268.611 450.929 268.611 450.929Z" fill="#1D1D1B"/>
<path d="M168.901 467.169C168.901 468.409 169.351 469.439 170.001 469.459L182.891 469.859C183.531 469.859 184.091 468.859 184.131 467.639L184.541 454.309C184.541 453.059 184.091 452.029 183.441 452.019L170.551 451.609C169.901 451.609 169.351 452.609 169.311 453.839L168.901 467.169Z" fill="#1D1D1B"/>
<path d="M182.911 470.82C183.349 470.814 183.769 470.639 184.081 470.33C184.742 469.608 185.1 468.659 185.081 467.68L185.501 454.35C185.527 453.663 185.394 452.978 185.111 452.35C184.983 452.013 184.761 451.72 184.473 451.504C184.184 451.288 183.84 451.158 183.481 451.13L170.591 450.73H170.541C169.351 450.73 168.431 452.07 168.381 453.87L167.961 467.2C167.883 468.176 168.179 469.145 168.791 469.91C168.942 470.079 169.125 470.215 169.329 470.311C169.534 470.407 169.755 470.461 169.981 470.47L182.871 470.87L182.911 470.82ZM170.671 452.54L183.411 452.97C183.524 453.402 183.587 453.845 183.601 454.29L183.181 467.62C183.213 468.099 183.067 468.573 182.771 468.95L170.031 468.52C169.918 468.093 169.858 467.653 169.851 467.21L170.261 453.88C170.237 453.392 170.394 452.911 170.701 452.53L170.671 452.54Z" fill="#C3B398"/>
<path d="M227.401 188.819C224.111 183.669 184.941 186.039 182.451 187.899C179.961 189.759 173.311 207.529 173.311 207.529V232.529L230.641 227.189L230.861 206.109C230.861 206.109 230.631 193.819 227.401 188.819Z" fill="#BCBEC0"/>
<path d="M285.391 231.901C261.961 222.491 246.821 213.421 239.841 210.041C234.031 207.341 234.561 199.211 232.041 193.131C226.451 179.571 228.791 162.541 228.791 162.541L227.971 135.641L196.591 144.641C196.591 144.641 186.891 184.331 182.821 196.901C180.731 203.341 175.161 204.901 170.511 206.201C154.811 210.551 135.131 341.311 141.511 380.201C144.361 397.611 262.841 396.841 264.281 380.561C267.621 342.941 282.191 270.281 285.391 231.901Z" fill="#E6966E"/>
<path d="M232.222 205.219C228.472 209.089 218.582 216.759 207.222 223.739C197.322 229.849 185.431 245.659 185.431 245.659C185.431 245.659 176.432 229.659 174.762 220.189C173.582 213.519 173.672 210.119 167.222 207.049L135.942 216.459C126.622 221.999 132.942 319.829 132.942 319.829C132.942 319.829 137.942 385.169 139.692 445.109C139.692 445.109 141.162 457.789 184.172 459.349C223.252 460.759 268.561 450.929 268.561 450.929C255.621 414.169 288.322 331.099 288.322 331.099C294.516 303.866 299.306 276.333 302.672 248.609C302.672 248.609 306.671 231.129 276.101 220.809L232.222 205.219Z" fill="#E6E7E8"/>
<path d="M210.551 215.599C208.551 217.399 185.48 245.659 185.48 245.659C185.48 245.659 200.561 233.499 207.551 227.289L214.551 238.469L233.141 190.189C233.141 190.189 212.531 213.819 210.551 215.599Z" fill="#D1D3D4"/>
<path d="M210.552 215.599L214.552 238.469C214.552 238.469 244.672 214.589 243.492 205.919C243.082 202.919 233.072 189.359 233.072 189.359L210.552 215.599Z" fill="#F1F2F2"/>
<path d="M173.311 207.479C171.431 214.729 185.48 245.659 185.48 245.659C185.48 245.659 174.831 231.819 175.111 225.369L164.401 229.739L171.121 204.219L173.311 207.479Z" fill="#D1D3D4"/>
<path d="M173.701 206.53L164.421 229.74C164.421 229.74 165.191 215.44 166.811 206.85C167.381 203.85 182.471 187.85 182.471 187.85L173.701 206.53Z" fill="#F1F2F2"/>
<path d="M180.651 253.64L169.161 453.99L173.241 407.42L185.48 245.66L180.651 253.64Z" fill="#D1D3D4"/>
<g style="mix-blend-mode:multiply" opacity="0.5">
<g style="mix-blend-mode:multiply" opacity="0.5">
<path d="M142.072 340.919L141.762 340.859L142.072 340.919Z" fill="#F1F2F2"/>
</g>
</g>
<path d="M202.63 397.339C202.63 397.339 204.2 538.699 204.63 545.939C205.06 553.179 300.43 540.229 302.68 533.319C304.93 526.409 279.74 418.189 279.76 405.879C279.78 393.569 296.01 313.789 299.22 286.089C300.71 273.269 304.08 238.249 294.96 229.989C285.03 220.989 255.51 211.879 255.51 211.879C255.51 211.879 227.61 238.469 219.24 267.159C210.08 298.659 202.63 397.339 202.63 397.339Z" fill="#8C6048"/>
<g style="mix-blend-mode:screen" opacity="0.3">
<path d="M180.941 465.82L199.171 463.52C199.661 504.45 200.311 554.79 200.571 559.04C200.901 564.39 253.051 558.71 281.161 552.59C282.081 619.95 268.821 739.52 271.261 749.71C278.261 779 313.181 888.97 311.391 928C311.359 928.946 311.023 929.858 310.432 930.598C309.841 931.339 309.027 931.869 308.111 932.11C299.251 934.47 267.74 942.11 264.98 933.28C244.61 868.15 209.791 779.33 208.221 765.89C206.071 747.48 192.71 619.89 192.71 619.89L179.54 552.46L169.921 539.99V465.49L180.941 465.82Z" fill="#2E2B2D"/>
</g>
<path d="M255.531 211.879C255.581 210.819 249.031 205.299 238.531 198.199C238.531 198.199 225.661 220.199 222.431 232.469C214.481 262.669 194.081 288.359 202.621 397.339C202.751 399.019 217.361 290.509 240.751 259.419L231.461 244.219L241.201 240.279C241.201 240.279 255.261 216.759 255.531 211.879Z" fill="#A67255"/>
<path d="M299.78 281.149C261.56 312.859 227.66 319.699 206.68 319.149C202.39 319.029 212.14 268.979 212.14 268.979C212.14 268.979 264.76 223.359 287.83 222.279C304.99 221.489 312.52 243.529 312.03 251.699C311.57 259.369 308.09 274.249 299.78 281.149Z" fill="#8C6048"/>
<g style="mix-blend-mode:multiply" opacity="0.2">
<path d="M311.262 257.6C309.802 265.5 306.262 275.75 299.782 281.15C261.562 312.86 227.662 319.7 206.682 319.15C204.542 319.09 205.902 306.59 207.792 294.09C228.322 294.29 274.442 285.3 311.262 257.6Z" fill="#8C6048"/>
</g>
<path d="M217.511 397.55C218.646 397.475 219.778 397.738 220.763 398.307C221.748 398.875 222.542 399.723 223.045 400.744C223.549 401.764 223.738 402.91 223.589 404.038C223.441 405.166 222.961 406.224 222.211 407.079C221.461 407.934 220.474 408.548 219.376 408.842C218.277 409.136 217.115 409.097 216.038 408.731C214.961 408.365 214.017 407.688 213.325 406.785C212.633 405.882 212.225 404.795 212.151 403.66C212.101 402.906 212.2 402.15 212.442 401.435C212.684 400.72 213.065 400.06 213.563 399.493C214.061 398.925 214.666 398.461 215.343 398.128C216.021 397.794 216.757 397.598 217.511 397.55Z" fill="#A67255"/>
<path d="M219.511 428.19C220.646 428.115 221.778 428.379 222.763 428.947C223.748 429.516 224.542 430.364 225.045 431.384C225.549 432.404 225.738 433.551 225.589 434.678C225.441 435.806 224.961 436.865 224.211 437.72C223.461 438.575 222.474 439.188 221.376 439.482C220.277 439.776 219.115 439.738 218.038 439.372C216.961 439.006 216.017 438.329 215.325 437.426C214.633 436.523 214.225 435.435 214.151 434.3C214.052 432.779 214.561 431.282 215.566 430.136C216.571 428.99 217.99 428.29 219.511 428.19Z" fill="#A67255"/>
<path d="M221.511 458.669C222.646 458.594 223.778 458.857 224.763 459.426C225.748 459.995 226.542 460.843 227.045 461.863C227.549 462.883 227.738 464.029 227.589 465.157C227.441 466.285 226.961 467.343 226.211 468.198C225.461 469.053 224.474 469.667 223.376 469.961C222.277 470.255 221.115 470.217 220.038 469.85C218.961 469.484 218.017 468.807 217.325 467.904C216.633 467.002 216.225 465.914 216.151 464.779C216.099 464.025 216.197 463.269 216.439 462.553C216.681 461.837 217.062 461.177 217.56 460.609C218.058 460.041 218.663 459.577 219.341 459.244C220.019 458.911 220.757 458.716 221.511 458.669Z" fill="#A67255"/>
<path d="M151.832 385.089C151.832 385.089 135.282 533.089 134.082 540.259C133.262 545.169 118.032 535.969 115.792 529.059C113.552 522.149 132.702 433.129 132.702 420.819C132.702 408.509 129.432 307.719 126.792 282.309C125.452 269.469 123.792 223.099 134.452 216.899C138.752 214.389 160.342 208.199 160.342 208.199L155.402 241.199L151.832 385.089Z" fill="#8C6048"/>
<path d="M154.7 210.111C154.95 209.421 158.6 207.911 170.15 201.801C170.15 201.801 160.67 221.091 159.55 233.701C155.96 273.991 152.95 365.831 152.95 365.831L151.85 385.091L142.02 266.891L151.48 251.781L141.78 247.781C141.78 247.781 153.09 214.731 154.7 210.111Z" fill="#A67255"/>
<path d="M92.3713 286.999C93.7642 286.997 95.1513 286.822 96.5012 286.479C119.841 280.639 145.771 239.139 161.251 214.349C166.391 206.119 170.441 199.629 172.451 197.629C172.715 197.321 172.852 196.925 172.837 196.52C172.821 196.115 172.653 195.731 172.366 195.444C172.08 195.158 171.696 194.99 171.291 194.974C170.886 194.958 170.489 195.096 170.181 195.359C167.911 197.619 163.981 203.919 158.531 212.639C143.301 237.029 117.811 277.839 95.7312 283.369C93.8014 283.866 91.7852 283.924 89.8298 283.54C87.8745 283.156 86.0298 282.339 84.4314 281.149C64.2314 267.289 56.4313 205.539 56.3113 204.909C56.2539 204.489 56.0345 204.109 55.7 203.849C55.3654 203.589 54.9421 203.471 54.5212 203.519C54.3123 203.545 54.1105 203.612 53.9275 203.716C53.7445 203.82 53.584 203.959 53.4548 204.126C53.3257 204.292 53.2306 204.482 53.175 204.685C53.1195 204.888 53.105 205.1 53.1316 205.309C53.4516 207.909 61.2316 269.119 82.6116 283.799C85.4589 285.843 88.8665 286.961 92.3713 286.999Z" fill="#58595B"/>
<path d="M117.771 224.57C120.031 224.57 121.861 222.18 121.861 219.25C121.861 216.32 120.031 213.93 117.771 213.93C115.511 213.93 113.681 216.32 113.681 219.25C113.681 222.18 115.511 224.57 117.771 224.57ZM117.771 215.12C119.371 215.12 120.671 216.97 120.671 219.25C120.671 221.53 119.371 223.37 117.771 223.37C116.171 223.37 114.871 221.52 114.871 219.25C114.871 216.98 116.171 215.12 117.771 215.12Z" fill="#58595B"/>
<path d="M57.4805 160.809H122.23C125.997 160.809 129.051 163.862 129.051 167.629V209.349C129.051 213.115 125.997 216.169 122.23 216.169H57.4805C53.7139 216.169 50.6606 213.115 50.6606 209.349V167.629C50.6606 163.862 53.7139 160.809 57.4805 160.809Z" fill="#58595B"/>
<path d="M67.292 151.279H78.8521C79.7633 151.279 80.502 152.018 80.502 152.929V163.049C80.502 163.961 79.7633 164.699 78.8521 164.699H67.292C66.3807 164.699 65.6421 163.961 65.6421 163.049V152.929C65.6421 152.018 66.3807 151.279 67.292 151.279Z" fill="#353436"/>
<path d="M63.1514 151.279H74.7109C75.6222 151.279 76.3613 152.018 76.3613 152.929V163.049C76.3613 163.961 75.6222 164.699 74.7109 164.699H63.1514C62.2401 164.699 61.501 163.961 61.501 163.049V152.929C61.501 152.018 62.2401 151.279 63.1514 151.279Z" fill="#414042"/>
<path d="M108.331 157.27H114.721C115.229 157.27 115.641 157.681 115.641 158.19V163.78C115.641 164.288 115.229 164.7 114.721 164.7H108.331C107.822 164.7 107.411 164.288 107.411 163.78V158.19C107.411 157.681 107.822 157.27 108.331 157.27Z" fill="#58595B"/>
<path d="M57.4805 160.809H122.23C125.997 160.809 129.051 163.862 129.051 167.629V209.349C129.051 213.115 125.997 216.169 122.23 216.169H57.4805C53.7139 216.169 50.6606 213.115 50.6606 209.349V167.629C50.6606 163.862 53.7139 160.809 57.4805 160.809Z" fill="#414042"/>
<path d="M57.4819 160.809H100.932C104.699 160.809 107.752 163.862 107.752 167.629V209.349C107.752 213.115 104.699 216.169 100.932 216.169H57.4819C53.7154 216.169 50.6621 213.115 50.6621 209.349V167.629C50.6621 163.862 53.7154 160.809 57.4819 160.809Z" fill="#58595B"/>
<g style="mix-blend-mode:screen" opacity="0.5">
<path d="M56.9717 160.82H122.702C124.378 160.82 125.985 161.486 127.17 162.671C128.356 163.857 129.021 165.464 129.021 167.14V176.52H50.7017V167.14C50.699 165.472 51.3572 163.871 52.5322 162.686C53.7072 161.502 55.3034 160.831 56.9717 160.82Z" fill="#A7A9AC"/>
</g>
<path d="M148.511 310.53C167.801 310.53 197.831 287.14 217.631 263.59C239.631 237.47 248.77 212.82 242.79 195.96C242.609 195.619 242.311 195.355 241.951 195.216C241.591 195.077 241.192 195.071 240.829 195.201C240.465 195.331 240.161 195.587 239.97 195.922C239.779 196.258 239.715 196.651 239.79 197.03C245.3 212.56 236.11 236.67 215.21 261.52C191.53 289.68 160.981 309.66 145.571 307.08C123.421 303.32 122.12 272.83 120.98 245.93C120.63 237.79 120.311 230.11 119.381 223.74C119.358 223.529 119.292 223.325 119.187 223.14C119.082 222.956 118.94 222.795 118.77 222.667C118.601 222.54 118.407 222.448 118.2 222.399C117.994 222.349 117.78 222.343 117.571 222.38C117.149 222.442 116.769 222.668 116.514 223.009C116.26 223.35 116.15 223.778 116.21 224.2C117.1 230.41 117.43 238.01 117.77 246.07C118.91 272.79 120.321 306.07 145.031 310.25C146.181 310.44 147.345 310.533 148.511 310.53Z" fill="#58595B"/>
<path d="M145.21 197.301C146.07 196.851 146.798 196.187 147.324 195.372C147.849 194.557 148.155 193.619 148.21 192.651C148.65 185.361 149.7 166.651 149.21 165.191C148.65 163.361 135.901 145.921 134.301 145.641C132.701 145.361 117.83 147.641 116.5 148.131C115.17 148.621 110.091 155.631 110.651 156.581C111.991 158.761 115.091 157.841 115.091 157.841C115.091 157.841 104.091 165.071 104.091 166.931C104.091 168.931 107.541 169.271 108.971 169.151C108.971 169.151 107.721 170.711 108.241 171.231C109.371 172.361 112.561 172.231 114.681 171.491C116.801 170.751 120.261 168.321 121.181 166.931C121.181 166.931 127.901 168.731 128.341 170.061C128.781 171.391 126.191 184.501 125.991 189.061C125.791 193.621 129.991 198.241 131.861 198.881C137.121 200.711 142.19 198.881 145.21 197.301Z" fill="#F7A379"/>
<g style="mix-blend-mode:multiply" opacity="0.5">
<path d="M124.791 157.13C121.941 157.39 110.191 167.96 110.191 167.96C110.191 167.96 123.901 158.86 125.141 158.57C126.381 158.28 132.481 161.51 134.861 162.25C134.861 162.25 127.631 156.87 124.791 157.13Z" fill="#F7A379"/>
</g>
<g style="mix-blend-mode:multiply" opacity="0.5">
<path d="M128.252 149.44C125.412 149.06 115.172 157.44 115.172 157.44C115.172 157.44 127.002 150.94 128.272 150.94C129.542 150.94 134.762 155.45 136.912 156.7C136.912 156.69 131.082 149.82 128.252 149.44Z" fill="#F7A379"/>
</g>
<path d="M56.5801 235.17C56.5801 235.17 54.8502 230.84 54.6602 230.34C53.3002 226.73 52.4403 225.34 49.8003 224.65L34.1704 220.82C30.9104 220.02 26.7604 221.26 26.9404 223.72C27.5904 232.38 28.9403 238.72 34.0703 241.24C38.3103 243.32 42.9604 243.41 48.1704 242.56C51.9804 241.94 56.1901 239.27 56.5801 235.17Z" fill="#F1F2F2"/>
<path d="M67.5811 169.67H75.6411C83.1311 169.67 89.2109 178.1 89.2109 188.49C89.2109 198.88 83.1311 207.31 75.6411 207.31H67.5811V169.67Z" fill="#353436"/>
<path d="M54.0103 188.49C54.0103 198.88 60.0801 207.31 67.5801 207.31C75.0801 207.31 81.1504 198.88 81.1504 188.49C81.1504 178.1 75.0701 169.67 67.5801 169.67C60.0901 169.67 54.0103 178.1 54.0103 188.49Z" fill="#414042"/>
<path d="M51.5005 171.23H66.7007C73.5707 171.23 79.1406 178.96 79.1406 188.49C79.1406 198.02 73.5707 205.75 66.7007 205.75H51.4707L51.5005 171.23Z" fill="#353436"/>
<path d="M39.061 188.49C39.061 198.02 44.631 205.75 51.501 205.75C58.371 205.75 63.9512 198.02 63.9512 188.49C63.9512 178.96 58.371 171.23 51.501 171.23C44.631 171.23 39.061 178.96 39.061 188.49Z" fill="#414042"/>
<path d="M40.8911 188.489C40.8911 196.609 45.641 203.199 51.501 203.199C57.361 203.199 62.1113 196.609 62.1113 188.489C62.1113 180.369 57.361 173.779 51.501 173.779C45.641 173.779 40.8911 180.359 40.8911 188.489Z" fill="#D1D3D4"/>
<path d="M50.7012 182.559C50.7012 184.949 52.1013 186.889 53.8213 186.889C55.5413 186.889 56.9512 184.949 56.9512 182.559C56.9512 180.169 55.5513 178.219 53.8213 178.219C52.0913 178.219 50.7012 180.159 50.7012 182.559Z" fill="#F1F2F2"/>
<path d="M45.5722 191.821C48.4118 191.142 51.3225 190.806 54.2421 190.821C54.2421 190.821 61.5822 191.271 62.0722 193.081C62.1489 193.485 62.1053 193.904 61.9472 194.284C61.7891 194.664 61.5231 194.99 61.1821 195.221L66.392 194.431C66.392 194.431 69.952 193.921 70.622 195.611C71.292 197.301 68.9023 199.341 68.9023 199.341C69.3141 199.433 69.6947 199.631 70.0068 199.915C70.3189 200.199 70.5516 200.559 70.6821 200.961C71.6821 203.371 67.5419 205.961 67.5419 205.961C67.5419 205.961 69.1823 205.511 69.6523 206.731C70.5923 209.181 68.2218 211.491 63.9618 214.281C55.8718 219.581 54.4618 219.731 54.4618 219.731C54.2349 222.088 53.8476 224.427 53.3022 226.731C51.4922 234.101 43.792 238.361 37.622 235.321L32.8823 232.981C30.6326 231.873 28.8576 229.991 27.8823 227.681C25.6523 222.501 27.8823 202.151 28.8823 200.311C30.3423 197.721 42.0322 192.921 45.5722 191.821Z" fill="#F7A379"/>
<g style="mix-blend-mode:multiply" opacity="0.5">
<g style="mix-blend-mode:multiply" opacity="0.5">
<path d="M68.1309 198.568L58.5806 202.988L48.7207 205.108L55.7305 202.118L68.1309 198.568Z" fill="#F7A379"/>
</g>
<g style="mix-blend-mode:multiply" opacity="0.5">
<path d="M39.3408 200.609L46.3506 197.619L61.1807 195.219L49.2007 198.489L39.3408 200.609Z" fill="#F7A379"/>
</g>
<g style="mix-blend-mode:multiply" opacity="0.5">
<path d="M67.6914 205.889L59.791 210.119L51.5811 212.039L57.3813 209.189L67.6914 205.889Z" fill="#F7A379"/>
</g>
</g>
<path d="M155.512 197.219L149.902 188.309L126.972 196.259L130.072 209.709L155.512 197.219Z" fill="#F1F2F2"/>
<path d="M153.572 192.08C170.252 208.85 202.292 235.24 214.232 258.17C231.462 291.25 230.802 310.61 210.362 318.72C201.742 322.13 182.682 306.32 172.612 293.13C157.282 273.13 129.092 221.73 127.132 211.45C132.542 204.5 153.572 192.08 153.572 192.08Z" fill="#8C6048"/>
<g style="mix-blend-mode:multiply" opacity="0.2">
<path d="M127.132 211.449C128.819 209.473 130.713 207.682 132.782 206.109C141.502 225.179 161.932 261.109 174.182 277.169C184.262 290.349 203.342 296.979 212.842 295.599C217.398 294.93 221.895 293.907 226.292 292.539C227.452 305.419 222.292 313.989 210.362 318.719C201.742 322.129 182.682 306.319 172.612 293.129C157.282 273.079 129.092 221.729 127.132 211.449Z" fill="#8C6048"/>
</g>
<path d="M206.702 319.139C199.612 318.459 189.172 310.829 180.642 302.239C180.692 301.932 180.773 301.63 180.882 301.339C181.742 299.419 183.741 298.279 185.711 297.539C198.641 292.629 212.842 299.159 226.662 299.809C234.102 300.159 242.972 299.349 247.532 305.249C248.805 306.954 249.605 308.965 249.852 311.079C232.702 317.589 217.832 319.439 206.702 319.139Z" fill="#664634"/>
<path d="M133.812 133.54C143.992 131.41 150.172 130.21 162.282 127.8C166.582 126.94 169.692 125.58 174.202 126.38C179.692 127.38 183.922 134.38 189.662 136.63C191.392 138.18 190.802 139.04 187.352 139.07C181.662 136.78 179.502 128.44 174.012 127.45C169.502 126.65 166.392 128 162.082 128.85C149.982 131.23 143.803 132.42 133.613 134.53L133.812 133.54Z" fill="#7B3A25"/>
<path d="M148.182 98.1C145.282 106.64 145.522 128.52 146.432 132.22C147.432 136.22 146.541 143.91 148.911 150.93C151.281 157.95 157.752 185.22 162.972 190.47C166.452 193.97 179.242 193.9 187.802 190.94C197.602 187.55 214.901 174.57 215.541 168.87C216.461 160.63 224.211 139.42 222.411 126.38C220.611 113.34 216.031 99.54 208.351 89.38C200.671 79.22 193.041 69.81 176.541 76.98C160.041 84.15 151.232 89.07 148.182 98.1Z" fill="#F7A379"/>
<path d="M140 78.8199C140.725 79.7544 141.646 80.5182 142.699 81.0574C143.751 81.5965 144.909 81.8978 146.091 81.9399C142.771 75.9399 144.09 67.24 148.98 62.84C148.861 64.7673 149.302 66.6879 150.25 68.37L150.941 66.4399L153.421 69.63C153.191 63.3 157.341 57.14 162.811 55.63C161.938 56.4504 161.366 57.539 161.185 58.7225C161.004 59.906 161.224 61.1162 161.811 62.1599L163.171 60.25C163.328 60.8913 163.613 61.4942 164.008 62.0233C164.403 62.5524 164.901 62.9968 165.471 63.33C167.731 56.74 173.521 51.87 179.791 51.33C179.351 52.2154 179.105 53.1838 179.067 54.1714C179.029 55.159 179.201 56.1434 179.571 57.0599C180.615 55.0434 182.164 53.3326 184.068 52.095C185.972 50.8574 188.164 50.1356 190.431 50C191.021 52.91 193.911 54.9999 196.491 54.3199L200.781 56.7699C203.05 54.1467 206.224 52.4756 209.671 52.09C209.501 54.99 213.331 58.32 215.531 59.84C216.983 60.692 218.549 61.335 220.181 61.75C220.116 60.9897 220.212 60.2243 220.461 59.5032C220.71 58.782 221.108 58.121 221.627 57.5625C222.147 57.004 222.778 56.5605 223.48 56.2604C224.181 55.9603 224.938 55.8103 225.701 55.8199C225.58 55.9291 225.466 56.046 225.361 56.1699C224.647 56.9771 224.187 57.9771 224.04 59.0446C223.892 60.112 224.063 61.1993 224.531 62.1699C225.285 61.0393 226.431 60.2291 227.749 59.8965C229.067 59.5639 230.461 59.7326 231.661 60.37C231.511 60.37 231.351 60.4599 231.201 60.5199C229.801 61.0599 231.401 68.0099 231.061 69.7699L231.201 69.99L231.671 70.12C233.671 70.32 236.381 70.32 237.601 69.12L236.601 70.12C239.318 70.9407 241.841 72.3012 244.021 74.12H241.571C244.699 75.2619 247.276 77.5495 248.781 80.5199L247.491 79.99C248.734 81.7585 250.521 83.0719 252.581 83.73L251.581 84.5C254.032 87.2316 255.554 90.6693 255.931 94.3199L254.931 93.74C256.041 97.17 255.691 100.74 256.811 104.12L255.931 104.36C255.761 107.58 253.861 112.06 253.691 115.28L253.611 115.19C253.391 116.53 253.231 117.8 252.921 119.19C244.291 158.05 235.921 154.91 228.381 172.59C227.381 174.9 225.99 147.33 221.21 141.29C216.43 135.25 208.48 134.81 208.48 134.81C210.82 118.95 214.111 94.64 194.991 91.22C175.871 87.8 154.881 100.22 145.041 93.58C140.231 90.43 138.7 84.0899 140 78.8199Z" fill="#BD8242"/>
<g style="mix-blend-mode:multiply" opacity="0.3">
<g style="mix-blend-mode:multiply" opacity="0.3">
<path d="M219.292 139.4C218.663 138.852 217.995 138.35 217.292 137.9C218.942 137.46 220.202 135.4 221.972 135.59C222.692 135.66 223.322 136.14 224.032 136.26C224.742 136.38 225.682 135.83 225.462 135.14C225.822 136.14 226.192 137.04 226.562 137.99C226.639 138.253 226.788 138.488 226.992 138.67C227.612 139.12 228.392 138.4 228.802 137.76C232.838 131.429 235.694 124.419 237.232 117.07C239.002 124.94 234.892 132.85 234.002 140.87C235.357 139.681 236.409 138.187 237.072 136.51C236.964 136.784 236.951 137.086 237.036 137.367C237.122 137.649 237.3 137.893 237.542 138.06C238.53 137.022 239.221 135.737 239.542 134.34C238.917 138.549 237.458 142.592 235.252 146.23C239.774 143.218 244.115 139.942 248.252 136.42C241.252 157.6 234.542 158.13 228.332 172.64C228.252 172.73 228.182 172.7 228.112 172.64C227.112 171.11 225.612 146.92 221.162 141.31C220.597 140.619 219.971 139.98 219.292 139.4Z" fill="#BD8242"/>
</g>
<g style="mix-blend-mode:multiply" opacity="0.3">
<path d="M215.702 133.82C215.982 135.02 216.252 136.21 216.532 137.4C215.475 136.792 214.363 136.283 213.212 135.88C213.956 135.096 214.792 134.404 215.702 133.82Z" fill="#BD8242"/>
</g>
</g>
<g style="mix-blend-mode:multiply" opacity="0.5">
<path d="M162.941 127.871C162.941 127.871 154.671 146.691 155.291 148.031C157.641 153.111 168.801 152.691 168.801 152.691C168.801 152.691 158.861 150.301 158.941 147.631C159.021 144.961 162.941 127.871 162.941 127.871Z" fill="#E6966E"/>
</g>
<path d="M192.921 115.329C189.381 114.329 174.491 113.419 173.641 114.409C172.791 115.399 172.061 119.189 173.641 119.259C179.991 119.569 186.781 119.569 191.921 119.949C194.421 120.129 199.121 122.799 199.121 122.799C199.121 122.799 196.471 116.289 192.921 115.329Z" fill="#8B5E3C"/>
<path d="M146.701 115.1C148.771 114.3 159.571 113.35 159.961 114.41C160.351 115.47 160.271 119.66 159.381 119.59C154.865 119.342 150.338 119.342 145.821 119.59C145.821 119.59 144.941 115.82 146.701 115.1Z" fill="#8B5E3C"/>
<path d="M222.2 137.5C212.56 156.6 220.77 171.5 217.67 177.2C209.11 192.97 196.09 198.81 185.03 203.92C179.36 206.54 167.46 206.83 164.12 204.67C156.02 199.42 148.81 158.05 150.76 157.16C153.7 155.83 158.3 153.52 173.28 154.31C195.85 155.52 194.06 160.96 199.12 160C202.12 159.44 205.4 141 208.28 133.47C210.32 128.18 223.84 134.27 222.2 137.5ZM176.53 167.33C176.781 166.791 176.865 166.189 176.772 165.601C176.679 165.014 176.414 164.467 176.01 164.03C174.5 162.94 171.42 161.46 165.47 161.03C161.866 160.665 158.23 161.248 154.92 162.72C154.44 163.072 154.08 163.563 153.89 164.127C153.7 164.691 153.69 165.3 153.86 165.87C154.79 169.87 157.51 177.59 164.48 177.47C171.45 177.35 175.08 170.82 176.53 167.33Z" fill="#BD8242"/>
<g style="mix-blend-mode:multiply" opacity="0.3">
<path d="M160.362 198.411C160.68 198.593 161.015 198.744 161.362 198.861C160.872 196.351 160.902 193.768 161.452 191.271C161.505 194.416 162.774 197.419 164.992 199.651C168.843 200.012 172.725 199.82 176.522 199.081C176.478 196.824 176.575 194.566 176.812 192.321C176.784 193.336 177.043 194.338 177.56 195.212C178.076 196.086 178.829 196.796 179.732 197.261C179.992 196.031 180.252 194.801 180.522 193.571C181.031 194.808 181.633 196.004 182.322 197.151C184.322 196.221 186.382 195.251 188.462 194.201C190.296 190.61 190.694 186.454 189.572 182.581C190.422 185.741 192.132 188.931 194.742 190.731C202.804 186.005 209.417 179.161 213.862 170.941C216.862 165.381 209.252 151.151 217.692 132.801C220.602 134.111 222.892 136.071 222.162 137.501C212.522 156.601 220.732 171.501 217.632 177.201C209.072 192.971 196.052 198.811 184.992 203.921C179.322 206.541 167.412 206.831 164.082 204.671C162.412 203.591 160.792 200.921 159.262 197.441C159.592 197.803 159.961 198.129 160.362 198.411Z" fill="#BD8242"/>
</g>
<path d="M183.93 127.511C185.784 128.116 187.445 129.203 188.74 130.661C188.74 130.661 188.11 132.951 182.98 134.081C177.45 134.731 173.98 132.841 173.73 129.811C174.04 127.651 177.55 125.981 183.93 127.511Z" fill="#F2F0F0"/>
<path d="M175.702 131.25C175.112 129.15 175.882 127.02 177.622 126.45C179.362 125.88 181.311 127.11 181.981 129.2C182.651 131.29 181.792 133.42 180.062 134C177.982 134.68 176.332 133.55 175.702 131.25Z" fill="#487CB8"/>
<path d="M178.171 124.26C174.561 124.96 173.73 129.81 173.73 129.81C175.773 128.24 178.321 127.475 180.891 127.66C183.702 128.036 186.387 129.063 188.73 130.66C188.73 130.66 186.421 122.67 178.171 124.26Z" fill="#E6966E"/>
<path d="M176.061 131.19C175.999 130.741 176.066 130.283 176.255 129.871C176.444 129.459 176.747 129.109 177.128 128.863C177.509 128.617 177.952 128.485 178.406 128.482C178.859 128.48 179.304 128.607 179.687 128.849C180.071 129.09 180.378 129.437 180.571 129.847C180.765 130.257 180.837 130.714 180.78 131.163C180.722 131.613 180.538 132.037 180.247 132.386C179.957 132.734 179.574 132.992 179.142 133.13C178.477 133.269 177.784 133.144 177.21 132.782C176.635 132.42 176.223 131.85 176.061 131.19Z" fill="#18100E"/>
<path d="M179.311 129.669C179.256 129.54 179.228 129.402 179.228 129.263C179.227 129.123 179.254 128.985 179.307 128.855C179.36 128.726 179.438 128.609 179.536 128.51C179.635 128.411 179.752 128.332 179.881 128.279C180.157 128.219 180.444 128.269 180.684 128.418C180.923 128.568 181.094 128.805 181.161 129.079C181.265 129.341 181.264 129.633 181.158 129.894C181.052 130.155 180.848 130.364 180.591 130.479C180.454 130.511 180.311 130.516 180.172 130.493C180.033 130.469 179.9 130.418 179.78 130.343C179.661 130.267 179.558 130.169 179.478 130.053C179.397 129.937 179.34 129.807 179.311 129.669Z" fill="#EFECEC"/>
<path d="M179.8 126.82C178.25 126.706 176.704 127.102 175.4 127.95C174.749 128.493 174.185 129.134 173.73 129.85C174.73 129.3 177.85 128.03 180.23 128.56C185.16 129.67 188.74 130.7 188.74 130.7C186.247 128.492 183.116 127.134 179.8 126.82Z" fill="#412118"/>
<path d="M155.461 128.06C157.234 128.741 158.806 129.859 160.031 131.31C160.031 131.31 159.521 133.55 154.781 134.5C149.671 134.96 146.421 132.99 146.061 130C146.271 127.88 149.491 126.35 155.461 128.06Z" fill="#F2F0F0"/>
<path d="M147.762 131.141C147.332 129.031 148.212 127.071 149.902 126.751C151.592 126.431 153.372 127.901 153.902 130.011C154.432 132.121 153.441 134.081 151.751 134.401C149.701 134.821 148.222 133.461 147.762 131.141Z" fill="#487CB8"/>
<path d="M150.001 124.669C146.681 125.239 146.062 129.999 146.062 129.999C146.978 129.264 148.033 128.718 149.162 128.394C150.292 128.069 151.474 127.973 152.642 128.109C155.315 128.593 157.841 129.688 160.021 131.309C160.021 131.309 157.621 123.359 150.001 124.669Z" fill="#E6966E"/>
<path d="M148.091 131.161C147.731 129.661 148.391 128.281 149.561 128.061C150.731 127.841 151.981 128.881 152.341 130.381C152.701 131.881 152.041 133.261 150.861 133.471C150.196 133.495 149.545 133.272 149.034 132.846C148.522 132.42 148.187 131.819 148.091 131.161Z" fill="#18100E"/>
<path d="M151.221 129.979C151.071 129.359 151.341 128.789 151.831 128.709C152.107 128.694 152.378 128.783 152.591 128.959C152.805 129.135 152.943 129.385 152.981 129.659C153.025 129.783 153.044 129.914 153.038 130.046C153.031 130.178 152.999 130.307 152.942 130.425C152.885 130.544 152.806 130.651 152.708 130.739C152.61 130.827 152.495 130.895 152.371 130.939C152.094 130.951 151.822 130.86 151.61 130.682C151.397 130.504 151.258 130.253 151.221 129.979Z" fill="#EFECEC"/>
<path d="M151.601 127.2C150.192 127.06 148.778 127.413 147.601 128.2C147.01 128.727 146.508 129.345 146.111 130.03C147.011 129.52 149.881 128.37 152.111 128.97C156.731 130.21 160.111 131.34 160.111 131.34C160.111 131.34 156.331 127.61 151.601 127.2Z" fill="#412118"/>
<g style="mix-blend-mode:multiply" opacity="0.5">
<path d="M154.472 164.91C159.202 171.68 172.092 165.91 172.822 165.21C172.822 165.21 153.702 164.28 154.472 164.91Z" fill="#E6966E"/>
</g>
<g style="mix-blend-mode:multiply" opacity="0.5">
<path d="M158.632 171.92C161.032 176.98 166.962 172.67 167.372 172.01C167.492 171.55 158.182 171.31 158.632 171.92Z" fill="#E6966E"/>
</g>
<path d="M190.18 135.08C198.55 132.83 207.81 131.25 217.78 128.7C221.33 127.79 223.78 126.4 227.71 127.12C232.45 127.98 236.801 134.83 241.901 136.96C243.541 138.45 243.13 139.31 240.22 139.39C235.15 137.23 232.41 129.06 227.66 128.17C223.76 127.45 221.28 128.83 217.73 129.73C207.73 132.26 198.49 133.82 190.11 136.06L190.18 135.08Z" fill="#7B3A25"/>
<g style="mix-blend-mode:screen" opacity="0.3">
<path d="M137.102 138.39C136.302 132.54 140.212 129.13 146.102 129.22C151.992 129.31 157.282 132.41 157.822 138.47C158.362 144.53 153.732 151.301 147.352 150.131C141.122 148.991 137.862 143.89 137.102 138.39Z" fill="#E6E7E8"/>
</g>
<g style="mix-blend-mode:screen" opacity="0.3">
<path d="M154.42 141.061C153.92 134.991 148.75 131.861 142.82 131.741C141.274 131.697 139.735 131.973 138.3 132.551C139.82 130.371 142.58 129.161 146.07 129.221C152.07 129.311 157.25 132.411 157.79 138.471C158.2 143.061 155.72 147.931 151.79 149.631C153.722 147.212 154.663 144.148 154.42 141.061Z" fill="#E6E7E8"/>
</g>
<g style="mix-blend-mode:screen" opacity="0.3">
<path d="M167.911 138.579C167.261 132.429 172.121 129.439 178.621 129.579C185.121 129.719 190.621 133.579 190.941 139.909C191.251 145.909 188.521 151.139 181.631 151.679C174.741 152.219 168.571 144.819 167.911 138.579Z" fill="#E6E7E8"/>
</g>
<g style="mix-blend-mode:screen" opacity="0.3">
<path d="M187.101 142.95C186.801 136.58 181.502 132.66 174.922 132.53C172.891 132.452 170.865 132.792 168.971 133.53C170.681 130.82 174.251 129.46 178.621 129.53C185.251 129.63 190.622 133.53 190.942 139.86C191.192 144.64 189.441 148.93 185.181 150.74C186.642 148.417 187.315 145.686 187.101 142.95Z" fill="#E6E7E8"/>
</g>
<path d="M138.821 130.24C144.051 127.24 149.761 127.24 156.351 131.24C156.664 131.439 157.018 131.566 157.387 131.611C157.755 131.656 158.129 131.618 158.481 131.5C160.766 130.605 163.306 130.605 165.591 131.5C165.959 131.671 166.363 131.751 166.769 131.733C167.174 131.716 167.569 131.601 167.921 131.4C174.081 127.5 180.421 127.63 187.041 130.97C189.284 132.607 191.966 133.534 194.741 133.63L195.121 136.72C193.061 137.09 192.191 138.52 192.601 141.45C192.295 141.627 191.946 141.715 191.593 141.705C191.239 141.694 190.896 141.585 190.601 141.39C189.811 134.67 186.071 130.71 178.671 130.17C171.911 129.79 168.361 132.47 168.131 138.52C168.034 138.706 167.889 138.863 167.711 138.975C167.533 139.087 167.329 139.149 167.119 139.155C166.909 139.161 166.701 139.111 166.517 139.01C166.333 138.909 166.179 138.76 166.071 138.58C165.221 137.4 165.561 136.25 166.301 135.98C166.326 135.358 166.131 134.746 165.75 134.253C165.37 133.76 164.829 133.415 164.221 133.28C162.916 132.891 161.526 132.891 160.221 133.28C159.941 133.333 159.676 133.445 159.443 133.608C159.21 133.772 159.014 133.983 158.869 134.228C158.724 134.473 158.634 134.747 158.603 135.03C158.572 135.313 158.602 135.599 158.691 135.87C159.471 136.17 159.511 137.26 158.901 138.39C158.451 139.22 158.031 139.03 157.391 138.28C156.021 132.28 152.131 129.56 145.971 129.71C139.531 130 136.971 133.53 137.491 139.71C137.238 139.86 136.947 139.934 136.652 139.923C136.358 139.912 136.073 139.818 135.831 139.65C135.681 136.98 134.711 135.65 132.941 135.19L132.731 132.4C134.96 132.471 137.135 131.7 138.821 130.24Z" fill="#3F2216"/>
<path d="M167.972 138.25C169.852 147.13 175.672 150.85 180.142 151.25C184.862 151.71 190.251 148.72 190.731 141.17L191.422 141.33C191.39 142.89 191.044 144.427 190.407 145.851C189.77 147.275 188.853 148.557 187.711 149.62C185.773 151.285 183.262 152.128 180.711 151.97H180.202C177.22 151.624 174.45 150.256 172.362 148.1C169.782 145.394 168.045 141.996 167.362 138.32L167.972 138.25Z" fill="#3F2216"/>
<path d="M137.381 139.599C139.091 146.599 144.31 149.889 148.48 149.889C152.65 149.889 157.391 146.759 157.531 138.109L158.141 138.199C158.081 142.059 157.051 145.289 155.141 147.479C154.326 148.43 153.313 149.191 152.173 149.71C151.033 150.228 149.793 150.491 148.541 150.479H148.081C145.602 150.309 143.255 149.304 141.421 147.629C139.093 145.504 137.482 142.709 136.811 139.629L137.381 139.599Z" fill="#3F2216"/>
<path d="M192.581 134.899H193.801C193.835 134.902 193.868 134.896 193.899 134.883C193.93 134.87 193.958 134.851 193.98 134.826C194.002 134.801 194.018 134.771 194.027 134.739C194.036 134.706 194.038 134.672 194.031 134.639C194.02 134.565 193.982 134.498 193.926 134.448C193.869 134.399 193.797 134.371 193.721 134.37H192.501C192.468 134.367 192.434 134.373 192.404 134.386C192.373 134.399 192.345 134.418 192.323 134.443C192.301 134.468 192.285 134.498 192.276 134.53C192.267 134.563 192.265 134.597 192.271 134.63C192.285 134.703 192.323 134.77 192.379 134.819C192.435 134.868 192.507 134.896 192.581 134.899Z" fill="#B3B3B3"/>
<path d="M133.701 133.47H134.701C134.731 133.47 134.76 133.464 134.787 133.452C134.814 133.44 134.838 133.423 134.857 133.401C134.877 133.38 134.892 133.354 134.901 133.326C134.911 133.299 134.914 133.269 134.911 133.24C134.911 133.178 134.887 133.118 134.844 133.074C134.801 133.029 134.743 133.003 134.681 133H133.681C133.651 133 133.62 133.006 133.592 133.018C133.564 133.031 133.539 133.049 133.518 133.071C133.497 133.094 133.481 133.121 133.472 133.15C133.462 133.179 133.458 133.209 133.461 133.24C133.468 133.3 133.496 133.356 133.54 133.398C133.583 133.44 133.641 133.466 133.701 133.47Z" fill="#B3B3B3"/>
<path d="M214.701 129.249C213.101 133.959 214.351 149.149 214.351 149.149C214.833 149.744 215.462 150.204 216.175 150.482C216.889 150.761 217.663 150.85 218.421 150.739C221.351 150.559 225.621 140.109 225.621 140.109C225.621 140.109 229.091 128.789 224.451 125.999C223.627 125.447 222.687 125.091 221.704 124.959C220.721 124.826 219.72 124.92 218.779 125.234C217.838 125.548 216.981 126.073 216.274 126.769C215.567 127.465 215.029 128.313 214.701 129.249Z" fill="#F7A379"/>
<g style="mix-blend-mode:multiply" opacity="0.3">
<g style="mix-blend-mode:multiply" opacity="0.3">
<path d="M162.702 63.2994C161.974 64.5814 160.944 65.6662 159.702 66.4595C159.544 62.927 160.179 59.404 161.562 56.1494C161.946 55.9668 162.344 55.8131 162.751 55.6895C161.879 56.5098 161.307 57.5986 161.126 58.7821C160.945 59.9656 161.165 61.1757 161.751 62.2195L163.112 60.3094C163.269 60.9507 163.554 61.5538 163.949 62.0829C164.344 62.612 164.842 63.0562 165.412 63.3894C166.162 61.2596 167.282 59.2792 168.722 57.5394C168.285 60.4415 168.724 63.4079 169.981 66.0594C169.293 66.1466 168.594 66.0688 167.942 65.8323C167.29 65.5958 166.704 65.2075 166.231 64.6995C166.373 65.0182 166.47 65.3546 166.521 65.6995C165.757 65.5732 165.026 65.296 164.37 64.8839C163.714 64.4718 163.147 63.9332 162.702 63.2994Z" fill="#BD8242"/>
</g>
<g style="mix-blend-mode:multiply" opacity="0.3">
<path d="M196.512 54.3291L199.942 56.3291C200.11 56.561 200.325 56.7551 200.572 56.899C198.719 57.3218 196.779 57.138 195.038 56.3746C193.297 55.6113 191.847 54.3087 190.902 52.6591L188.672 54.5591C188.499 53.771 188.524 52.952 188.748 52.1765C188.972 51.4011 189.386 50.6938 189.952 50.1191C190.122 50.1191 190.282 50.0391 190.452 50.0391C191.042 52.9191 193.932 54.9791 196.512 54.3291Z" fill="#BD8242"/>
</g>
<g style="mix-blend-mode:multiply" opacity="0.3">
<path d="M150.252 68.3785L150.942 66.4485L153.422 69.6384C153.35 67.2229 153.874 64.8268 154.948 62.6622C156.023 60.4976 157.614 58.6314 159.582 57.2285C158.371 58.7764 157.335 60.4532 156.492 62.2285C154.862 65.8585 154.382 70.2284 156.202 73.7784C155.02 73.5859 153.923 73.044 153.051 72.2224C152.18 71.4008 151.574 70.3372 151.312 69.1685L150.502 71.0284C147.982 69.8784 148.302 66.6385 148.282 63.5785C148.522 63.3185 148.722 63.0285 148.982 62.7985C148.853 64.7425 149.294 66.682 150.252 68.3785Z" fill="#BD8242"/>
</g>
<g style="mix-blend-mode:multiply" opacity="0.3">
<path d="M140.592 87.9688C141.446 88.6018 142.349 89.1668 143.292 89.6587C147.412 91.5687 152.092 91.8288 156.622 91.7288C169.892 91.4188 180.711 88.3987 193.711 91.0787L194.932 91.2687C175.802 87.8487 154.821 100.269 144.981 93.6288C142.972 92.2368 141.44 90.2609 140.592 87.9688Z" fill="#BD8242"/>
</g>
<g style="mix-blend-mode:multiply" opacity="0.3">
<path d="M180.262 57.4391L175.211 62.269C174.412 60.6021 174.21 58.7115 174.638 56.9131C175.065 55.1147 176.097 53.5176 177.562 52.389C178.102 52.0069 178.674 51.6723 179.271 51.389C179.451 51.389 179.632 51.3091 179.812 51.2891C179.372 52.1745 179.126 53.1429 179.088 54.1305C179.05 55.1181 179.222 56.1025 179.592 57.019C179.917 56.4919 180.278 55.9874 180.672 55.509C180.461 56.1343 180.323 56.782 180.262 57.4391Z" fill="#BD8242"/>
</g>
<g style="mix-blend-mode:multiply" opacity="0.3">
<path d="M208.622 55.3185C208.442 54.8314 208.369 54.3112 208.409 53.7933C208.448 53.2755 208.6 52.7723 208.852 52.3185C209.132 52.3185 209.412 52.1784 209.692 52.1484C209.522 55.0484 213.352 58.3784 215.552 59.8984C216.859 60.672 218.265 61.2641 219.732 61.6584C219.778 61.9281 219.838 62.1952 219.912 62.4585L211.732 58.0685C210.419 57.5228 209.324 56.5552 208.622 55.3185Z" fill="#BD8242"/>
</g>
<g style="mix-blend-mode:multiply" opacity="0.3">
<path d="M224.472 65.4794C221.892 63.9194 221.722 59.9994 223.332 57.4794C223.653 56.9914 224.022 56.5359 224.432 56.1194C224.847 55.984 225.276 55.8968 225.711 55.8594C225.591 55.9685 225.477 56.0854 225.372 56.2094C224.658 57.0165 224.198 58.0165 224.05 59.084C223.903 60.1514 224.073 61.2387 224.542 62.2094C225.295 61.0787 226.442 60.2684 227.76 59.9358C229.077 59.6032 230.472 59.7719 231.672 60.4093C231.522 60.4093 231.361 60.4993 231.211 60.5593C229.811 61.0993 231.412 68.0493 231.072 69.8093L231.211 70.0293C231.211 70.0293 231.772 70.1694 232.682 70.4894C232.184 70.5791 231.677 70.6092 231.172 70.5793C230.408 70.5234 229.679 70.2373 229.081 69.7589C228.483 69.2805 228.044 68.6322 227.822 67.8993C227.342 65.5893 229.822 63.4993 229.512 61.1593C228.4 61.4526 227.369 61.9936 226.497 62.7417C225.624 63.4898 224.931 64.4258 224.472 65.4794Z" fill="#BD8242"/>
</g>
</g>
<g style="mix-blend-mode:multiply" opacity="0.3">
<path d="M196.321 87.3802C189.822 85.9247 183.448 83.9552 177.261 81.4902C183.381 83.2312 189.744 83.964 196.101 83.6602C195.302 83.1672 194.547 82.6086 193.841 81.9902C195.519 82.3612 197.249 82.4289 198.951 82.1902C195.641 80.5402 192.131 78.7201 190.281 75.5101C194.048 78.4811 198.483 80.4891 203.201 81.3602C203.57 81.4351 203.951 81.4351 204.321 81.3602C205.741 80.2802 207.321 79.2001 208.931 78.1501L205.591 75.2502C207.303 75.6484 209.04 75.9324 210.791 76.1002C209.907 75.5359 209.186 74.7498 208.701 73.8202L210.791 73.9802C210.348 73.7457 209.968 73.4093 209.681 72.999C209.394 72.5887 209.209 72.1162 209.141 71.6202C210.667 72.1407 212.282 72.3481 213.891 72.2302L208.891 66.7402C211.771 68.999 215.136 70.5597 218.721 71.3002C218.465 70.9077 218.297 70.4641 218.23 70.0002C219.338 70.4128 220.525 70.5667 221.701 70.4502C220.489 69.8571 219.416 69.0155 218.551 67.9802C220.723 69.5111 223.242 70.4767 225.881 70.7902C227.664 70.3775 229.476 70.1001 231.301 69.9602C231.301 69.9602 217.301 73.6202 193.801 91.0402C193.801 91.0402 195.081 89.5702 197.311 87.4402C196.98 87.444 196.649 87.424 196.321 87.3802Z" fill="#BD8242"/>
</g>
</g>
</svg>
