<svg width="298" height="195" viewBox="0 0 298 195" fill="none" xmlns="http://www.w3.org/2000/svg">
<path d="M53.0198 29.2348C40.9604 30.2457 29.7767 35.0046 21.6416 42.5869C13.5064 50.1693 9.00077 60.0337 9 70.2636V116.729C9.0058 125.88 12.615 134.769 19.26 141.999C25.905 149.229 35.2086 154.389 45.7074 156.668C45.7074 156.668 51.8888 160.405 64.4512 165.225C82.2076 172.038 90.6992 170.934 90.6992 170.934L80.4778 159.489L173.57 165.225C180.269 165.641 186.997 164.886 193.334 163.008C199.672 161.13 205.482 158.169 210.403 154.309C215.323 150.45 219.248 145.775 221.932 140.578C224.615 135.38 226 129.771 226 124.101V60.3028C226.011 54.535 224.589 48.8294 221.826 43.5546C219.062 38.2798 215.018 33.5531 209.955 29.6799C204.892 25.8068 198.923 22.8733 192.433 21.0692C185.943 19.265 179.077 18.6302 172.279 19.2059L52.9876 29.2348" fill="#EDEDED"/>
<path d="M53.0198 29.2348C40.9604 30.2457 29.7767 35.0046 21.6416 42.5869C13.5064 50.1693 9.00077 60.0337 9 70.2636V116.729C9.0058 125.88 12.615 134.769 19.26 141.999C25.905 149.229 35.2086 154.389 45.7074 156.668C45.7074 156.668 51.8888 160.405 64.4512 165.225C82.2076 172.038 90.6992 170.934 90.6992 170.934L80.4778 159.489L173.57 165.225C180.269 165.641 186.997 164.886 193.334 163.008C199.672 161.13 205.482 158.169 210.403 154.309C215.323 150.45 219.248 145.775 221.932 140.578C224.615 135.38 226 129.771 226 124.101V60.3028C226.011 54.535 224.589 48.8294 221.826 43.5546C219.062 38.2798 215.018 33.5531 209.955 29.6799C204.892 25.8068 198.923 22.8733 192.433 21.0692C185.943 19.265 179.077 18.6302 172.279 19.2059L52.9876 29.2348" stroke="#E3E3E3" stroke-width="2" stroke-miterlimit="10"/>
<path d="M228.713 168.248C232.173 153.473 223 138.69 208.225 135.23C193.45 131.77 178.668 140.943 175.208 155.718C171.748 170.493 180.921 185.275 195.696 188.735C210.471 192.195 225.253 183.023 228.713 168.248Z" fill="#69B4D8"/>
<path d="M199.634 150.802V158.292C199.735 161.578 199.26 164.857 198.23 167.979C197.285 170.56 195.601 172.806 193.387 174.436C191.082 176.168 188.426 177.375 185.605 177.971V171.918C186.526 171.487 187.328 170.839 187.941 170.029C188.554 169.218 188.96 168.271 189.125 167.268H185.605V150.802H199.634ZM218.344 150.802V158.292C218.442 161.577 217.972 164.854 216.956 167.979C216.004 170.556 214.321 172.8 212.113 174.436C209.81 176.171 207.153 177.378 204.332 177.971V171.918C205.245 171.483 206.038 170.833 206.643 170.023C207.248 169.213 207.646 168.267 207.803 167.268H204.332V150.802H218.344Z" fill="black"/>
<path d="M27.4761 54.9522C42.6508 54.9522 54.9522 42.6508 54.9522 27.4761C54.9522 12.3015 42.6508 0 27.4761 0C12.3015 0 0 12.3015 0 27.4761C0 42.6508 12.3015 54.9522 27.4761 54.9522Z" fill="#69B4D8"/>
<path d="M8.99287 40.9074V33.4169C8.88694 30.1294 9.368 26.8494 10.4135 23.7308C11.38 21.1611 13.0602 18.9208 15.2565 17.2735C17.5292 15.5215 20.1754 14.3172 22.9892 13.7542V19.7595C22.0767 20.2072 21.2851 20.8677 20.681 21.6852C20.077 22.5028 19.6783 23.4535 19.5184 24.4573H22.9892V40.8429L8.99287 40.9074ZM27.7031 40.9074V33.4169C27.6053 30.1299 28.0862 26.8513 29.1237 23.7308C30.0958 21.1642 31.7749 18.9253 33.9668 17.2735C36.2402 15.5126 38.8937 14.3075 41.7156 13.7542V19.7595C40.8052 20.2082 40.0162 20.8692 39.4149 21.6868C38.8137 22.5044 38.4178 23.4546 38.2609 24.4573H41.7156V40.8429L27.7031 40.9074Z" fill="black"/>
<path opacity="0.2" d="M36.2748 77.788L45.1329 122.96C47.3461 134.205 59.4459 142.598 74.1939 143.054L246.127 148.38C260.723 148.841 273.92 141.362 277.785 130.437L294.757 82.5952C300.077 67.5777 285.859 52.8629 265.771 52.5832L68.0061 49.8627C48.6647 49.6596 33.3937 63.0248 36.2748 77.788Z" fill="#231F20"/>
<path d="M27.9926 70.099L36.8506 115.271C39.0638 126.516 51.1632 134.893 65.9112 135.349L237.845 140.691C252.44 141.136 265.638 133.673 269.503 122.748L286.475 74.9062C291.794 59.8886 277.577 45.1739 257.489 44.8941L59.7238 42.1736C40.3829 41.9867 25.111 55.3196 27.9926 70.099Z" fill="white"/>
</svg>
